# https://github.com/mikedh/trimesh
v -1.34979850 -37.49737525 13.24699668
v -1.34979850 -40.49786879 13.24699668
v -5.47389908 -36.50175661 -12.55000366
v -5.47389908 -35.59137913 -12.27973954
v -1.35861111 -37.38144942 13.24699668
v -1.67144216 -36.50175661 74.47454912
v -1.65822475 -37.49737525 74.47454912
v -1.35861111 -41.49689683 13.24699668
v -5.47389908 -42.49592487 -12.55000366
v -1.65822475 -41.49689683 74.47454912
v -35.04757715 -29.49833208 -12.55000366
v -34.04739426 -29.49833208 -12.50641152
v -5.47389908 -35.14812630 -11.51254229
v -1.55247797 -36.10282906 13.24699668
v -1.47316900 -36.50175661 13.24699668
v -34.04739426 -28.75161810 -12.26230208
v -37.05234775 -11.71699428 8.57406935
v -36.44871416 -11.71699428 8.84433198
v -2.12086412 -35.58115091 74.47454912
v -2.13408302 -35.59819795 75.47713559
v -1.70228479 -36.50175661 75.47713559
v -1.75515892 -35.61865738 13.24699668
v -1.68906737 -37.49737525 75.47713559
v -1.49960532 -42.25383903 13.24699668
v -5.47389908 -43.26991709 -12.27973954
v -1.74634632 -42.49592487 74.47454912
v -8.05586842 -45.49641841 -12.55000366
v -6.53576722 -46.02491836 -12.04435032
v -7.05568553 -45.49641841 -12.32333168
v -1.68906737 -41.49689683 75.47713559
v -1.75515892 -42.49592487 75.47713559
v -43.04463100 -42.49592487 -12.54128344
v -43.04463100 -29.49833208 -12.54128344
v -43.04463100 -28.68683339 -12.27973954
v -38.04812583 -28.68342399 -12.27973954
v -37.04794293 -28.69706162 -12.27973954
v -35.04757715 -28.73115868 -12.27973954
v -28.04189359 -45.49641841 -12.55000366
v -36.34737368 -11.71699428 9.48947600
v -35.77017642 -11.71699428 13.24699668
v -38.05253064 -28.20607409 -11.76536896
v -38.05253064 -11.71699428 8.43457867
v -2.27948354 -35.74140500 76.14843430
v -34.85371029 -13.50706158 48.47703298
v -34.91098775 -13.50706158 49.47090072
v -36.45312046 -13.50706158 55.13769728
v -2.14289414 -36.50175661 76.24433284
v -1.64059954 -42.68004780 13.24699668
v -5.47389908 -43.54610000 -11.51254229
v -2.19576827 -43.25968887 75.47713559
v -7.05568553 -46.15448182 -12.16640355
v -8.05586842 -46.27041361 -12.27973954
v -1.91818316 -43.08920655 13.24699668
v -2.11205151 -43.34833944 13.24699668
v -6.52254831 -46.03855599 -11.51254229
v -7.05568553 -46.31132651 -11.51254229
v -2.14289414 -41.49689683 76.24433284
v -2.16933046 -42.49592487 76.23561560
v -2.31473247 -43.17103532 76.14843430
v -43.04463100 -43.26650769 -12.27973954
v -43.76282397 -43.17785712 -12.19255824
v -43.88619447 -42.49592487 -12.27973954
v -43.90381967 -41.49689683 -12.27973954
v -43.90381967 -30.50076953 -12.27973954
v -43.89500707 -29.49833208 -12.27973954
v -43.77163657 -28.79253398 -12.19255824
v -43.04903581 -28.20607409 -11.75665172
v -28.04189359 -46.27041361 -12.27973954
v -45.07143459 -11.71699428 13.24699668
v -41.04867301 -13.50706158 55.61719593
v -38.05253064 -13.50706158 55.60847720
v -37.05234775 -13.50706158 55.46898652
v -43.04903581 -28.18220526 -11.73049704
v -40.05289642 -28.17879585 -11.73049704
v -43.04903581 -11.71699428 8.44329740
v -3.05936176 -35.61524797 76.24433284
v -3.05936176 -36.50175661 76.51459696
v -6.54017203 -46.02491836 76.00022638
v -6.53576722 -46.03173718 75.47713559
v -8.05586842 -46.53977472 -11.51254229
v -6.52254831 -46.03855599 13.23827944
v -6.52254831 -46.04196540 -9.50736936
v -6.52254831 -46.04196540 -10.50995583
v -6.53136091 -46.03173718 67.46515813
v -7.05568553 -46.31473592 -10.50995583
v -8.05586842 -46.55000294 -10.50995583
v -3.05936176 -41.49689683 76.51459696
v -3.05936176 -42.49592487 76.49715951
v -7.05568553 -46.15448182 76.13099684
v -29.04648129 -46.15448182 -12.16640355
v -43.04463100 -43.53928118 -11.51254229
v -43.88619447 -43.26991709 -11.51254229
v -44.29155638 -42.49592487 -11.51254229
v -44.34442604 -41.49689683 -11.51254229
v -44.34883383 -35.09016041 -11.51254229
v -44.34883383 -30.50076953 -11.51254229
v -44.34442604 -29.49833208 -11.51254229
v -43.93906711 -28.47543520 -11.50382505
v -44.34883383 -11.71699428 9.48947600
v -43.89941486 -11.71699428 8.72227876
v -43.67470389 -27.90602236 -11.15509985
v -28.04189359 -46.53977472 -11.51254229
v -45.89096506 -13.50706158 14.49369258
v -46.36241703 -13.50706158 19.45431850
v -46.36241703 -13.50706158 44.48412011
v -45.93502808 -13.50706158 49.47090072
v -45.73234713 -13.50706158 50.17707135
v -44.39730167 -13.50706158 54.46640006
v -43.95228453 -13.50706158 55.28590519
v -43.04903581 -13.50706158 55.59975848
v -42.05326220 -13.50706158 55.60847720
v -41.05307782 -13.50706158 55.61719593
v -38.04812583 -28.19243348 75.69509033
v -34.04739426 -28.75161810 76.20946091
v -43.71435912 -11.71699428 8.66125065
v -34.04739426 -29.50515090 76.46228758
v -35.04317085 -29.50515090 76.50587674
v -27.67618840 -36.50175661 76.51459696
v -7.05568553 -46.30791710 75.47713559
v -7.05568553 -46.31132651 74.47454912
v -7.05568553 -46.31473592 24.50212573
v -15.05714568 -46.55000294 -10.50995583
v -8.05586842 -46.55000294 13.23827944
v -4.05954316 -42.49592487 76.51459696
v -8.06027323 -45.49641841 76.51459696
v -8.06027323 -46.26700123 76.24433284
v -8.06027323 -46.53977472 75.47713559
v -43.04463100 -43.54610000 -10.50995583
v -43.91262930 -43.26991709 -10.50995583
v -44.36205125 -42.49592487 -10.50995583
v -44.44136171 -41.49689683 -10.50995583
v -44.38848906 -35.09016041 -11.10279047
v -44.44136171 -29.49833208 -10.50995583
v -44.30477379 -28.50271344 -10.50995583
v -28.04189359 -46.54659354 -10.50995583
v -46.36241703 -13.51388040 19.45431850
v -46.36241703 -14.45835494 43.44666097
v -44.44136171 -41.49689683 74.47454912
v -44.44136171 -29.50515090 74.47454912
v -44.36205125 -29.50515090 75.46841835
v -44.31358640 -28.50271344 74.47454912
v -43.94787972 -28.48225402 75.45970112
v -43.78485399 -28.79253398 76.14843430
v -43.67910870 -27.90943475 75.11969314
v -43.04463100 -28.19243348 75.69509033
v -38.04812583 -28.68342399 76.23561560
v -37.04794293 -28.69706162 76.23561560
v -35.04317085 -28.73797749 76.23561560
v -43.04463100 -29.50515090 76.50587674
v -27.67618840 -45.49641841 76.51459696
v -8.06027323 -46.55000294 74.47454912
v -15.05714568 -46.55000294 42.47894643
v -28.05070619 -46.54659354 41.44148730
v -27.67618840 -46.26700123 76.24433284
v -27.67618840 -46.53977472 75.47713559
v -43.04463100 -43.54610000 -6.50832721
v -43.92584969 -43.26991709 66.46257167
v -43.91703709 -43.26991709 -9.50736936
v -46.36241703 -18.20215305 30.49149337
v -43.92584969 -43.26309828 -0.51023991
v -44.36645904 -42.49251547 63.47224675
v -46.36241703 -18.14077923 29.61096050
v -46.36241703 -18.04530836 28.96581741
v -46.36241703 -17.94302016 28.39913783
v -46.36241703 -17.58500551 26.49858179
v -46.36241703 -17.33269144 25.54830359
v -46.36241703 -16.38821840 23.49953852
v -46.36241703 -15.28349126 21.54667348
v -46.36241703 -14.40720935 20.49177764
v -46.36241703 -15.41305770 42.27842914
v -44.36645904 -42.49251547 74.47454912
v -44.30917861 -42.49251547 75.46841835
v -44.35764644 -41.49689683 75.46841835
v -44.36205125 -40.49104997 75.46841835
v -46.36241703 -16.45300162 40.38659146
v -46.36241703 -17.41452319 38.35526235
v -46.36241703 -17.63274020 37.31780322
v -46.36241703 -18.09986336 34.22286066
v -43.91703709 -31.49979758 76.23561560
v -43.91262930 -29.50515090 76.23561560
v -43.04463100 -28.68683339 76.23561560
v -42.04885441 -28.68342399 76.23561560
v -43.04463100 -42.49251547 76.50587674
v -28.05070619 -45.48959960 76.50587674
v -28.05070619 -46.26700123 76.23561560
v -11.06522672 -46.55000294 74.47454912
v -14.06136909 -46.55000294 52.46994437
v -27.67618840 -46.54659354 74.47454912
v -28.05070619 -46.54659354 69.47033106
v -28.05070619 -46.53636531 75.46841835
v -43.04463100 -43.54269059 74.47454912
v -43.92584969 -43.26991709 68.46774459
v -46.36241703 -18.20215305 31.49408039
v -43.91703709 -43.26991709 74.47454912
v -43.89500707 -43.26991709 75.46841835
v -46.36241703 -18.13736982 33.48181810
v -46.36241703 -18.15782776 32.98488367
v -46.36241703 -18.18851541 32.01716924
v -43.76282397 -43.17103532 76.14843430
v -43.89500707 -42.49251547 76.23561560
v -43.91262930 -41.49689683 76.23561560
v -43.91703709 -33.49785366 76.23561560
v -43.04463100 -43.26309828 76.23561560
v -29.04648129 -46.15107242 76.12227961
v -12.06540961 -46.55000294 68.46774459
v -28.05070619 -46.53977472 74.47454912
v -43.04463100 -43.53587177 75.46841835
f 1 2 9
f 1 9 3
f 1 3 4
f 1 4 5
f 1 5 6
f 1 6 7
f 1 7 10
f 1 10 2
f 2 8 9
f 2 10 8
f 3 9 27
f 3 27 38
f 3 38 11
f 3 11 12
f 3 12 4
f 4 13 14
f 4 14 15
f 4 15 5
f 4 12 16
f 4 16 17
f 4 17 18
f 4 18 13
f 5 15 6
f 6 19 20
f 6 20 21
f 6 21 23
f 6 23 7
f 6 15 14
f 6 14 22
f 6 22 19
f 7 23 30
f 7 30 10
f 8 24 25
f 8 25 9
f 8 10 26
f 8 26 24
f 9 25 28
f 9 28 29
f 9 29 27
f 10 30 31
f 10 31 26
f 11 32 33
f 11 33 34
f 11 34 35
f 11 35 36
f 11 36 37
f 11 37 16
f 11 16 12
f 11 38 32
f 13 18 39
f 13 39 40
f 13 40 22
f 13 22 14
f 16 37 41
f 16 41 42
f 16 42 17
f 17 42 75
f 17 75 115
f 17 115 100
f 17 100 99
f 17 99 69
f 17 69 40
f 17 40 39
f 17 39 18
f 19 22 40
f 19 40 20
f 20 43 21
f 20 40 44
f 20 44 45
f 20 45 46
f 20 46 43
f 21 43 47
f 21 47 23
f 23 47 57
f 23 57 30
f 24 48 25
f 24 26 48
f 25 48 49
f 25 49 28
f 26 31 50
f 26 50 48
f 27 29 51
f 27 51 52
f 27 52 68
f 27 68 38
f 28 51 29
f 28 49 48
f 28 48 53
f 28 53 54
f 28 54 55
f 28 55 56
f 28 56 51
f 30 57 58
f 30 58 31
f 31 58 59
f 31 59 50
f 32 38 60
f 32 60 61
f 32 61 62
f 32 62 63
f 32 63 64
f 32 64 33
f 33 64 65
f 33 65 66
f 33 66 34
f 34 66 67
f 34 67 41
f 34 41 35
f 35 41 36
f 36 41 37
f 38 68 60
f 40 69 112
f 40 112 70
f 40 70 71
f 40 71 72
f 40 72 46
f 40 46 45
f 40 45 44
f 41 67 73
f 41 73 74
f 41 74 42
f 42 74 73
f 42 73 75
f 43 76 77
f 43 77 47
f 43 46 72
f 43 72 76
f 47 77 87
f 47 87 57
f 48 50 53
f 50 59 78
f 50 78 79
f 50 79 54
f 50 54 53
f 51 56 80
f 51 80 52
f 52 80 102
f 52 102 68
f 54 81 82
f 54 82 83
f 54 83 55
f 54 79 84
f 54 84 81
f 55 83 85
f 55 85 56
f 56 85 86
f 56 86 80
f 57 87 58
f 58 87 88
f 58 88 59
f 59 88 89
f 59 89 78
f 60 68 90
f 60 90 61
f 61 90 91
f 61 91 92
f 61 92 93
f 61 93 62
f 62 93 94
f 62 94 63
f 63 94 95
f 63 95 96
f 63 96 64
f 64 96 97
f 64 97 65
f 65 97 66
f 66 97 98
f 66 98 99
f 66 99 100
f 66 100 101
f 66 101 73
f 66 73 67
f 68 102 90
f 69 99 103
f 69 103 104
f 69 104 105
f 69 105 106
f 69 106 107
f 69 107 108
f 69 108 109
f 69 109 110
f 69 110 111
f 69 111 112
f 70 112 145
f 70 145 113
f 70 113 71
f 71 113 114
f 71 114 72
f 72 114 76
f 73 101 100
f 73 100 115
f 73 115 75
f 76 114 116
f 76 116 77
f 77 117 149
f 77 149 118
f 77 118 150
f 77 150 125
f 77 125 124
f 77 124 87
f 77 116 117
f 78 89 119
f 78 119 79
f 79 119 120
f 79 120 84
f 80 86 122
f 80 122 102
f 81 84 120
f 81 120 82
f 82 120 121
f 82 121 85
f 82 85 83
f 85 121 123
f 85 123 86
f 86 123 151
f 86 151 186
f 86 186 205
f 86 205 187
f 86 187 152
f 86 152 122
f 87 124 88
f 88 124 125
f 88 125 89
f 89 125 126
f 89 126 127
f 89 127 119
f 90 102 91
f 91 102 135
f 91 135 128
f 91 128 129
f 91 129 92
f 92 129 130
f 92 130 93
f 93 130 131
f 93 131 94
f 94 131 132
f 94 132 95
f 95 132 96
f 96 132 133
f 96 133 97
f 97 134 98
f 97 133 103
f 97 103 99
f 97 99 134
f 98 134 99
f 102 122 135
f 103 133 104
f 104 133 131
f 104 131 136
f 104 136 169
f 104 169 168
f 104 168 167
f 104 167 166
f 104 166 165
f 104 165 164
f 104 164 163
f 104 163 162
f 104 162 159
f 104 159 193
f 104 193 198
f 104 198 197
f 104 197 196
f 104 196 178
f 104 178 177
f 104 177 176
f 104 176 175
f 104 175 170
f 104 170 137
f 104 137 105
f 105 137 138
f 105 138 139
f 105 139 140
f 105 140 106
f 106 140 141
f 106 141 107
f 107 141 108
f 108 141 142
f 108 142 109
f 109 142 143
f 109 143 144
f 109 144 110
f 110 144 145
f 110 145 111
f 111 145 112
f 113 145 182
f 113 182 146
f 113 146 147
f 113 147 148
f 113 148 114
f 114 148 117
f 114 117 116
f 117 148 147
f 117 147 146
f 117 146 182
f 117 182 149
f 118 149 183
f 118 183 150
f 119 127 151
f 119 151 120
f 120 151 121
f 121 151 123
f 122 152 189
f 122 189 153
f 122 153 135
f 125 150 154
f 125 154 126
f 126 154 155
f 126 155 127
f 127 155 186
f 127 186 151
f 128 135 153
f 128 153 189
f 128 189 156
f 128 156 192
f 128 192 157
f 128 157 158
f 128 158 129
f 129 158 130
f 130 159 131
f 130 158 160
f 130 160 157
f 130 157 161
f 130 161 159
f 131 133 132
f 131 159 162
f 131 162 163
f 131 163 164
f 131 164 165
f 131 165 166
f 131 166 167
f 131 167 168
f 131 168 169
f 131 169 136
f 137 170 138
f 138 171 172
f 138 172 173
f 138 173 174
f 138 174 140
f 138 140 139
f 138 170 175
f 138 175 176
f 138 176 177
f 138 177 178
f 138 178 171
f 140 179 180
f 140 180 143
f 140 143 142
f 140 142 141
f 140 174 202
f 140 202 179
f 143 180 149
f 143 149 181
f 143 181 145
f 143 145 144
f 145 181 182
f 149 182 181
f 149 180 179
f 149 179 202
f 149 202 183
f 150 183 184
f 150 184 185
f 150 185 154
f 152 187 188
f 152 188 189
f 154 185 155
f 155 190 188
f 155 188 186
f 155 185 190
f 156 189 191
f 156 191 192
f 157 192 171
f 157 171 161
f 157 160 158
f 159 161 171
f 159 171 193
f 171 194 195
f 171 195 172
f 171 178 196
f 171 196 197
f 171 197 198
f 171 198 193
f 171 192 194
f 172 195 199
f 172 199 200
f 172 200 173
f 173 200 201
f 173 201 174
f 174 201 202
f 183 185 184
f 183 202 201
f 183 201 200
f 183 200 199
f 183 199 203
f 183 203 185
f 185 203 204
f 185 204 190
f 186 188 205
f 187 205 188
f 188 190 206
f 188 206 189
f 189 206 191
f 190 204 207
f 190 207 191
f 190 191 206
f 191 207 194
f 191 194 192
f 194 207 195
f 195 207 199
f 199 204 203
f 199 207 204

