# https://github.com/mikedh/trimesh
v -10.82562492 36.22679415 46.48225964
v -10.83895447 36.22679415 46.53352295
v -11.38013427 35.85039433 47.16008361
v -11.29304796 35.77535159 46.48225964
v -12.11148244 36.22679415 39.55735357
v -11.13753657 36.22679415 47.40073893
v -12.05283258 35.77587910 47.25264278
v -12.05283258 35.55312615 46.48225964
v -12.05283258 36.22679415 47.74392236
v -12.38962598 35.91626981 39.84215312
v -18.08401147 36.22679415 33.52956657
v -13.03566500 36.22679415 47.77240314
v -13.05254925 35.77686854 47.25976260
v -13.05254925 35.56592037 46.48225964
v -19.08817151 35.85962715 34.50500593
v -18.32838689 35.87446284 34.48364572
v -13.05254925 35.87558342 39.77807324
v -18.38437092 35.92161340 33.83857471
v -19.05173718 36.22679415 33.22767900
v -13.05254925 36.22679415 47.77240314
v -14.05226573 36.22679415 47.75531438
v -14.05226573 35.80746678 47.23413094
v -14.05226573 35.64603847 46.48225964
v -19.63468261 35.93348077 34.18603034
v -19.63468261 35.93348077 33.86420637
v -19.05173718 35.89121186 33.78588684
v -19.09972371 36.22679415 33.24619083
v -14.93823681 36.22679415 47.39076999
v -14.66631399 35.89173936 47.13017977
v -19.90394015 36.22679415 34.41956584
v -19.90394015 36.22679415 34.33270193
v -19.86928355 36.22679415 33.63921450
f 1 2 3
f 1 3 4
f 1 4 5
f 1 5 11
f 1 11 19
f 1 19 27
f 1 27 32
f 1 32 31
f 1 31 30
f 1 30 28
f 1 28 21
f 1 21 20
f 1 20 12
f 1 12 9
f 1 9 6
f 1 6 2
f 2 6 3
f 3 7 8
f 3 8 4
f 3 6 9
f 3 9 7
f 4 8 10
f 4 10 5
f 5 10 11
f 7 9 12
f 7 12 13
f 7 13 8
f 8 13 14
f 8 14 15
f 8 15 16
f 8 16 17
f 8 17 10
f 10 17 16
f 10 16 18
f 10 18 11
f 11 18 19
f 12 20 13
f 13 20 21
f 13 21 22
f 13 22 14
f 14 22 23
f 14 23 15
f 15 24 25
f 15 25 26
f 15 26 16
f 15 23 24
f 16 26 18
f 18 26 19
f 19 26 25
f 19 25 27
f 21 28 29
f 21 29 22
f 22 29 23
f 23 29 24
f 24 30 31
f 24 31 25
f 24 29 30
f 25 31 32
f 25 32 27
f 28 30 29

