# https://github.com/mikedh/trimesh
v -46.35762777 -18.19707470 30.48665139
v -46.35762777 -18.19073570 31.49074400
v -47.17979576 -17.86751251 32.48639905
v -47.21818438 -17.84849850 31.49074400
v -53.70913377 -15.16764887 31.49074400
v -53.70593298 -15.16131286 30.48665139
v -53.65794795 -15.10427382 29.49943408
v -46.63914830 -18.02595461 29.79475542
v -46.35762777 -18.12735767 29.61756269
v -34.91449252 -13.49449386 14.48866936
v -34.86010889 -13.49449386 15.49276235
v -34.86330670 -13.49449386 48.47594221
v -46.35762777 -18.12735767 33.48205401
v -47.13180774 -17.86751251 33.48205401
v -34.92089112 -13.49449386 49.47159810
v -53.70913377 -15.16764887 33.48205401
v -53.90747548 -14.48951347 31.49074400
v -53.90107986 -14.48951347 30.48665139
v -53.85309185 -14.48951347 29.49943408
v -53.70913377 -14.17896826 26.49559372
v -53.59076712 -15.02822078 28.82441378
v -46.35762777 -18.03229360 28.95941807
v -35.26319389 -13.49449386 13.74614711
v -36.45645239 -11.70726078 8.85225051
v -22.42845397 40.43939479 13.24831991
v -22.32288302 36.22481825 22.76610678
v -21.60308817 36.22481825 30.49508904
v -22.88592260 27.50413396 42.47669932
v -22.85393258 27.50413396 43.48079230
v -46.35762777 -18.08299364 34.21613870
v -46.97185466 -17.83582349 34.41864457
v -53.66754436 -15.10427382 34.47770906
v -22.42845397 38.44935558 75.46831702
v -22.42845397 38.62047567 75.94927004
v -22.42845397 38.72187575 76.22771495
v -36.45645239 -13.49449386 55.14176830
v -53.85949045 -14.48951347 34.47770906
v -53.90107986 -14.48951347 33.48205401
v -53.90747548 -14.48951347 32.48639905
v -53.94266629 -13.48815785 29.49099624
v -53.93626769 -13.48815785 27.49124886
v -53.90747548 -13.48815785 26.48715588
v -53.75072020 -13.48815785 25.40712385
v -53.69633657 -13.20295968 24.48740850
v -53.63555434 -14.07122621 25.81213558
v -46.35762777 -17.31613316 25.54212776
v -46.35762777 -17.56963933 26.48715588
v -35.82943128 -13.49449386 13.24831991
v -37.05788207 -11.70726078 8.57380411
v -37.05468277 35.90159803 -9.55049062
v -36.59401335 35.90159803 -9.28891990
v -36.47244889 35.90159803 -9.19610592
v -22.42845397 46.54260748 13.24831991
v -21.28637831 36.22481825 35.68430790
v -22.52762482 28.90476582 42.82264768
v -22.51482911 28.86674377 43.48079230
v -22.53722272 28.92377983 44.05455930
v -46.35762777 -17.61400336 37.31279416
v -53.60356134 -15.04089579 35.26242012
v -53.72832659 -14.34374638 36.47745644
v -21.26718400 36.22481825 36.30870155
v -22.42845397 39.49507821 76.50615987
v -38.04640026 38.61413370 76.22771495
v -41.05354274 -13.49449386 55.62271983
v -38.05599667 -13.49449386 55.61428273
v -37.05788207 -13.49449386 55.45396456
v -53.85629264 -13.48815785 37.46467374
v -53.92347347 -13.48815785 36.47745644
v -53.93306988 -13.48815785 35.47336383
v -53.94906489 -9.49540144 29.49099624
v -53.94266629 -12.49313824 26.48715588
v -53.94266629 -9.49540144 41.46416925
v -53.93626769 -12.49313824 25.49150074
v -53.92986909 -11.48544065 23.48331552
v -53.88828266 -12.49313824 24.48740850
v -53.74112379 -12.50581325 23.50862903
v -53.61316073 -13.05719259 23.86301448
v -45.68902023 -13.49449386 13.83052549
v -45.02361050 -13.49449386 13.24831991
v -38.05599667 -11.70726078 8.43880020
v -38.05279886 35.90159803 -9.67705595
v -28.05884675 46.54260748 13.24831991
v -22.42845397 46.54894648 50.71194755
v -46.35762777 -17.39218621 38.34219991
v -43.95831358 -13.49449386 55.28520930
v -53.58436852 -14.03320117 38.08062992
v -53.66434655 -14.14094025 37.47311158
v -22.42845397 46.54894648 74.46422553
v -22.42845397 46.53627147 75.46831702
v -22.42845397 46.26374831 76.22771495
v -22.42845397 45.49054884 76.50615987
v -35.05205349 39.49507821 76.50615987
v -42.04845804 38.61413370 76.22771495
v -43.05617053 -13.49449386 55.60584415
v -43.04657412 38.62047567 76.22771495
v -53.70913377 -13.48815785 38.46876672
v -53.84669325 -12.49313824 39.46442112
v -53.91067627 -11.48544065 40.46851410
v -53.93626769 -10.49042104 41.46416925
v -53.94906489 6.50097200 24.48740850
v -53.94586708 -2.49223470 20.31072064
v -53.94586708 -8.48770533 23.48331552
v -53.94906489 -3.48725430 44.07987281
v -53.94266629 -9.49540144 22.49609821
v -53.93626769 -9.49540144 42.46826149
v -53.94266629 -4.49495041 45.47210185
v -53.92986909 -10.49042104 22.49609821
v -53.77311382 -11.51712966 22.46234761
v -53.67394296 -12.18259006 22.77454462
v -43.90392994 -11.70726078 8.72568369
v -43.71838246 -11.70726078 8.65818248
v -43.05297272 -11.70726078 8.44723878
v -42.62109551 35.90159803 -9.67705595
v -43.05297272 35.90159803 -9.66861886
v -43.83354832 35.90159803 -9.32267125
v -29.05696284 46.29543733 13.24831991
v -43.04657412 43.51952066 65.46957863
v -43.04657412 43.53219567 66.47367012
v -43.04657412 43.53853466 72.46447666
v -28.05564894 46.54894648 50.71194755
v -43.79515970 38.74722577 76.13490097
v -53.60036353 -6.12374139 46.02899465
v -53.56837351 -8.03772905 45.00802600
v -53.63235653 -9.17217824 44.09674848
v -53.66754436 -10.26226340 43.18547097
v -53.67394296 -11.20658148 42.24887994
v -53.64195294 -12.12555102 41.16884792
v -53.57796992 -13.03817859 40.02131319
v -53.65154935 -13.16493465 39.46442112
v -28.05564894 46.54894648 74.46422553
v -28.05564894 46.53627147 75.46831702
v -28.05564894 46.26374831 76.22771495
v -28.05564894 45.49054884 76.50615987
v -42.04845804 42.49281203 76.49772277
v -42.04845804 39.49507821 76.49772277
v -43.04657412 39.49507821 76.48928568
v -53.70273517 -12.46778524 40.40101215
v -53.75711881 -11.52346866 41.48104492
v -53.77631461 -10.55379907 42.53576419
v -53.94586708 10.50006517 41.47260709
v -53.94586708 10.50006517 28.48690363
v -53.94586708 8.50368771 23.48331552
v -53.94586708 3.50323668 20.42884888
v -53.94586708 0.50550062 20.31072064
v -53.94266629 -0.48951899 18.49660271
v -53.94266629 -2.48589719 45.47210185
v -53.93626769 4.50459454 45.46366475
v -53.94586708 2.50821633 43.46391663
v -53.93946550 -8.48770533 21.49200598
v -53.92347347 -8.48770533 20.49635009
v -53.90747548 -8.48770533 43.46391663
v -53.84669325 -2.48589719 46.47619483
v -53.90107986 -1.49087759 46.47619483
v -53.90427767 -0.48951899 46.47619483
v -53.88188406 -5.48997001 45.47210185
v -53.76351741 -9.52075295 20.46260023
v -53.66434655 -10.20522437 20.77479649
v -53.66754436 -11.20658148 21.77888947
v -53.66434655 -9.20386726 19.82133054
v -53.59716572 -8.07575557 18.94380437
v -53.63235653 -6.14909141 17.90596004
v -53.70273517 -5.48997001 17.79626890
v -53.57157132 -3.09431706 16.96936976
v -53.61316073 -2.47955969 16.91874273
v -53.66434655 -1.49721509 16.85967862
v -53.70913377 -0.48951899 16.81749017
v -44.18224969 35.90159803 -8.53795906
v -36.71877861 43.15827243 13.24831991
v -43.85594193 43.24700048 65.46957863
v -43.93272216 43.25333650 66.47367012
v -43.92632355 43.25967549 72.46447666
v -43.04657412 43.53853466 74.46422553
v -43.91672416 39.49507821 76.22771495
v -53.68674016 -5.48997001 46.13868431
v -53.73152738 -6.47231461 45.49741610
v -53.65475014 -7.49268572 45.15146849
v -53.68993797 -8.41799128 44.45113394
v -53.75072020 -9.49540144 43.49766798
v -43.04657412 43.53219567 75.46831702
v -29.05696284 46.14967024 76.12646090
v -43.04657412 43.25967549 76.22771495
v -43.04657412 42.49281203 76.48928568
v -43.92312276 40.49643383 76.22771495
v -53.91067627 11.48874801 40.46851410
v -53.93626769 12.49644337 38.46876672
v -53.94266629 13.49780049 36.47745644
v -53.92986909 9.49237055 42.46826149
v -44.31341354 42.49281203 75.46831702
v -53.94266629 12.49010587 28.48690363
v -53.93626769 12.49010587 25.49150074
v -53.94266629 8.50368771 22.49609821
v -53.94266629 2.51455384 18.49660271
v -53.93946550 -1.49721509 18.49660271
v -53.92347347 0.51817563 17.49250973
v -53.88188406 0.51183812 46.47619483
v -53.85309185 1.50685922 46.47619483
v -53.81790104 2.50821633 46.45931915
v -53.89148047 5.49961414 45.46366475
v -53.92986909 -4.49495041 18.49660271
v -53.89787907 -5.48997001 18.49660271
v -53.86908686 -7.49268572 19.49225860
v -53.88508187 -8.48136782 20.29384497
v -53.84029465 -7.49268572 44.47644745
v -53.74112379 -4.49495041 46.29056389
v -53.70913377 -1.49087759 47.14277729
v -53.70913377 -0.48951899 47.14277729
v -53.72193097 -8.44334130 19.48382001
v -53.74112379 -9.43202489 20.29384497
v -53.67394296 -7.49268572 18.80036188
v -53.75072020 -6.47865211 18.47128994
v -53.73792300 -4.49495041 17.67814066
v -53.80510384 -2.47955969 17.49250973
v -53.85949045 -1.49721509 17.49250973
v -53.90427767 -0.48951899 17.49250973
v -53.72193097 0.51817563 16.79217741
v -44.41898300 35.90159803 -7.50855331
v -53.69633657 1.50685922 16.83436585
v -53.89467828 1.50685922 17.49250973
v -53.80510384 2.31174771 17.35750582
v -53.74112379 4.50459454 17.66126499
v -53.89787907 5.51228990 18.49660271
v -44.37419578 42.49281203 66.47367012
v -44.37419578 42.49281203 67.46932750
v -43.92632355 43.25967549 74.46422553
v -44.36459639 39.49507821 75.46831702
v -53.58436852 -3.15135610 47.00777338
v -53.64834856 -2.48589719 47.06683750
v -43.90712775 43.25333650 75.46831702
v -43.77916469 43.17094744 76.13490097
v -43.90712775 42.49281203 76.22771495
v -43.92312276 41.49145641 76.22771495
v -44.36779718 40.49643383 75.46831702
v -53.85309185 12.49644337 39.46442112
v -53.88828266 13.49780049 37.47311158
v -53.89787907 14.48648408 33.48205401
v -53.90747548 14.48648408 32.48639905
v -53.93626769 13.46611296 29.46568310
v -53.90107986 8.50368771 43.46391663
v -53.85629264 7.50232985 44.45957177
v -53.73792300 4.50459454 46.32431524
v -44.36779718 41.49145641 75.46831702
v -44.36779718 42.49281203 74.46422553
v -53.84349544 14.48648408 34.47770906
v -53.89787907 13.49780049 26.48715588
v -53.92986909 11.48874801 23.48331552
v -53.92986909 13.49780049 27.49968633
v -53.92986909 10.50006517 22.49609821
v -53.92986909 9.49870806 21.50044381
v -53.93626769 4.50459454 18.49660271
v -53.85309185 7.50232985 19.49225860
v -53.76671820 9.53039633 20.42884888
v -53.77631461 10.54442920 21.44981679
v -53.77311382 11.54578705 22.44547193
v -53.87548546 12.49010587 24.48740850
v -53.70273517 14.17593589 26.48715588
v -53.85629264 14.48648408 29.49099624
v -53.66754436 15.10757895 29.49099624
v -53.91707189 8.50368771 20.49635009
v -53.91387408 8.43397292 20.42884888
v -53.68993797 15.12659147 30.48665139
v -53.70273517 15.15194298 31.49074400
v -53.71233158 15.17095550 32.48639905
v -53.70593298 15.16461799 33.48205401
v -53.90107986 14.48648408 31.49074400
v -53.88188406 14.48648408 30.48665139
f 1 2 3
f 1 3 4
f 1 4 5
f 1 5 6
f 1 6 7
f 1 7 8
f 1 8 9
f 1 9 10
f 1 10 11
f 1 11 12
f 1 12 2
f 2 13 14
f 2 14 3
f 2 12 15
f 2 15 13
f 3 14 16
f 3 16 5
f 3 5 4
f 5 16 39
f 5 39 17
f 5 17 6
f 6 17 18
f 6 18 19
f 6 19 7
f 7 19 20
f 7 20 21
f 7 21 22
f 7 22 9
f 7 9 8
f 9 22 23
f 9 23 10
f 10 23 24
f 10 24 25
f 10 25 26
f 10 26 27
f 10 27 28
f 10 28 11
f 11 28 29
f 11 29 12
f 12 29 15
f 13 30 14
f 13 15 30
f 14 30 31
f 14 31 32
f 14 32 16
f 15 29 33
f 15 33 34
f 15 34 35
f 15 35 36
f 15 36 30
f 16 32 37
f 16 37 38
f 16 38 39
f 17 39 40
f 17 40 41
f 17 41 18
f 18 41 42
f 18 42 19
f 19 42 20
f 20 42 43
f 20 43 44
f 20 44 45
f 20 45 21
f 21 45 46
f 21 46 47
f 21 47 22
f 22 47 48
f 22 48 23
f 23 48 24
f 24 48 49
f 24 49 50
f 24 50 51
f 24 51 52
f 24 52 25
f 25 52 53
f 25 53 54
f 25 54 27
f 25 27 26
f 27 54 55
f 27 55 28
f 28 55 56
f 28 56 29
f 29 56 57
f 29 57 33
f 30 36 58
f 30 58 31
f 31 58 59
f 31 59 32
f 32 59 60
f 32 60 37
f 33 57 56
f 33 56 61
f 33 61 34
f 34 61 35
f 35 61 62
f 35 62 63
f 35 63 64
f 35 64 65
f 35 65 66
f 35 66 36
f 36 66 58
f 37 60 67
f 37 67 68
f 37 68 38
f 38 68 69
f 38 69 39
f 39 69 40
f 40 70 71
f 40 71 41
f 40 69 72
f 40 72 70
f 41 71 73
f 41 73 42
f 42 73 74
f 42 74 75
f 42 75 44
f 42 44 43
f 44 75 76
f 44 76 77
f 44 77 45
f 45 77 78
f 45 78 46
f 46 78 79
f 46 79 48
f 46 48 47
f 48 79 80
f 48 80 49
f 49 80 50
f 50 80 81
f 50 81 53
f 50 53 51
f 51 53 52
f 53 81 113
f 53 113 82
f 53 82 120
f 53 120 83
f 53 83 61
f 53 61 54
f 54 61 56
f 54 56 55
f 58 66 65
f 58 65 84
f 58 84 59
f 59 84 85
f 59 85 86
f 59 86 87
f 59 87 60
f 60 87 67
f 61 83 88
f 61 88 89
f 61 89 90
f 61 90 91
f 61 91 62
f 62 91 133
f 62 133 92
f 62 92 93
f 62 93 63
f 63 93 64
f 64 94 84
f 64 84 65
f 64 93 95
f 64 95 94
f 67 87 96
f 67 96 97
f 67 97 98
f 67 98 68
f 68 98 99
f 68 99 69
f 69 99 72
f 70 100 101
f 70 101 102
f 70 102 71
f 70 72 103
f 70 103 100
f 71 102 104
f 71 104 73
f 72 99 105
f 72 105 106
f 72 106 103
f 73 104 74
f 74 104 107
f 74 107 108
f 74 108 75
f 75 108 76
f 76 109 77
f 76 108 109
f 77 109 110
f 77 110 78
f 78 110 79
f 79 110 111
f 79 111 112
f 79 112 80
f 80 112 113
f 80 113 81
f 82 113 114
f 82 114 115
f 82 115 116
f 82 116 117
f 82 117 118
f 82 118 119
f 82 119 120
f 83 120 130
f 83 130 88
f 84 94 85
f 85 94 121
f 85 121 122
f 85 122 123
f 85 123 124
f 85 124 125
f 85 125 126
f 85 126 127
f 85 127 128
f 85 128 86
f 86 128 129
f 86 129 87
f 87 129 96
f 88 130 131
f 88 131 89
f 89 131 132
f 89 132 90
f 90 132 133
f 90 133 91
f 92 133 134
f 92 134 135
f 92 135 93
f 93 135 95
f 94 95 121
f 95 135 136
f 95 136 121
f 96 129 97
f 97 129 137
f 97 137 138
f 97 138 98
f 98 138 139
f 98 139 99
f 99 139 105
f 100 103 140
f 100 140 141
f 100 141 142
f 100 142 143
f 100 143 144
f 100 144 101
f 101 144 192
f 101 192 145
f 101 145 104
f 101 104 102
f 103 106 146
f 103 146 147
f 103 147 148
f 103 148 140
f 104 149 150
f 104 150 107
f 104 145 149
f 105 139 151
f 105 151 106
f 106 152 153
f 106 153 154
f 106 154 146
f 106 151 155
f 106 155 152
f 107 150 108
f 108 150 156
f 108 156 157
f 108 157 158
f 108 158 109
f 109 158 110
f 110 115 114
f 110 114 111
f 110 158 157
f 110 157 159
f 110 159 160
f 110 160 161
f 110 161 115
f 111 114 112
f 112 114 113
f 115 161 162
f 115 162 163
f 115 163 164
f 115 164 165
f 115 165 166
f 115 166 167
f 115 167 168
f 115 168 116
f 116 168 169
f 116 169 117
f 117 169 170
f 117 170 118
f 118 170 119
f 119 170 171
f 119 171 224
f 119 224 172
f 119 172 130
f 119 130 120
f 121 136 173
f 121 173 174
f 121 174 122
f 122 174 175
f 122 175 176
f 122 176 123
f 123 176 177
f 123 177 124
f 124 177 178
f 124 178 125
f 125 178 139
f 125 139 126
f 126 139 138
f 126 138 127
f 127 138 137
f 127 137 128
f 128 137 129
f 130 172 179
f 130 179 131
f 131 179 180
f 131 180 132
f 132 180 181
f 132 181 133
f 133 181 182
f 133 182 134
f 134 182 136
f 134 136 135
f 136 182 231
f 136 231 183
f 136 183 173
f 139 178 151
f 140 184 185
f 140 185 186
f 140 186 141
f 140 148 147
f 140 147 187
f 140 187 188
f 140 188 184
f 141 189 142
f 141 186 189
f 142 189 190
f 142 190 191
f 142 191 192
f 142 192 143
f 143 192 144
f 145 193 149
f 145 192 194
f 145 194 193
f 146 154 147
f 147 154 195
f 147 195 196
f 147 196 197
f 147 197 198
f 147 198 187
f 149 193 199
f 149 199 150
f 150 199 200
f 150 200 201
f 150 201 202
f 150 202 156
f 151 178 203
f 151 203 155
f 152 155 204
f 152 204 205
f 152 205 153
f 153 205 154
f 154 205 206
f 154 206 195
f 155 203 175
f 155 175 174
f 155 174 204
f 156 202 201
f 156 201 207
f 156 207 208
f 156 208 157
f 157 208 159
f 159 208 207
f 159 207 160
f 160 207 209
f 160 209 161
f 161 209 207
f 161 207 210
f 161 210 162
f 162 210 200
f 162 200 211
f 162 211 164
f 162 164 163
f 164 211 165
f 165 211 212
f 165 212 166
f 166 212 213
f 166 213 214
f 166 214 215
f 166 215 167
f 167 216 168
f 167 215 217
f 167 217 218
f 167 218 219
f 167 219 220
f 167 220 221
f 167 221 216
f 168 216 169
f 169 216 170
f 170 216 222
f 170 222 223
f 170 223 224
f 170 224 171
f 172 224 179
f 173 183 225
f 173 225 174
f 174 225 226
f 174 226 227
f 174 227 204
f 175 203 176
f 176 203 177
f 177 203 178
f 179 228 229
f 179 229 180
f 179 224 228
f 180 229 181
f 181 229 182
f 182 229 230
f 182 230 231
f 183 231 241
f 183 241 232
f 183 232 225
f 184 233 234
f 184 234 185
f 184 188 233
f 185 234 186
f 186 234 243
f 186 243 235
f 186 235 236
f 186 236 237
f 186 237 189
f 187 198 238
f 187 238 188
f 188 234 233
f 188 238 239
f 188 239 198
f 188 198 240
f 188 240 197
f 188 197 241
f 188 241 230
f 188 230 229
f 188 229 228
f 188 228 242
f 188 242 235
f 188 235 243
f 188 243 234
f 189 237 190
f 190 244 245
f 190 245 191
f 190 237 246
f 190 246 244
f 191 245 247
f 191 247 248
f 191 248 249
f 191 249 192
f 192 249 194
f 193 194 199
f 194 218 215
f 194 215 214
f 194 214 199
f 194 249 218
f 195 206 241
f 195 241 196
f 196 241 197
f 197 240 198
f 198 239 238
f 199 214 200
f 200 214 213
f 200 213 212
f 200 212 211
f 200 210 201
f 201 210 207
f 204 227 205
f 205 227 225
f 205 225 232
f 205 232 241
f 205 241 206
f 215 218 217
f 216 221 250
f 216 250 251
f 216 251 252
f 216 252 253
f 216 253 254
f 216 254 244
f 216 244 255
f 216 255 256
f 216 256 257
f 216 257 222
f 218 249 221
f 218 221 220
f 218 220 219
f 221 249 258
f 221 258 259
f 221 259 250
f 222 257 260
f 222 260 261
f 222 261 262
f 222 262 223
f 223 242 224
f 223 262 242
f 224 242 228
f 225 227 226
f 230 241 231
f 235 242 263
f 235 263 236
f 236 263 262
f 236 262 264
f 236 264 246
f 236 246 237
f 242 262 263
f 244 254 245
f 244 246 256
f 244 256 255
f 245 254 253
f 245 253 252
f 245 252 247
f 246 264 265
f 246 265 256
f 247 252 248
f 248 252 251
f 248 251 258
f 248 258 249
f 250 259 251
f 251 259 258
f 256 265 260
f 256 260 257
f 260 265 261
f 261 265 264
f 261 264 262

