# https://github.com/mikedh/trimesh
v 7.93258127 49.49833168 4.56371604
v 7.93258127 26.56808758 4.56371604
v 7.93258127 50.27535184 4.27601745
v -1.68637174 41.49809939 75.47713559
v -1.68637174 40.49572155 75.47713559
v -1.73764548 39.76800072 75.47713559
v -1.75815557 39.50038902 75.47713559
v -2.19398161 38.73041418 75.47713559
v -2.31703918 38.81961907 76.14843430
v -3.53222637 30.98840281 46.02723035
v 6.55331632 26.56808758 6.15913715
v 7.93258127 26.56808758 -4.56418387
v 7.93258127 50.55000587 3.48266551
v -2.19910913 43.27045208 75.47713559
v -1.75815557 42.49812880 75.47713559
v -2.16834549 42.49812880 76.23561560
v -2.13758035 41.49809939 76.23561560
v -2.13758035 40.49572155 76.23561560
v -2.03503287 39.76800072 76.03509831
v -2.16321796 39.50038902 76.23561560
v -3.06050767 38.46045106 75.47713559
v -4.49104486 30.98840281 47.02981830
v -3.06050767 39.50038902 76.48844227
v -3.06050767 38.73041418 76.23561560
v 1.41056126 26.56808758 11.96542439
v 6.54819029 26.56808758 -6.17704243
v 6.55331632 33.50256100 -6.17704243
v 7.93258127 49.49833168 -4.56418387
v 4.94332178 50.55000587 5.48784142
v 0.94397008 50.54296056 10.48333927
v -8.05456978 46.54050044 75.47713559
v -7.05985937 46.30575198 75.47713559
v -6.53686767 46.01935576 76.00022638
v 7.93258127 50.55000587 -2.51541880
v -2.31703918 43.17655329 76.14843430
v -3.06050767 42.49812880 76.48844227
v -3.06050767 41.49809939 76.51459696
v -3.06050767 40.49572155 76.51459696
v -2.80413897 39.76800072 76.43613289
v -4.06034634 38.45575716 75.47713559
v -8.57756222 30.98840281 47.03853554
v -1.05570578 26.56808758 12.54954030
v -0.05586711 26.56808758 12.50594965
v 0.01078771 26.56808758 12.48851369
v 0.91320643 26.56808758 12.21825106
v -3.78346755 39.76800072 76.51459696
v -4.06034634 39.50038902 76.51459696
v -4.06034634 38.72806574 76.23561560
v 1.38492513 26.56808758 -11.96589221
v 6.55331632 39.49334668 -6.17704243
v 7.93258127 50.27065496 -4.28520549
v 6.54819029 44.49818762 -6.17704243
v 6.54306277 49.49833168 -6.16832519
v 6.50717011 50.08520582 -6.11601582
v 2.94364593 50.55000587 5.48784142
v -1.05570578 50.54296056 11.48592573
v -0.05586711 50.53357276 11.48592573
v -22.42147049 46.54050044 75.47713559
v -8.05456978 46.26819187 76.23561560
v -7.05985937 46.15081764 76.11356237
v 7.93258127 50.54061808 -3.50928803
v 0.94397008 50.54296056 -10.50996179
v 4.94332178 50.55000587 -5.51446394
v -8.05456978 45.49821703 76.51459696
v -22.42147049 38.45575716 75.47713559
v -20.71918278 27.95310590 19.07943414
v -1.98888665 26.56808758 12.42748708
v -22.42147049 39.50038902 76.51459696
v -22.42147049 38.72806574 76.23561560
v 0.88244129 26.56808758 -12.23615634
v 1.38492513 47.49592741 -11.96589221
v 1.66180243 50.18145007 -11.31203096
v 1.37979761 49.49833168 -11.96589221
v 2.94364593 50.55000587 -5.51446394
v -28.04107253 46.54754278 13.23827497
v -1.05570578 50.54296056 -10.50996179
v -22.42147049 46.26819187 76.23561560
v -43.04376673 43.52397911 -1.51283234
v -43.85902053 43.24697664 -1.51283234
v 1.02088143 50.31760585 -11.59101232
v -0.05586711 50.52652745 -11.51254825
v -1.05570578 50.54061808 -11.51254825
v -22.42147049 45.49821703 76.51459696
v -37.58824319 33.95093093 24.20570543
v -20.75507395 27.93197591 18.48659949
v -2.65544527 26.56808758 12.13106975
v -2.05554296 26.56808758 12.41004962
v -36.91142804 38.50035961 27.50988363
v -37.59336922 35.50261982 25.12111059
v -37.58311418 34.79602599 25.09495665
v 0.82091399 26.56808758 -12.25359081
v 0.88244129 49.49833168 -12.23615634
v 0.73887512 50.16032604 -12.15769227
v -28.04107253 46.54754278 -10.50996179
v -43.04376673 43.54041222 -10.50996179
v -43.04376673 43.53571832 -2.50670156
v -43.69494576 43.15777175 -0.69332571
v -44.19742811 42.49812880 -1.51283234
v -43.93080287 43.26340975 -2.50670156
v -44.37688098 42.49812880 -2.50670156
v -0.05586711 50.25657029 -12.25359081
v -1.05570578 50.27065496 -12.27974550
v -28.04107253 46.54284590 -11.51254825
v -44.25895242 35.90873574 0.50977804
v -44.42302720 35.90873574 -0.51024587
v -37.60875030 33.92276159 23.48209883
v -37.04473916 33.72792168 23.48209883
v -44.44866928 35.90873574 -1.51283234
v -44.44866928 35.90873574 -6.50833317
v -44.41790117 35.90873574 -7.51091963
v -20.71405525 27.95310590 15.83628254
v -2.75286523 26.56808758 -11.51254825
v -2.76824780 26.56808758 -8.51350609
v -2.76824780 26.56808758 8.55662892
v -2.75286523 26.56808758 11.48592573
v -0.05586711 26.56808758 -12.49770024
v -0.05586711 49.49833168 -12.49770024
v -43.92054485 43.26340975 -10.50996179
v -43.04376673 43.53571832 -11.51254825
v -44.40764910 36.50264923 -0.51024587
v -44.37688098 42.49812880 -4.51187747
v -44.43841126 41.49809939 -2.50670156
v -1.05570578 49.49833168 -12.54129238
v -28.04107253 45.49586859 -12.54129238
v -28.04107253 46.26819187 -12.27102826
v -29.04603724 46.14377530 -12.15769227
v -44.44866928 36.50264923 -1.51283234
v -44.44866928 36.50264923 -7.51091963
v -44.39739107 37.50033020 -9.50737532
v -44.39739107 36.50264923 -8.50478886
v -44.17691802 35.90873574 -8.53966078
v -2.65544527 26.56808758 -12.14897503
v -1.05570578 26.56808758 -12.54129238
v -44.36662892 42.49812880 -10.50996179
v -43.90516675 43.26340975 -11.51254825
v -43.77185413 43.17420486 -12.18384696
v -44.43841126 41.49809939 -10.50996179
v -44.44353729 40.50041842 -3.50928803
v -44.44866928 38.50270805 -3.50928803
v -4.05521881 40.49337609 -12.55000962
v -42.04392805 42.49812880 -12.54129238
v -43.04376673 42.49812880 -12.53257217
v -43.04376673 43.26340975 -12.27102826
v -44.44866928 38.50270805 -9.50737532
v -44.44353729 39.50038902 -10.50996179
v -44.39226504 38.50270805 -10.50996179
v -44.01283728 36.45335289 -9.55968470
v -43.83338441 35.90873574 -9.32429548
v -43.04376673 35.90873574 -9.67302069
v -2.09656165 26.56808758 -12.39308149
v -43.04376673 39.50038902 -12.53257217
v -42.04392805 39.50038902 -12.54129238
v -4.05521881 39.49334668 -12.55000962
v -2.05554296 26.56808758 -12.41051894
v -43.04376673 38.62242774 -12.27102826
v -44.31023063 42.49812880 -11.51254825
v -43.90004072 42.49812880 -12.27102826
v -44.44353729 40.50041842 -10.50996179
v -44.35124486 41.49809939 -11.51254825
v -44.44866928 39.50038902 -7.51091963
v -43.91029278 41.49809939 -12.27102826
v -44.44866928 39.50038902 -9.50737532
v -44.34099279 39.50038902 -11.51254825
v -44.00258521 38.45340872 -11.55614039
v -43.78210620 37.75151177 -11.25972456
v -43.78210620 36.75383080 -10.25713512
v -43.04376673 37.62474677 -11.38177779
v -43.77185413 38.75154118 -12.18384696
v -43.89490872 39.50038902 -12.27102826
v -43.04376673 38.12476147 -11.87871091
f 1 2 12
f 1 12 28
f 1 28 51
f 1 51 61
f 1 61 34
f 1 34 13
f 1 13 3
f 1 3 4
f 1 4 5
f 1 5 2
f 2 5 6
f 2 6 7
f 2 7 8
f 2 8 9
f 2 9 10
f 2 10 11
f 2 11 25
f 2 25 45
f 2 45 44
f 2 44 43
f 2 43 42
f 2 42 67
f 2 67 87
f 2 87 86
f 2 86 115
f 2 115 114
f 2 114 113
f 2 113 112
f 2 112 132
f 2 132 150
f 2 150 154
f 2 154 133
f 2 133 116
f 2 116 91
f 2 91 70
f 2 70 49
f 2 49 26
f 2 26 12
f 3 13 14
f 3 14 15
f 3 15 4
f 4 15 16
f 4 16 17
f 4 17 18
f 4 18 5
f 5 18 19
f 5 19 6
f 6 19 7
f 7 19 20
f 7 20 9
f 7 9 8
f 9 21 22
f 9 22 10
f 9 20 23
f 9 23 24
f 9 24 21
f 10 22 25
f 10 25 11
f 12 26 27
f 12 27 50
f 12 50 28
f 13 29 30
f 13 30 31
f 13 31 32
f 13 32 33
f 13 33 14
f 13 34 63
f 13 63 74
f 13 74 55
f 13 55 29
f 14 33 35
f 14 35 15
f 15 35 16
f 16 36 37
f 16 37 17
f 16 35 36
f 17 37 38
f 17 38 18
f 18 38 39
f 18 39 20
f 18 20 19
f 20 39 23
f 21 24 40
f 21 40 22
f 22 40 41
f 22 41 42
f 22 42 43
f 22 43 44
f 22 44 45
f 22 45 25
f 23 39 38
f 23 38 46
f 23 46 47
f 23 47 24
f 24 47 48
f 24 48 40
f 26 49 27
f 27 49 71
f 27 71 50
f 28 50 52
f 28 52 53
f 28 53 54
f 28 54 51
f 29 55 56
f 29 56 30
f 30 56 57
f 30 57 31
f 31 58 77
f 31 77 59
f 31 59 60
f 31 60 32
f 31 57 56
f 31 56 58
f 32 60 33
f 33 60 35
f 34 61 62
f 34 62 63
f 35 60 64
f 35 64 36
f 36 64 37
f 37 64 83
f 37 83 68
f 37 68 47
f 37 47 46
f 37 46 38
f 40 48 69
f 40 69 65
f 40 65 41
f 41 65 66
f 41 66 67
f 41 67 42
f 47 68 69
f 47 69 48
f 49 70 92
f 49 92 71
f 50 71 52
f 51 54 72
f 51 72 61
f 52 71 73
f 52 73 53
f 53 73 54
f 54 73 72
f 55 74 76
f 55 76 56
f 56 75 58
f 56 76 94
f 56 94 75
f 58 75 78
f 58 78 79
f 58 79 77
f 59 64 60
f 59 77 83
f 59 83 64
f 61 72 80
f 61 80 62
f 62 81 82
f 62 82 76
f 62 76 74
f 62 74 63
f 62 80 81
f 65 69 84
f 65 84 66
f 66 85 86
f 66 86 87
f 66 87 67
f 66 84 85
f 68 83 88
f 68 88 89
f 68 89 90
f 68 90 69
f 69 90 84
f 70 91 92
f 71 92 73
f 72 73 93
f 72 93 80
f 73 92 93
f 75 94 95
f 75 95 96
f 75 96 78
f 76 82 94
f 77 88 83
f 77 79 97
f 77 97 98
f 77 98 88
f 78 96 99
f 78 99 79
f 79 99 100
f 79 100 98
f 79 98 97
f 80 93 81
f 81 93 101
f 81 101 102
f 81 102 82
f 82 102 103
f 82 103 94
f 84 90 104
f 84 104 105
f 84 105 106
f 84 106 107
f 84 107 85
f 85 107 106
f 85 106 105
f 85 105 108
f 85 108 109
f 85 109 110
f 85 110 111
f 85 111 112
f 85 112 113
f 85 113 114
f 85 114 115
f 85 115 86
f 88 104 89
f 88 98 104
f 89 104 90
f 91 116 117
f 91 117 92
f 92 117 93
f 93 117 101
f 94 103 119
f 94 119 95
f 95 118 99
f 95 99 96
f 95 119 118
f 98 100 120
f 98 120 104
f 99 118 121
f 99 121 100
f 100 122 120
f 100 121 137
f 100 137 122
f 101 117 123
f 101 123 102
f 102 123 124
f 102 124 125
f 102 125 103
f 103 125 126
f 103 126 119
f 104 120 105
f 105 120 122
f 105 122 127
f 105 127 108
f 108 127 139
f 108 139 160
f 108 160 162
f 108 162 144
f 108 144 128
f 108 128 109
f 109 128 110
f 110 128 129
f 110 129 130
f 110 130 131
f 110 131 111
f 111 131 132
f 111 132 112
f 116 133 123
f 116 123 117
f 118 134 121
f 118 119 135
f 118 135 134
f 119 126 136
f 119 136 135
f 121 134 137
f 122 137 158
f 122 158 138
f 122 138 139
f 122 139 127
f 123 133 153
f 123 153 140
f 123 140 124
f 124 140 141
f 124 141 142
f 124 142 143
f 124 143 125
f 125 143 126
f 126 143 136
f 128 144 129
f 129 144 145
f 129 145 146
f 129 146 147
f 129 147 130
f 130 147 131
f 131 147 148
f 131 148 132
f 132 148 149
f 132 149 150
f 133 151 152
f 133 152 153
f 133 154 155
f 133 155 151
f 134 135 156
f 134 156 137
f 135 136 156
f 136 143 142
f 136 142 157
f 136 157 156
f 137 156 159
f 137 159 158
f 138 158 162
f 138 162 160
f 138 160 139
f 140 153 152
f 140 152 141
f 141 152 151
f 141 151 142
f 142 161 157
f 142 151 161
f 144 162 158
f 144 158 145
f 145 158 159
f 145 159 163
f 145 163 146
f 146 163 164
f 146 164 147
f 147 164 165
f 147 165 148
f 148 165 166
f 148 166 149
f 149 166 165
f 149 165 167
f 149 167 154
f 149 154 150
f 151 155 168
f 151 168 169
f 151 169 161
f 154 167 170
f 154 170 155
f 155 170 168
f 156 157 159
f 157 161 159
f 159 161 163
f 161 169 163
f 163 169 168
f 163 168 164
f 164 168 165
f 165 168 170
f 165 170 167

