# https://github.com/mikedh/trimesh
v -28.21634709 -1.49440844 1.48117319
v -28.19493100 -2.49493257 1.48117319
v -28.20104946 -0.49388356 2.48110127
v -28.20716792 0.50664057 2.48110127
v -28.20411018 1.50716470 1.48117319
v -28.20104946 2.50394190 -0.51623022
v -28.19493100 2.50394190 -1.51124386
v -28.19493100 1.50716470 -1.51124386
v -28.20716792 -2.52865784 0.47878641
v -28.10315415 -2.49493257 2.48110127
v -28.16433872 -0.49388356 3.47857363
v -28.13986489 -3.49920437 0.47878641
v -28.20104946 1.50716470 2.48110127
v -28.18881255 2.50394190 1.48117319
v -28.14292561 3.50446641 0.47878641
v -28.16739944 1.50716470 -2.51363065
v -28.18269409 0.50664057 -2.51363065
v -28.12150952 3.50446641 -0.51623022
v -25.64351371 24.24567431 -8.51566082
v -25.60986071 24.15573925 -9.22814064
v -25.64045299 23.51120619 -9.54261382
v -28.17045718 -1.49440844 -2.51363065
v -28.19187327 -2.49493257 -0.51623022
v -28.02361422 -1.49440844 3.47857363
v -25.61292142 -9.16134801 9.21280881
v -25.60068451 -8.21703291 10.05058736
v -28.13068870 0.50664057 3.47857363
v -25.62821608 -7.49755397 10.08498244
v -25.62821608 22.49194521 10.08498244
v -28.12150952 -3.49920437 -0.51377151
v -25.64657145 -9.24753539 -8.51566082
v -27.82170217 -4.24491325 0.47878641
v -25.64657145 -9.24753539 8.48067422
v -28.12150952 2.50394190 2.48110127
v -25.65880836 23.52619536 9.52236904
v -25.73835128 23.49621701 8.47576128
v -25.74752747 23.49621701 6.48081657
v -25.74752747 23.49621701 -6.51334595
v -28.13374644 0.50664057 -3.51355873
v -28.13986489 -0.49388356 -3.51355873
v -25.64963216 24.24942049 -7.51573274
v -25.15097347 24.74031562 -8.51566082
v -25.43242546 23.85595574 -9.89394079
v -25.59762379 23.18893965 -10.07574508
v -24.61560330 25.01011929 -9.04387764
v -25.02554362 24.45177361 -9.46890921
v -28.06950413 -2.49493257 -2.51363065
v -28.16128098 -2.52865784 -1.51124386
v -28.16433872 -2.49493257 -1.51124386
v -25.15097347 -9.74592437 8.48067422
v -24.61866253 -10.01572805 9.01134827
v -25.03778054 -9.46113003 9.44375000
v -25.45689929 -8.88030133 9.87860895
v -25.09284665 -8.52805645 10.19062640
v -25.05001745 -7.49755397 10.36997497
v -25.60068451 23.21517183 10.05058736
v -25.05001745 22.49194521 10.36751775
v -25.05001745 -2.52865784 10.36997497
v -28.00525885 -3.49920437 -1.51615830
v -25.61292142 -9.16134801 -9.23305508
v -25.15097347 -9.74592437 -8.51566082
v -25.64657145 -9.25128306 -7.51573274
v -25.64657145 -9.25128306 7.47828893
v -25.61292142 24.16323310 9.21526603
v -25.64657145 24.24567431 8.47576128
v -25.64963216 24.24942049 7.47828893
v -25.62209762 22.49194521 -10.10768444
v -28.00525885 -1.49440844 -3.51355873
v -25.62209762 -2.52865784 -10.10768444
v -25.61903988 -7.49755397 -10.10768444
v -25.59762379 -8.19080223 -10.07820081
v -25.15097347 24.74780946 -7.51573274
v -24.65231404 25.02136080 -8.51566082
v -24.76550698 24.08454104 -10.09539984
v -25.08060973 23.51120619 -10.20841396
v -25.05001745 22.49194521 -10.37302220
v -2.65626633 26.56524144 -12.15176455
v -2.09642233 26.56524144 -12.40236199
v -2.05665236 26.56524144 -12.41710232
v -25.15097347 -9.74967055 7.47828893
v -24.65231404 -10.02322338 8.48067422
v -24.78998080 -9.09389746 10.07269933
v -2.65320710 -11.71699428 12.12169388
v -2.18514069 -11.71699428 12.34280770
v -2.05359313 -11.71699428 12.40422770
v -24.04964084 -8.49807959 10.40191283
v -24.04964084 -7.49755397 10.54932204
v -25.09284665 23.52619536 10.19062640
v -25.45383857 23.87844025 9.88106617
v -24.04964084 22.49194521 10.54686632
v -24.04964084 23.49621701 10.39945711
v -24.04964084 -2.52865784 10.54932204
v -25.43242546 -8.85781831 -9.90131095
v -25.02554362 -9.45738386 -9.47382365
v -24.61560330 -10.01198038 -9.04387764
v -24.65231404 -10.02322338 -8.51566082
v -25.15097347 -9.74967055 -7.51573274
v -25.03778054 24.46301661 9.44375000
v -24.61866253 25.01011929 9.00889254
v -25.15097347 24.74780946 8.47576128
v -25.05001745 -7.49755397 -10.37302220
v -25.07755050 -8.51306876 -10.20841396
v -24.65231404 25.02136080 8.47576128
v -2.76639929 26.56524144 -8.51566082
v -2.75416238 26.56524144 -11.51790376
v -24.04964084 23.49621701 -10.40004713
v -24.04964084 22.49194521 -10.54745633
v -25.01942517 -2.52865784 -10.38039237
v -1.05627575 26.56524144 -12.54977120
v -2.76334007 -11.71699428 8.48067422
v -2.75416238 -11.71699428 11.48045995
v -1.27042397 -11.71699428 12.50987166
v -1.05321652 -11.71699428 12.53689659
v -1.05627575 5.50551504 12.54918118
v -24.78998080 24.09578255 10.06778490
v -1.05627575 11.50116672 12.54918118
v -1.05627575 26.56524144 12.54672397
v -2.05665236 26.56524144 12.40914214
v -24.76550698 -9.08265446 -10.09539984
v -2.05359313 -11.71699428 -12.41710232
v -2.65320710 -11.71699428 -12.15176455
v -2.73274778 -11.71699428 -11.65302837
v -2.75416238 -11.71699428 -11.51544506
v -2.76028084 -11.71699428 -9.73424698
v -2.76334007 -11.71699428 -8.73186019
v -2.65626633 26.56524144 12.12660683
v -24.04964084 -7.49755397 -10.54745633
v -24.04964084 -8.49807959 -10.40250285
v -2.75722161 26.56524144 11.47800423
v -2.76639929 26.56524144 8.54946588
v -0.12320291 26.56524144 -12.50800595
v -1.05627575 25.49351909 -12.54977120
v -0.05589914 -11.71699428 12.51232888
v -0.98897198 26.56524144 12.54426675
v -0.05589914 -11.49590431 12.51232888
v -1.05321652 -11.71699428 -12.54485677
v -1.05627575 5.50551504 -12.54731547
v -0.05589914 26.56524144 -12.50309152
v -0.05589914 -11.71699428 -12.50309152
v 0.87411596 -11.71699428 12.23470652
v 0.87717370 -11.49590431 12.23470652
v 0.90164752 -9.49860372 12.23224930
v -0.05589914 26.56524144 12.50004428
v 0.88635287 26.56524144 -12.23775375
v 0.88635287 -9.49860372 -12.24020948
v 0.14907139 -11.71699428 -12.44658297
v 1.26570016 -11.71699428 11.98902500
v 1.39113002 -10.49912785 11.93251645
v 1.40336693 -9.49860372 11.93497367
v 1.41560384 10.50064259 11.95708564
v 0.90776598 -8.49807959 12.22979357
v 0.90776598 -7.49755397 12.22979357
v 0.91388444 21.49516875 12.21750897
v 0.91082670 26.56524144 12.21505325
v 1.38501156 26.56524144 -11.97487469
v 0.88635287 -11.71699428 -12.24020948
v 1.37277465 -11.71699428 11.91777612
v 1.80718805 -11.71699428 11.41903995
v 1.80718805 -11.49590431 11.42149716
v 1.80106959 -10.49912785 11.43378027
v 1.79189042 16.49629428 11.45834947
v 1.41560384 15.49577015 11.95708564
v 1.41254313 26.56524144 11.95708564
v 0.94447672 26.56524144 12.19785421
v 1.77965351 26.56524144 -11.47122408
v 1.78271422 -10.49912785 -11.47122408
v 1.47372769 -11.71699428 -11.86431630
v 1.38806930 -10.49912785 -11.97241599
v 1.38501156 10.50064259 -11.97487469
v 1.38806930 -11.71699428 -11.97241599
v 2.14370615 -11.71699428 10.68199093
v 2.23548300 -11.71699428 10.48053187
v 2.24160146 11.50116672 10.48053187
v 1.79189042 20.49464462 11.45834947
v 1.78883268 26.56524144 11.45834947
v 2.20183298 26.56524144 -10.58185142
v 1.88060953 -11.71699428 -11.26485059
v 1.78271422 -11.71699428 -11.47122408
v 3.03700976 -11.71699428 7.55690797
v 2.24160146 25.49351909 10.48053187
v 1.81942496 26.56524144 11.39201502
v 2.23242526 26.56524144 -10.51306125
v 2.23242526 -10.49912785 -10.51551698
v 2.23242526 -11.71699428 -10.51551698
v 3.03700976 -11.71699428 -7.54766911
v 3.03700976 -10.47664334 7.55690797
v 3.03088833 26.56524144 7.55199353
v 2.23854372 26.56524144 10.48053187
v 2.97276448 26.56524144 -7.58452291
v 3.03088833 26.55774610 -7.55749798
v 3.03088833 19.49412049 -7.57223831
v 3.03088833 19.45664681 -7.57223831
v 3.03700976 -11.49590431 -7.54766911
v 3.03700976 -9.55106509 7.32350807
v 3.03088833 26.56524144 -6.67303975
v 3.03700976 -9.46862536 7.25471641
v 3.03700976 -9.32248127 7.07045490
v 3.03700976 -9.03019309 6.56926150
v 3.03700976 -8.96274255 6.40711197
v 3.03700976 -8.95899488 6.32849293
v 3.03700976 -8.93276419 5.48088849
v 3.03700976 -8.93276419 -5.56992344
v 3.03700976 -8.96274255 -6.42735675
v 3.03700976 -9.13511732 -6.84992961
v 3.03700976 -9.61851563 -7.33883990
v 3.03700976 -10.49912785 -7.54521339
f 1 2 3
f 1 3 4
f 1 4 5
f 1 5 6
f 1 6 7
f 1 7 8
f 1 8 9
f 1 9 2
f 2 10 11
f 2 11 3
f 2 9 12
f 2 12 10
f 3 11 4
f 4 11 13
f 4 13 5
f 5 13 6
f 6 13 14
f 6 14 15
f 6 15 7
f 7 16 17
f 7 17 8
f 7 15 18
f 7 18 19
f 7 19 20
f 7 20 21
f 7 21 16
f 8 17 9
f 9 17 22
f 9 22 23
f 9 23 12
f 10 24 11
f 10 12 25
f 10 25 26
f 10 26 24
f 11 27 13
f 11 24 26
f 11 26 28
f 11 28 29
f 11 29 27
f 12 23 30
f 12 30 31
f 12 31 32
f 12 32 33
f 12 33 25
f 13 34 14
f 13 27 35
f 13 35 34
f 14 34 36
f 14 36 15
f 15 36 37
f 15 37 38
f 15 38 19
f 15 19 18
f 16 39 17
f 16 21 39
f 17 39 40
f 17 40 22
f 19 38 41
f 19 41 42
f 19 42 20
f 20 43 44
f 20 44 21
f 20 42 45
f 20 45 46
f 20 46 43
f 21 44 39
f 22 40 47
f 22 47 48
f 22 48 49
f 22 49 23
f 23 49 30
f 25 33 50
f 25 50 51
f 25 51 52
f 25 52 53
f 25 53 26
f 26 53 54
f 26 54 55
f 26 55 28
f 27 29 56
f 27 56 35
f 28 55 58
f 28 58 29
f 29 57 56
f 29 58 57
f 30 48 47
f 30 47 59
f 30 59 60
f 30 60 31
f 30 49 48
f 31 60 61
f 31 61 97
f 31 97 62
f 31 62 32
f 32 62 63
f 32 63 33
f 33 63 80
f 33 80 50
f 34 35 36
f 35 56 64
f 35 64 36
f 36 64 65
f 36 65 37
f 37 65 66
f 37 66 41
f 37 41 38
f 39 44 67
f 39 67 40
f 40 68 47
f 40 67 69
f 40 69 70
f 40 70 71
f 40 71 68
f 41 66 100
f 41 100 72
f 41 72 42
f 42 72 73
f 42 73 45
f 43 46 74
f 43 74 75
f 43 75 44
f 44 75 76
f 44 76 67
f 45 73 77
f 45 77 78
f 45 78 79
f 45 79 74
f 45 74 46
f 47 68 71
f 47 71 60
f 47 60 59
f 50 80 81
f 50 81 51
f 51 82 52
f 51 81 83
f 51 83 84
f 51 84 85
f 51 85 82
f 52 82 53
f 53 82 54
f 54 82 86
f 54 86 55
f 55 86 87
f 55 87 92
f 55 92 58
f 56 57 88
f 56 88 89
f 56 89 64
f 57 90 91
f 57 91 88
f 57 58 92
f 57 92 90
f 60 71 93
f 60 93 94
f 60 94 95
f 60 95 61
f 61 95 96
f 61 96 97
f 62 97 80
f 62 80 63
f 64 89 98
f 64 98 99
f 64 99 100
f 64 100 65
f 65 100 66
f 67 76 101
f 67 101 69
f 69 101 70
f 70 101 71
f 71 101 102
f 71 102 93
f 72 100 103
f 72 103 73
f 73 103 130
f 73 130 104
f 73 104 105
f 73 105 77
f 74 106 75
f 74 79 106
f 75 106 76
f 76 106 107
f 76 107 108
f 76 108 101
f 77 105 104
f 77 104 130
f 77 130 129
f 77 129 126
f 77 126 118
f 77 118 117
f 77 117 134
f 77 134 143
f 77 143 154
f 77 154 164
f 77 164 163
f 77 163 175
f 77 175 181
f 77 181 188
f 77 188 187
f 77 187 195
f 77 195 189
f 77 189 182
f 77 182 176
f 77 176 165
f 77 165 155
f 77 155 144
f 77 144 138
f 77 138 131
f 77 131 109
f 77 109 79
f 77 79 78
f 79 109 106
f 80 97 96
f 80 96 81
f 81 96 125
f 81 125 110
f 81 110 111
f 81 111 83
f 82 85 86
f 83 111 110
f 83 110 125
f 83 125 124
f 83 124 123
f 83 123 122
f 83 122 121
f 83 121 120
f 83 120 136
f 83 136 139
f 83 139 146
f 83 146 156
f 83 156 170
f 83 170 167
f 83 167 178
f 83 178 177
f 83 177 184
f 83 184 185
f 83 185 179
f 83 179 172
f 83 172 171
f 83 171 158
f 83 158 157
f 83 157 147
f 83 147 140
f 83 140 133
f 83 133 113
f 83 113 112
f 83 112 85
f 83 85 84
f 85 112 86
f 86 112 113
f 86 113 87
f 87 113 114
f 87 114 116
f 87 116 92
f 88 115 89
f 88 91 115
f 89 115 98
f 90 116 117
f 90 117 91
f 90 92 116
f 91 117 118
f 91 118 115
f 93 102 119
f 93 119 94
f 94 119 95
f 95 119 120
f 95 120 121
f 95 121 96
f 96 121 122
f 96 122 123
f 96 123 124
f 96 124 125
f 98 115 99
f 99 115 118
f 99 118 126
f 99 126 103
f 99 103 100
f 101 108 127
f 101 127 128
f 101 128 102
f 102 128 119
f 103 126 129
f 103 129 130
f 106 109 107
f 107 109 132
f 107 132 127
f 107 127 108
f 109 131 132
f 113 133 114
f 114 133 135
f 114 135 116
f 116 134 117
f 116 135 134
f 119 128 120
f 120 128 136
f 127 136 128
f 127 132 137
f 127 137 136
f 131 138 139
f 131 139 132
f 132 139 137
f 133 140 141
f 133 141 142
f 133 142 135
f 134 135 143
f 135 142 143
f 136 137 139
f 138 144 145
f 138 145 146
f 138 146 139
f 140 147 148
f 140 148 149
f 140 149 141
f 141 149 142
f 142 149 150
f 142 150 151
f 142 151 152
f 142 152 143
f 143 153 154
f 143 152 153
f 144 155 145
f 145 156 146
f 145 155 169
f 145 169 156
f 147 157 148
f 148 157 158
f 148 158 149
f 149 158 159
f 149 159 160
f 149 160 150
f 150 161 174
f 150 174 162
f 150 162 152
f 150 152 151
f 150 160 161
f 152 162 163
f 152 163 153
f 153 163 164
f 153 164 154
f 155 165 166
f 155 166 167
f 155 167 168
f 155 168 170
f 155 170 169
f 156 169 170
f 158 171 159
f 159 171 172
f 159 172 173
f 159 173 161
f 159 161 160
f 161 173 180
f 161 180 174
f 162 174 163
f 163 174 175
f 165 176 166
f 166 177 178
f 166 178 167
f 166 176 177
f 167 170 168
f 172 179 173
f 173 179 186
f 173 186 180
f 174 180 175
f 175 180 181
f 176 182 183
f 176 183 184
f 176 184 177
f 179 185 193
f 179 193 206
f 179 206 205
f 179 205 204
f 179 204 203
f 179 203 202
f 179 202 201
f 179 201 200
f 179 200 199
f 179 199 198
f 179 198 197
f 179 197 196
f 179 196 194
f 179 194 186
f 180 187 188
f 180 188 181
f 180 186 187
f 182 189 190
f 182 190 191
f 182 191 183
f 183 191 192
f 183 192 184
f 184 192 185
f 185 192 191
f 185 191 193
f 186 194 187
f 187 194 196
f 187 196 197
f 187 197 198
f 187 198 199
f 187 199 200
f 187 200 201
f 187 201 202
f 187 202 195
f 189 195 190
f 190 195 202
f 190 202 203
f 190 203 204
f 190 204 205
f 190 205 206
f 190 206 193
f 190 193 191

