# https://github.com/mikedh/trimesh
v -5.46683439 -43.54183228 -11.51748653
v -5.46683439 -43.54183228 13.24037307
v -5.46683439 -43.26474040 -12.28241282
v -2.57023391 -50.01386005 -12.04005876
v -2.58026842 -50.03364892 -11.51748653
v -2.60368128 -50.05344972 3.47304824
v -2.61037045 -50.06334415 10.47856044
v -3.04519513 -43.58141598 13.24037307
v -5.46683439 -37.56460376 13.24037307
v -2.61037045 -50.06334415 11.48079076
v -2.59030293 -50.03364892 12.04123156
v -2.04844400 -49.48937152 12.37699118
v -1.05169138 -49.48937152 12.53855957
v -5.46683439 -42.49284925 -12.54748535
v -2.04844400 -49.48937152 -12.37077132
v -2.04844400 -50.14251156 -12.16628434
v -2.04844400 -50.30084637 -11.51748653
v -2.04844400 -50.33054159 0.47393158
v -2.09861654 -43.34391078 13.24037307
v -4.73097747 -35.82289700 13.24037307
v -1.04834754 -11.71606668 12.53855957
v -2.04844400 -11.71606668 12.40223689
v -2.64716315 -11.71606668 12.11949148
v -5.46683439 -35.60518366 12.39213831
v -2.04844400 -50.33054159 11.48079076
v -2.04844400 -50.16230043 12.15988283
v -0.05159492 -49.48937152 12.49564394
v -1.05169138 -50.26126863 12.25581415
v -0.05159492 -50.25136227 12.23814424
v -5.46683439 -36.49582889 -12.54748535
v -3.04854046 -42.49284925 -12.55000962
v -1.05169138 -49.48937152 -12.54496107
v -1.05169138 -50.26126863 -12.28241282
v -1.05169138 -50.53834858 -11.51748653
v -1.05169138 -50.54825494 -10.51273044
v -1.90796239 -43.08661374 13.24037307
v -4.06870594 -35.39736475 13.24037307
v -3.04854046 -35.08069215 13.24037307
v -2.65385382 -35.15985955 13.24037307
v -1.74741176 -35.61507809 13.24037307
v -0.05159492 -11.71606668 12.50826531
v 26.94432044 49.49113437 7.54255656
v 10.95281152 49.49113437 7.54255656
v 9.95271506 49.49113437 7.36079250
v 9.39747778 50.06510104 7.04522856
v 3.03900355 26.55204190 7.55013087
v -2.74750822 -11.71606668 11.47574222
v -5.46683439 -35.14006770 11.48079076
v -1.05169138 -50.54825494 11.48079076
v 0.74781289 -50.16230043 12.13716288
v 27.94107455 -50.20189009 7.19164981
v 27.94107455 -49.47947411 7.40623240
v -1.63034300 -42.68087333 13.24037307
v -0.05159492 -50.52845415 11.48079076
v 26.94432044 -50.53834858 6.47973772
v 26.94432044 -50.25136227 7.25981264
v -3.04854046 -36.49582889 -12.55000962
v -5.46683439 -35.58539181 -12.28241282
v -2.64716315 -11.71606668 -12.15113870
v -2.04844400 -11.71606668 -12.41621122
v -1.04834754 -11.71606668 -12.53991253
v -1.04834754 -19.49437825 -12.54496107
v -0.05159492 -49.48937152 -12.50204545
v -0.05159492 -50.25136227 -12.25969138
v -0.05159492 -50.51855971 -11.51748653
v 26.94432044 -50.52845415 -6.51138494
v 0.94850006 -50.54825494 -10.51273044
v -1.54003393 -36.09998590 13.24037307
v 27.94442137 49.49113437 7.41128244
v -1.46310320 -36.49582889 13.24037307
v 27.94442137 50.21354142 7.19417408
v 26.94432044 50.27291995 7.25981264
v 10.95281152 50.27291995 7.25981264
v 9.95271506 50.18385811 7.16892986
v 9.95271506 50.37188815 6.47973772
v 7.93579845 50.55001183 3.47809679
v 7.93579845 50.27291995 4.26826879
v 3.03900355 26.55204190 -7.55653238
v -2.76088657 -11.71606668 7.47691950
v -2.75754273 -11.71606668 8.47914983
v -5.46683439 -35.11037843 10.47856044
v 0.94850006 -50.54825494 10.47856044
v 28.52976068 -50.09302746 7.07804709
v 27.94107455 -50.40970900 6.47973772
v 28.57324255 -49.47947411 7.12601275
v 27.94107455 -48.47997220 7.41128244
v -1.35272511 -41.49334437 13.24037307
v -1.48986139 -42.24544664 13.24037307
v 3.69793124 -50.54825494 -5.51672893
v 25.94088162 -50.53834858 -5.51420466
v 27.94107455 -50.40970900 -6.51138494
v 3.69793124 -50.54825494 5.48003316
v -5.46683439 -35.14996214 -11.51748653
v -2.74750822 -11.71606668 -11.51496226
v 9.40416695 50.06510104 -7.07182425
v 9.95271506 49.49113437 -7.36719401
v 10.95281152 49.49113437 -7.54643231
v 26.94432044 49.49113437 -7.54895658
v -0.05159492 -11.71606668 -12.50204545
v 27.94107455 -49.47947411 -7.40506109
v 27.94107455 -50.18210122 -7.21067418
v 0.74112223 -50.15240599 -12.16376006
v 27.94442137 26.56193634 -7.40506109
v 26.94432044 -50.25136227 -7.27883551
v 27.94442137 26.56193634 7.41128244
v 28.57658640 49.49113437 7.12853702
v 28.53310452 50.10469071 7.08057136
v -1.34937978 -37.37657969 13.24037307
v -1.34603445 -37.49533377 13.24037307
v 27.94442137 50.42136033 6.47973772
v 26.94432044 50.55001183 6.47973772
v 10.95281152 50.55001183 6.47973772
v 7.93579845 50.55001183 -2.51508799
v 7.93579845 50.54011740 -3.51731683
v 7.93579845 50.26302552 -4.28981594
v -2.75754273 -11.71606668 -8.72790242
v -5.46683439 -35.11037843 -10.51273044
v 28.56655487 -50.14251156 6.47973772
v 28.69365664 -49.47947411 6.47973772
v 28.58662388 26.56193634 7.08561991
v 28.57658640 26.56193634 7.12853702
v -1.34603445 -40.49384247 13.24037307
v 28.51972618 -50.07323859 -7.09706996
v 28.56655487 -50.14251156 -6.51138494
v -5.46683439 -35.13017029 -11.09841844
v 9.95271506 50.37188815 -6.51390922
v 9.95271506 50.18385811 -7.19300128
v 10.95281152 50.26302552 -7.28135978
v 26.94432044 50.26302552 -7.28135978
v 27.94442137 50.20364698 -7.21067418
v 27.94442137 49.49113437 -7.40253682
v 27.94442137 45.49312080 -7.40506109
v 28.55986122 -41.48344993 -7.13998857
v 28.55651738 -49.47947411 -7.13998857
v 27.96114357 -2.52261669 -7.40001254
v 28.69700049 49.49113437 6.47973772
v 28.56989871 50.15417480 6.47973772
v 27.94442137 50.42136033 -6.51390922
v 25.94422546 50.55001183 -5.51420466
v 26.94432044 50.54011740 -6.51390922
v 10.95281152 50.54011740 -6.51390922
v 11.94956414 50.55001183 -5.51420466
v 28.68696598 -49.47947411 -6.51138494
v 28.69365664 -11.71606668 -6.51138494
v 28.69700049 -2.52261669 6.47721345
v 28.51972618 50.08490183 -7.09706996
v 28.55651738 49.49113437 -7.13746131
v 28.55651738 45.49312080 -7.13998857
v 28.55986122 10.49071686 -7.14250986
v 28.55986122 -2.52261669 -7.14250986
v 28.69365664 -2.52261669 -6.51138494
v 28.69031280 46.49262270 -6.51390922
v 28.68696598 49.49113437 -6.51390922
v 28.56655487 50.14426845 -6.51390922
v 28.55986122 15.48823309 -7.13998857
f 1 2 9
f 1 9 24
f 1 24 48
f 1 48 81
f 1 81 117
f 1 117 125
f 1 125 93
f 1 93 58
f 1 58 30
f 1 30 14
f 1 14 3
f 1 3 4
f 1 4 5
f 1 5 6
f 1 6 7
f 1 7 10
f 1 10 2
f 2 8 19
f 2 19 36
f 2 36 53
f 2 53 88
f 2 88 87
f 2 87 122
f 2 122 109
f 2 109 108
f 2 108 70
f 2 70 68
f 2 68 40
f 2 40 39
f 2 39 38
f 2 38 37
f 2 37 20
f 2 20 9
f 2 10 11
f 2 11 12
f 2 12 13
f 2 13 8
f 3 14 4
f 4 15 16
f 4 16 17
f 4 17 5
f 4 14 15
f 5 17 18
f 5 18 6
f 6 18 7
f 7 18 25
f 7 25 10
f 8 13 19
f 9 20 21
f 9 21 22
f 9 22 23
f 9 23 24
f 10 25 11
f 11 25 26
f 11 26 12
f 12 26 13
f 13 27 19
f 13 26 28
f 13 28 29
f 13 29 27
f 14 30 57
f 14 57 31
f 14 31 32
f 14 32 15
f 15 32 16
f 16 32 33
f 16 33 34
f 16 34 17
f 17 34 35
f 17 35 18
f 18 35 49
f 18 49 25
f 19 27 36
f 20 37 21
f 21 37 38
f 21 38 39
f 21 39 40
f 21 40 41
f 21 41 42
f 21 42 43
f 21 43 22
f 22 43 44
f 22 44 45
f 22 45 23
f 23 45 46
f 23 46 47
f 23 47 24
f 24 47 48
f 25 49 26
f 26 49 28
f 27 29 50
f 27 50 51
f 27 51 52
f 27 52 53
f 27 53 36
f 28 49 29
f 29 49 54
f 29 54 55
f 29 55 56
f 29 56 51
f 29 51 50
f 30 58 59
f 30 59 60
f 30 60 61
f 30 61 62
f 30 62 57
f 31 57 62
f 31 62 32
f 32 63 64
f 32 64 33
f 32 62 63
f 33 64 34
f 34 65 66
f 34 66 67
f 34 67 35
f 34 64 65
f 35 67 89
f 35 89 92
f 35 92 82
f 35 82 49
f 40 68 41
f 41 69 42
f 41 68 70
f 41 70 69
f 42 69 71
f 42 71 72
f 42 72 73
f 42 73 43
f 43 73 74
f 43 74 44
f 44 74 45
f 45 74 75
f 45 75 76
f 45 76 77
f 45 77 46
f 46 77 76
f 46 76 113
f 46 113 78
f 46 78 79
f 46 79 80
f 46 80 47
f 47 80 81
f 47 81 48
f 49 82 55
f 49 55 54
f 51 83 52
f 51 56 55
f 51 55 84
f 51 84 83
f 52 85 86
f 52 86 87
f 52 87 88
f 52 88 53
f 52 83 85
f 55 89 90
f 55 90 66
f 55 66 91
f 55 91 84
f 55 82 92
f 55 92 89
f 58 93 94
f 58 94 59
f 59 94 78
f 59 78 95
f 59 95 60
f 60 95 96
f 60 96 97
f 60 97 61
f 61 97 98
f 61 98 99
f 61 99 62
f 62 99 63
f 63 100 101
f 63 101 102
f 63 102 64
f 63 99 132
f 63 132 103
f 63 103 100
f 64 66 65
f 64 102 101
f 64 101 104
f 64 104 66
f 66 104 101
f 66 101 91
f 66 90 67
f 67 90 89
f 69 105 121
f 69 121 106
f 69 106 107
f 69 107 71
f 69 70 108
f 69 108 109
f 69 109 122
f 69 122 105
f 71 107 110
f 71 110 111
f 71 111 72
f 72 111 112
f 72 112 73
f 73 112 74
f 74 112 75
f 75 112 76
f 76 112 111
f 76 111 139
f 76 139 142
f 76 142 113
f 78 113 114
f 78 114 115
f 78 115 95
f 78 94 116
f 78 116 79
f 79 116 117
f 79 117 81
f 79 81 80
f 83 84 118
f 83 118 119
f 83 119 85
f 84 91 124
f 84 124 118
f 85 119 120
f 85 120 121
f 85 121 86
f 86 122 87
f 86 121 105
f 86 105 122
f 91 101 123
f 91 123 124
f 93 125 94
f 94 125 117
f 94 117 116
f 95 115 114
f 95 114 126
f 95 126 127
f 95 127 96
f 96 127 97
f 97 127 128
f 97 128 98
f 98 128 129
f 98 129 130
f 98 130 131
f 98 131 99
f 99 131 132
f 100 133 134
f 100 134 123
f 100 123 101
f 100 103 135
f 100 135 133
f 103 132 135
f 106 136 107
f 106 121 120
f 106 120 136
f 107 137 110
f 107 136 137
f 110 138 111
f 110 137 138
f 111 138 140
f 111 140 139
f 113 141 114
f 113 142 141
f 114 141 126
f 118 124 119
f 119 124 143
f 119 143 144
f 119 144 145
f 119 145 120
f 120 145 136
f 123 134 143
f 123 143 124
f 126 141 127
f 127 141 128
f 128 141 140
f 128 140 129
f 129 140 130
f 130 146 131
f 130 140 138
f 130 138 146
f 131 146 147
f 131 147 148
f 131 148 132
f 132 148 149
f 132 149 135
f 133 143 134
f 133 135 150
f 133 150 144
f 133 144 143
f 135 149 150
f 136 145 151
f 136 151 152
f 136 152 153
f 136 153 154
f 136 154 137
f 137 154 138
f 138 154 146
f 139 140 141
f 139 141 142
f 144 150 149
f 144 149 151
f 144 151 145
f 146 154 153
f 146 153 147
f 147 153 152
f 147 152 148
f 148 152 155
f 148 155 149
f 149 155 152
f 149 152 151

