# https://github.com/mikedh/trimesh
v 2.87769300 -50.39040094 46.57609570
v 10.66295384 -50.39040094 45.57856834
v 2.87769300 -50.39040094 57.53842057
v 2.87769300 -50.32134770 45.77178296
v 26.60720837 -50.39040094 45.57856834
v 2.87769300 -50.28187683 45.58006588
v 2.87769300 -50.09443472 44.85064203
v 10.66295384 -50.11416422 44.81319758
v 10.66295384 -50.39040094 58.53744621
v 2.87769300 -50.31148296 58.53594867
v 27.60467110 -50.37067145 45.57856834
v 26.60720837 -50.39040094 58.53744621
v 26.60720837 -50.11416422 44.81319758
v 27.60467110 -50.10429947 44.82817521
v 2.87769300 -50.02536960 44.72482786
v 10.66295384 -50.11416422 59.32678207
v 2.87769300 -50.05496384 59.41664933
v 27.60467110 -50.37067145 58.53744621
v 28.28648269 -50.00564010 44.92253584
v 28.38496675 -50.09443472 45.57856834
v 27.60467110 -50.10429947 59.31479878
v 26.60720837 -50.11416422 59.32678207
v 2.87769300 -49.36436609 44.48068797
v 26.60720837 -49.34463363 44.54808842
v 27.60467110 -49.34463363 44.57654688
v 26.60720837 -49.34463363 59.62783814
v 2.87769300 -49.33476888 59.69374031
v 28.38496675 -50.09443472 58.53744621
v 28.29910778 -50.01550485 59.21444725
v 28.37991552 -49.34463363 44.84315359
v 28.66526822 -49.34463363 45.57856834
v 28.66779087 -49.34463363 58.53744621
v 27.60467110 -49.34463363 59.60087648
v 2.87769300 -49.33476888 44.47619461
v 2.87769300 -48.37778727 44.45372779
v 2.87769300 -15.44583150 44.44474106
v 26.60720837 -41.36322325 44.54659088
v 27.60467110 30.76545715 44.57654688
v 26.60720837 -48.34819005 59.63981995
v 2.87769300 -48.34819005 59.71171376
v 28.40011746 -49.34463363 59.30431600
v 28.66779087 -36.38100538 45.57856834
v 28.37991552 30.76545715 44.84315359
v 28.67284209 42.42680194 45.58006588
v 28.66779087 8.46880687 58.53744621
v 27.60467110 -48.34819005 59.60537058
v 2.87769300 -11.46005869 44.44474106
v 26.60720837 -34.38811823 44.54659088
v 26.60468572 38.38183618 44.54808842
v 27.60467110 49.34271253 44.57804442
v 26.60720837 -43.36597515 59.64131749
v 2.87769300 -27.40315143 59.74466559
v 28.40011746 6.46605422 59.30431600
v 28.37738991 49.34271253 44.84465113
v 28.67284209 43.36405108 45.58006588
v 28.66779087 34.39606188 58.53594867
v 27.60467110 30.76545715 59.60537058
v 2.87769300 -10.46361511 44.45223025
v 2.90041906 30.76545715 44.46121698
v 2.90041906 28.40753865 44.45822115
v 2.90041906 26.41465150 44.45672361
v 26.60468572 49.34271253 44.54958670
v 27.60467110 50.09250768 44.82967350
v 28.28648269 50.01358970 44.92403412
v 26.60720837 -37.37744895 59.64131749
v 2.87769300 -11.46005869 59.74616313
v 28.40011746 17.43679607 59.30131943
v 28.39759481 30.76545715 59.30131943
v 28.66779087 49.34271253 45.58006588
v 28.66526822 49.34271253 58.53594867
v 26.97841706 30.76545715 59.62783814
v 28.39254359 42.42680194 59.30131943
v 27.60467110 48.34626895 59.60237550
v 26.60468572 48.34626895 59.63981995
v 2.87769300 -9.47703777 44.73231705
v 2.87769300 -9.06267526 45.32544173
v 2.87769300 -8.93442016 45.72984515
v 2.87769300 -8.87522573 46.57609570
v 2.90041906 30.76545715 59.69224277
v 7.98116779 50.39835054 49.56868076
v 7.98116779 50.38848579 48.57115191
v 7.98116779 50.10237243 47.79979099
v 9.89023652 50.02345444 44.90306485
v 9.75387420 49.34271253 44.81469512
v 10.66295384 49.34271253 44.54958670
v 26.60468572 50.10237243 44.81469512
v 26.60468572 50.38848579 45.58006588
v 27.60467110 50.36875629 45.58006588
v 28.38749236 50.09250768 45.58006588
v 2.87769300 -10.46361511 59.71171376
v 28.39254359 49.34271253 59.29982189
v 28.38244114 50.08264293 58.53594867
v 28.29658217 50.02345444 59.21145217
v 27.60467110 49.34271253 59.59638386
v 26.60468572 49.34271253 59.62634060
v 10.66295384 49.34271253 59.62634060
v 10.66295384 48.34626895 59.63832241
v 2.87769300 -8.87522573 57.53842057
v 9.73114666 49.34271253 59.33127469
v 9.88013555 50.02345444 59.22792660
v 7.98116779 50.11223718 56.33419776
v 7.98116779 50.39835054 55.54336436
v 2.87769300 -8.93442016 58.42960550
v 2.87769300 -8.98374910 58.68123532
v 2.87769300 -9.14160142 59.07065963
v 2.87769300 -9.30931922 59.31929288
v 2.87769300 -9.41784334 59.42713360
v 2.87769300 -10.45374962 59.71021622
v 11.66041658 50.39835054 46.57609570
v 10.66295384 50.38848579 45.58006588
v 10.66295384 50.10237243 44.81469512
v 25.61227125 50.39835054 46.57609570
v 26.60468572 50.39835054 58.53594867
v 27.60467110 50.36875629 58.53594867
v 27.60467110 50.10237243 59.31030616
v 26.60468572 50.11223718 59.32378699
v 10.66295384 50.11223718 59.32378699
v 10.66295384 50.39835054 58.53594867
f 1 2 5
f 1 5 12
f 1 12 9
f 1 9 3
f 1 3 10
f 1 10 17
f 1 17 27
f 1 27 40
f 1 40 52
f 1 52 66
f 1 66 90
f 1 90 108
f 1 108 107
f 1 107 106
f 1 106 105
f 1 105 104
f 1 104 103
f 1 103 98
f 1 98 78
f 1 78 77
f 1 77 76
f 1 76 75
f 1 75 58
f 1 58 47
f 1 47 36
f 1 36 35
f 1 35 34
f 1 34 23
f 1 23 15
f 1 15 7
f 1 7 6
f 1 6 4
f 1 4 2
f 2 4 6
f 2 6 7
f 2 7 8
f 2 8 13
f 2 13 5
f 3 9 10
f 5 11 18
f 5 18 12
f 5 13 14
f 5 14 11
f 7 15 8
f 8 15 13
f 9 12 22
f 9 22 16
f 9 16 17
f 9 17 10
f 11 14 19
f 11 19 20
f 11 20 28
f 11 28 18
f 12 18 21
f 12 21 22
f 13 15 23
f 13 23 24
f 13 24 14
f 14 24 25
f 14 25 19
f 16 22 17
f 17 22 26
f 17 26 27
f 18 28 29
f 18 29 21
f 19 25 30
f 19 30 31
f 19 31 20
f 20 31 32
f 20 32 28
f 21 29 33
f 21 33 26
f 21 26 22
f 23 34 24
f 24 34 35
f 24 35 36
f 24 36 37
f 24 37 25
f 25 37 48
f 25 48 38
f 25 38 43
f 25 43 30
f 26 33 39
f 26 39 40
f 26 40 27
f 28 32 29
f 29 32 41
f 29 41 33
f 30 42 31
f 30 43 55
f 30 55 44
f 30 44 42
f 31 42 32
f 32 42 44
f 32 44 55
f 32 55 45
f 32 45 53
f 32 53 41
f 33 41 46
f 33 46 39
f 36 47 48
f 36 48 37
f 38 49 50
f 38 50 43
f 38 48 49
f 39 46 51
f 39 51 52
f 39 52 40
f 41 53 57
f 41 57 46
f 43 50 54
f 43 54 55
f 45 55 56
f 45 56 53
f 46 57 65
f 46 65 51
f 47 58 59
f 47 59 60
f 47 60 61
f 47 61 62
f 47 62 49
f 47 49 48
f 49 62 50
f 50 62 63
f 50 63 64
f 50 64 54
f 51 65 66
f 51 66 52
f 53 56 67
f 53 67 68
f 53 68 57
f 54 64 69
f 54 69 55
f 55 69 70
f 55 70 56
f 56 70 67
f 57 71 65
f 57 68 72
f 57 72 73
f 57 73 74
f 57 74 71
f 58 75 59
f 59 75 76
f 59 76 77
f 59 77 78
f 59 78 98
f 59 98 79
f 59 79 102
f 59 102 80
f 59 80 81
f 59 81 82
f 59 82 83
f 59 83 84
f 59 84 85
f 59 85 62
f 59 62 60
f 60 62 61
f 62 85 111
f 62 111 86
f 62 86 63
f 63 86 87
f 63 87 88
f 63 88 64
f 64 88 89
f 64 89 69
f 65 71 74
f 65 74 66
f 66 74 79
f 66 79 90
f 67 70 68
f 68 70 91
f 68 91 72
f 69 89 70
f 70 89 92
f 70 92 93
f 70 93 91
f 72 91 73
f 73 91 94
f 73 94 74
f 74 94 95
f 74 95 96
f 74 96 97
f 74 97 79
f 79 97 96
f 79 96 99
f 79 99 100
f 79 100 101
f 79 101 102
f 79 98 103
f 79 103 104
f 79 104 105
f 79 105 106
f 79 106 107
f 79 107 108
f 79 108 90
f 80 102 118
f 80 118 113
f 80 113 112
f 80 112 109
f 80 109 110
f 80 110 81
f 81 110 83
f 81 83 82
f 83 110 111
f 83 111 85
f 83 85 84
f 86 111 110
f 86 110 87
f 87 112 113
f 87 113 88
f 87 110 109
f 87 109 112
f 88 113 114
f 88 114 89
f 89 114 92
f 91 93 94
f 92 114 93
f 93 114 115
f 93 115 94
f 94 115 95
f 95 115 116
f 95 116 117
f 95 117 96
f 96 117 100
f 96 100 99
f 100 117 118
f 100 118 102
f 100 102 101
f 113 118 117
f 113 117 116
f 113 116 115
f 113 115 114

