# https://github.com/mikedh/trimesh
v -3.29631313 -10.45405641 64.64214022
v -7.36272246 -10.45405641 64.64214022
v -3.29631313 -34.38824599 64.64214022
v -1.30365235 30.76483911 64.63958489
v -1.62199755 44.35977263 64.63958489
v -7.36272246 22.41845682 62.63918924
v -7.36272246 -34.38824599 64.64214022
v -1.62199755 48.34551721 64.63703105
v -1.62199755 49.34195187 64.62425739
v -1.30365235 -48.33834610 64.63958489
v -0.93425189 30.77470386 64.63447573
v -0.30657125 48.34551721 64.62425739
v -1.30215073 48.34551721 64.63703105
v -7.36272246 23.34583230 62.53188782
v -7.36272246 -35.37481591 64.45564151
v -3.68073004 -49.32491602 64.62425739
v -3.68073004 -48.71324219 64.63447573
v -3.68073004 -48.33834610 64.63958489
v -1.30215073 49.34195187 64.62425739
v -1.62199755 50.12134127 64.31257294
v -7.36272246 23.41489148 62.52166800
v -1.30365235 -49.32491602 64.62425739
v -0.30807287 -49.32491602 64.60892841
v -0.30807287 -48.33834610 64.62170207
v -0.30807287 5.46918352 64.62425739
v -0.30506962 30.77470386 64.62425739
v -0.30506962 42.42609477 64.62425739
v -0.24200116 42.43596249 64.61148225
v 0.68900842 48.34551721 64.41476371
v 0.68900842 49.34195187 64.41220987
v -0.30657125 49.34195187 64.61403757
v -7.36272246 -35.95689251 64.14651239
v -3.68073004 -50.10429947 64.31001762
v -0.30657125 50.12134127 64.31001762
v -1.30215073 50.12134127 64.31257294
v -1.62199755 50.39757800 63.52058965
v -7.36272246 24.97367325 61.14208444
v -7.36272246 24.95394078 61.18040690
v -7.36272246 24.62837289 61.64026760
v -7.36272246 24.12522170 62.21253888
v -1.30365235 -50.10429947 64.31001762
v -0.30807287 -50.10429947 64.30746378
v 0.68600517 -50.01551674 64.20782685
v 0.68600517 -49.32491602 64.39432556
v 0.68600517 -48.33834610 64.39943621
v 0.68600517 -41.36329456 64.40199005
v 0.68600517 -32.38550895 64.40454538
v 0.68600517 5.46918352 64.41220987
v 0.68900842 30.77470386 64.41476371
v 0.06282941 30.77470386 64.54761246
v -0.24200116 42.42609477 64.61148225
v 0.72955231 42.43596249 64.39688089
v 1.31218418 49.34195187 64.11840974
v 1.27013866 49.92402254 64.08519644
v 0.68900842 50.04241140 64.21293601
v -7.36272246 -35.96675726 64.09797158
v -3.68073004 -50.39041283 63.52058965
v 0.68900842 50.31866001 63.52058965
v -0.30657125 50.39757800 63.52058965
v -1.62199755 50.39757800 40.59394519
v -7.36272246 25.03286768 60.52893536
v -0.30807287 -50.39041283 63.52058965
v 0.68600517 -50.30161821 63.52058965
v 1.26263016 -49.90699262 64.08008727
v 1.30317443 -49.32491602 64.10818992
v 1.30317443 -47.33204372 64.11074524
v 1.30918093 -24.42388750 64.11585441
v 1.31218418 -17.43897270 64.11585441
v 1.31218418 30.77470386 64.11840974
v 7.97791198 48.34551721 56.64821766
v 7.97791198 48.66121887 56.64566233
v 7.97791198 49.34195187 56.63799784
v 6.33813379 50.01281716 58.26539606
v 7.97791198 50.12134127 56.33397788
v 1.49388126 50.04241140 63.52058965
v -7.36272246 -36.03581644 63.52058965
v -3.68073004 -50.39041283 42.48704165
v 7.97791198 50.39757800 55.54199459
v -1.30215073 50.39757800 40.59394519
v -1.62199755 50.14107077 39.63334602
v -7.36272246 24.97367325 42.98522481
v -7.36272246 24.98353800 43.03121029
v -7.36272246 25.03286768 43.58559874
v 0.68600517 -50.39041283 62.52166800
v 2.87237584 -50.30161821 58.53109355
v 1.77618725 -50.10429947 62.59831294
v 1.48487150 -50.01551674 63.52058965
v 2.16811229 -49.32491602 62.96620119
v 1.78669863 -49.32491602 63.52058965
v 2.23868870 -49.90699262 62.31728646
v 7.91334170 30.77470386 56.64566233
v 7.97791198 42.43596249 56.64821766
v -7.36272246 -36.03581644 50.56527290
v 0.68600517 -50.39041283 42.48704165
v -7.36272246 -35.95689251 49.77328886
v -7.36272246 -33.03664474 42.48193174
v -3.80386334 -42.51758302 39.59757887
v -3.29631313 -42.51758302 39.08151214
v 7.97791198 50.39757800 49.56635199
v 0.68900842 50.39757800 41.59031152
v -0.30657125 50.38771325 40.59394519
v -0.30657125 50.11147652 39.82750996
v -1.62199755 49.68725075 39.16582009
v -7.36272246 24.57904469 42.48448632
v 2.87237584 -50.39041283 57.53217339
v 2.87237584 -50.05497573 59.41504928
v 2.87237584 -49.32491602 59.69096659
v 7.91334170 30.77470386 47.51996864
v 7.97791198 42.43596249 47.51996864
v 1.57647067 -50.24242972 42.48704165
v 2.87237584 -50.39041283 46.57725303
v -2.40434600 -42.51758302 39.10195030
v -7.36272246 23.72072839 42.48193174
v -4.05463557 -33.07610670 39.07384765
v -1.62199755 45.35620729 38.54245268
v 7.97791198 50.38771325 48.56998567
v 0.68900842 50.29891863 40.59394519
v 0.68900842 50.02268190 39.92970148
v -1.62199755 49.17423332 38.75194487
v -4.05463557 -11.93391128 39.07384765
v -1.62199755 48.99665300 38.70340407
v -1.62199755 48.37511146 38.55011717
v 2.87237584 -50.31148296 45.77249533
v 2.87237584 -50.27202396 45.58344129
v 2.87237584 -50.07470523 44.85277246
v 2.87237584 -50.01551674 44.72758821
v 2.87237584 -49.36437798 44.48232888
v 2.33178986 -49.32491602 42.48704165
v 2.14708953 -42.51758302 41.23519618
v 1.72813523 -42.51758302 40.59649978
v 0.80913847 -24.88757524 39.07384765
v 7.97791198 48.34551721 47.51996864
v 1.69209584 -50.21282359 42.48704165
v 0.68600517 -42.51758302 39.76874934
v 2.25820983 -49.93658687 42.48704165
v 0.75808320 -25.91360712 39.07384765
v -1.62199755 47.40827401 38.54500800
v 0.79712547 -19.43184351 39.07384765
v 0.79111896 -25.41045741 39.07384765
v 7.97791198 50.11147652 47.80099511
v 1.46535000 50.02268190 40.59394519
v 1.24611265 49.90429304 40.04977582
v 1.27464317 49.34195187 40.02678308
v 1.26563341 -42.51758302 40.03444757
v 7.97791198 49.34195187 47.52252322
v 6.32612079 50.00295241 45.87213189
f 1 2 7
f 1 7 3
f 1 3 10
f 1 10 4
f 1 4 5
f 1 5 2
f 2 6 14
f 2 14 21
f 2 21 40
f 2 40 39
f 2 39 38
f 2 38 37
f 2 37 61
f 2 61 83
f 2 83 82
f 2 82 81
f 2 81 104
f 2 104 113
f 2 113 96
f 2 96 95
f 2 95 93
f 2 93 76
f 2 76 56
f 2 56 32
f 2 32 15
f 2 15 7
f 2 5 8
f 2 8 9
f 2 9 6
f 3 7 18
f 3 18 10
f 4 11 12
f 4 12 13
f 4 13 5
f 4 10 11
f 5 13 8
f 6 9 14
f 7 15 16
f 7 16 17
f 7 17 18
f 8 13 19
f 8 19 9
f 9 19 35
f 9 35 20
f 9 20 21
f 9 21 14
f 10 18 17
f 10 17 22
f 10 22 23
f 10 23 24
f 10 24 25
f 10 25 11
f 11 26 27
f 11 27 12
f 11 25 26
f 12 27 28
f 12 28 29
f 12 29 30
f 12 30 31
f 12 31 13
f 13 31 19
f 15 32 33
f 15 33 16
f 16 22 17
f 16 33 41
f 16 41 22
f 19 34 35
f 19 31 34
f 20 35 59
f 20 59 36
f 20 36 37
f 20 37 38
f 20 38 39
f 20 39 40
f 20 40 21
f 22 41 42
f 22 42 23
f 23 42 43
f 23 43 44
f 23 44 24
f 24 44 45
f 24 45 46
f 24 46 47
f 24 47 48
f 24 48 49
f 24 49 50
f 24 50 25
f 25 50 51
f 25 51 26
f 26 51 28
f 26 28 27
f 28 51 50
f 28 50 29
f 29 52 53
f 29 53 30
f 29 50 49
f 29 49 52
f 30 53 54
f 30 54 55
f 30 55 31
f 31 55 34
f 32 56 57
f 32 57 33
f 33 57 62
f 33 62 41
f 34 55 58
f 34 58 59
f 34 59 35
f 36 59 78
f 36 78 99
f 36 99 100
f 36 100 79
f 36 79 60
f 36 60 83
f 36 83 61
f 36 61 37
f 41 62 42
f 42 62 63
f 42 63 43
f 43 63 64
f 43 64 44
f 44 64 65
f 44 65 45
f 45 66 46
f 45 65 66
f 46 66 67
f 46 67 47
f 47 67 48
f 48 67 68
f 48 68 49
f 49 68 52
f 52 68 69
f 52 69 53
f 53 70 71
f 53 71 72
f 53 72 54
f 53 69 92
f 53 92 70
f 54 73 74
f 54 74 75
f 54 75 58
f 54 58 55
f 54 72 73
f 56 76 57
f 57 77 94
f 57 94 111
f 57 111 105
f 57 105 84
f 57 84 62
f 57 76 93
f 57 93 77
f 58 78 59
f 58 75 78
f 60 79 80
f 60 80 81
f 60 81 82
f 60 82 83
f 62 84 63
f 63 85 86
f 63 86 87
f 63 87 64
f 63 84 105
f 63 105 85
f 64 88 89
f 64 89 65
f 64 87 90
f 64 90 88
f 65 89 91
f 65 91 92
f 65 92 66
f 66 92 67
f 67 92 68
f 68 92 69
f 70 92 109
f 70 109 132
f 70 132 145
f 70 145 140
f 70 140 116
f 70 116 99
f 70 99 78
f 70 78 74
f 70 74 72
f 70 72 71
f 72 74 73
f 74 78 75
f 77 93 95
f 77 95 96
f 77 96 97
f 77 97 98
f 77 98 94
f 79 100 101
f 79 101 80
f 80 101 102
f 80 102 103
f 80 103 104
f 80 104 81
f 85 106 90
f 85 90 86
f 85 105 91
f 85 91 106
f 86 90 87
f 88 90 106
f 88 106 107
f 88 107 91
f 88 91 89
f 91 108 109
f 91 109 92
f 91 107 106
f 91 105 111
f 91 111 108
f 94 110 111
f 94 98 112
f 94 112 110
f 96 113 120
f 96 120 114
f 96 114 97
f 97 114 98
f 98 115 112
f 98 114 115
f 99 116 100
f 100 116 117
f 100 117 101
f 101 117 102
f 102 118 103
f 102 117 118
f 103 118 119
f 103 119 104
f 104 120 113
f 104 119 121
f 104 121 122
f 104 122 120
f 108 111 123
f 108 123 124
f 108 124 125
f 108 125 126
f 108 126 127
f 108 127 128
f 108 128 129
f 108 129 130
f 108 130 131
f 108 131 109
f 109 131 132
f 110 133 123
f 110 123 111
f 110 112 133
f 112 134 135
f 112 135 133
f 112 115 136
f 112 136 134
f 114 120 115
f 115 137 138
f 115 138 131
f 115 131 139
f 115 139 136
f 115 120 137
f 116 140 141
f 116 141 117
f 117 141 142
f 117 142 118
f 118 142 119
f 119 142 121
f 120 122 137
f 121 142 122
f 122 142 143
f 122 143 138
f 122 138 137
f 123 133 135
f 123 135 124
f 124 135 125
f 125 135 126
f 126 135 128
f 126 128 127
f 128 135 130
f 128 130 129
f 130 135 144
f 130 144 131
f 131 144 139
f 131 138 132
f 132 138 145
f 134 144 135
f 134 136 144
f 136 139 144
f 138 143 145
f 140 146 142
f 140 142 141
f 140 145 146
f 142 146 145
f 142 145 143

