# https://github.com/mikedh/trimesh
v 2.33621934 -42.53355679 42.47749817
v -3.68467408 -42.42981648 62.90241757
v -3.68467408 -42.45165560 63.51756931
v -3.68467408 -42.50469645 63.78669718
v -3.68467408 -42.67239718 64.22403089
v -3.68467408 -42.91731927 64.33937119
v -3.68467408 -43.36972197 64.53160601
v -3.68467408 -43.75348445 64.57485937
v -3.68467408 -44.36656964 64.63733561
v -3.68467408 -48.35317888 64.63733561
v 2.33263297 -49.35080504 42.47749817
v 2.27525698 -42.53355679 41.84793001
v -3.68467408 -42.43059496 42.47749817
v -32.20771653 -42.60297847 16.67001034
v -32.20771653 -42.60297847 42.47749817
v -32.20771653 -42.60375695 63.52237392
v -32.20771653 -42.73791753 64.21441870
v -32.20771653 -43.36972197 64.52679992
v -32.20771653 -44.36812958 64.64214022
v -31.21080646 -44.36812958 64.64214022
v -19.24791235 -47.35633121 64.64214022
v -7.36749587 -48.42961880 64.63733561
v -3.68467408 -48.73694136 64.63252952
v -26.22626799 -48.35317888 64.64214022
v 2.25732809 -49.95998890 42.47749817
v 2.23581135 -49.92567027 41.85273592
v 2.26091298 -49.35080504 41.73739525
v -3.68467408 -49.35080504 64.62291733
v -3.68467408 -50.12379126 64.31053611
v 2.26091298 -44.36735110 41.72778343
v 2.26091298 -42.53355679 41.72778343
v 2.16767774 -42.53355679 41.30967326
v 2.14616100 -42.53355679 41.22797366
v -3.30097177 -42.60375695 16.67001034
v -5.29478820 -42.60297847 16.67001034
v -32.20771653 -42.73713904 15.97316096
v -33.20462363 -42.75273842 15.99718994
v -33.20462363 -42.63339874 16.67001034
v -33.20462363 -42.63339874 21.65369159
v -33.20103726 -42.63729709 63.52237392
v -33.20103726 -42.75585829 64.19038972
v -33.20462363 -42.63417722 31.62105259
v -33.20462363 -42.63495867 40.58879378
v -33.20103726 -43.36972197 64.49796484
v -33.20103726 -44.36812958 64.63252952
v -32.20771653 -48.35317888 64.64214022
v 1.69073944 -50.22675309 42.47749817
v -3.68467408 -50.39835217 63.51756931
v -2.36502555 -50.12301278 16.67001034
v -1.86657200 -49.36250605 16.67001034
v -1.80560963 -48.85940092 16.16539578
v -32.20771653 -49.35080504 64.62291733
v -7.36749587 -50.12301278 64.31534220
v -7.36749587 -50.14485191 64.25286596
v -2.02435597 -43.36660210 16.67001034
v -2.52280952 -42.73791753 16.67001034
v -1.80560963 -43.86658736 16.16539578
v -2.61604625 -42.78238021 16.04044329
v -3.30097177 -42.73791753 15.97316096
v -29.21699226 -42.73713904 15.97316096
v -32.20771653 -43.37050343 15.66558583
v -33.20462363 -43.37050343 15.68961481
v -33.78914265 -42.80343788 16.06927837
v -33.83217316 -42.76833780 16.67001034
v -33.83217316 -42.76833780 23.64812530
v -33.83217316 -42.76989773 44.57766038
v -33.83217316 -42.77145767 62.52275550
v -33.83217316 -42.77223912 63.52237392
v -33.78914265 -42.80499781 64.11830129
v -33.91465077 -43.36972197 64.24325377
v -33.20103726 -48.35317888 64.63252952
v -33.99712839 -44.36812958 64.32495439
v 1.57598746 -50.25717336 42.47749817
v -3.30097177 -50.39757368 16.67001034
v -32.20771653 -50.39757368 63.52237392
v -4.29787961 -50.39835217 63.51756931
v 0.68665960 -50.39835217 42.47749817
v -2.50846552 -50.03253046 15.97316096
v -2.22875831 -49.25564290 15.92510151
v -2.30406467 -48.35395736 15.85782066
v -33.20103726 -49.35080504 64.58927616
v -32.20771653 -50.12301278 64.31534220
v -2.30406467 -44.36735110 15.85782066
v -2.29330556 -43.46878247 15.96835486
v -3.30097177 -43.37050343 15.66558583
v -32.20771653 -44.36735110 15.54543944
v -33.20462363 -44.36735110 15.55505014
v -33.91465077 -43.37050343 15.93951979
v -34.12622585 -43.37050343 16.67001034
v -34.12622585 -43.36972197 42.47749817
v -34.12622585 -43.36972197 63.52237392
v -33.86444752 -42.83463960 42.47749817
v -34.29835383 -44.36812958 63.52237392
v -33.99712839 -48.35317888 64.32495439
v 0.68665960 -50.39757368 41.58360750
v -3.30097177 -50.39835217 28.63180506
v -32.20771653 -50.39757368 16.67001034
v -3.30097177 -50.12301278 15.87704354
v -6.40286165 -50.39835217 42.47749817
v -6.29528167 -50.39835217 50.56096078
v -5.29478820 -50.39835217 59.52870188
v -33.20103726 -50.08790973 64.28650713
v -33.20103726 -50.32815200 63.52237392
v -33.20103726 -50.33049340 52.55539376
v -33.20103726 -50.33127188 48.56652707
v -33.20462363 -50.33205036 42.47749817
v -32.31529577 -50.39054951 42.47749817
v -3.30097177 -49.35080504 15.56466232
v -3.30097177 -48.35395736 15.54543944
v -33.95768425 -49.35080504 64.29131322
v -33.84293227 -49.98573233 64.17597144
v -3.30097177 -44.36735110 15.54543944
v -32.20771653 -48.35395736 15.54543944
v -33.20462363 -48.35395736 15.55505014
v -33.99712839 -44.36735110 15.86262526
v -34.29118108 -44.36735110 16.67001034
v -34.29835383 -44.36812958 59.53350797
v -34.29476745 -48.35317888 63.52237392
v -34.29835383 -45.36419580 55.54464054
v -33.20462363 -50.33205036 32.61586640
v -33.20462363 -50.33049340 20.65407168
v -33.20462363 -50.32970897 16.67001034
v -33.20462363 -50.08947264 15.90587862
v -32.20771653 -50.12301278 15.87704354
v -33.91465077 -50.05436958 63.52237392
v -33.91824011 -50.05593249 55.54464054
v -33.91824011 -50.05671097 51.55577459
v -32.20771653 -49.35080504 15.56466232
v -34.20870347 -49.35080504 63.52237392
v -33.20462363 -49.35080504 15.59349740
v -33.99712839 -48.35395736 15.86262526
v -34.29118108 -48.35395736 16.67001034
v -34.29476745 -48.35395736 28.63180506
v -34.29835383 -45.36419580 52.55539376
v -34.21228984 -49.35080504 57.53426816
v -34.29476745 -48.35395736 30.62143268
v -33.91824011 -50.05671097 42.47749817
v -33.91465077 -50.05748946 32.61586640
v -33.91465077 -50.05514807 16.67001034
v -33.83934590 -49.98651081 16.01160822
v -33.91824011 -50.05436958 57.53426816
v -33.95409788 -49.35080504 15.89626643
v -34.20512007 -49.35080504 16.67001034
v -34.20870347 -49.35080504 22.64850540
v -34.21228984 -49.35080504 35.60991928
f 1 2 3
f 1 3 4
f 1 4 5
f 1 5 6
f 1 6 7
f 1 7 8
f 1 8 9
f 1 9 10
f 1 10 11
f 1 11 12
f 1 12 13
f 1 13 2
f 2 13 14
f 2 14 15
f 2 15 16
f 2 16 3
f 3 16 17
f 3 17 4
f 4 17 5
f 5 17 18
f 5 18 6
f 6 18 7
f 7 18 19
f 7 19 8
f 8 19 20
f 8 20 9
f 9 20 21
f 9 21 10
f 10 22 23
f 10 23 11
f 10 21 24
f 10 24 22
f 11 25 26
f 11 26 27
f 11 27 12
f 11 23 28
f 11 28 29
f 11 29 25
f 12 27 30
f 12 30 31
f 12 31 13
f 13 31 32
f 13 32 33
f 13 33 34
f 13 34 35
f 13 35 14
f 14 35 60
f 14 60 36
f 14 36 37
f 14 37 38
f 14 38 39
f 14 39 15
f 15 39 16
f 16 40 41
f 16 41 17
f 16 39 42
f 16 42 43
f 16 43 40
f 17 41 44
f 17 44 18
f 18 44 45
f 18 45 19
f 19 45 71
f 19 71 46
f 19 46 24
f 19 24 21
f 19 21 20
f 22 24 23
f 23 24 28
f 24 46 52
f 24 52 28
f 25 47 26
f 25 29 48
f 25 48 47
f 26 49 50
f 26 50 51
f 26 51 27
f 26 47 49
f 27 51 30
f 28 52 82
f 28 82 53
f 28 53 29
f 29 54 48
f 29 53 54
f 30 51 57
f 30 57 31
f 31 55 56
f 31 56 32
f 31 57 55
f 32 56 34
f 32 34 33
f 34 56 58
f 34 58 59
f 34 59 35
f 35 59 60
f 36 61 62
f 36 62 37
f 36 60 85
f 36 85 61
f 37 63 38
f 37 62 63
f 38 63 64
f 38 64 65
f 38 65 39
f 39 65 66
f 39 66 42
f 40 67 68
f 40 68 69
f 40 69 41
f 40 43 67
f 41 69 44
f 42 66 67
f 42 67 43
f 44 69 70
f 44 70 45
f 45 70 72
f 45 72 94
f 45 94 71
f 46 71 52
f 47 73 74
f 47 74 49
f 47 48 73
f 48 54 75
f 48 75 76
f 48 76 101
f 48 101 100
f 48 100 99
f 48 99 96
f 48 96 77
f 48 77 73
f 49 74 78
f 49 78 50
f 50 78 51
f 51 78 79
f 51 79 80
f 51 80 83
f 51 83 57
f 52 71 81
f 52 81 82
f 53 82 54
f 54 82 75
f 55 57 58
f 55 58 56
f 57 83 84
f 57 84 58
f 58 84 85
f 58 85 59
f 59 85 60
f 61 85 112
f 61 112 86
f 61 86 87
f 61 87 62
f 62 87 88
f 62 88 63
f 63 89 64
f 63 88 89
f 64 89 90
f 64 90 91
f 64 91 65
f 65 91 92
f 65 92 66
f 66 92 67
f 67 92 91
f 67 91 68
f 68 91 69
f 69 91 70
f 70 91 93
f 70 93 72
f 71 94 81
f 72 93 94
f 73 77 95
f 73 95 74
f 74 95 77
f 74 77 96
f 74 96 97
f 74 97 124
f 74 124 98
f 74 98 78
f 75 99 100
f 75 100 101
f 75 101 76
f 75 82 102
f 75 102 103
f 75 103 104
f 75 104 105
f 75 105 106
f 75 106 107
f 75 107 97
f 75 97 99
f 78 98 108
f 78 108 79
f 79 108 80
f 80 108 109
f 80 109 112
f 80 112 83
f 81 94 110
f 81 110 111
f 81 111 102
f 81 102 82
f 83 112 84
f 84 112 85
f 86 112 109
f 86 109 113
f 86 113 114
f 86 114 87
f 87 114 131
f 87 131 115
f 87 115 88
f 88 115 116
f 88 116 89
f 89 116 117
f 89 117 90
f 90 117 93
f 90 93 91
f 93 118 94
f 93 117 134
f 93 134 119
f 93 119 118
f 94 118 110
f 96 99 97
f 97 120 121
f 97 121 122
f 97 122 123
f 97 123 124
f 97 107 120
f 98 124 128
f 98 128 108
f 102 111 103
f 103 111 125
f 103 125 126
f 103 126 106
f 103 106 104
f 104 106 105
f 106 126 127
f 106 127 137
f 106 137 120
f 106 120 107
f 108 128 113
f 108 113 109
f 110 118 129
f 110 129 111
f 111 129 125
f 113 128 114
f 114 128 130
f 114 130 131
f 115 131 132
f 115 132 116
f 116 132 133
f 116 133 134
f 116 134 117
f 118 135 129
f 118 119 136
f 118 136 135
f 119 134 133
f 119 133 136
f 120 137 138
f 120 138 121
f 121 138 139
f 121 139 122
f 122 139 140
f 122 140 123
f 123 130 124
f 123 140 130
f 124 130 128
f 125 129 135
f 125 135 141
f 125 141 126
f 126 141 135
f 126 135 127
f 127 135 145
f 127 145 137
f 130 140 142
f 130 142 131
f 131 142 132
f 132 143 144
f 132 144 133
f 132 142 143
f 133 144 145
f 133 145 135
f 133 135 136
f 137 145 139
f 137 139 138
f 139 145 144
f 139 144 143
f 139 143 140
f 140 143 142

