# https://github.com/mikedh/trimesh
v -28.21394941 -0.49473949 50.56335937
v -28.15309401 -0.49473949 48.56991287
v -28.17415763 -1.49447527 49.56766977
v -28.17884041 -2.49077622 50.56335937
v -28.18118180 -3.48707718 52.55474007
v -28.19756560 -1.49447527 53.55249622
v -28.20224839 -0.49473949 54.55025311
v -28.20692820 0.50156147 53.55249622
v -28.21394941 0.50156147 50.56335937
v -28.18586161 0.50156147 49.56766977
v -28.15543243 0.50156147 48.56991287
v -27.93073308 -0.49473949 47.86755914
v -25.70946215 -6.47597929 42.37060494
v -25.70712224 -6.92603317 42.48008953
v -25.70244094 -7.42418216 42.60196820
v -25.58072718 -8.46858119 42.58750832
v -28.14373141 -2.49077622 49.56766977
v -27.93775428 0.50156147 47.86342753
v -28.16713642 -3.48707718 51.56111552
v -27.95647947 -4.22571358 52.55474007
v -27.87689591 -4.15356795 53.36038173
v -25.72818734 -7.46884392 62.02619319
v -28.00095107 -3.56952953 53.63719192
v -28.13670724 -2.49077622 54.55025311
v -28.18820301 -2.49077622 53.55249622
v -28.19054440 -1.49447527 54.55025311
v -28.17649902 0.50156147 55.54594197
v -28.20224839 0.50156147 54.55025311
v -28.20224839 1.49786242 53.55249622
v -28.19522421 2.49416300 52.55474007
v -28.19756560 1.49786242 50.56335937
v -28.17415763 1.49786242 49.56766977
v -28.13202743 2.49416300 49.56766977
v -25.73520855 23.94211474 43.05849879
v -25.70946215 22.42704985 42.37267074
v -25.21090609 -7.47228024 41.81698456
v -25.21090609 22.42704985 41.81698456
v -25.50816780 -8.46858119 42.48008953
v -25.45667351 -8.57851817 42.48008953
v -25.02599554 -9.33089687 42.48008953
v -25.07046713 -9.42709154 42.65980920
v -25.73520855 -8.98390881 43.83521996
v -28.06648925 -3.48707718 50.56335937
v -27.94243707 -4.18792297 51.56111552
v -25.73754994 -8.99421480 44.58095482
v -25.73754994 -8.99421480 47.09290378
v -25.22494850 -7.46884392 62.33812129
v -25.72818734 22.92520032 62.02619319
v -27.94009567 0.50156147 56.26688868
v -27.92137048 -0.49473949 56.24416559
v -28.16245661 -0.49473949 55.54594197
v -28.05244684 -1.49447527 55.54594197
v -25.33261985 -9.49236527 47.09290378
v -24.83406230 -10.00425806 47.09290378
v -28.12032344 1.49786242 55.54594197
v -28.18352319 1.49786242 54.55025311
v -28.19054440 2.49416300 53.55249622
v -28.16713642 3.49389953 52.55474007
v -28.17181920 2.49416300 50.56335937
v -28.15543243 3.49389953 51.56111552
v -25.61115636 23.42678563 42.45943224
v -25.73754994 23.95242073 43.58526447
v -25.38411264 24.45057120 43.58526447
v -24.83406230 24.96246547 43.01718348
v -25.20856469 24.32345709 42.70525612
v -24.92066558 24.03830792 41.98637596
v -25.11259882 23.42678563 41.87689137
v -24.23251619 -7.47228024 41.54637179
v -25.09621353 -8.46858119 41.88515384
v -24.23251619 22.42704985 41.54637179
v -24.89726057 -9.06979749 41.99877004
v -24.79895182 -9.99051575 43.03990731
v -25.40986053 -9.37555863 43.53568668
v -25.33261985 -9.49236527 44.58095482
v -24.52275670 -10.02830635 47.09290378
v -24.23485758 -10.04891981 47.09290378
v -24.23485758 -7.46884392 62.64385123
v -24.23485758 22.43048468 62.64178617
v -25.22963128 22.43048468 62.33398968
v -25.26239888 23.32715613 62.22450434
v -24.95109476 24.06235770 62.15220346
v -25.61583618 23.59169035 61.72665991
v -25.73520855 23.94554957 61.06355421
v -24.83406230 -10.00425806 43.58526447
v -28.11330223 2.49416300 54.55025311
v -25.73989133 23.95585556 60.53059187
v -25.73989133 23.95585556 47.09290378
v -25.38645404 24.45057120 44.58095482
v -24.88789798 24.98307447 43.58526447
v -24.23485758 25.04491634 43.58526447
v -24.23485758 24.98307447 42.98206631
v -24.23251619 24.59486246 42.48008953
v -24.23251619 24.09327715 41.93679743
v -24.23251619 23.42678563 41.66411885
v -4.30194733 -5.47624350 41.54430598
v -6.29383389 -7.47228024 41.54637179
v -24.23251619 -8.46858119 41.68271108
v -4.30194733 22.42704985 41.54637179
v -24.23251619 -9.11789408 41.95332385
v -24.23251619 -9.58512511 42.48008953
v -24.28167057 -9.57825395 42.48008953
v -24.23485758 -10.00425806 43.01718348
v -24.23485758 -10.04204866 43.58526447
v -24.23485758 -9.61604456 42.51933830
v -7.36584828 -10.04891981 47.09290378
v -8.28572120 -7.46884392 62.64798284
v -8.28572120 22.43048468 62.64385123
v -24.23485758 23.42678563 62.52197256
v -24.23485758 24.13450259 62.21624113
v -24.23485758 24.62921823 61.64196421
v -24.83640221 24.96246547 61.10487027
v -25.22728989 24.33719939 61.41679836
v -25.38879543 24.45400604 60.53059187
v -25.38879543 24.45057120 47.09290378
v -25.12898411 24.72884773 47.09290378
v -24.88789798 24.98307447 60.53059187
v -24.23485758 25.04835118 47.09290378
v -7.36584828 25.04491634 43.58526447
v -7.36584828 24.98307447 42.98206631
v -4.30194733 24.59486246 42.48008953
v -4.30194733 24.09327715 41.93679743
v -4.30194733 23.42678563 41.66411885
v -4.30194733 -6.47597929 41.54637179
v -4.30194733 -7.47228024 41.54843685
v -6.29383389 -8.46858119 41.68271108
v -6.29383389 -9.11789408 41.95332385
v -7.29094824 -9.58512511 42.48008953
v -18.25217595 -10.00425806 43.01718348
v -7.36584828 -10.04204866 43.58526447
v -18.25217595 -9.61604456 42.51933830
v -4.30194733 -9.57825395 42.47802372
v -7.36350763 -7.46884392 62.64385123
v -7.36350763 22.43048468 62.64178617
v -7.36350763 23.42678563 62.52197256
v -18.25217595 24.13450259 62.21624113
v -7.36350763 24.62921823 61.64196421
v -7.36350763 24.95902766 61.18130127
v -24.23485758 24.98307447 61.14411830
v -24.23485758 25.04835118 60.53059187
v -18.25217595 25.04835118 47.09290378
v -7.36350763 25.04491634 47.09290378
v -7.36350763 25.04491634 60.53059187
v -7.36350763 25.04147854 60.57810459
v -7.36350763 24.98307447 61.14411830
v -7.36350763 24.13106775 62.21624113
v -7.36350763 24.07953484 62.23896571
v -4.30194733 -9.45113984 42.48008953
v -4.30194733 -8.46858119 41.68477688
v -4.30194733 -9.11445925 41.95538966
v -4.36982616 -9.58168879 42.48008953
v -7.36584828 -10.00425806 43.01924928
v -18.25217595 25.04835118 60.53059187
f 1 2 3
f 1 3 4
f 1 4 5
f 1 5 6
f 1 6 7
f 1 7 8
f 1 8 9
f 1 9 10
f 1 10 11
f 1 11 2
f 2 12 13
f 2 13 14
f 2 14 15
f 2 15 16
f 2 16 17
f 2 17 3
f 2 11 18
f 2 18 12
f 3 17 4
f 4 17 19
f 4 19 5
f 5 19 20
f 5 20 21
f 5 21 22
f 5 22 23
f 5 23 24
f 5 24 25
f 5 25 6
f 6 25 7
f 7 25 26
f 7 26 27
f 7 27 28
f 7 28 8
f 8 28 29
f 8 29 9
f 9 29 30
f 9 30 31
f 9 31 32
f 9 32 10
f 10 32 11
f 11 32 33
f 11 33 34
f 11 34 35
f 11 35 18
f 12 18 13
f 13 36 16
f 13 16 14
f 13 18 35
f 13 35 37
f 13 37 36
f 14 16 15
f 16 36 38
f 16 38 39
f 16 39 40
f 16 40 41
f 16 41 42
f 16 42 17
f 17 43 19
f 17 42 43
f 19 44 20
f 19 43 42
f 19 42 44
f 20 22 21
f 20 44 42
f 20 42 45
f 20 45 46
f 20 46 22
f 22 47 48
f 22 48 49
f 22 49 50
f 22 50 51
f 22 51 52
f 22 52 24
f 22 24 23
f 22 46 53
f 22 53 54
f 22 54 47
f 24 52 51
f 24 51 26
f 24 26 25
f 26 51 27
f 27 49 48
f 27 48 55
f 27 55 56
f 27 56 28
f 27 51 49
f 28 56 57
f 28 57 29
f 29 57 30
f 30 57 58
f 30 58 59
f 30 59 31
f 31 59 32
f 32 59 33
f 33 59 60
f 33 60 34
f 34 61 35
f 34 60 58
f 34 58 62
f 34 62 63
f 34 63 64
f 34 64 65
f 34 65 66
f 34 66 61
f 35 61 67
f 35 67 37
f 36 68 69
f 36 69 38
f 36 37 70
f 36 70 68
f 37 67 70
f 38 69 71
f 38 71 39
f 39 71 40
f 40 71 72
f 40 72 41
f 41 72 73
f 41 73 42
f 42 73 74
f 42 74 45
f 45 74 53
f 45 53 46
f 47 54 75
f 47 75 76
f 47 76 77
f 47 77 78
f 47 78 79
f 47 79 48
f 48 79 80
f 48 80 81
f 48 81 82
f 48 82 83
f 48 83 55
f 49 51 50
f 53 74 84
f 53 84 54
f 54 84 75
f 55 85 57
f 55 57 56
f 55 83 85
f 57 85 83
f 57 83 58
f 58 83 86
f 58 86 87
f 58 87 62
f 58 60 59
f 61 66 67
f 62 87 88
f 62 88 63
f 63 88 89
f 63 89 64
f 64 89 90
f 64 90 91
f 64 91 92
f 64 92 66
f 64 66 65
f 66 92 93
f 66 93 94
f 66 94 67
f 67 94 70
f 68 95 96
f 68 96 125
f 68 125 97
f 68 97 69
f 68 70 95
f 69 97 71
f 70 94 122
f 70 122 98
f 70 98 95
f 71 99 100
f 71 100 101
f 71 101 72
f 71 97 99
f 72 102 103
f 72 103 84
f 72 84 73
f 72 101 100
f 72 100 104
f 72 104 102
f 73 84 74
f 75 84 76
f 76 105 106
f 76 106 77
f 76 84 103
f 76 103 129
f 76 129 105
f 77 106 78
f 78 107 108
f 78 108 80
f 78 80 79
f 78 106 107
f 80 108 81
f 81 109 110
f 81 110 111
f 81 111 112
f 81 112 82
f 81 108 109
f 82 112 83
f 83 112 111
f 83 111 113
f 83 113 86
f 86 113 87
f 87 113 114
f 87 114 88
f 88 114 115
f 88 115 89
f 89 115 116
f 89 116 139
f 89 139 117
f 89 117 90
f 90 117 140
f 90 140 118
f 90 118 119
f 90 119 91
f 91 119 120
f 91 120 92
f 92 120 121
f 92 121 93
f 93 121 122
f 93 122 94
f 95 123 96
f 95 98 122
f 95 122 121
f 95 121 120
f 95 120 147
f 95 147 131
f 95 131 149
f 95 149 148
f 95 148 124
f 95 124 123
f 96 123 124
f 96 124 148
f 96 148 125
f 97 125 126
f 97 126 99
f 99 126 127
f 99 127 100
f 100 127 130
f 100 130 104
f 102 104 130
f 102 130 128
f 102 128 129
f 102 129 103
f 105 129 131
f 105 131 132
f 105 132 106
f 106 132 133
f 106 133 107
f 107 133 134
f 107 134 108
f 108 134 135
f 108 135 109
f 109 135 136
f 109 136 110
f 110 136 137
f 110 137 138
f 110 138 111
f 111 138 139
f 111 139 116
f 111 116 113
f 113 116 115
f 113 115 114
f 117 139 152
f 117 152 140
f 118 140 141
f 118 141 120
f 118 120 119
f 120 141 142
f 120 142 143
f 120 143 144
f 120 144 137
f 120 137 136
f 120 136 145
f 120 145 146
f 120 146 134
f 120 134 133
f 120 133 132
f 120 132 147
f 125 148 126
f 126 148 149
f 126 149 150
f 126 150 127
f 127 150 151
f 127 151 128
f 127 128 130
f 128 151 129
f 129 151 131
f 131 147 132
f 131 151 150
f 131 150 149
f 134 146 135
f 135 146 145
f 135 145 136
f 137 144 138
f 138 144 152
f 138 152 139
f 140 152 142
f 140 142 141
f 142 152 143
f 143 152 144

