# https://github.com/mikedh/trimesh
v -1.62365405 48.35497192 64.63733561
v -27.22537534 48.35497192 64.64214319
v -20.24659333 47.35744382 64.64214319
v -1.62365405 44.36719199 64.63733561
v -1.62365405 49.03298023 64.62772342
v -1.62365405 49.35172451 64.62291882
v -33.20810897 48.35497192 64.64214319
v -31.21279129 44.36719199 64.64214319
v -1.62365405 43.37044237 64.61811124
v -32.21205464 49.35172451 64.62291882
v -1.62365405 50.12402734 64.31534369
v -33.20810897 44.36719199 64.64214319
v -33.20810897 49.35172451 64.61330663
v -34.05957046 48.35497192 64.32976049
v -1.62365405 42.43681525 64.52679992
v -32.21205464 50.12402734 64.31534369
v -1.62365405 50.39835054 63.52237541
v -34.05957046 44.36719199 64.32976049
v -33.95675126 43.37044237 64.25286596
v -33.20810897 43.37044237 64.50757852
v -32.21205464 43.37044237 64.52679992
v -33.20810897 50.10844579 64.30573150
v -33.89570570 50.01180691 64.20000339
v -34.02422673 49.35172451 64.31053611
v -34.42907363 48.35497192 63.52237541
v -32.21205464 42.73685217 64.21442018
v -32.21205464 42.60203196 63.52237541
v -2.50403530 42.43681525 64.31053611
v -1.62365405 42.43681525 39.44980334
v -32.21205464 50.39835054 63.52237541
v -1.62365405 50.39835054 62.52275550
v -34.42907363 44.36719199 63.52237541
v -34.21701125 43.37044237 63.52237541
v -33.80573741 42.80153758 64.12310886
v -33.20810897 42.75166117 64.19519581
v -33.20810897 50.36717555 63.52237541
v -33.99209499 50.09285830 63.52237541
v -34.35517121 49.35172451 63.52237541
v -34.44835148 48.35497192 62.52275550
v -3.33300694 42.43681525 62.52275550
v -3.24625361 42.43681525 63.52237541
v -33.20810897 42.63086555 63.52237541
v -33.20810897 42.63008706 56.54426045
v -33.20810897 42.62852713 40.58879308
v -32.21205464 42.60203196 16.66520128
v -2.49760836 42.43681525 39.32965671
v -3.30087520 42.60281044 16.66520128
v -2.51046076 42.73685217 16.66520128
v -2.01243508 43.36576553 16.66520128
v -1.80358617 43.86608951 16.16539133
v -1.62365405 42.69710793 39.28640391
v -33.20810897 50.36795998 58.53388807
v -32.21205464 50.39835054 16.66520128
v -1.62365405 50.39757205 40.58879308
v -3.30087520 50.39757205 16.66520128
v -26.22932547 50.39835054 16.66520128
v -34.44835148 44.36719199 62.52275550
v -33.85714701 42.76568873 63.52237541
v -34.22665018 43.37044237 62.52275550
v -33.99209499 50.09363678 61.52794318
v -34.36159815 49.35172451 62.52275550
v -34.36481014 49.35172451 60.52832327
v -34.44835148 48.35497192 60.52832327
v -3.33300694 42.43681525 58.50505448
v -33.86035900 42.76412879 46.57209335
v -33.86035900 42.76335031 40.58879308
v -33.20810897 42.62852713 22.64850391
v -33.20810897 42.62930858 16.66520128
v -33.20810897 42.75088269 15.99238087
v -32.21205464 42.73685217 15.97315947
v -30.21674290 42.60203196 16.66520128
v -3.17877963 42.43681525 39.77660207
v -3.31694107 42.43681525 40.57437545
v -3.32658000 42.43681525 41.56438340
v -3.30087520 42.73685217 15.97315947
v -2.60685302 42.78205470 16.03563423
v -2.28554598 43.46785676 15.96354728
v -2.30482532 44.36719199 15.85781620
v -1.80358617 48.86075123 16.16539133
v -1.62365405 45.36472009 38.54630089
v -1.62365405 44.36719199 38.58474778
v -1.62365405 43.60189848 38.77217652
v -33.20810897 50.36795998 45.57727991
v -32.21205464 50.12402734 15.87223597
v -33.20810897 50.10766136 15.88665276
v -33.20810897 50.36561859 16.66520128
v -33.20810897 50.36639707 20.65406871
v -33.20810897 50.36717555 32.62067101
v -1.62365405 50.14351319 39.63242616
v -1.86463470 49.36341364 16.66520128
v -2.36266038 50.12402734 16.66520128
v -2.51046076 50.03284973 15.97315947
v -3.30087520 50.12402734 15.87223597
v -34.22986216 43.37044237 52.55539450
v -34.44835148 44.36719199 26.63737135
v -33.99209499 50.09363678 38.59916541
v -34.36481014 49.35172451 34.61029826
v -34.44835148 47.35744382 51.55577459
v -34.44513653 48.35497192 17.66482118
v -33.86035900 42.76335031 21.65368862
v -33.86035900 42.76412879 16.66520128
v -33.80894940 42.79997764 16.05966321
v -33.20810897 43.37044237 15.68000114
v -32.21205464 43.37044237 15.66077677
v -3.30087520 43.37044237 15.66077677
v -2.30482532 48.35497192 15.85781620
v -3.30087520 44.36719199 15.55024107
v -3.30087520 48.35497192 15.54543646
v -2.22771092 49.25664557 15.92509854
v -1.62365405 49.69696099 39.16625733
v -1.62365405 49.18494787 38.75295307
v -1.62365405 48.99869132 38.70489446
v -1.62365405 48.37991012 38.55110680
v -1.62365405 47.41199409 38.54630089
v -33.99209499 50.09285830 25.63775144
v -32.21205464 49.35172451 15.56466084
v -33.20810897 49.35172451 15.57427005
v -33.89570570 50.01102843 15.98757627
v -33.99209499 50.09207981 16.66520128
v -3.30087520 49.35172451 15.56466084
v -34.22986216 43.37044237 17.66482118
v -34.44513653 44.36719199 17.66482118
v -34.36159815 49.35172451 17.66482118
v -34.35195922 49.35172451 16.66520128
v -34.42907363 48.35497192 16.66520128
v -34.22022324 43.37044237 16.66520128
v -33.95996325 43.37044237 15.93471072
v -33.20810897 44.36719199 15.55024107
v -5.29618991 46.36147268 15.54543646
v -4.29692656 47.35744382 15.54543646
v -5.29618991 48.35497192 15.54543646
v -33.20810897 48.35497192 15.55024107
v -34.05957046 48.35497192 15.85781620
v -34.02422673 49.35172451 15.87704057
v -34.42907363 44.36719199 16.66520128
v -34.05957046 44.36719199 15.85781620
v -6.29224127 47.35744382 15.54543646
f 1 2 3
f 1 3 4
f 1 4 9
f 1 9 15
f 1 15 29
f 1 29 51
f 1 51 82
f 1 82 81
f 1 81 80
f 1 80 114
f 1 114 113
f 1 113 112
f 1 112 111
f 1 111 110
f 1 110 89
f 1 89 54
f 1 54 31
f 1 31 17
f 1 17 11
f 1 11 6
f 1 6 5
f 1 5 2
f 2 5 6
f 2 6 10
f 2 10 7
f 2 7 12
f 2 12 8
f 2 8 3
f 3 8 4
f 4 8 9
f 6 11 16
f 6 16 10
f 7 10 13
f 7 13 14
f 7 14 18
f 7 18 12
f 8 12 9
f 9 12 15
f 10 16 13
f 11 17 30
f 11 30 16
f 12 18 19
f 12 19 20
f 12 20 21
f 12 21 15
f 13 16 22
f 13 22 23
f 13 23 24
f 13 24 14
f 14 24 25
f 14 25 32
f 14 32 18
f 15 21 26
f 15 26 27
f 15 27 28
f 15 28 41
f 15 41 40
f 15 40 64
f 15 64 74
f 15 74 73
f 15 73 72
f 15 72 46
f 15 46 29
f 16 30 22
f 17 31 56
f 17 56 53
f 17 53 30
f 18 32 19
f 19 32 33
f 19 33 34
f 19 34 20
f 20 34 35
f 20 35 26
f 20 26 21
f 22 30 36
f 22 36 23
f 23 36 37
f 23 37 38
f 23 38 24
f 24 38 25
f 25 38 39
f 25 39 57
f 25 57 32
f 26 35 27
f 27 40 41
f 27 41 28
f 27 35 42
f 27 42 43
f 27 43 44
f 27 44 67
f 27 67 45
f 27 45 64
f 27 64 40
f 29 46 47
f 29 47 48
f 29 48 49
f 29 49 50
f 29 50 51
f 30 52 36
f 30 53 83
f 30 83 52
f 31 54 55
f 31 55 56
f 32 57 33
f 33 58 34
f 33 57 59
f 33 59 58
f 34 58 42
f 34 42 35
f 36 60 37
f 36 52 60
f 37 61 38
f 37 60 62
f 37 62 61
f 38 61 39
f 39 61 62
f 39 62 97
f 39 97 63
f 39 63 98
f 39 98 95
f 39 95 57
f 42 58 65
f 42 65 66
f 42 66 43
f 43 66 44
f 44 66 100
f 44 100 67
f 45 67 68
f 45 68 69
f 45 69 70
f 45 70 75
f 45 75 71
f 45 71 46
f 45 46 72
f 45 72 73
f 45 73 74
f 45 74 64
f 46 71 47
f 47 71 75
f 47 75 76
f 47 76 48
f 48 76 49
f 49 76 50
f 50 76 77
f 50 77 78
f 50 78 106
f 50 106 79
f 50 79 114
f 50 114 80
f 50 80 81
f 50 81 82
f 50 82 51
f 52 83 96
f 52 96 60
f 53 56 93
f 53 93 84
f 53 84 85
f 53 85 86
f 53 86 87
f 53 87 88
f 53 88 83
f 54 89 79
f 54 79 90
f 54 90 91
f 54 91 55
f 55 91 92
f 55 92 93
f 55 93 56
f 57 94 59
f 57 95 121
f 57 121 94
f 58 59 94
f 58 94 65
f 60 96 97
f 60 97 62
f 63 97 99
f 63 99 98
f 65 94 66
f 66 94 121
f 66 121 100
f 67 100 68
f 68 101 102
f 68 102 69
f 68 100 101
f 69 102 103
f 69 103 70
f 70 103 104
f 70 104 105
f 70 105 75
f 75 105 76
f 76 105 77
f 77 105 78
f 78 105 107
f 78 107 108
f 78 108 106
f 79 106 109
f 79 109 92
f 79 92 90
f 79 89 110
f 79 110 111
f 79 111 112
f 79 112 113
f 79 113 114
f 83 88 115
f 83 115 96
f 84 93 120
f 84 120 116
f 84 116 117
f 84 117 85
f 85 118 86
f 85 117 118
f 86 118 119
f 86 119 87
f 87 119 115
f 87 115 88
f 90 92 91
f 92 109 120
f 92 120 93
f 95 98 99
f 95 99 122
f 95 122 121
f 96 115 97
f 97 115 119
f 97 119 123
f 97 123 99
f 99 123 124
f 99 124 125
f 99 125 135
f 99 135 122
f 100 121 101
f 101 121 126
f 101 126 102
f 102 126 127
f 102 127 103
f 103 127 128
f 103 128 104
f 104 128 107
f 104 107 105
f 106 108 120
f 106 120 109
f 107 128 129
f 107 129 130
f 107 130 108
f 108 130 129
f 108 129 137
f 108 137 131
f 108 131 116
f 108 116 120
f 116 131 132
f 116 132 117
f 117 132 133
f 117 133 134
f 117 134 118
f 118 124 119
f 118 134 124
f 119 124 123
f 121 122 126
f 122 135 126
f 124 134 125
f 125 134 133
f 125 133 136
f 125 136 135
f 126 135 127
f 127 136 128
f 127 135 136
f 128 132 137
f 128 137 129
f 128 136 133
f 128 133 132
f 131 137 132

