# https://github.com/mikedh/trimesh
v 0.82770619 -22.43609169 36.60840637
v 0.82430107 -23.42638614 36.60840637
v 0.81068504 -22.43609169 35.60959763
v 0.82089743 -21.44020078 36.60840637
v 0.82089743 -20.44151387 37.59995100
v 0.82430107 -24.42227705 37.59995100
v 0.81408867 -24.42227705 36.60840637
v 0.80728140 -23.42638614 35.60959763
v 0.79026026 -22.43609169 34.61078890
v 0.80387628 -20.44151387 36.60840637
v 0.79026026 -19.44562295 37.59995100
v 0.79706901 -19.44562295 39.07455556
v 0.81068504 -24.89504511 39.07455556
v 0.78004786 -19.44562295 36.60840637
v 0.79026026 -25.41816796 39.07455556
v 0.77323911 -25.41816796 36.60840637
v 0.78685662 -24.42227705 35.60959763
v 0.78004786 -23.42638614 34.61078890
v 0.50090966 -22.43609169 33.61561259
v 0.77323911 -21.44020078 34.61078890
v 0.60303357 -18.51127678 39.07455556
v -7.36603101 -8.96359991 64.03750543
v -7.36603101 -8.99996577 64.06292944
v -7.36603101 -9.47273383 64.34985991
v -7.36603101 -10.46862400 64.64042280
v -7.36603101 -34.39516617 64.64042280
v 0.69494510 -19.44562295 35.60959763
v -1.75602739 -12.84365501 28.94845308
v -1.73219897 -12.78211175 29.63127492
v 0.75962308 -25.92450588 39.07455556
v -7.36603101 -35.39105709 64.45518838
v 0.71877351 -25.41816796 35.60959763
v 0.72558227 -24.42227705 34.61078890
v -1.76283615 -31.12775057 28.07676440
v -1.74241136 -30.40321452 28.04770945
v -1.74241136 -14.45778039 28.04770945
v -1.76283615 -13.80037960 28.07676440
v 0.68813634 -20.44151387 34.61078890
v -1.44625201 -12.55831568 39.07455556
v -7.36603101 -7.46976354 62.64280533
v -8.28174113 -7.46976354 62.64643775
v -28.22312481 -8.96359991 64.03750543
v -28.22312481 -9.47273383 64.34985991
v -28.22312481 -10.46862400 64.64042280
v -28.22312481 -34.39516617 64.64042280
v -1.93644680 -13.13458931 28.28742284
v -2.36196213 -12.52474582 28.70510579
v -2.78747893 -11.96245962 29.12279022
v -2.28026299 -12.27857058 29.63127492
v 0.58601242 -26.48119562 39.07455556
v 0.53154683 -26.41405887 37.59995100
v -7.36603101 -35.97012970 64.14646633
v -28.22312481 -35.39105709 64.45518838
v -1.72879385 -32.14602139 29.63127492
v -1.75262375 -32.06489572 28.88670778
v -2.23600979 -31.43826730 27.90969211
v -2.30409141 -30.40321452 27.75714656
v -1.86155494 -31.79354383 28.22204659
v -2.30409141 -14.45778039 27.75714656
v -2.28366663 -13.46468697 27.93148370
v -7.36603101 -7.46976354 47.09044799
v -8.28854989 -7.46976354 62.64643775
v -24.23348632 -7.46976354 62.64280533
v -28.73714951 -8.96639740 64.03387301
v -29.12862254 -9.55945522 64.16099455
v -29.22053406 -10.46862400 64.35349234
v -29.22053406 -34.39516617 64.35349234
v -29.18649474 -35.30713541 64.20457921
v -2.60025077 -12.87162840 28.04770945
v -3.30150215 -12.82687008 28.00412479
v -3.30150215 -12.32892462 28.62157039
v -3.30150215 -11.95966213 29.11915780
v -1.42582722 -32.41177830 39.07455556
v -28.22312481 -35.97012970 64.14646633
v -7.36603101 -36.04845639 63.52175737
v -1.52114238 -32.56283969 39.07455556
v -28.83246318 -35.93935584 64.10288167
v -2.06239914 -32.64676433 29.63127492
v -2.64110033 -32.94609110 29.04288576
v -2.24962582 -32.38100742 28.63246618
v -3.30150215 -31.39910246 27.65908145
v -2.52536039 -32.03412484 28.01138816
v -3.30150215 -30.40321452 27.55012055
v -3.30150215 -14.45778039 27.55012055
v -3.30150215 -13.46189097 27.70992948
v -25.74491879 -7.46976354 47.09044799
v -25.22068318 -7.46976354 62.33771570
v -28.74395678 -8.96359991 63.52175737
v -29.24436396 -9.43916472 63.52175737
v -29.72774852 -9.94829938 64.03750543
v -25.23089557 -7.46976354 62.33408328
v -25.72789912 -7.46976354 62.02535974
v -29.73115364 -10.46862400 64.04477028
v -29.73115364 -34.39516617 64.04477028
v -29.72774852 -34.92108503 64.03750543
v -4.05721764 -12.82687008 28.00412479
v -21.24125709 -12.32892462 28.62157039
v -4.05721764 -11.95966213 29.11915780
v -28.22312481 -36.04566039 63.52175737
v -7.36603101 -36.04845639 63.44548385
v -2.13388588 -33.08316356 39.07455556
v -1.86155494 -32.85657148 39.07455556
v -29.38733745 -35.43581690 63.52175737
v -28.89033241 -35.97012970 63.52175737
v -2.55940120 -32.97126701 29.63127492
v -3.30150215 -32.97126701 28.99930111
v -3.30150215 -32.60480052 28.50171221
v -7.36603101 -36.04566039 50.56267003
v -7.36603101 -35.97012970 49.76725561
v -4.05721764 -31.40190144 27.65544903
v -3.30150215 -32.10405758 27.94964435
v -9.28595914 -30.40321452 27.53559233
v -9.28595914 -14.46057788 27.53559233
v -21.24125709 -13.46189097 27.70992948
v -28.73374439 -8.96639740 50.03239301
v -28.74395678 -8.96359991 50.56267003
v -25.74832391 -7.46976354 49.56386129
v -22.23526270 -11.96245962 29.11915780
v -24.23008269 -11.96525711 29.12642265
v -24.73048987 -11.96805460 29.12642265
v -33.75483294 -13.89269522 34.00060816
v -25.73130276 -7.46976354 61.63673322
v -25.74832391 -7.46976354 58.54224339
v -33.82291455 -13.68288807 37.59995100
v -29.73115364 -9.93711017 63.52175737
v -33.73440815 -13.91787410 41.16660535
v -33.75483294 -15.87328709 44.16303119
v -33.76164021 -18.83578095 46.13885596
v -33.81610728 -22.43329420 46.36767393
v -33.77185557 -26.06437732 46.15338418
v -33.78206499 -29.02407220 44.18482352
v -33.78206499 -31.01585402 41.19929347
v -33.70377098 -31.90544038 37.18226731
v -23.23267344 -12.82966757 28.00412479
v -24.23008269 -12.33172211 28.62883375
v -24.23008269 -12.83246505 28.00412479
v -28.22312481 -36.04566039 50.56267003
v -2.37217452 -33.20065806 39.07455556
v -28.89033241 -35.97012970 51.55784634
v -20.24044420 -32.97126701 28.99930111
v -4.05721764 -32.60480052 28.50171221
v -4.05721764 -32.22434808 28.08039683
v -28.22312481 -35.97012970 49.76725561
v -20.24044420 -31.40190144 27.65544903
v -21.24125709 -32.10405758 27.94964435
v -24.23008269 -31.40190144 27.65908145
v -24.23008269 -30.40321452 27.55012055
v -24.23008269 -14.46057788 27.55012055
v -24.23008269 -13.46189097 27.71356190
v -24.89048302 -12.87722338 28.04770945
v -33.76164021 -15.87328709 31.03323839
v -33.91142393 -16.45235822 31.62162754
v -33.93865598 -15.45646879 34.61442132
v -33.93865598 -14.46057788 37.59995100
v -33.85355173 -14.46057788 40.58911236
v -33.90801881 -16.45235822 43.58553783
v -33.87397651 -19.44562295 45.57589119
v -33.93865598 -22.43329420 45.57589119
v -33.94546325 -25.42096396 44.58071451
v -33.91823120 -28.41143270 43.58553783
v -33.93865598 -29.41011961 40.58911236
v -33.93865598 -30.40321452 37.59995100
v -33.80248977 -31.47743213 37.54547055
v -33.70377098 -31.90544038 37.10236284
v -28.88693026 -35.97012970 50.56267003
v -28.83246318 -35.93935584 49.86895166
v -22.23526270 -32.97126701 29.00293353
v -23.23267344 -32.60200452 28.50534463
v -20.24044420 -32.60200452 28.50171221
v -24.88367426 -32.94329213 29.05014913
v -24.23008269 -32.96567203 29.00656447
v -24.23008269 -32.10126158 27.94964435
v -25.13898405 -31.40190144 27.89516390
v -32.81869803 -22.94242961 28.12398149
v -24.95175737 -32.03412484 28.01138816
v -32.81869803 -22.74381093 28.12398149
v -33.17613174 -22.42210425 28.24383818
v -25.09473085 -13.46189097 27.92058791
v -33.76504533 -18.83298346 29.05014913
v -33.88418890 -19.44282547 29.62764249
v -33.93865598 -19.44282547 30.62645123
v -33.94886837 -19.44562295 44.58071451
v -33.93865598 -15.45646879 40.58911236
v -33.94546325 -27.41274579 42.58672946
v -33.94546325 -29.41011961 34.61442132
v -33.89099915 -30.40321452 34.61442132
v -33.76164021 -30.97389021 33.97518340
v -24.23008269 -32.59640955 28.50897706
v -33.76845045 -29.02127619 31.03323839
v -33.77525772 -26.07276829 29.03925334
v -33.82291455 -22.43329420 28.75958624
v -33.93865598 -22.43329420 29.62764249
v -33.93865598 -25.42096396 30.62645123
v -33.92503847 -28.41143270 31.62162754
f 1 2 8
f 1 8 3
f 1 3 4
f 1 4 5
f 1 5 6
f 1 6 2
f 2 6 7
f 2 7 8
f 3 8 9
f 3 9 4
f 4 9 10
f 4 10 5
f 5 11 12
f 5 12 13
f 5 13 6
f 5 10 14
f 5 14 11
f 6 13 15
f 6 15 16
f 6 16 7
f 7 16 17
f 7 17 18
f 7 18 8
f 8 18 9
f 9 18 19
f 9 19 20
f 9 20 10
f 10 20 14
f 11 21 12
f 11 14 21
f 12 21 22
f 12 22 23
f 12 23 24
f 12 24 25
f 12 25 13
f 13 25 26
f 13 26 15
f 14 20 27
f 14 27 28
f 14 28 29
f 14 29 21
f 15 30 16
f 15 26 31
f 15 31 30
f 16 32 17
f 16 30 32
f 17 32 33
f 17 33 18
f 18 33 34
f 18 34 19
f 19 34 35
f 19 35 36
f 19 36 37
f 19 37 20
f 20 38 27
f 20 37 38
f 21 29 39
f 21 39 40
f 21 40 22
f 22 41 62
f 22 62 42
f 22 42 23
f 22 40 41
f 23 43 24
f 23 42 43
f 24 43 44
f 24 44 25
f 25 44 45
f 25 45 26
f 26 45 53
f 26 53 31
f 27 38 28
f 28 37 46
f 28 46 47
f 28 47 48
f 28 48 49
f 28 49 29
f 28 38 37
f 29 49 39
f 30 50 51
f 30 51 32
f 30 31 52
f 30 52 50
f 31 53 74
f 31 74 52
f 32 51 54
f 32 54 55
f 32 55 33
f 33 55 34
f 34 56 57
f 34 57 35
f 34 55 58
f 34 58 56
f 35 57 59
f 35 59 36
f 36 59 37
f 37 59 60
f 37 60 46
f 39 49 61
f 39 61 40
f 40 61 86
f 40 86 117
f 40 117 123
f 40 123 122
f 40 122 92
f 40 92 91
f 40 91 87
f 40 87 63
f 40 63 62
f 40 62 41
f 42 62 63
f 42 63 64
f 42 64 43
f 43 64 65
f 43 65 44
f 44 66 67
f 44 67 45
f 44 65 66
f 45 67 68
f 45 68 53
f 46 60 69
f 46 69 47
f 47 69 48
f 48 69 70
f 48 70 71
f 48 71 72
f 48 72 61
f 48 61 49
f 50 73 54
f 50 54 51
f 50 52 73
f 52 74 75
f 52 75 76
f 52 76 73
f 53 68 77
f 53 77 74
f 54 73 76
f 54 76 78
f 54 78 55
f 55 79 80
f 55 80 58
f 55 78 79
f 56 81 57
f 56 58 82
f 56 82 81
f 57 81 83
f 57 83 84
f 57 84 59
f 58 80 82
f 59 84 85
f 59 85 60
f 60 85 69
f 61 72 98
f 61 98 86
f 63 87 64
f 64 88 89
f 64 89 90
f 64 90 65
f 64 87 91
f 64 91 92
f 64 92 88
f 65 90 66
f 66 90 93
f 66 93 94
f 66 94 67
f 67 94 95
f 67 95 68
f 68 95 77
f 69 85 70
f 70 96 97
f 70 97 71
f 70 85 114
f 70 114 96
f 71 97 98
f 71 98 72
f 74 77 99
f 74 99 75
f 75 99 137
f 75 137 100
f 75 100 101
f 75 101 102
f 75 102 76
f 76 102 78
f 77 95 103
f 77 103 104
f 77 104 99
f 78 102 101
f 78 101 105
f 78 105 79
f 79 106 107
f 79 107 82
f 79 82 80
f 79 105 108
f 79 108 109
f 79 109 106
f 81 110 83
f 81 82 111
f 81 111 110
f 82 107 111
f 83 112 113
f 83 113 84
f 83 110 112
f 84 113 85
f 85 113 114
f 86 115 116
f 86 116 117
f 86 98 118
f 86 118 119
f 86 119 120
f 86 120 121
f 86 121 115
f 88 92 122
f 88 122 123
f 88 123 117
f 88 117 116
f 88 116 124
f 88 124 89
f 89 125 90
f 89 124 125
f 90 125 124
f 90 124 126
f 90 126 127
f 90 127 128
f 90 128 129
f 90 129 93
f 93 129 94
f 94 129 95
f 95 129 130
f 95 130 131
f 95 131 132
f 95 132 133
f 95 133 103
f 96 114 134
f 96 134 97
f 97 135 118
f 97 118 98
f 97 134 136
f 97 136 135
f 99 104 139
f 99 139 137
f 100 137 108
f 100 108 101
f 101 138 105
f 101 108 138
f 103 133 104
f 104 133 164
f 104 164 139
f 105 138 108
f 106 140 141
f 106 141 107
f 106 109 143
f 106 143 140
f 107 141 142
f 107 142 111
f 108 137 143
f 108 143 109
f 110 144 112
f 110 111 145
f 110 145 144
f 111 142 145
f 112 144 146
f 112 146 147
f 112 147 148
f 112 148 113
f 113 148 114
f 114 149 134
f 114 148 149
f 115 121 124
f 115 124 116
f 118 135 119
f 119 135 120
f 120 135 136
f 120 136 150
f 120 150 151
f 120 151 121
f 121 151 152
f 121 152 153
f 121 153 154
f 121 154 124
f 124 154 155
f 124 155 126
f 126 155 156
f 126 156 127
f 127 156 128
f 128 156 157
f 128 157 129
f 129 157 158
f 129 158 130
f 130 158 159
f 130 159 160
f 130 160 131
f 131 160 132
f 132 160 161
f 132 161 162
f 132 162 163
f 132 163 133
f 133 163 164
f 134 149 136
f 136 149 150
f 137 165 166
f 137 166 143
f 137 139 165
f 139 164 165
f 140 167 168
f 140 168 169
f 140 169 141
f 140 143 167
f 141 169 145
f 141 145 142
f 143 166 170
f 143 170 171
f 143 171 167
f 144 145 172
f 144 172 146
f 145 169 172
f 146 173 174
f 146 174 147
f 146 172 175
f 146 175 173
f 147 174 176
f 147 176 148
f 148 176 177
f 148 177 149
f 149 178 150
f 149 177 178
f 150 178 179
f 150 179 151
f 151 179 152
f 152 179 180
f 152 180 181
f 152 181 153
f 153 181 182
f 153 182 154
f 154 183 155
f 154 182 183
f 155 183 156
f 156 182 157
f 156 183 182
f 157 182 158
f 158 182 159
f 159 182 184
f 159 184 160
f 160 184 161
f 161 184 162
f 162 184 185
f 162 185 186
f 162 186 163
f 163 186 187
f 163 187 164
f 164 187 170
f 164 170 166
f 164 166 165
f 167 171 168
f 168 171 188
f 168 188 172
f 168 172 169
f 170 187 189
f 170 189 175
f 170 175 188
f 170 188 171
f 172 188 175
f 173 175 190
f 173 190 174
f 174 190 177
f 174 177 176
f 175 189 190
f 177 190 191
f 177 191 179
f 177 179 178
f 179 191 180
f 180 191 192
f 180 192 181
f 181 185 182
f 181 192 185
f 182 185 184
f 185 192 193
f 185 193 194
f 185 194 186
f 186 194 187
f 187 194 189
f 189 194 190
f 190 192 191
f 190 194 193
f 190 193 192

