# https://github.com/mikedh/trimesh
v 33.74511598 -38.92182266 44.28777845
v 33.74511598 -44.05236566 46.24828161
v 33.74511598 -38.44510159 44.28853674
v 76.60823581 -38.45387223 44.30673915
v 76.60823581 -38.91430449 44.30673915
v 68.72873860 -44.07303813 46.25510752
v 33.74511598 -44.05236566 50.59400059
v 56.46894689 -44.07303813 46.26193342
v 33.74511598 -37.97652326 44.96352671
v 76.60823581 -37.99218417 44.96352671
v 76.60823581 -38.18951371 44.68215430
v 76.60823581 -44.07303813 46.29075279
v 33.74511598 -38.65871661 50.59400059
v 56.46894689 -44.07303813 52.03574775
v 33.74511598 -37.67583301 46.07763859
v 76.60823581 -37.69525301 46.07763859
v 76.60823581 -44.07303813 52.03574775
v 56.46894689 -37.69462677 52.03574775
v 33.74931194 -37.67458053 50.59400059
v 33.74511598 -37.67458053 50.57731540
v 33.74511598 -37.67458053 47.19326707
v 76.60823581 -37.69462677 47.82957733
v 33.74511598 -37.67395263 48.30586215
v 76.60823581 -37.69525301 52.03574775
v 64.98199235 -37.69462677 52.03574775
v 33.74511598 -37.67395263 49.42073233
v 76.60823581 -37.69462677 50.05780109
f 1 2 7
f 1 7 13
f 1 13 20
f 1 20 26
f 1 26 23
f 1 23 21
f 1 21 15
f 1 15 9
f 1 9 3
f 1 3 4
f 1 4 5
f 1 5 6
f 1 6 2
f 2 6 8
f 2 8 14
f 2 14 7
f 3 9 10
f 3 10 11
f 3 11 4
f 4 11 10
f 4 10 16
f 4 16 22
f 4 22 27
f 4 27 24
f 4 24 17
f 4 17 12
f 4 12 5
f 5 12 6
f 6 12 17
f 6 17 14
f 6 14 8
f 7 14 18
f 7 18 13
f 9 15 10
f 10 15 16
f 13 18 19
f 13 19 20
f 14 17 24
f 14 24 25
f 14 25 18
f 15 21 16
f 16 21 23
f 16 23 22
f 18 25 19
f 19 26 20
f 19 25 24
f 19 24 26
f 22 23 26
f 22 26 27
f 24 27 26

