# https://github.com/mikedh/trimesh
v 33.74544322 -51.42610730 41.47961574
v 33.74544322 -50.32250773 41.47961574
v 37.08520166 -51.42610730 41.48140060
v 33.74544322 -51.42610730 50.59455125
v 33.74544322 -49.18281895 41.48050859
v 37.08520166 -49.17920771 41.48140060
v 37.08520166 -51.42610730 44.74246992
v 34.41149892 -51.42610730 50.59455125
v 33.74544322 -44.05313475 50.59455125
v 33.74544322 -48.09293016 41.50281393
v 37.08520166 -48.09293016 41.50370595
v 37.08520166 -48.63065705 50.59098236
v 37.08520166 -48.60106276 50.59455125
v 33.74544322 -44.05313475 46.24675547
v 37.08520166 -44.05313475 50.59455125
v 33.74544322 -48.06839229 41.50548997
v 37.08520166 -46.97922608 41.77761749
v 33.74544322 -45.87851351 42.73407953
v 37.08520166 -44.05313475 46.26995324
v 33.74544322 -46.97922608 41.77404943
v 33.74544322 -46.95685097 41.78118721
v 37.08520166 -46.96262497 41.78564728
v 37.08520166 -45.89294853 42.73407953
v 37.08520166 -46.32673830 42.11933875
v 33.74544322 -46.32745922 42.09970945
v 37.08520166 -46.33828631 42.10327916
f 1 2 6
f 1 6 3
f 1 3 7
f 1 7 8
f 1 8 4
f 1 4 9
f 1 9 14
f 1 14 18
f 1 18 25
f 1 25 21
f 1 21 20
f 1 20 16
f 1 16 10
f 1 10 5
f 1 5 2
f 2 5 6
f 3 6 11
f 3 11 17
f 3 17 22
f 3 22 26
f 3 26 24
f 3 24 23
f 3 23 19
f 3 19 15
f 3 15 13
f 3 13 12
f 3 12 7
f 4 8 13
f 4 13 15
f 4 15 9
f 5 10 6
f 6 10 11
f 7 12 8
f 8 12 13
f 9 15 19
f 9 19 14
f 10 16 11
f 11 16 17
f 14 19 18
f 16 20 17
f 17 21 22
f 17 20 21
f 18 23 24
f 18 24 25
f 18 19 23
f 21 25 22
f 22 25 26
f 24 26 25

