# https://github.com/mikedh/trimesh
v 56.47366236 -44.22325701 52.03574838
v 56.47366236 -37.69462511 52.03574838
v 65.73330271 -44.22325701 52.03574838
v 56.47366236 -44.22325701 57.75737094
v 56.47366236 -37.69462511 53.47503149
v 64.98433202 -37.69462511 52.03574838
v 65.73330271 -44.22325701 57.75812632
v 76.60717104 -44.21750460 52.03574838
v 63.86876003 -44.22325701 57.75812632
v 56.47366236 -39.17660324 59.75272371
v 56.47366236 -37.69590250 58.33837256
v 65.73330271 -37.69590250 58.33912837
v 76.60717104 -37.69590250 58.33912837
v 76.60717104 -37.69590250 52.03574838
v 76.60717104 -44.21750460 57.74377145
v 68.34878614 -44.21750460 57.75737094
v 76.60717104 -39.17596537 59.75423449
v 65.73330271 -39.17660324 59.75347868
v 56.47366236 -38.80467143 59.63788308
v 65.73330271 -39.17596537 59.75347868
v 56.47366236 -38.15666532 59.43691240
v 65.73330271 -37.84672104 58.69951631
v 76.60717104 -37.95919625 58.96621782
v 76.60717104 -38.15730485 59.43691240
v 65.73330271 -38.15666532 59.43691240
f 1 2 6
f 1 6 14
f 1 14 8
f 1 8 3
f 1 3 7
f 1 7 9
f 1 9 4
f 1 4 10
f 1 10 19
f 1 19 21
f 1 21 11
f 1 11 5
f 1 5 2
f 2 5 6
f 3 8 15
f 3 15 7
f 4 9 10
f 5 11 12
f 5 12 13
f 5 13 6
f 6 13 14
f 7 15 16
f 7 16 17
f 7 17 9
f 8 14 13
f 8 13 23
f 8 23 24
f 8 24 17
f 8 17 15
f 9 17 18
f 9 18 10
f 10 18 20
f 10 20 19
f 11 21 22
f 11 22 12
f 12 22 13
f 13 22 23
f 15 17 16
f 17 24 25
f 17 25 21
f 17 21 19
f 17 19 20
f 17 20 18
f 21 25 22
f 22 25 23
f 23 25 24

