# https://github.com/mikedh/trimesh
v 67.21167956 -45.27266297 45.33702826
v 67.20182338 -45.27266297 45.33702826
v 68.32538862 -45.27810309 45.33702826
v 76.60823581 -45.45400103 42.73353967
v 70.55675105 -45.44493471 42.73353967
v 57.17843514 -45.27810309 45.33702826
v 76.60823581 -45.34217531 45.33702826
v 76.60823581 -45.42498647 43.37035076
v 76.60823581 -45.67100305 42.34813131
v 71.67046095 -45.94180002 41.84645792
v 70.55675105 -45.94240467 41.84570294
v 56.47078615 -45.89404818 42.73353967
v 56.47078615 -45.61962335 43.44207154
v 56.47078615 -45.46246271 43.84786418
v 56.47078615 -45.27870774 45.33702826
v 76.60823581 -51.44662529 45.33702826
v 76.60823581 -45.95509885 41.84910074
v 71.67046095 -46.97905498 41.49879737
v 76.60823581 -46.97905498 41.50408302
v 70.55675105 -46.97905498 41.50370511
v 56.47078615 -46.97905498 41.77888907
v 56.47078615 -46.33953546 42.10390042
v 56.47078615 -46.05604431 42.50440825
v 56.47078615 -49.52988066 45.33702826
v 76.60823581 -51.44662529 41.49426754
v 65.40806046 -51.44662529 45.33702826
v 76.60823581 -48.09368098 41.48332084
v 71.67046095 -48.09368098 41.48105592
v 56.47078615 -49.20770233 41.48105592
v 56.47078615 -48.49866881 41.49540041
v 56.47078615 -48.09368098 41.50370511
v 56.47078615 -51.44662529 44.71380669
v 76.60823581 -51.43755897 41.49389046
v 67.22153490 -51.44662529 41.48105592
v 76.60823581 -49.20770233 41.48105592
v 56.47078615 -51.44662529 41.48105592
v 76.60823581 -50.80045802 41.48634073
v 76.60823581 -50.32232833 41.48105592
f 1 2 6
f 1 6 15
f 1 15 24
f 1 24 26
f 1 26 16
f 1 16 7
f 1 7 3
f 1 3 4
f 1 4 5
f 1 5 2
f 2 5 6
f 3 7 8
f 3 8 4
f 4 8 7
f 4 7 16
f 4 16 25
f 4 25 33
f 4 33 37
f 4 37 38
f 4 38 35
f 4 35 27
f 4 27 19
f 4 19 17
f 4 17 9
f 4 9 10
f 4 10 5
f 5 10 11
f 5 11 12
f 5 12 13
f 5 13 14
f 5 14 15
f 5 15 6
f 9 17 10
f 10 18 11
f 10 17 19
f 10 19 18
f 11 18 20
f 11 20 21
f 11 21 22
f 11 22 23
f 11 23 12
f 12 23 22
f 12 22 21
f 12 21 31
f 12 31 30
f 12 30 29
f 12 29 36
f 12 36 32
f 12 32 24
f 12 24 15
f 12 15 14
f 12 14 13
f 16 26 32
f 16 32 36
f 16 36 34
f 16 34 25
f 18 19 27
f 18 27 28
f 18 28 29
f 18 29 30
f 18 30 31
f 18 31 20
f 20 31 21
f 24 32 26
f 25 34 33
f 27 35 28
f 28 35 38
f 28 38 34
f 28 34 36
f 28 36 29
f 33 34 37
f 34 38 37

