# https://github.com/mikedh/trimesh
v 56.47073365 -18.79457642 6.26830584
v 56.47073365 -19.07895954 6.94499168
v 56.47073365 -22.12946723 6.26830584
v 33.74507083 -18.79457642 6.26830584
v 54.94916496 -19.24710838 7.34454264
v 56.47073365 -19.24710838 7.34440643
v 33.74507083 -19.24710838 7.34495127
v 36.00073070 -19.24710838 7.34495127
v 42.68985259 -19.24710838 7.34481506
v 56.47073365 -21.14212539 7.12029823
v 33.77176482 -22.12979281 6.26830584
v 33.74507083 -22.12881442 6.26830584
v 56.47073365 -20.26579364 7.66080239
v 33.74507083 -20.26579364 7.66066535
v 56.06364708 -20.26579364 7.66080239
v 52.72019908 -21.14212539 7.12029823
v 40.45866248 -21.14212539 7.12002498
v 34.88624776 -21.14212539 7.11988876
v 33.74507083 -21.14212539 7.11975255
f 1 2 6
f 1 6 13
f 1 13 10
f 1 10 3
f 1 3 11
f 1 11 12
f 1 12 4
f 1 4 2
f 2 5 6
f 2 4 7
f 2 7 8
f 2 8 9
f 2 9 5
f 3 10 11
f 4 12 19
f 4 19 14
f 4 14 7
f 5 13 6
f 5 9 13
f 7 14 15
f 7 15 13
f 7 13 8
f 8 13 9
f 10 13 15
f 10 15 16
f 10 16 11
f 11 16 17
f 11 17 18
f 11 18 19
f 11 19 12
f 14 19 18
f 14 18 17
f 14 17 16
f 14 16 15

