# https://github.com/mikedh/trimesh
v 96.22803970 -69.66464597 46.36476674
v 96.22803970 -69.64653658 43.84831102
v 97.75596571 -73.30429401 42.73345579
v 97.75596571 -73.30429401 46.36476674
v 96.22803970 -53.06190227 46.36476674
v 96.22803970 -69.59623827 42.73345579
v 97.79396519 -73.26204210 42.06118672
v 98.42572070 -73.44714256 42.73345579
v 98.42572070 -73.52761987 46.07706219
v 97.92855140 -73.36263873 46.36476674
v 105.80251047 -53.06190227 46.36476674
v 96.22803970 -53.06190227 41.55242870
v 96.22803970 -69.15561969 41.88712514
v 98.42572070 -72.61620041 41.73560062
v 98.42572070 -73.30831722 41.99693261
v 96.22803970 -69.13348710 41.84588733
v 96.22803970 -68.19188532 41.50831386
v 96.22803970 -68.15768313 41.49920351
v 104.00066793 -73.61413697 42.73345579
v 98.71388620 -73.55176572 46.36476674
v 98.42572070 -73.52761987 46.36476674
v 111.76537933 -53.06190227 44.56661351
v 105.80251047 -54.29322435 46.36476674
v 96.22803970 -54.78213463 41.47906425
v 105.11375906 -53.06190227 41.48098200
v 99.54039320 -70.38694177 41.48098200
v 104.00066793 -72.61620041 41.54811315
v 104.00066793 -73.39483099 41.89575625
v 96.22803970 -67.07524606 41.48146206
v 104.00066793 -73.61614690 43.84831102
v 104.85883895 -73.32240008 41.98830150
v 105.00925883 -73.39684425 42.73345579
v 104.00066793 -73.61413697 46.36476674
v 112.28313306 -53.06190227 44.17101966
v 105.80092910 -68.78742870 46.36476674
v 105.79934440 -69.90407128 46.36476674
v 105.78351073 -71.03278346 46.36476674
v 105.74392987 -71.50157109 46.36476674
v 105.57451026 -72.65643906 46.36476674
v 96.22803970 -54.81432355 41.47858503
v 110.68712493 -53.06190227 41.48098200
v 96.22803970 -55.89676394 41.46803534
v 104.00066793 -71.50157109 41.48098200
v 96.22803970 -67.04305381 41.48098200
v 96.22803970 -58.12803252 41.46611759
v 105.18342589 -72.66649872 41.84636739
v 105.11375906 -70.38694177 41.48865466
v 105.11375906 -71.50157109 41.56489614
v 105.01084020 -73.39684425 43.84831102
v 105.01084020 -73.39684425 44.96268660
v 105.76134492 -72.32647678 42.04584224
v 105.56659342 -73.01859359 42.73345579
v 105.00925883 -73.39483099 46.36476674
v 112.29896673 -53.06190227 44.14464668
v 105.47317609 -72.80532407 46.36476674
v 105.56817812 -73.01859359 44.96268660
v 105.80726124 -72.46127893 44.96268660
v 105.76134492 -72.32647678 45.85792730
v 111.82079717 -53.06190227 41.78786735
v 110.68712493 -53.66750531 41.48098200
v 100.65506571 -58.12803252 41.46755611
v 99.54039320 -58.12803252 41.46611759
v 99.54039320 -55.89676394 41.46803534
v 105.11375906 -69.27231245 41.48098200
v 105.90226326 -71.50157109 41.91253924
v 106.22843157 -68.15768313 41.55674426
v 107.34310408 -63.69916585 41.48433910
v 110.68712493 -54.78213463 41.52989163
v 109.57244910 -58.12803252 41.53516648
v 108.45777659 -61.47192048 41.54139978
v 107.02801868 -68.15768313 41.90438736
v 111.52946228 -54.78213463 41.87753473
v 110.40528824 -58.12803252 41.88233035
v 109.27953282 -61.47192048 41.88904288
v 105.56817812 -73.01859359 43.84831102
v 105.80726124 -72.45926567 42.73345579
v 106.88393426 -69.00472141 42.03817042
v 112.36863356 -53.13835638 42.15996527
v 111.24604421 -56.46011174 42.17291194
v 112.38763330 -53.06190227 43.47285683
v 106.13342955 -71.50157109 42.73345579
v 111.24762559 -56.46212501 42.73345579
v 112.37338432 -53.15042930 42.73345579
v 112.40346697 -53.06190227 42.73345579
v 111.24604421 -56.46011174 43.31461896
v 112.36863356 -53.13835638 43.41531609
v 112.38130116 -53.06190227 42.14414156
v 109.57244910 -57.01138994 41.48098200
v 108.45777659 -60.35729116 41.48242052
v 110.25012092 -59.03945199 42.01659264
v 108.00652361 -65.68095278 42.03049777
v 111.34104292 -55.89676394 42.04919851
v 112.39396876 -53.06190227 43.32852492
f 1 2 3
f 1 3 4
f 1 4 10
f 1 10 21
f 1 21 20
f 1 20 33
f 1 33 53
f 1 53 55
f 1 55 39
f 1 39 38
f 1 38 37
f 1 37 36
f 1 36 35
f 1 35 23
f 1 23 11
f 1 11 5
f 1 5 12
f 1 12 24
f 1 24 40
f 1 40 42
f 1 42 45
f 1 45 44
f 1 44 29
f 1 29 18
f 1 18 17
f 1 17 16
f 1 16 13
f 1 13 6
f 1 6 2
f 2 6 3
f 3 7 8
f 3 8 9
f 3 9 10
f 3 10 4
f 3 6 7
f 5 11 22
f 5 22 34
f 5 34 54
f 5 54 80
f 5 80 93
f 5 93 84
f 5 84 87
f 5 87 59
f 5 59 41
f 5 41 25
f 5 25 12
f 6 13 7
f 7 14 15
f 7 15 8
f 7 13 16
f 7 16 17
f 7 17 18
f 7 18 14
f 8 19 20
f 8 20 9
f 8 15 19
f 9 20 21
f 9 21 10
f 11 23 22
f 12 25 24
f 14 26 27
f 14 27 15
f 14 18 26
f 15 27 28
f 15 28 19
f 18 29 26
f 19 30 20
f 19 28 31
f 19 31 32
f 19 32 30
f 20 30 33
f 22 23 35
f 22 35 36
f 22 36 37
f 22 37 38
f 22 38 39
f 22 39 34
f 24 25 40
f 25 41 63
f 25 63 42
f 25 42 40
f 26 43 27
f 26 29 44
f 26 44 45
f 26 45 43
f 27 46 31
f 27 31 28
f 27 43 47
f 27 47 48
f 27 48 46
f 30 32 49
f 30 49 50
f 30 50 33
f 31 46 51
f 31 51 52
f 31 52 32
f 32 52 75
f 32 75 49
f 33 50 53
f 34 39 54
f 39 55 56
f 39 56 57
f 39 57 58
f 39 58 54
f 41 59 60
f 41 60 61
f 41 61 62
f 41 62 63
f 42 63 62
f 42 62 45
f 43 45 62
f 43 62 61
f 43 61 64
f 43 64 47
f 46 48 65
f 46 65 51
f 47 66 48
f 47 64 67
f 47 67 68
f 47 68 69
f 47 69 70
f 47 70 66
f 48 71 65
f 48 66 72
f 48 72 73
f 48 73 74
f 48 74 71
f 49 75 56
f 49 56 50
f 50 56 53
f 51 76 52
f 51 65 77
f 51 77 78
f 51 78 79
f 51 79 76
f 52 76 75
f 53 56 55
f 54 58 80
f 56 75 57
f 57 75 76
f 57 76 81
f 57 81 82
f 57 82 83
f 57 83 84
f 57 84 85
f 57 85 86
f 57 86 58
f 58 86 80
f 59 87 72
f 59 72 68
f 59 68 60
f 60 68 88
f 60 88 61
f 61 88 64
f 64 88 89
f 64 89 67
f 65 71 90
f 65 90 91
f 65 91 77
f 66 70 72
f 67 89 68
f 68 72 69
f 68 89 88
f 69 72 70
f 71 74 90
f 72 87 92
f 72 92 90
f 72 90 73
f 73 90 74
f 76 79 81
f 77 91 78
f 78 90 87
f 78 87 84
f 78 84 79
f 78 91 90
f 79 84 83
f 79 83 82
f 79 82 81
f 80 86 93
f 84 93 86
f 84 86 85
f 87 90 92

