# https://github.com/mikedh/trimesh
v 76.60823747 -38.91430283 44.30559465
v 76.60823747 -39.47136334 44.52940638
v 76.60823747 -38.45331576 44.30559465
v 112.91710448 -38.91347892 44.30710709
v 112.91710448 -39.47095138 44.52940638
v 97.31056647 -39.47136334 44.52940638
v 95.08367989 -41.90701119 45.94788870
v 93.96840274 -41.90701119 45.94940031
v 90.62257461 -41.90701119 45.95545006
v 90.23369287 -41.90701119 45.96149898
v 89.51096518 -41.90701119 45.97359682
v 76.60823747 -41.90701119 46.26697156
v 76.60823747 -37.99150312 44.96341957
v 95.08367989 -37.99150312 44.96341957
v 111.80183066 -37.99191507 44.96341957
v 106.22544490 -38.45331576 44.30710709
v 112.91710448 -38.45372771 44.30710709
v 113.56646440 -38.81493043 44.34037657
v 113.63983217 -41.90701119 46.45600137
v 113.21793759 -41.90701119 46.30780157
v 112.91710448 -41.90701119 46.27150804
v 97.31056647 -41.90701119 45.95393762
v 96.91434928 -41.90701119 45.95242518
v 95.80641090 -41.90701119 45.94940031
v 76.60823747 -41.90701119 57.74941797
v 76.60823747 -37.82203533 45.60007284
v 111.80183066 -37.69503706 46.07794091
v 112.91710448 -38.01047130 44.96341957
v 113.56646440 -38.50856750 44.34037657
v 113.77557783 -39.18231911 44.90141792
v 113.67652270 -40.02182759 45.23108618
v 113.77924555 -41.90701119 46.74332719
v 76.60823747 -40.05192685 59.21326761
v 111.80183066 -41.90701119 57.74941797
v 76.60823747 -37.69503706 46.07794091
v 111.80183066 -37.69503706 58.33919149
v 112.91710448 -37.73173424 46.07794091
v 113.69853569 -38.32343049 44.96341957
v 114.08741411 -39.17572119 46.07794091
v 113.94800073 -41.90701119 47.19246309
v 76.60823747 -39.67670605 59.44463987
v 112.91710448 -40.05192685 59.21326761
v 111.80183066 -39.17572119 59.75464976
v 112.91710448 -41.90701119 57.73429525
v 76.60823747 -37.69503706 58.33919149
v 111.80183066 -38.15643609 59.43707851
v 112.91710448 -38.17499065 59.43405447
v 112.91710448 -37.73173424 58.33919149
v 76.60823747 -37.95851686 58.96677180
v 113.77924555 -38.19354688 46.07794091
v 114.08741411 -41.90701119 48.30698464
v 114.03238496 -41.90701119 47.69452705
v 114.08741411 -39.17572119 57.22467014
v 76.60823747 -39.17572119 59.75313733
v 113.64717426 -39.94554624 59.10741025
v 112.91710448 -39.17572119 59.75011245
v 76.60823747 -38.15643609 59.43707851
v 76.60823747 -38.73906103 59.61854780
v 113.45273173 -41.90701119 57.46360376
v 113.67652270 -38.33497684 59.25258518
v 113.77924555 -38.19354688 58.33919149
v 114.08741411 -41.90701119 56.11014797
v 114.06173339 -39.17572119 58.33919149
v 113.80492626 -41.90701119 57.25037826
v 113.75723256 -39.17572119 59.32063658
f 1 2 12
f 1 12 25
f 1 25 33
f 1 33 41
f 1 41 54
f 1 54 58
f 1 58 57
f 1 57 49
f 1 49 45
f 1 45 35
f 1 35 26
f 1 26 13
f 1 13 3
f 1 3 17
f 1 17 4
f 1 4 5
f 1 5 6
f 1 6 2
f 2 7 8
f 2 8 9
f 2 9 10
f 2 10 11
f 2 11 12
f 2 6 7
f 3 13 14
f 3 14 15
f 3 15 16
f 3 16 17
f 4 17 29
f 4 29 18
f 4 18 5
f 5 18 19
f 5 19 20
f 5 20 21
f 5 21 22
f 5 22 23
f 5 23 24
f 5 24 7
f 5 7 6
f 7 24 23
f 7 23 22
f 7 22 21
f 7 21 20
f 7 20 19
f 7 19 32
f 7 32 40
f 7 40 52
f 7 52 51
f 7 51 62
f 7 62 64
f 7 64 59
f 7 59 44
f 7 44 34
f 7 34 25
f 7 25 12
f 7 12 11
f 7 11 10
f 7 10 9
f 7 9 8
f 13 26 14
f 14 26 27
f 14 27 15
f 15 27 28
f 15 28 17
f 15 17 16
f 17 28 29
f 18 29 30
f 18 30 31
f 18 31 19
f 19 31 32
f 25 34 42
f 25 42 33
f 26 35 27
f 27 36 48
f 27 48 37
f 27 37 28
f 27 35 45
f 27 45 36
f 28 37 38
f 28 38 29
f 29 38 39
f 29 39 30
f 30 39 40
f 30 40 32
f 30 32 31
f 33 42 43
f 33 43 41
f 34 44 42
f 36 46 47
f 36 47 48
f 36 45 49
f 36 49 46
f 37 48 61
f 37 61 50
f 37 50 38
f 38 50 39
f 39 51 52
f 39 52 40
f 39 50 61
f 39 61 53
f 39 53 62
f 39 62 51
f 41 43 54
f 42 44 55
f 42 55 56
f 42 56 43
f 43 56 46
f 43 46 57
f 43 57 58
f 43 58 54
f 44 59 55
f 46 56 47
f 46 49 57
f 47 56 60
f 47 60 48
f 48 60 61
f 53 63 62
f 53 61 63
f 55 59 64
f 55 64 65
f 55 65 56
f 56 65 60
f 60 65 63
f 60 63 61
f 62 63 64
f 63 65 64

