# https://github.com/mikedh/trimesh
v 64.15876989 -54.70926967 -9.35893842
v 67.21262845 -54.70926967 -9.35893842
v 68.32766371 -54.70926967 -0.05781690
v 64.15876989 -54.70275481 -9.06821403
v 64.15876989 -54.48784416 -10.19903977
v 67.21262845 -54.48784416 -10.19903977
v 73.90040650 -54.46613349 -10.18145197
v 73.90040650 -54.67887806 -9.35893842
v 73.90040650 -54.70058540 -8.24466643
v 73.90040650 -54.70926967 -7.12935958
v 73.90040650 -54.70926967 -0.05781690
v 67.21262845 -54.63329065 -0.05781690
v 64.15876989 -54.65716740 -8.24466643
v 64.15876989 -53.70634000 -10.54770273
v 67.21262845 -53.70634000 -10.54770273
v 73.90040650 -53.70634000 -10.52908006
v 74.82168115 -54.40751968 -10.09971722
v 75.00447430 -54.48349870 -9.35893842
v 75.00447430 -54.48784416 -8.24466643
v 74.28061553 -54.63329065 -0.05781690
v 66.52532731 -54.41186182 -0.05781690
v 64.15876989 -54.59855359 -8.02532976
v 64.15876989 -52.59269426 -10.61288289
v 73.90040650 -52.59269426 -10.61288289
v 75.12268031 -53.73455888 -10.17110577
v 76.60695881 -49.24742485 -10.58494889
v 75.57722553 -53.38071327 -9.92590401
v 75.56138355 -54.05367407 -9.35893842
v 75.37006061 -54.20346270 -0.05781690
v 75.00447430 -54.48784416 -0.05781690
v 66.37909345 -53.70634000 -0.05781690
v 64.15876989 -54.43357248 -7.50285276
v 64.15876989 -32.53627364 -10.61288289
v 70.55651747 -39.21813150 -10.62736774
v 76.60695881 -48.13378575 -10.61288289
v 76.60695881 -48.61137052 -10.60460642
v 76.60695881 -39.21813150 -10.62633287
v 76.60695881 -50.32633686 -10.23525189
v 75.56138355 -54.05367407 -0.05781690
v 76.60695881 -50.52171290 -9.85555033
v 76.60695881 -50.77135729 -9.35893842
v 76.60695881 -50.78004156 -9.18305546
v 76.60695881 -50.81694470 -8.24466643
v 64.15876989 -53.70634000 -7.28972364
v 64.15876989 -54.23602371 -7.41491128
v 66.37299968 -53.32427219 -0.05781690
v 64.15876989 -32.53627364 -7.25247790
v 67.21872139 -32.53627364 -10.61288289
v 70.55651747 -36.98867393 -10.62529800
v 76.60695881 -36.98867393 -10.62529800
v 76.60695881 -50.81694470 -0.05781690
v 64.15876989 -53.41761642 -7.27523921
v 66.36203223 -52.59269426 -0.05781690
v 66.35593929 -32.53627364 -0.05781690
v 64.15876989 -52.59269426 -7.26075478
v 76.60695881 -32.53627364 -10.59943291
v 76.60695881 -32.53627364 -0.05781690
f 1 2 10
f 1 10 11
f 1 11 3
f 1 3 4
f 1 4 13
f 1 13 22
f 1 22 32
f 1 32 45
f 1 45 44
f 1 44 52
f 1 52 55
f 1 55 47
f 1 47 33
f 1 33 23
f 1 23 14
f 1 14 5
f 1 5 6
f 1 6 2
f 2 6 7
f 2 7 8
f 2 8 9
f 2 9 10
f 3 11 20
f 3 20 30
f 3 30 29
f 3 29 39
f 3 39 51
f 3 51 57
f 3 57 54
f 3 54 53
f 3 53 46
f 3 46 31
f 3 31 21
f 3 21 12
f 3 12 4
f 4 12 13
f 5 14 15
f 5 15 6
f 6 15 16
f 6 16 7
f 7 16 17
f 7 17 8
f 8 17 18
f 8 18 9
f 9 18 10
f 10 18 19
f 10 19 20
f 10 20 11
f 12 21 13
f 13 21 22
f 14 23 24
f 14 24 15
f 15 24 16
f 16 25 17
f 16 24 26
f 16 26 25
f 17 25 27
f 17 27 28
f 17 28 18
f 18 28 19
f 19 28 29
f 19 29 30
f 19 30 20
f 21 31 32
f 21 32 22
f 23 33 34
f 23 34 24
f 24 35 36
f 24 36 26
f 24 34 37
f 24 37 35
f 25 26 38
f 25 38 27
f 26 36 35
f 26 35 37
f 26 37 50
f 26 50 56
f 26 56 57
f 26 57 51
f 26 51 43
f 26 43 42
f 26 42 41
f 26 41 40
f 26 40 38
f 27 38 28
f 28 39 29
f 28 38 40
f 28 40 41
f 28 41 42
f 28 42 43
f 28 43 51
f 28 51 39
f 31 44 45
f 31 45 32
f 31 46 44
f 33 47 54
f 33 54 57
f 33 57 56
f 33 56 48
f 33 48 50
f 33 50 49
f 33 49 34
f 34 49 50
f 34 50 37
f 44 46 52
f 46 53 52
f 47 55 54
f 48 56 50
f 52 53 55
f 53 54 55

