# https://github.com/mikedh/trimesh
v 33.74507083 -52.59234542 10.61310795
v 32.65510084 -52.59234542 10.61310795
v 33.74507083 -53.70719049 10.58647211
v 33.74507083 -30.30106531 10.61218936
v 31.78307468 -48.13295520 10.38073242
v 31.78307468 -52.59234542 10.38073242
v 31.79803627 -53.70719049 10.36787380
v 32.65510084 -53.70719049 10.58647211
v 32.65510084 -30.30106531 10.61218936
v 33.74507083 -53.72421351 10.58187915
v 33.74507083 -29.20891096 10.58647211
v 31.78332385 -30.30106531 10.37981383
v 31.78307468 -32.53076209 10.37981383
v 31.39905341 -30.30106531 9.59084217
v 31.39905341 -52.59234542 9.59084217
v 31.45216895 -53.70719049 9.59084217
v 31.90800651 -54.39936033 10.28612991
v 32.65510084 -54.46744577 10.35409658
v 32.65510084 -29.18622025 10.58555352
v 31.79579211 -29.18622025 10.36695521
v 33.74507083 -54.46744577 10.35409658
v 33.74507083 -29.18622025 10.58555352
v 31.41177084 -29.18622025 9.59084217
v 31.33471875 -28.07137186 8.47581023
v 31.32997961 -29.18622025 8.47581023
v 31.32997961 -52.59234542 8.47581023
v 31.40603670 -53.70719049 8.47581023
v 31.80152791 -54.47879113 9.59084217
v 32.65510084 -54.69154898 9.59084217
v 33.74507083 -54.47312011 10.33756442
v 33.74507083 -28.13661681 10.35317799
v 32.65510084 -28.13945398 10.35317799
v 31.90501319 -28.30114942 10.28429273
v 31.67884024 -27.98626839 9.68636328
v 31.84815850 -27.24870881 9.37775542
v 31.71873836 -27.06431933 8.47581023
v 31.32997961 -25.73104206 4.01751966
v 31.19756782 -25.73104206 1.23085799
v 31.19756782 -51.47749704 1.23085799
v 31.20180696 -52.59234542 1.23085799
v 31.30030560 -53.73839604 1.23085799
v 31.79005631 -54.48729931 8.47581023
v 32.65510084 -54.71140585 8.47581023
v 33.74507083 -54.69154898 9.59084217
v 33.74507083 -27.59195822 10.11345539
v 32.65510084 -27.58061120 10.10794549
v 32.65510084 -27.11538174 9.55042911
v 32.65510084 -26.61043855 8.47581023
v 32.23841390 -25.73104206 5.85080081
v 31.66587364 -25.73104206 5.22531776
v 33.74507083 -25.73104206 1.23085799
v 31.75788898 -54.48729931 1.23085799
v 33.74507083 -54.71140585 8.47581023
v 32.19003750 -54.59793566 1.23085799
v 32.65510084 -54.71140585 1.23085799
v 33.74507083 -27.58061120 10.10794549
v 33.74507083 -27.12389326 9.56328774
v 33.74507083 -27.11538174 9.55042911
v 33.74507083 -26.61327572 8.49969030
v 33.74507083 -26.60192704 8.47581023
v 33.74507083 -25.73104206 6.06664335
v 32.65510084 -25.73104206 6.04000750
v 33.74507083 -54.52701637 1.23085799
v 33.74507083 -54.71140585 7.33597963
v 33.21217952 -54.61779253 1.23085799
f 1 2 8
f 1 8 3
f 1 3 10
f 1 10 21
f 1 21 30
f 1 30 44
f 1 44 53
f 1 53 64
f 1 64 63
f 1 63 51
f 1 51 61
f 1 61 60
f 1 60 59
f 1 59 58
f 1 58 57
f 1 57 56
f 1 56 45
f 1 45 31
f 1 31 22
f 1 22 11
f 1 11 4
f 1 4 9
f 1 9 2
f 2 5 6
f 2 6 7
f 2 7 8
f 2 9 5
f 3 8 10
f 4 11 9
f 5 9 12
f 5 12 13
f 5 13 14
f 5 14 15
f 5 15 6
f 6 15 7
f 7 16 17
f 7 17 8
f 7 15 16
f 8 17 18
f 8 18 10
f 9 11 19
f 9 19 20
f 9 20 12
f 10 18 21
f 11 22 19
f 12 20 23
f 12 23 14
f 12 14 13
f 14 23 24
f 14 24 25
f 14 25 26
f 14 26 15
f 15 26 16
f 16 27 28
f 16 28 17
f 16 26 27
f 17 28 29
f 17 29 18
f 18 30 21
f 18 29 30
f 19 22 31
f 19 31 32
f 19 32 33
f 19 33 20
f 20 33 23
f 23 33 34
f 23 34 24
f 24 34 35
f 24 35 36
f 24 36 37
f 24 37 38
f 24 38 25
f 25 38 39
f 25 39 26
f 26 39 40
f 26 40 27
f 27 41 28
f 27 40 41
f 28 41 42
f 28 42 43
f 28 43 29
f 29 43 53
f 29 53 44
f 29 44 30
f 31 45 46
f 31 46 32
f 32 46 33
f 33 46 35
f 33 35 34
f 35 46 47
f 35 47 48
f 35 48 49
f 35 49 50
f 35 50 37
f 35 37 36
f 37 50 49
f 37 49 62
f 37 62 61
f 37 61 51
f 37 51 38
f 38 51 63
f 38 63 65
f 38 65 55
f 38 55 54
f 38 54 52
f 38 52 41
f 38 41 40
f 38 40 39
f 41 52 42
f 42 52 43
f 43 52 54
f 43 54 55
f 43 55 64
f 43 64 53
f 45 56 46
f 46 56 57
f 46 57 47
f 47 57 58
f 47 58 59
f 47 59 60
f 47 60 48
f 48 60 61
f 48 61 62
f 48 62 49
f 55 65 64
f 63 64 65

