# https://github.com/mikedh/trimesh
v 66.27681081 -32.54426356 5.12336070
v 76.60817640 -32.54426356 5.12336070
v 66.35569178 -32.54426356 -0.05730985
v 66.36175980 -52.59154477 -0.05730985
v 66.28692363 -52.60022239 5.12336070
v 76.60817640 -32.54426356 -0.05730985
v 76.60817640 -50.81660583 5.12336070
v 66.37288424 -53.32278384 -0.05730985
v 66.37895226 -53.70685162 -0.05730985
v 66.31321729 -53.71335984 5.12336070
v 76.60817640 -50.81660583 -0.05730985
v 75.56249982 -54.05402623 5.12336070
v 66.47502485 -54.16902796 -0.05730985
v 66.52558977 -54.41205118 -0.05730985
v 66.49727288 -54.42724034 5.12336070
v 75.56249982 -54.05402623 -0.05730985
v 75.00426666 -54.48799698 5.12336070
v 75.37035463 -54.20374509 -0.05730985
v 67.21326798 -54.63337703 -0.05730985
v 67.21326798 -54.65073559 5.12336070
v 74.99617541 -54.49016638 5.12336070
v 75.00426666 -54.48799698 -0.05730985
v 68.32771271 -54.70932282 -0.05730985
v 68.31861068 -54.70932282 5.12336070
v 73.90094636 -54.70932282 5.12336070
v 74.28119193 -54.63337703 -0.05730985
v 69.44215745 -54.71149223 4.01723810
v 73.90094636 -54.70932282 -0.05730985
f 1 2 6
f 1 6 3
f 1 3 4
f 1 4 5
f 1 5 10
f 1 10 15
f 1 15 20
f 1 20 24
f 1 24 25
f 1 25 21
f 1 21 17
f 1 17 12
f 1 12 7
f 1 7 2
f 2 7 11
f 2 11 6
f 3 6 11
f 3 11 16
f 3 16 18
f 3 18 22
f 3 22 26
f 3 26 28
f 3 28 23
f 3 23 19
f 3 19 14
f 3 14 13
f 3 13 9
f 3 9 8
f 3 8 4
f 4 8 5
f 5 8 9
f 5 9 10
f 7 12 16
f 7 16 11
f 9 13 10
f 10 13 14
f 10 14 15
f 12 17 18
f 12 18 16
f 14 19 15
f 15 19 20
f 17 21 22
f 17 22 18
f 19 23 20
f 20 23 24
f 21 25 26
f 21 26 22
f 23 27 24
f 23 28 27
f 24 27 25
f 25 27 28
f 25 28 26

