# https://github.com/mikedh/trimesh
v 107.27582593 -53.06190227 41.48158665
v 107.27582593 -49.20760599 41.48158665
v 110.68761994 -53.06190227 41.48158665
v 107.27582593 -53.06190227 44.93787589
v 107.27582593 -49.14017501 41.48247866
v 111.80243862 -49.20760599 41.48158665
v 111.80243862 -50.32227185 41.48158665
v 111.80243862 -51.43693772 41.52530366
v 111.80243862 -52.55160358 41.68767935
v 111.82177391 -53.06190227 41.78760241
v 110.68761994 -53.06190227 44.70858666
v 112.91725731 -48.61156096 50.59516378
v 107.27582593 -48.86046787 50.59337934
v 107.27582593 -48.09377068 41.50210630
v 108.45865365 -48.09377068 41.50121428
v 111.80243862 -48.09377068 41.50121428
v 112.91725731 -48.09377068 41.54582331
v 112.91725731 -49.20760599 41.67340463
v 112.65322104 -51.43693772 41.87325240
v 112.46786144 -52.55160358 42.03473525
v 112.38118488 -53.06190227 42.14447296
v 111.37971349 -53.06190227 44.63096770
v 112.96259556 -48.58325902 50.59516378
v 107.29982892 -48.84548468 50.59516378
v 111.76576802 -53.06190227 44.56762305
v 112.28316961 -53.06190227 44.17149681
v 107.27582593 -48.79636907 50.59516378
v 107.27582593 -48.02634303 41.51816588
v 107.27582593 -46.97910482 41.77065164
v 108.45865365 -46.97910482 41.77065164
v 111.80243862 -46.97910482 41.77154366
v 112.91725731 -46.97910482 41.77689657
v 113.67868878 -46.97910482 41.97852837
v 113.73470131 -48.09377068 41.88395824
v 113.59401220 -49.20760599 42.02135337
v 113.49066477 -49.81363759 42.14804184
v 112.40318458 -53.06190227 42.73330961
v 113.78070733 -48.06879760 50.59516378
v 112.29917271 -53.06190227 44.14562382
v 107.27582593 -44.55830726 50.59516378
v 107.27582593 -46.93997910 41.79027928
v 108.45865365 -46.33144920 42.09807990
v 112.91725731 -46.33228307 42.09897191
v 113.54200626 -46.36225110 42.12484532
v 113.98473112 -46.97910482 42.73330961
v 113.99473763 -48.09377068 42.73330961
v 113.71336605 -49.20760599 42.73330961
v 113.49933575 -49.83777680 42.73330961
v 113.71336605 -49.20760599 43.84852945
v 113.49933575 -49.83444794 43.84852945
v 112.39518469 -53.06190227 43.32839037
v 114.08741411 -46.97910482 50.59516378
v 112.38784924 -53.06190227 43.47292328
v 113.49066477 -49.80947486 44.44182618
v 113.99206657 -48.09377068 44.96285687
v 107.27582593 -44.55830726 46.04685080
v 114.08741411 -44.55830726 50.59516378
v 107.27582593 -46.33144920 42.09807990
v 111.80243862 -45.89024591 42.73330961
v 112.91725731 -45.90606131 42.73330961
v 113.63268277 -44.55830726 46.24848261
v 113.67868878 -46.17161749 42.73330961
v 114.08674966 -46.97910482 43.84852945
v 113.97740232 -44.55830726 47.19151252
v 114.08741411 -44.55830726 48.30673236
v 114.08741411 -46.97910482 50.53628003
v 113.99473763 -48.09377068 43.84852945
v 111.64108202 -44.55830726 46.04506636
v 108.45865365 -45.89024591 42.73330961
v 107.27582593 -45.89107812 42.73330961
v 107.27582593 -46.30481168 42.13644316
v 111.80243862 -44.55830726 46.04506636
v 112.91725731 -44.55830726 46.05488018
v 114.08741411 -45.86443895 47.19151252
f 1 2 6
f 1 6 7
f 1 7 3
f 1 3 10
f 1 10 21
f 1 21 37
f 1 37 51
f 1 51 53
f 1 53 39
f 1 39 26
f 1 26 25
f 1 25 22
f 1 22 11
f 1 11 4
f 1 4 13
f 1 13 27
f 1 27 40
f 1 40 56
f 1 56 70
f 1 70 71
f 1 71 58
f 1 58 41
f 1 41 29
f 1 29 28
f 1 28 14
f 1 14 5
f 1 5 2
f 2 5 6
f 3 7 8
f 3 8 9
f 3 9 10
f 4 11 12
f 4 12 13
f 5 14 15
f 5 15 16
f 5 16 6
f 6 16 17
f 6 17 7
f 7 17 8
f 8 17 18
f 8 18 19
f 8 19 9
f 9 19 10
f 10 19 20
f 10 20 21
f 11 22 12
f 12 23 38
f 12 38 52
f 12 52 57
f 12 57 40
f 12 40 27
f 12 27 24
f 12 24 13
f 12 22 25
f 12 25 26
f 12 26 23
f 13 24 27
f 14 28 15
f 15 28 29
f 15 29 30
f 15 30 16
f 16 30 31
f 16 31 32
f 16 32 17
f 17 32 33
f 17 33 34
f 17 34 18
f 18 34 19
f 19 34 35
f 19 35 20
f 20 35 36
f 20 36 21
f 21 36 37
f 23 26 38
f 26 39 38
f 29 41 30
f 30 41 42
f 30 42 31
f 31 42 43
f 31 43 32
f 32 43 44
f 32 44 33
f 33 44 45
f 33 45 34
f 34 45 46
f 34 46 35
f 35 46 36
f 36 47 48
f 36 48 37
f 36 46 47
f 37 48 49
f 37 49 50
f 37 50 51
f 38 39 53
f 38 53 54
f 38 54 49
f 38 49 55
f 38 55 52
f 40 57 65
f 40 65 64
f 40 64 61
f 40 61 73
f 40 73 72
f 40 72 68
f 40 68 56
f 41 58 42
f 42 58 69
f 42 69 59
f 42 59 43
f 43 59 60
f 43 60 44
f 44 60 61
f 44 61 62
f 44 62 45
f 45 63 46
f 45 62 64
f 45 64 65
f 45 65 63
f 46 63 66
f 46 66 52
f 46 52 67
f 46 67 49
f 46 49 47
f 47 49 48
f 49 54 50
f 49 67 55
f 50 54 51
f 51 54 53
f 52 66 74
f 52 74 65
f 52 65 57
f 52 55 67
f 56 68 69
f 56 69 70
f 58 71 69
f 59 69 68
f 59 68 72
f 59 72 73
f 59 73 60
f 60 73 61
f 61 64 62
f 63 65 74
f 63 74 66
f 69 71 70

