# https://github.com/mikedh/trimesh
v 96.89048260 -53.43148666 -2.59600526
v 97.79407809 -54.35116498 -10.03124557
v 97.75611184 -54.39544012 -9.35971664
v 97.74700233 -54.39544012 -2.67141327
v 97.74700233 -54.39544012 -2.51821564
v 96.89048260 -53.42947339 -2.51821564
v 96.89048260 -50.79923730 -9.35971664
v 98.42583681 -53.70719049 -10.36304166
v 98.42583681 -54.39946332 -10.10427280
v 98.42583681 -54.53832186 -9.35971664
v 96.89048260 -50.79320084 -9.37241664
v 96.89048260 -50.34241637 -10.26302643
v 96.89048260 -49.99426836 -10.38764846
v 96.89048260 -49.24765741 -10.58926610
v 98.42583681 -54.61680583 -6.01556517
v 98.42583681 -54.61881909 -2.67141327
v 98.42583681 -54.61881909 -2.51821564
v 96.89048260 -34.15246394 -2.51821564
v 103.99927145 -53.70719049 -10.54799010
v 99.54052573 -51.47742395 -10.61307890
v 103.99927145 -54.48801027 -10.19952481
v 103.99927145 -54.70937598 -9.35971664
v 99.54052573 -54.70937598 -4.90111212
v 96.89048260 -48.13277580 -10.61307890
v 99.54052573 -54.70937598 -2.51821564
v 105.58777774 -34.15246394 -2.51821564
v 96.89048260 -34.15246394 -10.54084568
v 103.99927145 -52.59230556 -10.61307890
v 105.11396037 -51.47742395 -10.60434812
v 105.11396037 -52.59230556 -10.52814569
v 105.18381654 -53.75548882 -10.24715123
v 104.85882768 -54.41354950 -10.10506598
v 96.89048260 -39.21773616 -10.62736691
v 103.99927145 -54.71138924 -6.01556517
v 105.01069269 -54.48801027 -9.35971664
v 103.99927145 -54.71138924 -4.90111212
v 103.99927145 -54.70937598 -2.51821564
v 112.28197431 -34.15246394 -7.92061235
v 105.58777774 -47.17083560 -2.51821564
v 105.11396037 -34.15246394 -10.61228489
v 96.89048260 -35.87308469 -10.61466692
v 99.54052573 -39.21773616 -10.62736691
v 105.11396037 -50.36253902 -10.61307890
v 107.34333489 -45.90300926 -10.54481489
v 106.22864597 -49.24765741 -10.53687729
v 108.45802048 -41.44750270 -10.61149088
v 110.68739500 -35.87308469 -10.56386529
v 109.57270608 -39.21773616 -10.55830889
v 108.45802048 -42.56238431 -10.55195848
v 105.90213885 -52.59230556 -10.18047441
v 110.40492714 -39.21773616 -10.21063761
v 109.27960714 -42.56238431 -10.20428720
v 105.76090160 -53.41740047 -10.04712160
v 105.56803383 -54.10766336 -9.35971664
v 96.89048260 -36.98796962 -10.62577972
v 105.01069269 -54.48801027 -6.01556517
v 105.00765287 -54.48801027 -2.51821564
v 104.13898712 -54.67919035 -2.51821564
v 112.29867839 -34.15246394 -7.94760035
v 105.58625949 -52.59230556 -2.51821564
v 105.57866491 -52.74525029 -2.51821564
v 105.52399457 -53.70719049 -2.51821564
v 109.57270608 -34.15246394 -10.61307890
v 99.54052573 -36.98796962 -10.62577972
v 110.68739500 -34.15246394 -10.61307890
v 110.68739500 -34.75820308 -10.61307890
v 100.65521133 -39.21773616 -10.62577972
v 109.57270608 -38.10285123 -10.61307890
v 111.52872557 -35.87308469 -10.21540001
v 111.82182452 -34.15246394 -10.30509644
v 106.88318177 -50.09488823 -10.05505920
v 110.25002563 -40.12936476 -10.07649080
v 109.12774545 -43.45187700 -10.06934721
v 105.80646243 -53.55022256 -9.35971664
v 112.36853789 -34.22893464 -9.93281836
v 111.24625772 -37.54943695 -9.92011837
v 105.56803383 -54.10766336 -7.13001738
v 112.38676023 -34.15246394 -8.61992371
v 105.80646243 -53.55022256 -7.13001738
v 112.36853789 -34.22893464 -8.67707491
v 112.38068723 -34.15246394 -9.94869356
v 111.34193081 -36.98796962 -10.04394640
v 106.13297287 -52.59230556 -9.35971664
v 112.40346432 -34.15246394 -9.35971664
v 109.54385266 -42.56238431 -9.35971664
v 106.93329736 -50.23978324 -9.35971664
v 112.39435481 -34.15246394 -8.76438932
v 106.13297287 -52.59230556 -8.24447042
v 106.93329736 -50.23978324 -8.24447042
v 111.24625772 -37.54943695 -8.77788332
f 1 2 3
f 1 3 4
f 1 4 5
f 1 5 6
f 1 6 18
f 1 18 27
f 1 27 41
f 1 41 55
f 1 55 33
f 1 33 24
f 1 24 14
f 1 14 13
f 1 13 12
f 1 12 11
f 1 11 7
f 1 7 2
f 2 8 9
f 2 9 10
f 2 10 3
f 2 7 11
f 2 11 12
f 2 12 13
f 2 13 14
f 2 14 8
f 3 10 15
f 3 15 16
f 3 16 4
f 4 16 17
f 4 17 5
f 5 17 25
f 5 25 37
f 5 37 58
f 5 58 57
f 5 57 62
f 5 62 61
f 5 61 60
f 5 60 39
f 5 39 26
f 5 26 18
f 5 18 6
f 8 19 9
f 8 14 20
f 8 20 19
f 9 21 22
f 9 22 10
f 9 19 21
f 10 22 23
f 10 23 15
f 14 24 20
f 15 23 16
f 16 23 25
f 16 25 17
f 18 26 38
f 18 38 59
f 18 59 78
f 18 78 87
f 18 87 84
f 18 84 81
f 18 81 70
f 18 70 65
f 18 65 63
f 18 63 40
f 18 40 27
f 19 28 29
f 19 29 30
f 19 30 31
f 19 31 32
f 19 32 21
f 19 20 28
f 20 24 33
f 20 33 28
f 21 32 22
f 22 34 23
f 22 32 35
f 22 35 34
f 23 34 36
f 23 36 25
f 25 36 37
f 26 39 38
f 27 40 41
f 28 33 42
f 28 42 43
f 28 43 29
f 29 44 45
f 29 45 30
f 29 43 46
f 29 46 47
f 29 47 48
f 29 48 49
f 29 49 44
f 30 50 31
f 30 45 51
f 30 51 52
f 30 52 50
f 31 50 53
f 31 53 32
f 32 53 54
f 32 54 35
f 33 55 64
f 33 64 42
f 34 35 56
f 34 56 36
f 35 54 77
f 35 77 56
f 36 56 57
f 36 57 58
f 36 58 37
f 38 39 60
f 38 60 61
f 38 61 62
f 38 62 59
f 40 63 55
f 40 55 41
f 42 64 65
f 42 65 66
f 42 66 67
f 42 67 43
f 43 67 68
f 43 68 46
f 44 49 69
f 44 69 45
f 45 69 51
f 46 68 47
f 47 66 70
f 47 70 69
f 47 69 48
f 47 68 66
f 48 69 49
f 50 71 53
f 50 52 72
f 50 72 73
f 50 73 71
f 51 69 72
f 51 72 52
f 53 74 54
f 53 71 75
f 53 75 76
f 53 76 74
f 54 74 79
f 54 79 77
f 55 63 65
f 55 65 64
f 56 77 57
f 57 77 62
f 59 62 78
f 62 77 79
f 62 79 80
f 62 80 78
f 65 70 66
f 66 68 67
f 69 70 81
f 69 81 82
f 69 82 72
f 71 73 75
f 72 82 75
f 72 75 73
f 74 76 83
f 74 83 88
f 74 88 79
f 75 82 81
f 75 81 84
f 75 84 76
f 76 84 85
f 76 85 86
f 76 86 83
f 78 80 87
f 79 88 89
f 79 89 84
f 79 84 90
f 79 90 80
f 80 90 84
f 80 84 87
f 83 86 89
f 83 89 88
f 84 89 85
f 85 89 86

