# https://github.com/mikedh/trimesh
v 114.08741448 -25.64169446 -1.49862985
v 114.08741448 -25.65231392 -1.49862985
v 114.08741448 -25.64169446 -3.78606565
v 76.60817806 -25.64169446 -1.49862985
v 114.08741448 -28.06928717 -4.90029237
v 114.08374676 -28.06928717 -1.49862985
v 114.08741448 -28.06928717 -6.20575274
v 113.97735620 -25.64169446 -4.90029237
v 76.60817806 -25.64169446 -6.00023357
v 76.60817806 -30.57314793 -1.49862985
v 113.91131725 -29.18339969 -6.20575274
v 114.06906922 -28.12528142 -1.49862985
v 113.83427512 -26.86007630 -6.20575274
v 113.67285542 -25.64169446 -5.73895686
v 76.60817806 -25.99214809 -6.20575274
v 87.15930141 -25.64169446 -6.20575274
v 106.36851114 -30.57314793 -1.49862985
v 76.60817806 -30.57314793 -6.20575274
v 113.77924598 -29.15974885 -1.49862985
v 113.59948102 -29.94754528 -6.20575274
v 113.75723300 -26.76401451 -6.20575274
v 112.97947298 -25.93904916 -6.20344878
v 112.96113104 -25.64169446 -6.06474638
v 99.77956229 -25.64169446 -6.20575274
v 107.16094538 -30.57314793 -6.20575274
v 112.63461727 -30.21400671 -6.20575274
v 112.91710507 -30.18117993 -6.20575274
v 112.91710507 -29.70280780 -1.49862985
v 113.44906450 -30.03443444 -6.20575274
v 112.97580193 -25.94146275 -6.20575274
v 111.80182479 -25.88643361 -6.20575274
f 1 2 5
f 1 5 7
f 1 7 3
f 1 3 8
f 1 8 14
f 1 14 23
f 1 23 24
f 1 24 16
f 1 16 9
f 1 9 4
f 1 4 10
f 1 10 17
f 1 17 28
f 1 28 19
f 1 19 12
f 1 12 6
f 1 6 2
f 2 6 5
f 3 7 8
f 4 9 15
f 4 15 18
f 4 18 10
f 5 6 11
f 5 11 7
f 6 12 11
f 7 11 20
f 7 20 29
f 7 29 27
f 7 27 26
f 7 26 25
f 7 25 18
f 7 18 15
f 7 15 16
f 7 16 24
f 7 24 31
f 7 31 30
f 7 30 21
f 7 21 13
f 7 13 8
f 8 13 14
f 9 16 15
f 10 18 25
f 10 25 17
f 11 12 19
f 11 19 20
f 13 21 14
f 14 21 22
f 14 22 23
f 17 25 26
f 17 26 27
f 17 27 28
f 19 28 20
f 20 28 29
f 21 30 22
f 22 30 23
f 23 30 31
f 23 31 24
f 27 29 28

