# https://github.com/mikedh/trimesh
v 76.60817806 -20.00654805 -7.78821676
v 78.36180666 -20.56421311 -7.56440507
v 76.60817806 -20.56421311 -7.56440507
v 76.60817806 -19.54226045 -7.78821676
v 112.91710507 -20.00617596 -7.78670432
v 112.91710507 -20.56346893 -7.56440507
v 101.76798665 -20.56384102 -7.56440507
v 95.21205396 -22.58579814 -6.08543422
v 95.08365042 -22.58579814 -6.08543422
v 90.62253596 -22.58579814 -6.07938530
v 76.60817806 -22.58579814 -5.96596743
v 76.60817806 -19.27849499 -7.41166880
v 105.11382416 -19.08132163 -7.12888035
v 111.80182479 -19.08169372 -7.12888035
v 108.45599061 -19.54300462 -7.78670432
v 112.91710507 -19.54337671 -7.78670432
v 113.56645822 -19.90684511 -7.75343485
v 113.67652315 -21.11257928 -6.86121337
v 113.67652315 -22.58579814 -5.70283734
v 112.96846648 -22.58579814 -5.95084471
v 112.91710507 -22.58579814 -5.95840607
v 96.19526297 -22.58579814 -6.08392219
v 76.60817806 -22.58579814 5.93385075
v 76.60817806 -19.08094954 -7.12888035
v 88.39564646 -19.08094954 -7.12888035
v 111.80182479 -18.78556160 -6.01435920
v 112.91710507 -19.10029479 -7.12888035
v 113.56645822 -19.59843575 -7.75343485
v 113.77557826 -20.27366230 -7.19239442
v 113.70220386 -22.58579814 -5.65142152
v 113.98102392 -22.58579814 -4.89983805
v 80.59236555 -21.14196924 7.12095935
v 76.60817806 -21.14196924 7.11944691
v 111.80182479 -22.58579814 5.93385075
v 76.60817806 -18.91204988 -6.49222677
v 111.80182479 -18.78556160 6.24537261
v 112.91710507 -18.82239165 -6.01435920
v 76.60817806 -18.78556160 -6.01435920
v 87.28036951 -18.78518951 -3.78531690
v 113.69853613 -19.41353963 -7.12888035
v 114.08741448 -20.26585012 -6.01435920
v 113.99936919 -22.58579814 -4.80910343
v 80.59236555 -20.26585012 7.66082897
v 76.60817806 -20.76659569 7.35081996
v 112.91710507 -21.14196924 7.12095935
v 112.60160112 -22.58579814 5.91872845
v 111.80182479 -19.24687250 7.34325860
v 112.91710507 -19.26547357 7.33872212
v 112.91710507 -18.82239165 6.24537261
v 80.59236555 -18.78518951 -2.67079596
v 76.60817806 -18.78556160 6.24537261
v 113.77924598 -19.28407464 -6.01435920
v 76.60817806 -18.78518951 -3.78531690
v 114.08741448 -22.58579814 -3.78531690
v 114.08741448 -20.26585012 5.13085104
v 76.60817806 -19.24687250 7.34325860
v 76.60817806 -19.82946412 7.52472703
v 76.60817806 -20.26585012 7.65931653
v 85.04981228 -20.26585012 7.66082897
v 112.91710507 -22.58579814 5.91267911
v 113.64717472 -21.03556872 7.01510201
v 112.91710507 -20.26585012 7.65629248
v 111.80182479 -20.26585012 7.65931653
v 113.67652315 -19.42544478 7.15725287
v 113.77924598 -19.28407464 6.24537261
v 76.60817806 -18.78518951 -2.67079596
v 114.08741448 -22.58579814 4.01633031
v 114.06173377 -20.26585012 6.24537261
v 113.31699323 -22.58579814 5.78413894
v 113.64717472 -22.25581100 5.90058127
v 113.82326531 -22.58579814 5.21704877
v 113.80492669 -21.39643417 6.26200693
v 113.75723300 -20.26585012 7.22681586
f 1 2 3
f 1 3 11
f 1 11 23
f 1 23 33
f 1 33 44
f 1 44 58
f 1 58 57
f 1 57 56
f 1 56 51
f 1 51 66
f 1 66 53
f 1 53 38
f 1 38 35
f 1 35 24
f 1 24 12
f 1 12 4
f 1 4 16
f 1 16 5
f 1 5 6
f 1 6 7
f 1 7 2
f 2 7 8
f 2 8 9
f 2 9 3
f 3 9 10
f 3 10 11
f 4 12 13
f 4 13 14
f 4 14 15
f 4 15 16
f 5 16 28
f 5 28 17
f 5 17 6
f 6 17 18
f 6 18 19
f 6 19 20
f 6 20 21
f 6 21 22
f 6 22 8
f 6 8 7
f 8 22 21
f 8 21 20
f 8 20 19
f 8 19 30
f 8 30 31
f 8 31 42
f 8 42 54
f 8 54 67
f 8 67 71
f 8 71 69
f 8 69 60
f 8 60 46
f 8 46 34
f 8 34 23
f 8 23 11
f 8 11 10
f 8 10 9
f 12 24 25
f 12 25 13
f 13 26 14
f 13 25 26
f 14 26 27
f 14 27 16
f 14 16 15
f 16 27 28
f 17 28 29
f 17 29 18
f 18 30 19
f 18 29 31
f 18 31 30
f 23 32 33
f 23 34 45
f 23 45 32
f 24 35 25
f 25 35 26
f 26 36 49
f 26 49 37
f 26 37 27
f 26 35 38
f 26 38 53
f 26 53 39
f 26 39 36
f 27 37 40
f 27 40 28
f 28 40 41
f 28 41 29
f 29 41 31
f 31 41 42
f 32 43 44
f 32 44 33
f 32 45 59
f 32 59 43
f 34 46 45
f 36 47 48
f 36 48 49
f 36 39 50
f 36 50 66
f 36 66 51
f 36 51 56
f 36 56 47
f 37 49 65
f 37 65 52
f 37 52 40
f 39 53 66
f 39 66 50
f 40 52 41
f 41 54 42
f 41 52 65
f 41 65 55
f 41 55 67
f 41 67 54
f 43 56 57
f 43 57 58
f 43 58 44
f 43 59 47
f 43 47 56
f 45 46 60
f 45 60 61
f 45 61 62
f 45 62 63
f 45 63 59
f 47 63 62
f 47 62 48
f 47 59 63
f 48 62 64
f 48 64 49
f 49 64 65
f 55 68 67
f 55 65 68
f 60 69 61
f 61 70 71
f 61 71 72
f 61 72 73
f 61 73 62
f 61 69 70
f 62 73 64
f 64 73 68
f 64 68 65
f 67 68 71
f 68 73 72
f 68 72 71
f 69 71 70

