# https://github.com/mikedh/trimesh
v 93.96837347 -25.64169446 -8.90750113
v 93.12457449 -25.64169446 -8.82772815
v 92.85309319 -24.72456593 -8.52077724
v 93.96837347 -24.72456593 -8.52424563
v 112.91710507 -22.58609714 -5.95764944
v 112.96846648 -22.58609714 -5.95071266
v 112.96113104 -25.64169446 -6.06343494
v 90.62253596 -25.64169446 -8.40458781
v 76.60817806 -22.58609714 -5.96632041
v 91.73781624 -23.85829053 -8.01786392
v 92.85309319 -23.84782057 -8.07856075
v 93.96837347 -23.83944527 -8.08376168
v 95.08365042 -23.84662291 -8.03867426
v 111.88987673 -22.58609714 -5.96632041
v 113.67652315 -22.58609714 -5.70272397
v 113.67285542 -25.64169446 -5.73914207
v 76.60817806 -25.64169446 -5.99927013
v 76.60817806 -22.58609714 5.93366927
v 90.62253596 -22.58609714 -6.07904269
v 95.08365042 -22.58609714 -6.08424528
v 96.19526297 -22.58609714 -6.08424528
v 113.70220386 -22.58609714 -5.65069853
v 113.98102392 -22.58609714 -4.89979570
v 113.97735620 -25.64169446 -4.89979570
v 76.60817806 -25.64169446 5.96835318
v 91.79651310 -25.64169446 8.67541877
v 92.07533317 -25.64169446 8.71183687
v 92.85309319 -24.72456593 8.53841734
v 91.73781624 -23.92140593 8.14128994
v 92.85309319 -23.87324547 8.21065609
v 93.96837347 -23.85978552 8.21585868
v 111.80182479 -22.58609714 5.93366927
v 113.99936919 -22.58609714 -4.80961795
v 114.08741448 -25.64169446 -3.78471351
v 92.85309319 -25.64169446 8.78120469
v 93.96837347 -25.64169446 8.80895181
v 93.96837347 -24.72456593 8.54882251
v 95.08365042 -23.90525333 8.14996091
v 112.91710507 -22.58609714 5.91285893
v 112.60160112 -22.58609714 5.91979571
v 114.08741448 -22.58609714 -3.78471351
v 114.08741448 -25.64169446 4.01565881
v 95.08365042 -25.64169446 8.71010268
v 112.91710507 -25.64169446 5.96315059
v 113.31699323 -22.58609714 5.78452930
v 114.08741448 -22.58609714 4.01565881
v 113.85262038 -25.64169446 5.09605709
v 113.81959758 -25.64169446 5.20877937
v 113.82326531 -22.58609714 5.21571615
f 1 2 3
f 1 3 4
f 1 4 5
f 1 5 6
f 1 6 7
f 1 7 16
f 1 16 24
f 1 24 34
f 1 34 42
f 1 42 47
f 1 47 48
f 1 48 44
f 1 44 43
f 1 43 36
f 1 36 35
f 1 35 27
f 1 27 26
f 1 26 25
f 1 25 17
f 1 17 8
f 1 8 2
f 2 8 9
f 2 9 3
f 3 10 11
f 3 11 12
f 3 12 4
f 3 9 10
f 4 12 13
f 4 13 5
f 5 14 21
f 5 21 20
f 5 20 19
f 5 19 9
f 5 9 18
f 5 18 32
f 5 32 40
f 5 40 39
f 5 39 45
f 5 45 49
f 5 49 46
f 5 46 41
f 5 41 33
f 5 33 23
f 5 23 22
f 5 22 15
f 5 15 6
f 5 13 12
f 5 12 14
f 6 15 7
f 7 15 16
f 8 17 9
f 9 17 25
f 9 25 18
f 9 19 12
f 9 12 11
f 9 11 10
f 12 19 20
f 12 20 21
f 12 21 14
f 15 22 16
f 16 22 23
f 16 23 24
f 18 25 26
f 18 26 27
f 18 27 28
f 18 28 29
f 18 29 30
f 18 30 31
f 18 31 32
f 23 33 24
f 24 33 34
f 27 35 28
f 28 35 36
f 28 36 37
f 28 37 30
f 28 30 29
f 30 37 31
f 31 37 38
f 31 38 39
f 31 39 40
f 31 40 32
f 33 41 34
f 34 41 46
f 34 46 42
f 36 43 37
f 37 43 39
f 37 39 38
f 39 43 44
f 39 44 45
f 42 46 47
f 44 48 45
f 45 48 49
f 46 49 47
f 47 49 48

