# https://github.com/mikedh/trimesh
v 96.93167462 -71.05900902 55.64488438
v 97.38895742 -72.58241349 55.64488438
v 97.76296229 -73.29883894 61.68373808
v 96.93167462 -69.67848631 61.68373808
v 96.93167462 -53.06190227 55.64488438
v 97.75084950 -73.30487540 55.64488438
v 97.75690590 -73.30487540 60.56860710
v 98.42617252 -73.52422789 58.33972720
v 98.42617252 -73.50410524 59.45416715
v 98.42617252 -73.47794281 60.56860710
v 98.42617252 -73.44775717 61.68373808
v 97.80233053 -73.25255053 62.32046195
v 96.93167462 -69.37863658 62.21053903
v 96.93167462 -53.06190227 62.63433060
v 105.58673600 -53.06190227 55.64488438
v 98.42617252 -73.52825442 55.64488438
v 98.42617252 -73.52825442 57.22528724
v 99.54060915 -73.61881132 57.22528724
v 103.99987392 -73.59466215 61.68373808
v 98.42617252 -73.29883894 62.37023868
v 98.42617252 -72.61662565 62.55482587
v 96.93167462 -68.15709510 62.70622995
v 96.93167462 -69.21965204 62.48223549
v 103.99987392 -53.06190227 62.70622995
v 96.93167462 -54.78252332 62.69171104
v 112.37783941 -53.06190227 59.98857265
v 105.58673600 -71.50174052 55.64488438
v 99.54060915 -73.61881132 55.64488438
v 103.99987392 -73.62082458 56.11084771
v 103.99987392 -73.61680138 59.45416715
v 103.99987392 -73.61478812 60.56860710
v 104.99772078 -73.38738258 61.68373808
v 104.84175945 -73.30889860 62.37853425
v 103.99987392 -73.37530966 62.44628582
v 103.99987392 -72.61662565 62.67857667
v 99.54060915 -70.38685871 62.70622995
v 98.42617252 -71.50174052 62.61082510
v 96.93167462 -57.01229026 62.70622995
v 110.68649703 -53.06190227 62.70622995
v 112.39903846 -53.06190227 60.56860710
v 112.36572662 -53.13233652 60.00101684
v 105.52314219 -72.61662565 55.64488438
v 105.55039431 -72.15175491 55.64488438
v 103.99987392 -73.62082458 55.64488438
v 105.00983357 -73.39744557 57.22528724
v 105.00983357 -73.39543231 60.56860710
v 105.56705189 -73.01709859 60.56860710
v 105.55493910 -73.00300909 61.68373808
v 105.75329519 -72.30671293 62.33290613
v 105.17336623 -72.65284775 62.47186520
v 105.11279894 -71.50174052 62.65921813
v 105.11279894 -70.38685871 62.70622995
v 103.99987392 -71.50174052 62.70622995
v 111.29216983 -53.06190227 62.63294772
v 110.68649703 -53.66764152 62.70622995
v 112.39449367 -53.06190227 61.54270512
v 112.37178302 -53.14642271 60.56860710
v 111.24371866 -56.45484936 60.04733680
v 105.80629115 -72.45965437 59.45416715
v 105.56705189 -72.89433947 58.33972720
v 105.22333232 -73.07143340 55.64488438
v 105.00831864 -73.39744557 55.64488438
v 105.56705189 -73.01709859 59.45416715
v 105.80629115 -72.45965437 60.56860710
v 105.80023475 -72.44556818 61.68373808
v 106.87530315 -68.98420010 62.33912781
v 105.87442976 -71.50174052 62.42623709
v 112.36118515 -53.11825034 62.24441482
v 107.34318714 -64.81445629 62.66820638
v 106.99795264 -68.15709510 62.43107672
v 109.24499841 -61.47182081 62.43937229
v 111.49204418 -54.78252332 62.44766869
v 108.45762377 -61.47182081 62.67235416
v 110.68649703 -54.78252332 62.68064973
v 106.22875050 -67.04220997 62.70622995
v 111.81002323 -53.06190227 62.49951931
v 108.45762377 -60.35693900 62.70622995
v 112.39298206 -53.06190227 61.68373808
v 112.36875316 -53.13636305 61.68373808
v 111.24674520 -56.45887256 60.79052683
v 111.24674520 -56.45887256 61.22607156
v 106.74357073 -69.70666201 60.56860710
v 106.13335646 -71.50174052 60.56860710
v 112.38238088 -53.06190227 62.18910743
v 112.37026809 -53.06190227 62.25409326
v 110.23981541 -59.01867818 62.35641163
v 109.11780745 -62.34118769 62.35088097
v 111.36182337 -55.69817529 62.36125126
v 112.13254375 -53.06190227 62.38406574
f 1 2 3
f 1 3 4
f 1 4 13
f 1 13 23
f 1 23 22
f 1 22 38
f 1 38 25
f 1 25 14
f 1 14 5
f 1 5 15
f 1 15 27
f 1 27 43
f 1 43 42
f 1 42 61
f 1 61 62
f 1 62 44
f 1 44 28
f 1 28 16
f 1 16 6
f 1 6 2
f 2 6 7
f 2 7 3
f 3 7 8
f 3 8 9
f 3 9 10
f 3 10 11
f 3 11 12
f 3 12 4
f 4 12 13
f 5 14 24
f 5 24 39
f 5 39 54
f 5 54 76
f 5 76 89
f 5 89 85
f 5 85 84
f 5 84 78
f 5 78 56
f 5 56 40
f 5 40 26
f 5 26 15
f 6 16 17
f 6 17 7
f 7 17 8
f 8 17 18
f 8 18 9
f 9 18 10
f 10 18 11
f 11 18 19
f 11 19 20
f 11 20 12
f 12 20 21
f 12 21 22
f 12 22 23
f 12 23 13
f 14 25 24
f 15 26 27
f 16 28 18
f 16 18 17
f 18 28 44
f 18 44 29
f 18 29 30
f 18 30 31
f 18 31 19
f 19 31 32
f 19 32 33
f 19 33 34
f 19 34 20
f 20 34 35
f 20 35 21
f 21 35 36
f 21 36 37
f 21 37 22
f 22 37 36
f 22 36 53
f 22 53 52
f 22 52 75
f 22 75 77
f 22 77 55
f 22 55 39
f 22 39 24
f 22 24 38
f 24 25 38
f 26 40 41
f 26 41 42
f 26 42 43
f 26 43 27
f 29 44 45
f 29 45 46
f 29 46 30
f 30 46 31
f 31 46 32
f 32 47 48
f 32 48 33
f 32 46 47
f 33 48 49
f 33 49 50
f 33 50 35
f 33 35 34
f 35 51 52
f 35 52 53
f 35 53 36
f 35 50 51
f 39 55 54
f 40 56 57
f 40 57 41
f 41 57 58
f 41 58 59
f 41 59 42
f 42 59 60
f 42 60 61
f 44 62 45
f 45 62 63
f 45 63 47
f 45 47 46
f 47 63 59
f 47 59 64
f 47 64 65
f 47 65 48
f 48 65 49
f 49 66 67
f 49 67 50
f 49 65 68
f 49 68 66
f 50 67 51
f 51 69 52
f 51 67 70
f 51 70 71
f 51 71 72
f 51 72 69
f 52 69 73
f 52 73 74
f 52 74 75
f 54 55 74
f 54 74 76
f 55 77 74
f 56 78 79
f 56 79 57
f 57 80 59
f 57 59 58
f 57 79 81
f 57 81 80
f 59 82 83
f 59 83 64
f 59 63 60
f 59 80 82
f 60 63 62
f 60 62 61
f 64 83 65
f 65 83 81
f 65 81 79
f 65 79 84
f 65 84 68
f 66 68 85
f 66 85 86
f 66 86 87
f 66 87 67
f 67 87 86
f 67 86 88
f 67 88 70
f 68 84 85
f 69 72 73
f 70 88 71
f 71 88 72
f 72 74 73
f 72 88 85
f 72 85 89
f 72 89 76
f 72 76 74
f 74 77 75
f 78 84 79
f 80 81 82
f 81 83 82
f 85 88 86

