# https://github.com/mikedh/trimesh
v 35.58622812 -18.79631228 6.26740968
v 35.58622812 -18.78928580 6.25448378
v 33.74507083 -18.79631228 6.26740968
v 35.58622812 -30.91110008 6.26740968
v 35.58622812 -18.78577422 6.24612093
v 33.74507083 -18.78577422 6.24612093
v 33.74507083 -54.64540344 6.26740968
v 35.58622812 -30.25776359 -1.49923864
v 34.96193608 -52.59056140 6.26740968
v 33.74543129 -18.76469810 -1.49923864
v 35.58622812 -18.78577422 -1.49923864
v 33.74507083 -18.76821134 -0.41350447
v 33.74507083 -54.64540344 6.22179071
v 33.77012198 -54.64540344 6.26740968
v 34.39387416 -53.70755261 -1.49923864
v 34.90462458 -53.70755261 6.26740968
v 33.74507083 -18.76821134 -0.44163635
v 33.74507083 -19.75172599 -1.49923864
v 33.74507083 -54.52597652 -1.49923864
v 33.77012198 -54.64540344 6.24612093
v 33.79373129 -54.64189186 6.26740968
v 34.35440461 -54.30117564 -1.49923864
v 34.58779341 -54.42411082 6.26740968
v 33.77012198 -54.52246494 -1.49923864
v 33.80003851 -54.51192688 -1.49923864
f 1 2 3
f 1 3 7
f 1 7 14
f 1 14 21
f 1 21 23
f 1 23 16
f 1 16 9
f 1 9 4
f 1 4 8
f 1 8 11
f 1 11 5
f 1 5 2
f 2 5 6
f 2 6 3
f 3 6 12
f 3 12 17
f 3 17 18
f 3 18 19
f 3 19 13
f 3 13 7
f 4 9 8
f 5 10 6
f 5 11 10
f 6 10 12
f 7 13 20
f 7 20 14
f 8 9 15
f 8 15 22
f 8 22 25
f 8 25 24
f 8 24 19
f 8 19 18
f 8 18 10
f 8 10 11
f 9 16 15
f 10 17 12
f 10 18 17
f 13 19 20
f 14 20 21
f 15 16 22
f 16 23 22
f 19 24 20
f 20 24 21
f 21 24 23
f 22 23 25
f 23 24 25

