# https://github.com/mikedh/trimesh
v 96.18286447 -34.15246394 10.54073104
v 96.18286447 -35.87344681 10.59821032
v 96.18286447 -34.15246394 6.26343797
v 76.60817806 -34.15246394 10.54073104
v 96.18286447 -38.10338278 10.61311210
v 76.60817806 -35.87344681 10.59821032
v 96.18286447 -50.73099240 6.26343797
v 76.60817806 -34.15246394 6.26343797
v 96.18286447 -49.24817567 10.61311210
v 76.60817806 -38.10338278 10.61311210
v 96.18286447 -50.73099240 8.47616903
v 76.60817806 -50.81744968 6.26343797
v 96.18286447 -50.15352529 10.38064106
v 76.60817806 -49.24817567 10.61311210
v 76.60817806 -49.86805415 10.47345955
v 76.60817806 -50.28239394 10.36744191
v 96.18286447 -50.61680461 9.57976674
v 76.60817806 -50.72936119 9.59083636
v 76.60817806 -50.81581847 8.47616903
v 96.18286447 -50.15841891 10.37255147
v 76.60817806 -50.62496064 9.77391772
v 96.18286447 -50.61517340 9.59083636
f 1 2 5
f 1 5 9
f 1 9 13
f 1 13 20
f 1 20 22
f 1 22 17
f 1 17 11
f 1 11 7
f 1 7 3
f 1 3 8
f 1 8 4
f 1 4 6
f 1 6 2
f 2 6 10
f 2 10 5
f 3 7 12
f 3 12 8
f 4 8 12
f 4 12 19
f 4 19 18
f 4 18 21
f 4 21 16
f 4 16 15
f 4 15 14
f 4 14 10
f 4 10 6
f 5 10 14
f 5 14 9
f 7 11 12
f 9 14 15
f 9 15 16
f 9 16 13
f 11 17 18
f 11 18 19
f 11 19 12
f 13 16 20
f 16 21 22
f 16 22 20
f 17 22 18
f 18 22 21

