# https://github.com/mikedh/trimesh
v 96.92968794 -53.06190559 62.63431482
v 96.92968794 -54.78296186 62.69169609
v 96.92968794 -53.06190559 55.64419377
v 76.60823747 -53.06190559 62.63431482
v 96.92968794 -57.01217731 62.70621417
v 76.60823747 -54.78296186 62.69169609
v 96.92968794 -71.05883626 55.64419377
v 76.60823747 -53.06190559 55.64419377
v 96.92968794 -68.15825787 62.70621417
v 76.60823747 -57.01217731 62.70621417
v 96.92968794 -69.67902119 61.68372479
v 95.10742043 -71.69310668 55.64419377
v 76.60823747 -69.72538601 55.64419377
v 96.92968794 -69.21908394 62.48222054
v 76.60823747 -68.15825787 62.70621417
v 91.87667711 -72.00653098 55.64419377
v 92.52919313 -71.99169397 55.64419377
v 94.47082114 -71.79881953 55.64419377
v 96.92968794 -69.37858010 62.21052491
v 76.60823747 -69.64007820 61.68372479
v 76.60823747 -69.72538601 60.56859631
v 91.26196124 -71.96387708 55.64419377
v 76.60823747 -68.77769129 62.56725510
v 76.60823747 -69.19126704 62.46078894
v 76.60823747 -69.53436536 61.86692993
f 1 2 5
f 1 5 9
f 1 9 14
f 1 14 19
f 1 19 11
f 1 11 7
f 1 7 3
f 1 3 8
f 1 8 4
f 1 4 6
f 1 6 2
f 2 6 10
f 2 10 5
f 3 7 12
f 3 12 18
f 3 18 17
f 3 17 16
f 3 16 22
f 3 22 13
f 3 13 8
f 4 8 13
f 4 13 21
f 4 21 20
f 4 20 25
f 4 25 24
f 4 24 23
f 4 23 15
f 4 15 10
f 4 10 6
f 5 10 15
f 5 15 9
f 7 11 12
f 9 15 14
f 11 16 17
f 11 17 18
f 11 18 12
f 11 19 20
f 11 20 16
f 13 22 21
f 14 15 23
f 14 23 24
f 14 24 19
f 16 20 22
f 19 24 25
f 19 25 20
f 20 21 22

