# https://github.com/mikedh/trimesh
v 76.60823747 -49.27901033 50.59516358
v 76.60823747 -49.27901033 58.33107781
v 76.60823747 -44.55747671 50.59516358
v 106.61067221 -49.27901033 50.59516358
v 76.60823747 -44.82232526 58.33107781
v 107.97174999 -49.27901033 58.33107781
v 76.60823747 -44.55747671 58.06831728
v 114.08376632 -44.55747671 50.59516358
v 112.91712442 -48.61110914 50.59516358
v 112.91712442 -49.09412581 58.33107781
v 111.80185059 -49.16992876 58.33107781
v 87.12266552 -44.55747671 58.33107781
v 114.08376632 -44.55747671 56.11010727
v 114.08743404 -46.97856329 58.33107781
v 114.08376632 -46.97856329 50.59516358
v 113.77926549 -48.06800359 50.59516358
v 113.60683594 -48.83435859 58.33107781
v 99.76125398 -44.55747671 58.33107781
v 113.85263990 -44.55747671 57.19522536
v 113.91500450 -48.08464456 58.33107781
v 113.82695919 -45.68435835 58.33107781
v 114.06908878 -47.03587647 50.59516358
v 113.91133677 -48.09389028 58.33107781
v 111.80185059 -44.81308120 58.33107781
v 111.80185059 -44.55747671 58.08270495
v 113.81961709 -44.55747671 57.30199550
v 113.65452964 -44.97439461 58.10466479
v 113.77559776 -45.54569413 58.33107781
v 112.91712442 -44.84173861 58.33107781
v 112.25676465 -44.55747671 58.07210377
v 112.91712442 -44.55747671 58.05544453
v 113.42707095 -45.08948606 58.33107781
f 1 2 5
f 1 5 7
f 1 7 3
f 1 3 8
f 1 8 15
f 1 15 22
f 1 22 16
f 1 16 9
f 1 9 4
f 1 4 6
f 1 6 2
f 2 6 11
f 2 11 10
f 2 10 17
f 2 17 23
f 2 23 20
f 2 20 14
f 2 14 21
f 2 21 28
f 2 28 32
f 2 32 29
f 2 29 24
f 2 24 18
f 2 18 12
f 2 12 5
f 3 7 12
f 3 12 18
f 3 18 25
f 3 25 30
f 3 30 31
f 3 31 26
f 3 26 19
f 3 19 13
f 3 13 8
f 4 9 10
f 4 10 11
f 4 11 6
f 5 12 7
f 8 13 14
f 8 14 15
f 9 16 17
f 9 17 10
f 13 19 14
f 14 20 15
f 14 19 21
f 15 20 22
f 16 22 20
f 16 20 23
f 16 23 17
f 18 24 25
f 19 26 21
f 21 26 27
f 21 27 28
f 24 29 30
f 24 30 25
f 26 31 27
f 27 31 32
f 27 32 28
f 29 32 31
f 29 31 30

