# https://github.com/mikedh/trimesh
v 31.27672621 -37.53202548 47.18808385
v 31.27672621 -37.53202548 56.98802541
v 31.29289480 -37.12940942 56.98802541
v 31.29289480 -37.12967841 47.18808385
v 31.51923074 -38.39458282 47.18808385
v 31.49498028 -38.34856186 47.60161164
v 31.49498028 -38.34856186 56.58601062
v 31.38989661 -37.94594549 56.98802541
v 31.31714525 -36.71548940 47.18808385
v 31.31714525 -36.71548940 56.98802541
v 31.51923074 -38.39323727 56.98802541
v 31.79406514 -38.57328416 47.18808385
v 31.54348119 -36.15785496 47.18808385
v 31.54348119 -36.15785496 56.98802541
v 32.11740046 -38.74848680 56.98802541
v 32.12548232 -38.75386933 47.18808385
v 32.13356661 -36.00848871 47.18808385
v 32.13356661 -36.00848871 56.98802541
v 32.13356661 -38.75682974 56.98802541
v 32.13356661 -38.75736803 47.18808385
v 112.98362661 -36.00848871 47.18808385
v 112.98362661 -36.00848871 56.98802541
v 32.93382182 -38.75709888 56.98802541
v 32.94190611 -38.75763717 47.18808385
v 113.57371203 -36.15785496 47.18808385
v 113.57371203 -36.15785496 56.98802541
v 112.16720525 -38.75709888 56.98802541
v 112.16720525 -38.75763717 47.18808385
v 113.68688243 -36.43263551 47.18808385
v 113.68688243 -36.43263551 56.98802541
v 112.98362661 -38.75682974 56.98802541
v 112.98362661 -38.75736803 47.18808385
v 113.80004797 -36.71548940 47.18808385
v 113.80004797 -36.71548940 56.98802541
v 112.99171090 -38.75386933 47.18808385
v 113.31504622 -38.57839770 56.98802541
v 113.82429842 -37.11810576 47.18808385
v 113.82429842 -37.11810576 56.98802541
v 113.59796248 -38.39458282 47.18808385
v 113.59796248 -38.39323727 56.98802541
v 113.84046701 -37.53202548 47.18808385
v 113.84046701 -37.53202548 56.98802541
v 113.73538334 -37.93437285 47.18808385
v 113.62221294 -38.34856186 47.60161164
v 113.62221294 -38.34856186 56.58601062
v 113.70304616 -38.02291609 56.98802541
f 1 2 3
f 1 3 4
f 1 4 9
f 1 9 13
f 1 13 17
f 1 17 21
f 1 21 25
f 1 25 29
f 1 29 33
f 1 33 37
f 1 37 41
f 1 41 43
f 1 43 39
f 1 39 35
f 1 35 32
f 1 32 28
f 1 28 24
f 1 24 20
f 1 20 16
f 1 16 12
f 1 12 5
f 1 5 6
f 1 6 7
f 1 7 2
f 2 7 8
f 2 8 11
f 2 11 15
f 2 15 19
f 2 19 23
f 2 23 27
f 2 27 31
f 2 31 36
f 2 36 40
f 2 40 46
f 2 46 42
f 2 42 38
f 2 38 34
f 2 34 30
f 2 30 26
f 2 26 22
f 2 22 18
f 2 18 14
f 2 14 10
f 2 10 3
f 3 9 4
f 3 10 9
f 5 11 7
f 5 7 6
f 5 12 11
f 7 11 8
f 9 10 14
f 9 14 13
f 11 12 15
f 12 16 15
f 13 14 18
f 13 18 17
f 15 16 19
f 16 20 19
f 17 18 22
f 17 22 21
f 19 20 23
f 20 24 23
f 21 22 26
f 21 26 25
f 23 24 28
f 23 28 27
f 25 26 30
f 25 30 29
f 27 28 32
f 27 32 31
f 29 30 34
f 29 34 33
f 31 32 35
f 31 35 36
f 33 34 38
f 33 38 37
f 35 39 36
f 36 39 40
f 37 38 42
f 37 42 41
f 39 43 44
f 39 44 45
f 39 45 40
f 40 45 46
f 41 42 43
f 42 46 45
f 42 45 43
f 43 45 44

