# https://github.com/mikedh/trimesh
v 76.60817640 -25.16229245 -0.05847221
v 76.60817640 -32.53338331 -0.05847221
v 76.60817640 -25.16229245 -5.80333139
v 56.47073365 -25.16229245 -0.05847221
v 76.60817640 -32.53338331 -6.75676381
v 66.35613613 -32.53338331 -0.05847221
v 76.60817640 -26.43302074 -6.75676381
v 68.33321679 -26.36879737 -6.75676381
v 68.72942145 -25.16229245 -5.83742892
v 56.47073365 -25.16229245 -5.83087170
v 56.47073365 -29.71122628 -0.05847221
v 65.62286220 -32.53338331 -6.75676381
v 65.40800554 -32.52977539 -6.75676381
v 65.60709332 -32.53338331 -6.63938794
v 56.47073365 -30.62404424 -6.75676381
v 67.21162265 -26.36302503 -6.75676381
v 67.20373821 -26.36302503 -6.75676381
v 64.97631964 -26.36374761 -6.75676381
v 56.47073365 -26.36735553 -6.75676381
f 1 2 5
f 1 5 7
f 1 7 3
f 1 3 9
f 1 9 10
f 1 10 4
f 1 4 11
f 1 11 6
f 1 6 2
f 2 6 14
f 2 14 12
f 2 12 5
f 3 7 8
f 3 8 9
f 4 10 19
f 4 19 15
f 4 15 11
f 5 12 13
f 5 13 15
f 5 15 19
f 5 19 18
f 5 18 17
f 5 17 16
f 5 16 8
f 5 8 7
f 6 13 14
f 6 11 15
f 6 15 13
f 8 16 9
f 9 16 17
f 9 17 18
f 9 18 19
f 9 19 10
f 12 14 13

