# https://github.com/mikedh/trimesh
v 33.74511598 -71.50301625 62.70690353
v 32.65528366 -71.50301625 62.70690353
v 33.74511598 -72.61616054 62.68068794
v 33.74511598 -49.20868239 62.70596749
v 31.78291018 -71.50301625 62.47377548
v 31.79786346 -72.61616054 62.46066851
v 32.65528366 -72.61616054 62.68068794
v 32.65528366 -49.20868239 62.70596749
v 31.78291018 -49.20868239 62.47377548
v 33.74511598 -73.37823985 62.44756072
v 33.74511598 -48.11836835 62.68443373
v 31.39893369 -71.50301625 61.68357695
v 31.45190472 -72.61616054 61.68357695
v 31.90786030 -73.30973580 62.37921364
v 32.65528366 -73.37823985 62.44756072
v 32.65528366 -48.09553477 62.68349687
v 31.79254128 -48.09553477 62.46254141
v 31.40831063 -48.09553477 61.68357695
v 31.39893369 -49.20868239 61.68357695
v 33.74511598 -73.60086804 61.68357695
v 33.74511598 -48.09553477 62.68349687
v 31.32999609 -71.50301625 60.56849581
v 31.40602993 -72.61616054 60.56849581
v 31.80141159 -73.38680119 61.68357695
v 32.65528366 -73.60086804 61.68357695
v 32.65528366 -47.05088789 62.45130568
v 31.90076405 -47.21358002 62.38108654
v 31.67595316 -46.89676042 61.77813878
v 31.33430334 -46.97953338 60.56849581
v 31.32999609 -48.09553477 60.56849581
v 33.74511598 -73.62084784 60.56849581
v 33.74511598 -47.05088789 62.45130568
v 31.15587554 -70.38701486 53.14211867
v 31.16145187 -71.50301625 53.14211867
v 31.26663316 -72.65897391 53.14211867
v 31.79025891 -73.39536254 60.56849581
v 32.65528366 -73.62084784 60.56849581
v 32.65528366 -46.49146030 62.19758074
v 33.74511598 -46.49146030 62.19851677
v 31.84779301 -46.15751801 61.46917456
v 31.71827983 -45.97484608 60.56849581
v 31.32999609 -44.46496302 56.11098433
v 31.15587554 -44.46496302 53.14211867
v 33.74511598 -73.62084784 59.42907364
v 31.74742727 -73.39536254 53.14211867
v 32.03940004 -73.47242793 53.14211867
v 32.65528366 -73.62084784 53.14211867
v 32.65528366 -46.02336868 61.64050860
v 33.74511598 -46.02336868 61.64050860
v 32.65528366 -45.51817125 60.56849581
v 31.67443325 -44.46496302 57.29347485
v 33.74511598 -44.46496302 53.14211867
v 33.74511598 -73.43532213 53.14211867
v 33.74511598 -45.52387881 60.59283933
v 33.74511598 -45.51246369 60.56849581
v 33.74511598 -44.46496302 57.98630386
v 32.65528366 -44.46496302 57.96102514
v 32.42540474 -44.46496302 57.85710089
f 1 2 7
f 1 7 3
f 1 3 10
f 1 10 20
f 1 20 31
f 1 31 44
f 1 44 53
f 1 53 52
f 1 52 56
f 1 56 55
f 1 55 54
f 1 54 49
f 1 49 39
f 1 39 32
f 1 32 21
f 1 21 11
f 1 11 4
f 1 4 8
f 1 8 2
f 2 5 6
f 2 6 7
f 2 8 9
f 2 9 5
f 3 7 15
f 3 15 10
f 4 11 8
f 5 12 6
f 5 9 19
f 5 19 12
f 6 13 14
f 6 14 7
f 6 12 13
f 7 14 15
f 8 11 16
f 8 16 17
f 8 17 9
f 9 17 18
f 9 18 19
f 10 15 25
f 10 25 20
f 11 21 16
f 12 22 13
f 12 19 30
f 12 30 22
f 13 23 24
f 13 24 14
f 13 22 23
f 14 24 25
f 14 25 15
f 16 21 32
f 16 32 26
f 16 26 27
f 16 27 17
f 17 27 18
f 18 27 28
f 18 28 29
f 18 29 19
f 19 29 30
f 20 25 37
f 20 37 31
f 22 33 34
f 22 34 23
f 22 30 43
f 22 43 33
f 23 35 24
f 23 34 35
f 24 35 36
f 24 36 37
f 24 37 25
f 26 38 27
f 26 32 39
f 26 39 38
f 27 38 40
f 27 40 28
f 28 40 29
f 29 40 41
f 29 41 42
f 29 42 43
f 29 43 30
f 31 37 47
f 31 47 44
f 33 43 52
f 33 52 53
f 33 53 47
f 33 47 46
f 33 46 45
f 33 45 35
f 33 35 34
f 35 45 36
f 36 45 46
f 36 46 37
f 37 46 47
f 38 39 48
f 38 48 40
f 39 49 48
f 40 48 50
f 40 50 51
f 40 51 42
f 40 42 41
f 42 51 58
f 42 58 57
f 42 57 56
f 42 56 52
f 42 52 43
f 44 47 53
f 48 49 54
f 48 54 50
f 50 54 55
f 50 55 56
f 50 56 57
f 50 57 58
f 50 58 51

