# https://github.com/mikedh/trimesh
v 37.08548150 -32.51588522 -10.61311295
v 37.08548150 -32.51588522 -7.35509899
v 37.08548150 -32.48766301 -10.61311295
v 38.22969825 -32.51588522 -10.61311295
v 37.17276933 -29.71890060 -1.49923885
v 37.11584321 -29.71890060 -1.49923885
v 37.08548150 -29.71966471 -1.50280732
v 56.47073365 -32.51588522 -7.37740225
v 56.47073365 -29.71127280 -1.49923885
v 37.08548150 -30.26960395 -10.61222094
v 56.47073365 -30.29782616 -10.61222094
v 56.47073365 -32.51588522 -10.61222094
v 37.08548150 -29.69068172 -1.49923885
v 56.47073365 -24.72445464 -1.49923885
v 37.08548150 -29.18345617 -10.58902607
v 42.68891240 -29.18345617 -10.58991809
v 56.47073365 -29.18345617 -10.58991809
v 37.08548150 -24.72445464 -1.49923885
v 56.47073365 -24.72445464 -5.63777263
v 37.08548150 -29.15446986 -10.58188830
v 52.71930000 -28.06908618 -10.31693017
v 56.47073365 -28.06908618 -10.31693017
v 37.08548150 -24.72445464 -4.28443023
v 56.47073365 -26.98065105 -9.35968758
v 41.57316037 -24.72445464 -5.63866464
v 37.08548150 -28.06908618 -10.31336128
v 38.22969825 -28.06908618 -10.31425412
v 47.14623039 -28.06908618 -10.31603815
v 56.06466035 -27.42685585 -9.99219877
v 56.47073365 -27.66101873 -10.11085079
v 37.08548150 -24.72521709 -5.63866464
v 37.11394456 -24.72445464 -5.63866464
v 56.47073365 -27.42685585 -9.99219877
v 50.48969251 -26.98065105 -9.35968758
v 37.08548150 -28.05306813 -10.30533232
v 37.08548150 -27.42990730 -9.98952273
v 42.68891240 -27.42914485 -9.99041474
v 50.48969251 -27.42761830 -9.99130676
v 38.22969825 -26.98217594 -9.35968758
v 37.08548150 -26.98293839 -9.35968758
v 44.91852030 -27.42838074 -9.99041474
f 1 2 7
f 1 7 13
f 1 13 18
f 1 18 23
f 1 23 31
f 1 31 40
f 1 40 36
f 1 36 35
f 1 35 26
f 1 26 20
f 1 20 15
f 1 15 10
f 1 10 3
f 1 3 4
f 1 4 12
f 1 12 8
f 1 8 2
f 2 5 6
f 2 6 7
f 2 8 9
f 2 9 5
f 3 10 11
f 3 11 4
f 4 11 12
f 5 9 14
f 5 14 18
f 5 18 13
f 5 13 6
f 6 13 7
f 8 12 11
f 8 11 17
f 8 17 22
f 8 22 30
f 8 30 33
f 8 33 24
f 8 24 19
f 8 19 14
f 8 14 9
f 10 15 16
f 10 16 17
f 10 17 11
f 14 19 25
f 14 25 32
f 14 32 23
f 14 23 18
f 15 20 16
f 16 20 21
f 16 21 22
f 16 22 17
f 19 24 25
f 20 26 27
f 20 27 28
f 20 28 21
f 21 28 29
f 21 29 30
f 21 30 22
f 23 32 31
f 24 33 29
f 24 29 34
f 24 34 32
f 24 32 25
f 26 35 27
f 27 35 36
f 27 36 37
f 27 37 29
f 27 29 28
f 29 33 30
f 29 37 36
f 29 36 38
f 29 38 39
f 29 39 34
f 31 32 40
f 32 39 40
f 32 34 39
f 36 40 39
f 36 39 41
f 36 41 38
f 38 41 39

