# https://github.com/mikedh/trimesh
v 96.22803970 -53.06190227 46.36476674
v 96.22803970 -69.66352971 46.36476674
v 96.22803970 -53.06190227 41.55242870
v 76.61015439 -53.06190227 46.36476674
v 96.22803970 -69.64558643 43.84831102
v 93.96569181 -69.68310419 46.36476674
v 96.22803970 -54.78291202 41.47906425
v 76.61015439 -53.06190227 41.55242870
v 76.61015439 -69.72551889 46.36476674
v 96.22803970 -69.59990931 42.78764026
v 76.61015439 -69.72551889 43.84831102
v 76.61015439 -69.68963234 42.90991518
v 76.61015439 -69.72715010 45.02502255
v 76.61015439 -69.72715010 44.96268660
v 96.22803970 -54.81390828 41.47858503
v 76.61015439 -54.78291202 41.47906425
v 96.22803970 -69.59664690 42.73345579
v 76.61015439 -69.68147298 42.73345579
v 96.22803970 -55.89708288 41.46803534
v 76.61015439 -55.89708288 41.46803534
v 76.61015439 -55.26087893 41.47426947
v 95.07958028 -69.13988568 41.82862510
v 96.22803970 -69.13499206 41.84588733
v 76.61015439 -69.43188835 42.23764527
v 96.22803970 -58.12705579 41.46611759
v 76.61015439 -58.12705579 41.46611759
v 95.07958028 -68.15784924 41.48098200
v 96.22803970 -68.19210791 41.50831386
v 76.61015439 -69.23613022 41.85739547
v 96.22803970 -67.04367839 41.48098200
v 78.36164878 -68.15784924 41.48098200
v 76.61015439 -67.04367839 41.48098200
v 96.22803970 -67.07467464 41.48146206
v 96.22803970 -68.15784924 41.49920351
v 76.61015439 -68.15784924 41.50783463
v 76.61015439 -67.52164861 41.48865466
f 1 2 5
f 1 5 10
f 1 10 17
f 1 17 23
f 1 23 28
f 1 28 34
f 1 34 33
f 1 33 30
f 1 30 25
f 1 25 19
f 1 19 15
f 1 15 7
f 1 7 3
f 1 3 8
f 1 8 4
f 1 4 9
f 1 9 6
f 1 6 2
f 2 6 5
f 3 7 16
f 3 16 8
f 4 8 16
f 4 16 21
f 4 21 20
f 4 20 26
f 4 26 32
f 4 32 36
f 4 36 35
f 4 35 29
f 4 29 24
f 4 24 18
f 4 18 12
f 4 12 11
f 4 11 14
f 4 14 13
f 4 13 9
f 5 6 11
f 5 11 12
f 5 12 10
f 6 9 13
f 6 13 14
f 6 14 11
f 7 15 16
f 10 12 18
f 10 18 17
f 15 19 20
f 15 20 21
f 15 21 16
f 17 22 23
f 17 18 24
f 17 24 22
f 19 25 26
f 19 26 20
f 22 27 28
f 22 28 23
f 22 24 29
f 22 29 27
f 25 30 27
f 25 27 31
f 25 31 26
f 26 31 32
f 27 30 33
f 27 33 34
f 27 34 28
f 27 29 31
f 29 35 31
f 31 35 36
f 31 36 32

