# https://github.com/mikedh/trimesh
v 112.98362661 -36.00906625 61.48670409
v 112.98362661 -36.15802962 62.14616693
v 113.51712926 -36.20768408 62.06244238
v 113.57371203 -36.15802962 61.48670409
v 113.28271147 -36.08412532 56.98898483
v 112.98362661 -36.00906625 56.98898483
v 32.13356661 -36.00906625 61.48670409
v 112.16720525 -36.71577695 62.46964587
v 112.98362661 -36.71577695 62.45605398
v 32.13356661 -36.15802962 62.14616693
v 113.59796248 -36.71577695 62.16900063
v 113.80004797 -36.71577695 61.48670409
v 113.68688243 -36.43286160 56.98898483
v 113.57371203 -36.15802962 56.98898483
v 32.13356661 -36.00906625 56.98898483
v 31.84256361 -36.08239332 56.98898483
v 31.54348119 -36.15802962 61.48670409
v 31.60006396 -36.20768408 62.06244238
v 112.16720525 -37.53218979 62.54249703
v 32.94998797 -36.71577695 62.46964587
v 112.98362661 -37.53218979 62.51585732
v 32.13356661 -36.71577695 62.45605398
v 113.62221294 -37.53218979 62.19183432
v 113.84046701 -37.53218979 61.48670409
v 113.82429842 -37.11820983 56.98898483
v 113.80004797 -36.71577695 56.98898483
v 31.54348119 -36.15802962 56.98898483
v 31.31714525 -36.71577695 61.48670409
v 31.51923074 -36.71577695 62.16900063
v 112.16720525 -40.79899592 62.54249703
v 32.94998797 -37.53218979 62.54249703
v 112.98362661 -40.79899592 62.51585732
v 32.13356661 -37.53218979 62.51585732
v 113.62221294 -40.79899592 62.19183432
v 113.84046701 -37.53218979 56.98898483
v 113.84046701 -40.79899592 61.48670409
v 31.31714525 -36.71577695 56.98898483
v 31.29289480 -37.12975722 56.98898483
v 31.27672621 -37.53218979 61.48670409
v 31.49498028 -37.53218979 62.19183432
v 112.16720525 -41.55305184 62.21901749
v 112.98362661 -41.54208169 62.20542560
v 32.94998797 -40.79899592 62.54249703
v 113.54137972 -41.42314185 62.09288751
v 32.13356661 -40.79899592 62.51585732
v 113.84046701 -40.79899592 59.03696106
v 113.71113289 -40.79899592 58.22038025
v 113.48479695 -41.31228525 57.74141373
v 113.70304616 -38.02353866 56.98898483
v 113.62221294 -41.53111154 61.48670409
v 31.27672621 -37.53218979 56.98898483
v 31.27672621 -40.79899592 61.48670409
v 31.49498028 -40.79899592 62.19183432
v 112.16720525 -41.90294319 61.48670409
v 32.94998797 -41.55305184 62.21901749
v 112.98362661 -41.87869334 61.48670409
v 32.13356661 -41.54208169 62.20542560
v 31.57581350 -41.42314185 62.09288751
v 113.62221294 -41.53111154 59.03696106
v 113.57371203 -41.44796908 58.22038025
v 112.98362661 -41.70086075 58.22038025
v 112.98362661 -41.36424924 57.70661913
v 112.98362661 -38.75738643 56.98898483
v 113.31504622 -38.57897645 56.98898483
v 113.59796248 -38.39363832 56.98898483
v 112.98362661 -41.88100288 60.67012328
v 31.40606033 -40.79899592 58.22038025
v 31.27672621 -40.79899592 59.03696106
v 31.38989661 -37.94617006 56.98898483
v 31.63239627 -41.31228525 57.74141373
v 31.49498028 -41.53111154 61.48670409
v 112.16720525 -41.90640750 60.67012328
v 32.94998797 -41.90294319 61.48670409
v 32.13356661 -41.87869334 61.48670409
v 112.98362661 -41.88100288 59.03696106
v 112.16720525 -41.90640750 59.03696106
v 112.16720525 -41.71414044 58.22038025
v 32.13356661 -41.36424924 57.70661913
v 32.13356661 -38.75738643 56.98898483
v 31.54348119 -41.44796908 58.22038025
v 31.49498028 -41.53111154 59.03696106
v 31.51923074 -38.39363832 56.98898483
v 32.11740046 -38.74872582 56.98898483
v 32.13356661 -41.70086075 58.22038025
v 32.13356661 -41.88100288 60.67012328
v 32.94998797 -41.90640750 60.67012328
v 32.94998797 -41.90640750 59.03696106
v 32.94998797 -41.71414044 58.22038025
v 32.13356661 -41.88100288 59.03696106
f 1 2 3
f 1 3 4
f 1 4 5
f 1 5 6
f 1 6 15
f 1 15 7
f 1 7 10
f 1 10 2
f 2 8 9
f 2 9 3
f 2 10 20
f 2 20 8
f 3 9 11
f 3 11 12
f 3 12 4
f 4 12 13
f 4 13 14
f 4 14 5
f 5 14 13
f 5 13 26
f 5 26 25
f 5 25 35
f 5 35 49
f 5 49 65
f 5 65 64
f 5 64 63
f 5 63 79
f 5 79 83
f 5 83 82
f 5 82 69
f 5 69 51
f 5 51 38
f 5 38 37
f 5 37 27
f 5 27 16
f 5 16 15
f 5 15 6
f 7 15 16
f 7 16 17
f 7 17 18
f 7 18 10
f 8 19 9
f 8 20 31
f 8 31 19
f 9 21 11
f 9 19 21
f 10 18 22
f 10 22 20
f 11 23 24
f 11 24 12
f 11 21 23
f 12 24 25
f 12 25 26
f 12 26 13
f 16 27 17
f 17 27 37
f 17 37 28
f 17 28 18
f 18 28 29
f 18 29 22
f 19 30 32
f 19 32 21
f 19 31 43
f 19 43 30
f 20 22 31
f 21 32 34
f 21 34 23
f 22 29 33
f 22 33 31
f 23 34 36
f 23 36 24
f 24 35 25
f 24 36 46
f 24 46 35
f 28 37 38
f 28 38 39
f 28 39 29
f 29 39 40
f 29 40 33
f 30 41 42
f 30 42 32
f 30 43 55
f 30 55 41
f 31 33 45
f 31 45 43
f 32 42 44
f 32 44 34
f 33 40 53
f 33 53 45
f 34 44 36
f 35 46 47
f 35 47 48
f 35 48 49
f 36 44 50
f 36 50 59
f 36 59 46
f 38 51 39
f 39 51 68
f 39 68 52
f 39 52 53
f 39 53 40
f 41 54 42
f 41 55 73
f 41 73 54
f 42 56 44
f 42 54 56
f 43 45 57
f 43 57 55
f 44 56 50
f 45 53 58
f 45 58 57
f 46 59 60
f 46 60 47
f 47 60 48
f 48 60 61
f 48 61 62
f 48 62 63
f 48 63 64
f 48 64 65
f 48 65 49
f 50 56 66
f 50 66 75
f 50 75 59
f 51 67 68
f 51 69 70
f 51 70 67
f 52 71 58
f 52 58 53
f 52 68 81
f 52 81 71
f 54 72 56
f 54 73 86
f 54 86 72
f 55 57 73
f 56 72 66
f 57 58 74
f 57 74 73
f 58 71 74
f 59 75 60
f 60 75 61
f 61 75 76
f 61 76 77
f 61 77 62
f 62 77 88
f 62 88 78
f 62 78 79
f 62 79 63
f 66 72 76
f 66 76 75
f 67 80 68
f 67 70 80
f 68 80 81
f 69 82 70
f 70 83 79
f 70 79 78
f 70 78 84
f 70 84 80
f 70 82 83
f 71 85 74
f 71 81 89
f 71 89 85
f 72 86 87
f 72 87 76
f 73 74 86
f 74 85 86
f 76 87 88
f 76 88 77
f 78 88 84
f 80 84 89
f 80 89 81
f 84 88 87
f 84 87 89
f 85 89 87
f 85 87 86

