# https://github.com/mikedh/trimesh
v 106.14021529 -34.15447388 6.26343797
v 106.13443464 -47.04606324 6.26343797
v 105.58518974 -52.59230224 -2.51821564
v 105.58808006 -37.14091103 -2.51821564
v 105.58808006 -34.15447388 -2.51821564
v 76.60817806 -34.15447388 6.26343797
v 106.13154432 -48.15893158 6.26343797
v 105.57651544 -52.74524697 -2.51821564
v 106.12865399 -49.24765409 6.26343797
v 106.10841507 -50.36454896 6.26343797
v 76.60817806 -34.15447388 -2.51821564
v 76.60817806 -50.81734337 6.26343797
v 105.52159261 -53.70718384 -2.51821564
v 106.04482126 -51.47742063 6.26343797
v 76.60817806 -50.81734337 -2.51821564
v 90.04444428 -53.16181596 -1.82709894
v 98.42476706 -54.61881245 5.13134730
v 98.42476706 -54.61076272 6.26343797
v 105.45221151 -53.81384350 -2.51821564
v 105.91184635 -52.59230224 6.26343797
v 105.74996155 -53.42745681 6.26343797
v 105.57073479 -53.97684789 6.26343797
v 105.56784446 -53.98490094 6.26343797
v 90.04444428 -53.16181596 -2.15202676
v 98.42476706 -54.61881245 -2.51821564
v 99.53771181 -54.70937266 5.13134730
v 103.99815850 -54.70333620 6.26343797
v 105.00703493 -54.48800362 -2.51821564
v 105.00992526 -54.48800362 6.26343797
v 105.00992526 -54.48800362 5.13134730
v 99.53771181 -54.70937266 -2.51821564
v 103.99815850 -54.71138260 -2.51821564
v 100.65354690 -54.70937266 5.13134730
v 103.99815850 -54.70937266 4.01644866
v 104.01261345 -54.70132294 6.26343797
f 1 2 3
f 1 3 4
f 1 4 5
f 1 5 11
f 1 11 6
f 1 6 12
f 1 12 18
f 1 18 27
f 1 27 35
f 1 35 29
f 1 29 23
f 1 23 22
f 1 22 21
f 1 21 20
f 1 20 14
f 1 14 10
f 1 10 9
f 1 9 7
f 1 7 2
f 2 7 3
f 3 8 13
f 3 13 19
f 3 19 28
f 3 28 32
f 3 32 31
f 3 31 25
f 3 25 15
f 3 15 11
f 3 11 5
f 3 5 4
f 3 7 9
f 3 9 10
f 3 10 8
f 6 11 15
f 6 15 12
f 8 10 13
f 10 14 13
f 12 15 24
f 12 24 16
f 12 16 17
f 12 17 18
f 13 14 20
f 13 20 21
f 13 21 22
f 13 22 23
f 13 23 19
f 15 25 24
f 16 24 25
f 16 25 17
f 17 25 31
f 17 31 26
f 17 26 18
f 18 26 27
f 19 23 28
f 23 29 30
f 23 30 28
f 26 32 33
f 26 33 27
f 26 31 32
f 27 33 34
f 27 34 35
f 28 30 32
f 29 35 34
f 29 34 32
f 29 32 30
f 32 34 33

