# https://github.com/mikedh/trimesh
v 35.92823239 -44.21883515 50.59544783
v 35.92823239 -44.21883515 57.75728497
v 35.92823239 -37.69462511 50.59544783
v 56.47078615 -44.21883515 50.59544783
v 35.92823239 -39.17559993 59.75306008
v 56.47078615 -44.21883515 57.75728497
v 56.47078615 -39.17559993 59.75395542
v 35.92823239 -37.69462511 52.83778084
v 56.47078615 -37.69462511 50.59544783
v 37.11461654 -38.15635137 59.43746472
v 35.92823239 -38.22213120 59.45719036
v 56.47078615 -38.15635137 59.43746472
v 35.92823239 -37.69526463 58.33916159
v 56.47078615 -37.69462511 53.47524515
v 35.92823239 -37.72463965 58.40909419
v 35.92823239 -38.15635137 59.43656855
v 56.47078615 -37.98839353 59.03759310
v 56.47078615 -37.69526463 58.33916159
f 1 2 5
f 1 5 11
f 1 11 16
f 1 16 15
f 1 15 13
f 1 13 8
f 1 8 3
f 1 3 9
f 1 9 4
f 1 4 6
f 1 6 2
f 2 6 7
f 2 7 5
f 3 8 14
f 3 14 9
f 4 9 14
f 4 14 18
f 4 18 17
f 4 17 12
f 4 12 7
f 4 7 6
f 5 10 11
f 5 7 10
f 7 12 10
f 8 13 14
f 10 13 15
f 10 15 16
f 10 16 11
f 10 12 17
f 10 17 13
f 13 17 18
f 13 18 14

