# https://github.com/mikedh/trimesh
v 31.27672621 -18.62258188 -4.90570811
v 31.27672621 -18.62258188 4.89423345
v 31.29289480 -18.21996521 4.89423345
v 31.29289480 -18.22023420 -4.90570811
v 31.51923074 -19.48513953 -4.90570811
v 31.49498028 -19.43911857 -4.49218032
v 31.49498028 -19.43911857 4.49221866
v 31.38989661 -19.03650190 4.89423345
v 31.31714525 -17.80604520 -4.90570811
v 31.31714525 -17.80604520 4.89423345
v 31.51923074 -19.48379398 4.89423345
v 31.79406514 -19.66384087 -4.90570811
v 31.54348119 -17.24841046 -4.90570811
v 31.54348119 -17.24841046 4.89423345
v 32.11740046 -19.83904382 4.89423345
v 32.12548232 -19.84442650 -4.90570811
v 32.13356661 -17.09904390 -4.90570811
v 32.13356661 -17.09904390 4.89423345
v 32.13356661 -19.84738691 4.89423345
v 32.13356661 -19.84792504 -4.90570811
v 112.98362661 -17.09904390 -4.90570811
v 112.98362661 -17.09904390 4.89423345
v 32.94998797 -19.84846332 -4.90570811
v 32.93382182 -19.84765605 4.89423345
v 113.57371203 -17.24841046 -4.90570811
v 113.57371203 -17.24841046 4.89423345
v 112.16720525 -19.84846332 -4.90570811
v 112.16720525 -19.84765605 4.89423345
v 113.68688243 -17.52319070 -4.90570811
v 113.68688243 -17.52319070 4.89423345
v 112.98362661 -19.84792504 -4.90570811
v 112.98362661 -19.84738691 4.89423345
v 113.80004797 -17.80604520 -4.90570811
v 113.80004797 -17.80604520 4.89423345
v 112.99171090 -19.84442650 -4.90570811
v 113.31504622 -19.66895441 4.89423345
v 113.82429842 -18.20866187 -4.90570811
v 113.82429842 -18.20866187 4.89423345
v 113.59796248 -19.48513953 -4.90570811
v 113.59796248 -19.48379398 4.89423345
v 113.84046701 -18.62258188 -4.90570811
v 113.84046701 -18.62258188 4.89423345
v 113.73538334 -19.02492926 -4.90570811
v 113.62221294 -19.43911857 -4.49218032
v 113.62221294 -19.43911857 4.49221866
v 113.70304616 -19.11347280 4.89423345
f 1 2 3
f 1 3 4
f 1 4 9
f 1 9 13
f 1 13 17
f 1 17 21
f 1 21 25
f 1 25 29
f 1 29 33
f 1 33 37
f 1 37 41
f 1 41 43
f 1 43 39
f 1 39 35
f 1 35 31
f 1 31 27
f 1 27 23
f 1 23 20
f 1 20 16
f 1 16 12
f 1 12 5
f 1 5 6
f 1 6 7
f 1 7 2
f 2 7 8
f 2 8 11
f 2 11 15
f 2 15 19
f 2 19 24
f 2 24 28
f 2 28 32
f 2 32 36
f 2 36 40
f 2 40 46
f 2 46 42
f 2 42 38
f 2 38 34
f 2 34 30
f 2 30 26
f 2 26 22
f 2 22 18
f 2 18 14
f 2 14 10
f 2 10 3
f 3 9 4
f 3 10 9
f 5 11 7
f 5 7 6
f 5 12 11
f 7 11 8
f 9 10 14
f 9 14 13
f 11 12 15
f 12 16 15
f 13 14 18
f 13 18 17
f 15 16 19
f 16 20 19
f 17 18 22
f 17 22 21
f 19 20 23
f 19 23 24
f 21 22 26
f 21 26 25
f 23 27 28
f 23 28 24
f 25 26 30
f 25 30 29
f 27 31 32
f 27 32 28
f 29 30 34
f 29 34 33
f 31 35 32
f 32 35 36
f 33 34 38
f 33 38 37
f 35 39 36
f 36 39 40
f 37 38 42
f 37 42 41
f 39 43 44
f 39 44 45
f 39 45 40
f 40 45 46
f 41 42 43
f 42 46 45
f 42 45 43
f 43 45 44

