# https://github.com/mikedh/trimesh
v 64.15876947 -30.29838429 10.61190780
v 56.47073344 -32.52798804 10.61295264
v 64.15876947 -32.54001445 10.61190780
v 64.15876947 -29.18322693 10.58788405
v 56.47073344 -29.89223043 10.60355161
v 56.47073344 -30.29838429 10.61190780
v 56.47073344 -32.54426024 10.61295264
v 63.86753263 -32.54426024 10.61190780
v 64.15876947 -32.54426024 8.17400875
v 64.15876947 -28.91009782 10.52730183
v 56.47073344 -29.18322693 10.58788405
v 56.47073344 -32.54426024 7.38017753
v 64.15876947 -32.54426024 7.26528044
v 64.15876947 -28.13317001 10.35495703
v 58.29491111 -28.13317001 10.35495703
v 56.47073344 -28.80183685 10.50327890
v 56.47073344 -29.71108675 -0.05781690
v 64.15876947 -29.76061763 -0.05781690
v 64.15876947 -27.98811388 10.29124197
v 56.47073344 -27.93079905 10.26617338
v 56.47073344 -28.13387764 10.35495703
v 56.47073344 -25.31626872 -0.05781690
v 64.15876947 -25.31626872 -0.05781690
v 64.15876947 -27.57559133 10.10949614
v 60.52395984 -27.57559133 10.10949614
v 56.47073344 -27.57629897 10.10949614
v 56.47073344 -25.31626872 5.66403844
v 64.15876947 -25.31626872 5.66508328
v 64.15876947 -27.11283029 9.55276878
v 60.52395984 -27.11212265 9.55276878
v 56.47073344 -27.40718668 9.90686023
v 58.29491111 -27.11212265 9.55276878
v 56.47073344 -26.59912310 8.47587419
v 59.40943547 -25.31626872 5.66508328
v 60.52395984 -26.59912310 8.47587419
v 64.15876947 -26.59983073 8.47587419
v 56.47073344 -27.11141502 9.55172477
f 1 2 7
f 1 7 3
f 1 3 9
f 1 9 13
f 1 13 18
f 1 18 23
f 1 23 28
f 1 28 36
f 1 36 29
f 1 29 24
f 1 24 19
f 1 19 14
f 1 14 10
f 1 10 4
f 1 4 5
f 1 5 6
f 1 6 2
f 2 6 5
f 2 5 11
f 2 11 16
f 2 16 21
f 2 21 20
f 2 20 26
f 2 26 31
f 2 31 37
f 2 37 33
f 2 33 27
f 2 27 22
f 2 22 17
f 2 17 12
f 2 12 7
f 3 7 8
f 3 8 9
f 4 10 11
f 4 11 5
f 7 12 13
f 7 13 9
f 7 9 8
f 10 14 15
f 10 15 11
f 11 15 16
f 12 17 18
f 12 18 13
f 14 19 20
f 14 20 15
f 15 20 21
f 15 21 16
f 17 22 23
f 17 23 18
f 19 24 20
f 20 24 25
f 20 25 26
f 22 27 34
f 22 34 28
f 22 28 23
f 24 29 30
f 24 30 32
f 24 32 25
f 25 31 26
f 25 32 31
f 27 33 34
f 28 34 33
f 28 33 35
f 28 35 36
f 29 36 35
f 29 35 30
f 30 35 37
f 30 37 32
f 31 32 37
f 33 37 35

