# https://github.com/mikedh/trimesh
v 106.92714130 -25.64169612 5.69168092
v 106.92714130 -30.49190321 5.69168092
v 106.92714130 -25.64169612 -1.49862985
v 76.60817806 -25.64169612 5.69168092
v 106.92714130 -30.53855373 5.68816186
v 105.81124974 -34.15163338 5.69168092
v 106.92714130 -30.17699726 -1.49862985
v 76.60817806 -25.64169612 -1.49862985
v 76.60817806 -34.15163338 5.69168092
v 105.58569804 -34.15163338 -1.49862985
v 76.60817806 -34.15163338 -1.49862985
f 1 2 5
f 1 5 7
f 1 7 3
f 1 3 8
f 1 8 4
f 1 4 9
f 1 9 6
f 1 6 2
f 2 6 5
f 3 7 10
f 3 10 11
f 3 11 8
f 4 8 11
f 4 11 9
f 5 6 7
f 6 10 7
f 6 9 11
f 6 11 10

