# https://github.com/mikedh/trimesh
v 105.80353039 -53.06190227 46.36476715
v 105.58633734 -53.06190227 55.64419294
v 105.58633734 -71.50174717 55.64419294
v 105.80066996 -68.78698684 46.36476715
v 76.60823415 -53.06190227 46.36476715
v 76.60823415 -53.06190227 55.64419294
v 105.78352734 -71.03285323 46.36476715
v 105.79781286 -69.90388191 46.36476715
v 105.52346444 -72.61663229 55.64419294
v 76.60823415 -69.72678798 46.36476715
v 76.60823415 -69.72678798 55.64419294
v 105.74351460 -71.50174717 46.36476715
v 105.22339544 -73.07144005 55.64419294
v 105.57204850 -72.65688092 46.36476715
v 90.03989817 -72.07528752 54.18724333
v 98.42468749 -73.52624780 46.36476715
v 98.42468749 -73.52825774 47.19224922
v 90.03989817 -72.07528752 54.47336505
v 98.42468749 -73.52825774 55.64419294
v 105.00620239 -73.39745221 55.64419294
v 105.47202328 -72.80579915 46.36476715
v 98.71046764 -73.55039697 46.36476715
v 99.53923043 -73.61881796 47.19224922
v 99.53923043 -73.61881796 55.64419294
v 105.00905950 -73.39543895 47.19224922
v 104.58610845 -73.49002570 55.64419294
v 103.99739887 -73.62083123 50.53669375
v 105.00620239 -73.39745221 48.30766944
v 105.00905950 -73.39543895 46.36476715
v 102.88285593 -73.60070858 46.36476715
v 103.99739887 -73.61278150 46.36476715
v 102.88285593 -73.61881796 47.19224922
v 103.99739887 -73.62083123 48.30766944
v 103.99739887 -73.61881796 55.64419294
v 103.99739887 -73.61680803 47.19224922
f 1 2 3
f 1 3 4
f 1 4 8
f 1 8 7
f 1 7 12
f 1 12 14
f 1 14 21
f 1 21 29
f 1 29 31
f 1 31 30
f 1 30 22
f 1 22 16
f 1 16 10
f 1 10 5
f 1 5 6
f 1 6 2
f 2 6 11
f 2 11 19
f 2 19 24
f 2 24 34
f 2 34 26
f 2 26 20
f 2 20 13
f 2 13 9
f 2 9 3
f 3 7 8
f 3 8 4
f 3 9 7
f 5 10 11
f 5 11 6
f 7 9 12
f 9 13 14
f 9 14 12
f 10 15 18
f 10 18 11
f 10 16 17
f 10 17 15
f 11 18 19
f 13 20 14
f 14 20 21
f 15 17 19
f 15 19 18
f 16 22 17
f 17 22 23
f 17 23 24
f 17 24 19
f 20 25 21
f 20 26 27
f 20 27 33
f 20 33 28
f 20 28 29
f 20 29 25
f 21 25 29
f 22 30 23
f 23 30 31
f 23 31 32
f 23 32 33
f 23 33 27
f 23 27 24
f 24 27 34
f 26 34 27
f 28 33 29
f 29 33 35
f 29 35 31
f 31 35 32
f 32 35 33

