# https://github.com/mikedh/trimesh
v 65.73149376 -49.20749303 62.70578726
v 56.47169229 -51.43455237 62.70683127
v 65.73149376 -51.43455237 62.70578726
v 65.73149376 -48.45854976 62.69011804
v 59.40991603 -48.09290358 62.68280668
v 56.47169229 -49.20749303 62.70578726
v 56.47169229 -51.43455237 59.47291606
v 65.73149376 -51.43455237 58.43986038
v 65.73149376 -48.09290358 62.68176267
v 60.52410194 -47.05031481 62.44987298
v 56.47169229 -47.04960884 62.44987298
v 56.47169229 -47.71384563 62.59819903
v 56.47169229 -48.09290358 62.68280668
v 56.47169229 -48.62090303 52.03574838
v 65.73149376 -49.55196342 52.03574838
v 65.73149376 -47.05102078 62.44882814
v 65.73149376 -46.49337390 62.19709320
v 59.40991603 -46.49266793 62.19813721
v 56.47169229 -46.49266793 62.19813721
v 56.47169229 -44.22396298 52.03574838
v 65.73149376 -44.22396298 52.03574838
v 65.73149376 -46.02113947 61.64034996
v 58.29482357 -46.02113947 61.64034996
v 56.47169229 -46.02184544 61.64034996
v 56.47169229 -44.22396298 57.75777168
v 65.73149376 -44.22396298 57.75881651
v 65.73149376 -45.50866806 60.56864531
v 61.63828795 -45.50796209 60.56864531
v 56.47169229 -45.83478653 61.25073401
v 56.47169229 -45.50866806 60.56864531
v 64.98265846 -44.22396298 57.75881651
f 1 2 3
f 1 3 8
f 1 8 15
f 1 15 21
f 1 21 26
f 1 26 27
f 1 27 22
f 1 22 17
f 1 17 16
f 1 16 9
f 1 9 4
f 1 4 5
f 1 5 13
f 1 13 6
f 1 6 2
f 2 6 13
f 2 13 12
f 2 12 11
f 2 11 19
f 2 19 24
f 2 24 29
f 2 29 30
f 2 30 25
f 2 25 20
f 2 20 14
f 2 14 7
f 2 7 8
f 2 8 3
f 4 9 5
f 5 9 10
f 5 10 11
f 5 11 12
f 5 12 13
f 7 14 15
f 7 15 8
f 9 16 10
f 10 16 17
f 10 17 18
f 10 18 11
f 11 18 19
f 14 20 21
f 14 21 15
f 17 22 18
f 18 22 23
f 18 23 19
f 19 23 24
f 20 25 31
f 20 31 26
f 20 26 21
f 22 27 28
f 22 28 23
f 23 28 29
f 23 29 24
f 25 30 28
f 25 28 31
f 26 31 28
f 26 28 27
f 28 30 29

