# https://github.com/mikedh/trimesh
v 33.74507083 -54.70923645 7.33737745
v 33.74507083 -54.70923645 8.47590990
v 33.74507083 -54.64727053 6.26816963
v 56.47073365 -54.70360197 8.47590990
v 36.00295492 -54.70923645 8.47590990
v 33.74507083 -54.68952243 9.59062540
v 33.77176482 -54.64445661 6.26816963
v 56.47073365 -54.48109342 7.68655037
v 33.74507083 -32.54568547 6.26816963
v 56.47073365 -54.68952243 9.59062540
v 33.74507083 -54.46701388 10.35489225
v 33.79400869 -54.64163937 6.26816963
v 56.47073365 -53.70653933 7.42031153
v 34.97522826 -32.54568547 6.26816963
v 33.74507083 -25.93520868 6.26859488
v 56.47073365 -54.46701388 10.35489225
v 33.74507083 -53.72343943 10.58200290
v 34.58816218 -54.42476197 6.26816963
v 56.47073365 -30.26426848 6.26859488
v 34.97522826 -32.57103728 6.26816963
v 56.47073365 -25.93520868 6.26859488
v 33.74507083 -26.60273434 8.47590990
v 48.25781803 -26.59991710 8.47590990
v 56.47073365 -53.70653933 10.58710665
v 33.74507083 -53.70653933 10.58710665
v 34.90849164 -53.70653933 6.26816963
v 34.96410549 -52.59117933 6.26816963
v 56.47073365 -26.59991710 8.47590990
v 33.74507083 -27.11534852 9.55064671
v 40.46088670 -27.11253129 9.55149720
v 49.37452603 -27.11253129 9.55234769
v 56.47073365 -53.29813966 10.59646283
v 33.74507083 -52.61652781 10.61219933
v 56.47073365 -27.11253129 9.55234769
v 33.74507083 -27.58008297 10.10821709
v 47.14556014 -27.57726573 10.10949282
v 53.83468202 -27.57726573 10.10991806
v 56.47073365 -52.59117933 10.61262457
v 33.74507083 -52.59117933 10.61262457
v 56.47073365 -27.57726573 10.10991806
v 33.74507083 -28.13776297 10.35361569
v 52.72019908 -28.13494573 10.35574274
v 37.11743787 -32.54568547 10.61304981
v 56.47073365 -30.29806868 10.61262457
v 34.87067488 -32.54568547 10.61304981
v 33.74507083 -30.29806868 10.61262457
v 56.47073365 -28.13494573 10.35574274
v 33.74507083 -29.18552258 10.58583092
v 36.00295492 -29.18552258 10.58625616
v 43.80655975 -29.18552258 10.58710665
v 48.25781803 -29.18552258 10.58753189
v 52.72019908 -29.18552258 10.58795714
v 37.11743787 -32.52878537 10.61304981
v 56.47073365 -29.89248292 10.60369280
v 34.88624776 -32.52878537 10.61304981
v 56.47073365 -29.18552258 10.58795714
f 1 2 6
f 1 6 11
f 1 11 17
f 1 17 25
f 1 25 33
f 1 33 39
f 1 39 46
f 1 46 48
f 1 48 41
f 1 41 35
f 1 35 29
f 1 29 22
f 1 22 15
f 1 15 9
f 1 9 3
f 1 3 4
f 1 4 5
f 1 5 2
f 2 5 10
f 2 10 6
f 3 7 8
f 3 8 4
f 3 9 14
f 3 14 20
f 3 20 27
f 3 27 26
f 3 26 18
f 3 18 12
f 3 12 7
f 4 10 5
f 4 8 13
f 4 13 19
f 4 19 21
f 4 21 28
f 4 28 34
f 4 34 40
f 4 40 47
f 4 47 56
f 4 56 54
f 4 54 44
f 4 44 38
f 4 38 32
f 4 32 24
f 4 24 16
f 4 16 10
f 6 10 16
f 6 16 11
f 7 12 8
f 8 12 13
f 9 15 21
f 9 21 14
f 11 16 17
f 12 18 13
f 13 18 19
f 14 21 19
f 14 19 20
f 15 22 23
f 15 23 28
f 15 28 21
f 16 24 17
f 17 24 25
f 18 26 19
f 19 26 27
f 19 27 20
f 22 29 30
f 22 30 23
f 23 30 31
f 23 31 34
f 23 34 28
f 24 32 33
f 24 33 25
f 29 35 30
f 30 36 31
f 30 35 36
f 31 36 37
f 31 37 40
f 31 40 34
f 32 38 33
f 33 38 39
f 35 41 36
f 36 41 42
f 36 42 37
f 37 42 47
f 37 47 40
f 38 43 45
f 38 45 39
f 38 44 53
f 38 53 43
f 39 45 46
f 41 48 49
f 41 49 42
f 42 49 50
f 42 50 51
f 42 51 52
f 42 52 56
f 42 56 47
f 43 53 55
f 43 55 45
f 44 54 46
f 44 46 55
f 44 55 53
f 45 55 46
f 46 54 52
f 46 52 51
f 46 51 50
f 46 50 49
f 46 49 48
f 52 54 56

