# https://github.com/mikedh/trimesh
v 32.95082537 -25.97388620 -10.44924792
v 32.95082537 -26.79065445 -10.37617402
v 32.12801642 -26.79065445 -10.36242268
v 32.12801642 -25.97388620 -10.42174647
v 32.95082537 -23.92286740 -10.44924792
v 112.16637272 -25.97388620 -10.44924792
v 32.12801642 -27.34811453 -10.05244679
v 112.16637272 -26.79065445 -10.37617402
v 31.60367645 -27.29842234 -9.96876544
v 31.52301363 -26.79065445 -10.07523362
v 31.49880700 -25.97388620 -10.09802045
v 31.80534567 -23.92286740 -10.25634704
v 32.12801642 -23.92286740 -10.42174647
v 112.16637272 -23.92286740 -10.44924792
v 112.56971116 -23.92286740 -10.43588973
v 112.98918167 -25.97388620 -10.42174647
v 112.98918167 -26.79065445 -10.36242268
v 32.95082537 -27.49754042 -9.39320850
v 32.12801642 -27.46219627 -9.39320850
v 112.98918167 -27.34811453 -10.05244679
v 31.57947955 -27.31312001 -9.39320850
v 31.40200967 -26.79065445 -9.39320850
v 31.36167826 -25.97388620 -9.39320850
v 31.35360613 -23.92286740 -9.39320850
v 31.49880700 -23.92286740 -10.09802045
v 112.98918167 -23.92286740 -10.42174647
v 113.61838622 -25.97388620 -10.09802045
v 113.59418933 -26.79065445 -10.07523362
v 113.51351677 -27.29842234 -9.96876544
v 32.95082537 -27.49754042 -8.57642748
v 112.16637272 -27.49754042 -9.39320850
v 32.95082537 -27.47724387 -7.76004020
v 32.38615156 -27.32816761 -7.76004020
v 112.98918167 -27.46219627 -9.39320850
v 31.66014237 -27.25188013 -8.90290425
v 32.46681925 -27.27182705 -7.20687634
v 31.60367645 -26.79065445 -8.83886584
v 31.58754194 -25.97388620 -8.81529395
v 31.57947955 -23.92286740 -8.77168476
v 31.47461010 -23.92286740 -9.05415981
v 113.61838622 -23.92286740 -10.09802045
v 113.76358709 -23.92286740 -9.39320850
v 113.75552470 -25.97388620 -9.39320850
v 113.71519329 -26.79065445 -9.39320850
v 113.53772340 -27.31312001 -9.39320850
v 39.48489832 -27.49754042 -7.76004020
v 36.21786184 -27.49334126 -7.76004020
v 112.16637272 -27.49754042 -8.57642748
v 32.95082537 -27.32816761 -7.03912051
v 36.21786184 -27.34391506 -6.99708327
v 112.73104653 -27.32816761 -7.76004020
v 112.16637272 -27.47759380 -7.76004020
v 32.41841815 -26.79065445 -7.11769471
v 33.00729129 -26.87044153 -6.67453545
v 32.33775289 -23.92286740 -7.01201220
v 113.53772340 -23.92286740 -8.77168476
v 113.52965128 -25.97388620 -8.81529395
v 113.51351677 -26.79065445 -8.83886584
v 113.45705085 -27.25188013 -8.90290425
v 112.65037884 -27.27182705 -7.20687634
v 42.75193479 -27.34811453 -6.96015318
v 39.48489832 -27.34811453 -6.96879615
v 105.63229977 -27.49754042 -7.76004020
v 108.89933625 -27.49334126 -7.76004020
v 42.75193479 -26.98697278 -6.55156640
v 112.16637272 -27.32816761 -7.03912051
v 108.89933625 -27.34391506 -6.99708327
v 32.88629219 -25.97388620 -6.69221452
v 33.31382996 -26.65137683 -6.52603003
v 32.95082537 -23.92286740 -6.55392341
v 32.80562451 -23.92286740 -6.65371310
v 112.77944520 -23.92286740 -7.01201220
v 112.69877994 -26.79065445 -7.11769471
v 112.10990680 -26.87044153 -6.67453545
v 102.36526330 -27.34811453 -6.96015318
v 105.63229977 -27.34811453 -6.96879615
v 102.36526330 -26.98697278 -6.55156640
v 42.75193479 -23.92286740 -6.43606212
v 36.37919722 -23.92286740 -6.45767014
v 33.15249459 -23.92286740 -6.46906326
v 111.80336812 -26.65137683 -6.52603003
v 112.53744457 -23.92286740 -6.80889762
v 112.23090589 -25.97388620 -6.69221452
v 111.96470350 -23.92286740 -6.46906326
v 102.36526330 -23.92286740 -6.43606212
v 108.73800087 -23.92286740 -6.45767014
v 112.31157358 -23.92286740 -6.65371310
f 1 2 3
f 1 3 4
f 1 4 13
f 1 13 5
f 1 5 14
f 1 14 6
f 1 6 8
f 1 8 2
f 2 7 3
f 2 8 20
f 2 20 7
f 3 7 9
f 3 9 10
f 3 10 4
f 4 10 11
f 4 11 12
f 4 12 13
f 5 13 12
f 5 12 25
f 5 25 24
f 5 24 40
f 5 40 39
f 5 39 55
f 5 55 71
f 5 71 70
f 5 70 80
f 5 80 79
f 5 79 78
f 5 78 85
f 5 85 86
f 5 86 84
f 5 84 87
f 5 87 82
f 5 82 72
f 5 72 56
f 5 56 42
f 5 42 41
f 5 41 26
f 5 26 15
f 5 15 14
f 6 14 15
f 6 15 16
f 6 16 17
f 6 17 8
f 7 18 19
f 7 19 9
f 7 20 31
f 7 31 18
f 8 17 20
f 9 21 22
f 9 22 10
f 9 19 21
f 10 22 23
f 10 23 11
f 11 23 24
f 11 24 25
f 11 25 12
f 15 26 16
f 16 26 41
f 16 41 27
f 16 27 28
f 16 28 17
f 17 28 29
f 17 29 20
f 18 30 19
f 18 31 48
f 18 48 63
f 18 63 46
f 18 46 30
f 19 30 32
f 19 32 33
f 19 33 21
f 20 29 34
f 20 34 31
f 21 35 22
f 21 33 36
f 21 36 35
f 22 35 37
f 22 37 23
f 23 37 38
f 23 38 39
f 23 39 40
f 23 40 24
f 27 41 42
f 27 42 43
f 27 43 28
f 28 43 44
f 28 44 29
f 29 44 45
f 29 45 34
f 30 46 47
f 30 47 32
f 31 34 48
f 32 49 36
f 32 36 33
f 32 47 50
f 32 50 49
f 34 45 51
f 34 51 52
f 34 52 48
f 35 36 53
f 35 53 37
f 36 49 54
f 36 54 53
f 37 53 55
f 37 55 38
f 38 55 39
f 42 56 43
f 43 56 57
f 43 57 58
f 43 58 44
f 44 58 59
f 44 59 45
f 45 59 60
f 45 60 51
f 46 61 62
f 46 62 47
f 46 63 75
f 46 75 61
f 47 62 50
f 48 52 64
f 48 64 63
f 49 50 65
f 49 65 54
f 50 62 65
f 51 60 52
f 52 60 66
f 52 66 67
f 52 67 64
f 53 54 68
f 53 68 55
f 54 69 70
f 54 70 68
f 54 65 69
f 55 68 71
f 56 72 57
f 57 72 58
f 58 72 73
f 58 73 59
f 59 73 60
f 60 73 74
f 60 74 66
f 61 65 62
f 61 75 77
f 61 77 65
f 63 64 76
f 63 76 75
f 64 67 76
f 65 77 81
f 65 81 69
f 66 74 77
f 66 77 67
f 67 77 76
f 68 70 71
f 69 78 79
f 69 79 80
f 69 80 70
f 69 81 85
f 69 85 78
f 72 82 73
f 73 82 83
f 73 83 74
f 74 83 84
f 74 84 81
f 74 81 77
f 75 76 77
f 81 84 86
f 81 86 85
f 82 87 83
f 83 87 84

