# https://github.com/mikedh/trimesh
v 32.69973821 -37.63403291 53.14211867
v 31.51744702 -38.00372388 53.14211867
v 33.74511432 -37.68684614 53.14211867
v 30.42535726 32.16369970 52.55639908
v 27.08224172 32.16369970 52.55639908
v 31.15583235 -39.16561169 53.14211867
v 33.74511432 -73.43072086 53.14211867
v 33.74511432 -37.67628317 52.76634888
v 32.24228431 33.28333560 50.53580081
v 32.20845919 33.28333560 51.65107463
v 32.13597513 33.28333560 52.25284135
v 31.53999655 33.28333560 52.41732415
v 31.53999655 32.16369970 52.43470847
v 30.42535726 33.28333560 52.53767758
v 27.08224172 33.28333560 52.53767758
v 26.23337622 33.28333560 52.37319477
v 26.21968537 32.16369970 52.38255552
v 27.08224172 -67.04033956 52.55639908
v 31.15583235 -70.37812461 53.14211867
v 33.03074698 -73.55746996 53.14211867
v 33.74511432 -73.61028320 44.96344199
v 33.74511432 -37.66572019 51.65107463
v 32.24228431 33.28333560 42.73423069
v 32.16255284 33.91709107 50.53580081
v 32.14644509 33.89596512 51.65107463
v 32.11906174 33.86427784 52.23278223
v 31.53999655 33.93821703 52.30365710
v 30.42535726 34.00159158 52.36383360
v 27.08224172 34.00159158 52.36383360
v 26.33968706 33.94877835 52.31168066
v 25.77672796 33.28333560 51.65107463
v 25.72599111 32.16369970 51.65107463
v 26.21968537 -31.37040487 52.38255552
v 26.22049267 -65.92070367 52.38255552
v 26.22129665 -67.04033956 52.38255552
v 31.26616972 -72.65964832 53.14211867
v 31.16066451 -71.49776383 53.14211867
v 32.65463749 -73.62084784 53.14211867
v 33.74511432 -73.62084784 43.84816733
v 33.74511432 -37.66572019 46.07871582
v 32.16980025 33.28333560 42.01211097
v 32.14080729 33.88540380 42.07629947
v 32.16255284 33.91709107 42.73423069
v 33.74511432 -37.97203661 44.96344199
v 33.74511432 -38.43679107 44.28812603
v 33.74511432 -46.97138067 41.77407933
v 33.74511432 -48.05932929 41.50662700
v 31.53999655 34.13890533 50.53580081
v 31.53999655 34.09665673 51.65107463
v 30.42535726 34.22340583 51.65107463
v 27.08224172 34.22340583 51.65107463
v 26.17619427 34.03327886 51.65107463
v 25.61082324 33.28333560 50.53580081
v 25.53753189 32.16369970 50.53580081
v 25.72599111 -22.44499875 51.65107463
v 25.72679509 -65.92070367 51.65107463
v 25.73726670 -67.04033956 51.65107463
v 26.32277367 -67.90647393 52.32371621
v 31.74697877 -73.38846895 53.14211867
v 32.65463749 -73.62084784 42.73423069
v 32.03852463 -73.47296945 53.14211867
v 31.63986396 -73.38846895 51.65107463
v 31.61892404 -73.38846895 50.53580081
v 33.74511432 -73.62084784 42.73423069
v 31.84765016 33.28333560 41.45447406
v 33.74511432 -48.09101656 41.50261543
v 31.17757790 33.96990431 40.86741728
v 31.54563434 34.03327886 41.66977262
v 31.53999655 34.13890533 42.73423069
v 30.42535726 34.28678371 50.53580081
v 27.08224172 34.28678371 50.53580081
v 25.51820325 34.28678371 43.84816733
v 25.51820325 34.08609209 44.96344199
v 25.51820325 33.86427784 45.58125582
v 25.51820325 33.28333560 45.73905226
v 25.51820325 32.16369970 45.83667219
v 25.51820325 31.04406048 45.83800938
v 25.53753189 -65.92070367 50.53580081
v 25.55686053 -67.04033956 50.53580081
v 26.13592572 -68.10716555 51.65107463
v 26.57244136 -68.66698183 51.65107463
v 30.50106221 -72.52233458 51.65107463
v 31.08254431 -73.08215419 51.65107463
v 31.61892404 -73.38846895 42.73423069
v 31.77838864 -73.31453308 41.98670268
v 32.65463749 -73.38846895 41.89309515
v 31.06160440 -73.11384146 50.53580081
v 33.74511432 -73.38846895 41.89443234
v 31.29033052 33.28333560 40.75508742
v 31.86214664 32.16369970 41.43976413
v 33.74511432 -49.20009114 41.47988235
v 31.30482700 32.16369970 40.74037748
v 30.40522298 34.06496946 40.49967146
v 30.42535726 34.26565775 41.61895687
v 30.66777588 33.28333560 40.19745050
v 30.02105879 33.92765571 39.85912372
v 30.42535726 34.28678371 42.73423069
v 25.51820325 34.28678371 41.61895687
v 25.51820325 -64.81162909 45.83800938
v 25.51820325 -65.88901639 45.81260151
v 25.51820325 -66.67065025 45.63742034
v 25.51820325 -67.27271845 45.14263473
v 25.51820325 -67.67409836 44.50609939
v 26.05055811 -68.14941414 50.53580081
v 26.53217281 -68.69866911 50.53580081
v 27.08949079 -69.24792740 50.53580081
v 28.21540567 -70.35700198 50.53580081
v 30.46643145 -72.56458649 50.53580081
v 31.06160440 -73.11384146 42.73423069
v 30.47770705 -72.48008598 41.61895687
v 30.65327774 -72.28995901 40.86875447
v 31.19932345 -72.28995901 40.86875447
v 30.03877615 -71.12807120 39.84842619
v 33.74511432 -73.37790763 41.88640837
v 33.74511432 -70.37812461 41.47988235
v 30.12414708 31.04406048 39.79760961
v 30.12334145 32.16369970 39.79760961
v 30.68146673 32.16369970 40.18274057
v 29.31152361 34.01215622 39.77755174
v 29.31152361 34.23397047 40.50502023
v 28.19688433 34.26565775 40.50502023
v 29.31152361 34.28678371 41.61895687
v 30.11045458 33.28333560 39.80697078
v 29.31152361 33.28333560 39.58632345
v 25.51820325 34.26565775 40.50502023
v 25.51820325 -67.70578564 43.84816733
v 25.96679846 -68.14941414 43.84816733
v 28.21540567 -70.35700198 41.61895687
v 30.46643145 -72.56458649 42.73423069
v 29.92038740 -72.01533152 41.61895687
v 28.81943730 -70.89569231 40.50502023
v 29.37675860 -71.33932413 40.50502023
v 29.56441053 -71.12807120 39.84842619
v 29.23984353 -70.47318976 39.73475831
v 29.31152361 -69.26905004 39.56492673
v 30.12334145 -70.37812461 39.79894680
v 33.74511432 -72.61739973 41.55209399
v 33.74511432 -71.49776383 41.48656831
v 30.12334145 -69.26905004 39.79760961
v 30.12414708 -51.42880161 39.79760961
v 29.31152361 32.16369970 39.56492673
v 28.19688433 34.04384350 39.74010790
v 28.19688433 33.28333560 39.50742420
v 28.19688433 32.16369970 39.48067954
v 25.51820325 34.04384350 39.74010790
v 25.51820325 -67.70578564 40.86474290
v 25.96679846 -68.14941414 41.61895687
v 29.34132055 -71.45551192 41.61895687
v 27.67258251 -69.79718237 40.50502023
v 28.22990381 -70.33587602 40.50502023
v 25.51820325 -67.68465968 40.29373324
v 25.51820325 -67.63184645 40.16268187
v 28.41433319 -70.15631036 39.79226084
v 28.10426433 -69.36411518 39.66789543
v 28.19688433 -68.14941414 39.48067954
v 33.74511432 -72.58571245 41.54941961
v 25.51820325 33.58965036 39.60103255
v 25.51820325 32.61788952 39.49137790
v 25.51820325 33.28333560 39.50742420
v 25.51820325 32.16369970 39.48067954
v 25.51820325 -67.69522432 40.55583598
v 26.16331073 -67.94872585 39.79226084
v 25.51820325 -67.00865229 39.72272359
v 25.51820325 -66.72346349 39.64382516
v 25.51820325 -65.92070367 39.52748372
v 27.08224172 -67.04033956 39.48067954
v 25.51820325 -65.47707517 39.48067954
f 1 2 6
f 1 6 19
f 1 19 37
f 1 37 36
f 1 36 59
f 1 59 61
f 1 61 38
f 1 38 20
f 1 20 7
f 1 7 3
f 1 3 4
f 1 4 5
f 1 5 2
f 2 5 6
f 3 7 21
f 3 21 39
f 3 39 64
f 3 64 88
f 3 88 114
f 3 114 137
f 3 137 156
f 3 156 138
f 3 138 115
f 3 115 91
f 3 91 66
f 3 66 47
f 3 47 46
f 3 46 45
f 3 45 44
f 3 44 40
f 3 40 22
f 3 22 8
f 3 8 9
f 3 9 10
f 3 10 11
f 3 11 12
f 3 12 13
f 3 13 4
f 4 13 12
f 4 12 14
f 4 14 15
f 4 15 5
f 5 15 16
f 5 16 17
f 5 17 33
f 5 33 18
f 5 18 19
f 5 19 6
f 7 20 21
f 8 22 9
f 9 23 43
f 9 43 24
f 9 24 25
f 9 25 10
f 9 22 40
f 9 40 23
f 10 25 26
f 10 26 11
f 11 26 12
f 12 26 27
f 12 27 14
f 14 27 28
f 14 28 29
f 14 29 15
f 15 29 30
f 15 30 16
f 16 31 32
f 16 32 17
f 16 30 31
f 17 32 55
f 17 55 33
f 18 33 34
f 18 34 35
f 18 35 36
f 18 36 37
f 18 37 19
f 20 38 21
f 21 38 39
f 23 41 42
f 23 42 43
f 23 40 44
f 23 44 45
f 23 45 46
f 23 46 47
f 23 47 41
f 24 43 69
f 24 69 48
f 24 48 25
f 25 48 49
f 25 49 26
f 26 49 27
f 27 49 50
f 27 50 28
f 28 50 51
f 28 51 29
f 29 51 30
f 30 51 52
f 30 52 31
f 31 53 54
f 31 54 32
f 31 52 53
f 32 54 78
f 32 78 55
f 33 55 56
f 33 56 34
f 34 56 35
f 35 57 58
f 35 58 36
f 35 56 57
f 36 58 59
f 38 60 64
f 38 64 39
f 38 61 62
f 38 62 63
f 38 63 84
f 38 84 60
f 41 65 42
f 41 47 66
f 41 66 65
f 42 67 68
f 42 68 69
f 42 69 43
f 42 65 67
f 48 70 49
f 48 69 97
f 48 97 70
f 49 70 50
f 50 70 71
f 50 71 51
f 51 71 52
f 52 71 72
f 52 72 53
f 53 72 73
f 53 73 74
f 53 74 54
f 54 74 75
f 54 75 76
f 54 76 77
f 54 77 99
f 54 99 78
f 55 78 56
f 56 78 57
f 57 79 80
f 57 80 58
f 57 78 79
f 58 80 81
f 58 81 59
f 59 81 82
f 59 82 83
f 59 83 62
f 59 62 61
f 60 84 85
f 60 85 86
f 60 86 64
f 62 83 87
f 62 87 63
f 63 87 109
f 63 109 84
f 64 86 88
f 65 89 67
f 65 66 90
f 65 90 92
f 65 92 89
f 66 91 92
f 66 92 90
f 67 93 94
f 67 94 68
f 67 89 95
f 67 95 96
f 67 96 93
f 68 94 69
f 69 94 97
f 70 97 122
f 70 122 98
f 70 98 72
f 70 72 71
f 72 98 125
f 72 125 145
f 72 145 157
f 72 157 159
f 72 159 158
f 72 158 160
f 72 160 167
f 72 167 165
f 72 165 164
f 72 164 163
f 72 163 152
f 72 152 151
f 72 151 161
f 72 161 146
f 72 146 126
f 72 126 103
f 72 103 102
f 72 102 101
f 72 101 100
f 72 100 99
f 72 99 77
f 72 77 76
f 72 76 75
f 72 75 74
f 72 74 73
f 78 99 100
f 78 100 101
f 78 101 102
f 78 102 103
f 78 103 79
f 79 103 104
f 79 104 80
f 80 104 81
f 81 104 105
f 81 105 106
f 81 106 107
f 81 107 82
f 82 108 83
f 82 107 108
f 83 108 87
f 84 109 85
f 85 109 110
f 85 110 111
f 85 111 86
f 86 112 88
f 86 111 112
f 87 108 129
f 87 129 109
f 88 112 113
f 88 113 114
f 89 92 95
f 91 115 140
f 91 140 116
f 91 116 117
f 91 117 118
f 91 118 92
f 92 118 95
f 93 96 119
f 93 119 120
f 93 120 94
f 94 120 121
f 94 121 122
f 94 122 97
f 95 123 96
f 95 118 123
f 96 123 124
f 96 124 119
f 98 122 121
f 98 121 125
f 103 126 104
f 104 126 105
f 105 126 127
f 105 127 106
f 106 127 107
f 107 127 147
f 107 147 128
f 107 128 129
f 107 129 108
f 109 129 130
f 109 130 110
f 110 130 131
f 110 131 132
f 110 132 111
f 111 132 133
f 111 133 113
f 111 113 112
f 113 133 134
f 113 134 135
f 113 135 136
f 113 136 137
f 113 137 114
f 115 138 136
f 115 136 139
f 115 139 140
f 116 141 117
f 116 140 135
f 116 135 141
f 117 141 123
f 117 123 118
f 119 142 120
f 119 124 143
f 119 143 142
f 120 142 121
f 121 142 145
f 121 145 125
f 123 141 124
f 124 141 144
f 124 144 143
f 126 146 147
f 126 147 127
f 128 148 129
f 128 147 146
f 128 146 148
f 129 148 130
f 130 148 149
f 130 149 150
f 130 150 131
f 131 150 151
f 131 151 152
f 131 152 153
f 131 153 133
f 131 133 132
f 133 153 134
f 134 153 154
f 134 154 155
f 134 155 135
f 135 140 139
f 135 139 136
f 135 155 144
f 135 144 141
f 136 138 156
f 136 156 137
f 142 143 157
f 142 157 145
f 143 158 159
f 143 159 157
f 143 144 158
f 144 160 158
f 144 155 166
f 144 166 167
f 144 167 160
f 146 161 149
f 146 149 148
f 149 161 151
f 149 151 150
f 152 162 153
f 152 163 162
f 153 162 154
f 154 162 164
f 154 164 165
f 154 165 155
f 155 165 166
f 162 163 164
f 165 167 166

