# https://github.com/mikedh/trimesh
v 76.60823581 -44.07438529 52.03574796
v 76.60823581 -51.44722993 52.03574796
v 76.60823581 -44.07438529 46.28977357
v 56.47078615 -44.07438529 52.03574796
v 76.60823581 -51.44722993 45.33702867
v 66.35225025 -51.44722993 52.03574796
v 76.60823581 -45.34252913 45.33702867
v 68.32538862 -45.27829080 45.33702867
v 68.73144953 -44.07438529 46.25502072
v 56.47078615 -44.07438529 46.26157794
v 56.47078615 -48.62079339 52.03574796
v 65.40806046 -51.44722993 45.33702867
v 56.47078615 -49.52949529 45.33702867
v 67.21167956 -45.27251679 45.33702867
v 67.20182338 -45.27251679 45.33702867
v 56.47078615 -45.27829080 45.33702867
f 1 2 5
f 1 5 7
f 1 7 3
f 1 3 9
f 1 9 10
f 1 10 4
f 1 4 11
f 1 11 6
f 1 6 2
f 2 6 12
f 2 12 5
f 3 7 8
f 3 8 9
f 4 10 16
f 4 16 13
f 4 13 11
f 5 12 13
f 5 13 16
f 5 16 15
f 5 15 14
f 5 14 8
f 5 8 7
f 6 11 13
f 6 13 12
f 8 14 9
f 9 14 15
f 9 15 16
f 9 16 10

