# https://github.com/mikedh/trimesh
v 96.88698431 -34.15246394 -2.51821564
v 96.88698431 -53.42944017 -2.51821564
v 96.88698431 -34.15246394 -10.54084568
v 76.60817806 -34.15246394 -2.51821564
v 96.88698431 -53.43321421 -2.59600526
v 90.64551904 -53.16333089 -2.51821564
v 96.88698431 -35.87368933 -10.61466692
v 76.60817806 -34.15246394 -10.54084568
v 76.60817806 -50.81740317 -2.51821564
v 96.88698431 -50.79852967 -9.35971664
v 91.13586110 -53.16333089 -3.25800899
v 76.60817806 -50.77210811 -9.35971664
v 76.60817806 -50.81740317 -8.24447042
v 76.60817806 -50.77965618 -9.18349981
v 96.88698431 -36.98720219 -10.62577972
v 76.60817806 -35.87368933 -10.61466692
v 96.88698431 -50.79286862 -9.37241664
v 76.60817806 -50.52298198 -9.85502874
v 96.88698431 -39.21800194 -10.62736691
v 76.60817806 -36.98720219 -10.62577972
v 96.88698431 -50.34368878 -10.26302643
v 76.60817806 -50.32670230 -10.23603843
v 96.88698431 -48.13364954 -10.61307890
v 95.08045113 -49.24904942 -10.61307890
v 76.60817806 -39.21800194 -10.62736691
v 96.88698431 -49.99453746 -10.38764846
v 76.60817806 -49.24904942 -10.58529689
v 78.36110734 -49.24904942 -10.61307890
v 96.88698431 -49.24904942 -10.58926610
v 76.60817806 -48.13364954 -10.61307890
v 76.60817806 -48.61113796 -10.60514130
f 1 2 5
f 1 5 10
f 1 10 17
f 1 17 21
f 1 21 26
f 1 26 29
f 1 29 23
f 1 23 19
f 1 19 15
f 1 15 7
f 1 7 3
f 1 3 8
f 1 8 4
f 1 4 9
f 1 9 6
f 1 6 2
f 2 6 5
f 3 7 16
f 3 16 8
f 4 8 16
f 4 16 20
f 4 20 25
f 4 25 30
f 4 30 31
f 4 31 27
f 4 27 22
f 4 22 18
f 4 18 12
f 4 12 14
f 4 14 13
f 4 13 9
f 5 6 11
f 5 11 12
f 5 12 10
f 6 9 13
f 6 13 14
f 6 14 12
f 6 12 11
f 7 15 20
f 7 20 16
f 10 12 17
f 12 18 17
f 15 19 25
f 15 25 20
f 17 18 21
f 18 22 21
f 19 23 24
f 19 24 28
f 19 28 25
f 21 22 26
f 22 27 28
f 22 28 26
f 23 29 24
f 24 29 26
f 24 26 28
f 25 28 30
f 27 31 28
f 28 31 30

