# https://github.com/mikedh/trimesh
v 56.47068008 -32.51664600 -7.37796287
v 64.15877030 -32.53836996 -7.25331883
v 56.47068008 -32.51664600 -10.61278405
v 37.11543623 -32.51664600 -7.36217696
v 64.15877030 -32.53836996 -10.61278405
v 37.11278843 -32.51881873 -7.36184806
v 64.15877030 -52.59073083 -7.26154089
v 56.47068008 -42.96864116 -10.61311295
v 37.11278843 -32.51664600 -10.61278405
v 37.11278843 -32.51664600 -7.77886224
v 64.15877030 -47.01604372 -10.61311295
v 60.52387035 -44.78703796 -10.61311295
v 58.29474832 -43.67253509 -10.61311295
v 37.11278843 -52.59290356 -7.37270090
v 64.15877030 -53.41628753 -7.27634011
v 37.11278843 -53.70740643 -7.39243319
v 56.47068008 -52.59073083 -10.61311295
v 37.11278843 -52.59290356 -10.61278405
v 64.15877030 -51.76734685 -10.61311295
v 64.15877030 -53.70740643 -7.29081084
v 37.11278843 -54.41564582 -7.55062245
v 37.11543623 -54.41564582 -7.54996465
v 60.52387035 -52.59073083 -10.61311295
v 37.11278843 -53.70740643 -10.54766701
v 64.15877030 -52.59073083 -10.61278405
v 64.15877030 -54.23750210 -7.41578336
v 37.11278843 -54.63941681 -8.24685245
v 37.11543623 -54.63941681 -8.24520795
v 64.15877030 -54.43302764 -7.50392210
v 64.15877030 -53.70740643 -10.54766701
v 37.11278843 -54.48733918 -10.19971584
v 37.11278843 -54.70893745 -9.36042511
v 37.11543623 -54.70893745 -9.35943841
v 64.15877030 -54.65679863 -8.24520795
v 64.15877030 -54.59813831 -8.02650583
v 64.15877030 -54.48733918 -10.19938694
v 53.83385562 -54.48733918 -10.19971584
v 64.15877030 -54.54599950 -9.98035591
v 56.47068008 -54.71111018 -9.35910951
v 64.15877030 -54.70241927 -9.06871236
v 64.15877030 -54.70893745 -9.35910951
f 1 2 5
f 1 5 3
f 1 3 9
f 1 9 10
f 1 10 4
f 1 4 2
f 2 4 6
f 2 6 7
f 2 7 15
f 2 15 20
f 2 20 26
f 2 26 29
f 2 29 35
f 2 35 34
f 2 34 40
f 2 40 41
f 2 41 38
f 2 38 36
f 2 36 30
f 2 30 25
f 2 25 19
f 2 19 11
f 2 11 5
f 3 8 9
f 3 5 8
f 4 10 6
f 5 11 12
f 5 12 13
f 5 13 8
f 6 10 9
f 6 9 18
f 6 18 24
f 6 24 31
f 6 31 32
f 6 32 27
f 6 27 21
f 6 21 16
f 6 16 14
f 6 14 7
f 7 14 16
f 7 16 15
f 8 17 18
f 8 18 9
f 8 13 12
f 8 12 11
f 8 11 19
f 8 19 23
f 8 23 17
f 15 16 20
f 16 21 22
f 16 22 20
f 17 23 30
f 17 30 24
f 17 24 18
f 19 25 23
f 20 22 26
f 21 27 28
f 21 28 22
f 22 28 29
f 22 29 26
f 23 25 30
f 24 30 37
f 24 37 31
f 27 32 28
f 28 32 33
f 28 33 34
f 28 34 35
f 28 35 29
f 30 36 37
f 31 37 38
f 31 38 39
f 31 39 32
f 32 39 33
f 33 39 40
f 33 40 34
f 36 38 37
f 38 41 39
f 39 41 40

