# https://github.com/mikedh/trimesh
v 105.64518858 50.79975801 10.43234918
v 105.64518858 49.24828239 10.57631250
v 105.64518858 50.79975801 5.26507822
v 105.11138130 50.79975801 10.60973318
v 105.64518858 48.13356875 10.60973318
v 105.64518858 34.15237141 5.23808520
v 105.58618932 50.79975801 -2.50382301
v 105.11138130 50.36299935 10.61230374
v 99.54012204 50.79975801 10.61230374
v 105.64518858 47.01885178 10.61230374
v 105.64518858 34.15237141 10.61230374
v 105.58618932 34.15237141 -2.50382301
v 88.22341299 50.79975801 -2.50382301
v 99.54012204 39.21747754 10.62772880
v 98.86022024 50.79975801 10.57631250
v 76.94322841 50.26847562 10.24211153
v 76.94322841 49.24828239 10.59045186
v 78.36203127 49.24828239 10.61230374
v 76.94322841 39.21747754 10.62772880
v 100.65268953 39.21747754 10.62515740
v 100.65268953 36.98804693 10.62387254
v 99.54012204 36.98804693 10.62515740
v 105.11138130 34.15237141 10.61230374
v 76.94322841 34.15237141 -2.50382301
v 76.94322841 50.76390464 -2.50382301
v 87.90874915 50.79975801 -1.78657512
v 98.42474727 50.79975801 10.52746759
v 76.94322841 50.71990187 9.36033351
v 76.94322841 50.60093326 9.59427411
v 76.94322841 48.94678782 10.59945008
v 76.94322841 48.13356875 10.61230374
v 76.94322841 36.98804693 10.62515740
v 76.94322841 36.68655236 10.62258684
v 76.94322841 35.87333329 10.61487431
v 76.94322841 34.15237141 10.54160695
v 76.94322841 50.76553253 6.01574658
v 87.81884330 50.79975801 -0.67214138
v 97.69427468 50.79975801 10.35008443
v 76.94322841 50.76553253 8.24461407
v 76.94322841 50.74760584 8.68935934
v 87.80760424 50.79975801 0.44357765
v 87.81603602 50.79975801 -0.42791727
v 97.39927504 50.79975801 10.22411590
v 89.89226256 50.79975801 4.52597866
v 88.77969508 50.79975801 3.38583718
v 88.37231811 50.79975801 2.70329473
v 87.88908162 50.79975801 1.75210552
v 87.81603602 50.79975801 0.68523119
f 1 2 5
f 1 5 10
f 1 10 11
f 1 11 6
f 1 6 3
f 1 3 7
f 1 7 13
f 1 13 26
f 1 26 37
f 1 37 42
f 1 42 41
f 1 41 48
f 1 48 47
f 1 47 46
f 1 46 45
f 1 45 44
f 1 44 43
f 1 43 38
f 1 38 27
f 1 27 15
f 1 15 9
f 1 9 4
f 1 4 2
f 2 4 5
f 3 6 7
f 4 8 5
f 4 9 8
f 5 8 10
f 6 11 23
f 6 23 35
f 6 35 24
f 6 24 12
f 6 12 7
f 7 12 24
f 7 24 25
f 7 25 13
f 8 9 14
f 8 14 10
f 9 15 16
f 9 16 17
f 9 17 18
f 9 18 19
f 9 19 14
f 10 14 20
f 10 20 11
f 11 20 14
f 11 14 21
f 11 21 22
f 11 22 32
f 11 32 23
f 13 25 26
f 14 22 21
f 14 19 32
f 14 32 22
f 15 27 28
f 15 28 29
f 15 29 16
f 16 29 28
f 16 28 40
f 16 40 39
f 16 39 36
f 16 36 25
f 16 25 24
f 16 24 35
f 16 35 34
f 16 34 33
f 16 33 32
f 16 32 19
f 16 19 31
f 16 31 30
f 16 30 17
f 17 30 18
f 18 30 31
f 18 31 19
f 23 32 33
f 23 33 34
f 23 34 35
f 25 36 37
f 25 37 26
f 27 38 39
f 27 39 40
f 27 40 28
f 36 39 41
f 36 41 42
f 36 42 37
f 38 43 39
f 39 44 45
f 39 45 46
f 39 46 47
f 39 47 48
f 39 48 41
f 39 43 44

