# https://github.com/mikedh/trimesh
v 76.94322675 28.06964180 -10.61311533
v 76.94322675 28.37207157 -10.61311533
v 76.94322675 27.10381500 -10.38019300
v 71.67047372 27.10381500 -10.38019300
v 70.55670358 27.10456582 -10.38019300
v 70.55670358 28.06964180 -10.61207050
v 64.28787663 30.29846942 -10.61207050
v 76.94322675 32.53855770 -10.61207050
v 64.28787663 32.53405277 -10.61207050
v 64.97298766 32.53855770 -10.61207050
v 76.94322675 26.72934127 -9.80363127
v 72.78548304 26.59050912 -9.58951019
v 70.55670358 26.59426157 -9.58951019
v 64.28787663 27.11281987 -9.55190767
v 64.28787663 27.40174317 -9.90076959
v 64.28787663 27.57509648 -10.10966814
v 64.28787663 27.92330309 -10.26320941
v 64.28787663 28.13267921 -10.35512520
v 64.28787663 29.18405478 -10.58804754
v 76.94322675 32.53855770 0.05640952
v 64.28787663 32.53855770 -8.56590338
v 76.94322675 26.59050912 -9.58951019
v 64.28787663 24.87273491 -5.63609283
v 76.94322675 24.87273491 0.05640952
v 66.35559829 32.53855770 0.05640952
v 64.28787663 32.53855770 -7.23103801
v 76.94322675 24.87273491 -5.62146967
v 68.32792496 24.87273491 -5.63609283
v 64.28787663 24.87273491 0.05640952
v 64.28787663 29.81067817 0.05640952
f 1 2 8
f 1 8 20
f 1 20 24
f 1 24 27
f 1 27 22
f 1 22 11
f 1 11 3
f 1 3 4
f 1 4 5
f 1 5 6
f 1 6 7
f 1 7 9
f 1 9 2
f 2 9 10
f 2 10 8
f 3 11 4
f 4 12 5
f 4 11 12
f 5 12 13
f 5 13 14
f 5 14 15
f 5 15 16
f 5 16 17
f 5 17 18
f 5 18 6
f 6 18 19
f 6 19 7
f 7 19 18
f 7 18 17
f 7 17 16
f 7 16 15
f 7 15 14
f 7 14 23
f 7 23 29
f 7 29 30
f 7 30 26
f 7 26 21
f 7 21 9
f 8 10 21
f 8 21 26
f 8 26 25
f 8 25 20
f 9 21 10
f 11 22 12
f 12 22 28
f 12 28 23
f 12 23 13
f 13 23 14
f 20 25 30
f 20 30 29
f 20 29 24
f 22 27 28
f 23 28 27
f 23 27 24
f 23 24 29
f 25 26 30

