# https://github.com/mikedh/trimesh
v 96.19184827 50.80138590 5.08835701
v 96.19184827 52.36868525 3.44566824
v 95.03701221 52.55690216 3.82881544
v 94.63647237 52.16839207 4.38481929
v 95.08051333 50.80138590 5.46049438
v 96.19184827 50.80138590 -5.31387219
v 96.19184827 52.98424234 2.59569755
v 93.96589603 52.87178527 3.78587661
v 93.96589603 52.32157288 4.44097017
v 93.96589603 50.80138590 5.55407918
v 95.30540753 50.80138590 -5.65518146
v 95.67311722 53.16346269 -3.47960940
v 96.19184827 52.78631790 -3.29464161
v 96.19184827 53.16062219 2.09804659
v 95.11909092 53.14097127 2.74323142
v 93.96589603 53.14404765 3.07242976
v 91.48139885 53.16464540 3.25739734
v 91.13666894 53.16464540 3.25739734
v 92.85127873 52.85426389 3.78587661
v 92.85127873 52.30334055 4.43546525
v 92.85127873 50.80138590 5.54967516
v 93.62773415 50.80138590 5.55297828
v 94.18093986 50.80138590 -5.68821136
v 93.46440064 52.05522737 -4.57840547
v 95.30786929 53.16346269 -3.47960940
v 96.19184827 53.22004670 -2.84103059
v 96.19184827 53.20986742 1.59709241
v 89.88990711 50.80138590 4.52574693
v 90.56786874 50.80138590 4.94522715
v 91.52161429 50.80138590 5.43957563
v 93.96589603 53.19637258 1.55635548
v 90.04421415 53.16299093 2.15199546
v 92.54512642 50.80138590 5.53205910
v 93.96589603 50.80138590 -5.69371628
v 93.38232193 52.05522737 -4.57840547
v 92.94731076 52.48516884 -4.09396634
v 92.85127873 53.14073540 -3.33207553
v 92.85127873 53.18334948 -2.77497078
v 91.99274129 53.17577483 -2.69900163
v 92.85127873 53.20157849 -1.78627446
v 96.19184827 53.21909987 0.44214551
v 88.77775158 50.80138590 3.38401224
v 90.04421415 53.16299093 1.82940294
v 88.92056707 52.13311676 0.15588606
v 87.88884575 50.80138590 1.75123219
v 88.37146430 50.80138590 2.70249439
v 92.85127873 50.80138590 -5.68160555
v 91.73748203 50.80138590 -5.60893951
v 91.73748203 52.57347671 -3.83633252
v 91.66771546 53.13173883 -3.00287740
v 90.05652629 53.15635979 -2.35549035
v 88.92056707 52.13311676 -0.30543209
v 87.80759095 50.80138590 0.44214551
v 87.81497624 50.80138590 0.68436508
v 90.60316398 50.80138590 -5.13991423
v 90.94624939 52.38241597 -3.64586023
v 89.46802534 50.80138590 -4.05433021
v 88.38541761 50.80138590 -2.90819171
v 87.90854650 50.80138590 -1.78627446
v 87.81743800 50.80138590 -0.67206445
f 1 2 3
f 1 3 4
f 1 4 5
f 1 5 10
f 1 10 22
f 1 22 21
f 1 21 33
f 1 33 30
f 1 30 29
f 1 29 28
f 1 28 42
f 1 42 46
f 1 46 45
f 1 45 54
f 1 54 53
f 1 53 60
f 1 60 59
f 1 59 58
f 1 58 57
f 1 57 55
f 1 55 48
f 1 48 47
f 1 47 34
f 1 34 23
f 1 23 11
f 1 11 6
f 1 6 13
f 1 13 26
f 1 26 41
f 1 41 27
f 1 27 14
f 1 14 7
f 1 7 2
f 2 7 3
f 3 8 9
f 3 9 4
f 3 7 8
f 4 9 5
f 5 9 10
f 6 11 12
f 6 12 13
f 7 14 15
f 7 15 8
f 8 16 17
f 8 17 18
f 8 18 19
f 8 19 9
f 8 15 16
f 9 19 20
f 9 20 21
f 9 21 22
f 9 22 10
f 11 23 24
f 11 24 12
f 12 24 35
f 12 35 25
f 12 25 26
f 12 26 13
f 14 27 15
f 15 27 16
f 16 27 17
f 17 27 18
f 18 28 29
f 18 29 30
f 18 30 20
f 18 20 19
f 18 27 31
f 18 31 32
f 18 32 28
f 20 30 33
f 20 33 21
f 23 34 24
f 24 34 35
f 25 35 36
f 25 36 37
f 25 37 38
f 25 38 26
f 26 38 39
f 26 39 40
f 26 40 41
f 27 41 31
f 28 32 42
f 31 41 32
f 32 43 52
f 32 52 44
f 32 44 45
f 32 45 46
f 32 46 42
f 32 41 40
f 32 40 43
f 34 47 35
f 35 47 48
f 35 48 36
f 36 49 37
f 36 48 49
f 37 49 50
f 37 50 51
f 37 51 39
f 37 39 38
f 39 51 40
f 40 51 43
f 43 51 52
f 44 53 54
f 44 54 45
f 44 52 53
f 48 55 49
f 49 56 51
f 49 51 50
f 49 55 56
f 51 56 55
f 51 55 57
f 51 57 58
f 51 58 59
f 51 59 52
f 52 59 60
f 52 60 53

