# https://github.com/mikedh/trimesh
v 112.40035996 34.15236477 -8.47579820
v 112.39308763 34.15236477 -9.58996201
v 112.37854296 34.15236477 -7.89586192
v 113.49112374 30.90434889 -7.86851758
v 113.71291498 30.29861892 -8.47579820
v 112.38218079 34.15236477 -10.09521234
v 113.49112374 30.91432219 -9.58996201
v 111.81498190 34.15236477 -7.61956554
v 113.61837796 29.98868924 -6.44418406
v 113.87289305 29.37132486 -6.44418406
v 113.65473631 30.31440610 -7.44244234
v 113.99287162 29.18437371 -7.36081795
v 113.99287162 29.18437371 -8.47579820
v 113.69837032 30.29861892 -9.58996201
v 112.37127062 34.15236477 -10.16010356
v 113.48385472 30.88523949 -10.16051136
v 106.28116735 34.15236477 -6.44418406
v 113.93106508 29.18437371 -6.44418406
v 114.06922947 28.26788184 -6.44418406
v 114.08740864 28.07012518 -8.47579820
v 113.95651327 29.18437371 -9.58996201
v 112.13130352 34.15236477 -10.29029296
v 112.45489749 33.64301898 -10.24417559
v 113.57838510 30.29861892 -10.25478676
v 76.94322841 34.15236477 -6.44418406
v 114.08377414 28.07012518 -6.44418406
v 113.85471388 26.99493098 -6.44418406
v 113.82199003 26.88026630 -6.44418406
v 113.77835603 27.07802130 -8.47579820
v 113.67655664 27.25832968 -9.36753705
v 113.81834888 27.98952818 -9.67933963
v 113.69473581 29.18437371 -10.35028639
v 111.80770956 34.15236477 -10.40538205
v 112.61487555 32.52794321 -10.35763265
v 76.94322841 34.15236477 -10.54087787
v 76.94322841 26.12164787 -6.44418406
v 113.22570513 26.27868910 -6.44418406
v 112.91665251 26.62185424 -8.47579820
v 113.63655714 28.30693451 -10.28784448
v 112.91665251 27.12206062 -9.53976330
v 112.91665251 27.58736875 -10.09725301
v 112.91665251 29.18437371 -10.57271135
v 112.91665251 30.29861892 -10.48741425
v 111.80043723 33.64301898 -10.47680309
v 111.29141369 34.15236477 -10.53883719
v 111.80043723 32.52794321 -10.59066877
v 76.94322841 32.52794321 -10.61270670
v 103.99783376 34.15236477 -10.61270670
v 87.35639725 25.66464860 -6.44622473
v 87.35275942 25.66631137 -6.44418406
v 76.94322841 26.59027989 -9.58996201
v 89.81425357 25.66464860 -8.11134843
v 88.51260871 25.66464860 -7.45509335
v 88.36717199 25.66464860 -7.37142911
v 87.78543176 25.66464860 -6.86128100
v 112.91665251 26.12746508 -6.44418406
v 96.13705494 25.66464860 -8.49008207
v 95.08264951 25.66464860 -8.71699618
v 112.91665251 28.14490664 -10.35885688
v 100.65282242 27.10128679 -10.37232516
v 93.97006874 25.66464860 -8.82718832
v 100.65282242 28.07012518 -10.60372841
v 111.80043723 29.18437371 -10.59189301
v 111.80043723 30.29861892 -10.61270670
v 111.80043723 31.41286413 -10.61270670
v 110.68422194 34.15236477 -10.61270670
v 76.94322841 28.37174433 -10.61311533
v 87.43638629 25.66464860 -6.44418406
v 76.94322841 26.72904061 -9.80381565
v 92.85385345 25.66464860 -8.78678434
v 92.05395647 25.66464860 -8.71699618
v 91.79581020 25.66464860 -8.68271421
v 90.62141956 25.66464860 -8.40111225
v 90.54506504 25.66464860 -8.37988993
v 99.51842463 25.66464860 -6.44418406
v 99.56932765 25.66464860 -6.44744896
v 98.46401921 25.66464860 -7.19961149
v 96.26794699 25.66464860 -8.44682181
v 93.97006874 26.58030825 -9.87727736
v 77.24864319 27.10378011 -10.38007921
v 95.08264951 27.11541286 -10.38007921
v 95.08264951 28.07012518 -10.61270670
v 76.94322841 27.10378011 -10.38007921
v 77.24864319 28.07012518 -10.61311533
v 76.94322841 28.07012518 -10.61311533
v 76.94322841 27.36551605 -10.44333756
f 1 2 6
f 1 6 15
f 1 15 22
f 1 22 33
f 1 33 45
f 1 45 66
f 1 66 48
f 1 48 35
f 1 35 25
f 1 25 17
f 1 17 8
f 1 8 3
f 1 3 4
f 1 4 5
f 1 5 2
f 2 5 7
f 2 7 6
f 3 8 9
f 3 9 10
f 3 10 11
f 3 11 4
f 4 11 5
f 5 11 12
f 5 12 13
f 5 13 14
f 5 14 7
f 6 7 16
f 6 16 15
f 7 14 16
f 8 17 9
f 9 17 25
f 9 25 36
f 9 36 50
f 9 50 68
f 9 68 75
f 9 75 56
f 9 56 37
f 9 37 28
f 9 28 27
f 9 27 26
f 9 26 19
f 9 19 18
f 9 18 10
f 10 18 11
f 11 18 12
f 12 18 19
f 12 19 20
f 12 20 13
f 13 20 21
f 13 21 14
f 14 21 16
f 15 16 23
f 15 23 22
f 16 21 24
f 16 24 23
f 19 26 20
f 20 26 27
f 20 27 28
f 20 28 29
f 20 29 30
f 20 30 31
f 20 31 21
f 21 31 32
f 21 32 24
f 22 23 34
f 22 34 33
f 23 24 34
f 24 32 34
f 25 35 47
f 25 47 67
f 25 67 85
f 25 85 86
f 25 86 83
f 25 83 69
f 25 69 51
f 25 51 36
f 28 37 29
f 29 37 38
f 29 38 30
f 30 39 31
f 30 38 40
f 30 40 41
f 30 41 39
f 31 39 32
f 32 39 42
f 32 42 43
f 32 43 34
f 33 34 44
f 33 44 45
f 34 46 44
f 34 43 46
f 35 48 47
f 36 49 50
f 36 51 52
f 36 52 53
f 36 53 54
f 36 54 55
f 36 55 49
f 37 56 38
f 38 56 57
f 38 57 58
f 38 58 40
f 39 41 59
f 39 59 42
f 40 60 41
f 40 58 61
f 40 61 60
f 41 60 59
f 42 59 62
f 42 62 63
f 42 63 64
f 42 64 65
f 42 65 46
f 42 46 43
f 44 46 45
f 45 46 66
f 46 65 66
f 47 48 67
f 48 66 67
f 49 55 54
f 49 54 53
f 49 53 52
f 49 52 74
f 49 74 73
f 49 73 72
f 49 72 71
f 49 71 70
f 49 70 61
f 49 61 58
f 49 58 57
f 49 57 78
f 49 78 77
f 49 77 76
f 49 76 75
f 49 75 68
f 49 68 50
f 51 69 70
f 51 70 71
f 51 71 72
f 51 72 73
f 51 73 74
f 51 74 52
f 56 75 76
f 56 76 77
f 56 77 78
f 56 78 57
f 59 60 62
f 60 61 79
f 60 79 80
f 60 80 81
f 60 81 82
f 60 82 62
f 61 70 83
f 61 83 79
f 62 64 63
f 62 82 64
f 64 82 84
f 64 84 65
f 65 84 66
f 66 84 67
f 67 84 85
f 69 83 70
f 79 83 80
f 80 83 86
f 80 86 82
f 80 82 81
f 82 86 84
f 84 86 85

