# https://github.com/mikedh/trimesh
v 56.47080114 37.69599803 52.12910076
v 56.47080114 37.69599803 58.10969330
v 56.47080114 44.71842458 52.12910076
v 64.16031545 37.69531033 52.12910076
v 56.47080114 37.80257486 58.51573592
v 64.16031545 37.69531033 58.10893418
v 56.47080114 44.71842458 58.20987569
v 64.15834412 44.71842458 52.12910076
v 76.60822120 37.69531033 52.12910076
v 64.15834412 37.99097632 59.22460308
v 56.47080114 37.99097632 59.22460308
v 76.60822120 37.69531033 58.10893418
v 76.60822120 37.82182713 58.58631898
v 56.47080114 38.91579446 59.88262034
v 61.63919529 44.71842458 58.21063482
v 64.15834412 44.71842458 58.21063482
v 76.60822120 44.25704789 52.12910076
v 64.15834412 38.11130549 59.39612766
v 76.60822120 37.99166402 59.22384396
v 56.47080114 38.45304237 59.88262034
v 76.60822120 38.91510676 59.88110208
v 75.01354873 38.91579446 59.88110208
v 76.60822120 44.25704789 57.97232198
v 76.60822120 38.45373007 59.88110208
v 64.16031545 38.45304237 59.88186121
f 1 2 5
f 1 5 11
f 1 11 20
f 1 20 14
f 1 14 7
f 1 7 3
f 1 3 8
f 1 8 17
f 1 17 9
f 1 9 4
f 1 4 6
f 1 6 2
f 2 6 5
f 3 7 15
f 3 15 16
f 3 16 8
f 4 9 12
f 4 12 6
f 5 10 11
f 5 6 12
f 5 12 13
f 5 13 10
f 7 14 15
f 8 16 23
f 8 23 17
f 9 17 23
f 9 23 21
f 9 21 24
f 9 24 19
f 9 19 13
f 9 13 12
f 10 18 11
f 10 13 19
f 10 19 18
f 11 18 20
f 14 16 15
f 14 20 24
f 14 24 21
f 14 21 22
f 14 22 16
f 16 22 21
f 16 21 23
f 18 19 24
f 18 24 25
f 18 25 20
f 20 25 24

