# https://github.com/mikedh/trimesh
v 113.75154706 24.33814241 9.39309348
v 113.62221294 24.33814241 10.09836977
v 113.84046701 21.88920696 9.39309348
v 113.84046701 21.88920696 6.94297679
v 113.71113289 21.88920696 6.12660594
v 113.57371203 22.53828830 6.12660594
v 113.48479695 22.40223628 5.64804412
v 113.53329786 24.33814241 8.81449611
v 113.62221294 18.62325131 10.09836977
v 112.98362661 24.33814241 10.42210309
v 113.84046701 18.62325131 9.39309348
v 113.84046701 18.62325131 5.31375448
v 113.58988062 19.51396646 5.31375448
v 113.51712926 19.65285276 5.31375448
v 112.98362661 22.45467298 5.61285577
v 111.81961948 24.33814241 6.52121865
v 112.23187231 24.33814241 6.69213358
v 112.71687406 24.33814241 7.10031931
v 112.98362661 18.62325131 10.42210309
v 113.59796248 17.80623081 10.07524579
v 112.16720525 24.33814241 10.44924792
v 113.80004797 17.80623081 9.39309348
v 113.84046701 18.61829083 5.31375448
v 112.99171090 19.89236098 5.31375448
v 112.98362661 19.89377804 5.31375448
v 112.16720525 19.91857925 5.31375448
v 32.13356661 22.45467298 5.61285577
v 33.29757374 24.33814241 6.52121865
v 112.98362661 17.80623081 10.36228271
v 112.16720525 18.62325131 10.44924792
v 113.51712926 17.29816168 9.96867537
v 32.94998797 24.33814241 10.44924792
v 113.57371203 17.24855925 9.39309348
v 113.80004797 17.80339638 5.31375448
v 33.75832747 19.91857925 5.31375448
v 32.94190611 19.91787057 5.31375448
v 32.12548232 19.89306951 5.31375448
v 31.81023130 19.85834793 5.31375448
v 31.63239627 22.40223628 5.64804412
v 32.88532091 24.33814241 6.69213358
v 112.98362661 17.24855925 10.05212181
v 112.16720525 17.80623081 10.37585513
v 32.94998797 18.62325131 10.44924792
v 112.98362661 17.09904390 9.39309348
v 32.13356661 24.33814241 10.42210309
v 113.57371203 17.24855925 5.31375448
v 31.60006396 19.65285276 5.31375448
v 31.54348119 19.57986650 5.31375448
v 31.27672621 18.62750281 5.31375448
v 31.40606033 21.88920696 6.12660594
v 31.54348119 22.53828830 6.12660594
v 31.36564616 24.33814241 9.39309348
v 31.58389536 24.33814241 8.81499879
v 32.40031916 24.33814241 7.10031931
v 32.13356661 17.24855925 10.05212181
v 32.94998797 17.80623081 10.37585513
v 32.13356661 18.62325131 10.42210309
v 32.13356661 17.80623081 10.36228271
v 112.98362661 17.09904390 5.31375448
v 32.13356661 17.09904390 9.39309348
v 31.49498028 24.33814241 10.09836977
v 31.27672621 18.62325131 5.31375448
v 31.27672621 21.88920696 6.94297679
v 31.27672621 21.88920696 9.39309348
v 31.60006396 17.29816168 9.96867537
v 31.49498028 18.62325131 10.09836977
v 31.51923074 17.80623081 10.07524579
v 32.13356661 17.09904390 5.31375448
v 31.54348119 17.24855925 9.39309348
v 31.54348119 17.24785087 5.31375448
v 31.31714525 17.80623081 5.31375448
v 31.27672621 18.62325131 9.39309348
v 31.31714525 17.80623081 9.39309348
f 1 2 3
f 1 3 4
f 1 4 5
f 1 5 6
f 1 6 7
f 1 7 8
f 1 8 18
f 1 18 17
f 1 17 16
f 1 16 28
f 1 28 40
f 1 40 54
f 1 54 53
f 1 53 52
f 1 52 61
f 1 61 45
f 1 45 32
f 1 32 21
f 1 21 10
f 1 10 2
f 2 9 11
f 2 11 3
f 2 10 19
f 2 19 9
f 3 11 23
f 3 23 12
f 3 12 4
f 4 12 5
f 5 12 7
f 5 7 6
f 7 12 13
f 7 13 14
f 7 14 15
f 7 15 16
f 7 16 17
f 7 17 18
f 7 18 8
f 9 19 20
f 9 20 11
f 10 21 30
f 10 30 19
f 11 20 22
f 11 22 23
f 12 23 34
f 12 34 46
f 12 46 59
f 12 59 68
f 12 68 70
f 12 70 71
f 12 71 62
f 12 62 49
f 12 49 48
f 12 48 47
f 12 47 38
f 12 38 37
f 12 37 36
f 12 36 35
f 12 35 26
f 12 26 25
f 12 25 24
f 12 24 14
f 12 14 13
f 14 24 15
f 15 24 25
f 15 25 26
f 15 26 35
f 15 35 27
f 15 27 28
f 15 28 16
f 19 29 20
f 19 30 29
f 20 29 31
f 20 31 22
f 21 32 43
f 21 43 30
f 22 31 33
f 22 33 34
f 22 34 23
f 27 35 36
f 27 36 37
f 27 37 38
f 27 38 39
f 27 39 28
f 28 39 40
f 29 41 31
f 29 30 42
f 29 42 41
f 30 43 56
f 30 56 42
f 31 41 44
f 31 44 33
f 32 45 57
f 32 57 43
f 33 44 59
f 33 59 46
f 33 46 34
f 38 47 39
f 39 47 48
f 39 48 49
f 39 49 50
f 39 50 51
f 39 51 52
f 39 52 53
f 39 53 54
f 39 54 40
f 41 42 56
f 41 56 55
f 41 55 60
f 41 60 44
f 43 57 58
f 43 58 56
f 44 60 68
f 44 68 59
f 45 61 66
f 45 66 57
f 49 62 72
f 49 72 64
f 49 64 63
f 49 63 50
f 50 63 52
f 50 52 51
f 52 63 64
f 52 64 61
f 55 56 58
f 55 58 65
f 55 65 60
f 57 66 67
f 57 67 58
f 58 67 65
f 60 65 69
f 60 69 70
f 60 70 68
f 61 64 72
f 61 72 66
f 62 71 73
f 62 73 72
f 65 67 73
f 65 73 69
f 66 72 67
f 67 72 73
f 69 73 70
f 70 73 71

