# https://github.com/mikedh/trimesh
v 64.15807544 73.61768284 43.61814523
v 64.15807544 73.39406086 44.45734144
v 64.15807544 73.60031427 42.50402199
v 56.47020854 73.60031427 42.50402199
v 37.11287866 73.59814154 42.50402199
v 37.11287866 73.61334070 43.61814523
v 64.15807544 72.63635539 44.78633512
v 37.11287866 73.38971872 44.41113766
v 64.15807544 73.37669229 41.73986560
v 56.47020854 73.51998298 42.22581925
v 37.11287866 73.37669229 41.73953753
v 64.15807544 71.79180708 44.81680985
v 37.11552647 72.61681741 44.68278732
v 37.11287866 72.61464468 44.68311456
v 64.15807544 73.17912316 41.67924421
v 56.47020854 73.10096460 41.65499533
v 48.26081532 73.37669229 41.73953753
v 37.11287866 72.61681741 41.50688243
v 64.15807544 71.50088356 44.82172507
v 37.11287866 71.50088356 44.71981513
v 64.15807544 72.61681741 41.50721050
v 61.63781076 72.61681741 41.50688243
v 56.47020854 72.21082546 41.49738005
v 37.11287866 71.50088356 41.48099569
v 64.15807544 51.44663862 44.82860622
v 37.11287866 51.43795433 44.72735242
v 64.15807544 72.32589057 41.50032935
v 64.15807544 71.50088356 41.48132376
v 56.47020854 71.50088356 41.48099569
v 37.11287866 51.44229647 41.48099569
v 64.15807544 51.44663862 41.48132376
v 56.47020854 51.43795433 44.71227867
v 37.11552647 51.43795433 41.48099569
v 56.47020854 51.43795433 41.48099569
f 1 2 7
f 1 7 12
f 1 12 19
f 1 19 25
f 1 25 31
f 1 31 28
f 1 28 27
f 1 27 21
f 1 21 15
f 1 15 9
f 1 9 3
f 1 3 4
f 1 4 5
f 1 5 6
f 1 6 2
f 2 6 8
f 2 8 7
f 3 9 10
f 3 10 4
f 4 10 5
f 5 11 18
f 5 18 24
f 5 24 30
f 5 30 26
f 5 26 20
f 5 20 14
f 5 14 8
f 5 8 6
f 5 10 11
f 7 8 13
f 7 13 14
f 7 14 12
f 8 14 13
f 9 15 16
f 9 16 17
f 9 17 10
f 10 17 11
f 11 17 16
f 11 16 18
f 12 14 20
f 12 20 19
f 15 21 22
f 15 22 16
f 16 22 18
f 18 23 24
f 18 22 23
f 19 20 26
f 19 26 25
f 21 27 22
f 22 27 28
f 22 28 29
f 22 29 23
f 23 29 24
f 24 29 34
f 24 34 33
f 24 33 30
f 25 26 32
f 25 32 34
f 25 34 31
f 26 30 33
f 26 33 34
f 26 34 32
f 28 31 34
f 28 34 29

