# https://github.com/mikedh/trimesh
v 33.76993749 24.86298753 -5.63610155
v 36.85399861 24.86298753 -5.63610155
v 33.75055235 24.86298753 -5.63505754
v 33.74529494 27.11346106 -9.55044008
v 35.99935979 27.11270857 -9.55044008
v 37.10141910 24.86824826 -5.63610155
v 37.10141910 24.86298753 -5.07139308
v 37.10141910 27.11270857 -9.55044008
v 33.74529494 24.86298753 -1.23220975
v 33.74529494 25.31683900 -5.66428475
v 33.74529494 26.60174985 -8.47530152
v 33.74529494 26.61302213 -8.49930953
v 33.74529494 27.57858315 -10.10784175
v 37.10141910 27.57783233 -10.10784175
v 37.10141910 24.86298753 0.05064921
v 33.74529494 24.86298753 0.05064921
v 33.74529494 28.13612934 -10.35314018
v 35.99935979 28.13537852 -10.35314018
v 37.10141910 27.58459470 -10.11097377
v 37.10141910 29.72085538 0.05064921
v 33.74529494 32.53864075 0.05064921
v 33.74529494 28.15942307 -10.35835938
v 37.10141910 28.14740162 -10.35627137
v 37.10141910 28.13537852 -10.35314018
v 34.41001420 32.53864075 0.05064921
v 37.10141910 32.53864075 -7.36780457
v 33.74529494 32.53864075 -10.61200904
v 33.74529494 29.18359631 -10.58591302
v 37.10141910 29.18359631 -10.58591302
v 37.10141910 32.53864075 -10.61305221
v 34.87364130 32.53864075 -10.61305221
v 33.74529494 30.29868869 -10.61200904
v 37.10141910 30.29868869 -10.61200904
v 37.10141910 32.52812261 -10.61305221
v 34.88481226 32.52812261 -10.61305221
f 1 2 7
f 1 7 15
f 1 15 16
f 1 16 9
f 1 9 3
f 1 3 4
f 1 4 5
f 1 5 8
f 1 8 2
f 2 6 7
f 2 8 6
f 3 9 10
f 3 10 11
f 3 11 12
f 3 12 4
f 4 12 11
f 4 11 10
f 4 10 9
f 4 9 16
f 4 16 21
f 4 21 27
f 4 27 32
f 4 32 28
f 4 28 22
f 4 22 17
f 4 17 13
f 4 13 5
f 5 13 14
f 5 14 8
f 6 8 14
f 6 14 19
f 6 19 24
f 6 24 23
f 6 23 29
f 6 29 33
f 6 33 34
f 6 34 30
f 6 30 26
f 6 26 20
f 6 20 15
f 6 15 7
f 13 17 18
f 13 18 19
f 13 19 14
f 15 20 25
f 15 25 21
f 15 21 16
f 17 22 23
f 17 23 18
f 18 24 19
f 18 23 24
f 20 26 25
f 21 25 26
f 21 26 30
f 21 30 31
f 21 31 27
f 22 28 23
f 23 28 29
f 27 31 32
f 28 32 33
f 28 33 29
f 30 34 35
f 30 35 31
f 31 35 32
f 32 35 34
f 32 34 33

