# https://github.com/mikedh/trimesh
v 33.74738960 40.58755905 58.70665230
v 33.74738960 37.83827544 58.70665230
v 33.74738960 40.17258382 59.10750935
v 56.46857692 40.16693106 59.10177976
v 56.46857692 40.57571866 58.70665230
v 56.46857692 37.85307593 58.70665230
v 33.74738960 37.97525558 59.22491329
v 33.74738960 39.46588606 59.67511777
v 56.46857692 39.47234446 59.65898050
v 56.46857692 37.99059427 59.22491329
v 33.74738960 38.44351590 59.90045360
v 33.74738960 38.92308009 59.90127212
v 56.46857692 39.11818911 59.80117486
v 56.46857692 38.45239620 59.88256220
v 56.46857692 38.91527619 59.88256220
f 1 2 7
f 1 7 11
f 1 11 12
f 1 12 8
f 1 8 3
f 1 3 4
f 1 4 5
f 1 5 6
f 1 6 2
f 2 6 7
f 3 8 4
f 4 9 13
f 4 13 15
f 4 15 14
f 4 14 10
f 4 10 6
f 4 6 5
f 4 8 9
f 6 10 7
f 7 10 11
f 8 12 9
f 9 12 13
f 10 14 11
f 11 14 12
f 12 14 15
f 12 15 13

