# https://github.com/mikedh/trimesh
v 76.12712897 20.26676425 -7.66077516
v 63.58965363 24.87198575 -5.63622239
v 76.94322675 20.26676425 -7.66077516
v 33.74496604 19.24729692 -7.34425005
v 33.74496604 20.26676425 -7.65926438
v 56.46887490 24.87198575 -5.63546742
v 67.20924127 24.87198575 -5.63622239
v 68.32556287 24.87198575 -5.63546742
v 76.94322675 24.87198575 -5.62186958
v 76.94322675 19.24789492 -7.34273927
v 42.69245221 19.24729692 -7.34425005
v 33.74496604 18.79579260 -6.27002843
v 33.74496604 24.73820669 -5.62791270
v 33.75342274 24.86242939 -5.63546742
v 56.46887490 24.87198575 0.05669814
v 33.74496604 24.86242939 -1.23206544
v 76.94322675 24.87198575 0.05669814
v 76.94322675 18.78623790 -6.24509933
v 56.46887490 19.24729692 -7.34349507
v 56.46887490 18.78563990 -6.24509933
v 33.74496604 18.78563990 -6.24509933
v 33.74496604 24.86242939 0.04989922
v 56.46887490 18.78623790 0.05669814
v 76.94322675 18.78623790 0.05669814
v 33.74496604 18.77070986 0.04989922
f 1 2 7
f 1 7 3
f 1 3 11
f 1 11 4
f 1 4 5
f 1 5 2
f 2 6 15
f 2 15 17
f 2 17 9
f 2 9 8
f 2 8 7
f 2 5 6
f 3 7 8
f 3 8 9
f 3 9 17
f 3 17 24
f 3 24 18
f 3 18 10
f 3 10 11
f 4 11 12
f 4 12 21
f 4 21 25
f 4 25 22
f 4 22 16
f 4 16 13
f 4 13 5
f 5 13 14
f 5 14 6
f 6 14 16
f 6 16 22
f 6 22 15
f 10 18 19
f 10 19 11
f 11 19 20
f 11 20 12
f 12 20 21
f 13 16 14
f 15 22 25
f 15 25 23
f 15 23 24
f 15 24 17
f 18 24 25
f 18 25 20
f 18 20 19
f 20 25 21
f 23 25 24

