# https://github.com/mikedh/trimesh
v 107.60506135 44.55423713 46.10635630
v 107.79987968 44.55423713 46.10635630
v 107.60506135 44.55423713 52.11432373
v 107.60506135 45.50359651 43.61864938
v 111.80225169 44.55423713 46.10739698
v 108.45858630 45.50359651 43.61864938
v 114.08741778 44.55423713 52.11432373
v 107.60506135 48.73308881 52.11432373
v 107.60506135 46.01658555 42.55591009
v 108.45858630 46.01741777 42.55382789
v 112.91722874 44.55423713 46.13550089
v 109.57356335 45.50443038 43.61864938
v 110.68854040 45.50609482 43.61864938
v 111.80225169 45.50776091 43.61864938
v 110.68854040 46.01908386 42.55070583
v 114.08741778 46.97927036 52.11432373
v 114.08741778 44.55423713 48.07674490
v 107.60506135 53.06100853 44.85001212
v 112.91722874 48.61067163 52.11432373
v 107.60506135 46.50542205 41.99799715
v 109.57356335 46.50042543 41.99487509
v 110.68854040 46.49792712 41.99383357
v 113.82278963 44.55423713 46.88701747
v 112.91722874 45.53024570 43.61864938
v 111.80225169 46.02074829 42.55070583
v 112.91722874 46.03074153 42.55694994
v 111.80225169 46.49792712 41.99383357
v 113.78090972 48.06853509 52.11432373
v 114.08741778 46.97927036 44.73343374
v 113.99476769 48.09351818 44.73343374
v 113.85515470 44.55423713 46.99943228
v 113.67873815 46.16731635 42.72765560
v 113.78090972 45.98660583 43.61864938
v 114.08677991 46.97927036 43.61864938
v 110.68854040 53.06100853 44.70741162
v 107.60506135 53.06100853 41.48171993
v 113.24404221 48.40581023 52.11432373
v 112.37846093 53.06100853 44.19842087
v 111.81494257 53.06100853 44.47529472
v 107.60506135 47.06254680 41.74089964
v 109.57356335 47.05838405 41.73985812
v 110.68854040 47.05588408 41.73985812
v 112.91722874 46.50125765 41.99903783
v 111.80225169 47.05588408 41.74089964
v 112.91722874 47.05838405 41.74089964
v 113.71364140 49.20776767 43.61864938
v 113.49089981 49.81319584 44.22652436
v 113.99476769 48.09351818 43.61864938
v 113.63748946 47.21910810 41.80959818
v 113.81771328 46.90015666 42.41539013
v 113.95541932 48.09351818 42.50386584
v 110.68854040 53.06100853 41.48067925
v 107.60506135 49.20776767 41.48171993
v 112.40003543 53.06100853 43.61864938
v 107.60506135 47.85201601 41.56290836
v 108.45858630 48.09351818 41.50774206
v 111.80225169 48.09351818 41.50774206
v 112.91722874 48.09351818 41.52751840
v 113.69968143 49.20776767 42.50386584
v 113.49407585 49.82318908 42.50386584
v 112.39305544 53.06100853 42.50386584
v 112.39432453 53.06100853 42.64542566
v 113.49915220 49.83734506 43.61864938
v 113.69523630 48.09351818 41.74610390
v 113.58037385 49.20776767 41.83978304
v 113.48455436 49.79487379 41.93346218
v 111.80225169 50.32285103 41.48067925
v 110.68854040 51.43710052 41.48067925
v 111.29330745 53.06100853 41.55562273
v 111.80225169 51.43710052 41.50357848
v 111.80225169 49.20776767 41.48067925
v 107.60506135 48.94710957 41.48692419
v 107.60506135 48.09351818 41.50878274
v 112.91722874 49.20776767 41.60662546
v 112.38226819 53.06100853 41.99903783
v 112.61706612 51.43710052 41.73673607
v 112.45460954 52.55218389 41.85019239
v 112.37148094 53.06100853 41.93450370
v 111.81113531 53.06100853 41.68885540
v 111.80225169 52.55218389 41.61703397
v 112.13350697 53.06100853 41.80335240
f 1 2 5
f 1 5 11
f 1 11 23
f 1 23 31
f 1 31 17
f 1 17 7
f 1 7 3
f 1 3 8
f 1 8 18
f 1 18 36
f 1 36 53
f 1 53 72
f 1 72 73
f 1 73 55
f 1 55 40
f 1 40 20
f 1 20 9
f 1 9 4
f 1 4 6
f 1 6 2
f 2 6 5
f 3 7 16
f 3 16 28
f 3 28 37
f 3 37 19
f 3 19 8
f 4 9 10
f 4 10 6
f 5 6 12
f 5 12 13
f 5 13 14
f 5 14 11
f 6 10 15
f 6 15 12
f 7 17 29
f 7 29 16
f 8 19 18
f 9 20 21
f 9 21 22
f 9 22 10
f 10 22 15
f 11 14 24
f 11 24 23
f 12 15 13
f 13 15 25
f 13 25 14
f 14 25 26
f 14 26 24
f 15 22 27
f 15 27 25
f 16 29 48
f 16 48 30
f 16 30 28
f 17 31 32
f 17 32 33
f 17 33 34
f 17 34 29
f 18 35 39
f 18 39 38
f 18 38 54
f 18 54 62
f 18 62 61
f 18 61 75
f 18 75 78
f 18 78 81
f 18 81 79
f 18 79 69
f 18 69 52
f 18 52 36
f 18 19 35
f 19 37 38
f 19 38 39
f 19 39 35
f 20 40 21
f 21 40 22
f 22 40 41
f 22 41 42
f 22 42 27
f 23 24 32
f 23 32 31
f 24 26 32
f 25 27 43
f 25 43 26
f 26 43 32
f 27 42 44
f 27 44 45
f 27 45 43
f 28 30 46
f 28 46 47
f 28 47 38
f 28 38 37
f 29 34 48
f 30 48 46
f 32 34 33
f 32 43 49
f 32 49 50
f 32 50 34
f 34 50 51
f 34 51 48
f 36 52 68
f 36 68 53
f 38 47 54
f 40 55 41
f 41 55 56
f 41 56 42
f 42 45 44
f 42 56 57
f 42 57 45
f 43 45 49
f 45 57 58
f 45 58 49
f 46 48 59
f 46 59 60
f 46 60 61
f 46 61 62
f 46 62 63
f 46 63 47
f 47 63 54
f 48 51 59
f 49 58 64
f 49 64 50
f 50 64 51
f 51 64 65
f 51 65 66
f 51 66 59
f 52 67 71
f 52 71 68
f 52 69 70
f 52 70 67
f 53 68 71
f 53 71 72
f 54 63 62
f 55 73 56
f 56 72 57
f 56 73 72
f 57 72 71
f 57 71 58
f 58 71 67
f 58 67 70
f 58 70 74
f 58 74 64
f 59 66 60
f 60 66 75
f 60 75 61
f 64 74 76
f 64 76 65
f 65 77 66
f 65 76 77
f 66 77 78
f 66 78 75
f 69 79 80
f 69 80 70
f 70 80 76
f 70 76 74
f 76 80 79
f 76 79 81
f 76 81 77
f 77 81 78

