# https://github.com/mikedh/trimesh
v 64.28663827 32.52817577 10.61207451
v 63.86814350 32.53014584 10.61207451
v 57.17988055 32.53014584 10.61310772
v 64.28663827 30.29879167 10.61207451
v 64.28663827 32.53014584 8.57347707
v 57.17988055 32.52817577 10.61310772
v 56.47065852 32.53014584 10.61310772
v 56.47065852 30.29879167 10.61207451
v 64.28663827 29.60251798 10.59864195
v 64.28663827 32.52817577 7.21682376
v 63.86584868 32.53014584 7.34184711
v 56.47065852 32.52817577 10.61310772
v 56.47065852 32.53014584 7.37801028
v 56.47065852 29.58938194 10.59760874
v 56.47065852 29.18409797 10.58934224
v 64.28663827 29.18409797 10.58934224
v 64.28663827 29.81074462 0.05745436
v 56.47065852 29.71155649 0.05745436
v 56.47065852 28.47534603 10.41679041
v 64.28663827 28.48848208 10.41989087
v 64.28663827 25.81965829 0.05745436
v 56.47065852 25.81965829 0.05745436
v 64.28663827 28.06940592 10.31759896
v 56.47065852 28.06940592 10.31759896
v 64.28663827 25.81965829 6.12468168
v 56.47065852 25.81965829 6.12364847
v 64.28663827 27.66806376 10.11508238
v 56.47065852 27.66149574 10.11094955
v 57.17988055 27.42765314 9.99315866
v 59.40930160 27.42699701 9.99315866
v 64.28663827 26.55205778 8.24490476
v 60.52324698 25.81965829 6.12468168
v 60.52324698 26.55205778 8.24490476
v 56.47065852 26.55271557 8.24490476
v 64.28663827 27.42699701 9.99315866
v 56.47065852 27.42765314 9.99212545
v 56.47065852 26.98098763 9.35977870
v 61.63795751 26.98033149 9.35977870
v 64.28663827 27.14783106 9.59742606
v 64.28663827 26.98033149 9.35977870
v 56.47065852 26.70839137 8.65097112
f 1 2 3
f 1 3 6
f 1 6 4
f 1 4 9
f 1 9 16
f 1 16 20
f 1 20 23
f 1 23 27
f 1 27 35
f 1 35 39
f 1 39 40
f 1 40 31
f 1 31 25
f 1 25 21
f 1 21 17
f 1 17 10
f 1 10 5
f 1 5 2
f 2 5 11
f 2 11 13
f 2 13 7
f 2 7 3
f 3 7 12
f 3 12 6
f 4 6 12
f 4 12 8
f 4 8 9
f 5 10 11
f 7 13 18
f 7 18 22
f 7 22 26
f 7 26 34
f 7 34 41
f 7 41 37
f 7 37 36
f 7 36 28
f 7 28 24
f 7 24 19
f 7 19 15
f 7 15 14
f 7 14 8
f 7 8 12
f 8 14 9
f 9 14 15
f 9 15 16
f 10 13 11
f 10 17 13
f 13 17 18
f 15 19 16
f 16 19 20
f 17 21 22
f 17 22 18
f 19 23 20
f 19 24 23
f 21 25 32
f 21 32 26
f 21 26 22
f 23 24 27
f 24 28 29
f 24 29 30
f 24 30 27
f 25 31 33
f 25 33 32
f 26 32 33
f 26 33 34
f 27 30 35
f 28 36 29
f 29 36 37
f 29 37 30
f 30 38 39
f 30 39 35
f 30 37 38
f 31 40 38
f 31 38 33
f 33 38 41
f 33 41 34
f 37 41 38
f 38 40 39

