# https://github.com/mikedh/trimesh
v 111.80182977 39.17561536 44.43157513
v 112.91710914 40.05212010 44.97452645
v 112.91710914 39.17561536 44.43611245
v 111.80182977 38.15652091 44.74917940
v 76.60821954 38.15652091 44.74917940
v 76.60821954 39.17561536 44.43308757
v 76.60821954 40.05212010 44.97452645
v 111.83118159 41.32723150 46.04379390
v 112.91710914 41.32723150 46.06496724
v 113.64717706 39.94544693 45.08039482
v 112.91710914 38.17501073 44.75220429
v 113.75723558 39.17561536 44.86563403
v 113.67652555 38.33502215 44.93369221
v 111.80182977 37.69497811 45.84869401
v 76.60821954 37.69497811 45.84869401
v 76.60821954 41.32723150 46.04379390
v 113.48575701 41.32723150 46.25099249
v 113.64717706 41.16615364 46.19352139
v 113.73522254 41.32723150 46.53834878
v 113.80492937 40.30636133 45.83205799
v 112.91710914 37.73195774 45.84869401
v 114.06173701 39.17561536 45.84869401
v 113.77924861 38.19350054 45.84869401
v 111.80182977 37.69497811 58.10972320
v 76.60821954 37.69497811 58.10972320
v 76.60821954 41.32723150 58.14450768
v 113.85262317 41.32723150 46.88771348
v 112.91710914 37.73195774 58.10972320
v 114.08741778 39.17561536 46.96333303
v 114.08741778 41.32723150 48.07797205
v 113.77924861 38.19350054 58.10972320
v 112.91710914 38.01144452 59.22436139
v 111.80182977 37.99295304 59.22436139
v 109.57127766 37.99259757 59.22436139
v 83.93456614 37.99153113 59.22436139
v 76.60821954 37.82192015 58.58764123
v 76.60821954 40.16697259 59.10034539
v 90.49416088 41.32723150 58.20651610
v 113.69853858 38.32399902 59.22436139
v 114.08741778 39.17561536 58.10972320
v 114.08741778 41.32723150 55.95757737
v 113.56646703 38.50925600 59.84747042
v 112.91710914 38.45449750 59.88074328
v 76.60821954 38.45307559 59.88225573
v 76.60821954 37.99153113 59.22436139
v 76.60821954 39.47216838 59.65842029
v 94.95160068 41.32723150 58.21256586
v 113.77558088 39.18201561 59.28636981
v 114.08741778 40.29000438 56.99508419
v 113.99569792 41.32723150 56.99508419
v 113.97735926 41.32723150 57.08129082
v 113.56646703 38.81505643 59.84747042
v 112.91710914 38.91355196 59.88074328
v 76.60821954 38.91461839 59.88225573
v 77.24656925 39.47216838 59.65842029
v 95.08367555 41.32723150 58.21256586
v 113.67652555 40.02189620 58.95666683
v 113.69487085 41.32723150 57.83900293
v 112.91710914 39.47074647 59.65842029
v 88.39567700 39.47181290 59.65842029
v 109.57127766 39.47110195 59.65842029
v 96.19528388 41.32723150 58.21105342
v 113.59581553 41.32723150 57.89647403
v 112.91710914 41.32723150 58.13543387
v 112.91710914 40.16661711 59.10034539
v 111.80182977 41.32723150 58.14450768
v 112.78870532 41.32723150 58.13694631
f 1 2 3
f 1 3 4
f 1 4 5
f 1 5 6
f 1 6 7
f 1 7 2
f 2 8 9
f 2 9 10
f 2 10 3
f 2 7 16
f 2 16 8
f 3 11 4
f 3 10 12
f 3 12 13
f 3 13 11
f 4 11 14
f 4 14 15
f 4 15 5
f 5 15 25
f 5 25 36
f 5 36 45
f 5 45 44
f 5 44 54
f 5 54 46
f 5 46 37
f 5 37 26
f 5 26 16
f 5 16 7
f 5 7 6
f 8 16 26
f 8 26 38
f 8 38 47
f 8 47 56
f 8 56 62
f 8 62 66
f 8 66 67
f 8 67 64
f 8 64 63
f 8 63 58
f 8 58 51
f 8 51 50
f 8 50 41
f 8 41 30
f 8 30 27
f 8 27 19
f 8 19 17
f 8 17 9
f 9 17 10
f 10 18 19
f 10 19 20
f 10 20 12
f 10 17 18
f 11 21 14
f 11 13 21
f 12 20 22
f 12 22 13
f 13 22 23
f 13 23 21
f 14 21 28
f 14 28 24
f 14 24 25
f 14 25 15
f 17 19 18
f 19 27 20
f 20 27 22
f 21 23 31
f 21 31 28
f 22 29 23
f 22 27 30
f 22 30 29
f 23 29 40
f 23 40 31
f 24 28 32
f 24 32 33
f 24 33 34
f 24 34 35
f 24 35 36
f 24 36 25
f 26 37 38
f 28 31 39
f 28 39 32
f 29 30 41
f 29 41 49
f 29 49 40
f 31 40 39
f 32 39 42
f 32 42 43
f 32 43 33
f 33 43 34
f 34 43 44
f 34 44 35
f 35 44 45
f 35 45 36
f 37 46 38
f 38 46 47
f 39 40 42
f 40 48 42
f 40 49 50
f 40 50 51
f 40 51 48
f 41 50 49
f 42 52 53
f 42 53 43
f 42 48 52
f 43 53 54
f 43 54 44
f 46 54 55
f 46 55 56
f 46 56 47
f 48 51 57
f 48 57 52
f 51 58 57
f 52 59 53
f 52 57 59
f 53 59 54
f 54 60 55
f 54 59 61
f 54 61 60
f 55 60 56
f 56 61 59
f 56 59 62
f 56 60 61
f 57 58 63
f 57 63 64
f 57 64 65
f 57 65 59
f 59 65 62
f 62 65 66
f 64 67 65
f 65 67 66

