# https://github.com/mikedh/trimesh
v 76.94322841 25.66381971 -2.50940517
v 76.94322841 25.66381971 6.00944226
v 76.94322841 30.39184699 -2.50940517
v 114.08378743 25.66381971 -2.50940517
v 76.94322841 26.53250652 9.35943568
v 90.62142621 25.66381971 8.41403886
v 76.94322841 30.39184699 10.61311353
v 106.59022661 30.39184699 -2.50940517
v 114.08378743 28.06902386 -2.50940517
v 114.08742193 28.06902386 8.24576854
v 114.08378743 25.66381971 3.78724599
v 76.94322841 26.90413975 10.01581784
v 93.16290939 25.66381971 8.84306340
v 93.97007538 25.66381971 8.93297922
v 76.94322841 30.29882157 10.61311353
v 100.65282906 30.39184699 10.61311353
v 113.62566026 30.39184699 7.29009527
v 112.91666580 29.70550673 -2.50940517
v 113.98925040 29.18392189 7.13081653
v 113.99288491 29.18392189 8.24576854
v 113.88745101 28.77711634 -2.50940517
v 113.71292827 30.29882157 8.24576854
v 113.99288491 29.18392189 9.35943568
v 113.97834688 28.06902386 9.35943568
v 113.98198139 25.66381971 4.90091334
v 76.94322841 27.03927926 10.25216705
v 95.08265616 26.47187938 9.79231399
v 93.97007538 26.49548207 9.82057278
v 77.24864319 27.03280094 10.25858973
v 94.36638604 25.66381971 8.88288350
v 112.91666580 27.01058527 9.35943568
v 112.91666580 27.43127602 9.98884393
v 100.65282906 27.02354358 10.26501240
v 76.94322841 29.18392189 10.61182950
v 77.24864319 29.18392189 10.61311353
v 100.65282906 28.06902386 10.61311353
v 111.80045052 30.39184699 10.61182950
v 113.67656992 30.39184699 8.15328382
v 113.77836932 29.16170954 -2.50940517
v 113.47659236 29.35284669 -2.50940517
v 113.68020443 30.39184699 8.24576854
v 113.71292827 30.29882157 9.35943568
v 113.73474195 29.18392189 10.21106291
v 113.57476389 30.39184699 10.05306904
v 113.59294306 30.29882157 10.07233624
v 113.67292877 28.06902386 10.11344038
v 113.53476439 27.45858133 9.96443809
v 113.67292877 27.26975645 9.35943568
v 113.67292877 25.66381971 5.74354940
v 76.94322841 28.06902386 10.59898414
v 77.24864319 28.06902386 10.60669086
v 95.08265616 27.02956011 10.26501240
v 112.96393431 25.66381971 6.07495224
v 112.91666580 28.06902386 10.31125435
v 95.08265616 28.06902386 10.61311353
v 111.80045052 29.18392189 10.58999256
v 111.80045052 30.29882157 10.61182950
v 112.91666580 29.18392189 10.54760356
v 112.91666580 30.29882157 10.42043737
v 112.92030031 30.39184699 10.40117017
v 113.68020443 30.39184699 9.35943568
f 1 2 5
f 1 5 12
f 1 12 26
f 1 26 50
f 1 50 34
f 1 34 15
f 1 15 7
f 1 7 3
f 1 3 8
f 1 8 18
f 1 18 40
f 1 40 39
f 1 39 21
f 1 21 9
f 1 9 4
f 1 4 11
f 1 11 25
f 1 25 49
f 1 49 53
f 1 53 30
f 1 30 14
f 1 14 13
f 1 13 6
f 1 6 2
f 2 6 5
f 3 7 16
f 3 16 37
f 3 37 60
f 3 60 44
f 3 44 61
f 3 61 41
f 3 41 38
f 3 38 17
f 3 17 8
f 4 9 10
f 4 10 11
f 5 6 13
f 5 13 14
f 5 14 12
f 7 15 35
f 7 35 55
f 7 55 36
f 7 36 16
f 8 17 18
f 9 19 20
f 9 20 10
f 9 21 22
f 9 22 19
f 10 23 24
f 10 24 25
f 10 25 11
f 10 20 23
f 12 14 26
f 14 27 28
f 14 28 29
f 14 29 26
f 14 30 31
f 14 31 32
f 14 32 33
f 14 33 27
f 15 34 35
f 16 36 57
f 16 57 37
f 17 38 39
f 17 39 40
f 17 40 18
f 19 22 20
f 20 22 42
f 20 42 23
f 21 39 22
f 22 41 61
f 22 61 42
f 22 39 41
f 23 43 24
f 23 42 44
f 23 44 45
f 23 45 43
f 24 43 46
f 24 46 47
f 24 47 48
f 24 48 25
f 25 48 49
f 26 29 50
f 27 33 28
f 28 33 29
f 29 51 50
f 29 33 52
f 29 52 51
f 30 53 31
f 31 53 49
f 31 49 47
f 31 47 32
f 32 47 54
f 32 54 33
f 33 54 36
f 33 36 55
f 33 55 51
f 33 51 52
f 34 50 51
f 34 51 35
f 35 51 55
f 36 54 56
f 36 56 57
f 37 57 58
f 37 58 59
f 37 59 60
f 38 41 39
f 42 61 44
f 43 45 60
f 43 60 59
f 43 59 58
f 43 58 46
f 44 60 45
f 46 58 54
f 46 54 47
f 47 49 48
f 54 58 56
f 56 58 57

