# https://github.com/mikedh/trimesh
v 93.97007206 25.66381971 -8.82739679
v 95.08265284 25.66381971 -8.71612908
v 93.97007206 24.72489955 -8.54922751
v 92.85385345 24.72489955 -8.53879575
v 92.85385345 25.66381971 -8.78567140
v 112.91665916 25.66381971 -5.98486422
v 112.91665916 22.49814167 -5.97269327
v 95.08265284 23.90528189 -8.14936042
v 93.97007206 23.85973096 -8.21542604
v 92.05395980 25.66381971 -8.71612908
v 92.85385345 23.87336534 -8.21021015
v 91.73763817 23.92139464 -8.14066783
v 76.94322841 22.49814167 -5.99355680
v 113.82199668 25.66381971 -5.21120819
v 113.40386901 22.49814167 -5.81448553
v 111.80044720 22.49814167 -5.99355680
v 91.79581352 25.66381971 -8.68309627
v 76.94322841 22.49814167 5.99549766
v 76.94322841 25.66381971 -5.99007927
v 113.84745151 25.66381971 -5.12080317
v 113.83654135 22.49814167 -5.21120819
v 113.77836267 22.49814167 -5.38332481
v 76.94322841 25.66381971 6.00940613
v 90.62505739 22.49814167 6.06677833
v 93.97007206 23.83896876 8.08349814
v 92.85385345 23.84795536 8.07480556
v 91.73763817 23.85818115 8.01917170
v 92.85385345 24.72489955 8.51118217
v 91.73763817 24.72489955 8.38600599
v 93.16290607 25.66381971 8.84324612
v 90.62142289 25.66381971 8.41382292
v 114.08378078 25.66381971 -4.01508443
v 114.08378078 22.49814167 -4.01856155
v 95.08265284 22.49814167 6.07547092
v 93.97007206 24.72489955 8.52682981
v 96.19523361 22.49814167 6.07373257
v 111.80044720 22.49814167 5.99549766
v 112.91665916 22.49814167 5.98680508
v 95.08265284 23.84764474 8.03829605
v 93.97007206 25.66381971 8.93365031
v 114.08378078 25.66381971 3.78579812
v 114.08378078 22.49814167 3.78405977
v 113.68383229 22.49814167 5.71559086
v 112.96392767 25.66381971 6.07547092
v 94.36638272 25.66381971 8.88323233
v 114.08378078 23.61059122 3.78579812
v 113.98197474 25.66381971 4.90020986
v 113.98924376 22.49814167 4.89847151
v 113.67292877 25.66381971 5.74340779
f 1 2 3
f 1 3 4
f 1 4 5
f 1 5 10
f 1 10 17
f 1 17 19
f 1 19 23
f 1 23 31
f 1 31 30
f 1 30 40
f 1 40 45
f 1 45 44
f 1 44 49
f 1 49 47
f 1 47 41
f 1 41 32
f 1 32 20
f 1 20 14
f 1 14 6
f 1 6 2
f 2 6 7
f 2 7 3
f 3 8 9
f 3 9 4
f 3 7 8
f 4 10 5
f 4 9 11
f 4 11 12
f 4 12 13
f 4 13 10
f 6 14 15
f 6 15 7
f 7 15 22
f 7 22 21
f 7 21 33
f 7 33 42
f 7 42 48
f 7 48 43
f 7 43 38
f 7 38 37
f 7 37 36
f 7 36 34
f 7 34 24
f 7 24 18
f 7 18 13
f 7 13 16
f 7 16 9
f 7 9 8
f 9 13 11
f 9 16 13
f 10 13 17
f 11 13 12
f 13 18 23
f 13 23 19
f 13 19 17
f 14 20 21
f 14 21 22
f 14 22 15
f 18 24 25
f 18 25 26
f 18 26 27
f 18 27 28
f 18 28 29
f 18 29 30
f 18 30 31
f 18 31 23
f 20 32 21
f 21 32 33
f 24 34 25
f 25 35 26
f 25 34 36
f 25 36 37
f 25 37 38
f 25 38 39
f 25 39 35
f 26 35 28
f 26 28 27
f 28 35 40
f 28 40 30
f 28 30 29
f 32 41 46
f 32 46 42
f 32 42 33
f 35 39 38
f 35 38 40
f 38 43 44
f 38 44 45
f 38 45 40
f 41 47 48
f 41 48 46
f 42 46 48
f 43 49 44
f 43 48 49
f 47 49 48

