# https://github.com/mikedh/trimesh
v 32.70094995 37.63724788 51.05354953
v 33.74516537 37.68988182 51.05354953
v 31.51622122 38.00264728 51.05354953
v 32.65529600 37.71063241 45.84823222
v 33.74516537 37.69544986 45.84823222
v 33.74516537 42.80697341 51.05354953
v 31.15428357 39.17576652 51.05354953
v 31.36682927 39.17576652 45.84823222
v 31.71405612 38.17218684 45.84823222
v 31.84214101 38.32097746 44.93338158
v 32.65529600 38.16409059 44.75261458
v 33.74516537 37.70557101 45.82361125
v 31.15428357 42.80697341 51.05354953
v 33.74516537 42.80697341 46.47281839
v 31.71405612 42.80697341 47.01123239
v 31.75108725 39.17576652 44.86470298
v 31.32979980 42.80697341 48.07704639
v 32.65529600 39.17576652 44.43643388
v 33.74516537 38.17927313 44.74419192
v 33.74516537 38.15700429 44.75131891
v 33.74516537 39.17576652 44.43449038
v 33.48214518 42.80697341 46.47605797
v 32.65529600 42.80697341 46.48772063
v 31.89134642 39.94603828 45.07980928
f 1 2 6
f 1 6 13
f 1 13 7
f 1 7 3
f 1 3 4
f 1 4 5
f 1 5 2
f 2 5 12
f 2 12 20
f 2 20 19
f 2 19 21
f 2 21 14
f 2 14 6
f 3 7 8
f 3 8 9
f 3 9 4
f 4 9 10
f 4 10 11
f 4 11 12
f 4 12 5
f 6 14 22
f 6 22 23
f 6 23 15
f 6 15 17
f 6 17 13
f 7 13 8
f 8 15 16
f 8 16 10
f 8 10 9
f 8 13 17
f 8 17 15
f 10 16 18
f 10 18 11
f 11 18 19
f 11 19 20
f 11 20 12
f 14 21 18
f 14 18 22
f 15 23 24
f 15 24 16
f 16 24 18
f 18 21 19
f 18 24 23
f 18 23 22

