# https://github.com/mikedh/trimesh
v 96.31302669 53.06384903 56.63514901
v 105.60725404 53.06384903 56.63514901
v 96.31302669 53.06384903 62.63510740
v 96.31302669 69.94600133 56.63514901
v 111.76560428 53.06384903 59.62112754
v 105.60725404 71.50159784 56.63514901
v 105.11269501 53.06384903 62.70659909
v 96.31302669 54.78245360 62.70838645
v 96.31302669 69.61193877 61.45429972
v 97.75575076 73.30471971 61.45429972
v 97.75575076 73.30471971 56.63514901
v 112.28221288 53.06384903 60.01671637
v 105.58677920 71.86181956 56.63514901
v 105.53480306 72.61647523 56.63514901
v 110.68671318 53.06384903 62.70659909
v 96.31302669 55.89733099 62.71970608
v 96.31302669 54.89917317 62.70957829
v 96.31302669 69.14908370 62.34377773
v 97.79355098 73.26044780 62.12632346
v 98.42670973 73.45162829 61.45429972
v 98.42670973 73.52809916 58.11026514
v 97.97310371 73.37716737 56.63514901
v 112.29796353 53.06384903 60.04352586
v 105.36785151 72.87004038 56.63514901
v 105.56787908 73.01694565 59.22494319
v 105.80728161 72.45950695 59.22494319
v 112.36883978 53.13830995 60.77333921
v 112.38773989 53.06384903 60.71555001
v 111.82230793 53.06384903 62.39978040
v 110.68671318 53.66757622 62.70659909
v 100.65537149 58.12708576 62.71970608
v 99.54182963 58.12708576 62.72089793
v 99.54182963 55.89733099 62.71970608
v 96.31302669 58.12708576 62.72089793
v 96.31302669 68.28374493 62.65357645
v 98.42670973 72.61647523 62.46114348
v 98.42670973 73.31276945 62.20317721
v 96.31302669 68.15696236 62.68753453
v 104.00072789 73.61865957 61.45429972
v 99.54182963 73.61865957 56.99558709
v 98.42670973 73.52809916 56.63514901
v 98.78739323 73.55828486 56.63514901
v 105.00874274 73.39729338 56.63514901
v 105.01032079 73.39729338 56.99558709
v 105.56787908 73.01694565 61.45429972
v 105.80728161 72.45950695 61.45429972
v 106.13331104 71.50159784 60.33962166
v 106.93342465 69.14908370 60.33962166
v 112.40349054 53.06384903 61.45429972
v 112.39561688 53.06384903 60.86032075
v 112.38144096 53.06384903 62.04351213
v 111.52935121 54.78245360 62.30981966
v 110.68671318 54.78245360 62.65715116
v 109.57316801 57.01220838 62.70659909
v 105.11269501 69.27183974 62.70659909
v 104.00072789 71.50159784 62.70659909
v 99.54182963 70.38671713 62.70659909
v 96.31302669 67.04409824 62.70659909
v 104.00072789 72.61647523 62.64046946
v 104.00072789 73.39528011 62.29313796
v 104.32675732 73.54822185 56.63514901
v 104.00072789 73.61865957 56.63514901
v 104.85911657 73.32283245 62.19960250
v 105.01032079 73.39729338 61.45429972
v 99.54182963 73.61865957 56.63514901
v 105.76160773 72.32668790 62.14121780
v 111.24584621 56.45879621 62.01431978
v 106.13331104 71.50159784 61.45429972
v 106.93342465 69.14908370 61.45429972
v 112.36883978 53.13830995 62.02742594
v 110.25042922 59.03870970 62.17100566
v 111.34192150 55.89733099 62.13823860
v 108.00602014 65.68169217 62.15730316
v 110.40478291 58.12708576 62.30505310
v 105.11269501 71.50159784 62.62259675
v 107.34293151 64.81434346 62.63868211
v 108.45805142 61.47172125 62.64583153
v 109.57316801 58.12708576 62.65238461
v 105.11269501 70.38671713 62.69885500
v 108.45805142 60.35684386 62.70540808
v 105.18357127 72.66477367 62.34139487
v 105.90178550 71.50159784 62.27466890
v 109.28021460 61.47172125 62.29850002
v 107.02792853 68.15696236 62.28301017
f 1 2 5
f 1 5 12
f 1 12 23
f 1 23 28
f 1 28 50
f 1 50 49
f 1 49 51
f 1 51 29
f 1 29 15
f 1 15 7
f 1 7 3
f 1 3 8
f 1 8 17
f 1 17 16
f 1 16 34
f 1 34 58
f 1 58 38
f 1 38 35
f 1 35 18
f 1 18 9
f 1 9 4
f 1 4 11
f 1 11 22
f 1 22 41
f 1 41 42
f 1 42 65
f 1 65 62
f 1 62 61
f 1 61 43
f 1 43 24
f 1 24 14
f 1 14 13
f 1 13 6
f 1 6 2
f 2 6 5
f 3 7 8
f 4 9 10
f 4 10 11
f 5 6 13
f 5 13 14
f 5 14 12
f 7 15 33
f 7 33 16
f 7 16 17
f 7 17 8
f 9 18 19
f 9 19 10
f 10 19 20
f 10 20 21
f 10 21 22
f 10 22 11
f 12 14 23
f 14 24 25
f 14 25 26
f 14 26 27
f 14 27 28
f 14 28 23
f 15 29 30
f 15 30 31
f 15 31 32
f 15 32 33
f 16 33 32
f 16 32 34
f 18 35 19
f 19 36 37
f 19 37 20
f 19 35 38
f 19 38 36
f 20 39 40
f 20 40 21
f 20 37 39
f 21 41 22
f 21 40 42
f 21 42 41
f 24 43 25
f 25 43 44
f 25 44 64
f 25 64 45
f 25 45 46
f 25 46 26
f 26 46 68
f 26 68 47
f 26 47 48
f 26 48 49
f 26 49 50
f 26 50 27
f 27 50 28
f 29 51 52
f 29 52 53
f 29 53 30
f 30 53 54
f 30 54 31
f 31 54 55
f 31 55 56
f 31 56 32
f 32 56 34
f 34 56 57
f 34 57 58
f 36 57 59
f 36 59 37
f 36 38 57
f 37 59 60
f 37 60 39
f 38 58 57
f 39 61 62
f 39 62 65
f 39 65 40
f 39 60 63
f 39 63 64
f 39 64 61
f 40 65 42
f 43 61 44
f 44 61 64
f 45 64 63
f 45 63 66
f 45 66 46
f 46 66 67
f 46 67 68
f 47 68 69
f 47 69 48
f 48 69 49
f 49 67 70
f 49 70 51
f 49 69 67
f 51 71 72
f 51 72 52
f 51 70 73
f 51 73 71
f 52 72 71
f 52 71 74
f 52 74 75
f 52 75 76
f 52 76 77
f 52 77 78
f 52 78 53
f 53 78 79
f 53 79 80
f 53 80 54
f 54 80 55
f 55 79 56
f 55 80 79
f 56 79 59
f 56 59 57
f 59 81 63
f 59 63 60
f 59 79 75
f 59 75 81
f 63 81 66
f 66 81 82
f 66 82 73
f 66 73 70
f 66 70 67
f 67 69 68
f 71 83 74
f 71 73 82
f 71 82 83
f 74 83 75
f 75 84 82
f 75 82 81
f 75 79 76
f 75 83 84
f 76 79 77
f 77 79 78
f 82 84 83

