# https://github.com/mikedh/trimesh
v 93.96839618 44.55391985 43.28902531
v 95.08367555 44.55391985 43.38102839
v 93.96839618 43.63408505 43.52684480
v 92.85312013 43.63408505 43.55982697
v 92.85312013 44.55391985 43.32721589
v 112.91710914 44.55391985 46.13591118
v 112.91710914 41.32754878 46.06473967
v 95.08367555 42.80553821 43.93131102
v 93.96839618 42.75689426 43.85840240
v 92.85312013 42.76036764 43.87576183
v 92.09737145 44.55391985 43.38797266
v 91.73784075 42.81438363 43.95040548
v 76.60821954 41.32754878 46.04390769
v 113.81960030 44.55391985 46.88755858
v 113.48575701 41.32754878 46.25048086
v 111.83118159 41.32754878 46.04390769
v 91.81855077 44.55391985 43.42442655
v 76.60821954 41.32754878 58.14490760
v 76.60821954 44.55391985 46.12202389
v 113.85262317 44.55391985 47.00039240
v 113.85262317 41.32754878 46.88755858
v 113.73522254 41.32754878 46.53864155
v 76.60821954 44.55391985 58.09456640
v 90.62256470 41.32754878 58.20740022
v 92.85312013 42.73699416 60.18806861
v 91.73784075 42.75373483 60.12384012
v 92.85312013 43.63408505 60.62551701
v 93.96839618 44.55391985 61.01956807
v 93.11726323 44.55391985 60.91888485
v 90.62623243 44.55391985 60.49706003
v 114.08741778 44.55391985 48.07838982
v 114.08741778 41.32754878 48.07838982
v 94.95160068 41.32754878 58.21260780
v 95.08367555 41.32754878 58.21260780
v 96.19528388 41.32754878 58.21087194
v 93.96839618 42.73983632 60.18980447
v 93.96839618 43.63408505 60.63419631
v 112.91710914 41.32754878 58.13449202
v 112.91710914 44.55391985 58.13449202
v 114.08741778 44.55391985 55.87955066
v 114.08741778 41.32754878 55.95766645
v 111.80182977 41.32754878 58.14490760
v 95.08367555 42.76068492 60.12557598
v 112.78870532 41.32754878 58.13622829
v 113.59581553 41.32754878 57.89667294
v 113.63249949 44.55391985 57.93833483
v 113.97735926 44.55391985 56.99400197
v 113.99569792 41.32754878 56.99400197
v 113.69487085 41.32754878 57.83765245
v 113.97735926 41.32754878 57.08079747
f 1 2 3
f 1 3 4
f 1 4 5
f 1 5 11
f 1 11 17
f 1 17 19
f 1 19 23
f 1 23 30
f 1 30 29
f 1 29 28
f 1 28 39
f 1 39 46
f 1 46 47
f 1 47 40
f 1 40 31
f 1 31 20
f 1 20 14
f 1 14 6
f 1 6 2
f 2 6 7
f 2 7 3
f 3 8 9
f 3 9 10
f 3 10 4
f 3 7 8
f 4 11 5
f 4 10 12
f 4 12 13
f 4 13 11
f 6 14 15
f 6 15 7
f 7 15 22
f 7 22 21
f 7 21 32
f 7 32 41
f 7 41 48
f 7 48 50
f 7 50 49
f 7 49 45
f 7 45 38
f 7 38 44
f 7 44 42
f 7 42 35
f 7 35 34
f 7 34 33
f 7 33 24
f 7 24 18
f 7 18 13
f 7 13 16
f 7 16 9
f 7 9 8
f 9 13 10
f 9 16 13
f 10 13 12
f 11 13 17
f 13 18 23
f 13 23 19
f 13 19 17
f 14 20 21
f 14 21 22
f 14 22 15
f 18 24 25
f 18 25 26
f 18 26 27
f 18 27 28
f 18 28 29
f 18 29 30
f 18 30 23
f 20 31 21
f 21 31 32
f 24 33 25
f 25 33 34
f 25 34 35
f 25 35 36
f 25 36 37
f 25 37 27
f 25 27 26
f 27 37 28
f 28 37 38
f 28 38 39
f 31 40 41
f 31 41 32
f 35 42 36
f 36 43 37
f 36 42 44
f 36 44 38
f 36 38 43
f 37 43 38
f 38 45 46
f 38 46 39
f 40 47 48
f 40 48 41
f 45 49 46
f 46 49 50
f 46 50 47
f 47 50 48

