# https://github.com/mikedh/trimesh
v 24.85208550 -38.80995248 12.61310099
v 24.38287874 -38.80995248 12.61310099
v 24.85208550 -43.26737849 12.61310099
v 28.19699386 49.23997685 12.61176380
v 24.38287874 -43.74269481 12.61310099
v 27.08171876 48.13090101 12.61176380
v 24.85208550 45.90219132 12.61176380
v 24.38287874 45.42686836 12.61176380
v 28.19699386 -51.07314803 12.61176380
v 29.31043841 50.35961069 12.52885371
v 29.23987451 51.56374846 12.35902194
v 28.10443687 50.45467263 12.42588490
v 24.85208550 47.01126052 12.49675942
v 24.38287874 46.54650885 12.49943464
v 24.38287874 45.90219132 12.56629759
v 24.38287874 -51.07314803 12.61176380
v 28.19699386 -52.18221722 12.58635548
v 29.31043841 -52.18221722 12.50612060
v 29.31043841 -51.07314803 12.52751652
v 29.31043841 -43.26737849 12.52885371
v 30.12421395 30.29065224 12.29617140
v 30.12329868 50.35961069 12.29617140
v 30.12329868 51.46868653 12.29483338
v 30.03807217 52.21863064 12.24535476
v 28.41418716 51.24686870 12.30152017
v 29.56428574 52.21863064 12.24535476
v 24.38287874 46.96901520 12.37908066
v 26.16347110 49.03928168 12.30152017
v 24.38287874 -52.18221722 12.58635548
v 24.38287874 -52.50966163 12.48873544
v 28.19699386 -52.95329064 12.35367234
v 29.31043841 -52.92160333 12.31622929
v 30.01974350 -52.83709940 12.23465722
v 30.10955135 -52.18221722 12.28681022
v 30.12329868 -51.07314803 12.29483338
v 30.12329868 -33.23289262 12.29617140
v 30.12421395 11.34132431 12.29617140
v 33.74405077 51.46868653 10.61390007
v 33.74405077 52.58832038 10.60721411
v 33.74405077 53.67627355 10.54436273
v 33.74405077 53.70796087 10.54168835
v 33.74405077 54.46846299 10.20737359
v 33.74405077 54.47902764 10.19935043
v 31.19916896 53.38051645 11.22502698
v 28.82015550 51.98625481 11.59009883
v 24.38287874 47.66614270 12.06616265
v 24.38287874 47.61333273 12.16645708
v 24.85208550 47.84570856 12.26407712
v 30.65298475 53.38051645 11.22502698
v 29.37642098 52.42988382 11.59009883
v 24.38287874 47.40207955 12.25471594
v 24.38287874 -52.95329064 12.35367234
v 28.19699386 -53.17510847 11.59009883
v 29.31043841 -53.14341451 11.59009883
v 30.40555429 -52.97441330 11.59544760
v 31.17717421 -52.87935137 11.22636417
v 30.66673209 -52.18221722 11.89633088
v 30.68047776 -51.07314803 11.91104000
v 33.74405077 30.29065224 10.61390007
v 32.65443316 54.47902764 10.20068763
v 33.74405077 54.71140347 9.35955196
v 30.47703346 53.57064697 10.47482540
v 29.91985438 53.10588866 10.47482540
v 28.22998680 51.42643457 11.59009883
v 24.38287874 47.67670735 11.58207484
v 27.67280772 50.88774362 11.59009883
v 29.34068056 52.54606841 10.47482540
v 25.40743072 48.69071461 11.12473255
v 31.77834112 54.40508836 10.10707916
v 24.38287874 -53.17510847 11.59009883
v 29.31043841 -53.19623113 10.47482540
v 30.42479824 -53.17510847 10.47482540
v 31.54557326 -52.94272599 10.42400876
v 32.14124190 -52.79485408 10.01748228
v 31.84707282 -52.18221722 10.63930839
v 31.28989374 -52.18221722 11.33869334
v 31.30455634 -51.07314803 11.35340411
v 33.74405077 29.18157640 10.58982894
v 32.65443316 54.71140347 9.35955196
v 33.74405077 54.71140347 8.24561572
v 31.06170556 54.20439984 9.35955196
v 30.46695386 53.65514425 9.35955196
v 24.38287874 47.68727200 10.47482540
v 28.21532253 51.44755723 10.47482540
v 31.61888630 54.47902764 9.35955196
v 24.38287874 -53.19623113 10.47482540
v 30.42479824 -53.19623113 9.35955196
v 31.54007499 -53.04835258 9.35955196
v 32.16323664 -52.82654139 9.35955196
v 32.24204795 -52.18221722 9.35955196
v 32.16965018 -52.18221722 10.08300803
v 31.86173542 -51.07314803 10.65401751
v 33.74405077 29.14988909 10.58581736
v 32.65443316 54.71140347 -1.04832957
v 33.74405077 54.70084546 7.13034228
v 31.06170556 54.20439984 1.55798669
v 30.46695386 53.65514425 1.55798669
v 24.38287874 47.68727200 8.24561572
v 28.21532253 51.44755723 1.55798669
v 31.61888630 54.47902764 1.55798669
v 24.38287874 -53.19623113 8.24561572
v 30.42479824 -53.19623113 1.55798669
v 31.54007499 -53.04835258 1.55798669
v 32.16323664 -52.82654139 1.55798669
v 32.24204795 -52.18221722 1.55798669
v 33.74405077 18.75627814 6.01506885
v 33.74405077 19.06259325 7.13034228
v 33.74405077 19.52734824 7.80565776
v 33.74405077 28.06193757 10.31702836
v 33.03107961 54.64802885 -1.04832957
v 32.03860365 54.56353157 -1.04832957
v 31.63996411 54.47902764 0.44271325
v 33.74405077 54.52127960 -1.04832957
v 31.08278337 54.17271253 0.44271325
v 30.50177734 53.61289229 0.44271325
v 24.38287874 47.63445539 7.60774329
v 27.08996783 50.33848803 1.55798669
v 26.53278874 49.78923244 1.55798669
v 26.05075490 49.23997685 1.55798669
v 26.57219357 49.75753848 0.44271325
v 27.08171876 -53.13285650 0.44271325
v 27.08171876 -53.19623113 1.55798669
v 24.38287874 -52.97441330 7.13034228
v 26.17630151 -52.94272599 0.44271325
v 30.42479824 -53.13285650 0.44271325
v 31.54007499 -53.00610061 0.44271325
v 32.14582490 -52.80541209 0.44271325
v 32.20813973 -52.18221722 0.44271325
v 33.74405077 18.77740246 -1.04832957
v 33.74405077 18.76683947 -0.67256018
v 33.74405077 18.75627814 0.44271325
v 31.74718370 54.47902764 -1.04832957
v 25.73734022 48.13090101 0.44271325
v 24.38287874 47.13801641 7.02336148
v 26.13597975 49.19772488 0.44271325
v 26.32292758 48.99703636 -0.22992743
v 26.34033932 -52.85822871 -0.21789228
v 27.08171876 -52.91103868 -0.27004528
v 24.38287874 -52.75260212 6.56601919
v 25.77766197 -52.18221722 0.44271325
v 30.42479824 -52.91103868 -0.27004528
v 31.54007499 -52.84766405 -0.20986871
v 32.11924882 -52.77372478 -0.13899418
v 32.13666056 -52.18221722 -0.15905290
v 32.70025484 18.72458917 -1.04832957
v 31.54007499 -52.18221722 -0.32353548
v 31.54007499 -51.07314803 -0.34091981
v 30.42479824 -51.07314803 -0.46261057
v 31.26606679 53.75020618 -1.04832957
v 26.22120792 48.13090101 -0.28876681
v 25.72726061 47.01126052 0.44271325
v 24.38287874 46.59931882 6.55665842
v 26.23403500 -52.18221722 -0.27940605
v 27.08171876 -52.18221722 -0.44388904
v 24.38287874 -52.18221722 6.54194847
v 25.72634368 -51.07314803 0.44271325
v 30.42479824 -52.18221722 -0.44388904
v 31.51808025 19.09428056 -1.04832957
v 27.08171876 -51.07314803 -0.46261057
v 31.16067940 52.58832038 -1.04832957
v 27.08171876 48.13090101 -0.46261057
v 26.22029099 47.01126052 -0.28876681
v 24.38287874 44.78255083 6.52590133
v 24.38287874 45.87050401 6.53258771
v 25.72634368 15.79874700 0.44271325
v 26.22029099 -51.07314803 -0.28876681
v 24.38287874 -51.07314803 6.52590133
v 31.15517947 20.25616803 -1.04832957
v 31.15517947 51.46868653 -1.04832957
f 1 2 5
f 1 5 3
f 1 3 9
f 1 9 4
f 1 4 2
f 2 4 6
f 2 6 7
f 2 7 8
f 2 8 15
f 2 15 14
f 2 14 27
f 2 27 51
f 2 51 47
f 2 47 46
f 2 46 65
f 2 65 83
f 2 83 98
f 2 98 116
f 2 116 134
f 2 134 152
f 2 152 164
f 2 164 163
f 2 163 167
f 2 167 155
f 2 155 139
f 2 139 123
f 2 123 101
f 2 101 86
f 2 86 70
f 2 70 52
f 2 52 30
f 2 30 29
f 2 29 16
f 2 16 5
f 3 5 9
f 4 10 11
f 4 11 12
f 4 12 13
f 4 13 14
f 4 14 15
f 4 15 6
f 4 9 20
f 4 20 10
f 5 16 9
f 6 15 7
f 7 15 8
f 9 16 29
f 9 29 17
f 9 17 18
f 9 18 19
f 9 19 20
f 10 21 22
f 10 22 23
f 10 23 24
f 10 24 11
f 10 20 37
f 10 37 21
f 11 25 12
f 11 24 26
f 11 26 25
f 12 25 14
f 12 14 13
f 14 25 28
f 14 28 27
f 17 29 30
f 17 30 31
f 17 31 32
f 17 32 18
f 18 32 33
f 18 33 34
f 18 34 19
f 19 34 35
f 19 35 20
f 20 35 36
f 20 36 37
f 21 38 22
f 21 37 59
f 21 59 38
f 22 38 23
f 23 38 39
f 23 39 40
f 23 40 41
f 23 41 24
f 24 41 42
f 24 42 43
f 24 43 44
f 24 44 49
f 24 49 26
f 25 26 45
f 25 45 46
f 25 46 47
f 25 47 48
f 25 48 28
f 26 49 50
f 26 50 45
f 27 28 48
f 27 48 51
f 30 52 31
f 31 52 70
f 31 70 53
f 31 53 54
f 31 54 32
f 32 54 55
f 32 55 33
f 33 55 56
f 33 56 57
f 33 57 34
f 34 57 58
f 34 58 35
f 35 58 59
f 35 59 36
f 36 59 37
f 38 59 78
f 38 78 93
f 38 93 109
f 38 109 108
f 38 108 107
f 38 107 106
f 38 106 131
f 38 131 130
f 38 130 129
f 38 129 113
f 38 113 95
f 38 95 80
f 38 80 61
f 38 61 43
f 38 43 42
f 38 42 41
f 38 41 40
f 38 40 39
f 43 60 44
f 43 61 60
f 44 60 49
f 45 50 62
f 45 62 63
f 45 63 64
f 45 64 46
f 46 64 66
f 46 66 67
f 46 67 68
f 46 68 65
f 47 51 48
f 49 62 50
f 49 60 69
f 49 69 62
f 53 70 86
f 53 86 71
f 53 71 72
f 53 72 54
f 54 72 55
f 55 72 56
f 56 72 73
f 56 73 74
f 56 74 75
f 56 75 76
f 56 76 57
f 57 76 77
f 57 77 58
f 58 77 59
f 59 77 78
f 60 61 79
f 60 79 69
f 61 80 94
f 61 94 79
f 62 69 81
f 62 81 63
f 63 81 82
f 63 82 67
f 63 67 64
f 64 67 66
f 65 68 83
f 67 82 84
f 67 84 68
f 68 84 83
f 69 79 85
f 69 85 81
f 71 86 101
f 71 101 122
f 71 122 102
f 71 102 87
f 71 87 72
f 72 87 88
f 72 88 73
f 73 88 74
f 74 88 89
f 74 89 90
f 74 90 91
f 74 91 75
f 75 91 78
f 75 78 92
f 75 92 77
f 75 77 76
f 77 92 78
f 78 91 93
f 79 94 100
f 79 100 85
f 80 95 94
f 81 85 100
f 81 100 96
f 81 96 97
f 81 97 82
f 82 97 99
f 82 99 84
f 83 84 99
f 83 99 98
f 87 102 103
f 87 103 88
f 88 103 104
f 88 104 89
f 89 104 105
f 89 105 90
f 90 105 131
f 90 131 106
f 90 106 107
f 90 107 108
f 90 108 109
f 90 109 93
f 90 93 91
f 94 95 110
f 94 110 113
f 94 113 129
f 94 129 145
f 94 145 158
f 94 158 168
f 94 168 169
f 94 169 160
f 94 160 149
f 94 149 132
f 94 132 111
f 94 111 112
f 94 112 100
f 95 113 110
f 96 114 97
f 96 100 112
f 96 112 114
f 97 114 115
f 97 115 99
f 98 99 117
f 98 117 118
f 98 118 119
f 98 119 116
f 99 115 120
f 99 120 117
f 101 121 122
f 101 123 124
f 101 124 121
f 102 125 126
f 102 126 103
f 102 122 121
f 102 121 125
f 103 126 127
f 103 127 104
f 104 127 105
f 105 127 128
f 105 128 129
f 105 129 130
f 105 130 131
f 111 132 112
f 112 132 114
f 114 132 115
f 115 132 120
f 116 133 134
f 116 119 135
f 116 135 133
f 117 120 118
f 118 120 119
f 119 120 135
f 120 136 135
f 120 132 136
f 121 124 137
f 121 137 138
f 121 138 141
f 121 141 125
f 123 139 124
f 124 139 140
f 124 140 137
f 125 141 142
f 125 142 126
f 126 142 143
f 126 143 127
f 127 143 128
f 128 143 144
f 128 144 129
f 129 144 146
f 129 146 147
f 129 147 148
f 129 148 145
f 132 149 136
f 133 150 151
f 133 151 152
f 133 152 134
f 133 135 136
f 133 136 150
f 136 149 150
f 137 140 153
f 137 153 154
f 137 154 138
f 138 154 157
f 138 157 141
f 139 155 156
f 139 156 140
f 140 156 153
f 141 157 142
f 142 157 146
f 142 146 143
f 143 146 144
f 145 148 159
f 145 159 158
f 146 157 148
f 146 148 147
f 148 157 154
f 148 154 159
f 149 160 161
f 149 161 150
f 150 161 162
f 150 162 151
f 151 163 164
f 151 164 152
f 151 162 165
f 151 165 163
f 153 156 166
f 153 166 159
f 153 159 154
f 155 167 156
f 156 167 163
f 156 163 165
f 156 165 162
f 156 162 166
f 158 159 168
f 159 166 162
f 159 162 161
f 159 161 169
f 159 169 168
f 160 169 161

