# https://github.com/mikedh/trimesh
v 96.31302669 58.12729839 62.72149427
v 76.61014975 58.12729839 62.72149427
v 96.31302669 55.89827118 62.71941456
v 96.31302669 67.04341054 62.70485991
v 95.08050948 68.15886267 62.70485991
v 76.61014975 55.89827118 62.71941456
v 78.36151640 68.15886267 62.70485991
v 76.61014975 67.04341054 62.70485991
v 76.61014975 55.26087328 62.71317709
v 96.31302669 54.89905357 62.70901933
v 96.31302669 68.15886267 62.68614750
v 96.19536693 68.15886267 62.68822721
v 96.31302669 68.28446918 62.65288045
v 95.08050948 69.13933298 62.35763804
v 76.61014975 69.23682022 62.32853040
v 77.24665895 68.15886267 62.68822721
v 76.61014975 67.52146145 62.69862244
v 76.61014975 54.78282237 62.70693962
v 96.31302669 54.78282237 62.70693962
v 96.31302669 69.15058202 62.34308505
v 76.61014975 68.15886267 62.67783032
v 96.31302669 69.61175937 61.45319840
v 76.61014975 69.43178805 61.95012119
v 76.61014975 53.06183908 62.63416804
v 96.31302669 53.06183908 62.63416804
v 76.61014975 69.68112402 61.45319840
v 96.31302669 72.18573273 54.67510019
v 95.71316324 72.08450135 55.37578099
v 76.61014975 53.06183908 41.55345000
v 96.31302669 53.06183908 41.55345000
v 95.34283201 72.08450135 55.37578099
v 91.12836280 72.07512605 55.35290999
v 90.02893706 72.07887683 54.26966180
v 76.61014975 69.68862559 61.27646956
v 96.31302669 72.21385533 54.45678712
v 76.61014975 54.78282237 41.49731111
v 96.31302669 54.78282237 41.49731111
v 90.02893706 72.07887683 53.97857777
v 76.61014975 69.72611685 60.33876287
v 96.31302669 72.21197827 53.69788960
v 76.61014975 57.01184958 41.48067842
v 96.31302669 57.01184958 41.48067842
v 91.73594044 72.10886984 52.53563278
v 91.73594044 72.10324864 51.42327602
v 90.82168198 72.07700310 51.42327602
v 90.91812272 72.06950153 50.66645769
v 90.26425325 72.04888050 51.42327602
v 76.61014975 69.72611685 43.62014521
v 96.31302669 72.19136057 50.27141495
v 76.61014975 68.15886267 41.48067842
v 96.31302669 68.15886267 41.48067842
v 91.69157883 72.08824882 50.30052342
v 92.03297685 72.08075057 49.42727154
v 90.57672138 72.03763147 50.30052342
v 76.61014975 69.63988197 42.50362996
v 96.31302669 72.16698876 50.09884387
v 93.96565535 72.05637876 48.71203651
v 92.85079789 72.05450502 48.70995722
v 92.85079789 72.08637508 49.26717498
v 76.61014975 68.77751659 41.62206215
v 96.31302669 69.08871563 41.71354614
v 91.69157883 72.03013321 49.11123743
v 96.31302669 69.54989631 42.50362996
v 96.31302669 69.50302642 42.42046316
v 76.61014975 69.53489648 42.32066366
v 95.14030280 72.04888050 49.11331631
v 76.61014975 69.19182739 41.72809913
f 1 2 6
f 1 6 3
f 1 3 10
f 1 10 19
f 1 19 25
f 1 25 30
f 1 30 37
f 1 37 42
f 1 42 51
f 1 51 61
f 1 61 64
f 1 64 63
f 1 63 56
f 1 56 49
f 1 49 40
f 1 40 35
f 1 35 27
f 1 27 22
f 1 22 20
f 1 20 13
f 1 13 11
f 1 11 4
f 1 4 5
f 1 5 7
f 1 7 2
f 2 7 8
f 2 8 17
f 2 17 21
f 2 21 15
f 2 15 23
f 2 23 26
f 2 26 34
f 2 34 39
f 2 39 48
f 2 48 55
f 2 55 65
f 2 65 67
f 2 67 60
f 2 60 50
f 2 50 41
f 2 41 36
f 2 36 29
f 2 29 24
f 2 24 18
f 2 18 9
f 2 9 6
f 3 6 9
f 3 9 10
f 4 11 12
f 4 12 5
f 5 12 13
f 5 13 14
f 5 14 15
f 5 15 7
f 7 16 17
f 7 17 8
f 7 15 16
f 9 18 10
f 10 18 19
f 11 13 12
f 13 20 14
f 14 20 15
f 15 21 16
f 15 20 22
f 15 22 23
f 16 21 17
f 18 24 25
f 18 25 19
f 22 26 23
f 22 27 28
f 22 28 26
f 24 29 30
f 24 30 25
f 26 28 31
f 26 31 32
f 26 32 33
f 26 33 34
f 27 35 32
f 27 32 31
f 27 31 28
f 29 36 37
f 29 37 30
f 32 35 33
f 33 35 38
f 33 38 48
f 33 48 39
f 33 39 34
f 35 40 38
f 36 41 42
f 36 42 37
f 38 40 43
f 38 43 44
f 38 44 45
f 38 45 46
f 38 46 47
f 38 47 48
f 40 49 44
f 40 44 43
f 41 50 51
f 41 51 42
f 44 49 52
f 44 52 45
f 45 52 46
f 46 52 53
f 46 53 54
f 46 54 47
f 47 54 48
f 48 54 55
f 49 56 57
f 49 57 58
f 49 58 59
f 49 59 53
f 49 53 52
f 50 60 51
f 51 60 61
f 53 59 58
f 53 58 62
f 53 62 54
f 54 62 55
f 55 63 64
f 55 64 65
f 55 62 58
f 55 58 57
f 55 57 63
f 56 66 57
f 56 63 66
f 57 66 63
f 60 67 61
f 61 67 64
f 64 67 65

