# https://github.com/mikedh/trimesh
v 64.28787663 32.53855770 -10.61259624
v 70.54679258 32.53855770 -10.61259624
v 64.28787663 32.53855770 -7.23213268
v 64.28787663 52.59306450 -10.61259624
v 76.94322675 32.53855770 -10.61207880
v 76.94322675 38.10346488 -10.61259624
v 66.19454216 32.53855770 -5.32771130
v 64.28787663 50.81550533 -7.23161524
v 64.28787663 53.28976343 -10.59655823
v 73.90049069 52.59306450 -10.61259624
v 76.94322675 32.53855770 -5.32771130
v 76.94322675 49.24847840 -10.61259624
v 66.20940909 52.59306450 -5.32771130
v 64.28787663 52.59306450 -7.23161524
v 64.28787663 53.70865189 -10.58672862
v 67.21291648 53.70865189 -10.58672862
v 73.90049069 53.70865189 -10.57275953
v 76.94322675 50.76341628 -5.32771130
v 74.99443881 53.70865189 -10.36374387
v 76.94322675 49.54148138 -10.54689108
v 66.23294783 53.71950225 -5.32771130
v 64.28787663 53.00978355 -7.23937511
v 64.28787663 54.46829023 -10.35391426
v 67.21291648 54.46829023 -10.35391426
v 73.90049069 54.44875891 -10.33994516
v 74.80488637 54.39449713 -10.28096500
v 76.94322675 50.76341628 -8.47536132
v 75.56185365 54.05374392 -5.32771130
v 76.94322675 50.21430686 -10.37357348
v 64.28787663 53.73469807 -7.26576100
v 66.38781051 54.32287677 -5.32771130
v 64.28787663 54.69184225 -9.58976517
v 67.21291648 54.69184225 -9.58976517
v 73.90049069 54.65928784 -9.58976517
v 74.99196044 54.47263237 -9.58976517
v 75.55194347 53.73469807 -9.65702263
v 76.94322675 50.66574972 -9.58976517
v 75.56185365 54.05374392 -8.47536132
v 75.46398112 54.13187915 -5.32771130
v 76.94322675 50.37708556 -10.09212683
v 64.28787663 54.48565546 -7.61756972
v 66.46090511 54.43573582 -5.32771130
v 64.28787663 54.70703808 -8.47536132
v 64.98413786 54.70920749 -8.47536132
v 67.21291648 54.70920749 -8.47536132
v 73.90049069 54.69618439 -8.47536132
v 75.00434899 54.48782487 -8.47536132
v 75.00434899 54.48782487 -5.32771130
v 67.21291648 54.65711844 -5.32771130
v 68.32792496 54.71137689 -5.32771130
v 73.90049069 54.70920749 -6.24603454
v 73.90049069 54.70703808 -7.36095665
v 73.90049069 54.70920749 -5.32771130
f 1 2 5
f 1 5 11
f 1 11 7
f 1 7 3
f 1 3 8
f 1 8 14
f 1 14 22
f 1 22 30
f 1 30 41
f 1 41 43
f 1 43 32
f 1 32 23
f 1 23 15
f 1 15 9
f 1 9 4
f 1 4 10
f 1 10 12
f 1 12 6
f 1 6 2
f 2 6 5
f 3 7 8
f 4 9 10
f 5 6 12
f 5 12 20
f 5 20 29
f 5 29 40
f 5 40 37
f 5 37 27
f 5 27 18
f 5 18 11
f 7 11 18
f 7 18 28
f 7 28 39
f 7 39 48
f 7 48 53
f 7 53 50
f 7 50 49
f 7 49 42
f 7 42 31
f 7 31 21
f 7 21 13
f 7 13 14
f 7 14 8
f 9 15 16
f 9 16 10
f 10 16 17
f 10 17 12
f 12 17 19
f 12 19 20
f 13 21 22
f 13 22 14
f 15 23 24
f 15 24 16
f 16 24 17
f 17 24 25
f 17 25 26
f 17 26 19
f 18 27 38
f 18 38 28
f 19 26 20
f 20 26 29
f 21 30 22
f 21 31 30
f 23 32 33
f 23 33 24
f 24 33 25
f 25 33 34
f 25 34 26
f 26 34 35
f 26 35 36
f 26 36 29
f 27 37 38
f 28 38 39
f 29 36 40
f 30 31 41
f 31 42 41
f 32 43 44
f 32 44 45
f 32 45 33
f 33 45 46
f 33 46 34
f 34 46 35
f 35 47 38
f 35 38 36
f 35 46 47
f 36 38 37
f 36 37 40
f 38 47 39
f 39 47 48
f 41 42 49
f 41 49 43
f 43 49 50
f 43 50 44
f 44 50 45
f 45 50 51
f 45 51 52
f 45 52 46
f 46 52 47
f 47 52 51
f 47 51 53
f 47 53 48
f 50 53 51

