# https://github.com/mikedh/trimesh
v 105.64584971 34.15237141 5.23958103
v 111.76576989 34.15237141 7.52681698
v 105.64584971 34.15237141 10.61258696
v 105.64584971 50.79975801 5.26588303
v 112.28376009 34.15237141 7.92292789
v 110.68745778 34.15237141 10.61258696
v 107.34402449 43.67470754 10.61311353
v 106.22932746 45.90413814 10.61311353
v 105.64584971 47.01885178 10.61258696
v 105.64584971 50.79975801 10.43215483
v 106.35171464 50.79975801 6.75511151
v 111.32915408 36.71100056 7.61256217
v 112.29963697 34.15237141 7.94817799
v 111.82200174 34.15237141 10.30590392
v 110.68745778 34.75861633 10.61258696
v 106.22932746 47.01885178 10.61311353
v 105.64584971 48.13356875 10.60995660
v 106.23461976 50.79975801 10.27118508
v 105.64584971 49.24828239 10.57681582
v 106.22932746 49.24828239 10.53683708
v 106.50122107 50.79975801 7.14385748
v 106.88491727 50.09572695 7.53575997
v 112.38762258 34.15237141 8.62046153
v 106.93387015 50.23914044 8.24539230
v 112.38166584 34.15237141 9.94977216
v 111.52893896 35.87333329 10.21595072
v 110.68745778 35.87333329 10.56366482
v 109.57276075 38.10276390 10.61258696
v 106.22932746 48.13356875 10.60732706
v 108.45872485 41.44690814 10.61153465
v 106.88491727 50.09572695 10.05550755
v 106.73540752 50.79975801 9.36007853
v 107.02847030 49.24828239 10.18912216
v 107.34402449 45.90413814 10.54472735
v 110.40497959 39.21747754 10.21121573
v 109.27969797 42.55999390 10.20490352
v 108.15441636 45.90413814 10.19701325
v 106.74268317 50.79975801 8.24013157
v 112.36843677 34.22733725 8.67832626
v 112.39555936 34.15237141 8.76564909
v 106.74334762 50.79975801 8.24539230
v 112.37306794 34.24200484 9.36007853
v 111.24646076 37.55029572 8.77932666
v 112.40349614 34.15237141 9.36007853
v 112.36843677 34.22733725 9.93346505
v 108.00688996 46.77276848 10.06339781
v 110.25084198 40.13011065 10.07760112
v 111.34172203 36.98804693 10.04446034
v 108.45872485 42.55999390 10.55209187
v 109.57276075 39.21747754 10.55893066
v 106.93387015 50.23914044 9.36007853
v 106.73672976 50.79649892 9.36007853
v 111.24646076 37.55029572 9.92084063
v 110.31104056 40.30774630 9.36007853
f 1 2 5
f 1 5 13
f 1 13 23
f 1 23 40
f 1 40 44
f 1 44 25
f 1 25 14
f 1 14 6
f 1 6 3
f 1 3 9
f 1 9 17
f 1 17 19
f 1 19 10
f 1 10 4
f 1 4 2
f 2 4 5
f 3 6 7
f 3 7 8
f 3 8 16
f 3 16 9
f 4 10 18
f 4 18 32
f 4 32 41
f 4 41 38
f 4 38 21
f 4 21 11
f 4 11 12
f 4 12 5
f 5 12 13
f 6 14 15
f 6 15 7
f 7 16 8
f 7 15 28
f 7 28 16
f 9 16 17
f 10 19 20
f 10 20 18
f 11 21 22
f 11 22 12
f 12 22 13
f 13 22 24
f 13 24 23
f 14 25 26
f 14 26 27
f 14 27 15
f 15 27 28
f 16 29 17
f 16 28 30
f 16 30 29
f 17 29 19
f 18 31 32
f 18 20 33
f 18 33 31
f 19 29 20
f 20 29 34
f 20 34 26
f 20 26 35
f 20 35 36
f 20 36 37
f 20 37 33
f 21 38 22
f 22 38 24
f 23 39 40
f 23 24 39
f 24 38 41
f 24 41 42
f 24 42 43
f 24 43 39
f 25 44 45
f 25 45 31
f 25 31 46
f 25 46 47
f 25 47 48
f 25 48 26
f 26 48 47
f 26 47 35
f 26 34 49
f 26 49 50
f 26 50 27
f 27 50 29
f 27 29 30
f 27 30 28
f 29 50 49
f 29 49 34
f 31 51 52
f 31 52 32
f 31 33 46
f 31 45 53
f 31 53 51
f 32 52 41
f 33 37 47
f 33 47 46
f 35 47 36
f 36 47 37
f 39 43 40
f 40 43 44
f 41 54 42
f 41 52 51
f 41 51 54
f 42 44 43
f 42 54 53
f 42 53 44
f 44 53 45
f 51 53 54

