# https://github.com/mikedh/trimesh
v 37.10440910 32.52737179 -10.61305221
v 37.10440910 32.53788993 -10.61305221
v 37.11505182 32.52737179 -10.61305221
v 37.10440910 30.29815713 -10.61200738
v 37.10440910 32.53788993 -7.36709611
v 37.11505182 32.53788993 -10.61305221
v 56.46858690 30.29815713 -10.61200738
v 37.10440910 29.18317439 -10.58589807
v 56.46858690 29.89243463 -10.60365283
v 52.71922223 29.18317439 -10.58798691
v 42.68987084 29.18317439 -10.58694290
v 37.10440910 29.72037698 0.05014299
v 64.28663744 29.81053864 0.05640911
v 64.28663744 32.53788993 -7.23028137
v 56.46858690 32.53788993 -10.61200738
v 64.28663744 30.29815713 -10.61096337
v 64.28663744 29.87966070 -10.60260882
v 37.10440910 28.14783185 -10.35613350
v 56.46858690 29.18317439 -10.58798691
v 51.60425859 28.13355628 -10.35508866
v 56.46858690 28.80074395 -10.50339162
v 41.57490637 28.13505792 -10.35404382
v 37.10440910 24.86298919 0.05014299
v 56.46858690 29.71136380 0.05640911
v 64.28663744 24.87275651 0.05640911
v 64.28663744 32.53788993 -8.56605288
v 63.86619751 32.53788993 -10.61096337
v 64.28663744 32.53338168 -10.61096337
v 64.28663744 29.18392521 -10.58694290
v 37.10440910 28.13581040 -10.35299982
v 52.71922223 27.57606491 -10.10861334
v 47.14706430 27.57681573 -10.10861334
v 42.68987084 27.57756655 -10.10861334
v 56.46858690 28.13355628 -10.35508866
v 58.29404042 27.57531243 -10.10861334
v 64.28663744 28.13280380 -10.35404382
v 37.10440910 27.58507975 -10.11070218
v 37.10440910 24.86298919 -5.07153302
v 56.46858690 24.86298919 0.05014299
v 56.46858690 24.87275651 0.05640911
v 64.28663744 24.87275651 -5.63550189
v 44.91979812 27.11173849 -9.55091017
v 41.57490637 27.11248931 -9.55091017
v 37.10440910 27.57831903 -10.10756850
v 64.28663744 27.92393265 -10.26213799
v 64.28663744 27.57531243 -10.10861334
v 56.46858690 27.11248931 -9.55195418
v 37.10440910 24.86899908 -5.63550189
v 37.11505182 24.86298919 -5.63550189
v 56.46858690 24.86298919 -5.63445747
v 64.28663744 27.11324013 -9.55195418
v 54.94914950 27.11173849 -9.55091017
v 37.10440910 27.11324013 -9.54986617
f 1 2 6
f 1 6 3
f 1 3 7
f 1 7 4
f 1 4 8
f 1 8 18
f 1 18 30
f 1 30 37
f 1 37 44
f 1 44 53
f 1 53 48
f 1 48 38
f 1 38 23
f 1 23 12
f 1 12 5
f 1 5 2
f 2 5 14
f 2 14 26
f 2 26 27
f 2 27 15
f 2 15 6
f 3 6 15
f 3 15 7
f 4 7 9
f 4 9 10
f 4 10 11
f 4 11 8
f 5 12 13
f 5 13 14
f 7 15 28
f 7 28 16
f 7 16 17
f 7 17 9
f 8 11 18
f 9 17 19
f 9 19 10
f 10 20 11
f 10 19 21
f 10 21 20
f 11 20 22
f 11 22 18
f 12 23 40
f 12 40 24
f 12 24 13
f 13 24 40
f 13 40 25
f 13 25 41
f 13 41 51
f 13 51 46
f 13 46 45
f 13 45 36
f 13 36 29
f 13 29 17
f 13 17 16
f 13 16 28
f 13 28 26
f 13 26 14
f 15 27 28
f 17 29 19
f 18 22 30
f 19 29 21
f 20 31 32
f 20 32 33
f 20 33 22
f 20 21 34
f 20 34 46
f 20 46 35
f 20 35 31
f 21 29 36
f 21 36 34
f 22 33 37
f 22 37 30
f 23 38 49
f 23 49 50
f 23 50 39
f 23 39 25
f 23 25 40
f 25 39 50
f 25 50 41
f 26 28 27
f 31 42 32
f 31 35 42
f 32 42 33
f 33 43 44
f 33 44 37
f 33 42 43
f 34 36 45
f 34 45 46
f 35 46 47
f 35 47 42
f 38 48 49
f 41 50 51
f 42 47 52
f 42 52 49
f 42 49 43
f 43 49 53
f 43 53 44
f 46 51 47
f 47 51 52
f 48 53 49
f 49 52 50
f 50 52 51

