# https://github.com/mikedh/trimesh
v 32.70027976 18.72854593 -1.04833020
v 33.74496604 18.78024794 -1.04833020
v 31.51822809 19.09505132 -1.04833020
v 32.65491322 18.80109652 -6.24577125
v 33.74496604 18.78566980 -6.24577125
v 33.74496604 22.98817707 -1.04833020
v 31.15605986 20.26628252 -1.04833020
v 31.36692267 20.26628252 -6.24577125
v 31.71388511 19.26266716 -6.24577125
v 31.84187189 19.41152078 -7.16163439
v 32.65491322 19.25516227 -7.34286551
v 33.74496604 19.24724044 -7.34415952
v 31.15605986 22.98817707 -1.04833020
v 33.74496604 22.98817707 -5.66130223
v 31.53242060 22.98817707 -4.74090842
v 31.68550009 22.98817707 -5.16615352
v 31.75088797 20.26628252 -7.23024317
v 31.32992147 22.98817707 -4.01663217
v 32.65491322 20.26628252 -7.65872452
v 33.74496604 19.27017205 -7.35127986
v 33.74496604 21.14272672 -7.11891565
v 32.65491322 21.14272672 -7.11891565
v 32.99148376 22.98817707 -5.65029863
v 32.64984518 22.98817707 -5.64447354
v 31.89129319 21.03598553 -7.01341365
v 33.74496604 20.26628252 -7.66001936
v 33.74496604 20.28588029 -7.64836834
v 32.65491322 22.98442463 -5.64770979
f 1 2 6
f 1 6 13
f 1 13 7
f 1 7 3
f 1 3 4
f 1 4 5
f 1 5 2
f 2 5 12
f 2 12 20
f 2 20 26
f 2 26 27
f 2 27 21
f 2 21 14
f 2 14 6
f 3 7 8
f 3 8 9
f 3 9 4
f 4 9 10
f 4 10 11
f 4 11 5
f 5 11 12
f 6 14 23
f 6 23 24
f 6 24 16
f 6 16 15
f 6 15 18
f 6 18 13
f 7 13 8
f 8 15 16
f 8 16 17
f 8 17 10
f 8 10 9
f 8 13 18
f 8 18 15
f 10 17 19
f 10 19 11
f 11 19 12
f 12 19 20
f 14 21 22
f 14 22 23
f 16 24 25
f 16 25 17
f 17 25 19
f 19 26 20
f 19 25 22
f 19 22 27
f 19 27 26
f 21 27 22
f 22 25 24
f 22 24 28
f 22 28 23
f 23 28 24

