# https://github.com/mikedh/trimesh
v 106.73960015 50.79975801 -8.47466117
v 106.74307187 50.79649892 -8.47466117
v 106.73960015 50.79975801 -8.48101159
v 106.57300423 50.79975801 -7.35145760
v 106.92355134 50.22447285 -9.58992713
v 106.71530810 50.78183133 -9.58992713
v 106.70836466 50.79975801 -9.58992713
v 106.88190402 50.09572695 -7.70786677
v 111.24116183 37.54540541 -7.96584610
v 112.40039318 34.15237141 -8.47466117
v 111.24463354 37.55029572 -9.13191375
v 108.05154389 46.91292288 -9.58992713
v 105.58731555 50.79975801 -2.50461660
v 106.87496059 50.07454116 -10.24479768
v 112.36221426 34.20941057 -10.15033790
v 106.69795283 50.79975801 -9.61135875
v 112.36568265 34.22244695 -7.90789998
v 112.37609781 34.15237141 -7.89519914
v 112.39344975 34.15237141 -9.58992713
v 105.58731555 34.15237141 -2.50461660
v 88.22316050 50.79975801 -2.50461660
v 106.99643748 49.24828239 -10.33687709
v 106.20857689 50.79975801 -10.38767961
v 107.99601302 46.75321059 -10.25114810
v 112.37956952 34.15237141 -10.09477298
v 112.36915769 34.15237141 -10.15986353
v 111.35917032 36.78759429 -10.26781816
v 110.23811456 40.11055275 -10.26226092
v 76.94322841 34.15237141 -2.50461660
v 88.38628471 50.79975801 -2.90944626
v 76.94322841 50.76390464 -8.47466117
v 76.94322841 50.76390464 -2.50461660
v 106.22593216 49.24828239 -10.56945558
v 108.12095830 45.90413814 -10.34164032
v 105.86844493 50.79975801 -10.47261377
v 112.13314403 34.15237141 -10.29004379
v 111.49105571 35.87333329 -10.35354715
v 110.36653156 39.21747754 -10.35037111
v 109.24548245 42.55999390 -10.34560871
v 76.94322841 34.15237141 -10.54087953
v 89.46915822 50.79975801 -4.05487588
v 76.94322841 50.66612181 -9.58992713
v 90.60409420 50.79975801 -5.14077136
v 97.44841064 50.79975801 -10.35354715
v 98.42369081 50.79975801 -10.55199234
v 106.22593216 48.13356875 -10.61311367
v 105.11181984 50.79975801 -10.61311367
v 108.45762187 42.55999390 -10.57898121
v 111.81036734 34.15237141 -10.40514285
v 110.68584319 35.87333329 -10.58691882
v 109.57173087 39.21747754 -10.58294960
v 76.94322841 35.87333329 -10.59803247
v 103.99771084 34.15237141 -10.61231966
v 76.94322841 50.37766362 -10.09239178
v 99.53779981 50.79975801 -10.61311367
v 76.94322841 50.21469556 -10.37339076
v 108.45762187 41.44690814 -10.61311367
v 111.29322430 34.15237141 -10.53849833
v 110.68584319 34.75861633 -10.61231966
v 76.94322841 38.10276390 -10.61311367
v 110.68584319 34.15237141 -10.61231966
v 76.94322841 49.24828239 -10.61311367
v 76.94322841 49.54325877 -10.54643594
v 100.65190881 38.10276390 -10.61311367
f 1 2 3
f 1 3 7
f 1 7 16
f 1 16 23
f 1 23 35
f 1 35 47
f 1 47 55
f 1 55 45
f 1 45 44
f 1 44 43
f 1 43 41
f 1 41 30
f 1 30 21
f 1 21 13
f 1 13 4
f 1 4 2
f 2 5 6
f 2 6 7
f 2 7 3
f 2 4 8
f 2 8 9
f 2 9 10
f 2 10 11
f 2 11 12
f 2 12 5
f 4 13 9
f 4 9 8
f 5 14 6
f 5 12 15
f 5 15 14
f 6 14 7
f 7 14 16
f 9 17 10
f 9 13 17
f 10 17 18
f 10 18 20
f 10 20 29
f 10 29 40
f 10 40 53
f 10 53 61
f 10 61 58
f 10 58 49
f 10 49 36
f 10 36 26
f 10 26 25
f 10 25 19
f 10 19 11
f 11 19 12
f 12 19 15
f 13 20 18
f 13 18 17
f 13 21 32
f 13 32 29
f 13 29 20
f 14 22 23
f 14 23 16
f 14 15 24
f 14 24 22
f 15 19 25
f 15 25 26
f 15 26 27
f 15 27 28
f 15 28 24
f 21 30 31
f 21 31 32
f 22 33 23
f 22 24 28
f 22 28 27
f 22 27 34
f 22 34 33
f 23 33 35
f 26 36 37
f 26 37 27
f 27 37 38
f 27 38 39
f 27 39 34
f 29 32 31
f 29 31 42
f 29 42 54
f 29 54 56
f 29 56 63
f 29 63 62
f 29 62 60
f 29 60 52
f 29 52 40
f 30 41 31
f 31 41 43
f 31 43 44
f 31 44 45
f 31 45 42
f 33 46 47
f 33 47 35
f 33 34 39
f 33 39 38
f 33 38 37
f 33 37 48
f 33 48 46
f 36 49 37
f 37 49 50
f 37 50 51
f 37 51 48
f 40 52 53
f 42 45 54
f 45 55 56
f 45 56 54
f 46 48 51
f 46 51 50
f 46 50 57
f 46 57 64
f 46 64 60
f 46 60 62
f 46 62 55
f 46 55 47
f 49 58 50
f 50 58 59
f 50 59 57
f 52 60 53
f 53 60 64
f 53 64 61
f 55 62 63
f 55 63 56
f 57 59 61
f 57 61 64
f 58 61 59

