# https://github.com/mikedh/trimesh
v 107.55718483 44.55423713 52.11536026
v 107.55718483 48.75057698 52.11536026
v 114.08741778 44.55423713 52.11536026
v 107.55718483 44.55423713 58.14160032
v 112.91689652 48.61067163 52.11536026
v 107.55718483 53.06100853 59.32051226
v 114.08741778 46.97927036 52.11536026
v 114.08741778 44.55423713 55.88124209
v 111.64089809 44.55423713 58.14367422
v 107.55718483 45.89999721 61.45437364
v 113.24420833 48.40581023 52.11536026
v 110.68837097 53.06100853 59.47915203
v 111.37943269 53.06100853 59.55691649
v 111.76555776 53.06100853 59.62016492
v 112.28273115 53.06100853 60.01624669
v 107.55718483 53.06100853 62.70586571
v 114.08741778 46.97927036 56.99586823
v 113.78056421 48.06853509 52.11536026
v 113.71343542 49.20776767 60.33871054
v 113.99152521 48.09351818 59.22408399
v 113.99472118 48.09351818 60.33871054
v 113.99535905 48.09351818 61.45437364
v 113.97874130 44.55423713 56.99586823
v 114.08741778 45.86418699 56.99586823
v 114.08677991 46.97927036 60.33871054
v 111.80263375 44.55423713 58.14367422
v 108.45856636 45.90082942 61.45437364
v 108.45856636 46.34802854 62.07441708
v 107.55718483 46.34802854 62.07545362
v 112.29871435 53.06100853 60.04320485
v 107.55718483 49.20776767 62.70586571
v 110.68837097 53.06100853 62.70586571
v 112.38821497 53.06100853 60.71509071
v 112.39524479 53.06100853 60.86025182
v 113.49096625 49.80902977 59.74562526
v 113.49927845 49.83401287 60.33871054
v 112.40291579 53.06100853 61.45437364
v 112.57616295 52.55218389 61.45437364
v 113.71343542 49.20776767 61.45437364
v 113.49096625 49.81319584 62.03916334
v 113.59389528 49.20776767 62.16669757
v 113.73517603 48.09351818 62.30356309
v 113.97234271 46.97927036 61.45437364
v 113.63352937 44.55423713 57.93837553
v 113.66548914 46.17897569 61.45437364
v 112.91689652 44.55423713 58.13434252
v 111.80263375 45.90499383 61.45437364
v 112.91689652 46.35219294 62.07130582
v 110.68837097 46.35052685 62.07338055
v 109.57347033 46.34969463 62.07441708
v 107.55718483 46.46794741 62.13766552
v 107.55718483 48.09351818 62.68305452
v 108.45856636 48.09351818 62.68409105
v 111.80263375 49.20776767 62.70586571
v 111.80263375 50.32285103 62.70586571
v 111.80263375 51.43710052 62.66231722
v 111.80263375 52.55218389 62.49953007
v 111.82181292 53.06100853 62.39895483
v 112.38118183 53.06100853 62.04331113
v 112.46812434 52.55218389 62.15218196
v 112.65351421 51.43710052 62.31393174
v 113.66548914 46.97927036 62.19987742
v 112.91689652 49.20776767 62.51404652
v 112.91689652 48.09351818 62.63950685
v 113.52549077 46.37550994 62.05160589
v 112.91689652 45.92081590 61.45437364
v 112.91689652 46.97927036 62.39273397
v 111.80263375 46.97927036 62.39688094
v 110.68837097 46.97927036 62.39791747
v 108.45856636 46.97927036 62.39999137
v 107.55718483 46.97927036 62.39999137
v 110.68837097 48.09351818 62.68409105
v 111.80263375 48.09351818 62.68305452
f 1 2 5
f 1 5 11
f 1 11 18
f 1 18 7
f 1 7 3
f 1 3 8
f 1 8 23
f 1 23 44
f 1 44 46
f 1 46 26
f 1 26 9
f 1 9 4
f 1 4 10
f 1 10 29
f 1 29 51
f 1 51 71
f 1 71 52
f 1 52 31
f 1 31 16
f 1 16 6
f 1 6 2
f 2 6 5
f 3 7 17
f 3 17 24
f 3 24 8
f 4 9 10
f 5 6 12
f 5 12 13
f 5 13 14
f 5 14 15
f 5 15 11
f 6 16 32
f 6 32 58
f 6 58 59
f 6 59 37
f 6 37 34
f 6 34 33
f 6 33 30
f 6 30 15
f 6 15 14
f 6 14 13
f 6 13 12
f 7 18 19
f 7 19 20
f 7 20 21
f 7 21 22
f 7 22 17
f 8 24 25
f 8 25 23
f 9 26 10
f 10 27 28
f 10 28 29
f 10 26 27
f 11 15 18
f 15 30 18
f 16 31 54
f 16 54 55
f 16 55 32
f 17 22 25
f 17 25 24
f 18 30 33
f 18 33 34
f 18 34 35
f 18 35 19
f 19 21 20
f 19 35 36
f 19 36 37
f 19 37 38
f 19 38 39
f 19 39 22
f 19 22 21
f 22 39 40
f 22 40 41
f 22 41 42
f 22 42 43
f 22 43 25
f 23 25 43
f 23 43 45
f 23 45 44
f 26 46 47
f 26 47 27
f 27 47 28
f 28 48 49
f 28 49 50
f 28 50 29
f 28 47 48
f 29 50 51
f 31 52 53
f 31 53 72
f 31 72 54
f 32 55 56
f 32 56 57
f 32 57 58
f 34 36 35
f 34 37 36
f 37 59 40
f 37 40 38
f 38 40 39
f 40 59 60
f 40 60 41
f 41 60 61
f 41 61 42
f 42 62 43
f 42 61 63
f 42 63 64
f 42 64 62
f 43 62 65
f 43 65 45
f 44 45 65
f 44 65 66
f 44 66 46
f 46 66 47
f 47 66 48
f 48 65 67
f 48 67 68
f 48 68 49
f 48 66 65
f 49 68 50
f 50 68 51
f 51 68 69
f 51 69 70
f 51 70 71
f 52 71 53
f 53 71 70
f 53 70 72
f 54 72 73
f 54 73 64
f 54 64 55
f 55 64 56
f 56 64 63
f 56 63 61
f 56 61 57
f 57 61 58
f 58 61 60
f 58 60 59
f 62 64 67
f 62 67 65
f 64 73 67
f 67 73 68
f 68 73 72
f 68 72 69
f 69 72 70

