# https://github.com/mikedh/trimesh
v 64.28663744 54.70893174 -8.47578989
v 64.28663744 54.48540630 -7.61781473
v 64.28663744 54.68940042 -9.58963477
v 56.46907319 54.68940042 -9.58996533
v 37.11268806 54.68940042 -9.58996533
v 37.11268806 54.70459293 -8.47578989
v 64.28663744 53.73235923 -7.26628341
v 37.11268806 54.48106416 -7.68169932
v 64.28663744 54.46804439 -10.35393419
v 56.46907319 54.60910575 -9.86801335
v 37.11268806 54.46587498 -10.35426475
v 56.46907319 54.46804439 -10.35393419
v 64.28663744 53.00969717 -7.23980285
v 37.11534750 53.70631637 -7.40927914
v 37.11268806 53.70414696 -7.40894857
v 64.28663744 53.70631637 -10.58663311
v 56.46907319 54.19243321 -10.43867233
v 37.11268806 53.70631637 -10.58696450
v 64.28663744 52.59302464 -7.23152803
v 37.11268806 52.58868582 -7.37220651
v 64.28663744 53.28964716 -10.59656405
v 56.46907319 53.70631637 -10.58696450
v 37.11268806 52.59085523 -10.61278311
v 56.46907319 53.30049752 -10.59656405
v 64.28663744 50.81566147 -7.23152803
v 37.11268806 32.54072711 -7.37088261
v 64.28663744 52.59302464 -10.61278311
v 37.11268806 32.54289651 -10.61278311
v 56.46907319 52.59302464 -10.61278311
v 64.28663744 32.53855770 -7.23185860
v 37.11268806 32.54072711 -9.20599505
v 56.46907319 32.53855770 -7.38147467
v 64.28663744 51.47539076 -10.61278311
v 37.11534750 32.54072711 -10.61278311
v 64.28663744 32.53855770 -10.61245172
v 56.46907319 32.53855770 -10.61245172
v 56.46907319 32.54072711 -10.61278311
f 1 2 7
f 1 7 13
f 1 13 19
f 1 19 25
f 1 25 30
f 1 30 35
f 1 35 33
f 1 33 27
f 1 27 21
f 1 21 16
f 1 16 9
f 1 9 3
f 1 3 4
f 1 4 5
f 1 5 6
f 1 6 2
f 2 6 8
f 2 8 7
f 3 9 10
f 3 10 4
f 4 10 5
f 5 11 18
f 5 18 23
f 5 23 28
f 5 28 31
f 5 31 26
f 5 26 20
f 5 20 15
f 5 15 8
f 5 8 6
f 5 10 12
f 5 12 11
f 7 8 14
f 7 14 15
f 7 15 13
f 8 15 14
f 9 16 17
f 9 17 12
f 9 12 10
f 11 12 17
f 11 17 18
f 13 15 20
f 13 20 19
f 16 21 22
f 16 22 17
f 17 22 18
f 18 22 24
f 18 24 23
f 19 20 26
f 19 26 25
f 21 27 24
f 21 24 22
f 23 24 29
f 23 29 27
f 23 27 33
f 23 33 37
f 23 37 34
f 23 34 28
f 24 27 29
f 25 26 30
f 26 31 36
f 26 36 32
f 26 32 30
f 28 34 31
f 30 32 36
f 30 36 35
f 31 34 36
f 33 35 37
f 34 37 35
f 34 35 36

