# https://github.com/mikedh/trimesh
v 31.27672621 37.49339655 46.74586728
v 31.27672621 37.53201239 57.40754644
v 31.27672621 37.53201239 46.74586728
v 31.31714525 36.71552135 46.74586728
v 31.31714525 36.71552135 57.40754644
v 31.27672621 37.53645742 57.40754644
v 31.49498028 38.34850343 47.60163994
v 31.51923074 38.41962320 46.74586728
v 31.32522711 36.68912933 46.74586728
v 31.54348119 36.15711828 57.40754644
v 31.49498028 38.34850343 56.58621297
v 31.54348119 38.48852077 57.40754644
v 31.62431441 38.61464771 46.74586728
v 31.54348119 36.15767391 46.74586728
v 32.10123186 36.01571188 46.74586728
v 32.13356661 36.00848871 57.40754644
v 31.60006396 38.56158554 57.40754644
v 31.81023130 38.76744464 57.40754644
v 32.02039865 38.79355900 46.74586728
v 32.13356661 36.00848871 46.74586728
v 112.98362661 36.00848871 57.40754644
v 32.12548232 38.80217124 57.40754644
v 32.13356661 38.82134025 46.74586728
v 112.98362661 36.00848871 46.74586728
v 113.54946158 36.15072887 46.74586728
v 113.57371203 36.15767391 57.40754644
v 32.94190611 38.82717434 57.40754644
v 32.17398322 38.82300713 46.74586728
v 113.57371203 36.15767391 46.74586728
v 113.80004797 36.71246570 57.40754644
v 32.94998797 38.84634335 46.74586728
v 112.16720525 38.82717434 57.40754644
v 113.80004797 36.71552135 46.74586728
v 113.84046701 37.52756737 57.40754644
v 112.16720525 38.84634335 46.74586728
v 112.98362661 38.80272686 57.40754644
v 113.84046701 37.53201239 46.74586728
v 113.84046701 37.53201239 57.40754644
v 112.98362661 38.82134025 46.74586728
v 112.99171090 38.80133779 57.40754644
v 113.33121237 38.76855590 46.74586728
v 113.84046701 37.57062854 46.74586728
v 113.62221294 38.34850343 56.58621297
v 113.58988062 38.42267946 57.40754644
v 113.51712926 38.56158554 57.40754644
v 113.49287881 38.61464771 46.74586728
v 113.59796248 38.41962320 46.74586728
v 113.62221294 38.34850343 47.60163994
v 113.56563017 38.51213496 46.74586728
f 1 2 6
f 1 6 3
f 1 3 8
f 1 8 13
f 1 13 19
f 1 19 23
f 1 23 28
f 1 28 31
f 1 31 35
f 1 35 39
f 1 39 41
f 1 41 46
f 1 46 49
f 1 49 47
f 1 47 42
f 1 42 37
f 1 37 33
f 1 33 29
f 1 29 25
f 1 25 24
f 1 24 20
f 1 20 15
f 1 15 14
f 1 14 9
f 1 9 4
f 1 4 5
f 1 5 2
f 2 5 10
f 2 10 16
f 2 16 21
f 2 21 26
f 2 26 30
f 2 30 34
f 2 34 38
f 2 38 44
f 2 44 45
f 2 45 40
f 2 40 36
f 2 36 32
f 2 32 27
f 2 27 22
f 2 22 18
f 2 18 17
f 2 17 12
f 2 12 6
f 3 6 7
f 3 7 8
f 4 9 5
f 5 9 10
f 6 11 7
f 6 12 11
f 7 11 8
f 8 11 12
f 8 12 13
f 9 14 10
f 10 14 15
f 10 15 16
f 12 17 13
f 13 17 18
f 13 18 19
f 15 20 16
f 16 20 24
f 16 24 21
f 18 22 23
f 18 23 19
f 21 24 25
f 21 25 26
f 22 27 28
f 22 28 23
f 25 29 26
f 26 29 30
f 27 31 28
f 27 32 35
f 27 35 31
f 29 33 30
f 30 33 34
f 32 36 35
f 33 37 34
f 34 37 42
f 34 42 38
f 35 36 39
f 36 40 41
f 36 41 39
f 38 42 43
f 38 43 44
f 40 45 41
f 41 45 46
f 42 47 48
f 42 48 43
f 43 48 47
f 43 47 49
f 43 49 44
f 44 49 45
f 45 49 46

