# https://github.com/mikedh/trimesh
v 35.92808493 24.44172203 0.05064921
v 35.92808493 24.44172203 5.63378416
v 35.92808493 30.03205747 0.05064921
v 56.47065872 24.44172203 0.05064921
v 36.00047439 24.44172203 5.63378416
v 56.06447194 26.98104743 9.36001043
v 51.60446540 26.98172848 9.36001043
v 42.68847385 26.98309392 9.36001043
v 35.92808493 26.98445769 9.36001043
v 35.92808493 31.41156182 6.85276851
v 56.47065872 31.41156182 7.16811258
v 56.47065872 29.71140034 0.05064921
v 56.47065872 24.44172203 5.63275054
v 56.47065872 26.98104743 9.36001043
v 56.47065872 27.14342248 9.59057233
v 54.94846512 27.42791892 9.99276498
v 35.92808493 27.40199400 9.94934027
v 48.26046567 27.42860164 9.99173177
v 35.92808493 31.41156182 10.61311353
v 56.47065872 31.41156182 10.61207949
v 56.47065872 27.42791892 9.99276498
v 54.94846512 28.06923150 10.31741374
v 48.26046567 28.06923150 10.31638053
v 42.68847385 28.06923150 10.31534649
v 35.92808493 27.43064812 9.98966369
v 38.23047808 28.06923150 10.31431245
v 35.92808493 31.34197133 10.61311353
v 37.11447043 31.41156182 10.61311353
v 56.47065872 30.29881493 10.61207949
v 56.47065872 28.06923150 10.31741374
v 56.47065872 28.47448723 10.41666998
v 35.92808493 29.18402488 10.58933393
v 35.92808493 29.11238790 10.57175691
v 35.92808493 28.02829680 10.29260010
v 35.92808493 28.06923150 10.31327841
v 35.92808493 30.29881493 10.61207949
v 35.92808493 30.22718127 10.61104628
v 56.47065872 29.58927895 10.59760459
v 56.47065872 29.18402488 10.58933393
f 1 2 9
f 1 9 17
f 1 17 25
f 1 25 34
f 1 34 35
f 1 35 33
f 1 33 32
f 1 32 37
f 1 37 36
f 1 36 27
f 1 27 19
f 1 19 10
f 1 10 3
f 1 3 12
f 1 12 4
f 1 4 13
f 1 13 5
f 1 5 2
f 2 5 14
f 2 14 6
f 2 6 7
f 2 7 8
f 2 8 9
f 3 10 11
f 3 11 12
f 4 12 11
f 4 11 20
f 4 20 29
f 4 29 38
f 4 38 39
f 4 39 31
f 4 31 30
f 4 30 21
f 4 21 15
f 4 15 14
f 4 14 13
f 5 13 14
f 6 14 15
f 6 15 7
f 7 15 8
f 8 15 16
f 8 16 9
f 9 16 18
f 9 18 17
f 10 19 28
f 10 28 20
f 10 20 11
f 15 21 16
f 16 21 30
f 16 30 22
f 16 22 23
f 16 23 24
f 16 24 18
f 17 18 25
f 18 24 26
f 18 26 25
f 19 27 28
f 20 28 29
f 22 30 31
f 22 31 32
f 22 32 33
f 22 33 23
f 23 33 24
f 24 33 26
f 25 26 34
f 26 33 35
f 26 35 34
f 27 36 29
f 27 29 28
f 29 36 37
f 29 37 38
f 31 39 32
f 32 39 37
f 37 39 38

