# https://github.com/mikedh/trimesh
v 64.28787663 25.81965829 0.05848633
v 64.28787663 25.81965829 6.12468459
v 64.28787663 29.81074462 0.05848633
v 76.94322675 25.81965829 0.05848633
v 64.28787663 26.55205778 8.24490975
v 69.33267237 25.81965829 6.13811714
v 76.94322675 26.53300818 9.35978369
v 70.55670358 26.53826393 9.35978369
v 64.28787663 32.52817577 7.21682791
v 66.35559829 32.53014584 0.05848633
v 76.94322675 32.53014584 0.05848633
v 76.94322675 25.81965829 6.07405565
v 64.28787663 26.98033149 9.35978369
v 76.94322675 26.90413477 10.01589592
v 71.67047372 27.03287901 10.24734402
v 70.55670358 27.03287901 10.24734402
v 64.28787663 32.53014584 8.57348205
v 76.94322675 32.53014584 10.59968098
v 64.28787663 27.14783106 9.59743105
v 76.94322675 27.03944869 10.25251007
v 76.94322675 28.06940592 10.59864777
v 70.55670358 28.06940592 10.58934888
v 64.28787663 28.06940592 10.31760477
v 64.28787663 27.66806376 10.11508820
v 64.28787663 27.42699701 9.99316530
v 64.28787663 32.52817577 10.61208032
v 64.98413786 32.53014584 10.61208032
v 76.94322675 31.41348206 10.61311353
v 67.21291648 32.53014584 10.61208032
v 76.94322675 29.18409797 10.61104711
v 70.55670358 29.18409797 10.60691428
v 64.28787663 30.29879167 10.61208032
v 64.28787663 29.60251798 10.59864777
v 64.28787663 29.18409797 10.58934888
v 64.28787663 28.48848208 10.41989585
v 71.67047372 31.41348206 10.61311353
v 76.94322675 30.29879167 10.61311353
v 71.67047372 30.29879167 10.61311353
f 1 2 5
f 1 5 13
f 1 13 19
f 1 19 25
f 1 25 24
f 1 24 23
f 1 23 35
f 1 35 34
f 1 34 33
f 1 33 32
f 1 32 26
f 1 26 17
f 1 17 9
f 1 9 3
f 1 3 10
f 1 10 11
f 1 11 4
f 1 4 12
f 1 12 6
f 1 6 2
f 2 6 7
f 2 7 8
f 2 8 5
f 3 9 10
f 4 11 18
f 4 18 28
f 4 28 37
f 4 37 30
f 4 30 21
f 4 21 20
f 4 20 14
f 4 14 7
f 4 7 12
f 5 8 13
f 6 12 7
f 7 14 15
f 7 15 16
f 7 16 8
f 8 16 13
f 9 17 10
f 10 17 27
f 10 27 29
f 10 29 18
f 10 18 11
f 13 16 19
f 14 20 15
f 15 20 16
f 16 20 21
f 16 21 22
f 16 22 23
f 16 23 24
f 16 24 25
f 16 25 19
f 17 26 27
f 18 29 28
f 21 30 31
f 21 31 22
f 22 31 32
f 22 32 33
f 22 33 34
f 22 34 35
f 22 35 23
f 26 32 38
f 26 38 36
f 26 36 27
f 27 36 28
f 27 28 29
f 28 36 38
f 28 38 37
f 30 37 38
f 30 38 32
f 30 32 31

