# https://github.com/mikedh/trimesh
v 77.24841474 46.97927036 41.48067593
v 76.60822286 46.01491946 41.71383351
v 76.60822286 46.56621370 41.58060084
v 76.60822286 46.97927036 41.48171661
v 76.60822286 51.43710052 41.48171661
v 103.99690069 53.06100853 41.48171661
v 107.60442680 53.06100853 41.48171661
v 107.60442680 49.20776767 41.48171661
v 100.65334161 46.97927036 41.48171661
v 100.65334161 46.01325336 41.71383351
v 93.96621680 45.45029978 42.16557576
v 93.96621680 44.55423713 43.28764658
v 92.84967498 44.55423713 43.32720011
v 76.60822286 45.79506653 42.05212027
v 95.07972876 46.00409400 41.72111914
v 76.60822286 53.06100853 41.55353803
v 107.60442680 53.06100853 44.85000963
v 107.60442680 48.94710957 41.48692087
v 107.60442680 48.09351818 41.50877942
v 107.60442680 47.85201601 41.56290504
v 107.60442680 47.06254680 41.74089632
v 101.76988343 46.08320604 41.75442772
v 107.60442680 46.01658555 42.55590676
v 101.76988343 45.57521527 42.50386252
v 95.07972876 44.55423713 43.38132573
v 92.09722195 44.55423713 43.38652999
v 76.60822286 45.50193207 42.50386252
v 76.60822286 53.06100853 52.11432373
v 107.60442680 48.73308881 52.11432373
v 105.58675926 53.06100853 52.11432373
v 107.60442680 46.50542205 41.99799465
v 107.60442680 45.50359651 43.61864688
v 96.13255371 44.55423713 43.60615617
v 91.81808566 44.55423713 43.42400214
v 76.60822286 44.55423713 46.12196741
v 76.60822286 44.55423713 52.11432373
v 107.60442680 44.55423713 52.11432373
v 107.60442680 44.55423713 46.10635463
f 1 2 3
f 1 3 4
f 1 4 5
f 1 5 6
f 1 6 7
f 1 7 8
f 1 8 9
f 1 9 10
f 1 10 2
f 2 11 12
f 2 12 13
f 2 13 14
f 2 14 27
f 2 27 35
f 2 35 36
f 2 36 28
f 2 28 16
f 2 16 5
f 2 5 4
f 2 4 3
f 2 10 15
f 2 15 11
f 5 16 6
f 6 16 28
f 6 28 30
f 6 30 17
f 6 17 7
f 7 17 29
f 7 29 37
f 7 37 38
f 7 38 32
f 7 32 23
f 7 23 31
f 7 31 21
f 7 21 20
f 7 20 19
f 7 19 18
f 7 18 8
f 8 18 9
f 9 18 19
f 9 19 20
f 9 20 21
f 9 21 10
f 10 21 22
f 10 22 23
f 10 23 24
f 10 24 25
f 10 25 12
f 10 12 11
f 10 11 15
f 12 25 33
f 12 33 38
f 12 38 37
f 12 37 36
f 12 36 35
f 12 35 34
f 12 34 26
f 12 26 13
f 13 26 27
f 13 27 14
f 17 30 29
f 21 31 22
f 22 31 23
f 23 32 25
f 23 25 24
f 25 32 33
f 26 34 27
f 27 34 35
f 28 36 37
f 28 37 29
f 28 29 30
f 32 38 33

