# https://github.com/mikedh/trimesh
v 33.74738960 45.12174547 58.70665230
v 56.46857692 45.15522515 58.70665230
v 56.46857692 45.46490759 60.33992482
v 33.74738960 45.45095758 60.33992482
v 33.74738960 73.57899890 58.70665230
v 56.46857692 49.43497433 58.70665230
v 56.46857692 45.62114331 60.74530548
v 56.46857692 45.89455707 61.45423244
v 33.74738960 45.88339607 61.45423244
v 33.74738960 73.61805825 59.22522600
v 33.77185941 73.57899890 58.70665230
v 34.72617554 73.38091483 58.70665230
v 56.46857692 72.61647190 59.49782997
v 56.46857692 46.05637246 61.68375220
v 33.74738960 46.32978456 62.08678239
v 33.74738960 73.62084559 60.33992482
v 33.77185941 73.61805825 59.22522600
v 56.46857692 73.54551757 60.33992482
v 56.46857692 73.32511482 59.64862389
v 56.46857692 46.34094390 62.08482394
v 56.46857692 46.57250931 62.20310911
v 33.74738960 46.95751812 62.40521223
v 33.74738960 73.62084559 61.45423244
v 34.88633979 73.62084559 60.33992482
v 56.46857692 73.62084559 61.45423244
v 56.46857692 46.97983680 62.40912913
v 33.74738960 46.97983680 62.41186996
v 33.74738960 73.39765218 62.29436884
v 56.46857692 73.39765218 62.29436884
v 56.46857692 47.38437694 62.50861302
v 33.74738960 48.07069785 62.68173227
v 33.74738960 72.61647190 62.63629842
v 34.88633979 72.61647190 62.64178174
v 56.46857692 72.90104666 62.51527158
v 56.46857692 48.09580719 62.68329870
v 33.74738960 48.09580719 62.68525715
v 33.74738960 72.59136256 62.63825686
v 56.46857692 72.61647190 62.64178174
v 34.88633979 71.50050483 62.70679926
v 56.46857692 48.50034733 62.69191571
v 56.46857692 49.20899025 62.70679926
v 33.74738960 49.18388090 62.70719128
v 33.74738960 71.50050483 62.70170795
v 56.46857692 71.50050483 62.70679926
v 33.74738960 70.38732177 62.70797449
v 33.74738960 49.20899025 62.70758247
v 33.74738960 70.36221243 62.70797449
f 1 2 3
f 1 3 4
f 1 4 9
f 1 9 15
f 1 15 22
f 1 22 27
f 1 27 31
f 1 31 36
f 1 36 42
f 1 42 46
f 1 46 47
f 1 47 45
f 1 45 43
f 1 43 37
f 1 37 32
f 1 32 28
f 1 28 23
f 1 23 16
f 1 16 10
f 1 10 5
f 1 5 11
f 1 11 12
f 1 12 6
f 1 6 2
f 2 6 13
f 2 13 19
f 2 19 18
f 2 18 25
f 2 25 29
f 2 29 34
f 2 34 38
f 2 38 44
f 2 44 41
f 2 41 40
f 2 40 35
f 2 35 30
f 2 30 26
f 2 26 21
f 2 21 20
f 2 20 14
f 2 14 8
f 2 8 7
f 2 7 3
f 3 7 4
f 4 7 8
f 4 8 9
f 5 10 17
f 5 17 11
f 6 12 13
f 8 14 9
f 9 14 15
f 10 16 24
f 10 24 17
f 11 17 18
f 11 18 19
f 11 19 13
f 11 13 12
f 14 20 15
f 15 20 21
f 15 21 22
f 16 23 25
f 16 25 24
f 17 24 25
f 17 25 18
f 21 26 22
f 22 26 27
f 23 28 29
f 23 29 25
f 26 30 31
f 26 31 27
f 28 32 33
f 28 33 34
f 28 34 29
f 30 35 31
f 31 35 36
f 32 37 33
f 33 38 34
f 33 37 39
f 33 39 44
f 33 44 38
f 35 40 36
f 36 40 41
f 36 41 42
f 37 43 39
f 39 43 45
f 39 45 44
f 41 46 42
f 41 44 45
f 41 45 47
f 41 47 46

