# https://github.com/mikedh/trimesh
v 33.74549427 73.43627964 52.14444049
v 33.76131801 73.43410690 52.14444049
v 37.11287866 73.61433404 43.61844174
v 33.74549427 73.62084559 44.75830305
v 33.74549427 51.44012374 52.14444049
v 33.77021823 73.43193749 52.14444049
v 37.11287866 73.60130429 42.50363163
v 34.88509728 73.62084559 43.61844174
v 34.35435927 73.21045502 52.14444049
v 37.11287866 73.39067884 44.41175227
v 33.74549427 73.62084559 43.61844174
v 33.74549427 51.44012374 41.48172326
v 34.41138851 51.44012374 52.14444049
v 33.74549427 73.60130429 42.50363163
v 37.11287866 73.37765241 41.73954916
v 34.38007160 72.82611730 52.14444049
v 37.11287866 72.61549517 44.68419179
v 37.11287866 51.44012374 41.48172326
v 33.74549427 71.50157458 41.48067925
v 37.11287866 51.44012374 44.72803264
v 37.11287866 71.50157458 44.72072542
v 34.40611449 71.50157458 52.14444049
v 33.74549427 73.37765241 41.73954916
v 37.11287866 72.61766458 41.50677446
v 34.39391695 72.61766458 52.14444049
v 37.11287866 71.50157458 41.48067925
v 33.74549427 72.61766458 41.50677446
v 34.40182882 71.89459326 52.14444049
f 1 2 3
f 1 3 4
f 1 4 11
f 1 11 14
f 1 14 23
f 1 23 27
f 1 27 19
f 1 19 12
f 1 12 5
f 1 5 13
f 1 13 22
f 1 22 28
f 1 28 25
f 1 25 16
f 1 16 9
f 1 9 6
f 1 6 2
f 2 6 3
f 3 7 8
f 3 8 4
f 3 6 9
f 3 9 10
f 3 10 17
f 3 17 21
f 3 21 20
f 3 20 18
f 3 18 26
f 3 26 24
f 3 24 15
f 3 15 7
f 4 8 11
f 5 12 18
f 5 18 20
f 5 20 13
f 7 14 11
f 7 11 8
f 7 15 23
f 7 23 14
f 9 16 17
f 9 17 10
f 12 19 26
f 12 26 18
f 13 20 21
f 13 21 22
f 15 24 27
f 15 27 23
f 16 25 17
f 17 25 21
f 19 27 24
f 19 24 26
f 21 25 28
f 21 28 22

