# https://github.com/mikedh/trimesh
v 34.49037762 51.43795433 46.96253196
v 34.41251973 51.43795433 52.14444049
v 34.71505275 51.43720351 46.42322802
v 33.98763597 51.43795433 46.42322802
v 33.74738960 51.43795433 52.14444049
v 56.46857692 48.62038913 52.14444049
v 56.46857692 48.89516334 46.42322802
v 33.74738960 51.43795433 46.42322802
v 33.74738960 43.76904195 52.14444049
v 56.46857692 43.76904195 52.14444049
v 56.46857692 44.23450663 46.42322802
v 33.74738960 44.23000170 46.42322802
v 33.74738960 43.76904195 50.89838544
v 56.46857692 43.76904195 46.45962959
v 54.94923414 43.76904195 46.45906980
v 49.37460136 43.76904195 46.45850959
v 36.86170882 43.76904195 46.45738958
v 54.94923414 44.23375581 46.42322802
v 33.75183805 43.76904195 46.45738958
v 33.74738960 44.22474761 46.42826825
v 37.11530388 44.23000170 46.42322802
v 51.60578884 44.23300499 46.42322802
f 1 2 3
f 1 3 4
f 1 4 8
f 1 8 5
f 1 5 2
f 2 5 9
f 2 9 10
f 2 10 6
f 2 6 7
f 2 7 3
f 3 7 11
f 3 11 18
f 3 18 22
f 3 22 21
f 3 21 12
f 3 12 8
f 3 8 4
f 5 8 12
f 5 12 20
f 5 20 13
f 5 13 9
f 6 10 14
f 6 14 11
f 6 11 7
f 9 13 19
f 9 19 17
f 9 17 16
f 9 16 15
f 9 15 14
f 9 14 10
f 11 14 15
f 11 15 16
f 11 16 17
f 11 17 18
f 12 19 20
f 12 21 17
f 12 17 19
f 13 20 19
f 17 21 22
f 17 22 18

