# https://github.com/mikedh/trimesh
v 32.65529600 73.62084892 51.05354953
v 33.74516537 73.62084892 44.75846916
v 32.65529600 73.62084892 43.61901980
v 32.03262218 73.47004004 51.05354953
v 33.74516537 73.43686102 51.05354953
v 33.74516537 73.62084892 43.61901980
v 32.65529600 73.59973620 42.50393395
v 31.80156009 73.38558587 42.50393395
v 31.79014660 73.39765218 43.61901980
v 31.74702916 73.39765218 51.05354953
v 33.74516537 42.80748005 51.05354953
v 33.74516537 73.59973620 42.50393395
v 33.74516537 73.38256930 41.75710792
v 32.65529600 73.37653614 41.74024101
v 31.90808709 73.31018144 41.80864553
v 31.45205087 72.61645861 42.50393395
v 31.40614277 72.61645861 43.61901980
v 31.26512281 72.65868404 51.05354953
v 31.15428357 42.80748005 51.05354953
v 33.74516537 42.80748005 46.47232753
v 33.74516537 73.37653614 41.74024101
v 32.65529600 72.61645861 41.50691648
v 31.79800864 72.61645861 41.72712239
v 31.39878737 71.50046828 42.50393395
v 31.32979980 71.50046828 43.61901980
v 31.15961075 71.50046828 51.05354953
v 31.32979980 48.09485704 43.61901980
v 31.33436453 46.97886671 43.61901980
v 31.32979980 42.80748005 48.07655180
v 31.15428357 70.38749453 51.05354953
v 33.74516537 46.03178471 42.53485718
v 33.48214518 42.80748005 46.47513896
v 32.65529600 46.02273498 42.54797496
v 33.74516537 72.61645861 41.50691648
v 32.65529600 71.50046828 41.48067925
v 31.78304535 71.50046828 41.71400377
v 31.39878737 49.21084405 42.50393395
v 31.40994837 48.09485704 42.50393395
v 31.67727914 46.89742912 42.41022906
v 31.71405612 42.80748005 47.01019253
v 31.84797483 46.15544772 42.71945469
v 32.65529600 46.49627764 41.99043245
v 33.74516537 46.49627764 41.99043245
v 32.65529600 42.80748005 46.48638343
v 33.74516537 71.50046828 41.48067925
v 32.65529600 49.21084405 41.48161611
v 31.78304535 49.21084405 41.71400377
v 31.79395054 48.09485704 41.72712239
v 31.90275991 47.21412975 41.80864553
v 33.74516537 46.50834062 41.98481042
v 32.65529600 47.05125457 41.74024101
v 33.74516537 47.05125457 41.73930414
v 33.74516537 49.21084405 41.48161611
v 33.74516537 48.11898633 41.50597879
v 32.65529600 48.09485704 41.50691648
v 33.74516537 48.09485704 41.50691648
f 1 2 6
f 1 6 3
f 1 3 4
f 1 4 10
f 1 10 18
f 1 18 26
f 1 26 30
f 1 30 19
f 1 19 11
f 1 11 5
f 1 5 2
f 2 5 11
f 2 11 20
f 2 20 31
f 2 31 43
f 2 43 50
f 2 50 52
f 2 52 56
f 2 56 54
f 2 54 53
f 2 53 45
f 2 45 34
f 2 34 21
f 2 21 13
f 2 13 12
f 2 12 6
f 3 6 12
f 3 12 7
f 3 7 8
f 3 8 9
f 3 9 10
f 3 10 4
f 7 12 13
f 7 13 14
f 7 14 15
f 7 15 8
f 8 15 16
f 8 16 17
f 8 17 18
f 8 18 9
f 9 18 10
f 11 19 29
f 11 29 40
f 11 40 44
f 11 44 32
f 11 32 20
f 13 21 14
f 14 21 34
f 14 34 22
f 14 22 15
f 15 22 23
f 15 23 16
f 16 23 24
f 16 24 25
f 16 25 17
f 17 25 26
f 17 26 18
f 19 27 28
f 19 28 29
f 19 30 25
f 19 25 27
f 20 32 33
f 20 33 31
f 22 34 45
f 22 45 35
f 22 35 23
f 23 35 36
f 23 36 24
f 24 36 47
f 24 47 37
f 24 37 27
f 24 27 25
f 25 30 26
f 27 37 28
f 28 37 38
f 28 38 39
f 28 39 29
f 29 39 41
f 29 41 40
f 31 33 42
f 31 42 43
f 32 44 33
f 33 41 42
f 33 44 41
f 35 45 53
f 35 53 46
f 35 46 47
f 35 47 36
f 37 47 38
f 38 47 48
f 38 48 49
f 38 49 39
f 39 49 41
f 40 41 44
f 41 49 42
f 42 50 43
f 42 49 51
f 42 51 52
f 42 52 50
f 46 53 54
f 46 54 55
f 46 55 48
f 46 48 47
f 48 55 49
f 49 55 51
f 51 55 52
f 52 55 56
f 54 56 55

