# https://github.com/mikedh/trimesh
v 33.74516703 73.58076633 58.70665230
v 33.77016840 73.57725142 58.70665230
v 33.74516703 73.43666169 52.14444049
v 33.74516703 37.83914254 58.70665230
v 34.72410414 73.38042314 58.70665230
v 33.77016840 73.43314678 52.14444049
v 33.74516703 37.68097827 52.14444049
v 33.74516703 37.67746336 58.10991257
v 35.92806521 37.84265745 58.66811122
v 35.92806521 37.85320218 58.70665230
v 35.07990731 72.76534060 58.70665230
v 34.35441243 73.20819923 52.14444049
v 33.76140771 37.68097827 52.14444049
v 33.74516703 37.67746336 52.50865095
v 35.92806521 37.69503791 58.10991257
v 35.92806521 49.87017524 58.70665230
v 35.12820243 72.61772106 58.70665230
v 34.39373257 72.61772106 52.14444049
v 35.92806521 37.69503791 52.14444049
v 35.92806521 48.94227907 52.14444049
v 35.17842111 71.50002643 58.70665230
v 35.17115541 71.70036961 58.70665230
f 1 2 6
f 1 6 3
f 1 3 7
f 1 7 14
f 1 14 8
f 1 8 4
f 1 4 10
f 1 10 16
f 1 16 21
f 1 21 22
f 1 22 17
f 1 17 11
f 1 11 5
f 1 5 2
f 2 5 6
f 3 6 12
f 3 12 18
f 3 18 20
f 3 20 19
f 3 19 13
f 3 13 7
f 4 8 9
f 4 9 10
f 5 11 12
f 5 12 6
f 7 13 14
f 8 14 19
f 8 19 15
f 8 15 9
f 9 15 19
f 9 19 20
f 9 20 16
f 9 16 10
f 11 17 12
f 12 17 18
f 13 19 14
f 16 20 21
f 17 22 20
f 17 20 18
f 20 22 21

