# https://github.com/mikedh/trimesh
v 106.28072881 34.15236477 -6.44339171
v 105.58654148 34.15236477 -2.50940517
v 106.86654209 30.21719136 -2.50940517
v 106.86654209 31.07302452 -6.44339171
v 76.94322841 34.15236477 -6.44339171
v 76.94322841 34.15236477 -2.50940517
v 106.86654209 25.66464860 -2.50940517
v 106.86654209 26.10503014 -6.44339171
v 76.94322841 26.12164787 -6.44339171
v 76.94322841 25.66464860 -2.50940517
v 106.86654209 25.66464860 -6.00666710
v 99.57903185 25.66797248 -6.44339171
v 76.94322841 25.87819244 -6.20269206
v 87.35019135 25.66631137 -6.44339171
v 76.94322841 25.66464860 -5.99049205
v 99.51752099 25.66464860 -6.44339171
v 87.43513381 25.66464860 -6.44339171
f 1 2 3
f 1 3 4
f 1 4 8
f 1 8 12
f 1 12 16
f 1 16 17
f 1 17 14
f 1 14 9
f 1 9 5
f 1 5 6
f 1 6 2
f 2 6 10
f 2 10 7
f 2 7 3
f 3 7 11
f 3 11 8
f 3 8 4
f 5 9 13
f 5 13 15
f 5 15 10
f 5 10 6
f 7 10 15
f 7 15 17
f 7 17 16
f 7 16 11
f 8 11 12
f 9 14 13
f 11 16 12
f 13 14 15
f 14 17 15

