# https://github.com/mikedh/trimesh
v 35.93028777 49.86981644 58.70665230
v 35.93028777 48.94022926 52.14444049
v 35.93028777 37.85312909 58.70665230
v 56.46879120 49.43243615 58.70665230
v 56.46879120 48.62083430 52.14444049
v 35.93028777 37.69581365 52.14444049
v 35.93028777 37.69581365 58.10991257
v 56.46879120 37.85312909 58.70665230
v 56.46879120 37.69581365 52.14444049
v 35.93028777 37.69462263 52.46561387
v 35.93028777 37.69462263 53.65138536
v 39.34465832 37.69462263 54.76649883
v 56.46879120 37.69581365 58.10991257
v 56.46879120 37.69462263 53.65138536
v 48.26062845 37.69462263 52.53691433
v 56.46879120 37.69462263 54.76649883
f 1 2 6
f 1 6 10
f 1 10 11
f 1 11 7
f 1 7 3
f 1 3 8
f 1 8 4
f 1 4 5
f 1 5 2
f 2 5 9
f 2 9 6
f 3 7 13
f 3 13 8
f 4 8 13
f 4 13 16
f 4 16 14
f 4 14 9
f 4 9 5
f 6 9 10
f 7 11 12
f 7 12 16
f 7 16 13
f 9 14 15
f 9 15 10
f 10 15 14
f 10 14 16
f 10 16 12
f 10 12 11

