# https://github.com/mikedh/trimesh
v -35.05177633 43.55003545 50.72217726
v -35.05177633 43.55003545 50.48225359
v -35.29152416 43.54483789 50.72217726
v -32.05231097 43.54830393 50.72217726
v -32.04812372 43.54830393 50.72094046
v -32.04812372 43.54830393 38.08782202
v -33.05265629 43.54830393 38.08782202
v -36.11546093 43.38025648 50.72217726
v -32.04812372 43.53790881 50.72217726
v -32.04812372 36.18373846 38.08782202
v -33.97395788 43.27457973 38.08782202
v -36.37300683 43.29710149 50.72217726
v -32.04812372 36.84899024 50.72217726
v -32.04812372 31.49751325 38.21891472
v -32.05231097 36.14909005 38.08782202
v -36.72477636 39.21202881 38.08782202
v -36.72111214 43.16543695 50.72217726
v -32.05231097 36.84899024 50.72217726
v -34.05300160 26.50118093 48.21163114
v -33.49341614 25.96759071 48.01993986
v -32.04812372 29.78760279 48.14361137
v -32.04812372 30.49789809 38.27951404
v -32.05231097 30.93100615 38.25230658
v -34.05300160 27.50079310 38.23746492
v -35.05177633 27.50079310 38.22262476
v -35.05177633 29.50175195 38.18304962
v -35.05125329 31.50097630 38.15089457
v -34.07289329 36.14909005 38.08782202
v -36.93573348 38.49999900 38.08782202
v -36.89071529 42.49845067 50.72217726
v -35.05177633 36.86804895 50.72217726
v -36.05159861 26.50118093 48.21163114
v -34.05300160 25.95026650 48.04096256
v -34.05300160 25.87577213 47.48072740
v -33.44420920 25.93813986 47.48072740
v -32.04812372 26.47173008 43.48240462
v -32.04812372 26.60685767 44.48043950
v -32.04812372 26.86325766 45.20268561
v -32.04812372 27.18029386 45.70232182
v -32.04812372 27.67923269 46.28358116
v -32.04812372 29.68885215 38.66166128
v -33.32538210 26.50118093 38.72473458
v -34.05300160 26.50118093 38.45760196
v -36.05159861 27.50079310 38.22386156
v -35.05177633 26.50118093 38.45141868
v -36.05159861 26.50118093 38.45141868
v -36.32170627 36.34485384 38.08782202
v -36.06363733 36.20799175 38.08782202
v -36.05212164 36.20279419 38.08782202
v -35.07166802 36.15082158 38.08782202
v -36.84203288 36.62377560 38.08782202
v -36.97708745 37.50038682 38.08782202
v -37.38434480 36.49904014 39.48408184
v -37.25818926 37.50038682 39.48408184
v -37.39428990 36.49904014 40.48335278
v -37.39586049 36.49904014 41.48386126
v -37.39586049 36.49904014 45.48094872
v -37.39428990 36.49904014 46.48145646
v -37.33042758 36.49904014 47.48072740
v -36.99017374 38.73907479 50.72217726
v -35.81237381 36.88537315 50.72217726
v -36.63735664 25.96759071 48.01993986
v -36.05159861 25.95026650 48.04096256
v -36.04740986 36.90269735 50.72217726
v -36.44419759 36.95986752 50.72217726
v -36.57558795 36.97892325 50.72217726
v -36.05159861 25.87577213 47.48072740
v -34.05300160 25.85151885 46.48021966
v -33.42431751 25.92774474 46.48021966
v -32.04812372 26.52890025 42.48436975
v -33.42013026 25.92774474 43.48240462
v -33.42431751 25.92774474 39.48408184
v -32.04812372 27.89405519 39.87735883
v -33.46671904 25.95199803 38.88179831
v -34.05300160 25.92774474 38.82985551
v -36.85093191 26.50118093 38.71731375
v -36.96766538 27.50079310 38.60477200
v -36.05159861 25.92774474 38.82985551
v -36.67400033 25.95199803 38.88179831
v -37.38486784 36.34658537 39.48408184
v -37.38539087 27.50079310 39.48408184
v -37.38853206 28.50213978 39.48408184
v -37.38800902 33.50020363 39.48284504
v -37.38591390 35.49942797 39.48284504
v -37.39376687 36.34658537 40.32999946
v -37.38172665 27.50079310 46.48021966
v -37.29430842 27.50079310 47.48072740
v -36.76298915 37.69961665 50.72217726
v -36.77816906 26.50118093 48.09661578
v -37.07916256 26.50118093 47.48072740
v -36.70750134 25.93813986 47.48072740
v -36.05159861 25.85151885 46.48021966
v -34.05300160 25.85151885 39.48408184
v -32.04812372 26.79742688 41.41584223
v -32.04812372 27.34140924 40.51674501
v -37.15192540 26.50118093 39.48408184
v -36.05159861 25.85151885 39.48408184
v -36.73472146 25.92774474 39.48408184
v -37.15244844 26.50118093 46.48021966
v -36.73472146 25.92774474 46.48021966
f 1 2 3
f 1 3 8
f 1 8 12
f 1 12 17
f 1 17 30
f 1 30 60
f 1 60 88
f 1 88 66
f 1 66 65
f 1 65 64
f 1 64 61
f 1 61 31
f 1 31 18
f 1 18 13
f 1 13 9
f 1 9 4
f 1 4 5
f 1 5 6
f 1 6 2
f 2 6 7
f 2 7 3
f 3 7 8
f 4 9 5
f 5 9 13
f 5 13 21
f 5 21 40
f 5 40 39
f 5 39 38
f 5 38 37
f 5 37 36
f 5 36 70
f 5 70 94
f 5 94 95
f 5 95 73
f 5 73 41
f 5 41 22
f 5 22 14
f 5 14 10
f 5 10 6
f 6 10 15
f 6 15 28
f 6 28 50
f 6 50 49
f 6 49 48
f 6 48 47
f 6 47 51
f 6 51 52
f 6 52 29
f 6 29 16
f 6 16 11
f 6 11 7
f 7 11 8
f 8 11 12
f 10 14 15
f 11 16 17
f 11 17 12
f 13 18 32
f 13 32 19
f 13 19 20
f 13 20 21
f 14 22 23
f 14 23 24
f 14 24 15
f 15 24 25
f 15 25 26
f 15 26 27
f 15 27 28
f 16 29 17
f 17 29 30
f 18 31 32
f 19 32 63
f 19 63 33
f 19 33 20
f 20 33 34
f 20 34 35
f 20 35 36
f 20 36 37
f 20 37 38
f 20 38 39
f 20 39 40
f 20 40 21
f 22 41 42
f 22 42 43
f 22 43 24
f 22 24 23
f 24 43 25
f 25 44 26
f 25 43 45
f 25 45 46
f 25 46 44
f 26 44 27
f 27 47 48
f 27 48 49
f 27 49 50
f 27 50 28
f 27 44 51
f 27 51 47
f 29 52 53
f 29 53 54
f 29 54 30
f 30 54 53
f 30 53 55
f 30 55 56
f 30 56 57
f 30 57 58
f 30 58 59
f 30 59 60
f 31 61 32
f 32 62 63
f 32 61 64
f 32 64 65
f 32 65 66
f 32 66 62
f 33 63 67
f 33 67 34
f 34 67 92
f 34 92 68
f 34 68 35
f 35 68 69
f 35 69 36
f 36 69 71
f 36 71 72
f 36 72 70
f 41 73 42
f 42 74 43
f 42 73 74
f 43 74 75
f 43 75 45
f 44 46 76
f 44 76 77
f 44 77 52
f 44 52 51
f 45 75 78
f 45 78 46
f 46 78 79
f 46 79 76
f 52 80 53
f 52 77 81
f 52 81 82
f 52 82 83
f 52 83 84
f 52 84 80
f 53 80 85
f 53 85 55
f 55 85 82
f 55 82 56
f 56 82 57
f 57 82 86
f 57 86 58
f 58 86 59
f 59 86 87
f 59 87 60
f 60 87 89
f 60 89 88
f 62 66 89
f 62 89 90
f 62 90 91
f 62 91 67
f 62 67 63
f 66 88 89
f 67 91 92
f 68 92 97
f 68 97 93
f 68 93 71
f 68 71 69
f 70 72 74
f 70 74 94
f 71 93 72
f 72 93 74
f 73 95 74
f 74 93 75
f 74 95 94
f 75 93 97
f 75 97 78
f 76 79 96
f 76 96 81
f 76 81 77
f 78 97 79
f 79 97 98
f 79 98 96
f 80 84 85
f 81 86 82
f 81 96 99
f 81 99 86
f 82 85 83
f 83 85 84
f 86 99 90
f 86 90 87
f 87 90 89
f 90 99 91
f 91 100 92
f 91 99 100
f 92 100 98
f 92 98 97
f 96 98 99
f 98 100 99

