# https://github.com/mikedh/trimesh
v -21.26612900 36.22722331 36.31318906
v -21.51621085 35.97068027 36.07905788
v -21.51621085 35.97068027 35.91226512
v -21.28221118 36.22722331 35.68642165
v -22.42406555 39.55020392 27.50425543
v -22.42406555 39.55135132 37.85265483
v -22.42406555 39.55135132 38.08782202
v -22.42406555 36.58419786 38.08782202
v -24.63942371 35.07996053 38.08782202
v -25.40977406 34.68567919 38.08782202
v -23.05288971 35.25787559 33.48082121
v -22.42326088 35.53163555 33.48082121
v -22.19247764 35.63207003 33.48082121
v -22.19247764 35.63207003 32.48213692
v -22.19247764 35.63264522 30.48373242
v -21.59823185 36.22722331 30.48373242
v -22.42406555 36.83672352 27.50425543
v -29.48024351 39.55020392 27.50425543
v -26.05146397 40.43633109 36.50795335
v -25.05113430 40.43633109 36.52142111
v -24.05321789 40.43633109 36.61465940
v -23.18637369 40.43633109 37.48073804
v -23.17431187 40.43633109 38.08782202
v -26.05146397 34.57319258 38.08782202
v -23.05288971 35.25787559 30.48269641
v -22.42326088 35.53163555 32.21485421
v -22.31229270 35.75546139 29.67359645
v -21.92148857 36.22722331 29.40527787
v -29.48024351 35.63551222 28.89557586
v -29.48024351 36.56525836 27.50425543
v -22.42326088 35.73652189 29.64873277
v -23.05288971 35.62920005 29.51094754
v -29.48024351 39.55249872 38.08782202
v -29.01706770 40.43633109 38.08782202
v -29.00983165 40.43633109 37.53046503
v -28.97364543 40.43633109 36.55975236
v -28.00306985 40.43633109 36.52142111
v -27.01721452 40.43633109 36.50795335
v -27.05179289 34.58237473 38.08782202
v -25.05274289 35.25098823 30.48269641
v -24.05321789 35.25098823 30.48269641
v -29.48024351 35.57639893 29.48401202
v -29.48024351 36.15203752 38.08782202
v -29.48024351 35.51441566 34.47846939
v -29.48024351 35.51326826 34.37590757
f 1 2 3
f 1 3 4
f 1 4 5
f 1 5 6
f 1 6 7
f 1 7 8
f 1 8 9
f 1 9 2
f 2 9 10
f 2 10 11
f 2 11 12
f 2 12 13
f 2 13 14
f 2 14 3
f 3 14 15
f 3 15 16
f 3 16 4
f 4 16 5
f 5 16 17
f 5 17 30
f 5 30 18
f 5 18 38
f 5 38 19
f 5 19 20
f 5 20 21
f 5 21 22
f 5 22 23
f 5 23 6
f 6 23 7
f 7 23 34
f 7 34 33
f 7 33 43
f 7 43 39
f 7 39 24
f 7 24 10
f 7 10 9
f 7 9 8
f 10 24 25
f 10 25 11
f 11 25 26
f 11 26 12
f 12 26 14
f 12 14 13
f 14 26 25
f 14 25 15
f 15 25 27
f 15 27 16
f 16 27 28
f 16 28 17
f 17 29 30
f 17 28 27
f 17 27 31
f 17 31 32
f 17 32 29
f 18 33 34
f 18 34 35
f 18 35 36
f 18 36 37
f 18 37 38
f 18 30 29
f 18 29 42
f 18 42 45
f 18 45 44
f 18 44 43
f 18 43 33
f 19 38 37
f 19 37 36
f 19 36 35
f 19 35 34
f 19 34 23
f 19 23 22
f 19 22 21
f 19 21 20
f 24 39 40
f 24 40 41
f 24 41 25
f 25 41 29
f 25 29 32
f 25 32 31
f 25 31 27
f 29 41 40
f 29 40 39
f 29 39 42
f 39 43 44
f 39 44 45
f 39 45 42

