# https://github.com/mikedh/trimesh
v -34.85175226 16.50040106 44.48323944
v -34.87189281 16.50040106 38.48243118
v -34.89395114 17.49985677 36.62157396
v -34.89395114 17.49985677 44.48323944
v -34.85271191 16.50040106 45.48337465
v -34.85558785 14.18463823 48.48175817
v -34.85462970 15.50042530 45.48337465
v -34.87956397 16.50040106 37.48431658
v -34.89203335 17.36094277 36.62157396
v -34.85846528 14.18463823 46.79870276
v -35.19605180 18.16685349 36.62157396
v -35.24496220 18.27455233 44.48323944
v -34.90737717 17.49985677 45.48337465
v -34.85654749 16.50040106 46.48350986
v -34.85558785 14.50044804 48.48175817
v -34.87285245 14.18463823 48.79695257
v -34.88723812 16.50040106 36.62157396
v -34.86134271 14.18463823 46.48350986
v -35.24496220 18.27455233 36.62157396
v -36.20592945 19.49928825 44.48323944
v -36.35074584 19.49928825 55.48068103
v -35.25838972 18.25478134 45.48337465
v -36.43226466 19.49928825 56.46869406
v -34.87572839 16.50040106 47.48162445
v -34.88915591 15.50042530 48.48175817
v -34.98218298 14.18463823 49.48189338
v -34.93614852 16.39270371 36.62157396
v -34.89586893 14.18463823 45.79856905
v -36.20592945 19.49928825 36.62157396
v -36.78615316 19.49928825 56.95562844
v -36.45144556 14.18463823 55.12709801
v -35.23824918 15.73194913 36.62157396
v -34.99560901 14.18463823 45.47125248
v -44.58226205 19.49928825 36.62157396
v -37.05276945 19.49928825 57.10110347
v -37.05276945 14.18463823 55.40592440
v -35.93835500 15.49366013 36.62157396
v -35.22290387 14.18463823 44.81863846
v -44.64843555 19.28753540 36.62157396
v -44.58226205 19.49928825 38.46626704
v -37.38172367 19.49928825 57.15565698
v -37.36829615 14.18463823 55.44835424
v -38.05305814 19.49928825 57.26071979
v -36.05248076 15.45515975 36.62157396
v -35.31497278 14.18463823 44.67114431
v -44.64843555 19.28441359 38.48243118
v -44.57938312 19.49928825 44.48323944
v -44.58130241 19.49928825 40.48270085
v -44.64843555 14.18463823 36.62157396
v -38.05305814 14.18463823 55.53927576
v -38.27363849 19.49928825 57.26274040
v -43.28370977 14.18463823 36.62157396
v -44.64843555 19.28077172 40.48270085
v -44.64843555 19.27296793 44.48323944
v -44.64843555 19.22770387 46.49765264
v -44.44799277 19.49928825 54.48054731
v -44.64843555 14.18463823 51.03967987
v -42.05229064 19.49928825 57.26071979
v -43.05161969 14.18463823 55.53119332
v -44.64843555 18.28651804 48.54237351
v -44.64843555 17.46291655 49.44350476
v -44.64843555 17.33752991 49.56271184
v -44.64843555 16.24234256 50.47394614
v -44.64843555 15.48741799 50.75277104
v -44.40675503 19.49928825 55.48068103
v -44.37030953 14.18463823 54.48054731
v -44.64843555 14.24082938 51.03361803
v -43.05161969 19.49928825 57.24859612
v -43.92243433 14.18463823 55.25640964
v -44.64843555 15.20802834 50.82348794
v -44.02409369 19.49928825 56.58184081
v -43.98573189 19.49928825 56.65053710
f 1 2 3
f 1 3 4
f 1 4 5
f 1 5 6
f 1 6 7
f 1 7 2
f 2 8 9
f 2 9 3
f 2 7 10
f 2 10 8
f 3 9 17
f 3 17 27
f 3 27 32
f 3 32 37
f 3 37 44
f 3 44 52
f 3 52 49
f 3 49 39
f 3 39 34
f 3 34 29
f 3 29 19
f 3 19 11
f 3 11 4
f 4 11 12
f 4 12 13
f 4 13 14
f 4 14 5
f 5 14 15
f 5 15 6
f 6 15 16
f 6 16 26
f 6 26 31
f 6 31 36
f 6 36 42
f 6 42 50
f 6 50 59
f 6 59 69
f 6 69 66
f 6 66 57
f 6 57 49
f 6 49 52
f 6 52 45
f 6 45 38
f 6 38 33
f 6 33 28
f 6 28 18
f 6 18 10
f 6 10 7
f 8 17 9
f 8 10 17
f 10 18 17
f 11 19 12
f 12 19 29
f 12 29 20
f 12 20 21
f 12 21 22
f 12 22 13
f 13 22 21
f 13 21 23
f 13 23 24
f 13 24 14
f 14 24 15
f 15 24 25
f 15 25 16
f 16 25 26
f 17 18 28
f 17 28 27
f 20 29 34
f 20 34 40
f 20 40 48
f 20 48 47
f 20 47 56
f 20 56 65
f 20 65 71
f 20 71 72
f 20 72 68
f 20 68 58
f 20 58 51
f 20 51 43
f 20 43 41
f 20 41 35
f 20 35 30
f 20 30 23
f 20 23 21
f 23 30 31
f 23 31 26
f 23 26 25
f 23 25 24
f 27 28 32
f 28 33 32
f 30 35 31
f 31 35 36
f 32 33 38
f 32 38 37
f 34 39 40
f 35 41 36
f 36 41 43
f 36 43 42
f 37 38 44
f 38 45 44
f 39 46 47
f 39 47 48
f 39 48 40
f 39 49 57
f 39 57 67
f 39 67 70
f 39 70 64
f 39 64 63
f 39 63 62
f 39 62 61
f 39 61 60
f 39 60 55
f 39 55 54
f 39 54 53
f 39 53 46
f 42 43 50
f 43 51 50
f 44 45 52
f 46 53 47
f 47 53 54
f 47 54 55
f 47 55 56
f 50 51 58
f 50 58 59
f 55 60 56
f 56 60 61
f 56 61 62
f 56 62 63
f 56 63 64
f 56 64 65
f 57 66 65
f 57 65 67
f 58 68 59
f 59 68 69
f 64 70 65
f 65 66 71
f 65 70 67
f 66 69 72
f 66 72 71
f 68 72 69

