# https://github.com/mikedh/trimesh
v -13.05223604 36.22676137 39.25981493
v -13.07142849 36.22676137 39.26216709
v -12.11085491 36.22676137 39.55626875
v -12.38924073 35.91633538 39.84207340
v -13.05223604 35.87555659 39.77755691
v -13.76482772 35.91798346 39.84975127
v -14.05214466 36.22676137 39.53323588
v -12.11085491 36.22676137 39.59738133
v -12.38924073 35.91633538 40.08540424
v -13.05223604 35.87555659 40.13741336
v -13.76482772 35.91798346 40.08602339
v -14.00862907 36.22676137 40.36377912
v -12.15589070 36.22676137 40.33554496
v -13.05223604 36.22676137 40.52476039
v -13.22914876 36.22676137 40.50048923
f 1 2 7
f 1 7 12
f 1 12 15
f 1 15 14
f 1 14 13
f 1 13 8
f 1 8 3
f 1 3 4
f 1 4 5
f 1 5 2
f 2 5 6
f 2 6 7
f 3 8 9
f 3 9 4
f 4 9 10
f 4 10 5
f 5 10 11
f 5 11 6
f 6 11 7
f 7 11 12
f 8 13 9
f 9 13 14
f 9 14 10
f 10 14 15
f 10 15 11
f 11 15 12

