# https://github.com/mikedh/trimesh
v -22.42288537 46.54999255 48.66945740
v -24.23936962 46.54999255 48.66945740
v -22.42288537 40.45015350 48.66945740
v -22.42288537 46.54999255 38.08782202
v -28.05175375 46.54934285 48.66945740
v -24.05225452 46.54999255 45.48233007
v -28.05175375 46.54934285 38.08782202
v -30.28867105 40.25851736 48.66945740
v -23.05276454 39.91357409 45.62216199
v -22.42288537 39.91357409 45.49786612
v -22.42288537 40.45015350 38.08782202
v -23.05276454 46.54999255 40.48256972
v -28.23887034 46.50516956 48.66945740
v -29.05201413 46.31028792 38.08782202
v -29.05201413 46.31093762 41.48314302
v -29.05201413 46.31223403 48.48197871
v -30.28097157 39.91357409 43.48221910
v -30.20242853 39.91357409 44.48175677
v -30.14236752 39.91357409 44.73552520
v -29.98143244 39.91357409 45.41189629
v -30.28867105 43.55463994 48.66945740
v -30.28867105 40.21954163 43.48221910
v -22.42288537 39.91357409 41.44067593
v -24.11924611 39.91357409 38.46381355
v -24.47884700 39.91357409 38.08782202
v -29.05201413 46.31223403 48.66945740
v -29.57947993 46.03550276 38.08782202
v -29.58102072 46.03744886 48.48197871
v -30.28867105 40.21954163 43.47082485
v -30.28867105 40.23253254 42.42053350
v -30.28867105 40.45015350 38.08782202
v -30.23862070 39.91357409 42.48268069
v -29.58102072 46.03744886 48.66945740
v -30.28867105 43.55463994 38.08782202
v -28.11335556 39.91357409 38.08782202
v -30.00838285 39.91357409 41.52664650
f 1 2 5
f 1 5 13
f 1 13 26
f 1 26 33
f 1 33 21
f 1 21 8
f 1 8 3
f 1 3 10
f 1 10 23
f 1 23 11
f 1 11 4
f 1 4 12
f 1 12 6
f 1 6 2
f 2 6 7
f 2 7 5
f 3 8 9
f 3 9 10
f 4 11 25
f 4 25 35
f 4 35 31
f 4 31 34
f 4 34 27
f 4 27 14
f 4 14 7
f 4 7 12
f 5 7 13
f 6 12 7
f 7 14 15
f 7 15 16
f 7 16 13
f 8 17 18
f 8 18 19
f 8 19 20
f 8 20 9
f 8 21 34
f 8 34 31
f 8 31 30
f 8 30 29
f 8 29 22
f 8 22 17
f 9 20 19
f 9 19 18
f 9 18 17
f 9 17 32
f 9 32 36
f 9 36 35
f 9 35 25
f 9 25 24
f 9 24 23
f 9 23 10
f 11 24 25
f 11 23 24
f 13 16 26
f 14 27 28
f 14 28 15
f 15 28 16
f 16 28 33
f 16 33 26
f 17 22 29
f 17 29 30
f 17 30 31
f 17 31 32
f 21 33 28
f 21 28 34
f 27 34 28
f 31 35 36
f 31 36 32

