# https://github.com/mikedh/trimesh
v -42.05252012 23.54992264 36.62157396
v -42.02884798 23.54992264 36.61804832
v -43.05251377 23.54745350 31.47615529
v -43.05251377 23.54745350 36.62157396
v -42.02884798 22.80042510 36.62157396
v -42.02884798 23.54868732 34.48201459
v -43.04614199 23.54745350 31.47615529
v -43.92352808 23.27457271 31.47615529
v -43.92899088 23.27333740 31.48270291
v -43.92868689 23.27333740 35.48228894
v -43.17451633 23.50917514 36.62157396
v -42.02884798 15.18691027 36.62157396
v -42.02884798 23.53263569 33.48073301
v -42.05252012 23.53757545 33.48274775
v -42.05252012 23.43262142 31.47615529
v -43.93172079 23.26839763 31.47615529
v -44.37663660 22.49914401 31.47615529
v -44.37663660 22.49914401 32.48247340
v -44.37633262 22.49914401 36.62157396
v -43.92868689 23.27210208 36.62157396
v -45.12928724 10.93564087 36.62157396
v -42.02884798 15.19555449 35.48531091
v -42.02884798 23.42644634 31.47615529
v -42.04493240 23.43138611 31.47615529
v -45.12928724 18.78252431 31.47615529
v -45.12928724 18.78252431 31.54868270
v -45.12928724 18.78005517 32.54543131
v -45.12928724 18.77264626 34.53792113
v -45.12928724 18.76153291 35.53416618
v -45.12928724 18.74548127 36.62157396
v -45.12928724 11.00231804 36.51781948
v -42.02884798 15.58203353 31.47615529
v -42.02884798 15.24864768 34.48201459
v -45.12928724 15.40669787 31.47615529
f 1 2 3
f 1 3 4
f 1 4 11
f 1 11 20
f 1 20 19
f 1 19 30
f 1 30 21
f 1 21 12
f 1 12 5
f 1 5 2
f 2 6 7
f 2 7 3
f 2 5 12
f 2 12 22
f 2 22 33
f 2 33 32
f 2 32 23
f 2 23 13
f 2 13 6
f 3 7 15
f 3 15 24
f 3 24 23
f 3 23 32
f 3 32 34
f 3 34 25
f 3 25 17
f 3 17 16
f 3 16 8
f 3 8 9
f 3 9 4
f 4 9 10
f 4 10 11
f 6 13 14
f 6 14 7
f 7 14 15
f 8 16 9
f 9 16 17
f 9 17 18
f 9 18 19
f 9 19 10
f 10 19 20
f 10 20 11
f 12 21 22
f 13 23 24
f 13 24 14
f 14 24 15
f 17 25 26
f 17 26 18
f 18 26 19
f 19 26 27
f 19 27 28
f 19 28 29
f 19 29 30
f 21 31 32
f 21 32 33
f 21 33 22
f 21 30 29
f 21 29 28
f 21 28 27
f 21 27 26
f 21 26 25
f 21 25 34
f 21 34 31
f 31 34 32

