# https://github.com/mikedh/trimesh
v -28.05043648 -39.49951130 -12.55000366
v -28.05043648 -36.50073438 -12.55000366
v -27.05076917 -43.77995737 -12.55000366
v -43.04925039 -42.49998994 -12.54747641
v -43.04925039 -35.09234791 -12.54747641
v -5.47017823 -36.50073438 -12.55000366
v -28.05043648 -43.77995737 -12.46669370
v -43.04925039 -43.26967271 -12.28240388
v -9.05295334 -43.77995737 -12.55000366
v -43.76657014 -43.17952308 -12.19404836
v -43.88866808 -42.49998994 -12.28240388
v -43.90774467 -41.49983238 -12.28240388
v -43.90774467 -35.09234791 -12.28240388
v -30.04976961 -35.09234791 -12.54747641
v -5.47017823 -35.59157583 -12.28240388
v -5.47017823 -42.49998994 -12.55000366
v -28.74104573 -43.77995737 -12.32279523
v -43.04925039 -43.54437443 -11.51747759
v -8.05328603 -43.77995737 -12.46669370
v -43.89629752 -43.27222381 -11.51747759
v -44.29692679 -42.49998994 -11.51747759
v -44.35415954 -41.49983238 -11.51747759
v -44.35415954 -35.09234791 -11.51747759
v -29.35916036 -35.09234791 -12.41115373
v -5.47017823 -35.11871122 -10.51777303
v -5.47017823 -35.13572250 -11.09840950
v -5.47017823 -35.15017970 -11.51747759
v -5.47017823 -43.27222381 -12.28240388
v -29.00050048 -43.77995737 -12.24706108
v -43.04925039 -43.54862725 -10.51777303
v -43.91537709 -43.27392553 -10.51777303
v -29.22180056 -43.77995737 -11.51747759
v -7.10322204 -43.77995737 -12.24706108
v -44.36560669 -42.49998994 -10.51777303
v -44.44573374 -41.49983238 -10.51777303
v -44.44954846 -35.09234791 -10.51777303
v -29.04247137 -35.09234791 -12.31774669
v -5.47017823 -35.11700949 7.48197252
v -28.53882224 -35.09234791 -11.98956137
v -28.01991125 -35.09234791 -11.58059038
v -27.60402011 -35.09234791 -10.67429286
v -27.55441830 -35.09234791 -10.51777303
v -5.47017823 -43.54862725 -11.51747759
v -43.04925039 -43.54862725 -6.51642753
v -43.92300653 -43.27392553 -6.51642753
v -43.91919181 -43.27392553 -9.51554121
v -29.25232579 -43.77995737 -10.92421677
v -29.27140387 -43.77995737 -10.52029730
v -29.27521859 -43.77995737 -9.52059274
v -7.03835686 -43.77995737 -12.05267416
v -44.36942439 -42.49998994 -7.51613209
v -44.37323912 -42.49998994 -3.51731087
v -44.44573374 -41.49983238 0.48151036
v -44.44573374 -35.09234791 0.88795708
v -5.47017823 -35.11700949 10.48108918
v -27.55441830 -35.09234791 13.23785327
v -5.47017823 -43.55288007 -10.51777303
v -6.82850393 -43.77995737 -10.51777303
v -6.87810575 -43.77995737 -11.51747759
v -43.04925039 -43.54522678 -2.51760631
v -43.92682126 -43.26797099 -0.51566993
v -29.27521859 -43.77995737 13.23532899
v -44.37323912 -42.49998994 0.48151036
v -44.44191603 -41.49983238 1.48121790
v -44.44191603 -35.09234791 1.48121790
v -13.05543506 -35.15017970 13.23785327
v -5.47017823 -35.14422515 11.48079523
v -38.84454742 -35.09234791 13.23785327
v -5.47017823 -43.55288007 13.23785327
v -6.82850393 -43.77995737 13.23785327
v -43.04925039 -43.54097396 1.48121790
v -43.92682126 -43.26626927 1.48121790
v -29.45836400 -43.72722777 13.23785327
v -37.05125250 -43.54947960 13.23785327
v -37.29163066 -43.54352506 13.23785327
v -38.05091832 -43.54947960 11.48079523
v -40.05025294 -43.54947960 7.48197252
v -42.04958457 -43.54947960 3.48062702
v -24.23872961 -43.77995737 13.23785327
v -44.36942439 -42.49998994 1.48121790
v -44.17101712 -42.49998994 2.48092246
v -44.20535558 -41.49983238 2.48092246
v -44.20535558 -35.09234791 2.48092246
v -12.81124218 -35.16038408 13.23785327
v -5.47017823 -35.60603303 12.39214278
v -12.05576850 -35.21736649 13.23785327
v -39.76408917 -35.09234791 11.40505959
v -38.84454742 -42.49998994 13.23785327
v -5.47017823 -37.57318391 13.23785327
v -43.04925039 -43.51971285 2.48092246
v -43.84287949 -43.24500815 2.48092246
v -38.10433635 -43.37172845 13.23785327
v -38.05091832 -43.52481504 12.48050128
v -40.05025294 -43.52481504 8.48167857
v -42.04958457 -43.52481504 4.48033158
v -43.69026080 -43.14975633 3.26351867
v -43.76275244 -42.49998994 3.40489287
v -43.76275244 -35.09234791 3.40489287
v -11.80012847 -35.30326628 13.23785327
v -39.76408917 -42.49998994 11.40505959
v -40.76375499 -35.09234791 9.40564897
v -39.69159157 -43.14975633 11.26368688
v -38.69574047 -43.15230742 13.23785327
v -42.87755213 -43.24926097 4.48033158
v -38.34852923 -43.29178320 13.23785327
v -38.87888886 -43.24926097 12.48050128
v -40.87822050 -43.24926097 8.48167857
v -40.69125739 -43.14975633 9.26427627
v -43.39646461 -35.09234791 4.13952490
v -40.76375499 -42.49998994 9.40564897
f 1 2 6
f 1 6 16
f 1 16 9
f 1 9 3
f 1 3 4
f 1 4 5
f 1 5 2
f 2 5 14
f 2 14 6
f 3 7 8
f 3 8 4
f 3 9 19
f 3 19 33
f 3 33 50
f 3 50 59
f 3 59 58
f 3 58 70
f 3 70 79
f 3 79 62
f 3 62 49
f 3 49 48
f 3 48 47
f 3 47 32
f 3 32 29
f 3 29 17
f 3 17 7
f 4 8 10
f 4 10 11
f 4 11 12
f 4 12 13
f 4 13 5
f 5 13 23
f 5 23 36
f 5 36 54
f 5 54 65
f 5 65 83
f 5 83 98
f 5 98 109
f 5 109 101
f 5 101 87
f 5 87 68
f 5 68 56
f 5 56 42
f 5 42 41
f 5 41 40
f 5 40 39
f 5 39 37
f 5 37 24
f 5 24 14
f 6 15 27
f 6 27 26
f 6 26 25
f 6 25 38
f 6 38 55
f 6 55 67
f 6 67 85
f 6 85 89
f 6 89 69
f 6 69 57
f 6 57 43
f 6 43 28
f 6 28 16
f 6 14 15
f 7 17 18
f 7 18 8
f 8 18 10
f 9 16 19
f 10 20 21
f 10 21 11
f 10 18 20
f 11 21 22
f 11 22 12
f 12 22 23
f 12 23 13
f 14 24 25
f 14 25 26
f 14 26 27
f 14 27 15
f 16 28 19
f 17 29 18
f 18 30 31
f 18 31 20
f 18 29 32
f 18 32 30
f 19 28 33
f 20 31 34
f 20 34 21
f 21 34 35
f 21 35 22
f 22 35 36
f 22 36 23
f 24 37 25
f 25 37 39
f 25 39 40
f 25 40 41
f 25 41 42
f 25 42 38
f 28 43 33
f 30 44 45
f 30 45 46
f 30 46 31
f 30 32 47
f 30 47 48
f 30 48 49
f 30 49 62
f 30 62 44
f 31 46 34
f 33 43 50
f 34 51 35
f 34 46 45
f 34 45 51
f 35 51 52
f 35 52 63
f 35 63 53
f 35 53 36
f 36 53 54
f 38 42 56
f 38 56 55
f 43 57 58
f 43 58 59
f 43 59 50
f 44 60 61
f 44 61 45
f 44 62 60
f 45 61 52
f 45 52 51
f 52 61 63
f 53 63 80
f 53 80 64
f 53 64 54
f 54 64 65
f 55 66 67
f 55 56 66
f 56 68 88
f 56 88 103
f 56 103 105
f 56 105 92
f 56 92 75
f 56 75 74
f 56 74 73
f 56 73 79
f 56 79 70
f 56 70 69
f 56 69 89
f 56 89 99
f 56 99 86
f 56 86 84
f 56 84 66
f 57 69 70
f 57 70 58
f 60 71 72
f 60 72 61
f 60 62 71
f 61 72 63
f 62 73 74
f 62 74 75
f 62 75 76
f 62 76 77
f 62 77 78
f 62 78 71
f 62 79 73
f 63 72 80
f 64 80 81
f 64 81 82
f 64 82 83
f 64 83 65
f 66 84 67
f 67 84 86
f 67 86 85
f 68 87 100
f 68 100 88
f 71 90 72
f 71 78 90
f 72 90 91
f 72 91 80
f 75 92 93
f 75 93 76
f 76 93 94
f 76 94 77
f 77 94 95
f 77 95 78
f 78 95 90
f 80 91 81
f 81 91 96
f 81 96 97
f 81 97 82
f 82 97 98
f 82 98 83
f 85 86 99
f 85 99 89
f 87 101 110
f 87 110 100
f 88 100 102
f 88 102 103
f 90 104 91
f 90 95 104
f 91 104 96
f 92 105 93
f 93 105 106
f 93 106 107
f 93 107 94
f 94 107 104
f 94 104 95
f 96 104 107
f 96 107 108
f 96 108 110
f 96 110 97
f 97 109 98
f 97 110 109
f 100 110 108
f 100 108 102
f 101 109 110
f 102 106 103
f 102 108 107
f 102 107 106
f 103 106 105

