# https://github.com/mikedh/trimesh
v 3.03440801 19.53236159 7.55646987
v 3.03440801 19.49875180 7.55646987
v 5.50904806 26.56622194 7.00984403
v 3.03440801 26.56622194 7.55350601
v 5.50904806 26.49899938 7.00984403
v 3.03440801 18.49978336 7.55498868
v 5.50047387 10.50056511 7.00540047
v 9.28928868 26.56622194 4.65447067
v 3.03440801 26.56622194 -6.67354342
v 9.28928868 7.49432341 4.65447067
v 3.03440801 11.50140142 7.54165504
v 3.03440801 10.50056511 7.53869267
v 5.48332849 9.92172349 6.99799455
v 9.28928868 26.56622194 -4.66332790
v 3.88255783 26.56622194 -7.13572979
v 3.03440801 26.56248470 -7.55791820
v 3.03440801 9.58375476 7.31945045
v 3.03440801 9.10574325 6.83652451
v 7.94755703 7.49432341 4.54781342
v 9.28928868 7.49432341 -4.66332790
v 5.46679405 26.56622194 -7.02462600
v 3.03440801 19.49875180 -7.57569540
v 3.03440801 8.96383410 6.40544601
v 7.04061876 7.49432341 4.26487131
v 7.94082166 7.49432341 4.54633223
v 7.94755703 7.49432341 -4.54926175
v 3.03440801 9.05906282 -6.60095641
v 3.03440801 9.36342177 -7.07499226
v 3.03440801 9.52213582 -7.27349490
v 3.03440801 9.60989603 -7.34608191
v 5.45760742 9.98147530 -7.02166363
v 5.46250696 10.50056511 -7.02314482
v 5.46618161 24.49919687 -7.02462600
v 5.46679405 26.49899938 -7.02462600
v 3.03440801 10.50056511 -7.55495583
v 3.03440801 8.93582569 5.48107327
v 6.44293227 7.49432341 2.48130691
v 6.50845757 7.49432341 3.32272137
v 6.52131736 7.49432341 3.41901032
v 6.53785180 7.49432341 3.45012116
v 7.03694411 7.49432341 4.25894657
v 7.04123120 7.49432341 -4.28557802
v 3.03440801 8.96383410 -6.43059926
v 3.03440801 10.46695532 -7.55199346
v 3.03440801 8.93582569 -5.51659482
v 6.44231983 7.49432341 1.66803497
v 7.03449435 7.49432341 -4.28261565
v 3.03440801 8.96009984 -6.35356572
v 6.49437290 7.49432341 -3.43231111
v 6.44599448 7.49432341 -2.83680318
v 6.44293227 7.49432341 -2.51682548
v 6.44231983 7.49432341 -1.51690336
f 1 2 5
f 1 5 3
f 1 3 4
f 1 4 9
f 1 9 16
f 1 16 22
f 1 22 35
f 1 35 44
f 1 44 30
f 1 30 29
f 1 29 28
f 1 28 27
f 1 27 43
f 1 43 48
f 1 48 45
f 1 45 36
f 1 36 23
f 1 23 18
f 1 18 17
f 1 17 12
f 1 12 11
f 1 11 6
f 1 6 2
f 2 6 7
f 2 7 5
f 3 5 10
f 3 10 8
f 3 8 14
f 3 14 21
f 3 21 15
f 3 15 9
f 3 9 4
f 5 7 10
f 6 11 7
f 7 11 12
f 7 12 13
f 7 13 10
f 8 10 20
f 8 20 14
f 9 15 16
f 10 13 17
f 10 17 18
f 10 18 19
f 10 19 25
f 10 25 24
f 10 24 41
f 10 41 40
f 10 40 39
f 10 39 38
f 10 38 37
f 10 37 46
f 10 46 52
f 10 52 51
f 10 51 50
f 10 50 49
f 10 49 47
f 10 47 42
f 10 42 26
f 10 26 20
f 12 17 13
f 14 20 34
f 14 34 21
f 15 21 16
f 16 21 22
f 18 23 24
f 18 24 25
f 18 25 19
f 20 26 27
f 20 27 28
f 20 28 29
f 20 29 30
f 20 30 31
f 20 31 32
f 20 32 33
f 20 33 34
f 21 34 22
f 22 34 33
f 22 33 32
f 22 32 35
f 23 36 37
f 23 37 38
f 23 38 39
f 23 39 40
f 23 40 41
f 23 41 24
f 26 42 43
f 26 43 27
f 30 44 31
f 31 44 35
f 31 35 32
f 36 45 52
f 36 52 46
f 36 46 37
f 42 47 43
f 43 47 49
f 43 49 48
f 45 50 51
f 45 51 52
f 45 48 50
f 48 49 50

