# https://github.com/mikedh/trimesh
v -35.80852928 -18.77479648 19.48584659
v -36.35040758 -22.49968191 13.24037754
v -35.84331180 -18.77479648 18.48237797
v -35.80944422 -18.77479648 43.47923363
v -35.80944422 -18.77526736 44.47895831
v -36.35132252 -22.50675256 51.49200607
v -36.45200883 -23.14500773 13.24037754
v -36.35040758 -18.77479648 13.24037754
v -36.45200883 -23.15349251 51.49200607
v -35.81035916 -18.77479648 44.48270300
v -35.85154921 -18.77479648 45.48242693
v -36.35040758 -22.49968191 51.49200607
v -36.59663299 -23.21571569 13.24037754
v -44.44928918 -18.77479648 13.24037754
v -37.05246845 -23.44575089 51.49200607
v -35.85338058 -18.77479648 45.51986932
v -36.35040758 -18.77479648 51.49200607
v -37.05246845 -23.42406806 13.24037754
v -45.05615484 -18.77479648 18.48237797
v -44.44928918 -19.50025828 13.24037754
v -38.04285972 -23.58575268 51.49200607
v -37.29503262 -23.45847954 13.24037754
v -44.44104878 -18.77479648 51.49200607
v -45.11015999 -18.77479648 19.48584659
v -44.44837126 -21.49987304 13.24037754
v -44.42915162 -21.74169364 13.24037754
v -44.36873894 -22.49968191 13.24037754
v -38.05292999 -23.58716681 51.49200607
v -38.05292999 -23.55935510 13.24037754
v -44.44471151 -20.49063764 51.49200607
v -45.01313491 -18.77479648 45.48242693
v -45.15958746 -18.77479648 31.48254020
v -44.26072865 -22.69012149 13.24037754
v -44.36965387 -22.49968191 13.48375532
v -39.04332127 -23.58999507 51.49200607
v -38.29457774 -23.55982598 13.24037754
v -44.44654139 -21.49044502 51.49200607
v -45.02503208 -18.77479648 45.30270136
v -44.44654139 -21.49987304 51.49200607
v -45.04974730 -18.77479648 44.47895831
v -44.36965387 -22.49968191 19.48584659
v -44.36873894 -22.49968191 27.48364252
v -44.36507621 -22.49968191 51.49200607
v -43.92114090 -23.27463825 13.24037754
v -43.91747817 -23.27982388 51.49200607
v -40.05293516 -23.58999507 51.49200607
v -41.29412952 -23.55982598 13.24037754
v -44.36599114 -22.49025389 51.49200607
v -43.05157201 -23.55416946 13.24037754
v -43.05157201 -23.57255463 51.49200607
v -43.90924075 -23.28359539 51.49200607
v -41.05156683 -23.58858094 51.49200607
v -42.05202540 -23.55935510 13.24037754
v -42.05202540 -23.58669593 51.49200607
f 1 2 3
f 1 3 8
f 1 8 14
f 1 14 19
f 1 19 24
f 1 24 32
f 1 32 40
f 1 40 38
f 1 38 31
f 1 31 23
f 1 23 17
f 1 17 16
f 1 16 11
f 1 11 10
f 1 10 4
f 1 4 5
f 1 5 6
f 1 6 2
f 2 7 13
f 2 13 18
f 2 18 22
f 2 22 29
f 2 29 36
f 2 36 47
f 2 47 53
f 2 53 49
f 2 49 44
f 2 44 33
f 2 33 27
f 2 27 26
f 2 26 25
f 2 25 20
f 2 20 14
f 2 14 8
f 2 8 3
f 2 6 9
f 2 9 7
f 4 10 5
f 5 10 11
f 5 11 12
f 5 12 6
f 6 12 17
f 6 17 23
f 6 23 30
f 6 30 37
f 6 37 39
f 6 39 48
f 6 48 43
f 6 43 45
f 6 45 51
f 6 51 50
f 6 50 54
f 6 54 52
f 6 52 46
f 6 46 35
f 6 35 28
f 6 28 21
f 6 21 15
f 6 15 9
f 7 9 13
f 9 15 13
f 11 16 12
f 12 16 17
f 13 15 18
f 14 20 19
f 15 21 22
f 15 22 18
f 19 20 25
f 19 25 26
f 19 26 27
f 19 27 24
f 21 28 22
f 22 28 29
f 23 31 30
f 24 27 32
f 27 33 34
f 27 34 32
f 28 35 29
f 29 35 36
f 30 31 37
f 31 38 39
f 31 39 37
f 32 34 41
f 32 41 42
f 32 42 43
f 32 43 40
f 33 41 34
f 33 44 45
f 33 45 41
f 35 46 47
f 35 47 36
f 38 40 43
f 38 43 48
f 38 48 39
f 41 45 42
f 42 45 43
f 44 49 50
f 44 50 51
f 44 51 45
f 46 52 53
f 46 53 47
f 49 53 54
f 49 54 50
f 52 54 53

