# https://github.com/mikedh/trimesh
v -38.05290317 14.18347444 55.53860669
v -41.75241176 14.18347444 55.53167612
v -38.05290317 13.49906113 55.53860669
v -37.05285290 14.18347444 55.40576644
v -41.75241176 14.18347444 43.73891786
v -41.75241176 2.50073031 55.53167612
v -37.05285290 10.49951680 55.40576644
v -38.05290317 2.29470812 55.53514215
v -37.05285290 6.50012337 55.40461160
v -36.64134571 14.18347444 55.21517041
v -36.05280263 14.18347444 44.43661862
v -36.05280263 2.29470812 45.44158407
v -41.75241176 2.29470812 45.35494964
v -41.75241176 2.29470812 55.52936642
v -36.45147089 4.50042703 55.12622480
v -37.25894475 2.29470812 55.43002420
v -37.05285290 3.50057867 55.40345675
v -36.57580252 2.29470812 55.18282574
v -36.45147089 14.18347444 55.12622480
v -35.85144192 14.18347444 44.46665211
v -35.88590257 2.29470812 45.49818650
v -36.45147089 2.29470812 55.12506846
v -34.89328654 2.29470812 49.48339691
v -37.05285290 2.29470812 55.40230190
v -34.89328654 10.49951680 49.48339691
v -34.89463809 12.49921352 49.48339691
v -34.90815204 13.49906113 49.48339691
v -34.98180449 14.18347444 49.48339691
v -35.31492808 14.18347444 44.66995519
v -35.24533026 2.29470812 45.71650633
v -34.85950092 2.29470812 48.68981997
v -34.85004160 7.50113552 48.48305160
v -34.85409474 13.49906113 48.48305160
v -34.85544629 14.18347444 48.48305160
v -34.87233984 14.18347444 48.79840246
v -35.22303202 14.18347444 44.81781293
v -34.89463809 2.29470812 46.48351582
v -34.85071663 2.29470812 48.48305160
v -34.85071663 2.29470812 47.48270628
v -34.85071663 6.50012337 47.48270628
v -34.85814938 14.18347444 46.79886668
v -34.99531844 14.18347444 45.47161905
v -34.88517728 2.29470812 46.68912934
v -34.89598814 14.18347444 45.79852136
v -34.89396157 2.50073031 46.48351582
v -34.86152749 14.18347444 46.48351582
f 1 2 6
f 1 6 3
f 1 3 7
f 1 7 4
f 1 4 10
f 1 10 19
f 1 19 28
f 1 28 35
f 1 35 34
f 1 34 41
f 1 41 46
f 1 46 44
f 1 44 42
f 1 42 36
f 1 36 29
f 1 29 20
f 1 20 11
f 1 11 5
f 1 5 2
f 2 5 13
f 2 13 14
f 2 14 6
f 3 6 8
f 3 8 9
f 3 9 7
f 4 7 10
f 5 11 12
f 5 12 13
f 6 14 8
f 7 9 15
f 7 15 10
f 8 14 13
f 8 13 12
f 8 12 21
f 8 21 30
f 8 30 37
f 8 37 43
f 8 43 39
f 8 39 38
f 8 38 31
f 8 31 23
f 8 23 22
f 8 22 18
f 8 18 24
f 8 24 16
f 8 16 17
f 8 17 9
f 9 17 18
f 9 18 15
f 10 15 19
f 11 20 12
f 12 20 21
f 15 18 22
f 15 22 23
f 15 23 25
f 15 25 19
f 16 24 17
f 17 24 18
f 19 25 26
f 19 26 27
f 19 27 28
f 20 29 30
f 20 30 21
f 23 31 32
f 23 32 25
f 25 32 26
f 26 33 34
f 26 34 35
f 26 35 27
f 26 32 33
f 27 35 28
f 29 36 30
f 30 36 37
f 31 38 32
f 32 38 39
f 32 39 40
f 32 40 33
f 33 41 34
f 33 40 41
f 36 42 37
f 37 42 44
f 37 44 45
f 37 45 43
f 39 43 46
f 39 46 40
f 40 46 41
f 43 45 46
f 44 46 45

