# https://github.com/mikedh/trimesh
v -22.42284215 33.80473766 42.17868384
v -22.42284215 34.34510497 40.65352515
v -21.99605521 36.22679415 40.48256376
v -21.99388485 36.22679415 40.66327355
v -21.98818288 36.22679415 41.48283978
v -21.99745966 36.22679415 45.48244332
v -22.42284215 34.24243828 45.46144745
v -22.42284215 34.43378534 40.48256376
v -22.42284215 34.50041185 40.38808531
v -22.14489867 36.22679415 39.67199565
v -22.01933098 36.22679415 45.61441333
v -22.42284215 34.36336498 45.61891202
v -22.42284215 36.22679415 39.28433197
v -22.16872727 36.22679415 39.54602339
v -22.02264949 36.22679415 45.63390865
v -22.16281296 36.22679415 46.44597657
v -22.42284215 34.50041185 45.77112838
v -22.42284215 36.22679415 46.94461589
v -22.19719389 36.22679415 46.52920904
v -22.42284215 34.79395174 45.98183068
f 1 2 3
f 1 3 4
f 1 4 5
f 1 5 6
f 1 6 7
f 1 7 12
f 1 12 17
f 1 17 20
f 1 20 18
f 1 18 13
f 1 13 9
f 1 9 8
f 1 8 2
f 2 8 3
f 3 8 9
f 3 9 10
f 3 10 14
f 3 14 13
f 3 13 18
f 3 18 19
f 3 19 16
f 3 16 15
f 3 15 11
f 3 11 6
f 3 6 5
f 3 5 4
f 6 11 7
f 7 11 12
f 9 13 14
f 9 14 10
f 11 15 12
f 12 15 16
f 12 16 17
f 16 19 17
f 17 19 20
f 18 20 19

