# https://github.com/mikedh/trimesh
v -3.30353527 36.64226806 11.58429639
v -3.30353527 36.68560986 12.46787396
v -6.39399515 36.87715362 12.48049681
v -6.39399515 36.85058765 11.48079076
v -3.30353527 37.33853830 -11.51748653
v -3.30353527 36.84359896 13.20755603
v -4.05232499 36.84918991 13.24037456
v -4.29405544 36.85128801 13.24037456
v -6.39399515 36.91840030 13.24037456
v -6.39399515 38.45425213 -11.51748653
v -6.39399515 38.72968699 -12.28241282
v -3.30353527 37.69436545 -12.19910287
v -3.30353527 36.87505552 13.24037456
v -3.31442660 36.85268575 13.24037456
v -6.39399515 43.64134440 13.24037456
v -6.39399515 38.99323363 -12.37329560
v -3.30353527 37.78804072 -12.26978848
v -3.30353527 43.59380641 13.24037456
v -3.30353527 43.68468620 12.73294797
v -3.30353527 43.77207016 11.53128219
v -6.39399515 43.64763571 12.91976207
v -6.39399515 39.50075857 -12.54748833
v -3.30353527 38.75205676 -12.49446965
v -3.30353527 43.78115695 10.49118329
v -6.39399515 43.65462738 11.92005602
v -6.39399515 42.49976496 -12.54748833
v -4.05232499 39.50075857 -12.55000962
v -3.30353527 39.50075857 -12.54748833
v -3.30353527 43.78185731 6.48983780
v -6.39399515 43.65532476 11.48079076
v -4.05232499 40.49972701 -12.55000962
v -6.39399515 42.82972352 -12.45912983
v -3.30353527 42.49976496 -12.54748833
v -3.30353527 43.78325505 -5.50915611
v -6.39399515 43.65602512 -7.51613805
v -6.39399515 43.35123180 -12.27988855
v -3.30353527 43.44700219 -12.28493710
v -3.30353527 43.78325505 -10.51778197
v -6.39399515 43.65602512 -10.51778197
v -6.39399515 43.48335530 -11.96432460
v -3.30353527 43.76997207 -11.51748653
v -6.39399515 43.65392703 -11.07822127
v -6.39399515 43.64693536 -11.51748653
f 1 2 3
f 1 3 4
f 1 4 5
f 1 5 12
f 1 12 17
f 1 17 23
f 1 23 28
f 1 28 33
f 1 33 37
f 1 37 41
f 1 41 38
f 1 38 34
f 1 34 29
f 1 29 24
f 1 24 20
f 1 20 19
f 1 19 18
f 1 18 13
f 1 13 6
f 1 6 2
f 2 6 7
f 2 7 8
f 2 8 9
f 2 9 3
f 3 9 15
f 3 15 21
f 3 21 25
f 3 25 30
f 3 30 35
f 3 35 39
f 3 39 42
f 3 42 43
f 3 43 40
f 3 40 36
f 3 36 32
f 3 32 26
f 3 26 22
f 3 22 16
f 3 16 11
f 3 11 10
f 3 10 4
f 4 10 5
f 5 10 11
f 5 11 12
f 6 13 14
f 6 14 7
f 7 14 13
f 7 13 18
f 7 18 15
f 7 15 9
f 7 9 8
f 11 16 17
f 11 17 12
f 15 19 20
f 15 20 21
f 15 18 19
f 16 22 17
f 17 22 23
f 20 24 21
f 21 24 25
f 22 26 31
f 22 31 27
f 22 27 23
f 23 27 28
f 24 29 30
f 24 30 25
f 26 32 33
f 26 33 31
f 27 31 33
f 27 33 28
f 29 34 30
f 30 34 35
f 32 36 37
f 32 37 33
f 34 38 39
f 34 39 35
f 36 40 41
f 36 41 37
f 38 41 42
f 38 42 39
f 40 43 41
f 41 43 42

