# https://github.com/mikedh/trimesh
v -27.55727040 -35.09167140 -6.74868152
v -27.55727040 -35.09167140 -8.74809064
v -28.89001510 -30.50080232 8.48167857
v -27.55892295 -35.09167140 13.23785327
v -27.55892295 -35.09167140 -10.51777303
v -28.89001510 -30.50080232 -10.51777303
v -29.21576257 -29.52383707 8.48167857
v -29.26867396 -29.42000511 11.46312383
v -28.91151166 -30.50080232 11.48079523
v -29.49686289 -28.97231170 12.01851459
v -29.26206078 -30.53990918 13.23785327
v -38.84593026 -35.09167140 13.23785327
v -27.60687668 -35.09167140 -10.67429286
v -29.34143084 -29.68834995 -11.20443791
v -29.21741512 -29.57710013 -10.51777303
v -29.27032800 -29.41663146 5.52800329
v -29.49520885 -28.97163816 4.93221820
v -29.49520885 -28.97163816 5.22506369
v -29.28686392 -29.42000511 -7.51360782
v -34.05234148 -28.48888508 13.23785327
v -33.83076871 -28.55765736 13.23785327
v -33.19085205 -28.77138909 13.23785327
v -35.81170027 -28.20503101 5.48003912
v -35.82988874 -28.20503101 6.47974368
v -38.84593026 -29.67958503 13.23785327
v -43.93549975 -28.20503101 3.87950092
v -39.39655559 -35.09167140 12.13969162
v -28.02191249 -35.09167140 -11.58059038
v -30.05244885 -29.13682457 -10.51777303
v -29.33977680 -31.74544184 -12.19404836
v -33.41242482 -28.84555564 -12.16879967
v -29.52662666 -28.98781795 -7.17532243
v -29.50843669 -28.97837949 -4.12571732
v -35.81335282 -28.20503101 -8.51583665
v -35.81170027 -28.20503101 -0.53081557
v -34.81131323 -28.45719606 13.23785327
v -36.07791870 -28.20503101 7.47944824
v -38.84427622 -29.50023646 13.23785327
v -38.70868669 -28.86915327 13.23785327
v -38.69876543 -28.84555564 13.23785327
v -43.74038267 -28.20503101 4.19506487
v -44.32904198 -28.20503101 2.77628924
v -44.20502775 -35.09167140 2.48092246
v -43.76353327 -35.09167140 3.40489287
v -43.51385076 -35.09167140 3.90474366
v -40.76402619 -35.09167140 9.40564897
v -28.53946747 -35.09167140 -11.98956137
v -29.23229701 -32.49991043 -12.28240388
v -34.05234148 -28.49225574 -11.51747759
v -30.05244885 -32.49991043 -12.54747641
v -34.05234148 -29.50023646 -12.50960933
v -34.05234148 -28.74846500 -12.26473397
v -35.91587199 -28.20503101 -10.51777303
v -35.82823470 -28.20503101 -9.51806847
v -35.05272852 -28.44775760 13.23785327
v -37.05184855 -28.20503101 8.13329758
v -38.10680102 -28.62170893 13.23785327
v -41.76110515 -28.20503101 7.30273422
v -44.44478900 -28.20503101 1.77658468
v -44.44148092 -35.09167140 1.48121790
v -44.34557642 -35.09167140 1.88766164
v -29.04710119 -35.09167140 -12.31774669
v -37.02869945 -28.20503101 -11.68914604
v -36.26476707 -28.20503101 -11.41144917
v -36.18870508 -28.20503101 -11.38367919
v -29.36292591 -35.09167140 -12.41115373
v -30.05244885 -35.09167140 -12.54747641
v -35.05272852 -29.50023646 -12.55000366
v -35.05272852 -28.72958808 -12.28240388
v -38.00593738 -28.20503101 -11.76488020
v -37.05184855 -28.44303689 13.23785327
v -38.05223559 -28.20503101 8.24942309
v -38.05223559 -28.46663452 12.48050128
v -41.11126724 -28.20503101 7.76976648
v -44.44644006 -28.20503101 1.48121790
v -44.44644006 -35.09167140 0.88795708
v -43.05085973 -35.09167140 -12.54747641
v -43.05085973 -32.49991043 -12.54747641
v -42.05212673 -29.50023646 -12.54747641
v -43.05085973 -28.68306337 -12.28240388
v -42.05212673 -28.68238984 -12.28240388
v -38.05223559 -28.68104276 -12.28240388
v -37.05184855 -28.69317835 -12.28240388
v -38.05223559 -28.20503101 -11.76488020
v -38.65908040 -28.20503101 8.25447312
v -39.05096859 -28.20503101 8.25699740
v -40.05135563 -28.20503101 8.23932599
v -44.44809708 -28.20503101 0.77687714
v -44.44809708 -35.09167140 0.48151036
v -43.90739002 -35.09167140 -12.28240388
v -43.90739002 -32.49991043 -12.28240388
v -43.90573598 -30.50080232 -12.28240388
v -43.05085973 -29.50023646 -12.54495511
v -43.77841664 -28.78891893 -12.19404836
v -43.05085973 -28.20503101 -11.75983165
v -41.05174267 -28.20503101 -11.76235593
v -44.44809708 -28.20503101 -8.22046987
v -44.44809708 -35.09167140 -10.51777303
v -44.35549768 -35.09167140 -11.51747759
v -44.35549768 -30.50080232 -11.51747759
v -43.89912280 -29.50023646 -12.27987961
v -44.34888450 -29.50023646 -11.51747759
v -43.94376697 -28.47337585 -11.50485622
v -43.81809870 -28.20503101 -11.34328784
v -44.42494648 -28.20503101 -9.22017443
v -44.43982688 -28.50034713 -9.51554121
v -44.44809708 -29.50023646 -10.51777303
v -44.39352867 -35.09167140 -11.10850659
v -44.30919947 -28.50034713 -10.51777303
v -44.23478854 -28.20503101 -10.26532187
v -43.91400617 -28.20503101 -11.16152229
f 1 2 6
f 1 6 3
f 1 3 4
f 1 4 12
f 1 12 27
f 1 27 46
f 1 46 45
f 1 45 44
f 1 44 43
f 1 43 61
f 1 61 60
f 1 60 76
f 1 76 89
f 1 89 98
f 1 98 108
f 1 108 99
f 1 99 90
f 1 90 77
f 1 77 67
f 1 67 66
f 1 66 62
f 1 62 47
f 1 47 28
f 1 28 13
f 1 13 5
f 1 5 2
f 2 5 6
f 3 7 8
f 3 8 9
f 3 9 4
f 3 6 7
f 4 9 8
f 4 8 10
f 4 10 11
f 4 11 22
f 4 22 21
f 4 21 20
f 4 20 36
f 4 36 55
f 4 55 71
f 4 71 57
f 4 57 40
f 4 40 39
f 4 39 38
f 4 38 25
f 4 25 12
f 5 13 6
f 6 13 14
f 6 14 15
f 6 15 7
f 7 16 17
f 7 17 18
f 7 18 8
f 7 15 19
f 7 19 16
f 8 18 10
f 10 20 21
f 10 21 22
f 10 22 11
f 10 18 23
f 10 23 24
f 10 24 20
f 12 25 26
f 12 26 27
f 13 28 14
f 14 29 15
f 14 28 30
f 14 30 31
f 14 31 29
f 15 29 32
f 15 32 33
f 15 33 19
f 16 19 17
f 17 19 33
f 17 33 34
f 17 34 35
f 17 35 23
f 17 23 18
f 20 24 37
f 20 37 36
f 23 35 34
f 23 34 54
f 23 54 53
f 23 53 65
f 23 65 64
f 23 64 63
f 23 63 70
f 23 70 84
f 23 84 96
f 23 96 95
f 23 95 104
f 23 104 111
f 23 111 110
f 23 110 105
f 23 105 97
f 23 97 88
f 23 88 75
f 23 75 59
f 23 59 42
f 23 42 26
f 23 26 41
f 23 41 58
f 23 58 74
f 23 74 87
f 23 87 86
f 23 86 85
f 23 85 72
f 23 72 56
f 23 56 37
f 23 37 24
f 25 38 26
f 26 38 39
f 26 39 40
f 26 40 41
f 26 42 43
f 26 43 44
f 26 44 45
f 26 45 46
f 26 46 27
f 28 47 48
f 28 48 30
f 29 31 49
f 29 49 32
f 30 48 50
f 30 50 51
f 30 51 31
f 31 51 52
f 31 52 49
f 32 49 53
f 32 53 54
f 32 54 33
f 33 54 34
f 36 37 55
f 37 56 55
f 40 57 58
f 40 58 41
f 42 59 60
f 42 60 61
f 42 61 43
f 47 62 48
f 48 62 50
f 49 52 63
f 49 63 64
f 49 64 65
f 49 65 53
f 50 62 66
f 50 66 67
f 50 67 68
f 50 68 51
f 51 68 52
f 52 69 70
f 52 70 63
f 52 68 69
f 55 56 72
f 55 72 71
f 57 71 73
f 57 73 58
f 58 73 71
f 58 71 74
f 59 75 76
f 59 76 60
f 67 77 68
f 68 77 78
f 68 78 79
f 68 79 80
f 68 80 81
f 68 81 82
f 68 82 83
f 68 83 69
f 69 83 70
f 70 83 82
f 70 82 84
f 71 72 85
f 71 85 86
f 71 86 87
f 71 87 74
f 75 88 89
f 75 89 76
f 77 90 91
f 77 91 78
f 78 91 92
f 78 92 93
f 78 93 79
f 79 93 80
f 80 94 95
f 80 95 96
f 80 96 84
f 80 84 81
f 80 93 94
f 81 84 82
f 88 97 107
f 88 107 98
f 88 98 89
f 90 99 100
f 90 100 91
f 91 100 92
f 92 101 93
f 92 100 102
f 92 102 101
f 93 101 94
f 94 101 102
f 94 102 103
f 94 103 104
f 94 104 95
f 97 105 106
f 97 106 107
f 98 107 108
f 99 108 100
f 100 108 107
f 100 107 102
f 102 107 106
f 102 106 109
f 102 109 103
f 103 109 110
f 103 110 111
f 103 111 104
f 105 110 109
f 105 109 106

