# https://github.com/mikedh/trimesh
v -38.84699123 -41.49848828 13.24037605
v -38.84480372 -42.49992735 13.24037605
v -38.76394651 -42.49992735 13.40629858
v -34.52652932 -41.49848828 21.93301915
v -38.84699123 -38.49949083 13.24037605
v -38.69838694 -43.15219417 13.24037605
v -38.69292116 -43.14864767 13.26505104
v -34.51013943 -42.49992735 21.93301915
v -34.52652932 -32.48908318 21.93301915
v -38.76394651 -29.50071926 13.40629858
v -38.84589747 -29.67973702 13.24037605
v -38.34763516 -43.29221832 13.24037605
v -29.05329117 -46.31425908 21.93301915
v -29.34503695 -46.16360139 21.93301915
v -29.58433327 -46.03952756 21.93301915
v -37.69311825 -43.14864767 15.26548239
v -35.69351243 -43.14864767 19.26464337
v -34.69261726 -43.14864767 21.26422385
v -34.25991601 -42.97671994 21.93301915
v -34.52543706 -31.48941736 21.93301915
v -34.52434480 -30.50038508 21.93301915
v -34.76364112 -29.50071926 21.41568099
v -38.69292116 -28.84845542 13.26505104
v -38.84480372 -29.50071926 13.24037605
v -38.10724508 -43.37197879 13.24037605
v -29.05329117 -46.31425908 13.24037605
v -28.29497060 -46.49327683 13.24037605
v -28.60201401 -46.42060638 21.93301915
v -34.07088162 -43.29398859 21.93301915
v -34.49921233 -29.50071926 21.93301915
v -34.69261726 -28.85022867 21.26422385
v -35.69351243 -28.85022867 19.26464337
v -37.69311825 -28.85022867 15.26548239
v -38.69838694 -28.84668217 13.24037605
v -38.70931254 -28.86972548 13.24037605
v -37.87996811 -28.74742489 14.48266863
v -38.10724508 -28.62335403 13.24037605
v -28.05239451 -46.54822373 13.24037605
v -28.05239451 -46.54822373 21.93301915
v -34.05777001 -28.74033487 21.93301915
v -34.88055789 -28.75096841 20.48226020
v -35.88036229 -28.74919814 18.48182811
v -37.05171593 -28.46914985 14.48266863
v -37.05171593 -28.44256005 13.48287764
v -37.05171593 -28.44433329 13.24037605
v -27.68525432 -46.54822373 13.24037605
v -27.68525432 -46.54822373 21.93301915
v -33.14647312 -28.78287498 21.93301915
v -34.05121345 -28.51168698 20.48226020
v -35.05210862 -28.47446662 18.48182811
v -36.05191302 -28.47092012 16.48309998
v -35.05210862 -28.44787979 13.24037605
v -35.80933693 -28.44610654 13.24037605
v -36.81023359 -28.44433329 13.24037605
v -35.05210862 -28.44787979 17.48288947
v -27.68525432 -35.07864472 13.24037605
v -27.68525432 -35.07864472 21.93301915
v -30.05309408 -29.45286238 21.93301915
v -30.05309408 -29.20826419 21.48205045
v -29.52532876 -28.98847957 15.01106874
v -34.05121345 -28.49219018 19.48161910
v -34.05121345 -28.48332989 14.48266863
v -34.80953402 -28.45674008 13.24037605
v -34.05121345 -28.48864666 18.48182811
v -29.26089997 -30.54115194 13.24037605
v -29.36579738 -29.73468392 13.80195977
v -28.90250087 -30.50038508 14.48266863
v -28.92653958 -30.50038508 20.48226020
v -28.93855893 -30.50038508 21.48205045
v -29.07514386 -30.48975154 21.93301915
v -29.36251910 -29.74709071 21.93301915
v -29.27073480 -29.62656337 21.48205045
v -29.52532876 -28.98847957 14.88854016
v -29.28384642 -29.44045559 14.52606407
v -34.05121345 -28.48864666 13.24037605
v -33.19127375 -28.77223847 13.24037605
v -30.05309408 -29.08773685 14.30568489
v -29.25980771 -30.00232542 21.93301915
v -33.82939928 -28.55777061 13.24037605
f 1 2 3
f 1 3 4
f 1 4 9
f 1 9 5
f 1 5 11
f 1 11 24
f 1 24 35
f 1 35 34
f 1 34 37
f 1 37 45
f 1 45 54
f 1 54 53
f 1 53 52
f 1 52 63
f 1 63 75
f 1 75 79
f 1 79 76
f 1 76 65
f 1 65 56
f 1 56 46
f 1 46 38
f 1 38 27
f 1 27 26
f 1 26 25
f 1 25 12
f 1 12 6
f 1 6 2
f 2 6 7
f 2 7 3
f 3 7 8
f 3 8 4
f 4 8 19
f 4 19 29
f 4 29 15
f 4 15 14
f 4 14 13
f 4 13 28
f 4 28 39
f 4 39 47
f 4 47 57
f 4 57 70
f 4 70 78
f 4 78 71
f 4 71 58
f 4 58 48
f 4 48 40
f 4 40 30
f 4 30 21
f 4 21 20
f 4 20 9
f 5 9 10
f 5 10 11
f 6 12 13
f 6 13 14
f 6 14 15
f 6 15 7
f 7 15 16
f 7 16 8
f 8 16 17
f 8 17 18
f 8 18 19
f 9 20 10
f 10 20 21
f 10 21 22
f 10 22 23
f 10 23 24
f 10 24 11
f 12 25 13
f 13 26 27
f 13 27 28
f 13 25 26
f 15 29 18
f 15 18 17
f 15 17 16
f 18 29 19
f 21 30 22
f 22 30 31
f 22 31 32
f 22 32 33
f 22 33 23
f 23 34 35
f 23 35 24
f 23 33 32
f 23 32 36
f 23 36 37
f 23 37 34
f 27 38 39
f 27 39 28
f 30 40 31
f 31 40 41
f 31 41 42
f 31 42 36
f 31 36 32
f 36 42 43
f 36 43 37
f 37 43 44
f 37 44 45
f 38 46 47
f 38 47 39
f 40 48 49
f 40 49 50
f 40 50 41
f 41 50 51
f 41 51 43
f 41 43 42
f 43 51 44
f 44 52 53
f 44 53 54
f 44 54 45
f 44 51 55
f 44 55 52
f 46 56 57
f 46 57 47
f 48 58 59
f 48 59 49
f 49 60 61
f 49 61 55
f 49 55 50
f 49 59 60
f 50 55 51
f 52 62 63
f 52 55 62
f 55 61 64
f 55 64 62
f 56 65 66
f 56 66 67
f 56 67 57
f 57 67 68
f 57 68 69
f 57 69 70
f 58 71 59
f 59 71 72
f 59 72 60
f 60 73 62
f 60 62 64
f 60 64 61
f 60 72 74
f 60 74 73
f 62 73 75
f 62 75 63
f 65 76 66
f 66 76 77
f 66 77 73
f 66 73 74
f 66 74 67
f 67 74 68
f 68 72 69
f 68 74 72
f 69 72 78
f 69 78 70
f 71 78 72
f 73 77 75
f 75 77 79
f 76 79 77

