# https://github.com/mikedh/trimesh
v -41.08674870 -13.50445982 13.24096465
v -35.82409812 -13.50445982 13.24096465
v -41.08674870 -13.50445982 19.23864812
v -41.08674870 2.29354359 13.24096465
v -35.82348716 -13.49982255 13.24096465
v -35.25937023 -13.49982255 13.73212354
v -35.43153639 -13.50445982 13.58294853
v -41.08064217 -13.50445982 19.26282243
v -41.08674870 -13.49982255 19.26400112
v -41.08674870 2.29354359 18.53581239
v -35.77281543 2.29354359 13.24096465
v -35.77586721 -12.56115802 13.24096465
v -34.91015626 -13.49982255 14.48271929
v -34.91076572 -13.50445982 14.48271929
v -35.25998118 -13.50445982 13.73271363
v -35.77281543 -12.49930215 13.24096465
v -35.24471782 -12.49930215 13.70794923
v -36.05243159 -13.50445982 18.97095745
v -36.05243159 2.29354359 18.52225224
v -36.25939665 2.29354359 18.52460962
v -37.05245653 2.29354359 18.53168474
v -35.69283740 2.29354359 13.31113021
v -34.85582031 -13.50445982 15.48272635
v -34.89489290 -12.49930215 14.48271929
v -34.89367099 -10.49980883 14.48271929
v -35.24471782 2.29354359 13.70794923
v -35.17206673 2.29354359 13.86773840
v -34.89306153 1.49869482 14.48271929
v -35.21297218 -13.50445982 18.52107206
v -35.25204477 2.29354359 18.24748496
v -34.85948304 -13.50445982 16.48214331
v -34.85459841 -12.49930215 15.48272635
v -34.85032472 -8.49876951 15.48272635
v -34.89306153 2.29354359 14.48271929
v -35.20320291 -13.50445982 18.51517564
v -34.90099794 2.29354359 17.48215037
v -34.87047123 -13.50445982 17.48215037
v -34.85826113 -12.49930215 16.48214331
v -34.85032472 -5.50030329 16.48214331
v -34.85032472 2.29354359 15.48272635
v -35.08232093 -13.50445982 18.14076215
v -34.86070345 2.29354359 16.68851233
v -34.87047123 -13.49982255 17.48215037
v -34.85032472 2.29354359 16.48214331
f 1 2 7
f 1 7 15
f 1 15 14
f 1 14 23
f 1 23 31
f 1 31 37
f 1 37 41
f 1 41 35
f 1 35 29
f 1 29 18
f 1 18 8
f 1 8 3
f 1 3 9
f 1 9 10
f 1 10 4
f 1 4 11
f 1 11 16
f 1 16 12
f 1 12 5
f 1 5 2
f 2 5 6
f 2 6 7
f 3 8 9
f 4 10 21
f 4 21 20
f 4 20 19
f 4 19 30
f 4 30 36
f 4 36 42
f 4 42 44
f 4 44 40
f 4 40 34
f 4 34 27
f 4 27 26
f 4 26 22
f 4 22 11
f 5 12 6
f 6 13 14
f 6 14 15
f 6 15 7
f 6 12 16
f 6 16 17
f 6 17 13
f 8 18 9
f 9 18 19
f 9 19 20
f 9 20 21
f 9 21 10
f 11 22 16
f 13 23 14
f 13 17 24
f 13 24 23
f 16 22 17
f 17 25 24
f 17 22 26
f 17 26 27
f 17 27 28
f 17 28 25
f 18 29 30
f 18 30 19
f 23 24 32
f 23 32 38
f 23 38 31
f 24 25 33
f 24 33 32
f 25 28 33
f 27 34 28
f 28 34 40
f 28 40 33
f 29 35 30
f 30 35 36
f 31 38 37
f 32 33 39
f 32 39 38
f 33 40 44
f 33 44 39
f 35 41 36
f 36 41 43
f 36 43 42
f 37 43 41
f 37 38 39
f 37 39 44
f 37 44 43
f 42 43 44

