# https://github.com/mikedh/trimesh
v -41.75336842 14.18347444 55.53227217
v -41.75336842 14.18347444 43.78660859
v -43.05255251 14.18347444 55.53112179
v -43.05255251 12.49921352 55.53112179
v -42.25898301 2.29470812 55.53112179
v -41.75336842 2.50073031 55.53112179
v -41.75336842 14.14040831 43.78660859
v -44.64818819 14.18347444 43.78660859
v -43.92292607 14.18347444 55.25633663
v -43.92320919 10.49951680 55.25633663
v -43.05255251 2.29470812 55.52997141
v -41.75336842 2.29470812 55.52882253
v -41.75336842 2.35639858 55.52997141
v -42.99246765 10.49951680 43.78660859
v -41.75336842 2.29470812 45.35484385
v -44.64818819 2.29470812 43.79810641
v -44.64818819 14.18347444 51.04026847
v -44.64818819 9.21798772 43.78660859
v -44.64847132 7.50113552 51.24722012
v -44.37072378 14.18347444 54.48141606
v -44.37100691 11.49936442 54.48141606
v -44.37185628 2.50073031 54.48141606
v -44.01645233 2.29470812 55.09537323
v -43.92377544 2.29470812 55.25518625
v -43.11688720 10.13985035 43.78660859
v -44.40841801 9.27735061 43.78660859
v -44.05216468 9.36581193 43.78660859
v -43.69987509 9.50432434 43.78660859
v -43.27673300 9.69405089 43.78660859
v -44.64818819 2.29470812 51.31620401
v -44.64818819 13.49906113 51.15754137
v -44.64818819 2.31449550 51.31620401
v -44.64818819 2.50073031 51.31505512
v -44.64818819 12.49921352 51.20238075
v -44.37185628 2.29470812 54.48141606
f 1 2 8
f 1 8 17
f 1 17 20
f 1 20 9
f 1 9 3
f 1 3 4
f 1 4 5
f 1 5 6
f 1 6 13
f 1 13 12
f 1 12 15
f 1 15 7
f 1 7 2
f 2 7 14
f 2 14 25
f 2 25 29
f 2 29 28
f 2 28 27
f 2 27 26
f 2 26 18
f 2 18 8
f 3 9 10
f 3 10 4
f 4 10 11
f 4 11 5
f 5 11 24
f 5 24 23
f 5 23 35
f 5 35 30
f 5 30 16
f 5 16 15
f 5 15 12
f 5 12 13
f 5 13 6
f 7 15 16
f 7 16 14
f 8 18 19
f 8 19 17
f 9 20 21
f 9 21 22
f 9 22 10
f 10 22 23
f 10 23 24
f 10 24 11
f 14 16 25
f 16 18 26
f 16 26 27
f 16 27 28
f 16 28 29
f 16 29 25
f 16 30 19
f 16 19 18
f 17 19 31
f 17 31 20
f 19 30 32
f 19 32 33
f 19 33 34
f 19 34 31
f 20 31 34
f 20 34 33
f 20 33 32
f 20 32 21
f 21 32 22
f 22 32 30
f 22 30 35
f 22 35 23

