# https://github.com/mikedh/trimesh
v -41.05224931 -13.50446131 55.62850151
v -42.05683552 -13.50446131 55.62624248
v -38.05194949 -13.50446131 55.62398345
v -38.05291211 2.29274115 55.53474578
v -42.25775217 2.29274115 55.53022622
v -43.05084482 2.29274115 55.52909671
v -43.05180745 -13.50446131 55.61833587
v -37.05409417 -13.50446131 55.47374747
v -37.05409417 2.29274115 55.40145253
v -37.26077910 2.29274115 55.42969339
v -43.92276811 2.29274115 55.25460510
v -43.95449289 -13.50446131 55.29640015
v -36.45230387 -13.50446131 55.15294275
v -36.45230387 2.29274115 55.12470189
v -44.37074762 2.29274115 54.48083491
v -44.40150978 -13.49827580 54.48083491
v -44.40150978 -13.50446131 54.48083491
v -34.91514371 -13.50446131 49.48464415
v -34.89495548 -12.49780681 49.48464415
v -34.89399435 -11.49888456 49.48464415
v -34.89399435 -5.92285567 49.48464415
v -34.89495548 2.29274115 49.48464415
v -44.66972051 2.29274115 51.25810549
v -44.66972051 1.49793262 51.26036452
v -44.61877013 -13.50446131 51.19710719
v -44.66972051 1.48865435 51.26036452
v -44.66972051 0.48663935 51.25810549
v -44.67068015 -5.92285567 51.21856947
v -44.67068015 -9.56907773 51.19258913
v -44.67068015 -12.58594626 51.16999733
v -44.67068015 -13.49827580 51.14627602
v -34.85746392 -13.50446131 48.48382348
v -34.85169564 -11.49888456 48.48382348
v -34.85073451 -10.49841557 48.48382348
v -34.85073451 2.29274115 48.48495449
v -44.66972051 2.29274115 44.08970615
v -44.67068015 -13.50446131 50.02120121
v -44.67068015 -5.92285567 45.74907899
v -34.86034731 -13.50446131 47.48300431
v -34.85361790 -10.49841557 47.48300431
v -34.85169564 -9.49949332 47.48300431
v -34.84977338 -7.50010208 47.48300431
v -34.85169564 2.29274115 47.48413383
v -44.23904434 2.29274115 44.08970615
v -44.67068015 -9.21033142 44.08857663
v -44.67068015 -13.50446131 44.08857663
v -34.89110947 -13.50446131 46.48444417
v -34.88726494 -11.49888456 46.48444417
v -34.88726494 -10.49841557 46.48444417
v -34.88630381 2.29274115 46.69115889
v -36.05335398 2.29274115 45.44295946
v -44.06216045 1.75771445 44.08970615
v -42.82493281 -10.49841557 44.08857663
v -43.18254811 -9.61237482 44.08857663
v -44.05158651 -9.25362852 44.08857663
v -41.90206211 -13.50446131 44.08857663
v -35.19488950 -13.50446131 45.46555125
v -34.89591661 2.29274115 46.48444417
v -43.99679161 1.49793262 44.08970615
v -35.24583988 2.29274115 45.71745107
v -35.75341996 -13.50446131 44.99676959
v -35.20738570 -13.50446131 45.43618087
f 1 2 7
f 1 7 12
f 1 12 17
f 1 17 25
f 1 25 37
f 1 37 46
f 1 46 56
f 1 56 61
f 1 61 62
f 1 62 57
f 1 57 47
f 1 47 39
f 1 39 32
f 1 32 18
f 1 18 13
f 1 13 8
f 1 8 3
f 1 3 4
f 1 4 5
f 1 5 6
f 1 6 2
f 2 6 7
f 3 8 9
f 3 9 10
f 3 10 4
f 4 10 9
f 4 9 14
f 4 14 22
f 4 22 35
f 4 35 43
f 4 43 50
f 4 50 58
f 4 58 60
f 4 60 51
f 4 51 44
f 4 44 36
f 4 36 23
f 4 23 15
f 4 15 11
f 4 11 6
f 4 6 5
f 6 11 7
f 7 11 12
f 8 13 14
f 8 14 9
f 11 15 12
f 12 16 17
f 12 15 16
f 13 18 19
f 13 19 20
f 13 20 21
f 13 21 22
f 13 22 14
f 15 23 16
f 16 23 24
f 16 24 26
f 16 26 17
f 17 26 27
f 17 27 28
f 17 28 29
f 17 29 30
f 17 30 31
f 17 31 25
f 18 32 19
f 19 33 20
f 19 32 33
f 20 33 34
f 20 34 35
f 20 35 21
f 21 35 22
f 23 36 38
f 23 38 28
f 23 28 24
f 24 28 26
f 25 31 37
f 26 28 27
f 28 38 45
f 28 45 46
f 28 46 37
f 28 37 31
f 28 31 30
f 28 30 29
f 32 39 33
f 33 40 41
f 33 41 42
f 33 42 34
f 33 39 40
f 34 42 35
f 35 42 43
f 36 44 45
f 36 45 38
f 39 47 40
f 40 47 41
f 41 47 48
f 41 48 42
f 42 48 49
f 42 49 43
f 43 49 50
f 44 51 52
f 44 52 53
f 44 53 54
f 44 54 55
f 44 55 45
f 45 55 54
f 45 54 53
f 45 53 56
f 45 56 46
f 47 57 48
f 48 57 49
f 49 57 58
f 49 58 50
f 51 59 52
f 51 60 61
f 51 61 59
f 52 59 56
f 52 56 53
f 56 59 61
f 57 62 58
f 58 62 60
f 60 62 61

