# https://github.com/mikedh/trimesh
v -30.28944145 43.55341804 48.66945740
v -30.28944145 43.55341804 38.08782202
v -32.04812372 43.54840227 48.66945740
v -30.28944145 36.53089307 48.66945740
v -32.04812372 43.54840227 38.08782202
v -30.28944145 36.14957881 38.08782202
v -32.04812372 37.84541950 48.66945740
v -31.05223686 36.35361578 48.66945740
v -30.28944145 36.35361578 48.66842176
v -32.04812372 36.18469810 38.08782202
v -30.28944145 30.73759974 38.23386850
v -31.07186182 36.14957881 38.08782202
v -32.04812372 36.35361578 48.66842176
v -32.04760665 36.35361578 48.66945740
v -30.28944145 30.50178732 48.31418160
v -32.04812372 31.49688143 38.21833171
v -30.28944145 30.50178732 38.24319073
v -32.04812372 30.50178732 48.31418160
v -32.04812372 29.78765942 48.14431172
v -30.28944145 29.80940035 48.14431172
v -31.05223686 30.50178732 38.25769189
v -32.04812372 30.49844348 38.27840762
v -30.28944145 29.85288520 38.53424732
v -32.04812372 27.67872605 46.28506831
v -30.28944145 27.68374479 46.28299554
v -30.28944145 29.65553890 38.62539758
v -31.05223686 29.67226407 38.63989874
v -32.04812372 29.68898626 38.66165010
v -32.04812372 27.17867260 45.70398927
v -30.28944145 27.18368836 45.66048654
v -30.28944145 27.98812683 39.97192520
v -32.04812372 27.89447242 39.87766804
v -32.04812372 26.86258413 45.20370187
v -30.28944145 26.92111627 45.16019914
v -30.28944145 27.53322718 40.48256972
v -32.04812372 27.33922472 40.51571533
v -32.04812372 26.60502780 44.48175677
v -30.28944145 26.68028809 44.48175677
v -30.28944145 27.16194743 40.93831725
v -30.28944145 27.04654910 41.08229247
v -32.04812372 26.79735834 41.41374563
v -32.04812372 26.46956046 43.48221910
v -30.28944145 26.49297629 43.48221910
v -30.28944145 26.83916829 41.58154348
v -30.28944145 26.57158043 42.48268069
v -32.04812372 26.79401450 41.42617477
v -32.04812372 26.52809856 42.48268069
f 1 2 5
f 1 5 3
f 1 3 7
f 1 7 14
f 1 14 8
f 1 8 4
f 1 4 9
f 1 9 15
f 1 15 20
f 1 20 25
f 1 25 30
f 1 30 34
f 1 34 38
f 1 38 43
f 1 43 45
f 1 45 44
f 1 44 40
f 1 40 39
f 1 39 35
f 1 35 31
f 1 31 26
f 1 26 23
f 1 23 17
f 1 17 11
f 1 11 6
f 1 6 2
f 2 6 12
f 2 12 10
f 2 10 5
f 3 5 10
f 3 10 16
f 3 16 22
f 3 22 28
f 3 28 32
f 3 32 36
f 3 36 41
f 3 41 46
f 3 46 47
f 3 47 42
f 3 42 37
f 3 37 33
f 3 33 29
f 3 29 24
f 3 24 19
f 3 19 18
f 3 18 13
f 3 13 7
f 4 8 9
f 6 11 12
f 7 13 14
f 8 14 18
f 8 18 15
f 8 15 9
f 10 12 11
f 10 11 16
f 11 17 16
f 13 18 14
f 15 18 19
f 15 19 20
f 16 17 21
f 16 21 22
f 17 23 21
f 19 24 25
f 19 25 20
f 21 23 22
f 22 23 26
f 22 26 27
f 22 27 28
f 24 29 25
f 25 29 30
f 26 28 27
f 26 31 32
f 26 32 28
f 29 33 30
f 30 33 34
f 31 35 32
f 32 35 36
f 33 37 34
f 34 37 38
f 35 39 36
f 36 39 40
f 36 40 41
f 37 42 43
f 37 43 38
f 40 44 41
f 41 44 45
f 41 45 46
f 42 47 43
f 43 47 45
f 45 47 46

