# https://github.com/mikedh/trimesh
v -4.06229244 8.33878293 -10.55982438
v -4.06229244 8.33878293 10.55801842
v -4.06229244 5.50008614 -10.55775608
v -24.05168976 -2.53082970 -10.54948886
v -24.05168976 8.33878293 -10.54948886
v -4.06229244 5.48944627 10.55801842
v -24.05168976 8.33878293 10.54974971
v -4.06229244 -1.49983362 -10.54948886
v -5.05405761 -2.53082970 -10.54948886
v -25.01958312 -2.53082970 -10.37998407
v -24.88937294 8.33878293 -10.40272041
v -24.05168976 -2.53082970 10.54974971
v -5.05405761 -2.53082970 10.54974971
v -4.06229244 -1.50940954 10.54974971
v -25.05213641 8.33878293 10.36990791
v -4.06229244 -2.52976575 -10.54328696
v -5.02150581 -2.53082970 -10.54742057
v -25.05213641 -2.53082970 -10.37378217
v -25.05213641 8.33878293 -10.37378217
v -25.05213641 -2.53082970 10.36990791
v -4.06229244 -2.53082970 10.54148100
v -25.14545256 8.33878293 10.32443225
v -25.06949786 -2.53082970 10.36164069
v -4.06229244 -2.53082970 -10.10298756
v -25.62288888 -2.53082970 -10.10918946
v -25.62288888 8.33878293 -10.10918946
v -25.62940073 -2.53082970 10.08671248
v -25.62940073 8.33878293 10.08671248
v -25.71837614 -2.53082970 -9.53452542
v -25.70535542 8.33878293 -9.61307591
v -25.63373997 -2.53082970 10.06810677
v -25.64676069 8.33878293 9.98955627
v -25.72054725 8.33878293 -9.51592268
v -25.72054725 -2.53082970 -9.51592268
v -25.72922724 -2.53082970 9.48104189
v -25.72922724 8.33878293 9.48104189
v -26.23270648 -0.49969319 -4.92481518
v -26.23270648 0.50044742 -4.92068158
v -26.23270648 1.50058793 -4.77184781
v -26.23270648 2.45497730 -4.42870461
v -26.23270648 3.50512504 -3.51089736
v -26.23270648 4.38716368 -2.36363756
v -25.74441907 8.33878293 -8.67873125
v -26.23270648 -2.53082970 -4.30261016
v -26.23270648 -2.41592014 -4.41216719
v -26.23270648 -2.38080868 -4.42457100
v -26.23270648 -0.65397039 -4.90414416
v -26.23270648 -0.49969319 5.01189821
v -26.23270648 -2.39038460 4.36281728
v -26.23270648 -2.43826346 4.32974244
v -26.23270648 -2.52976575 4.18090868
v -26.15240956 -2.53082970 4.30907142
v -25.74875980 8.33878293 8.48054756
v -26.23270648 4.87978624 0.61717141
v -26.23270648 4.69358980 1.48123280
v -26.23270648 4.39354775 2.44658400
v -26.23270648 4.04669042 2.98197131
v -26.23270648 2.96568738 4.03207491
v -26.23270648 2.40284245 4.36901918
v -26.23270648 2.35070742 4.38762191
v -26.23270648 0.72494698 4.94574854
v -26.23270648 0.50044742 4.99536079
v -26.23270648 -0.19113917 5.00776162
v -26.23270648 4.62655910 -1.51611359
v -25.74875980 8.33878293 -8.51749665
v -26.23270648 -2.53082970 -2.10111017
v -26.23270648 4.89468191 0.48073847
v -26.23270648 4.88085019 -0.51768756
f 1 2 6
f 1 6 14
f 1 14 21
f 1 21 24
f 1 24 16
f 1 16 8
f 1 8 3
f 1 3 4
f 1 4 5
f 1 5 11
f 1 11 19
f 1 19 26
f 1 26 30
f 1 30 33
f 1 33 43
f 1 43 65
f 1 65 53
f 1 53 36
f 1 36 32
f 1 32 28
f 1 28 22
f 1 22 15
f 1 15 7
f 1 7 2
f 2 7 12
f 2 12 6
f 3 8 9
f 3 9 4
f 4 10 5
f 4 9 17
f 4 17 24
f 4 24 21
f 4 21 13
f 4 13 12
f 4 12 20
f 4 20 23
f 4 23 27
f 4 27 31
f 4 31 35
f 4 35 52
f 4 52 66
f 4 66 44
f 4 44 34
f 4 34 29
f 4 29 25
f 4 25 18
f 4 18 10
f 5 10 11
f 6 12 13
f 6 13 14
f 7 15 20
f 7 20 12
f 8 16 9
f 9 16 17
f 10 18 19
f 10 19 11
f 13 21 14
f 15 22 23
f 15 23 20
f 16 24 17
f 18 25 26
f 18 26 19
f 22 27 23
f 22 28 27
f 25 29 30
f 25 30 26
f 27 28 31
f 28 32 31
f 29 33 30
f 29 34 33
f 31 32 35
f 32 36 35
f 33 34 37
f 33 37 38
f 33 38 39
f 33 39 40
f 33 40 41
f 33 41 42
f 33 42 43
f 34 44 45
f 34 45 46
f 34 46 47
f 34 47 37
f 35 36 48
f 35 48 49
f 35 49 50
f 35 50 51
f 35 51 52
f 36 53 54
f 36 54 55
f 36 55 56
f 36 56 57
f 36 57 58
f 36 58 59
f 36 59 60
f 36 60 61
f 36 61 62
f 36 62 63
f 36 63 48
f 37 47 46
f 37 46 45
f 37 45 44
f 37 44 66
f 37 66 51
f 37 51 50
f 37 50 49
f 37 49 48
f 37 48 63
f 37 63 62
f 37 62 61
f 37 61 60
f 37 60 59
f 37 59 58
f 37 58 57
f 37 57 56
f 37 56 55
f 37 55 54
f 37 54 67
f 37 67 68
f 37 68 64
f 37 64 42
f 37 42 41
f 37 41 40
f 37 40 39
f 37 39 38
f 42 64 65
f 42 65 43
f 51 66 52
f 53 65 67
f 53 67 54
f 64 68 65
f 65 68 67

