# https://github.com/mikedh/trimesh
v -53.05151442 -4.48985381 35.80954963
v -53.68339334 -3.70121551 36.74309223
v -53.73788426 -2.23138947 37.67825571
v -53.22740887 -2.23138947 37.44081795
v -53.05151442 -2.23138947 37.40273070
v -52.32021430 -2.23138947 37.48862975
v -52.04681496 -2.23138947 37.52347560
v -52.48559443 -4.48985381 35.89625893
v -53.77803421 -4.48985381 36.35978865
v -53.79141554 -2.23138947 37.86058826
v -52.05159528 -4.48985381 35.96351949
v -47.11030821 -2.23138947 38.35734257
v -53.78950520 -4.48985381 36.40435906
v -53.93672069 -2.23138947 38.48294974
v -51.64244845 -4.48985381 36.05265956
v -46.28628054 -2.23138947 38.72524942
v -46.85984786 -4.48985381 37.13044746
v -47.05295029 -4.48985381 37.06723893
v -53.91282205 -4.48985381 37.24795059
v -53.94819168 -4.48985381 37.49268140
v -53.94819168 -2.50001725 38.48294974
v -53.93863103 -2.23138947 38.75118133
v -46.26429523 -4.48985381 37.52914776
v -45.93544830 -2.23138947 39.48294264
v -53.94914834 -4.48985381 39.48294264
v -53.94914834 -2.50001725 39.48294264
v -53.94914834 -2.23138947 43.75033372
v -44.18415407 -2.23138947 44.08744637
v -45.91824330 -4.48985381 38.48213911
v -53.94914834 -4.48985381 39.49266646
v -53.94914834 -2.23138947 44.08744637
v -44.21187637 -2.36758269 44.08744637
v -45.85037105 -4.48985381 39.48294264
v -53.94914834 -3.49979967 44.08744637
v -53.87075878 -4.48985381 44.08744637
v -45.99471656 -4.48985381 44.08744637
f 1 2 3
f 1 3 4
f 1 4 5
f 1 5 6
f 1 6 7
f 1 7 8
f 1 8 11
f 1 11 15
f 1 15 18
f 1 18 17
f 1 17 23
f 1 23 29
f 1 29 33
f 1 33 36
f 1 36 35
f 1 35 30
f 1 30 25
f 1 25 20
f 1 20 19
f 1 19 13
f 1 13 9
f 1 9 2
f 2 9 3
f 3 9 10
f 3 10 14
f 3 14 22
f 3 22 27
f 3 27 31
f 3 31 28
f 3 28 24
f 3 24 16
f 3 16 12
f 3 12 7
f 3 7 6
f 3 6 5
f 3 5 4
f 7 11 8
f 7 12 11
f 9 13 10
f 10 13 14
f 11 12 15
f 12 16 17
f 12 17 18
f 12 18 15
f 13 19 14
f 14 19 20
f 14 20 21
f 14 21 22
f 16 23 17
f 16 24 23
f 20 25 26
f 20 26 21
f 21 26 27
f 21 27 22
f 23 24 28
f 23 28 29
f 25 30 34
f 25 34 31
f 25 31 27
f 25 27 26
f 28 32 29
f 28 31 34
f 28 34 35
f 28 35 36
f 28 36 32
f 29 32 33
f 30 35 34
f 32 36 33

