# https://github.com/mikedh/trimesh
v -34.77395429 43.54084734 13.24037605
v -34.81055327 43.54215567 13.24037605
v -34.77395429 36.89475796 13.24037605
v -34.77395429 43.54869732 12.20303687
v -35.05266742 43.54804166 13.24037605
v -35.05266742 36.87186963 13.24037605
v -34.77395429 36.87841128 12.48197800
v -34.77395429 43.54934999 11.48136744
v -36.11544007 43.38128466 13.24037605
v -36.05279965 43.54934999 11.48136744
v -36.05279965 43.53169200 12.48197800
v -36.04505695 36.90587728 13.24037605
v -35.05266742 36.86925595 12.48197800
v -34.77395429 36.90129961 11.45456604
v -34.77395429 43.54934999 3.09927700
v -36.72283771 43.16613433 13.24037605
v -36.90864746 43.25703499 12.48197800
v -37.05293039 43.54934999 9.48213415
v -37.05293039 43.53169200 10.48175080
v -36.57433177 36.98238630 13.24037605
v -36.02535004 36.93726529 12.57231092
v -35.07589401 36.91895462 11.44265397
v -34.77395429 36.96211463 10.96220313
v -34.77395429 38.40472929 3.09927700
v -40.05191890 43.54934999 3.09927700
v -36.74676764 43.11447465 13.24037605
v -41.70871531 43.15959566 3.29582459
v -39.70845383 43.15959566 7.29627900
v -37.70889272 43.15959566 11.29474557
v -40.90776671 43.25703499 4.48305553
v -38.05235778 43.54934999 7.48289938
v -40.05191890 43.53169200 4.48305553
v -36.55814304 36.99611930 12.96540611
v -36.65104792 37.26424062 13.24037605
v -41.70871531 38.84091297 3.29582459
v -41.74249944 38.76832298 3.09927700
v -41.43140885 38.61202964 3.09927700
v -41.10272583 38.48908830 3.09927700
v -35.67343894 36.95099829 11.75038135
v -40.44183416 38.36679963 3.09927700
v -40.06669797 38.35437496 3.09927700
v -39.41566199 38.35437496 3.09927700
v -36.43567854 38.36745230 3.09927700
v -35.43554780 38.37464663 3.09927700
v -41.10342917 43.40940632 3.09927700
v -40.05191890 43.54934999 3.48244795
v -36.89245873 42.49976198 13.24037605
v -37.78772038 42.49976198 11.45158728
v -41.75657517 43.18313965 3.09927700
v -41.84314552 43.00068566 3.09927700
v -41.96138700 42.49976198 3.09927700
v -41.78683962 42.49976198 3.45266630
v -36.90442444 38.48058564 13.24037605
v -41.96279666 39.50074665 3.09927700
v -36.95509915 39.56025631 13.24037605
v -41.96279666 42.13616532 3.09927700
v -41.96350000 40.49998331 3.09927700
f 1 2 5
f 1 5 9
f 1 9 16
f 1 16 26
f 1 26 47
f 1 47 55
f 1 55 53
f 1 53 34
f 1 34 20
f 1 20 12
f 1 12 6
f 1 6 3
f 1 3 7
f 1 7 14
f 1 14 23
f 1 23 24
f 1 24 15
f 1 15 8
f 1 8 4
f 1 4 2
f 2 4 5
f 3 6 7
f 4 8 5
f 5 8 10
f 5 10 11
f 5 11 9
f 6 12 13
f 6 13 7
f 7 13 14
f 8 15 25
f 8 25 46
f 8 46 31
f 8 31 18
f 8 18 10
f 9 11 17
f 9 17 16
f 10 18 11
f 11 18 19
f 11 19 17
f 12 20 21
f 12 21 22
f 12 22 13
f 13 22 14
f 14 22 23
f 15 24 44
f 15 44 43
f 15 43 42
f 15 42 41
f 15 41 40
f 15 40 38
f 15 38 37
f 15 37 36
f 15 36 54
f 15 54 57
f 15 57 56
f 15 56 51
f 15 51 50
f 15 50 49
f 15 49 45
f 15 45 25
f 16 17 27
f 16 27 28
f 16 28 29
f 16 29 26
f 17 19 30
f 17 30 27
f 18 31 32
f 18 32 19
f 19 32 30
f 20 33 21
f 20 34 35
f 20 35 36
f 20 36 37
f 20 37 38
f 20 38 33
f 21 39 22
f 21 33 40
f 21 40 39
f 22 39 40
f 22 40 23
f 23 40 41
f 23 41 42
f 23 42 43
f 23 43 44
f 23 44 24
f 25 45 46
f 26 29 28
f 26 28 48
f 26 48 47
f 27 49 50
f 27 50 51
f 27 51 52
f 27 52 48
f 27 48 28
f 27 30 49
f 30 32 45
f 30 45 49
f 31 46 32
f 32 46 45
f 33 38 40
f 34 53 54
f 34 54 35
f 35 54 36
f 47 48 55
f 48 52 55
f 51 56 52
f 52 56 55
f 53 55 54
f 54 55 57
f 55 56 57

