# https://github.com/mikedh/trimesh
v -53.79151091 -9.13591156 20.29039458
v -53.74530211 -9.45238076 20.29039458
v -53.77071769 -9.53106983 20.45089827
v -53.83078765 -9.13591156 20.46317244
v -45.68300012 -9.13591156 20.29039458
v -53.05216709 -10.03741981 20.29039458
v -53.67136802 -10.21746426 20.76246421
v -53.77533708 -10.53051213 21.45074067
v -53.93360335 -9.50027862 21.48284170
v -53.93822572 -9.13591156 21.48284170
v -45.31679573 -9.13591156 23.53539765
v -45.52473683 -9.15558420 20.29039458
v -47.31648798 -13.50446131 20.29039458
v -53.67483406 -11.21690656 21.76325060
v -53.77880312 -11.52952602 22.45152706
v -53.93706938 -10.50014784 22.48268336
v -53.94515480 -9.50027862 22.48268336
v -53.94515480 -9.13591156 22.48268336
v -45.27520632 -9.13591156 24.44743513
v -44.05298127 -9.46606533 20.29039458
v -42.63667925 -13.50446131 20.29039458
v -53.05216709 -13.50446131 24.53524005
v -53.62284953 -13.06953084 23.85073957
v -53.67830009 -12.19325489 22.76403699
v -53.74761180 -12.51571067 23.50424136
v -53.89663631 -12.49988702 24.48236815
v -53.93706938 -11.49959014 23.48252575
v -53.94631114 -12.49988702 26.48205295
v -53.94631114 -9.13591156 22.84712120
v -53.94284511 -12.49988702 25.48221055
v -45.85281784 -9.13591156 29.93571089
v -43.33443365 -9.75217023 20.29039458
v -43.83002268 -9.55245314 20.29039458
v -42.15032900 -13.50317832 20.29039458
v -42.26931853 -13.50446131 20.48394330
v -53.41144239 -13.50446131 24.80337553
v -53.75685356 -13.50446131 25.39251764
v -53.70255934 -13.21536200 24.48236815
v -53.91165379 -13.50446131 26.48205295
v -53.91281013 -13.49975699 26.48205295
v -53.94746748 -12.49988702 28.48173811
v -53.94977717 -10.50014784 28.48173811
v -53.94746748 -11.49959014 26.48205295
v -53.94284511 -13.49975699 27.48189534
v -53.94515480 -13.50446131 29.48158051
v -53.95093351 -9.50027862 29.48158051
v -53.94977717 -9.13591156 29.84601761
v -45.85166448 -9.50027862 29.93571089
v -44.23897282 -13.50446131 28.27874833
v -43.81038580 -13.50446131 27.49794586
v -43.79652167 -13.50446131 27.44696232
v -43.05371481 -10.50014784 20.29039458
v -43.13458096 -10.27220552 20.29039458
v -53.94977717 -9.13591156 29.93571089
v -53.94168877 -13.50446131 27.48189534
v -53.94746748 -12.49988702 29.48158051
v -53.94977717 -10.04682846 29.93571089
v -53.87584309 -13.50446131 29.93571089
v -53.87815279 -13.47452469 29.93571089
v -45.87361404 -13.50189532 29.93571089
v -45.74307305 -13.50446131 29.48252451
v -48.19214553 -13.50446131 29.93571089
f 1 2 3
f 1 3 4
f 1 4 10
f 1 10 18
f 1 18 29
f 1 29 47
f 1 47 54
f 1 54 31
f 1 31 19
f 1 19 11
f 1 11 5
f 1 5 12
f 1 12 20
f 1 20 33
f 1 33 32
f 1 32 53
f 1 53 52
f 1 52 34
f 1 34 21
f 1 21 13
f 1 13 6
f 1 6 2
f 2 6 7
f 2 7 3
f 3 8 9
f 3 9 4
f 3 7 8
f 4 9 10
f 5 11 12
f 6 13 7
f 7 14 8
f 7 13 14
f 8 14 15
f 8 15 16
f 8 16 9
f 9 16 10
f 10 16 17
f 10 17 18
f 11 19 20
f 11 20 12
f 13 21 35
f 13 35 51
f 13 51 50
f 13 50 49
f 13 49 61
f 13 61 62
f 13 62 58
f 13 58 45
f 13 45 55
f 13 55 39
f 13 39 37
f 13 37 36
f 13 36 22
f 13 22 23
f 13 23 24
f 13 24 14
f 14 24 15
f 15 24 25
f 15 25 26
f 15 26 27
f 15 27 16
f 16 27 17
f 17 28 29
f 17 29 18
f 17 27 30
f 17 30 28
f 19 31 32
f 19 32 33
f 19 33 20
f 21 34 35
f 22 36 23
f 23 36 37
f 23 37 38
f 23 38 25
f 23 25 24
f 25 38 26
f 26 39 40
f 26 40 27
f 26 38 37
f 26 37 39
f 27 40 30
f 28 41 42
f 28 42 43
f 28 43 29
f 28 30 44
f 28 44 45
f 28 45 41
f 29 43 42
f 29 42 46
f 29 46 47
f 30 40 44
f 31 48 49
f 31 49 50
f 31 50 51
f 31 51 52
f 31 52 53
f 31 53 32
f 31 54 57
f 31 57 59
f 31 59 58
f 31 58 62
f 31 62 60
f 31 60 48
f 34 51 35
f 34 52 51
f 39 55 44
f 39 44 40
f 41 45 56
f 41 56 46
f 41 46 42
f 44 55 45
f 45 57 56
f 45 58 59
f 45 59 57
f 46 56 57
f 46 57 54
f 46 54 47
f 48 60 49
f 49 60 61
f 60 62 61

