# https://github.com/mikedh/trimesh
v -53.94941954 8.50038857 30.48263736
v -53.94941954 8.50038857 31.48234844
v -53.94941954 10.50063812 29.45304516
v -53.94855527 7.50092466 30.48263736
v -53.94855527 7.50092466 32.41678530
v -53.94855527 8.50038857 32.41678530
v -53.94941954 9.50117422 30.48263736
v -53.94941954 10.50063812 29.48263627
v -53.94596543 12.47048091 29.45304516
v -53.94164705 6.47105400 29.45304516
v -53.94423987 6.50013902 29.48263627
v -53.91660697 6.50013902 30.48263736
v -53.94251132 7.43482268 32.41678530
v -53.94423987 9.50117422 32.41678530
v -53.91488141 14.49981623 32.41678530
v -53.93819294 13.49902984 29.48263627
v -53.93819294 13.46994556 29.45304516
v -53.73269266 5.56016689 29.45304516
v -53.85443892 6.50013902 32.41678530
v -53.73096710 15.14100695 32.41678530
v -53.90624762 14.49981623 31.48234844
v -53.88811577 14.49981623 30.48263736
v -53.86566553 14.47073047 29.45304516
v -53.93733164 13.49902984 29.45304516
v -53.72405887 5.53108187 29.45304516
v -53.65584687 5.90654217 32.41678530
v -53.71801492 15.18463336 32.41678530
v -53.70938113 15.16480277 31.48234844
v -53.86393699 14.49981623 29.48263627
v -53.69470041 15.14232869 30.48263736
v -53.86048287 14.50113797 29.45304516
v -53.04107162 5.27857186 29.45304516
v -53.05229525 5.88538947 32.41678530
v -45.13188006 18.77794515 32.41678530
v -45.12928724 18.78323212 31.48234844
v -45.12928724 18.77926540 30.48263736
v -45.12928724 18.76736824 29.48263627
v -53.67570727 15.11720964 29.48263627
v -45.13015151 18.76604501 29.45304516
v -53.67743284 15.10134576 29.45304516
v -52.99617115 5.28386031 29.45304516
v -52.41075435 5.98057647 32.41678530
v -45.12928724 16.92576344 32.41678530
v -45.12928724 18.78191038 31.54849299
v -45.12928724 16.49874404 29.45304516
v -53.67311445 15.11456615 29.45304516
v -52.08782322 5.42664044 29.45304516
v -47.05305161 6.80420888 32.41678530
v -45.12928724 15.40805836 32.41678530
v -45.12928724 14.18252523 29.45304516
v -47.96399236 6.16566239 29.45304516
v -47.05305161 6.32959560 29.45304516
v -46.48404110 6.93112439 32.41678530
v -45.85631367 8.50038857 32.41678530
v -45.92970535 7.50092466 29.45304516
v -46.31566583 6.68919054 29.45304516
v -46.44432031 6.94037881 32.41678530
v -46.09721338 7.50092466 32.41678530
v -45.93056963 7.50092466 29.48263627
v -46.27508672 6.71430959 29.45304516
f 1 2 7
f 1 7 8
f 1 8 3
f 1 3 4
f 1 4 5
f 1 5 2
f 2 5 6
f 2 6 7
f 3 8 9
f 3 9 17
f 3 17 24
f 3 24 23
f 3 23 31
f 3 31 40
f 3 40 46
f 3 46 39
f 3 39 45
f 3 45 50
f 3 50 55
f 3 55 60
f 3 60 56
f 3 56 52
f 3 52 51
f 3 51 47
f 3 47 41
f 3 41 32
f 3 32 25
f 3 25 18
f 3 18 10
f 3 10 11
f 3 11 4
f 4 11 5
f 5 11 12
f 5 12 13
f 5 13 19
f 5 19 26
f 5 26 33
f 5 33 42
f 5 42 48
f 5 48 53
f 5 53 57
f 5 57 58
f 5 58 54
f 5 54 49
f 5 49 43
f 5 43 34
f 5 34 27
f 5 27 20
f 5 20 15
f 5 15 14
f 5 14 6
f 6 14 9
f 6 9 8
f 6 8 7
f 9 14 15
f 9 15 16
f 9 16 17
f 10 18 12
f 10 12 11
f 12 18 19
f 12 19 13
f 15 20 21
f 15 21 16
f 16 21 22
f 16 22 23
f 16 23 24
f 16 24 17
f 18 25 19
f 19 25 26
f 20 27 28
f 20 28 21
f 21 28 22
f 22 29 23
f 22 28 30
f 22 30 29
f 23 29 31
f 25 32 26
f 26 32 33
f 27 34 35
f 27 35 36
f 27 36 37
f 27 37 28
f 28 37 30
f 29 30 38
f 29 38 31
f 30 37 39
f 30 39 38
f 31 38 40
f 32 41 33
f 33 41 42
f 34 43 44
f 34 44 35
f 35 44 43
f 35 43 49
f 35 49 50
f 35 50 45
f 35 45 37
f 35 37 36
f 37 45 39
f 38 46 40
f 38 39 46
f 41 47 48
f 41 48 42
f 47 51 48
f 48 52 53
f 48 51 52
f 49 54 50
f 50 54 55
f 52 56 57
f 52 57 53
f 54 58 59
f 54 59 55
f 55 59 60
f 56 60 57
f 57 60 58
f 58 60 59

