# https://github.com/mikedh/trimesh
v -44.39502475 19.49980979 48.47730418
v -36.34791907 19.50141019 48.47730418
v -36.34791907 19.49980979 48.48467584
v -44.43705524 19.49980979 48.48467584
v -44.43784799 19.50141019 48.47730418
v -36.34791907 19.50620839 48.47730418
v -36.35109155 19.49980979 55.48332153
v -36.34791907 19.50141019 48.48467584
v -36.34950456 35.83495365 64.47982513
v -36.35029880 35.83495365 71.48092805
v -44.44577844 19.49980979 53.48300642
v -44.44815966 19.50141019 54.48562268
v -44.44815966 22.50138367 52.48530756
v -44.43943647 21.49552936 48.47730418
v -36.35109155 22.50138367 48.47730418
v -36.35029880 35.83495365 63.47966757
v -36.35109155 24.50029956 60.48410933
v -36.40422645 35.83495365 72.47371544
v -36.43198303 19.50940620 56.47365022
v -36.43277578 19.49980979 56.47119301
v -36.35109155 35.49913591 71.48092805
v -44.44736691 19.49980979 54.48562268
v -44.44815966 25.49975676 60.48410933
v -44.44895241 25.82757848 60.48410933
v -44.44895241 25.82757848 54.81245496
v -44.40612619 19.49980979 55.48332153
v -44.40850741 20.50086739 56.48347909
v -44.41009291 28.49973174 64.47982513
v -44.41009291 35.83495365 71.81758919
v -44.44815966 23.50084236 52.48530756
v -44.43943647 21.50192498 48.47730418
v -36.45260190 23.17461805 48.47730418
v -36.43832798 35.83495365 62.59009225
v -36.48353095 35.83495365 73.10526355
v -36.43198303 35.50872934 72.47125673
v -36.43198303 23.51043579 60.47428046
v -36.48591068 19.84842175 57.13468792
v -36.78647800 19.49980979 56.95529764
v -44.44815966 30.50024653 65.47998269
v -44.44815966 33.49862111 67.48029781
v -44.44895241 33.49862111 65.47998269
v -44.44974516 34.49967871 63.47966757
v -44.02387613 19.49980979 56.58423246
v -44.02546163 20.44969646 57.53524269
v -44.16503873 25.82757848 62.51636977
v -44.03022109 33.44904761 70.53237652
v -44.40930016 25.82757848 61.81109917
v -44.17059094 35.83495365 72.51303092
v -44.42278282 35.83495365 71.48092805
v -44.38630156 22.50138367 48.47730418
v -44.44895241 35.83495365 64.81648926
v -44.43309151 35.83495365 64.47982513
v -37.05373654 23.50563908 48.47730418
v -37.05294231 35.83495365 62.15021903
v -36.49701361 35.83495365 73.12246557
v -36.48591068 34.84828769 72.12967817
v -36.53349338 35.83495365 73.14458201
v -37.05373654 19.49980979 57.10274261
v -44.44736691 35.83495365 70.81743462
v -44.44895241 35.83495365 66.81926011
v -43.98501663 19.49980979 56.65303902
v -43.79706110 19.74927474 57.23544129
v -43.79706110 20.74873343 58.23559885
v -43.79785683 22.74924971 60.23591397
v -43.80102781 31.74757126 69.23241757
v -44.03022109 35.83495365 72.91850012
v -43.94377889 23.28176108 48.47730418
v -44.40136971 35.83495365 63.81878743
v -44.27765350 35.83495365 63.46000983
v -44.01356446 35.83495365 62.71050634
v -38.05298364 23.65595701 48.47730418
v -37.91657752 35.83495365 61.99294816
v -37.06404672 35.83495365 62.14776330
v -37.05294231 35.83495365 73.42226696
v -37.05294231 34.69477194 72.28449330
v -37.38206044 19.49980979 57.15680437
v -43.05159287 19.49980979 57.25018460
v -43.05159287 32.11856789 69.86150697
v -43.62496945 35.83495365 73.37803407
v -43.80102781 34.74754326 72.23043154
v -43.83037137 35.83495365 73.26745183
v -43.93664119 23.28655780 48.47730418
v -43.92315853 35.83495365 62.54585936
v -43.78754516 35.25606956 61.72263338
v -40.05306033 23.63356936 48.47730418
v -42.05155452 35.83495365 61.98557502
v -39.05302198 35.83495365 61.97574615
v -38.05377638 35.83495365 61.97328744
v -38.05377638 35.83495365 73.58199653
v -38.05298364 19.49980979 57.26247218
v -42.05155452 19.49980979 57.26247218
v -43.05159287 35.83495365 73.57462637
v -43.80102781 35.74860085 73.23058910
v -43.05159287 23.58399585 48.47730418
v -43.05159287 35.83495365 62.01506461
v -41.05151319 23.62237553 48.47730418
v -42.05155452 23.60798390 48.47730418
v -42.05155452 35.83495365 73.57953782
v -38.27424348 19.49980979 57.26493088
v -42.61779339 35.83495365 73.57708210
f 1 2 3
f 1 3 7
f 1 7 20
f 1 20 38
f 1 38 58
f 1 58 76
f 1 76 90
f 1 90 99
f 1 99 91
f 1 91 77
f 1 77 61
f 1 61 43
f 1 43 26
f 1 26 22
f 1 22 11
f 1 11 4
f 1 4 5
f 1 5 14
f 1 14 31
f 1 31 50
f 1 50 67
f 1 67 82
f 1 82 94
f 1 94 97
f 1 97 96
f 1 96 85
f 1 85 71
f 1 71 53
f 1 53 32
f 1 32 15
f 1 15 6
f 1 6 2
f 2 6 8
f 2 8 3
f 3 8 9
f 3 9 10
f 3 10 7
f 4 11 5
f 5 11 12
f 5 12 13
f 5 13 14
f 6 15 16
f 6 16 9
f 6 9 8
f 7 17 18
f 7 18 19
f 7 19 20
f 7 10 17
f 9 16 33
f 9 33 54
f 9 54 73
f 9 73 72
f 9 72 88
f 9 88 87
f 9 87 86
f 9 86 95
f 9 95 83
f 9 83 70
f 9 70 69
f 9 69 68
f 9 68 52
f 9 52 51
f 9 51 60
f 9 60 59
f 9 59 49
f 9 49 29
f 9 29 48
f 9 48 66
f 9 66 81
f 9 81 79
f 9 79 92
f 9 92 100
f 9 100 98
f 9 98 89
f 9 89 74
f 9 74 57
f 9 57 55
f 9 55 34
f 9 34 18
f 9 18 10
f 10 18 21
f 10 21 17
f 11 22 12
f 12 23 24
f 12 24 25
f 12 25 13
f 12 22 26
f 12 26 27
f 12 27 28
f 12 28 29
f 12 29 23
f 13 30 31
f 13 31 14
f 13 25 30
f 15 32 33
f 15 33 16
f 17 21 18
f 18 34 35
f 18 35 36
f 18 36 19
f 19 36 20
f 20 36 35
f 20 35 34
f 20 34 37
f 20 37 38
f 23 29 39
f 23 39 24
f 24 39 40
f 24 40 41
f 24 41 42
f 24 42 25
f 25 31 30
f 25 42 31
f 26 43 44
f 26 44 27
f 27 44 45
f 27 45 46
f 27 46 47
f 27 47 28
f 28 47 29
f 29 49 39
f 29 47 48
f 31 42 51
f 31 51 52
f 31 52 50
f 32 53 54
f 32 54 33
f 34 55 56
f 34 56 37
f 37 56 57
f 37 57 38
f 38 57 58
f 39 49 59
f 39 59 40
f 40 60 41
f 40 59 60
f 41 60 42
f 42 60 51
f 43 61 44
f 44 61 62
f 44 62 63
f 44 63 64
f 44 64 46
f 44 46 45
f 46 65 66
f 46 66 48
f 46 48 47
f 46 64 65
f 50 52 68
f 50 68 69
f 50 69 70
f 50 70 67
f 53 71 72
f 53 72 73
f 53 73 54
f 55 57 56
f 57 74 75
f 57 75 58
f 58 75 76
f 61 77 62
f 62 77 63
f 63 77 64
f 64 77 65
f 65 78 79
f 65 79 80
f 65 80 81
f 65 81 66
f 65 77 78
f 67 70 83
f 67 83 84
f 67 84 82
f 71 85 86
f 71 86 87
f 71 87 88
f 71 88 72
f 74 89 75
f 75 89 76
f 76 89 90
f 77 91 78
f 78 92 79
f 78 91 92
f 79 81 93
f 79 93 80
f 80 93 81
f 82 84 95
f 82 95 94
f 83 95 84
f 85 96 86
f 86 96 97
f 86 97 94
f 86 94 95
f 89 98 99
f 89 99 90
f 91 99 98
f 91 98 100
f 91 100 92

