# https://github.com/mikedh/trimesh
v -34.85489643 -16.49972004 46.48146689
v -34.85714950 -13.50446131 48.48230505
v -34.85827604 -14.50012912 48.48230505
v -34.87742415 -15.50044017 48.48230505
v -34.88080376 -16.49972004 47.47954275
v -34.91910297 -17.50003108 45.47870608
v -34.89882683 -17.50003108 44.48062874
v -34.89319564 -17.50003108 38.47811428
v -34.89206911 -17.50003108 20.48462876
v -34.85602297 -16.49972004 19.48655290
v -34.85602297 -13.50446131 15.48487660
v -34.91459683 -13.50446131 49.48038239
v -36.47018389 -18.77479499 60.35613136
v -35.00020456 -17.50003108 46.48146689
v -36.41611617 -18.77479499 59.78446545
v -35.26716656 -18.24600745 45.47870608
v -35.24463884 -18.27438093 44.48062874
v -36.35078309 -18.77479499 58.75358745
v -35.24351231 -18.27438093 34.48580994
v -35.24238577 -18.27541359 19.48655290
v -34.89319564 -17.50003108 19.48655290
v -34.85827604 -16.49972004 17.48571475
v -34.85827604 -14.50012912 15.48487660
v -34.91121723 -13.50446131 14.48679926
v -36.45216231 -13.50446131 55.15020390
v -36.55354004 -18.77479499 60.47796405
v -35.81010136 -18.77479499 44.48062874
v -35.80897483 -18.77479499 20.48462876
v -35.80897483 -18.77479499 19.48655290
v -35.81010136 -18.77479499 19.45375226
v -35.84276790 -18.77479499 18.51190481
v -35.25364963 -18.25374567 18.48379061
v -34.90558455 -17.50003108 18.48379061
v -34.88305683 -16.49972004 16.48295245
v -34.87742415 -15.50044017 15.48487660
v -35.00583724 -14.50012912 14.48679926
v -35.26040735 -13.50446131 13.73238580
v -37.05254444 -13.50446131 55.47352396
v -37.05254444 -18.77479499 60.95122802
v -35.84389444 -18.77479499 18.48379061
v -35.35164776 -18.15830609 17.48571475
v -35.00358417 -17.50003108 17.48571475
v -36.35078309 -18.77479499 13.24037605
v -35.16916844 -16.55285644 15.43333166
v -35.35390083 -14.50012912 13.82610130
v -35.82474483 -13.50446131 13.24037605
v -38.05280780 -13.50446131 55.62347085
v -38.05280780 -18.77479499 61.11054631
v -44.44862756 -18.77479499 13.24037605
v -45.02873355 -13.50446131 13.24037605
v -41.05134033 -13.50446131 55.62815580
v -41.05134033 -18.77479499 61.10586135
v -41.05697301 -13.50446131 55.62815580
v -45.73950569 -15.45452641 14.47742785
v -45.60546291 -15.09082395 13.93387465
v -45.66403678 -14.50012912 13.87295980
v -45.05576741 -18.77479499 18.48379061
v -45.73161994 -18.20164044 18.48379061
v -45.67304608 -18.12477379 17.48571475
v -45.59983024 -18.04532624 16.89998950
v -45.73049341 -17.50312608 16.53449591
v -45.67529915 -17.17244033 15.75196675
v -45.78118451 -16.54099057 15.44738950
v -45.68093182 -16.23558332 14.81012080
v -45.69557678 -13.50446131 13.82610130
v -43.05186407 -18.77479499 61.10117640
v -42.05723488 -13.50446131 55.62347085
v -45.86003303 -14.50012912 14.48679926
v -45.94113462 -15.50044017 15.48487660
v -45.10983812 -18.77479499 19.48655290
v -45.92423957 -17.50003108 18.48379061
v -45.86453917 -17.50003108 17.48571475
v -46.36241703 -18.20060927 30.48413382
v -46.36241703 -18.13663817 29.60320272
v -46.36241703 -18.04223125 28.95187542
v -46.36241703 -17.93956903 28.38957942
v -46.36241703 -17.58205655 26.48245752
v -45.93325185 -16.49972004 16.48295245
v -45.89269957 -13.50446131 14.48679926
v -43.54073263 -18.77479499 60.97934371
v -43.05186407 -13.50446131 55.61409796
v -46.36241703 -13.51065279 19.44438085
v -46.36241703 -13.50446131 19.43969441
v -45.15939970 -18.77479499 31.45409510
v -46.36241703 -17.32927011 25.53123941
v -46.36241703 -16.38674019 23.48822921
v -46.36241703 -18.20060927 31.01362955
v -46.36241703 -15.28067045 21.53893451
v -46.36241703 -14.40314279 20.47994231
v -43.80093543 -18.77479499 60.74973916
v -43.95637939 -13.50446131 55.29546435
v -46.36241703 -13.50446131 44.49468659
v -45.15939970 -18.77479499 31.48689537
v -46.36241703 -18.19957811 31.48689537
v -43.92371583 -18.77479499 60.47796405
v -44.40131905 -13.50446131 54.48013455
v -46.36241703 -13.51374778 44.48531519
v -45.93888155 -16.49972004 47.47954275
v -45.93212532 -15.50044017 48.48230505
v -45.93775501 -13.50446131 49.48038239
v -45.05013772 -18.77479499 44.48062874
v -46.36241703 -18.18513283 32.02107717
v -45.02535394 -18.77479499 45.30532994
v -44.17941249 -18.77479499 59.53611512
v -45.73837916 -13.50446131 50.18793735
v -46.36241703 -14.45524653 43.44506654
v -45.85665342 -17.50003108 46.48146689
v -44.41370795 -18.77479499 58.48180936
v -46.36241703 -15.41119057 42.28298669
v -46.36241703 -16.44967864 40.38992263
v -46.36241703 -17.41181265 38.35628383
v -44.40131905 -18.49982505 58.48180936
v -46.36241703 -18.15366286 32.99103845
v -46.36241703 -18.13560701 33.48304783
v -45.66065717 -18.11135968 46.48146689
v -46.36241703 -17.62797180 37.32540696
v -45.71021876 -18.17378254 45.47870608
v -46.36241703 -18.09485206 34.22809063
f 1 2 3
f 1 3 4
f 1 4 5
f 1 5 6
f 1 6 7
f 1 7 8
f 1 8 9
f 1 9 10
f 1 10 11
f 1 11 2
f 2 12 3
f 2 11 24
f 2 24 37
f 2 37 46
f 2 46 50
f 2 50 65
f 2 65 79
f 2 79 83
f 2 83 92
f 2 92 100
f 2 100 105
f 2 105 96
f 2 96 91
f 2 91 81
f 2 81 67
f 2 67 53
f 2 53 51
f 2 51 47
f 2 47 38
f 2 38 25
f 2 25 12
f 3 12 4
f 4 12 13
f 4 13 5
f 5 14 6
f 5 13 15
f 5 15 14
f 6 16 17
f 6 17 7
f 6 14 15
f 6 15 18
f 6 18 16
f 7 17 8
f 8 17 19
f 8 19 20
f 8 20 9
f 9 20 21
f 9 21 22
f 9 22 10
f 10 22 11
f 11 22 23
f 11 23 24
f 12 25 13
f 13 25 26
f 13 26 39
f 13 39 48
f 13 48 52
f 13 52 66
f 13 66 80
f 13 80 90
f 13 90 95
f 13 95 104
f 13 104 108
f 13 108 103
f 13 103 101
f 13 101 93
f 13 93 84
f 13 84 70
f 13 70 57
f 13 57 49
f 13 49 43
f 13 43 40
f 13 40 31
f 13 31 30
f 13 30 29
f 13 29 28
f 13 28 27
f 13 27 18
f 13 18 15
f 16 18 17
f 17 18 27
f 17 27 20
f 17 20 19
f 20 28 29
f 20 29 30
f 20 30 31
f 20 31 32
f 20 32 33
f 20 33 21
f 20 27 28
f 21 33 22
f 22 33 34
f 22 34 35
f 22 35 23
f 23 35 24
f 24 35 36
f 24 36 37
f 25 38 39
f 25 39 26
f 31 40 32
f 32 41 42
f 32 42 33
f 32 40 43
f 32 43 41
f 33 42 34
f 34 44 35
f 34 42 43
f 34 43 44
f 35 44 43
f 35 43 36
f 36 43 45
f 36 45 37
f 37 45 43
f 37 43 46
f 38 47 48
f 38 48 39
f 41 43 42
f 43 49 50
f 43 50 46
f 47 51 48
f 48 51 53
f 48 53 52
f 49 54 55
f 49 55 56
f 49 56 50
f 49 57 58
f 49 58 59
f 49 59 60
f 49 60 61
f 49 61 62
f 49 62 63
f 49 63 64
f 49 64 54
f 50 56 65
f 52 53 66
f 53 67 66
f 54 68 56
f 54 56 55
f 54 64 63
f 54 63 69
f 54 69 68
f 56 68 65
f 57 70 58
f 58 71 72
f 58 72 59
f 58 70 73
f 58 73 74
f 58 74 75
f 58 75 76
f 58 76 77
f 58 77 71
f 59 72 61
f 59 61 60
f 61 72 63
f 61 63 62
f 63 72 78
f 63 78 69
f 65 68 79
f 66 67 81
f 66 81 80
f 68 69 79
f 69 78 82
f 69 82 83
f 69 83 79
f 70 84 73
f 71 78 72
f 71 77 85
f 71 85 86
f 71 86 78
f 73 84 93
f 73 93 87
f 73 87 94
f 73 94 102
f 73 102 113
f 73 113 114
f 73 114 118
f 73 118 116
f 73 116 111
f 73 111 110
f 73 110 109
f 73 109 106
f 73 106 97
f 73 97 92
f 73 92 83
f 73 83 82
f 73 82 89
f 73 89 88
f 73 88 86
f 73 86 85
f 73 85 77
f 73 77 76
f 73 76 75
f 73 75 74
f 78 88 89
f 78 89 82
f 78 86 88
f 80 81 91
f 80 91 90
f 87 93 94
f 90 91 96
f 90 96 95
f 92 97 98
f 92 98 99
f 92 99 100
f 93 101 94
f 94 101 103
f 94 103 102
f 95 96 105
f 95 105 100
f 95 100 104
f 97 106 98
f 98 107 108
f 98 108 99
f 98 106 109
f 98 109 110
f 98 110 111
f 98 111 107
f 99 108 100
f 100 108 112
f 100 112 104
f 102 103 113
f 103 108 114
f 103 114 113
f 104 112 108
f 107 115 108
f 107 111 116
f 107 116 117
f 107 117 115
f 108 115 117
f 108 117 114
f 114 117 118
f 116 118 117

