# https://github.com/mikedh/trimesh
v -33.05093966 39.50056783 -12.55000366
v -34.77325095 38.67547026 -12.28240388
v -34.77325095 39.50056783 -12.54747641
v -34.77325095 42.49960701 -12.54747641
v -28.05067788 45.49960881 -12.55000366
v -6.39399515 39.50056783 -12.55000366
v -34.77325095 38.25955229 -11.52252613
v -6.39399515 38.72938599 -12.28240388
v -34.77325095 43.05512592 -12.35814102
v -28.05067788 46.27079065 -12.28240388
v -8.05241431 45.49960881 -12.55000366
v -6.39399515 42.49960701 -12.55000366
v -34.77325095 38.19119426 -10.51777303
v -6.39399515 38.45499422 -11.51747759
v -6.39399515 36.85005121 11.48079523
v -34.77325095 43.27078885 -12.28240388
v -29.05073113 46.14755724 -12.16375112
v -28.05067788 46.54518242 -11.51747759
v -8.05241431 46.27079065 -12.28240388
v -7.05236255 46.15525821 -12.17132692
v -7.05236255 45.49960881 -12.33289233
v -6.53289127 46.02624610 -12.04762562
v -6.39399515 42.82983975 -12.45911791
v -33.05093966 36.85005121 11.48079523
v -34.05099142 36.86064302 11.48079523
v -34.77325095 36.90107908 11.45302525
v -15.05277924 36.71430074 13.23785327
v -20.29471894 36.71430074 13.23785327
v -21.29199311 36.71526336 13.23785327
v -6.39399515 36.87701056 12.48050128
v -8.05241431 36.85005121 13.23785327
v -34.77325095 43.46911864 -11.72953740
v -29.56464573 46.01661989 -12.03500127
v -29.05073113 46.29775001 -11.51747759
v -28.05067788 46.54903291 -10.51777303
v -9.05246682 46.54999553 -10.51777303
v -8.05241431 46.54518242 -11.51747759
v -7.05236255 46.31315195 -11.51747759
v -6.52177941 46.03972578 -11.51747759
v -6.48566621 45.49960881 -11.51747759
v -6.39399515 43.35166096 -12.27987961
v -32.05088790 36.85005121 13.23785327
v -34.77325095 36.87797318 12.48050128
v -6.39399515 36.91840924 13.23785327
v -7.05236255 36.88663678 13.23785327
v -34.77325095 43.54518062 -11.51747759
v -29.05073113 46.30063787 -10.51777303
v -34.77325095 43.54806849 -10.79546990
v -34.77325095 43.54903111 -10.51777303
v -29.05073113 46.30160049 -6.51642753
v -29.05073113 46.30545098 13.23785327
v -28.05067788 46.54903291 13.23785327
v -14.05272711 46.54999553 10.48108918
v -11.05257108 46.54999553 -3.51731087
v -10.05251858 46.54999553 -7.51613209
v -8.05241431 46.54999553 -10.51777303
v -7.05236255 46.31508017 -10.51777303
v -6.52177941 46.03972578 3.48062702
v -6.49400048 45.63054616 13.23785327
v -6.48566621 45.49960881 13.23785327
v -6.39399515 43.65589697 -10.51777303
v -6.39399515 43.65300911 -11.07821233
v -6.39399515 43.64723338 -11.51747759
v -6.39399515 43.48356094 -11.96431566
v -34.77325095 36.89530335 13.23785327
v -6.39399515 43.64145765 13.23785327
v -34.77325095 43.54999373 -7.79635323
v -34.77325095 43.54999373 11.48079523
v -34.77325095 43.54806849 12.20280441
v -34.77325095 43.54132716 13.20250897
v -34.77325095 43.54036454 13.23785327
v -14.05272711 46.54999553 13.23785327
v -8.05241431 46.54999553 -5.51671999
v -7.05236255 46.31508017 -5.51671999
v -7.05236255 46.31411457 10.48108918
v -6.52177941 46.03876316 13.23785327
v -6.39399515 43.65589697 -7.07686684
v -6.39399515 43.64723338 12.91976505
v -6.39399515 43.65397173 11.92005900
v -6.39399515 43.65493435 11.48079523
v -12.81099556 46.54999553 13.23785327
v -9.05246682 46.54999553 -1.51537449
v -8.05241431 46.54903291 13.23785327
v -7.81073527 46.49222931 13.23785327
v -7.05236255 46.31315195 13.23785327
f 1 2 3
f 1 3 4
f 1 4 5
f 1 5 11
f 1 11 12
f 1 12 6
f 1 6 2
f 2 7 13
f 2 13 26
f 2 26 43
f 2 43 65
f 2 65 71
f 2 71 70
f 2 70 69
f 2 69 68
f 2 68 67
f 2 67 49
f 2 49 48
f 2 48 46
f 2 46 32
f 2 32 16
f 2 16 9
f 2 9 4
f 2 4 3
f 2 6 8
f 2 8 7
f 4 9 5
f 5 9 10
f 5 10 19
f 5 19 11
f 6 12 23
f 6 23 41
f 6 41 64
f 6 64 63
f 6 63 62
f 6 62 61
f 6 61 77
f 6 77 80
f 6 80 79
f 6 79 78
f 6 78 66
f 6 66 44
f 6 44 30
f 6 30 15
f 6 15 14
f 6 14 8
f 7 8 14
f 7 14 15
f 7 15 13
f 9 16 10
f 10 16 17
f 10 17 18
f 10 18 37
f 10 37 19
f 11 19 20
f 11 20 21
f 11 21 12
f 12 22 23
f 12 21 22
f 13 24 25
f 13 25 26
f 13 15 27
f 13 27 28
f 13 28 29
f 13 29 24
f 15 30 31
f 15 31 27
f 16 32 33
f 16 33 17
f 17 33 34
f 17 34 18
f 18 34 35
f 18 35 36
f 18 36 56
f 18 56 37
f 19 37 20
f 20 38 22
f 20 22 21
f 20 37 38
f 22 39 40
f 22 40 41
f 22 41 23
f 22 38 39
f 24 29 25
f 25 29 42
f 25 42 43
f 25 43 26
f 27 31 45
f 27 45 44
f 27 44 66
f 27 66 60
f 27 60 59
f 27 59 76
f 27 76 85
f 27 85 84
f 27 84 83
f 27 83 81
f 27 81 72
f 27 72 52
f 27 52 51
f 27 51 71
f 27 71 65
f 27 65 42
f 27 42 29
f 27 29 28
f 30 44 45
f 30 45 31
f 32 46 33
f 33 46 34
f 34 47 35
f 34 46 48
f 34 48 49
f 34 49 47
f 35 47 50
f 35 50 51
f 35 51 52
f 35 52 72
f 35 72 53
f 35 53 54
f 35 54 55
f 35 55 36
f 36 55 54
f 36 54 53
f 36 53 72
f 36 72 81
f 36 81 82
f 36 82 73
f 36 73 56
f 37 56 38
f 38 56 57
f 38 57 39
f 39 57 74
f 39 74 58
f 39 58 59
f 39 59 40
f 40 59 60
f 40 60 77
f 40 77 61
f 40 61 62
f 40 62 63
f 40 63 64
f 40 64 41
f 42 65 43
f 47 49 67
f 47 67 50
f 50 67 51
f 51 67 68
f 51 68 69
f 51 69 70
f 51 70 71
f 56 73 74
f 56 74 57
f 58 74 75
f 58 75 76
f 58 76 59
f 60 66 78
f 60 78 79
f 60 79 80
f 60 80 77
f 73 82 83
f 73 83 74
f 74 83 84
f 74 84 75
f 75 84 85
f 75 85 76
f 81 83 82

