# https://github.com/mikedh/trimesh
v -18.05205274 36.22679415 14.25673575
v -18.05458335 34.50244438 15.10243282
v -20.54401923 34.74212516 14.97902656
v -20.55751605 34.74212516 14.97902656
v -20.05473641 36.22679415 14.26822909
v -15.05224503 36.22679415 14.27911744
v -20.22345442 34.50244438 15.12602599
v -15.05561942 34.50244438 15.27423390
v -20.86795769 34.50244438 15.30569195
v -21.84905356 36.22679415 14.55557303
v -21.04848643 36.22679415 14.27851245
v -21.02233472 36.22679415 14.27790746
v -14.09055172 36.22679415 14.55738801
v -14.43136249 34.50244438 15.76060203
v -20.96918864 34.50244438 15.39098675
v -21.92582037 36.22679415 14.60759631
v -14.06102599 36.22679415 14.58944955
v -13.65610292 36.22679415 15.48233146
v -14.42883152 34.50244438 16.34133834
v -21.31927880 34.50244438 16.48228786
v -22.24469761 36.22679415 15.48233146
v -13.67634889 36.22679415 19.48215703
v -14.43051871 34.50244438 18.47978217
v -21.41123000 34.50244438 18.48220064
v -22.25903858 36.22679415 16.48228786
v -13.70165644 36.22679415 19.59951487
v -14.47354200 34.50244438 19.09318502
v -21.02908350 34.50244438 19.34120752
v -21.91907159 36.22679415 20.13972125
v -22.19914372 36.22679415 19.48215703
v -22.20842348 36.22679415 19.42710881
v -22.27337955 36.22679415 18.48220064
v -14.18250328 36.22679415 20.30244895
v -15.05224503 34.50244438 19.44525705
v -21.05186082 36.22679415 20.41496612
v -21.26191492 36.22679415 20.37625042
v -21.84061721 36.22679415 20.25526412
v -20.05136202 34.50244438 19.49788606
v -15.05224503 36.22679415 20.43492934
v -18.05205274 34.50244438 19.53357681
v -20.05136202 36.22679415 20.43613857
f 1 2 3
f 1 3 4
f 1 4 5
f 1 5 12
f 1 12 11
f 1 11 10
f 1 10 16
f 1 16 21
f 1 21 25
f 1 25 32
f 1 32 31
f 1 31 30
f 1 30 29
f 1 29 37
f 1 37 36
f 1 36 35
f 1 35 41
f 1 41 39
f 1 39 33
f 1 33 26
f 1 26 22
f 1 22 18
f 1 18 17
f 1 17 13
f 1 13 6
f 1 6 2
f 2 7 4
f 2 4 3
f 2 6 8
f 2 8 14
f 2 14 19
f 2 19 23
f 2 23 27
f 2 27 34
f 2 34 40
f 2 40 38
f 2 38 28
f 2 28 24
f 2 24 20
f 2 20 15
f 2 15 9
f 2 9 7
f 4 7 9
f 4 9 10
f 4 10 11
f 4 11 12
f 4 12 5
f 6 13 8
f 8 13 14
f 9 15 16
f 9 16 10
f 13 17 14
f 14 17 18
f 14 18 19
f 15 20 21
f 15 21 16
f 18 22 23
f 18 23 19
f 20 24 21
f 21 24 25
f 22 26 27
f 22 27 23
f 24 28 29
f 24 29 30
f 24 30 31
f 24 31 32
f 24 32 25
f 26 33 27
f 27 33 34
f 28 35 36
f 28 36 37
f 28 37 29
f 28 38 35
f 33 39 34
f 34 39 40
f 35 38 41
f 38 40 41
f 39 41 40

