# https://github.com/mikedh/trimesh
v -53.94851057 -9.50011545 34.44101955
v -53.94379283 -12.49969182 34.48256612
v -53.94851057 -10.50011878 34.48256612
v -53.94851057 -9.07853724 34.44101955
v -53.93789789 -12.53652028 34.44101955
v -53.94143545 -12.49969182 37.48243902
v -53.94379283 -11.49968848 38.48334090
v -53.94615021 -10.50011878 38.48334090
v -53.93907509 -13.49969589 34.48256612
v -53.93907509 -13.49969589 35.48252400
v -53.94851057 -9.50011545 37.48243902
v -53.94851057 -9.07853724 37.90451754
v -45.84816269 -9.07853724 34.44101955
v -53.93318015 -13.50012803 34.44101955
v -53.94379283 -10.50011878 41.48226906
v -53.93082277 -13.49969589 36.48248151
v -53.94615021 -9.50011545 41.48226906
v -53.93789789 -13.50402769 34.48256612
v -53.93789789 -13.50402769 35.48346800
v -53.94733039 -9.07853724 39.90348819
v -45.29744794 -9.07853724 39.50690461
v -44.05332698 -9.25444734 44.08650238
v -43.18421109 -9.61190096 44.08650238
v -42.82689381 -10.50011878 44.08650238
v -43.83516362 -13.50402769 36.48059315
v -43.86110671 -13.50402769 36.42960365
v -44.26677260 -13.50402769 35.69497944
v -45.76443550 -13.50099528 34.44101955
v -53.63718454 -13.50402769 34.44101955
v -53.92492486 -12.49969182 38.48334090
v -53.91902694 -11.49968848 40.48231193
v -53.78223339 -10.56641001 42.55021245
v -53.94025527 -9.50011545 42.48222694
v -53.94143545 -9.07853724 42.48222694
v -53.92964259 -13.50402769 36.48248151
v -53.86596058 -13.49969589 37.48243902
v -53.94379283 -9.07853724 41.90340396
v -45.30570026 -9.07853724 39.90726566
v -45.32810877 -9.07853724 40.23775173
v -45.63589426 -9.07853724 44.08650238
v -41.90235418 -13.50402769 44.08650238
v -45.74674472 -13.50402769 34.48634322
v -49.85175529 -13.50402769 34.44101955
v -53.85417070 -12.49969182 39.48235404
v -53.76690297 -11.53565044 41.50209817
v -53.68199560 -11.22629063 42.26221732
v -53.67610066 -10.27698138 43.19796568
v -53.75629030 -9.50834765 43.51145611
v -53.82350987 -9.07853724 43.49918120
v -53.92846241 -9.07853724 42.90430509
v -53.86478338 -13.50402769 37.48243902
v -53.66902555 -9.07853724 44.08650238
v -46.83166660 -13.50402769 44.08650238
v -53.72209191 -13.50402769 38.46256780
v -53.65959007 -13.17820422 39.48235404
v -53.71029905 -12.48062789 40.41999114
v -53.65015757 -12.13487250 41.18105503
v -53.05227140 -10.94249467 42.92791166
v -47.65243089 -13.09458134 44.08272566
v -53.64190228 -9.19335516 44.08650238
v -47.64889333 -13.09241470 44.08650238
v -53.73270458 -9.07853724 43.88915458
v -53.58647555 -13.04345512 40.04512540
v -47.90125508 -13.50402769 43.29994542
v -53.71737417 -13.50402769 38.48711762
v -53.05227140 -13.50402769 39.41720127
f 1 2 3
f 1 3 11
f 1 11 12
f 1 12 4
f 1 4 13
f 1 13 28
f 1 28 43
f 1 43 29
f 1 29 14
f 1 14 5
f 1 5 2
f 2 6 7
f 2 7 8
f 2 8 3
f 2 5 9
f 2 9 10
f 2 10 6
f 3 8 11
f 4 12 20
f 4 20 37
f 4 37 34
f 4 34 50
f 4 50 49
f 4 49 62
f 4 62 52
f 4 52 40
f 4 40 39
f 4 39 38
f 4 38 21
f 4 21 13
f 5 14 9
f 6 15 7
f 6 10 16
f 6 16 15
f 7 15 8
f 8 15 17
f 8 17 11
f 9 14 18
f 9 18 19
f 9 19 10
f 10 19 16
f 11 17 12
f 12 17 20
f 13 21 22
f 13 22 23
f 13 23 24
f 13 24 25
f 13 25 26
f 13 26 27
f 13 27 28
f 14 29 18
f 15 16 30
f 15 30 31
f 15 31 32
f 15 32 33
f 15 33 34
f 15 34 17
f 16 19 35
f 16 35 51
f 16 51 36
f 16 36 30
f 17 34 37
f 17 37 20
f 18 29 43
f 18 43 42
f 18 42 27
f 18 27 26
f 18 26 25
f 18 25 41
f 18 41 53
f 18 53 64
f 18 64 66
f 18 66 65
f 18 65 54
f 18 54 51
f 18 51 35
f 18 35 19
f 21 38 22
f 22 38 39
f 22 39 40
f 22 40 52
f 22 52 60
f 22 60 61
f 22 61 53
f 22 53 41
f 22 41 24
f 22 24 23
f 24 41 25
f 27 42 28
f 28 42 43
f 30 36 31
f 31 36 44
f 31 44 45
f 31 45 32
f 32 45 46
f 32 46 47
f 32 47 48
f 32 48 49
f 32 49 50
f 32 50 33
f 33 50 34
f 36 51 44
f 44 51 54
f 44 54 55
f 44 55 56
f 44 56 45
f 45 56 57
f 45 57 46
f 46 58 47
f 46 57 59
f 46 59 58
f 47 60 48
f 47 58 59
f 47 59 61
f 47 61 60
f 48 60 52
f 48 52 62
f 48 62 49
f 53 61 59
f 53 59 63
f 53 63 64
f 54 65 55
f 55 65 63
f 55 63 56
f 56 63 57
f 57 63 59
f 63 65 66
f 63 66 64

