# https://github.com/mikedh/trimesh
v -46.82153374 2.29354433 49.91087825
v -47.02753172 2.29354433 49.83933284
v -46.82153374 2.29354433 38.48176435
v -46.82153374 2.59660538 49.87445511
v -46.98790629 2.48667135 49.83022668
v -47.93990597 2.29354433 49.32420230
v -47.05237808 3.50133155 49.65071271
v -47.86474104 3.50133155 49.25135601
v -47.93141523 2.50152716 49.31119499
v -46.90928129 2.29354433 38.44143856
v -46.82153374 5.02852092 36.62157396
v -46.82153374 3.50133155 49.73266367
v -50.03449538 2.29948621 47.35213997
v -50.03449538 2.29354433 47.32742474
v -46.82153374 3.80439223 49.68453261
v -46.82153374 4.78934045 49.49591248
v -47.74868706 4.50113558 49.14729009
v -50.03449538 3.57858191 47.14400813
v -50.03449538 2.52232559 47.32872562
v -50.03449538 2.50152716 47.33132738
v -47.05237808 2.29354433 38.39590926
v -46.82153374 17.47036271 36.62157396
v -47.05237808 4.96018375 36.62157396
v -50.03449538 2.29354433 37.93931719
v -46.82153374 5.80845725 49.24094897
v -47.63106547 5.18153710 49.04322268
v -50.03449538 3.64246249 47.12839757
v -47.78800254 2.29354433 38.27102926
v -47.68673061 17.11084899 36.62157396
v -47.61659634 17.04845444 37.19263935
v -46.82153374 17.32774575 37.50093670
v -48.03394185 2.29354433 38.23070348
v -49.97568310 4.29315239 36.62157396
v -50.03449538 4.29463804 36.62157396
v -47.40619356 5.84708280 48.91834269
v -46.82153374 7.78875290 48.40191276
v -47.57319494 8.02793300 47.99865490
v -50.03449538 6.36852589 46.15927785
v -50.03449538 5.52470898 46.47537973
v -50.03449538 4.51896270 46.82920713
v -47.68987775 7.50054766 48.10662346
v -48.08866523 16.71568252 36.62157396
v -48.05375754 16.50621255 37.48792827
v -47.87637594 16.33091266 38.48306523
v -47.45745984 16.96377655 37.85996650
v -50.03449538 14.79183768 36.62157396
v -46.82153374 17.02914241 38.48956888
v -46.82153374 8.23740222 48.17946975
v -46.82153374 9.72448075 47.25457845
v -47.56784837 11.01991792 45.99537295
v -48.54909921 7.99079310 46.97620059
v -50.03449538 6.88105541 45.91211961
v -50.03449538 14.49472000 37.48272513
v -47.71252170 16.14372752 39.24925589
v -50.03449538 14.16491790 38.28793995
v -47.45337094 15.96248650 39.91528179
v -46.82153374 16.01002449 40.48114367
v -46.82153374 11.25018483 46.20350627
v -46.82153374 12.35992252 45.30723283
v -47.63798263 12.09548702 45.07958631
v -50.03449538 9.43033289 44.30429023
v -50.03449538 8.73061897 44.79210229
v -50.03449538 8.21511813 45.12511562
v -50.03449538 7.52134609 45.55048843
v -47.89493099 15.30882492 40.48244455
v -47.71126106 15.11421150 41.17838994
v -48.39499040 14.78441089 40.48244455
v -50.03449538 13.54839771 39.48340533
v -46.82153374 15.41727330 41.49449256
v -46.82153374 13.01803957 44.65551587
v -50.03449538 11.96326965 41.91726287
v -50.03449538 11.45222577 42.43369355
v -50.03449538 10.96346525 42.92020473
v -50.03449538 10.44945006 43.41972471
v -50.03449538 9.94286316 43.90623590
v -47.59646772 13.03735309 44.02981501
v -48.52173752 12.94821824 42.93581454
v -47.37128587 14.90474452 41.84441583
v -46.82153374 14.83046472 42.49613354
v -48.48713978 13.91830953 41.83400954
v -47.82102373 14.23771204 42.28149582
v -50.03449538 13.15471540 40.22748178
v -46.82153374 14.01487415 43.49777452
v -50.03449538 12.33763917 41.42945081
v -48.17137913 13.61079226 42.60930562
v -47.50180301 13.97030598 42.94752246
v -50.03449538 12.84719664 40.71659472
f 1 2 6
f 1 6 14
f 1 14 24
f 1 24 32
f 1 32 28
f 1 28 21
f 1 21 10
f 1 10 3
f 1 3 11
f 1 11 22
f 1 22 31
f 1 31 47
f 1 47 57
f 1 57 69
f 1 69 79
f 1 79 83
f 1 83 70
f 1 70 59
f 1 59 58
f 1 58 49
f 1 49 48
f 1 48 36
f 1 36 25
f 1 25 16
f 1 16 15
f 1 15 12
f 1 12 4
f 1 4 5
f 1 5 2
f 2 5 7
f 2 7 8
f 2 8 9
f 2 9 6
f 3 10 11
f 4 12 7
f 4 7 5
f 6 13 14
f 6 9 13
f 7 12 15
f 7 15 16
f 7 16 17
f 7 17 8
f 8 17 18
f 8 18 19
f 8 19 20
f 8 20 9
f 9 20 13
f 10 21 11
f 11 21 23
f 11 23 33
f 11 33 34
f 11 34 46
f 11 46 42
f 11 42 29
f 11 29 22
f 13 20 19
f 13 19 18
f 13 18 27
f 13 27 40
f 13 40 39
f 13 39 38
f 13 38 52
f 13 52 64
f 13 64 63
f 13 63 62
f 13 62 61
f 13 61 75
f 13 75 74
f 13 74 73
f 13 73 72
f 13 72 71
f 13 71 84
f 13 84 87
f 13 87 82
f 13 82 68
f 13 68 55
f 13 55 53
f 13 53 46
f 13 46 34
f 13 34 24
f 13 24 14
f 16 25 26
f 16 26 17
f 17 27 18
f 17 26 27
f 21 28 23
f 22 29 30
f 22 30 31
f 23 28 32
f 23 32 33
f 24 33 32
f 24 34 33
f 25 35 26
f 25 36 37
f 25 37 35
f 26 38 39
f 26 39 40
f 26 40 27
f 26 35 37
f 26 37 41
f 26 41 38
f 29 42 30
f 30 43 44
f 30 44 45
f 30 45 31
f 30 42 46
f 30 46 43
f 31 45 47
f 36 48 37
f 37 48 49
f 37 49 50
f 37 50 51
f 37 51 38
f 37 38 41
f 38 51 52
f 43 46 53
f 43 53 44
f 44 54 45
f 44 53 55
f 44 55 54
f 45 54 47
f 47 54 56
f 47 56 57
f 49 58 50
f 50 58 59
f 50 59 60
f 50 60 61
f 50 61 62
f 50 62 51
f 51 62 63
f 51 63 64
f 51 64 52
f 54 65 66
f 54 66 56
f 54 55 67
f 54 67 65
f 55 68 67
f 56 66 57
f 57 66 69
f 59 70 60
f 60 71 72
f 60 72 73
f 60 73 74
f 60 74 75
f 60 75 61
f 60 70 76
f 60 76 77
f 60 77 71
f 65 67 66
f 66 78 79
f 66 79 69
f 66 67 80
f 66 80 81
f 66 81 78
f 67 68 82
f 67 82 80
f 70 83 76
f 71 77 80
f 71 80 84
f 76 85 77
f 76 83 79
f 76 79 86
f 76 86 81
f 76 81 85
f 77 85 80
f 78 81 79
f 79 81 86
f 80 82 87
f 80 87 84
f 80 85 81

