# https://github.com/mikedh/trimesh
v -5.05225456 27.91363246 22.48230039
v -4.43598471 27.93316205 22.48230039
v -4.48596204 27.96001412 23.03560200
v -5.05225456 27.96815319 23.02458699
v -5.55547303 27.99826267 22.98560977
v -5.57546382 27.98117391 22.48230039
v -5.60338207 27.96164432 20.08861590
v -5.60338207 27.96164432 19.83780909
v -5.09395946 27.93560288 17.52207829
v -4.44597973 27.94048751 17.48310107
v -4.15955892 28.50033971 22.48230039
v -4.15680218 28.50033971 17.48310107
v -4.37876909 28.50033971 23.12541784
v -5.05225456 28.50033971 23.18727222
v -6.49642193 36.22679415 24.13627301
v -6.79594021 36.22679415 23.22709658
v -5.70919591 28.50033971 22.48230039
v -5.68954934 28.42873022 17.52207829
v -5.58683795 27.97222123 16.93488378
v -5.05225456 27.94211473 16.87641869
v -4.45942215 27.95025081 16.88997585
v -3.99859850 29.50042276 22.48230039
v -3.41645030 36.22679415 24.13627301
v -3.97033529 29.50042276 17.48310107
v -4.32017511 28.50033971 16.75016778
v -3.56052237 35.92245681 24.13627301
v -3.96861196 35.55708690 24.13627301
v -4.28501932 35.49768452 24.13627301
v -5.05225456 35.38457503 24.13627301
v -5.86636544 35.58800999 24.13627301
v -6.85350004 36.22679415 22.47552181
v -6.85281086 36.22679415 19.56497152
v -5.84671887 29.50042276 17.48310107
v -6.79318273 36.22679415 16.48241452
v -5.66059694 28.50033971 16.83828935
v -5.05225456 28.50033971 16.60527539
v -3.33545302 36.22679415 20.82663350
v -3.38680872 36.22679415 23.44146906
v -3.42541192 36.22679415 15.75117550
v -3.33269554 36.22679415 16.48241452
v -5.05225456 29.50042276 16.43835299
v -4.05236671 36.22679415 15.52070370
v -3.85728391 36.22679415 15.56815377
v -6.81558640 36.22679415 16.95267737
v -6.70150050 36.22679415 16.13247039
v -6.06455068 36.22679415 15.60628311
v -5.94046940 36.22679415 15.58764313
v -5.05225456 36.22679415 15.48003220
f 1 2 3
f 1 3 4
f 1 4 5
f 1 5 6
f 1 6 7
f 1 7 8
f 1 8 9
f 1 9 10
f 1 10 2
f 2 11 3
f 2 10 12
f 2 12 11
f 3 13 14
f 3 14 4
f 3 11 13
f 4 14 5
f 5 14 15
f 5 15 16
f 5 16 17
f 5 17 6
f 6 17 7
f 7 17 8
f 8 17 18
f 8 18 19
f 8 19 9
f 9 19 20
f 9 20 10
f 10 20 21
f 10 21 12
f 11 22 23
f 11 23 13
f 11 12 24
f 11 24 22
f 12 21 25
f 12 25 24
f 13 23 26
f 13 26 27
f 13 27 14
f 14 27 28
f 14 28 29
f 14 29 30
f 14 30 15
f 15 30 29
f 15 29 28
f 15 28 27
f 15 27 26
f 15 26 23
f 15 23 38
f 15 38 37
f 15 37 40
f 15 40 39
f 15 39 43
f 15 43 42
f 15 42 48
f 15 48 47
f 15 47 46
f 15 46 45
f 15 45 34
f 15 34 44
f 15 44 32
f 15 32 31
f 15 31 16
f 16 31 17
f 17 31 32
f 17 32 18
f 18 32 33
f 18 33 34
f 18 34 35
f 18 35 19
f 19 35 36
f 19 36 20
f 20 36 21
f 21 36 25
f 22 37 38
f 22 38 23
f 22 24 37
f 24 25 39
f 24 39 40
f 24 40 37
f 25 36 41
f 25 41 42
f 25 42 43
f 25 43 39
f 32 44 33
f 33 44 34
f 34 45 35
f 35 45 46
f 35 46 36
f 36 46 41
f 41 46 47
f 41 47 48
f 41 48 42

