# https://github.com/mikedh/trimesh
v 9.28990113 -2.04811089 4.65481936
v 9.28990113 -2.52984883 4.65481936
v 9.28990113 7.49147578 4.65390740
v 7.94788039 7.49147578 4.54901148
v 7.94788039 5.49976986 4.54901148
v 7.94788039 -2.52984883 4.54809952
v 9.28990113 -2.52984883 -4.66252622
v 9.28990113 7.49147578 -4.66343817
v 7.04121630 7.49147578 4.26443023
v 7.03870693 2.49945532 4.26443023
v 7.03842828 1.50065862 4.26443023
v 7.03842828 -0.49987797 4.26443023
v 7.91973042 -2.52984883 4.53989191
v 9.28990113 7.05585164 -4.66343817
v 7.94788039 -2.52984883 -4.54942268
v 7.94788039 7.49147578 -4.54942268
v 7.03759232 7.49147578 4.25895849
v 6.54008400 3.49923308 3.48182806
v 6.53952670 1.50065862 3.48182806
v 6.53924804 0.50088086 3.48182806
v 6.53952670 -0.49987797 3.48182806
v 7.02393531 -2.52984883 4.24071637
v 7.03926573 -2.52984883 4.26443023
v 7.02560873 -2.52984883 -4.28308355
v 7.03285521 5.49976986 -4.28308355
v 7.03480578 7.49147578 -4.28308355
v 7.02560873 -2.49943350 -4.28308355
v 7.02923122 1.50065862 -4.28308355
v 6.53813194 7.49147578 3.44990361
v 6.54175593 6.49954744 3.48182806
v 6.54064131 4.49999191 3.48182806
v 6.52196706 7.49147578 3.41889111
v 6.54036266 -2.52984883 3.48182806
v 6.52754162 -2.52984883 -3.51781155
v 6.53339483 4.49999191 -3.51781155
v 6.53534540 6.49954744 -3.51781155
v 6.49493170 7.49147578 -3.43207269
v 6.52754162 -2.49943350 -3.51781155
v 6.53004950 0.50088086 -3.51781155
v 6.50858871 7.49147578 3.32220578
v 6.45033671 -2.52984883 2.48214138
v 6.45396069 -2.52984883 -2.54822243
v 6.44643556 7.49147578 -2.83736645
v 6.44336888 7.49147578 2.48214138
v 6.45033671 -2.52984883 1.45052727
v 6.44253292 7.49147578 1.48153977
v 6.45172997 -2.52984883 -2.51720993
v 6.44364753 7.49147578 -2.51720993
v 6.45117267 -2.52984883 -1.54853575
v 6.44281157 7.49147578 -1.51752325
v 6.44336888 7.49147578 -2.30012542
f 1 2 7
f 1 7 14
f 1 14 8
f 1 8 3
f 1 3 4
f 1 4 5
f 1 5 2
f 2 5 6
f 2 6 13
f 2 13 23
f 2 23 22
f 2 22 33
f 2 33 41
f 2 41 45
f 2 45 49
f 2 49 47
f 2 47 42
f 2 42 34
f 2 34 24
f 2 24 15
f 2 15 7
f 3 8 16
f 3 16 26
f 3 26 37
f 3 37 43
f 3 43 48
f 3 48 51
f 3 51 50
f 3 50 46
f 3 46 44
f 3 44 40
f 3 40 32
f 3 32 29
f 3 29 17
f 3 17 9
f 3 9 4
f 4 9 10
f 4 10 11
f 4 11 12
f 4 12 5
f 5 12 13
f 5 13 6
f 7 15 14
f 8 14 15
f 8 15 16
f 9 17 10
f 10 17 18
f 10 18 11
f 11 19 20
f 11 20 12
f 11 18 19
f 12 20 21
f 12 21 22
f 12 22 23
f 12 23 13
f 15 24 27
f 15 27 16
f 16 25 26
f 16 27 28
f 16 28 25
f 17 29 30
f 17 30 31
f 17 31 18
f 18 31 32
f 18 32 19
f 19 32 20
f 20 32 21
f 21 33 22
f 21 32 33
f 24 34 38
f 24 38 27
f 25 35 36
f 25 36 26
f 25 28 35
f 26 36 37
f 27 38 39
f 27 39 35
f 27 35 28
f 29 32 30
f 30 32 31
f 32 40 33
f 33 40 41
f 34 42 43
f 34 43 37
f 34 37 38
f 35 37 36
f 35 39 37
f 37 39 38
f 40 44 41
f 41 44 46
f 41 46 45
f 42 47 43
f 43 47 48
f 45 46 50
f 45 50 49
f 47 49 50
f 47 50 51
f 47 51 48

