# https://github.com/mikedh/trimesh
v -38.05246805 -27.12767301 56.38844781
v -37.42454095 -27.12767301 56.45255600
v -40.05252389 -27.12767301 56.42160609
v -42.05178102 -23.58618332 51.49421593
v -41.05175161 -23.58863607 51.49421593
v -40.05252389 -23.58945415 51.49421593
v -39.05249448 -23.59027223 51.49421593
v -39.04287125 -23.59027223 51.49421593
v -38.05246805 -23.58700140 51.49421593
v -37.05243864 -27.12767301 56.49897640
v -40.42382748 -27.12767301 56.43044849
v -43.05181043 -23.57228194 51.49421593
v -37.05243864 -23.44553780 51.49421593
v -36.64424698 -27.12767301 56.69129800
v -41.05175161 -27.12767301 56.48129159
v -43.90909174 -23.28281457 51.49421593
v -41.40540913 -27.12767301 56.55203084
v -41.84407536 -27.12767301 56.73329869
v -36.45177935 -23.15361619 51.49421593
v -36.42371134 -27.12767301 56.80403794
v -43.91711160 -23.27954374 51.49421593
v -43.47604031 -27.12767301 58.05080537
v -36.35153561 -22.50681068 51.49421593
v -36.27534994 -27.12767301 57.48268595
v -36.31384436 -27.12767301 57.23510154
v -43.92192172 -23.27136593 51.49421593
v -43.69497258 -27.12767301 58.35365556
v -43.76875169 -27.12767301 58.48408032
v -44.14085399 -27.12767301 59.48105497
v -36.35073392 -22.50026902 51.49421593
v -36.26011341 -27.12767301 58.11270221
v -44.36540105 -22.50026902 51.49421593
v -44.37502429 -27.12767301 60.48465770
v -36.35073392 -18.77479648 51.49421593
v -36.25770685 -27.12767301 58.48408032
v -44.36620274 -22.49127462 51.49421593
v -44.40790242 -26.49967438 59.48326333
v -44.44399029 -27.12767301 61.48384369
v -44.44078354 -18.77479648 51.49421593
v -36.35073392 -18.77479648 58.75819194
v -36.25770685 -27.12767301 71.11093278
v -44.44639833 -21.50021279 51.49421593
v -44.44960508 -26.49967438 60.48465770
v -44.44078354 -25.49961815 58.48408032
v -44.44880340 -27.12767301 62.48302671
v -44.44479198 -20.49116216 51.49421593
v -44.44720002 -18.77479648 55.48431992
v -36.41569148 -18.77479648 59.78611353
v -36.37479200 -19.50010182 60.48465770
v -36.27214319 -27.12767301 72.11011580
v -44.44880340 -22.50026902 54.48292555
v -44.44639833 -21.49121839 51.49421593
v -44.44880340 -20.50015805 55.48431992
v -44.44880340 -21.50021279 54.48292555
v -44.44880340 -27.12767301 68.48255048
v -44.44880340 -26.49967438 67.48115612
v -44.44880340 -23.49950717 61.48384369
v -44.44800171 -18.77479648 56.20939131
v -36.47022413 -18.77479648 60.36086698
v -36.45097617 -19.52790310 61.42636656
v -36.30341795 -27.12767301 72.45054697
v -44.44800171 -20.50015805 54.48292555
v -44.44800171 -18.77479648 57.48268595
v -44.44800171 -27.12767301 69.48173350
v -44.44800171 -26.49967438 69.48173350
v -44.44800171 -20.50015805 60.48465770
v -36.55362647 -18.77479648 60.48465770
v -36.51753860 -18.95632659 61.05498846
v -36.47583743 -18.81731573 60.48465770
v -36.37479200 -27.12767301 73.10045641
v -44.44158523 -19.50010182 59.48326333
v -44.41431890 -18.77479648 58.48408032
v -44.44399029 -27.12767301 70.48091652
v -44.43677212 -26.49967438 70.48091652
v -44.44720002 -25.49961815 68.48255048
v -44.44399029 -21.50021279 62.48302671
v -37.05243864 -18.77479648 60.95772496
v -37.05243864 -18.89009199 61.15667762
v -36.55121992 -23.99830743 68.98435334
v -36.53518169 -25.97961152 72.01506067
v -36.41970141 -27.12767301 73.30383176
v -44.43116031 -24.49956192 67.48115612
v -44.42314045 -22.50026902 64.48139274
v -44.41351722 -20.50015805 61.48384369
v -44.32369839 -19.50010182 60.48465770
v -44.17934692 -18.77479648 59.53852912
v -44.39025933 -27.12767301 71.48231088
v -44.29322532 -26.49967438 71.48231088
v -44.38464752 -25.49961815 69.48173350
v -38.05246805 -18.77479648 61.11246559
v -37.50072661 -19.99399658 62.99146062
v -37.33953523 -21.97202985 66.02659065
v -37.05243864 -23.95987559 69.04182749
v -37.05243864 -25.92973105 72.09243098
v -37.05243864 -27.12767301 73.89847840
v -36.48546066 -26.89380968 73.17119566
v -44.36620274 -23.49950717 66.48197012
v -44.34615459 -21.50021279 63.48220973
v -43.96763282 -19.46902823 61.47720965
v -43.92352808 -18.77479648 60.48465770
v -44.26274926 -24.49956192 68.48255048
v -44.22826775 -22.50026902 65.48057874
v -44.19137820 -20.50015805 62.48302671
v -44.22987113 -27.12767301 72.47044313
v -43.92272639 -27.12767301 73.42762248
v -43.93555637 -26.48495491 72.44833562
v -40.05252389 -18.77479648 61.11025424
v -42.05178102 -25.45791548 71.48231088
v -38.05246805 -27.12767301 74.07532653
v -37.16471068 -27.12767301 73.91837456
v -43.80082814 -18.77479648 60.75213826
v -43.84493586 -25.73184830 71.48231088
v -43.16568584 -27.12767301 74.00458728
v -43.78639478 -26.80876820 73.27951589
v -43.05181043 -18.77479648 61.10583155
v -43.05181043 -23.92389650 69.09930165
v -43.05181043 -25.89048113 72.15211648
v -43.05181043 -26.71227659 73.42762248
v -42.31321465 -27.12767301 74.07311518
v -43.54099788 -18.77479648 60.98424920
v -43.76714533 -24.83073344 70.24438586
v -43.74469212 -22.85433633 67.20925286
v -43.69336622 -18.89908788 61.14120118
v -43.05181043 -27.12767301 74.07090384
v -43.65888471 -25.92727830 72.09464233
v -43.55944265 -19.99563274 62.98924928
v -43.62760697 -23.94924503 69.05951231
f 1 2 10
f 1 10 14
f 1 14 20
f 1 20 25
f 1 25 24
f 1 24 31
f 1 31 35
f 1 35 41
f 1 41 50
f 1 50 61
f 1 61 70
f 1 70 81
f 1 81 95
f 1 95 110
f 1 110 109
f 1 109 119
f 1 119 124
f 1 124 113
f 1 113 105
f 1 105 104
f 1 104 87
f 1 87 73
f 1 73 64
f 1 64 55
f 1 55 45
f 1 45 38
f 1 38 33
f 1 33 29
f 1 29 28
f 1 28 27
f 1 27 22
f 1 22 18
f 1 18 17
f 1 17 15
f 1 15 11
f 1 11 3
f 1 3 4
f 1 4 5
f 1 5 6
f 1 6 7
f 1 7 8
f 1 8 9
f 1 9 2
f 2 9 10
f 3 11 12
f 3 12 4
f 4 12 16
f 4 16 21
f 4 21 26
f 4 26 32
f 4 32 36
f 4 36 42
f 4 42 52
f 4 52 46
f 4 46 39
f 4 39 34
f 4 34 30
f 4 30 23
f 4 23 19
f 4 19 13
f 4 13 9
f 4 9 8
f 4 8 7
f 4 7 6
f 4 6 5
f 9 13 10
f 10 13 14
f 11 15 12
f 12 15 17
f 12 17 18
f 12 18 16
f 13 19 20
f 13 20 14
f 16 18 21
f 18 22 21
f 19 23 24
f 19 24 25
f 19 25 20
f 21 22 27
f 21 27 28
f 21 28 29
f 21 29 26
f 23 30 24
f 24 30 31
f 26 29 32
f 29 33 32
f 30 34 31
f 31 34 35
f 32 33 37
f 32 37 36
f 33 38 37
f 34 39 47
f 34 47 58
f 34 58 63
f 34 63 72
f 34 72 86
f 34 86 100
f 34 100 111
f 34 111 120
f 34 120 115
f 34 115 107
f 34 107 90
f 34 90 77
f 34 77 67
f 34 67 59
f 34 59 48
f 34 48 40
f 34 40 41
f 34 41 35
f 36 37 42
f 37 38 43
f 37 43 44
f 37 44 42
f 38 45 43
f 39 46 47
f 40 48 49
f 40 49 50
f 40 50 41
f 42 51 54
f 42 54 52
f 42 44 43
f 42 43 51
f 43 53 54
f 43 54 51
f 43 45 55
f 43 55 56
f 43 56 57
f 43 57 53
f 46 52 47
f 47 52 58
f 48 59 60
f 48 60 50
f 48 50 49
f 50 60 61
f 52 54 62
f 52 62 58
f 53 63 58
f 53 58 54
f 53 57 63
f 54 58 62
f 55 64 65
f 55 65 66
f 55 66 56
f 56 66 63
f 56 63 57
f 59 67 68
f 59 68 69
f 59 69 60
f 60 69 70
f 60 70 61
f 63 66 71
f 63 71 72
f 64 73 65
f 65 73 74
f 65 74 75
f 65 75 66
f 66 75 76
f 66 76 71
f 67 77 68
f 68 77 78
f 68 78 79
f 68 79 80
f 68 80 81
f 68 81 70
f 68 70 69
f 71 76 74
f 71 74 82
f 71 82 83
f 71 83 84
f 71 84 72
f 72 84 85
f 72 85 86
f 73 87 74
f 74 87 88
f 74 88 89
f 74 89 82
f 74 76 75
f 77 90 78
f 78 90 91
f 78 91 79
f 79 91 92
f 79 92 93
f 79 93 94
f 79 94 80
f 80 94 95
f 80 95 96
f 80 96 81
f 81 96 95
f 82 89 83
f 83 89 84
f 84 89 97
f 84 97 98
f 84 98 85
f 85 99 100
f 85 100 86
f 85 98 88
f 85 88 101
f 85 101 102
f 85 102 103
f 85 103 99
f 87 104 88
f 88 104 105
f 88 105 106
f 88 106 101
f 88 98 97
f 88 97 89
f 90 107 108
f 90 108 109
f 90 109 91
f 91 109 92
f 92 109 94
f 92 94 93
f 94 109 110
f 94 110 95
f 99 111 100
f 99 103 106
f 99 106 112
f 99 112 111
f 101 106 102
f 102 106 103
f 105 113 114
f 105 114 106
f 106 114 112
f 107 115 108
f 108 116 117
f 108 117 118
f 108 118 119
f 108 119 109
f 108 115 116
f 111 112 121
f 111 121 122
f 111 122 123
f 111 123 120
f 112 114 121
f 113 124 114
f 114 124 125
f 114 125 121
f 115 120 126
f 115 126 116
f 116 126 117
f 117 126 118
f 118 124 119
f 118 126 124
f 120 123 126
f 121 125 122
f 122 125 123
f 123 125 127
f 123 127 126
f 124 126 127
f 124 127 125

