# https://github.com/mikedh/trimesh
v -6.47972545 -39.50120706 76.51459398
v -6.47972545 -42.49950118 76.51459398
v -6.47972545 -38.60957835 76.24826677
v -12.05273982 -36.50066584 76.51459398
v -8.05303830 -45.50003942 76.51459398
v -7.05259389 -45.50003942 76.28542753
v -6.53369110 -46.02558296 76.00671439
v -6.47972545 -42.91162528 76.39691278
v -12.05273982 -35.62251680 76.24826677
v -6.47972545 -38.36140683 75.80851871
v -11.34080538 -35.75614831 76.15536040
v -13.05318385 -35.61128721 76.24826677
v -27.68416206 -35.59444283 76.24826677
v -27.68416206 -36.50066584 76.51459398
v -27.68416206 -45.50003942 76.51459398
v -8.05303830 -46.27038679 76.24826677
v -7.05259389 -46.15472322 76.13678151
v -6.47972545 -43.36979129 76.24207380
v -7.05259389 -46.31081391 75.48025591
v -6.52331312 -46.03793610 75.48025591
v -6.49425492 -45.50003942 75.48025591
v -12.05273982 -35.21825162 75.48025591
v -13.05318385 -35.18568641 75.48025591
v -6.47972545 -38.18060986 75.48025591
v -11.22664684 -35.62588449 75.48025591
v -27.68416206 -35.12841492 75.52360963
v -27.68416206 -46.27038679 76.24826677
v -8.05303830 -46.54551170 75.48025591
v -6.47972545 -43.53486445 75.85187243
v -8.05303830 -46.55000294 74.47688564
v -7.05259389 -46.31305804 74.47688564
v -6.52331312 -46.03905668 73.47970833
v -6.52123737 -46.03905668 66.48089723
v -6.47972545 -43.66961951 75.48025591
v -6.49217917 -45.50003942 60.47926344
v -12.05273982 -35.19242476 74.47688564
v -13.05318385 -35.15087409 74.47688564
v -27.68416206 -35.07900533 74.47688564
v -6.47972545 -38.15702713 74.90424777
v -6.47972545 -38.14242986 74.47688564
v -11.21626848 -35.61690201 74.47688564
v -27.68416206 -46.54551170 75.48025591
v -7.05259389 -46.31418159 68.48144183
v -11.05229541 -46.55000294 74.47688564
v -8.05303830 -46.55000294 13.24037605
v -7.05259389 -46.31642870 24.48802616
v -6.52123737 -46.04018023 51.47990476
v -6.51916237 -46.04130379 13.48812437
v -6.49010343 -45.50003942 40.48619519
v -6.47972545 -43.67748141 74.92901962
v -6.47972545 -37.93243537 13.24037605
v -11.79743954 -35.30359709 13.24037605
v -12.05273982 -35.19242476 26.48237779
v -12.81033767 -35.15985657 13.24037605
v -13.05318385 -35.15087409 13.24037605
v -27.68416206 -35.07788177 13.48812437
v -27.68416206 -46.54775583 74.84850514
v -27.68416206 -46.54887939 74.47688564
v -12.05273982 -46.55000294 68.48144183
v -15.05407248 -46.55000294 13.24037605
v -7.05259389 -46.31642870 13.24037605
v -6.51916237 -46.04130379 13.24037605
v -6.49010343 -45.50003942 13.24037605
v -6.47972545 -43.67972554 74.47688564
v -6.47972545 -43.67972554 13.24037605
v -12.05273982 -35.21712807 13.24037605
v -12.05273982 -35.19354534 15.48247601
v -27.68416206 -35.07788177 13.24037605
v -14.05362826 -46.55000294 52.47707909
v -27.68416206 -46.54887939 13.24037605
v -15.05407248 -46.55000294 42.48674054
f 1 2 8
f 1 8 18
f 1 18 29
f 1 29 34
f 1 34 50
f 1 50 64
f 1 64 65
f 1 65 51
f 1 51 40
f 1 40 39
f 1 39 24
f 1 24 10
f 1 10 3
f 1 3 4
f 1 4 14
f 1 14 15
f 1 15 5
f 1 5 2
f 2 5 6
f 2 6 7
f 2 7 8
f 3 9 4
f 3 10 11
f 3 11 9
f 4 9 12
f 4 12 13
f 4 13 14
f 5 15 27
f 5 27 16
f 5 16 17
f 5 17 6
f 6 17 7
f 7 18 8
f 7 17 19
f 7 19 20
f 7 20 21
f 7 21 18
f 9 11 22
f 9 22 23
f 9 23 12
f 10 24 11
f 11 24 25
f 11 25 22
f 12 23 26
f 12 26 13
f 13 26 38
f 13 38 56
f 13 56 68
f 13 68 70
f 13 70 58
f 13 58 57
f 13 57 42
f 13 42 27
f 13 27 15
f 13 15 14
f 16 27 42
f 16 42 28
f 16 28 17
f 17 28 19
f 18 21 29
f 19 28 30
f 19 30 31
f 19 31 20
f 20 31 32
f 20 32 33
f 20 33 21
f 21 34 29
f 21 33 35
f 21 35 34
f 22 25 36
f 22 36 37
f 22 37 23
f 23 37 38
f 23 38 26
f 24 39 25
f 25 39 40
f 25 40 41
f 25 41 36
f 28 42 44
f 28 44 30
f 30 43 31
f 30 44 59
f 30 59 69
f 30 69 71
f 30 71 60
f 30 60 45
f 30 45 61
f 30 61 46
f 30 46 43
f 31 43 32
f 32 43 33
f 33 43 47
f 33 47 48
f 33 48 49
f 33 49 35
f 34 35 50
f 35 49 50
f 36 41 51
f 36 51 52
f 36 52 53
f 36 53 54
f 36 54 37
f 37 54 55
f 37 55 68
f 37 68 56
f 37 56 38
f 40 51 41
f 42 57 44
f 43 46 48
f 43 48 47
f 44 57 58
f 44 58 59
f 45 60 70
f 45 70 68
f 45 68 55
f 45 55 54
f 45 54 66
f 45 66 52
f 45 52 51
f 45 51 65
f 45 65 63
f 45 63 62
f 45 62 61
f 46 61 62
f 46 62 48
f 48 62 63
f 48 63 49
f 49 63 65
f 49 65 64
f 49 64 50
f 52 66 67
f 52 67 53
f 53 67 54
f 54 67 66
f 58 69 59
f 58 70 60
f 58 60 71
f 58 71 69

