# https://github.com/mikedh/trimesh
v -1.05190745 -50.54824898 -10.51778197
v -2.05128865 -50.33263373 0.48150440
v -2.05128865 -50.31319653 -10.51778197
v -1.05190745 -50.54471440 -11.51748653
v 0.94775351 -50.54824898 -10.51778197
v -1.05190745 -50.54824898 11.48079076
v -2.05128865 -50.34323747 11.48079076
v -2.05128865 -50.34147316 8.48167410
v -2.05128865 -50.33970289 6.47973772
v -2.60839455 -50.06577008 7.48196954
v -2.60570338 -50.06400577 5.48003316
v -2.59493796 -50.05340203 -2.51761227
v -2.59404091 -50.05163176 -3.51731683
v -2.58776077 -50.04456261 -7.51613805
v -2.58237844 -50.03926372 -10.51778197
v -2.58058433 -50.03749345 -11.51748653
v -2.05128865 -50.30966195 -11.51748653
v -2.60211441 -50.06047119 2.48091650
v -0.05252550 -50.52704151 -11.51748653
v -2.05128865 -50.15237023 -12.17133288
v -1.05190745 -50.26901132 -12.28241282
v 1.02221360 -50.31496084 -11.59827221
v 1.66095604 -50.18241713 -11.31805107
v 1.81794974 -50.27431617 -10.51778197
v 3.69470660 -50.52173666 -5.76918009
v 3.69470660 -50.54824898 -5.51672893
v 0.94775351 -50.54824898 10.48108620
v -0.05252550 -50.53587497 11.48079076
v -1.05190745 -50.27431617 12.26086568
v -2.05128865 -50.17181339 12.16493435
v -2.59224605 -50.04456261 12.04123305
v -2.61198277 -50.06754035 11.48079076
v -2.61108571 -50.06754035 10.48108620
v -5.47017823 -43.55147041 -10.51778197
v -5.47017823 -43.54793583 -11.51748653
v -2.60749749 -50.06400577 6.47973772
v -2.60121736 -50.05870092 1.48121194
v -2.57071597 -50.02335513 -12.04510730
v -0.05252550 -50.25310870 -12.25969138
v 0.73962316 -50.15767508 -12.16376304
v -2.05128865 -49.50023156 -12.37077132
v -1.05190745 -49.50023156 -12.54496107
v 1.38554354 -49.50023156 -11.96937315
v 1.77488957 -49.50023156 -11.46951938
v 3.69470660 -49.93322338 -7.19300128
v 3.69470660 -50.07637381 -7.10969431
v 3.69470660 -50.28138532 -6.71082041
v 3.69470660 -50.35207689 -6.51643349
v 3.69470660 -50.54824898 5.48003316
v 1.81615563 -50.27431617 10.48108620
v 1.66095604 -50.18241713 11.28640385
v 1.02669888 -50.31849542 11.56410072
v 0.74679961 -50.16650854 12.13716437
v -0.05252550 -50.26194216 12.23814424
v -1.05190745 -49.50023156 12.54360960
v -2.05128865 -49.50023156 12.37699118
v -5.47017823 -43.55147041 13.24037456
v -5.47017823 -43.27223573 -12.28241282
v -2.60390927 -50.06047119 3.48062106
v -5.47017823 -42.49992139 -12.54748833
v -0.05252550 -49.50023156 -12.50204545
v 0.88495513 -49.50023156 -12.23696995
v -1.05190745 -32.50048264 -12.54496107
v -0.05252550 -37.50020351 -12.50456972
v -3.05156691 -42.49992139 -12.55000962
v -2.05128865 -42.49992139 -12.54748833
v 1.38554354 -47.49963928 -11.97442169
v 1.78116896 -48.49993691 -11.47204663
v 2.22882810 -48.49993691 -10.51778197
v 2.20909138 -49.50023156 -10.51778197
v 3.69470660 -49.51437285 -7.22329554
v 3.69470660 -50.37328436 6.47973772
v 1.77309546 -49.50023156 11.44039941
v 1.39720526 -49.50023156 11.94025169
v 3.69470660 -50.08697755 7.11843993
v 0.89661835 -49.50023156 12.21542280
v -0.05252550 -49.50023156 12.49564394
v -2.10242381 -43.34999646 13.24037456
v -3.04528752 -43.59211806 13.24037456
v -5.47017823 -37.57442965 13.24037456
v -5.47017823 -36.50167316 -12.54748833
v 0.88585219 -47.49963928 -12.23949720
v -1.05639273 -32.49518375 -12.54496107
v -0.05252550 -32.50048264 -12.50456972
v -2.05128865 -35.50137553 -12.54748833
v -3.05156691 -36.50167316 -12.55000962
v 0.88585219 -32.49518375 -12.24201849
v 1.38644059 -46.49934165 -11.97442169
v 1.78116896 -47.49963928 -11.47457090
v 2.22972515 -47.49963928 -10.51778197
v 3.69470660 -48.49993691 -7.22581981
v 2.22434133 -48.49993691 10.48108620
v 1.77847780 -48.49993691 11.44292368
v 3.69470660 -49.50023156 7.21184549
v 1.39989643 -47.49963928 11.94530173
v 1.40348614 -45.49904401 11.94782600
v 1.40976553 -41.50139105 11.95287455
v 0.90200068 -46.49934165 12.21794707
v -1.34705667 -40.50109342 13.24037456
v -1.35602797 -41.50139105 13.24037456
v -1.49238864 -42.25603250 13.24037456
v -1.63323534 -42.68725405 13.24037456
v -1.91133901 -43.09373654 13.24037456
v -4.73275295 -35.83186160 13.24037456
v -5.47017823 -35.60564560 12.39213980
v -5.47017823 -35.59150728 -12.28241282
v -2.05487687 -32.49518375 -12.42126275
v -2.05128865 -32.50048264 -12.42378404
v 0.88674924 -45.49904401 -12.23949720
v 1.39002881 -35.50137553 -11.97694895
v -0.05701152 -32.49518375 -12.50456972
v 1.38823470 -32.49518375 -11.97694895
v 1.39092587 -32.50048264 -11.97694895
v 0.89033747 -34.50107790 -12.23949720
v 0.88854336 -40.50109342 -12.23949720
v 1.78206602 -45.49904401 -11.47457090
v 2.23151926 -41.50139105 -10.51778197
v 3.69470660 -46.49934165 -7.22581981
v 2.23241632 -36.50167316 -10.51778197
v 2.22972515 -42.49992139 10.48108620
v 1.78475719 -40.50109342 11.45302078
v 1.78386013 -42.49992139 11.45049650
v 3.69470660 -48.75796412 7.21941980
v 3.69470660 -48.49993691 7.22194556
v 1.41245670 -39.50079579 11.95287455
v 0.91097124 -40.50109342 12.22047283
v 0.90828007 -42.49992139 12.22047283
v -1.34705667 -38.38385707 13.24037456
v 0.91186830 -39.50079579 12.22047283
v -4.07247894 -35.39710249 13.24037456
v -2.05128865 -32.49518375 12.41485975
v -2.65952970 -32.49518375 12.13211433
v -5.47017823 -35.14437715 11.48079076
v -2.65773559 -32.49518375 -12.15366297
v -2.65773559 -32.50048264 -12.15871152
v -5.47017823 -35.15144630 -11.51748653
v 1.78386013 -34.50107790 -11.47709518
v 1.78206602 -32.49518375 -11.47961945
v 1.78296308 -42.49992139 -11.47457090
v 3.69470660 -37.24217630 -7.22329554
v 2.23241632 -32.50048264 -10.51778197
v 2.23241632 -37.50020351 10.48108620
v 1.78565424 -39.50079579 11.45302078
v 3.69470660 -32.76911657 7.22951838
v 2.23421043 -33.50078027 10.48108620
v 2.23331338 -35.50137553 10.48108620
v 1.41066259 -37.50020351 11.95287455
v 0.91186830 -38.50049816 12.22047283
v 1.78655130 -37.50020351 11.45302078
v 1.78655130 -36.50167316 11.45302078
v 1.78834541 -33.50078027 11.45049650
v -1.34795373 -37.50020351 13.24037456
v 0.91097124 -37.50020351 12.22047283
v 0.91007418 -36.50167316 12.22047283
v -3.05156691 -35.08959118 13.24037456
v -1.05190745 -32.49518375 12.54613388
v -2.76808016 -32.49518375 11.48079076
v -5.47017823 -35.11787079 10.48108620
v -2.76538899 -32.49518375 -11.51748653
v -5.47017823 -35.13554368 -11.09841844
v 1.78386013 -32.50048264 -11.47709518
v 2.23062221 -32.49518375 -10.52030624
v 3.69470660 -32.49518375 -7.22077127
v 3.69470660 -32.49518375 7.22951838
v 2.23421043 -32.50048264 10.48108620
v 1.40976553 -36.50167316 11.95287455
v 1.79103807 -32.49518375 11.44292368
v 1.78834541 -32.50048264 11.44797223
v 1.40617731 -33.50078027 11.95035027
v -1.35333606 -37.38532672 13.24037456
v 0.90648596 -33.50078027 12.22047283
v 0.90469185 -32.50048264 12.22047283
v -2.65594148 -35.17088946 13.24037456
v -0.05252550 -32.49518375 12.50069249
v -2.76987427 -32.49518375 10.48108620
v -5.47017823 -35.11787079 0.48150440
v -5.47017823 -35.11963510 -10.51778197
v -2.76718310 -32.49518375 -10.51778197
v 2.23510749 -32.49518375 10.47603765
v 1.40528025 -32.49518375 11.94782600
v -1.46368137 -36.50167316 13.24037456
v 0.90738302 -32.49518375 12.21794707
v -1.54442086 -36.10402712 13.24037456
v -1.74806518 -35.61801662 13.24037456
f 1 2 3
f 1 3 17
f 1 17 4
f 1 4 5
f 1 5 26
f 1 26 49
f 1 49 27
f 1 27 6
f 1 6 7
f 1 7 8
f 1 8 9
f 1 9 2
f 2 9 10
f 2 10 11
f 2 11 3
f 3 12 13
f 3 13 14
f 3 14 15
f 3 15 16
f 3 16 17
f 3 11 18
f 3 18 12
f 4 19 5
f 4 17 20
f 4 20 21
f 4 21 19
f 5 19 22
f 5 22 23
f 5 23 24
f 5 24 25
f 5 25 26
f 6 27 28
f 6 28 29
f 6 29 30
f 6 30 7
f 7 30 31
f 7 31 32
f 7 32 33
f 7 33 8
f 8 33 9
f 9 33 10
f 10 33 34
f 10 34 35
f 10 35 36
f 10 36 11
f 11 36 59
f 11 59 37
f 11 37 18
f 12 18 37
f 12 37 13
f 13 35 14
f 13 37 35
f 14 35 15
f 15 35 16
f 16 38 17
f 16 35 38
f 17 38 20
f 19 21 39
f 19 39 40
f 19 40 22
f 20 38 41
f 20 41 42
f 20 42 21
f 21 42 39
f 22 40 23
f 23 40 43
f 23 43 44
f 23 44 45
f 23 45 46
f 23 46 47
f 23 47 48
f 23 48 25
f 23 25 24
f 25 48 47
f 25 47 46
f 25 46 45
f 25 45 71
f 25 71 91
f 25 91 118
f 25 118 140
f 25 140 163
f 25 163 164
f 25 164 144
f 25 144 124
f 25 124 123
f 25 123 94
f 25 94 75
f 25 75 72
f 25 72 49
f 25 49 26
f 27 50 51
f 27 51 52
f 27 52 28
f 27 49 50
f 28 52 53
f 28 53 54
f 28 54 29
f 29 54 55
f 29 55 30
f 30 55 56
f 30 56 57
f 30 57 31
f 31 57 32
f 32 57 34
f 32 34 33
f 34 57 80
f 34 80 105
f 34 105 133
f 34 133 158
f 34 158 176
f 34 176 177
f 34 177 160
f 34 160 136
f 34 136 106
f 34 106 81
f 34 81 60
f 34 60 58
f 34 58 35
f 35 58 38
f 35 37 59
f 35 59 36
f 38 58 60
f 38 60 41
f 39 42 61
f 39 61 40
f 40 61 62
f 40 62 43
f 41 60 42
f 42 63 84
f 42 84 64
f 42 64 61
f 42 60 65
f 42 65 66
f 42 66 85
f 42 85 63
f 43 62 67
f 43 67 89
f 43 89 68
f 43 68 44
f 44 68 69
f 44 69 70
f 44 70 45
f 45 70 71
f 49 72 50
f 50 72 51
f 51 73 74
f 51 74 53
f 51 53 52
f 51 72 75
f 51 75 73
f 53 76 77
f 53 77 54
f 53 74 76
f 54 77 55
f 55 78 79
f 55 79 57
f 55 57 56
f 55 77 78
f 57 79 78
f 57 78 103
f 57 103 102
f 57 102 101
f 57 101 100
f 57 100 99
f 57 99 128
f 57 128 152
f 57 152 170
f 57 170 181
f 57 181 183
f 57 183 184
f 57 184 173
f 57 173 155
f 57 155 130
f 57 130 104
f 57 104 80
f 60 81 86
f 60 86 65
f 61 64 82
f 61 82 62
f 62 82 67
f 63 83 111
f 63 111 84
f 63 85 86
f 63 86 83
f 64 84 87
f 64 87 82
f 65 86 85
f 65 85 66
f 67 88 89
f 67 82 88
f 68 89 69
f 69 89 90
f 69 90 91
f 69 91 71
f 69 71 70
f 73 92 93
f 73 93 74
f 73 75 94
f 73 94 92
f 74 93 95
f 74 95 76
f 76 95 96
f 76 96 97
f 76 97 98
f 76 98 99
f 76 99 100
f 76 100 77
f 77 100 101
f 77 101 102
f 77 102 103
f 77 103 78
f 80 104 105
f 81 83 86
f 81 106 107
f 81 107 108
f 81 108 83
f 82 87 109
f 82 109 110
f 82 110 88
f 83 108 107
f 83 107 134
f 83 134 159
f 83 159 178
f 83 178 175
f 83 175 157
f 83 157 132
f 83 132 131
f 83 131 156
f 83 156 174
f 83 174 182
f 83 182 180
f 83 180 167
f 83 167 179
f 83 179 164
f 83 164 163
f 83 163 162
f 83 162 138
f 83 138 112
f 83 112 87
f 83 87 111
f 84 111 87
f 87 112 113
f 87 113 114
f 87 114 115
f 87 115 109
f 88 110 89
f 89 116 90
f 89 110 116
f 90 116 139
f 90 139 117
f 90 117 91
f 91 117 119
f 91 119 141
f 91 141 118
f 92 120 121
f 92 121 122
f 92 122 93
f 92 94 123
f 92 123 124
f 92 124 120
f 93 96 95
f 93 122 97
f 93 97 96
f 97 125 126
f 97 126 127
f 97 127 98
f 97 122 121
f 97 121 125
f 98 127 99
f 99 127 126
f 99 126 129
f 99 129 148
f 99 148 128
f 104 130 131
f 104 131 132
f 104 132 105
f 105 132 133
f 106 134 135
f 106 135 107
f 106 136 134
f 107 135 134
f 109 115 110
f 110 115 114
f 110 114 113
f 110 113 137
f 110 137 116
f 112 138 113
f 113 138 137
f 116 137 139
f 117 139 137
f 117 137 119
f 118 141 140
f 119 137 161
f 119 161 141
f 120 142 143
f 120 143 121
f 120 124 142
f 121 143 125
f 124 144 145
f 124 145 146
f 124 146 142
f 125 147 153
f 125 153 148
f 125 148 129
f 125 129 126
f 125 143 149
f 125 149 150
f 125 150 151
f 125 151 147
f 128 148 153
f 128 153 154
f 128 154 152
f 130 155 156
f 130 156 131
f 132 157 133
f 133 157 158
f 134 136 159
f 136 160 159
f 137 138 161
f 138 162 141
f 138 141 161
f 140 141 163
f 141 162 163
f 142 146 143
f 143 146 145
f 143 145 149
f 144 164 165
f 144 165 145
f 145 165 151
f 145 151 149
f 147 166 154
f 147 154 153
f 147 151 166
f 149 151 150
f 151 165 167
f 151 167 168
f 151 168 169
f 151 169 166
f 152 154 171
f 152 171 172
f 152 172 170
f 154 166 171
f 155 173 174
f 155 174 156
f 157 175 158
f 158 175 176
f 159 160 177
f 159 177 178
f 164 179 165
f 165 179 167
f 166 169 172
f 166 172 171
f 167 180 168
f 168 180 169
f 169 180 172
f 170 172 181
f 172 180 182
f 172 182 174
f 172 174 183
f 172 183 181
f 173 184 174
f 174 184 183
f 175 178 176
f 176 178 177

