# https://github.com/mikedh/trimesh
v -34.88648263 16.50018797 36.62157396
v -34.89137620 17.36099940 36.62157396
v -34.93542283 16.39219706 36.62157396
v -34.89487204 16.50018797 24.29090263
v -34.89417317 16.69162891 24.29090263
v -34.89347430 17.49978227 24.29090263
v -34.89347430 17.49978227 36.62157396
v -35.23814785 15.73175094 36.62157396
v -35.24583839 15.73353611 24.29090263
v -34.96059106 17.64838208 24.29090263
v -35.19550045 18.16692054 36.62157396
v -35.93798247 15.49390153 36.62157396
v -36.05264020 15.45775555 24.29090263
v -35.24443917 18.27491294 24.29090263
v -35.24443917 18.27491294 36.62157396
v -36.05264020 15.45507779 36.62157396
v -42.02815060 14.93832450 24.29090263
v -36.20435290 19.49718270 24.29090263
v -36.20435290 19.49718270 36.62157396
v -42.02815060 15.18599087 36.62157396
v -42.02815060 19.49718270 24.29090263
v -42.02815060 19.49718270 36.62157396
f 1 2 7
f 1 7 11
f 1 11 15
f 1 15 19
f 1 19 22
f 1 22 20
f 1 20 16
f 1 16 12
f 1 12 8
f 1 8 3
f 1 3 4
f 1 4 5
f 1 5 6
f 1 6 2
f 2 6 7
f 3 8 9
f 3 9 4
f 4 9 13
f 4 13 17
f 4 17 21
f 4 21 18
f 4 18 14
f 4 14 10
f 4 10 6
f 4 6 5
f 6 10 7
f 7 10 11
f 8 12 13
f 8 13 9
f 10 14 11
f 11 14 15
f 12 16 13
f 13 16 17
f 14 18 19
f 14 19 15
f 16 20 17
f 17 20 22
f 17 22 21
f 18 21 22
f 18 22 19

