# https://github.com/mikedh/trimesh
v -53.05231611 -5.42203033 34.44101936
v -52.05143435 -5.51775974 34.44101936
v -53.05231611 -5.55257057 29.93571107
v -53.34560863 -5.60399556 29.93571107
v -53.74708430 -5.70289000 34.44101936
v -52.04983097 -5.66491451 29.93571107
v -52.50499587 -5.60953361 29.93571107
v -51.05215596 -5.67757313 34.44101936
v -47.05263140 -6.42600448 29.93571107
v -53.72304559 -5.76143555 29.93571107
v -53.75509819 -5.72978938 34.44101936
v -47.05263140 -6.32631953 34.44101936
v -47.02378256 -6.33581312 34.44101936
v -46.26410747 -6.73692817 29.93571107
v -53.92017433 -6.50037368 29.93571107
v -53.94581940 -6.50037368 34.44101936
v -46.24968305 -6.70211734 34.44101936
v -46.10624056 -7.04943438 29.93571107
v -53.94662109 -7.50039266 29.93571107
v -53.94742278 -6.54151307 34.44101936
v -45.89869285 -7.50039266 34.44101936
v -45.91632104 -7.50039266 29.93571107
v -53.94982486 -9.04709857 29.93571107
v -53.94742278 -7.50039266 30.48255745
v -53.94822148 -7.50039266 34.44101936
v -45.84900908 -8.50041163 34.44101936
v -45.87144739 -7.95372395 29.93571107
v -53.94982486 -10.04632629 29.93571107
v -53.94982486 -9.49963935 30.48255745
v -53.94902317 -8.50041163 34.44101936
v -45.76486763 -13.50050652 34.44101936
v -45.85061245 -8.50041163 32.48207461
v -45.85541960 -8.50041163 29.93571107
v -53.93299836 -13.49971526 34.44101936
v -53.93780550 -12.53608963 34.44101936
v -53.94902317 -9.49963935 34.44101936
v -53.87850446 -13.47439803 29.93571107
v -46.11024900 -13.50367006 33.48668429
v -46.03091470 -13.50367006 30.48255745
v -45.87384948 -13.50208754 29.93571107
v -45.85061245 -9.49963935 29.93571107
v -49.85253910 -13.50367006 34.44101936
v -53.87610237 -13.50367006 29.93571107
v -53.79276261 -13.50367006 33.42494363
v -53.63730077 -13.50367006 34.44101936
v -48.19374890 -13.50367006 29.93571107
f 1 2 3
f 1 3 4
f 1 4 5
f 1 5 11
f 1 11 16
f 1 16 20
f 1 20 25
f 1 25 30
f 1 30 36
f 1 36 35
f 1 35 34
f 1 34 45
f 1 45 42
f 1 42 31
f 1 31 26
f 1 26 21
f 1 21 17
f 1 17 13
f 1 13 12
f 1 12 8
f 1 8 2
f 2 6 7
f 2 7 3
f 2 8 9
f 2 9 6
f 3 7 6
f 3 6 9
f 3 9 14
f 3 14 18
f 3 18 22
f 3 22 27
f 3 27 33
f 3 33 41
f 3 41 40
f 3 40 46
f 3 46 43
f 3 43 37
f 3 37 28
f 3 28 23
f 3 23 19
f 3 19 15
f 3 15 10
f 3 10 4
f 4 10 5
f 5 10 11
f 8 12 9
f 9 12 13
f 9 13 14
f 10 15 11
f 11 15 16
f 13 17 14
f 14 17 18
f 15 19 20
f 15 20 16
f 17 21 18
f 18 21 22
f 19 23 24
f 19 24 20
f 20 24 23
f 20 23 25
f 21 26 27
f 21 27 22
f 23 28 29
f 23 29 30
f 23 30 25
f 26 31 32
f 26 32 27
f 27 32 33
f 28 34 35
f 28 35 36
f 28 36 29
f 28 37 34
f 29 36 30
f 31 38 39
f 31 39 40
f 31 40 41
f 31 41 33
f 31 33 32
f 31 42 38
f 34 43 44
f 34 44 45
f 34 37 43
f 38 42 45
f 38 45 44
f 38 44 43
f 38 43 46
f 38 46 39
f 39 46 40

