# https://github.com/mikedh/trimesh
v -44.53324883 -1.29096156 12.31055094
v -44.44952164 -2.53082821 10.48215015
v -44.53243522 -2.29541068 12.31055094
v -44.53324883 12.49863684 12.31055094
v -44.40725273 17.51107295 9.48242622
v -44.35604008 -2.53082821 9.48242622
v -44.53162161 -2.53082821 12.31055094
v -44.44870803 17.50911194 12.31055094
v -44.44952164 17.51107295 11.49308430
v -44.44952164 17.51107295 10.48215015
v -44.29914112 17.51107295 9.25906530
v -43.90733637 -2.53082821 8.71311895
v -43.91383928 17.51107295 8.47024632
v -36.23057911 -2.53082821 12.31055094
v -44.28207024 17.51107295 12.31055094
v -43.05219488 -2.53082821 8.43827865
v -43.19201041 17.51107295 8.11154174
v -36.35007081 -2.53082821 9.48242622
v -36.22976699 12.49863684 12.31055094
v -36.35007081 17.51107295 12.31055094
v -42.05155154 -2.53082821 8.43246567
v -43.05219488 17.51107295 8.10157727
v -42.31167088 17.51107295 8.09244280
v -36.44842806 -2.53082821 8.85967432
v -36.46143388 17.51107295 8.58607827
v -36.35088442 17.51107295 9.47163175
v -36.35007081 17.51107295 9.48242622
v -36.23057911 12.67127686 12.31055094
v -36.24764850 13.67180248 12.31055094
v -38.05303728 -2.53082821 8.43246567
v -38.05303728 17.51107295 8.06919386
v -36.45167951 -2.53082821 8.83974538
v -36.47037612 17.51107295 8.53252166
v -37.05239245 -2.53082821 8.56448933
v -37.05239245 17.51107295 8.16924985
f 1 2 3
f 1 3 7
f 1 7 14
f 1 14 19
f 1 19 28
f 1 28 29
f 1 29 20
f 1 20 15
f 1 15 8
f 1 8 4
f 1 4 5
f 1 5 2
f 2 6 12
f 2 12 16
f 2 16 21
f 2 21 30
f 2 30 34
f 2 34 32
f 2 32 24
f 2 24 18
f 2 18 14
f 2 14 7
f 2 7 3
f 2 5 6
f 4 8 9
f 4 9 10
f 4 10 5
f 5 10 9
f 5 9 15
f 5 15 20
f 5 20 27
f 5 27 26
f 5 26 25
f 5 25 33
f 5 33 35
f 5 35 31
f 5 31 23
f 5 23 22
f 5 22 17
f 5 17 13
f 5 13 11
f 5 11 6
f 6 11 13
f 6 13 12
f 8 15 9
f 12 13 17
f 12 17 16
f 14 18 19
f 16 17 22
f 16 22 23
f 16 23 21
f 18 24 25
f 18 25 26
f 18 26 27
f 18 27 19
f 19 27 28
f 20 29 27
f 21 23 31
f 21 31 30
f 24 32 25
f 25 32 33
f 27 29 28
f 30 31 35
f 30 35 34
f 32 34 35
f 32 35 33

