# https://github.com/mikedh/trimesh
v 10.94842161 -8.15305362 -7.54849762
v 10.60142793 -8.15305362 -7.48641898
v 10.94842161 -2.53082970 -7.54849762
v 26.94770004 -8.15305362 -7.54849762
v 9.98037477 -2.53082970 -7.37408734
v 9.94943231 -8.15305362 -7.36817452
v 26.94770004 -2.53082970 -7.54849762
v 26.97864102 -2.53082970 -7.54554419
v 27.59969566 -8.15305362 -7.45685786
v 9.94943231 -2.53082970 -7.36817452
v 9.37700345 -8.15305362 -7.10212149
v 27.94668636 -2.53082970 -7.40808307
v 27.94668636 -8.15305362 -7.40808307
v 9.37700345 -2.53082970 -7.10212149
v 6.88616424 -8.15305362 -4.44159420
v 27.96657954 -2.53082970 -7.40069204
v 28.34893391 -8.15305362 -7.23514800
v 7.02761443 -2.53082970 -4.28344118
v 6.34909756 -8.15305362 -3.61978682
v 28.56331832 -2.53082970 -7.14203004
v 28.56331832 -8.15305362 -7.14203004
v 6.52812127 -2.53082970 -3.51779963
v 6.20322914 -8.15305362 -3.28130772
v 28.56774101 -2.53082970 -7.12281636
v 28.64951614 -8.15305362 -6.73408127
v 6.17670639 -8.15305362 -3.13350214
v 6.45518558 -2.53082970 -2.54818667
v 28.69371923 -2.53082970 -6.51680602
v 28.69371923 -8.15305362 -6.51680602
v 6.13692450 -8.15305362 -2.51714735
v 6.45297423 -2.53082970 -2.51714735
v 28.69813894 -2.53082970 6.48135004
v 28.69813894 -8.15305362 6.48135004
v 6.13250330 -8.15305362 -2.13875969
v 6.12587373 -8.15305362 -0.14927481
v 6.12366238 -8.15305362 0.84250824
v 6.12145252 -8.15305362 1.84168530
v 6.45076586 -2.53082970 -0.51731503
v 28.69592759 -2.53082970 6.50204193
v 28.62078353 -8.15305362 6.90555608
v 6.12366238 -8.15305362 2.48169136
v 6.45076586 -2.53082970 2.48169136
v 28.57879178 -2.53082970 7.13022235
v 28.57879178 -8.15305362 7.13022235
v 6.17228519 -8.15305362 3.39513850
v 6.54138041 -2.53082970 3.48086544
v 27.94668636 -2.53082970 7.41401384
v 27.94668636 -8.15305362 7.41401384
v 6.42866432 -8.15305362 3.78978343
v 7.02540309 -2.53082970 4.24059418
v 27.91574539 -2.53082970 7.41844696
v 27.29469373 -8.15305362 7.50269719
v 6.90163622 -8.15305362 4.41796385
v 7.04087506 -2.53082970 4.26424247
v 26.94770004 -2.53082970 7.54851707
v 26.94770004 -8.15305362 7.54851707
v 9.36816402 -8.15305362 7.07996935
v 9.36816402 -2.53082970 7.07996935
v 10.94842161 -2.53082970 7.54999527
v 11.29541529 -8.15305362 7.54999527
v 9.94943231 -8.15305362 7.36375785
v 9.94943231 -2.53082970 7.36375785
v 10.94842161 -8.15305362 7.54999527
f 1 2 3
f 1 3 7
f 1 7 4
f 1 4 9
f 1 9 13
f 1 13 17
f 1 17 21
f 1 21 25
f 1 25 29
f 1 29 33
f 1 33 40
f 1 40 44
f 1 44 48
f 1 48 52
f 1 52 56
f 1 56 60
f 1 60 63
f 1 63 61
f 1 61 57
f 1 57 53
f 1 53 49
f 1 49 45
f 1 45 41
f 1 41 37
f 1 37 36
f 1 36 35
f 1 35 34
f 1 34 30
f 1 30 26
f 1 26 23
f 1 23 19
f 1 19 15
f 1 15 11
f 1 11 6
f 1 6 2
f 2 5 3
f 2 6 5
f 3 5 10
f 3 10 14
f 3 14 18
f 3 18 22
f 3 22 27
f 3 27 31
f 3 31 38
f 3 38 42
f 3 42 46
f 3 46 50
f 3 50 54
f 3 54 58
f 3 58 62
f 3 62 59
f 3 59 55
f 3 55 51
f 3 51 47
f 3 47 43
f 3 43 39
f 3 39 32
f 3 32 28
f 3 28 24
f 3 24 20
f 3 20 16
f 3 16 12
f 3 12 8
f 3 8 7
f 4 7 8
f 4 8 9
f 5 6 10
f 6 11 14
f 6 14 10
f 8 12 13
f 8 13 9
f 11 15 14
f 12 16 13
f 13 16 17
f 14 15 18
f 15 19 18
f 16 20 17
f 17 20 21
f 18 19 22
f 19 23 22
f 20 24 21
f 21 24 25
f 22 23 26
f 22 26 27
f 24 28 25
f 25 28 29
f 26 30 31
f 26 31 27
f 28 32 33
f 28 33 29
f 30 34 31
f 31 34 35
f 31 35 36
f 31 36 37
f 31 37 38
f 32 39 33
f 33 39 40
f 37 41 42
f 37 42 38
f 39 43 40
f 40 43 44
f 41 45 42
f 42 45 46
f 43 47 48
f 43 48 44
f 45 49 50
f 45 50 46
f 47 51 48
f 48 51 52
f 49 53 54
f 49 54 50
f 51 55 52
f 52 55 56
f 53 57 58
f 53 58 54
f 55 59 60
f 55 60 56
f 57 61 62
f 57 62 58
f 59 62 61
f 59 61 63
f 59 63 60

