# https://github.com/mikedh/trimesh
v -32.93002936 42.49988417 76.51291014
v -42.05126543 42.49988417 76.51291014
v -32.93002936 39.50050227 76.51291014
v -32.93002936 42.59425384 76.48089031
v -42.05126543 43.27068156 76.24832935
v -43.05145578 43.26615158 76.24327485
v -43.05145578 42.49988417 76.50616881
v -42.05126543 39.50050227 76.51291014
v -38.05276012 38.62175122 76.24832935
v -37.05257126 38.64062515 76.24832935
v -32.93002936 38.72970786 76.24832935
v -32.93002936 43.27068156 76.24832935
v -42.05126543 43.54547865 75.48155232
v -43.78214792 43.17480389 76.15395670
v -43.05145578 43.53717567 75.48155232
v -43.91182165 42.49988417 76.23990418
v -43.92535199 41.49958952 76.23990418
v -43.05145578 39.50050227 76.50616881
v -43.05145578 38.62477319 76.24327485
v -42.05126543 38.62175122 76.24832935
v -38.05276012 38.12122689 75.86241358
v -32.93002936 38.48812866 75.57592497
v -38.05276012 37.12017526 74.86307559
v -38.05276012 35.83752858 73.58062264
v -37.67501024 35.83752858 73.52163749
v -37.05257126 35.83752858 73.42389716
v -36.53387038 35.83752858 73.14414690
v -36.49665896 35.83752858 73.12392589
v -36.48312713 35.83752858 73.10707257
v -32.93002936 43.54547865 75.48155232
v -32.93002936 43.54623265 75.36021734
v -42.05126543 43.54925463 74.48221433
v -43.05145578 43.54170565 74.48221433
v -43.91182165 43.26464059 75.48155232
v -44.32114432 42.49988417 75.48155232
v -43.92760804 43.26690558 74.48221433
v -44.36963301 41.49958952 75.48155232
v -43.92535199 40.50004589 76.23990418
v -44.37075955 40.50004589 75.48155232
v -43.92196941 39.50050227 76.23990418
v -43.79680480 38.75235777 76.15395670
v -43.05145578 38.12499989 75.85904292
v -42.05126543 38.12122689 75.86241358
v -32.93002936 38.45491077 75.48155232
v -42.05126543 37.12017526 74.86307559
v -42.05126543 35.83752858 73.58062264
v -36.40419516 35.83752858 72.47511616
v -32.93002936 43.54925463 74.48221433
v -33.05293792 43.55000863 59.48372825
v -42.05126543 43.54925463 64.48378589
v -43.05145578 43.54094867 72.48185451
v -43.93437321 43.26388659 68.48113487
v -43.92986409 43.26615158 72.48185451
v -44.37188608 42.49988417 74.48221433
v -44.44067029 41.49958952 74.48221433
v -44.38090730 42.49988417 67.48348370
v -44.37978077 42.49988417 68.48113487
v -44.44518239 39.50050227 74.48221433
v -44.36963301 39.50050227 75.48155232
v -44.02683850 38.45113479 75.53210931
v -43.80131690 37.75130315 75.23214102
v -43.05145578 37.62296458 75.35853349
v -43.05145578 37.12319425 74.85970493
v -32.93002936 38.45038079 74.48221433
v -36.35006932 35.83752858 71.48251950
v -43.05145578 35.83752858 73.57556515
v -32.93002936 43.55000863 59.48372825
v -33.05293792 43.55000863 59.29835064
v -41.05220163 43.54925463 62.48342308
v -42.05126543 43.53188870 63.48276107
v -43.05145578 43.52585071 65.48312388
v -43.05145578 43.53717567 66.48414571
v -43.05145578 43.53868367 68.48113487
v -43.93550273 43.26312960 67.48348370
v -44.44292634 41.49958952 70.48149469
v -44.44405288 40.50004589 73.48119250
v -44.38090730 42.49988417 66.48414571
v -44.44405288 41.49958952 67.48348370
v -44.41022404 38.50096162 74.48221433
v -44.44630893 39.50050227 73.48119250
v -44.44743546 38.50096162 72.48185451
v -44.44630893 38.50096162 73.48119250
v -44.03022109 37.45083716 74.53108748
v -43.80131690 36.75025152 74.23111621
v -43.62428101 35.83752858 73.38008150
v -44.03022109 35.83752858 72.92001409
v -43.82950710 35.83752858 73.27053937
v -32.93002936 38.45038079 59.29835064
v -36.35006932 35.83752858 63.48276107
v -32.93002936 43.55000863 59.29835064
v -39.05182392 43.54925463 59.29835064
v -40.05201427 43.54925463 60.48306326
v -41.05220163 43.53188870 61.48408509
v -42.90712219 43.25709161 63.48276107
v -43.86107989 43.25105064 65.48312388
v -43.93550273 43.26237560 66.48414571
v -44.44179682 41.49958952 66.48414571
v -44.19936229 42.49988417 65.48312388
v -44.40120580 35.83752858 63.81980668
v -44.44405288 40.50004589 66.48414571
v -44.44969151 35.83752858 64.82082851
v -44.44743546 39.50050227 67.48348370
v -44.44743546 39.50050227 68.48113487
v -44.44743546 36.50036636 71.48251950
v -44.41022404 35.83752858 71.81956212
v -44.44856498 38.50096162 68.48113487
v -44.44856498 36.50036636 68.48113487
v -36.43802400 35.83752858 62.59296521
v -37.05257126 35.83752858 62.14975113
v -37.91632122 35.83752858 61.99639632
v -38.05276012 35.83752858 61.97280166
v -38.05276012 38.44962678 59.29835064
v -39.86708667 43.53491068 59.29835064
v -40.05201427 43.53188870 59.48372825
v -41.90805838 43.25709161 61.48408509
v -40.86276491 43.23519869 59.29835064
v -42.70866127 43.15970295 62.67048454
v -43.70659556 43.15970295 64.67084436
v -43.78553051 42.49988417 64.51411889
v -44.01330816 35.83752858 62.70924569
v -44.44856498 38.50096162 67.48348370
v -44.44856498 35.83752858 67.82052632
v -44.44743546 35.83752858 70.81854029
v -38.89508653 35.83752858 61.97448551
v -39.05182392 38.44962678 59.29835064
v -40.06667114 43.49489782 59.29835064
v -40.77819431 43.26690558 59.29835064
v -40.90786804 43.25709161 59.48372825
v -41.17623970 42.49988417 59.29835064
v -41.70847093 43.15970295 60.67012472
v -42.78646670 42.49988417 62.51375906
v -41.78627636 42.49988417 60.51339924
v -43.92309892 35.83752858 62.54746273
v -41.90693185 35.83752858 61.98459750
v -40.06667114 38.50398061 59.29835064
v -42.05126543 35.83752858 61.98628432
v -43.05145578 35.83752858 62.01661732
v -41.17962229 41.49958952 59.29835064
v -41.17962229 40.30980153 59.29835064
v -41.17623970 39.50050227 59.29835064
v -41.14128433 39.35102476 59.29835064
v -40.86276491 38.76519073 59.29835064
f 1 2 8
f 1 8 3
f 1 3 11
f 1 11 22
f 1 22 44
f 1 44 64
f 1 64 88
f 1 88 90
f 1 90 67
f 1 67 48
f 1 48 31
f 1 31 30
f 1 30 12
f 1 12 4
f 1 4 2
f 2 4 5
f 2 5 6
f 2 6 7
f 2 7 18
f 2 18 8
f 3 8 20
f 3 20 9
f 3 9 10
f 3 10 11
f 4 12 5
f 5 12 30
f 5 30 13
f 5 13 6
f 6 14 7
f 6 13 15
f 6 15 14
f 7 14 16
f 7 16 17
f 7 17 38
f 7 38 18
f 8 18 19
f 8 19 20
f 9 20 43
f 9 43 21
f 9 21 10
f 10 21 11
f 11 21 23
f 11 23 24
f 11 24 25
f 11 25 26
f 11 26 27
f 11 27 28
f 11 28 29
f 11 29 22
f 13 31 32
f 13 32 33
f 13 33 15
f 13 30 31
f 14 15 34
f 14 34 35
f 14 35 16
f 15 33 36
f 15 36 34
f 16 35 37
f 16 37 17
f 17 37 39
f 17 39 38
f 18 38 40
f 18 40 41
f 18 41 19
f 19 41 42
f 19 42 20
f 20 42 43
f 21 43 45
f 21 45 23
f 22 29 44
f 23 45 46
f 23 46 24
f 24 46 66
f 24 66 85
f 24 85 87
f 24 87 86
f 24 86 105
f 24 105 123
f 24 123 122
f 24 122 101
f 24 101 99
f 24 99 120
f 24 120 133
f 24 133 137
f 24 137 136
f 24 136 134
f 24 134 124
f 24 124 111
f 24 111 110
f 24 110 109
f 24 109 108
f 24 108 89
f 24 89 65
f 24 65 47
f 24 47 29
f 24 29 28
f 24 28 27
f 24 27 26
f 24 26 25
f 29 47 44
f 31 48 32
f 32 48 67
f 32 67 49
f 32 49 68
f 32 68 50
f 32 50 33
f 33 51 52
f 33 52 53
f 33 53 36
f 33 50 51
f 34 36 54
f 34 54 35
f 35 54 55
f 35 55 37
f 36 53 56
f 36 56 57
f 36 57 54
f 37 55 58
f 37 58 39
f 38 39 59
f 38 59 40
f 39 58 59
f 40 59 41
f 41 59 60
f 41 60 61
f 41 61 42
f 42 61 62
f 42 62 43
f 43 62 63
f 43 63 45
f 44 47 65
f 44 65 64
f 45 63 66
f 45 66 46
f 49 67 90
f 49 90 68
f 50 68 69
f 50 69 70
f 50 70 71
f 50 71 72
f 50 72 73
f 50 73 51
f 51 73 74
f 51 74 52
f 52 74 56
f 52 56 53
f 54 57 55
f 55 57 56
f 55 56 75
f 55 75 76
f 55 76 80
f 55 80 58
f 56 74 77
f 56 77 78
f 56 78 75
f 58 79 59
f 58 80 81
f 58 81 82
f 58 82 79
f 59 79 60
f 60 79 83
f 60 83 61
f 61 84 85
f 61 85 66
f 61 66 63
f 61 63 62
f 61 83 86
f 61 86 87
f 61 87 84
f 64 65 89
f 64 89 88
f 68 90 88
f 68 88 112
f 68 112 125
f 68 125 135
f 68 135 142
f 68 142 141
f 68 141 140
f 68 140 139
f 68 139 138
f 68 138 129
f 68 129 116
f 68 116 127
f 68 127 126
f 68 126 113
f 68 113 91
f 68 91 92
f 68 92 69
f 69 92 114
f 69 114 93
f 69 93 70
f 70 94 71
f 70 93 115
f 70 115 94
f 71 95 96
f 71 96 72
f 71 94 95
f 72 96 73
f 73 96 74
f 74 96 77
f 75 78 76
f 76 78 80
f 77 97 78
f 77 96 95
f 77 95 98
f 77 98 99
f 77 99 97
f 78 97 100
f 78 100 101
f 78 101 102
f 78 102 103
f 78 103 80
f 79 82 104
f 79 104 105
f 79 105 86
f 79 86 83
f 80 103 106
f 80 106 81
f 81 104 82
f 81 106 101
f 81 101 107
f 81 107 104
f 84 87 85
f 88 89 108
f 88 108 109
f 88 109 110
f 88 110 111
f 88 111 112
f 91 113 92
f 92 113 114
f 93 114 128
f 93 128 115
f 94 115 116
f 94 116 117
f 94 117 118
f 94 118 95
f 95 118 98
f 97 99 101
f 97 101 100
f 98 118 119
f 98 119 120
f 98 120 99
f 101 106 121
f 101 121 102
f 101 122 104
f 101 104 107
f 102 121 106
f 102 106 103
f 104 123 105
f 104 122 123
f 111 124 125
f 111 125 112
f 113 126 114
f 114 126 127
f 114 127 128
f 115 128 116
f 116 128 127
f 116 129 130
f 116 130 117
f 117 131 119
f 117 119 118
f 117 130 132
f 117 132 131
f 119 131 120
f 120 131 132
f 120 132 129
f 120 129 133
f 124 134 125
f 125 134 136
f 125 136 137
f 125 137 135
f 129 132 130
f 129 138 133
f 133 138 139
f 133 139 140
f 133 140 141
f 133 141 142
f 133 142 137
f 135 137 142

