# https://github.com/mikedh/trimesh
v -14.42878346 34.50244438 16.34161551
v -14.42946817 34.49986050 15.76245575
v -14.43152231 34.50244438 15.76028613
v -14.43015289 34.50244438 18.47995353
v -14.42399047 31.50002560 18.48212315
v -14.42262104 30.50072933 18.48212315
v -14.42262104 29.50078337 18.48212315
v -14.44179300 29.50078337 15.77590414
v -15.05255963 29.50078337 15.29175182
v -15.05255963 31.50002560 15.28394356
v -15.05255963 32.49997156 15.28003794
v -15.05255963 33.49991454 15.27700107
v -15.05255963 34.49986050 15.27439782
v -15.05529848 34.50244438 15.27396419
v -14.43015289 34.49986050 18.48212315
v -14.47328979 34.50244438 19.09295256
v -14.47192037 30.50072933 19.09859268
v -14.47260508 29.50078337 19.09772394
v -14.49999397 28.69398156 19.05824604
v -14.48835385 28.63778295 18.48212315
v -14.48972327 28.50084039 16.18283515
v -14.48972327 28.50084039 15.86353695
v -15.05255963 28.50084039 15.49825346
v -18.05161613 29.50078337 15.11171333
v -18.05161613 30.50072933 15.10824282
v -18.05161613 34.49986050 15.10216907
v -18.05503970 34.50244438 15.10216907
v -14.47397451 34.49986050 19.09425344
v -14.47260508 31.50002560 19.09815906
v -15.05255963 34.50244438 19.44565491
v -15.05255963 31.50002560 19.44825816
v -15.05255963 30.50072933 19.44869179
v -15.05255963 29.50078337 19.44782304
v -14.96902430 28.41621912 19.22613702
v -15.24633429 27.95048327 19.07907054
v -14.66843406 28.13780997 18.48212315
v -14.54176145 27.99053190 16.01884680
v -14.54176145 27.99053190 15.96071401
v -15.05255963 27.95500432 15.84227881
v -18.05161613 28.50084039 15.35075186
v -20.05167197 29.50078337 15.16594199
v -20.22353563 34.50244438 15.12602897
v -18.05161613 34.50244438 19.53372135
v -18.05161613 32.49997156 19.53328772
v -18.05161613 31.50002560 19.53285409
v -18.05161613 30.50072933 19.53242047
v -18.05161613 29.50078337 19.52764834
v -18.05161613 28.50084039 19.35455011
v -15.16827666 27.93045598 18.48212315
v -18.05161613 27.93820762 19.08340830
v -18.05161613 27.90332675 18.48212315
v -18.05161613 27.93110270 15.78457965
v -15.69550814 27.95048327 15.81755166
v -20.71379225 27.95048327 15.83403693
v -19.96471270 28.40265302 15.55291575
v -20.91441385 28.50084039 15.63664443
v -21.03355463 29.50078337 15.51126822
v -20.86785338 34.50244438 15.30520021
v -20.05167197 34.50244438 19.49771395
v -20.05167197 31.50002560 19.49684669
v -20.05167197 30.50072933 19.49641232
v -20.05167197 29.50078337 19.49250819
v -20.92194569 28.50084039 19.23481403
v -20.72132409 27.95048327 19.07993780
v -20.75419030 27.92916553 18.48212315
v -21.18213805 28.50084039 18.48212315
v -21.30812521 29.50078337 16.48260972
v -21.31360291 30.50072933 16.48260972
v -21.03423934 30.50072933 15.50519447
v -20.96919087 34.50244438 15.39066488
v -21.02876164 34.50244438 19.34153535
v -21.03697819 29.50078337 19.34110172
v -21.41220231 29.50078337 18.48212315
v -21.41631058 30.50072933 18.48212315
v -21.31976607 34.50244438 16.48260972
v -21.03492405 33.49991454 15.48697470
v -21.03492405 32.49997156 15.49348208
v -21.41151759 34.50244438 18.48212315
v -21.41494116 32.49997156 18.48212315
v -21.03560876 30.50072933 19.34110172
v -21.41631058 31.50002560 18.48212315
f 1 2 3
f 1 3 14
f 1 14 27
f 1 27 42
f 1 42 58
f 1 58 70
f 1 70 75
f 1 75 78
f 1 78 71
f 1 71 59
f 1 59 43
f 1 43 30
f 1 30 16
f 1 16 4
f 1 4 5
f 1 5 6
f 1 6 2
f 2 6 7
f 2 7 8
f 2 8 3
f 3 8 9
f 3 9 10
f 3 10 11
f 3 11 12
f 3 12 13
f 3 13 14
f 4 15 5
f 4 16 15
f 5 15 16
f 5 16 6
f 6 16 17
f 6 17 7
f 7 17 18
f 7 18 19
f 7 19 20
f 7 20 21
f 7 21 22
f 7 22 8
f 8 22 9
f 9 22 23
f 9 23 24
f 9 24 10
f 10 24 11
f 11 24 25
f 11 25 12
f 12 25 14
f 12 14 13
f 14 25 26
f 14 26 27
f 16 28 29
f 16 29 17
f 16 30 28
f 17 29 31
f 17 31 32
f 17 32 33
f 17 33 18
f 18 33 19
f 19 33 34
f 19 34 35
f 19 35 36
f 19 36 37
f 19 37 20
f 20 37 21
f 21 37 38
f 21 38 22
f 22 38 23
f 23 38 39
f 23 39 40
f 23 40 24
f 24 40 41
f 24 41 42
f 24 42 25
f 25 42 27
f 25 27 26
f 28 30 29
f 29 30 31
f 30 43 31
f 31 43 32
f 32 43 44
f 32 44 45
f 32 45 46
f 32 46 33
f 33 46 47
f 33 47 48
f 33 48 34
f 34 48 35
f 35 49 36
f 35 48 50
f 35 50 51
f 35 51 49
f 36 49 37
f 37 49 38
f 38 49 39
f 39 49 51
f 39 51 52
f 39 52 53
f 39 53 40
f 40 52 54
f 40 54 55
f 40 55 41
f 40 53 52
f 41 55 56
f 41 56 57
f 41 57 58
f 41 58 42
f 43 59 44
f 44 59 60
f 44 60 45
f 45 60 61
f 45 61 46
f 46 61 62
f 46 62 47
f 47 62 48
f 48 62 63
f 48 63 64
f 48 64 50
f 50 64 51
f 51 64 65
f 51 65 54
f 51 54 52
f 54 65 66
f 54 66 56
f 54 56 55
f 56 66 67
f 56 67 57
f 57 67 68
f 57 68 69
f 57 69 70
f 57 70 58
f 59 71 72
f 59 72 60
f 60 72 61
f 61 72 62
f 62 72 63
f 63 72 73
f 63 73 66
f 63 66 64
f 64 66 65
f 66 73 67
f 67 73 68
f 68 73 74
f 68 74 75
f 68 75 76
f 68 76 77
f 68 77 69
f 69 77 76
f 69 76 70
f 70 76 75
f 71 78 79
f 71 79 80
f 71 80 72
f 72 80 79
f 72 79 81
f 72 81 74
f 72 74 73
f 74 81 75
f 75 81 79
f 75 79 78

