# https://github.com/mikedh/trimesh
v -50.03487984 2.29843828 47.35287460
v -52.05204232 2.29354433 47.29615147
v -50.25909311 2.29354433 47.34237070
v -50.05250803 2.29354433 47.34447178
v -50.03487984 2.29354433 47.32766465
v -50.03487984 2.52233825 47.32871519
v -53.05200020 2.29354433 47.22052013
v -52.05204232 2.50031531 47.26358775
v -53.05200020 2.50031531 47.19320762
v -50.03487984 2.29354433 37.93882620
v -50.03487984 3.57821646 47.14488731
v -53.63687459 2.29354433 47.06715489
v -53.58666629 3.19159139 47.01253135
v -53.62882791 2.50031531 47.05665100
v -52.05204232 3.47544248 47.07450866
v -53.05200020 3.37144548 47.04824669
v -50.96891455 2.29354433 37.74869657
v -50.03487984 4.29396190 36.62157396
v -50.03487984 3.64183813 47.12808018
v -52.05204232 3.97462942 46.97681750
v -53.83157741 2.29354433 46.48205996
v -53.82353073 2.50031531 46.48205996
v -53.05200020 3.87063205 46.94320325
v -53.05200020 4.50073287 46.75097254
v -53.62384493 6.16958291 46.05137932
v -53.70165036 5.50033015 46.17007828
v -53.74495938 4.50073287 46.33394742
v -52.03364522 2.29354433 37.54596160
v -50.03487984 14.79278987 36.62157396
v -52.05204232 3.81679827 36.62157396
v -50.03487984 4.51908564 46.82870496
v -52.05204232 4.50073287 46.82030214
v -53.94272888 2.29354433 45.48204099
v -53.94157850 4.50073287 45.48204099
v -53.94234443 3.50113598 45.48204099
v -53.94272888 2.50031531 45.48204099
v -53.89865096 5.50033015 45.48204099
v -53.05200020 5.50033015 46.40957875
v -53.05200020 6.28826175 46.10179922
v -53.05200020 6.78867283 45.86019916
v -53.59969893 8.08435587 45.03350119
v -53.67865176 7.50074734 45.18791697
v -53.74687568 6.50237421 45.51565376
v -52.84579957 2.29354433 37.44511919
v -52.05204232 14.76709563 36.62157396
v -52.05204232 14.48446943 37.48293524
v -50.03487984 14.49547997 37.48293524
v -53.05200020 2.29354433 37.42200958
v -53.05200020 3.63449702 36.62157396
v -50.03487984 5.52480025 46.47575673
v -52.05204232 5.50033015 46.46420230
v -53.94349480 2.29354433 45.27510274
v -53.90861692 8.50034461 43.48200154
v -53.93467922 9.49994188 42.48198182
v -53.94924371 10.49953915 41.48301264
v -53.94847778 3.50113598 43.48200154
v -53.86377307 7.50074734 44.48202052
v -52.05204232 6.33108499 46.12175797
v -52.05204232 6.83027118 45.90536785
v -52.05204232 7.50074734 45.53666304
v -53.05200020 7.50074734 45.46628440
v -53.05200020 8.17489442 45.08707419
v -53.05200020 8.67285797 44.73727758
v -53.05200020 9.32865192 44.23726810
v -53.05200020 9.82906225 43.84335259
v -53.63649312 9.17082077 44.11016483
v -53.70701481 8.45018101 44.45891090
v -52.19117239 14.75975527 36.62157396
v -53.05200020 14.42696398 37.48293524
v -53.05200020 14.11864353 38.26131141
v -52.05204232 14.14433628 38.30963172
v -50.03487984 14.16513546 38.28757264
v -53.73537787 2.29354433 37.68461967
v -53.68286881 3.68833117 36.76653452
v -53.73192674 4.04803898 36.62157396
v -50.03487984 6.36901316 46.15957438
v -53.94579258 2.29354433 44.48202052
v -53.94579258 2.50031531 44.48202052
v -53.74955791 9.50238867 43.50195954
v -53.77868689 10.54113751 42.53240321
v -53.76718908 11.53094689 41.49246674
v -53.92011473 11.49913568 40.48299366
v -53.93927775 12.49995635 38.48295421
v -53.93851182 13.49955287 36.62157396
v -53.94809333 11.49913568 39.48297394
v -53.94694295 12.49995635 36.62157396
v -53.94885926 10.49953915 36.62157396
v -53.94962518 9.49994188 36.62157396
v -53.94962518 9.49994188 41.48301264
v -53.94962518 2.50031531 42.48198182
v -53.94847778 2.50031531 43.48200154
v -50.03487984 6.88165817 45.91272014
v -50.03487984 7.52154726 45.55031855
v -52.05204232 8.22016370 45.11333617
v -52.05204232 8.71812725 44.79925341
v -52.05204232 9.40573240 44.29924392
v -52.05204232 9.90614273 43.90637895
v -53.05200020 10.41267078 43.34334310
v -53.66485617 10.23526385 43.18157504
v -53.05200020 14.69613286 36.62157396
v -53.61502935 14.06358636 38.13105690
v -53.05200020 13.87149722 38.76132164
v -52.05204232 13.92043593 38.80964195
v -50.03487984 13.54849308 39.48297394
v -53.93314439 2.29354433 38.48295421
v -53.81509662 4.47503975 36.62157396
v -53.94579258 2.29354433 40.27605690
v -53.68440066 11.21773138 42.23197670
v -53.64645908 12.13290781 41.16577975
v -53.70394813 12.47915642 40.41261352
v -53.86109085 12.49995635 39.48297394
v -53.89481835 13.49955287 37.48293524
v -53.74112677 14.31562625 36.62157396
v -53.94656148 12.49995635 37.48293524
v -53.94962518 6.50115081 36.62157396
v -53.94962518 2.50031531 40.48299366
v -50.03487984 8.21527013 45.12594115
v -50.03487984 8.72913853 44.79190113
v -50.03487984 9.42897911 44.30344533
v -50.03487984 9.94407091 43.90637895
v -52.05204232 10.46528116 43.40636946
v -53.05200020 10.91308037 42.90530943
v -53.14206937 14.66309975 36.62157396
v -53.74189270 13.52647051 38.47139978
v -53.66332134 13.18022040 39.48297394
v -53.57900108 13.02973110 40.03340481
v -53.69781478 14.18593464 37.48293524
v -52.05204232 13.55828171 39.48297394
v -53.05200020 13.46162470 39.48297394
v -50.03487984 13.15452765 40.22773659
v -53.94464518 2.29354433 39.48297394
v -53.93889330 2.50031531 38.48295421
v -53.94924371 5.50033015 36.62157396
v -53.94847778 2.50031531 39.48297394
v -53.05200020 11.37189235 42.40529994
v -53.05200020 11.87230268 41.82335589
v -53.05200020 12.25892775 41.32334565
v -50.03487984 10.44937556 43.42002497
v -52.05204232 10.96446736 42.94627672
v -53.05200020 13.08968184 40.12794436
v -53.05200020 12.75933733 40.62795459
v -52.05204232 13.13739865 40.20462623
v -52.05204232 12.82418314 40.70463646
v -50.03487984 12.84620571 40.71724144
v -52.05204232 11.42083180 42.44626648
v -52.05204232 11.92124214 41.89373527
v -52.05204232 12.32377281 41.39372504
v -50.03487984 10.96446736 42.91896495
v -50.03487984 11.45264301 42.43261097
v -50.03487984 11.96406463 41.91684489
v -50.03487984 12.33845427 41.42944038
f 1 2 3
f 1 3 4
f 1 4 5
f 1 5 10
f 1 10 18
f 1 18 29
f 1 29 47
f 1 47 72
f 1 72 104
f 1 104 130
f 1 130 144
f 1 144 151
f 1 151 150
f 1 150 149
f 1 149 148
f 1 148 138
f 1 138 120
f 1 120 119
f 1 119 118
f 1 118 117
f 1 117 93
f 1 93 92
f 1 92 76
f 1 76 50
f 1 50 31
f 1 31 19
f 1 19 11
f 1 11 6
f 1 6 2
f 2 7 12
f 2 12 21
f 2 21 33
f 2 33 52
f 2 52 77
f 2 77 107
f 2 107 131
f 2 131 105
f 2 105 73
f 2 73 48
f 2 48 44
f 2 44 28
f 2 28 17
f 2 17 10
f 2 10 5
f 2 5 4
f 2 4 3
f 2 6 8
f 2 8 9
f 2 9 7
f 6 11 8
f 7 9 13
f 7 13 14
f 7 14 12
f 8 11 15
f 8 15 16
f 8 16 9
f 9 16 13
f 10 17 18
f 11 19 20
f 11 20 15
f 12 14 22
f 12 22 21
f 13 16 23
f 13 23 24
f 13 24 25
f 13 25 26
f 13 26 27
f 13 27 14
f 14 27 22
f 15 20 16
f 16 20 23
f 17 28 18
f 18 28 30
f 18 30 49
f 18 49 75
f 18 75 106
f 18 106 133
f 18 133 115
f 18 115 88
f 18 88 87
f 18 87 86
f 18 86 84
f 18 84 113
f 18 113 123
f 18 123 100
f 18 100 68
f 18 68 45
f 18 45 29
f 19 31 32
f 19 32 20
f 20 32 23
f 21 22 34
f 21 34 35
f 21 35 36
f 21 36 33
f 22 27 37
f 22 37 34
f 23 32 24
f 24 32 38
f 24 38 25
f 25 38 39
f 25 39 40
f 25 40 41
f 25 41 42
f 25 42 43
f 25 43 26
f 26 43 37
f 26 37 27
f 28 44 30
f 29 45 46
f 29 46 47
f 30 44 48
f 30 48 49
f 31 50 32
f 32 50 51
f 32 51 38
f 33 36 52
f 34 37 53
f 34 53 54
f 34 54 55
f 34 55 35
f 35 56 52
f 35 52 36
f 35 55 56
f 37 43 57
f 37 57 53
f 38 51 39
f 39 51 58
f 39 58 59
f 39 59 40
f 40 59 60
f 40 60 61
f 40 61 41
f 41 61 62
f 41 62 63
f 41 63 64
f 41 64 65
f 41 65 66
f 41 66 67
f 41 67 42
f 42 67 57
f 42 57 43
f 45 68 46
f 46 69 70
f 46 70 71
f 46 71 72
f 46 72 47
f 46 68 69
f 48 73 74
f 48 74 49
f 49 74 75
f 50 76 51
f 51 76 58
f 52 56 78
f 52 78 77
f 53 57 79
f 53 79 80
f 53 80 54
f 54 80 55
f 55 80 81
f 55 81 82
f 55 82 83
f 55 83 84
f 55 84 85
f 55 85 86
f 55 86 87
f 55 87 88
f 55 88 89
f 55 89 56
f 56 90 91
f 56 91 77
f 56 77 78
f 56 89 90
f 57 67 79
f 58 76 59
f 59 92 60
f 59 76 92
f 60 62 61
f 60 92 93
f 60 93 94
f 60 94 62
f 62 94 95
f 62 95 63
f 63 95 96
f 63 96 64
f 64 96 97
f 64 97 65
f 65 97 98
f 65 98 66
f 66 98 99
f 66 99 79
f 66 79 67
f 68 100 69
f 69 100 101
f 69 101 70
f 70 101 102
f 70 102 103
f 70 103 71
f 71 103 72
f 72 103 104
f 73 105 106
f 73 106 75
f 73 75 74
f 77 91 90
f 77 90 116
f 77 116 107
f 79 99 80
f 80 108 81
f 80 99 108
f 81 109 110
f 81 110 111
f 81 111 82
f 81 108 109
f 82 111 112
f 82 112 83
f 83 112 84
f 84 112 113
f 84 86 114
f 84 114 85
f 85 114 86
f 88 115 116
f 88 116 90
f 88 90 89
f 93 117 94
f 94 117 95
f 95 118 119
f 95 119 96
f 95 117 118
f 96 119 120
f 96 120 97
f 97 120 121
f 97 121 122
f 97 122 98
f 98 122 99
f 99 122 108
f 100 123 101
f 101 124 125
f 101 125 126
f 101 126 102
f 101 123 127
f 101 127 124
f 102 128 103
f 102 126 129
f 102 129 128
f 103 128 130
f 103 130 104
f 105 131 132
f 105 132 133
f 105 133 106
f 107 116 134
f 107 134 131
f 108 122 135
f 108 135 136
f 108 136 109
f 109 136 137
f 109 137 126
f 109 126 125
f 109 125 110
f 110 125 124
f 110 124 111
f 111 124 112
f 112 124 127
f 112 127 113
f 113 127 123
f 115 133 116
f 116 133 134
f 120 138 139
f 120 139 121
f 121 139 122
f 122 139 135
f 126 140 129
f 126 137 141
f 126 141 140
f 128 129 140
f 128 140 142
f 128 142 130
f 130 142 143
f 130 143 144
f 131 134 132
f 132 134 133
f 135 139 145
f 135 145 146
f 135 146 136
f 136 146 147
f 136 147 137
f 137 147 143
f 137 143 141
f 138 148 139
f 139 148 149
f 139 149 150
f 139 150 145
f 140 141 143
f 140 143 142
f 143 147 151
f 143 151 144
f 145 150 146
f 146 150 147
f 147 150 151

