# https://github.com/mikedh/trimesh
v -44.64843555 9.21906806 43.78660859
v -44.05213488 9.36682969 43.78660859
v -44.64843555 14.18463823 43.78660859
v -44.64843555 9.77366012 40.11782491
v -43.69985125 9.50535625 43.78660859
v -44.64843555 14.18463823 36.62227506
v -41.75308529 14.18463823 43.78660859
v -44.64843555 9.87135798 39.83237343
v -43.27671512 9.69443311 43.78660859
v -43.28436840 14.18463823 36.62227506
v -44.64843555 11.74365415 36.62227506
v -41.75308529 14.14137838 43.78660859
v -41.75308529 14.18463823 43.73891712
v -44.64843555 10.16493736 39.27970662
v -43.11686932 10.14063415 43.78660859
v -44.64843555 10.79341060 38.20102352
v -44.64843555 11.16475889 37.56559624
v -44.48745726 11.88801308 36.79761370
v -43.23675292 14.18463823 36.79761370
v -44.52458524 11.94585454 36.62227506
v -44.64843555 11.72566983 36.64822523
v -42.99245275 10.50031700 43.78660859
v -41.75308529 14.15061418 43.77608831
v -44.64843555 11.21482265 37.48283689
f 1 2 5
f 1 5 9
f 1 9 15
f 1 15 22
f 1 22 12
f 1 12 7
f 1 7 3
f 1 3 6
f 1 6 11
f 1 11 21
f 1 21 24
f 1 24 17
f 1 17 16
f 1 16 14
f 1 14 8
f 1 8 4
f 1 4 2
f 2 4 5
f 3 7 13
f 3 13 19
f 3 19 10
f 3 10 6
f 4 8 9
f 4 9 5
f 6 10 20
f 6 20 11
f 7 12 23
f 7 23 13
f 8 14 9
f 9 14 16
f 9 16 17
f 9 17 18
f 9 18 10
f 9 10 19
f 9 19 15
f 10 18 20
f 11 20 21
f 12 22 19
f 12 19 23
f 13 23 19
f 15 19 22
f 17 24 18
f 18 24 21
f 18 21 20

