# https://github.com/mikedh/trimesh
v -6.48811299 -45.50017055 -10.51777303
v -6.51980871 -46.04284160 -3.51731087
v -6.51980871 -46.04311280 -10.51777303
v -6.51980871 -46.04284160 -11.51747759
v -6.49037724 -45.50017055 -11.51747759
v -6.52207296 -44.94313171 -11.51747759
v -6.52207296 -44.94286051 -10.51777303
v -6.52207296 -44.94258930 -7.51613209
v -6.52207296 -44.94258930 13.23785327
v -6.49716923 -45.36518005 13.23785327
v -6.49037724 -45.50017055 13.23785327
v -6.51980871 -46.04202799 13.23785327
v -6.51980871 -46.04229919 8.48167857
v -7.05410823 -46.31770127 -3.51731087
v -7.05410823 -46.31715886 9.48138462
v -7.05410823 -46.31743006 3.48062702
v -7.05410823 -46.31797247 -10.51777303
v -7.05410823 -46.31580285 -11.51747759
v -6.53112920 -46.02847380 -12.05014989
v -6.52207296 -45.50017055 -12.06277126
v -6.53339270 -44.96237818 -12.04510134
v -6.82771044 -43.78107794 -10.51777303
v -6.82997468 -43.78107794 13.23785327
v -6.82771044 -43.78107794 -9.51554121
v -6.64885585 -46.10843992 13.23785327
v -7.29409002 -46.37326806 13.23785327
v -7.05410823 -46.31688766 13.23785327
v -8.05252384 -46.54973174 -10.51777303
v -8.05252384 -46.54973174 13.23785327
v -8.05252384 -46.54566668 -11.51747759
v -7.05410823 -46.15695841 -12.17384822
v -7.05410823 -45.50017055 -12.32784378
v -7.10165219 -43.78107794 -12.24706108
v -7.03826075 -43.78107794 -12.05267416
v -6.87978214 -43.78107794 -11.51747759
v -24.23318933 -43.78107794 13.23785327
v -28.05026065 -46.54973174 -10.51777303
v -28.05026065 -46.54973174 13.23785327
v -28.05026065 -46.54566668 -11.51747759
v -8.05252384 -46.27080701 -12.28240388
v -8.05252384 -45.50017055 -12.55000366
v -8.05252384 -43.78107794 -12.46669370
v -29.27507256 -43.78107794 13.23532899
v -29.27054555 -43.78189155 13.23785327
v -29.05093975 -46.31498924 -9.51554121
v -29.05093975 -46.31471804 -10.51777303
v -29.05093975 -46.31255139 -11.51747759
v -28.29250444 -46.49308014 13.23785327
v -29.05093975 -46.31553164 13.23785327
v -29.05093975 -46.15533418 -12.17132692
v -28.05026065 -46.27080701 -12.28240388
v -9.05320294 -43.78107794 -12.55000366
v -28.05026065 -45.50017055 -12.55000366
v -29.58523927 -44.93771063 1.48121790
v -29.58297428 -44.93852424 13.23785327
v -29.27507256 -43.78107794 -10.52029730
v -29.58523927 -44.93689702 -7.51613209
v -29.58523927 -44.93743943 0.48151036
v -29.58297428 -46.04012957 -8.51583665
v -29.58297428 -46.03985836 -11.51747759
v -29.57165528 -46.02657836 -12.04762562
v -29.17998465 -46.24885149 13.23785327
v -29.58297428 -46.04040077 3.48062702
v -29.05093975 -45.50017055 -12.33037103
v -27.05184355 -43.78107794 -12.55000366
v -28.74303803 -43.78107794 -12.32279523
v -28.05026065 -43.78107794 -12.46669370
v -29.59202977 -45.07432835 13.23785327
v -29.61693425 -45.50017055 -10.51777303
v -29.22300160 -43.78107794 -11.51747759
v -29.57391729 -44.95831013 -12.04762562
v -29.58523927 -44.93689702 -11.51747759
v -29.61466925 -45.50017055 -11.51747759
v -29.58297428 -45.50017055 -12.06277126
v -29.58297428 -46.04040077 13.23785327
v -29.00113080 -43.78107794 -12.24706108
v -29.61466925 -45.50017055 13.23785327
v -29.60787726 -45.63082180 13.23785327
f 1 2 3
f 1 3 4
f 1 4 5
f 1 5 6
f 1 6 7
f 1 7 8
f 1 8 9
f 1 9 10
f 1 10 11
f 1 11 12
f 1 12 13
f 1 13 2
f 2 14 17
f 2 17 3
f 2 13 15
f 2 15 16
f 2 16 14
f 3 17 4
f 4 18 19
f 4 19 5
f 4 17 18
f 5 19 20
f 5 20 21
f 5 21 6
f 6 22 7
f 6 21 22
f 7 22 8
f 8 22 24
f 8 24 9
f 9 23 36
f 9 36 44
f 9 44 55
f 9 55 68
f 9 68 77
f 9 77 78
f 9 78 75
f 9 75 62
f 9 62 49
f 9 49 48
f 9 48 38
f 9 38 29
f 9 29 26
f 9 26 27
f 9 27 25
f 9 25 12
f 9 12 11
f 9 11 10
f 9 24 23
f 12 25 13
f 13 25 15
f 14 16 26
f 14 26 17
f 15 25 27
f 15 27 26
f 15 26 16
f 17 28 18
f 17 26 29
f 17 29 28
f 18 30 31
f 18 31 19
f 18 28 30
f 19 31 32
f 19 32 20
f 20 32 21
f 21 32 33
f 21 33 34
f 21 34 35
f 21 35 22
f 22 35 34
f 22 34 33
f 22 33 42
f 22 42 52
f 22 52 65
f 22 65 67
f 22 67 66
f 22 66 76
f 22 76 70
f 22 70 56
f 22 56 43
f 22 43 36
f 22 36 23
f 22 23 24
f 28 37 39
f 28 39 30
f 28 29 38
f 28 38 37
f 30 39 51
f 30 51 40
f 30 40 31
f 31 40 41
f 31 41 32
f 32 41 42
f 32 42 33
f 36 43 44
f 37 45 46
f 37 46 47
f 37 47 39
f 37 38 48
f 37 48 49
f 37 49 45
f 39 47 50
f 39 50 51
f 40 51 53
f 40 53 41
f 41 52 42
f 41 53 65
f 41 65 52
f 43 54 55
f 43 55 44
f 43 56 72
f 43 72 57
f 43 57 58
f 43 58 54
f 45 59 60
f 45 60 46
f 45 49 59
f 46 60 47
f 47 60 61
f 47 61 50
f 49 62 63
f 49 63 59
f 50 61 64
f 50 64 53
f 50 53 51
f 53 64 66
f 53 66 67
f 53 67 65
f 54 68 55
f 54 58 69
f 54 69 68
f 56 70 71
f 56 71 72
f 57 72 69
f 57 69 58
f 59 69 60
f 59 63 69
f 60 69 73
f 60 73 61
f 61 73 74
f 61 74 64
f 62 75 63
f 63 75 69
f 64 74 71
f 64 71 76
f 64 76 66
f 68 69 77
f 69 72 73
f 69 75 78
f 69 78 77
f 70 76 71
f 71 74 73
f 71 73 72

