# https://github.com/mikedh/trimesh
v -13.05175184 36.22679415 44.67540160
v -13.05175184 35.97871801 44.96110194
v -13.73329563 35.98115883 44.96322536
v -13.95798491 36.22679415 44.69390300
v -12.09734133 36.22679415 44.69966532
v -13.05175184 35.76790096 45.48245971
v -12.30541775 35.99071948 44.97323454
v -12.00430914 35.81643436 45.38571031
v -14.06056955 35.85975828 45.41239996
v -14.39988768 36.01360185 45.03237614
v -14.17769036 36.22679415 44.72999385
v -11.88677295 36.22679415 44.70876403
v -12.05248650 35.55312615 46.48241163
v -13.05175184 35.56592037 46.48241163
v -11.63882561 36.00285506 44.98779158
v -11.37966451 35.85039433 45.65442619
v -14.05184775 35.64603847 46.48241163
v -14.63496025 35.91936927 45.69900927
v -14.62291575 36.22679415 44.84433568
v -11.07730997 36.22679415 45.36629993
v -12.05248650 35.77587910 47.25277093
v -13.05175184 35.77686854 47.26065667
v -11.29327744 35.77535159 46.48241163
v -11.37966451 35.85039433 47.16026839
v -14.05184775 35.80746678 47.23457351
v -11.05862043 36.22679415 45.39359606
v -10.82562473 36.22679415 46.48241163
v -14.66610928 35.89173936 47.13024235
v -14.69975036 35.85824133 46.48241163
v -14.91114949 36.22679415 45.48337018
v -12.05248650 36.22679415 47.74440665
v -13.05175184 36.22679415 47.77382621
v -14.05184775 36.22679415 47.75532481
v -10.83849960 36.22679415 46.53488045
v -11.13711635 36.22679415 47.40108166
v -14.93731479 36.22679415 47.39137498
v -15.06855651 36.22679415 46.48241163
f 1 2 3
f 1 3 4
f 1 4 11
f 1 11 19
f 1 19 30
f 1 30 37
f 1 37 36
f 1 36 33
f 1 33 32
f 1 32 31
f 1 31 35
f 1 35 34
f 1 34 27
f 1 27 26
f 1 26 20
f 1 20 12
f 1 12 5
f 1 5 2
f 2 6 3
f 2 5 7
f 2 7 8
f 2 8 6
f 3 6 9
f 3 9 10
f 3 10 11
f 3 11 4
f 5 12 7
f 6 8 13
f 6 13 14
f 6 14 9
f 7 12 15
f 7 15 8
f 8 15 16
f 8 16 13
f 9 14 17
f 9 17 18
f 9 18 10
f 10 18 19
f 10 19 11
f 12 20 15
f 13 21 22
f 13 22 14
f 13 16 23
f 13 23 24
f 13 24 21
f 14 22 25
f 14 25 17
f 15 20 16
f 16 20 26
f 16 26 27
f 16 27 23
f 17 25 28
f 17 28 29
f 17 29 18
f 18 29 30
f 18 30 19
f 21 24 31
f 21 31 32
f 21 32 22
f 22 32 33
f 22 33 25
f 23 27 24
f 24 27 34
f 24 34 35
f 24 35 31
f 25 33 28
f 28 36 37
f 28 37 29
f 28 33 36
f 29 37 30

