# https://github.com/mikedh/trimesh
v -36.20386861 19.49718419 24.48764320
v -36.20386861 19.49718419 24.29090263
v -36.35040460 22.49983692 36.62157396
v -36.20443783 19.49718419 36.62157396
v -42.02827875 19.49718419 24.29090263
v -36.35040460 22.49983692 24.29090263
v -36.43707181 23.05306104 36.62157396
v -42.02827875 19.49718419 36.62157396
v -42.02827875 23.54953520 24.29090263
v -36.45132635 23.14275171 24.29090263
v -36.45132635 23.14275171 36.62157396
v -42.02827875 22.80145180 36.62157396
v -42.02827875 23.54953520 36.61795295
v -41.19125123 23.54993158 36.62157396
v -41.05212712 23.54993158 24.29090263
v -37.05229857 23.41896740 24.29090263
v -37.05229857 23.41857102 34.48156997
v -37.05229857 23.41817316 36.62157396
v -37.05229857 23.41896740 29.48339958
v -38.05239951 23.55072581 36.62157396
v -38.05239951 23.55112219 30.48158524
v -38.05239951 23.55112219 24.29090263
v -37.86138624 23.52612086 24.29090263
v -37.19199340 23.43682655 36.62157396
f 1 2 6
f 1 6 3
f 1 3 4
f 1 4 8
f 1 8 5
f 1 5 2
f 2 5 9
f 2 9 15
f 2 15 22
f 2 22 23
f 2 23 16
f 2 16 10
f 2 10 6
f 3 7 11
f 3 11 18
f 3 18 24
f 3 24 20
f 3 20 14
f 3 14 12
f 3 12 8
f 3 8 4
f 3 6 7
f 5 8 12
f 5 12 13
f 5 13 9
f 6 10 7
f 7 10 11
f 9 13 14
f 9 14 15
f 10 16 19
f 10 19 11
f 11 17 18
f 11 19 17
f 12 14 13
f 14 20 21
f 14 21 22
f 14 22 15
f 16 23 19
f 17 20 24
f 17 24 18
f 17 19 20
f 19 23 21
f 19 21 20
f 21 23 22

