# https://github.com/mikedh/trimesh
v -3.00129677 36.22627559 44.75425757
v -3.00376218 36.22627559 45.48171763
v -3.05860775 32.50111300 45.48171763
v -3.00129677 36.22627559 43.48151278
v -6.41964134 36.22679117 48.00737959
v -3.22930987 36.22627559 46.55369776
v -3.27059827 31.50129221 45.48171763
v -3.05860775 32.50111300 38.48347874
v -3.30572501 32.50111300 46.46570881
v -3.41110373 31.50129221 46.26990330
v -3.00191294 36.22627559 39.48358116
v -6.41964134 36.22679117 35.73474568
v -7.21953530 36.22679117 48.30480722
v -4.51419322 36.22627559 48.13750483
v -3.91951082 36.22627559 47.62939725
v -3.48813504 36.22627559 47.12872689
v -3.52880802 30.98543448 46.04435189
v -3.51709861 30.97720601 45.48171763
v -3.27059827 31.50129221 38.48347874
v -3.00561068 36.22627559 38.48347874
v -3.41603381 31.52649321 37.53170817
v -3.24656478 32.50111300 37.48337631
v -3.08449050 36.22627559 37.75725809
v -3.56393401 32.50111300 46.96514088
v -3.75928578 31.50129221 46.76933387
v -3.13625598 36.22627559 37.48337631
v -3.31373592 36.22627559 36.84638403
v -3.39076723 36.22627559 36.67288420
v -3.83385168 36.22627559 35.73350664
v -9.20078277 36.22679117 35.73474568
v -8.05147404 36.22679117 48.39403595
v -5.11565420 36.22627559 48.33578991
v -5.10209629 32.52991415 47.94541569
v -4.06432944 32.50111300 47.44970149
v -4.48707814 30.98440630 47.04073645
v -4.11301335 30.97463405 46.41861637
v -4.04152828 30.97257768 38.46860728
v -3.51709861 30.97720601 38.48347874
v -3.52880802 30.98543448 37.89853655
v -4.14752391 31.61598123 35.73350664
v -3.51340161 31.87622575 36.94800539
v -3.97867105 32.50111300 35.73350664
v -4.25906505 31.50129221 47.26009043
v -6.41964134 36.22627559 35.73350664
v -9.29568516 36.22679117 38.48347874
v -6.41964134 31.93896899 35.73350664
v -8.90683086 32.50060039 35.73474568
v -9.05781227 32.50060039 38.48347874
v -8.15623697 36.22679117 48.39279617
v -8.55864880 31.97702978 47.98507241
v -8.34850753 31.97702978 47.98507241
v -5.02691423 31.42877374 47.39517182
v -8.02990522 31.58615189 47.62691917
v -8.57652025 30.98440630 47.05065175
v -8.58822892 30.97669341 46.48058027
v -8.58822892 30.97669341 38.48347874
v -4.05262153 30.97823420 37.86879363
v -5.03800672 31.31202238 35.73350664
v -4.78596013 31.37836875 35.73350664
v -4.01071621 32.32573413 35.73350664
v -9.29568516 36.22679117 46.48058027
v -6.00860167 31.65609840 35.73350664
v -8.70778171 31.54346277 35.73474568
v -8.84212438 31.50077662 38.48347874
v -9.05781227 32.50060039 46.48058027
v -8.85506575 36.22679117 48.28373982
v -8.81562547 32.50060039 47.48068418
v -8.67203918 31.58615189 47.42243666
v -8.92162073 36.22679117 48.15361458
v -8.84212438 31.50077662 46.48058027
v -8.57652025 30.98440630 37.89605809
v -8.05147404 31.25339189 35.73474568
v -5.81140140 31.58357993 35.73350664
v -9.17490003 36.22679117 47.36543040
v -8.52845252 31.46374700 35.73474568
v -9.14655262 36.22679117 47.48068418
f 1 2 3
f 1 3 8
f 1 8 4
f 1 4 12
f 1 12 5
f 1 5 2
f 2 5 6
f 2 6 3
f 3 7 19
f 3 19 8
f 3 6 9
f 3 9 10
f 3 10 7
f 4 8 11
f 4 11 12
f 5 13 14
f 5 14 15
f 5 15 16
f 5 16 6
f 5 12 30
f 5 30 45
f 5 45 61
f 5 61 74
f 5 74 76
f 5 76 69
f 5 69 66
f 5 66 49
f 5 49 31
f 5 31 13
f 6 16 9
f 7 10 17
f 7 17 18
f 7 18 38
f 7 38 19
f 8 20 11
f 8 19 21
f 8 21 22
f 8 22 23
f 8 23 20
f 9 16 24
f 9 24 10
f 10 24 25
f 10 25 17
f 11 20 12
f 12 20 23
f 12 23 26
f 12 26 27
f 12 27 28
f 12 28 29
f 12 29 44
f 12 44 30
f 13 31 32
f 13 32 14
f 14 32 33
f 14 33 34
f 14 34 15
f 15 34 24
f 15 24 16
f 17 25 35
f 17 35 36
f 17 36 18
f 18 37 38
f 18 36 37
f 19 38 39
f 19 39 21
f 21 40 41
f 21 41 22
f 21 39 40
f 22 26 23
f 22 41 42
f 22 42 27
f 22 27 26
f 24 34 43
f 24 43 25
f 25 43 35
f 27 42 28
f 28 42 29
f 29 42 60
f 29 60 40
f 29 40 59
f 29 59 58
f 29 58 73
f 29 73 62
f 29 62 46
f 29 46 44
f 30 44 46
f 30 46 47
f 30 47 48
f 30 48 45
f 31 49 50
f 31 50 51
f 31 51 32
f 32 51 33
f 33 51 52
f 33 52 43
f 33 43 34
f 35 43 52
f 35 52 51
f 35 51 53
f 35 53 54
f 35 54 36
f 36 54 55
f 36 55 37
f 37 56 57
f 37 57 38
f 37 55 56
f 38 57 39
f 39 57 58
f 39 58 59
f 39 59 40
f 40 60 41
f 41 60 42
f 45 48 65
f 45 65 61
f 46 62 63
f 46 63 47
f 47 63 48
f 48 63 64
f 48 64 70
f 48 70 65
f 49 66 50
f 50 67 68
f 50 68 54
f 50 54 53
f 50 53 51
f 50 66 69
f 50 69 67
f 54 70 55
f 54 68 70
f 55 70 64
f 55 64 56
f 56 64 71
f 56 71 57
f 57 71 72
f 57 72 58
f 58 72 73
f 61 65 74
f 62 73 72
f 62 72 75
f 62 75 63
f 63 75 71
f 63 71 64
f 65 70 68
f 65 68 67
f 65 67 74
f 67 76 74
f 67 69 76
f 71 75 72

