# https://github.com/mikedh/trimesh
v -36.20531701 19.49980979 36.62157396
v -44.58309056 19.49980979 36.62157396
v -36.35046868 22.50006193 36.62157396
v -36.35046868 22.50006193 48.47730418
v -36.20613658 19.50021510 44.48168152
v -36.20613658 19.49980979 44.48168152
v -44.57980930 19.49980979 43.48132577
v -44.38709431 22.50006193 48.47730418
v -44.44778117 21.50038419 36.62157396
v -36.45133678 23.14265336 36.62157396
v -36.45133678 23.17478197 48.47730418
v -36.34718891 19.50021510 48.47730418
v -36.22663773 19.49980979 45.48203801
v -44.57898973 19.49980979 44.48168152
v -44.44039909 21.50038419 48.47730418
v -43.94426169 23.28052577 48.47730418
v -44.37643394 22.50006193 36.62157396
v -44.43794038 21.63907020 36.62157396
v -37.05244311 23.41839817 36.62157396
v -37.05244311 23.50421303 48.47730418
v -44.39611553 19.49980979 48.47730418
v -36.33980682 19.49980979 47.48159018
v -44.56340897 19.49980979 45.48203801
v -44.44039909 21.49509722 48.47730418
v -43.93769918 23.28581273 48.47730418
v -43.92868093 23.27320478 36.62157396
v -38.05292105 23.55057680 36.62157396
v -38.04718109 23.65387977 48.47730418
v -44.43794038 19.50021510 48.47730418
v -44.45352113 19.49980979 47.48159018
v -43.05203096 23.58392582 48.47730418
v -43.17422128 23.50949999 36.62157396
v -38.19151169 23.55057680 36.62157396
v -38.05292105 23.65428658 48.47730418
v -42.05155154 23.60751451 48.47730418
v -43.05203096 23.54772917 36.62157396
v -42.05155154 23.54976319 36.62157396
v -39.05257793 23.64411796 48.47730418
v -41.05189466 23.62134288 48.47730418
v -40.05305735 23.63273042 48.47730418
f 1 2 9
f 1 9 18
f 1 18 17
f 1 17 26
f 1 26 32
f 1 32 36
f 1 36 37
f 1 37 33
f 1 33 27
f 1 27 19
f 1 19 10
f 1 10 3
f 1 3 4
f 1 4 5
f 1 5 6
f 1 6 13
f 1 13 22
f 1 22 21
f 1 21 30
f 1 30 23
f 1 23 14
f 1 14 7
f 1 7 2
f 2 7 8
f 2 8 9
f 3 10 11
f 3 11 4
f 4 11 20
f 4 20 28
f 4 28 34
f 4 34 38
f 4 38 40
f 4 40 39
f 4 39 35
f 4 35 31
f 4 31 25
f 4 25 16
f 4 16 8
f 4 8 15
f 4 15 24
f 4 24 29
f 4 29 21
f 4 21 12
f 4 12 13
f 4 13 5
f 5 13 6
f 7 14 8
f 8 14 15
f 8 16 17
f 8 17 18
f 8 18 9
f 10 19 20
f 10 20 11
f 12 21 22
f 12 22 13
f 14 23 15
f 15 23 24
f 16 25 26
f 16 26 17
f 19 27 28
f 19 28 20
f 21 29 30
f 23 30 29
f 23 29 24
f 25 31 26
f 26 31 32
f 27 33 34
f 27 34 28
f 31 35 36
f 31 36 32
f 33 37 34
f 34 37 36
f 34 36 38
f 35 39 36
f 36 39 40
f 36 40 38

