# https://github.com/mikedh/trimesh
v -53.05233995 -2.23094653 37.40272884
v -53.05233995 2.29310195 37.42236087
v -52.84537041 2.29310195 37.44526485
v -52.32013980 -2.23094653 37.48845541
v -53.22807049 -2.23094653 37.44068421
v -53.73475202 2.29310195 37.68412159
v -52.03311474 2.29310195 37.54604281
v -52.04678217 -2.23094653 37.52379300
v -53.73768160 -2.23094653 37.67823187
v -53.79137680 -2.23094653 37.86015575
v -53.93293577 2.29310195 38.48249227
v -47.78829460 2.29310195 38.27046599
v -47.10978667 -2.23094653 38.35684710
v -53.93586536 -2.23094653 38.48249227
v -53.94465114 2.29310195 39.48307303
v -47.05316188 2.29310195 38.39611117
v -46.90965084 2.29310195 38.44126496
v -46.28581562 -2.23094653 38.72527550
v -53.93879495 -2.23094653 38.75145105
v -53.94953279 -2.23094653 43.75042908
v -53.94562866 2.29310195 40.27620815
v -46.27995645 2.29310195 38.73181938
v -46.20771217 2.29310195 38.86335428
v -45.93533207 -2.23094653 39.48307303
v -53.94855527 -2.23094653 44.08744637
v -53.94855527 -1.89476539 44.08744637
v -53.94172155 2.29310195 43.48212448
v -45.93240546 2.29310195 39.48307303
v -43.97595965 -1.49967529 44.08744637
v -44.18488125 -2.23094653 44.08744637
v -53.94074701 2.29310195 44.08744637
v -44.24052851 2.29310195 44.08744637
v -44.21904983 2.22932047 44.08744637
v -44.06382343 1.75937576 44.08744637
v -43.99841286 1.49982108 44.08744637
v -43.98181882 0.49969365 44.08744637
f 1 2 3
f 1 3 4
f 1 4 8
f 1 8 13
f 1 13 18
f 1 18 24
f 1 24 30
f 1 30 25
f 1 25 20
f 1 20 19
f 1 19 14
f 1 14 10
f 1 10 9
f 1 9 5
f 1 5 2
f 2 5 6
f 2 6 11
f 2 11 15
f 2 15 21
f 2 21 27
f 2 27 31
f 2 31 32
f 2 32 28
f 2 28 23
f 2 23 22
f 2 22 17
f 2 17 16
f 2 16 12
f 2 12 7
f 2 7 3
f 3 7 4
f 4 7 8
f 5 9 6
f 6 9 10
f 6 10 11
f 7 12 13
f 7 13 8
f 10 14 11
f 11 14 15
f 12 16 13
f 13 16 17
f 13 17 18
f 14 19 15
f 15 19 20
f 15 20 21
f 17 22 18
f 18 22 23
f 18 23 24
f 20 25 26
f 20 26 21
f 21 26 27
f 23 28 24
f 24 28 29
f 24 29 30
f 25 30 29
f 25 29 36
f 25 36 35
f 25 35 34
f 25 34 33
f 25 33 32
f 25 32 31
f 25 31 26
f 26 31 27
f 28 32 33
f 28 33 34
f 28 34 35
f 28 35 36
f 28 36 29

