# https://github.com/mikedh/trimesh
v -43.04614199 23.54834161 31.47615529
v -42.02884798 23.54973339 29.48158982
v -43.05251377 23.54834161 31.47615529
v -42.05252012 23.43285388 31.47615529
v -42.02884798 23.53999393 30.45885123
v -42.02884798 23.54973339 29.45886280
v -43.05251377 23.54834161 20.42000796
v -43.92899088 23.27423445 26.48162528
v -43.92352808 23.27423445 31.47615529
v -42.04493240 23.43146359 31.47615529
v -42.02884798 23.43007181 31.46208590
v -42.02884798 23.54834161 23.48274257
v -42.05252012 23.54834161 22.48275488
v -42.99030101 23.54834161 20.42000796
v -43.87405888 23.29093131 20.42000796
v -43.92868689 23.27423445 23.48274257
v -43.92899088 23.27423445 24.48273100
v -44.37663660 22.49921852 31.47615529
v -43.93172079 23.26866883 31.47615529
v -43.92899088 23.27284268 30.48157825
v -42.02884798 23.42589797 31.47615529
v -42.02884798 23.54555806 22.48275488
v -42.05252012 23.44398512 20.42000796
v -43.92868689 23.27284268 20.42000796
v -43.95660887 23.22553565 20.42000796
v -44.37633262 22.49921852 20.42000796
v -44.37663660 22.49921852 23.48274257
v -45.12928724 18.78276422 31.47615529
v -42.02884798 15.58252229 31.47615529
v -42.02884798 23.44120305 20.42000796
v -45.12928724 18.68397335 20.42000796
v -45.12928724 18.77998066 30.48157825
v -45.12928724 15.40581274 31.47615529
v -42.02884798 15.41972604 30.50538749
v -45.12928724 11.28863156 27.69589679
v -45.12928724 11.06183218 27.43074826
v -45.12928724 10.77520126 27.06928062
v -45.12928724 10.42734852 26.55629958
v -45.12928724 10.14350115 26.04872994
v -45.12928724 9.83182569 25.48380126
v -45.12928724 9.68433601 25.21432392
v -45.12928724 9.38240001 24.61043478
v -43.40213305 9.82904288 20.42000796
v -43.13961758 10.50109336 20.42000796
v -42.02884798 13.83351988 20.42000796
v -45.12928724 9.34483245 20.42000796
v -45.12928724 9.33648402 24.41887910
v -44.05220641 9.55215217 20.42000796
f 1 2 3
f 1 3 9
f 1 9 19
f 1 19 18
f 1 18 28
f 1 28 33
f 1 33 29
f 1 29 21
f 1 21 10
f 1 10 4
f 1 4 5
f 1 5 2
f 2 6 7
f 2 7 3
f 2 5 11
f 2 11 21
f 2 21 29
f 2 29 34
f 2 34 45
f 2 45 30
f 2 30 22
f 2 22 12
f 2 12 6
f 3 7 17
f 3 17 8
f 3 8 9
f 4 10 11
f 4 11 5
f 6 12 13
f 6 13 14
f 6 14 7
f 7 14 23
f 7 23 30
f 7 30 45
f 7 45 44
f 7 44 43
f 7 43 48
f 7 48 46
f 7 46 31
f 7 31 26
f 7 26 25
f 7 25 24
f 7 24 15
f 7 15 16
f 7 16 17
f 8 17 27
f 8 27 18
f 8 18 19
f 8 19 20
f 8 20 9
f 9 20 19
f 10 21 11
f 12 22 13
f 13 22 30
f 13 30 23
f 13 23 14
f 15 24 16
f 16 24 17
f 17 24 25
f 17 25 26
f 17 26 27
f 18 27 28
f 26 31 32
f 26 32 28
f 26 28 27
f 28 32 31
f 28 31 46
f 28 46 47
f 28 47 42
f 28 42 41
f 28 41 40
f 28 40 39
f 28 39 38
f 28 38 37
f 28 37 36
f 28 36 35
f 28 35 33
f 29 33 35
f 29 35 36
f 29 36 37
f 29 37 38
f 29 38 39
f 29 39 40
f 29 40 41
f 29 41 42
f 29 42 43
f 29 43 44
f 29 44 34
f 34 44 45
f 42 47 43
f 43 47 48
f 46 48 47

