# https://github.com/mikedh/trimesh
v -44.90559849 2.29354359 20.29039384
v -46.41644602 2.29354359 20.29039384
v -44.82734602 2.21931669 20.29039384
v -41.08674870 2.29354359 18.53617002
v -46.41644602 2.29354359 13.95393473
v -46.41644602 -13.50445982 20.29039384
v -44.61761975 1.92240838 20.29039384
v -41.08674870 2.29354359 13.24106598
v -44.53414886 1.49869482 20.29039384
v -42.14945281 -13.50291456 20.29039384
v -41.08674870 -13.49982255 19.26353173
v -45.15079870 2.29354359 13.24106598
v -46.41644602 1.58684023 13.87733332
v -46.41644602 -13.50445982 19.49678411
v -42.63619943 -13.50445982 20.29039384
v -41.08674870 -13.50445982 13.24106598
v -41.80513241 -13.50445982 19.73969772
v -41.08674870 -13.50445982 19.23868835
v -45.15288487 1.49869482 13.24106598
v -46.41644602 -0.50079775 13.80280319
v -46.41644602 0.49972191 13.83109770
v -46.41644602 -13.48435803 19.46503996
v -45.89265784 -13.50445982 14.48254793
v -45.02872163 -13.50445982 13.24106598
v -45.15706021 -0.48069446 13.24106598
v -46.41644602 -1.13946009 13.83523875
v -45.15706021 -0.51007602 13.24106598
v -45.15079870 -1.50131741 13.24106598
v -45.07097862 -12.49930215 13.24106598
v -45.02976472 -13.49982255 13.24106598
v -45.69597613 -13.50445982 13.82281707
v -46.41644602 -13.45961598 19.43467566
v -46.41644602 -13.43796594 19.40914236
v -46.41644602 -13.02507740 18.95712908
v -46.41644602 -12.51940618 18.49407545
v -46.41644602 -11.44001863 17.55968460
v -46.41644602 -10.21991105 16.58872009
v -46.41644602 -8.36268675 15.54391539
v -46.41644602 -6.22711068 14.61021595
v -46.41644602 -5.28535413 14.36040082
v -46.41644602 -1.43636878 13.85387129
v -46.41644602 -4.34205120 14.20374985
v -46.41644602 -3.43895448 14.09333451
f 1 2 6
f 1 6 15
f 1 15 10
f 1 10 9
f 1 9 7
f 1 7 3
f 1 3 4
f 1 4 8
f 1 8 12
f 1 12 5
f 1 5 2
f 2 5 13
f 2 13 21
f 2 21 20
f 2 20 26
f 2 26 41
f 2 41 43
f 2 43 42
f 2 42 40
f 2 40 39
f 2 39 38
f 2 38 37
f 2 37 36
f 2 36 35
f 2 35 34
f 2 34 33
f 2 33 32
f 2 32 22
f 2 22 14
f 2 14 6
f 3 7 4
f 4 7 9
f 4 9 10
f 4 10 11
f 4 11 18
f 4 18 16
f 4 16 8
f 5 12 13
f 6 14 23
f 6 23 31
f 6 31 24
f 6 24 16
f 6 16 18
f 6 18 17
f 6 17 15
f 8 16 24
f 8 24 30
f 8 30 29
f 8 29 28
f 8 28 27
f 8 27 25
f 8 25 19
f 8 19 12
f 10 15 17
f 10 17 18
f 10 18 11
f 12 19 20
f 12 20 21
f 12 21 13
f 14 22 23
f 19 25 20
f 20 25 27
f 20 27 28
f 20 28 29
f 20 29 30
f 20 30 31
f 20 31 26
f 22 32 23
f 23 32 33
f 23 33 34
f 23 34 35
f 23 35 36
f 23 36 37
f 23 37 38
f 23 38 39
f 23 39 40
f 23 40 31
f 24 31 30
f 26 31 41
f 31 40 42
f 31 42 43
f 31 43 41

