# https://github.com/mikedh/trimesh
v -45.13018430 18.76683924 29.45304497
v -45.12928724 18.74910228 28.53877715
v -45.12928724 18.74910228 28.48218813
v -45.12928724 18.68460069 20.48278696
v -47.00588615 17.82191469 29.45304497
v -45.12928724 16.49966494 29.45304497
v -45.12928724 18.68298837 20.42000796
v -47.91415063 17.30591540 29.45304497
v -45.12928724 14.18250288 29.45304497
v -45.66904658 18.20730146 20.42000796
v -45.12928724 9.34500456 20.42000796
v -45.70491093 18.17505216 20.42000796
v -48.41445740 16.84312702 29.45304497
v -45.12928724 11.75730371 28.03389607
v -45.92906162 7.50030477 29.45304497
v -45.12928724 9.33532992 24.41926654
v -45.14363417 2.29515665 20.42000796
v -49.70915919 15.25965375 28.02505403
v -49.70915919 15.35962778 28.43267237
v -48.34541987 16.76088996 28.48218813
v -49.70915919 10.53180410 20.42000796
v -49.70915919 10.54470412 20.42708159
v -49.70915919 11.38481621 21.07343559
v -49.70915919 13.26337836 23.68095538
v -49.70915919 13.52299106 24.08857409
v -49.70915919 14.28409071 25.54662794
v -49.70915919 15.45154023 29.06929995
v -49.70915919 15.48701566 29.45304497
v -45.12928724 11.28645375 27.69612999
v -46.27470227 6.71340508 29.45304497
v -45.92233817 2.29515665 24.48292918
v -45.12928724 9.38209230 24.61025522
v -45.12928724 9.68524201 25.21328232
v -45.12928724 9.83197917 25.48208091
v -45.12928724 10.14480427 26.04885623
v -45.12928724 10.38506694 26.48211665
v -45.12928724 10.42699163 26.55550572
v -45.12928724 10.77367909 27.06922884
v -45.12928724 11.06070415 27.43086822
v -49.70915919 2.29515665 20.42000796
v -49.70915919 5.87490569 29.45304497
v -46.31549893 6.68921810 29.45304497
v -46.27066999 2.29515665 25.22389276
v -49.70915919 2.29515665 25.98961441
v -48.08764300 2.29515665 25.74203708
v -47.96301484 6.16515575 29.45304497
v -47.05250921 6.32963062 29.45304497
v -47.05250921 2.29515665 25.55635399
f 1 2 3
f 1 3 4
f 1 4 5
f 1 5 8
f 1 8 13
f 1 13 28
f 1 28 41
f 1 41 46
f 1 46 47
f 1 47 42
f 1 42 30
f 1 30 15
f 1 15 9
f 1 9 6
f 1 6 2
f 2 6 9
f 2 9 14
f 2 14 29
f 2 29 39
f 2 39 38
f 2 38 37
f 2 37 36
f 2 36 35
f 2 35 34
f 2 34 33
f 2 33 32
f 2 32 16
f 2 16 11
f 2 11 7
f 2 7 4
f 2 4 3
f 4 7 8
f 4 8 5
f 7 10 8
f 7 11 17
f 7 17 40
f 7 40 21
f 7 21 12
f 7 12 10
f 8 10 12
f 8 12 13
f 9 15 14
f 11 16 17
f 12 18 19
f 12 19 20
f 12 20 13
f 12 21 22
f 12 22 23
f 12 23 24
f 12 24 25
f 12 25 26
f 12 26 18
f 13 20 19
f 13 19 27
f 13 27 28
f 14 15 29
f 15 30 31
f 15 31 17
f 15 17 29
f 16 32 17
f 17 32 33
f 17 33 34
f 17 34 35
f 17 35 36
f 17 36 37
f 17 37 38
f 17 38 39
f 17 39 29
f 17 31 43
f 17 43 48
f 17 48 45
f 17 45 44
f 17 44 40
f 18 26 25
f 18 25 24
f 18 24 23
f 18 23 22
f 18 22 21
f 18 21 40
f 18 40 44
f 18 44 41
f 18 41 28
f 18 28 27
f 18 27 19
f 30 42 43
f 30 43 31
f 41 44 45
f 41 45 46
f 42 47 43
f 43 47 48
f 45 48 47
f 45 47 46

