# https://github.com/mikedh/trimesh
v -28.05257928 -46.54999400 21.93301915
v -28.60185457 -46.42097593 21.93301915
v -27.68416355 -46.54999400 21.93301915
v -28.05257928 -46.54999400 25.48236478
v -29.05266234 -46.31462565 21.93301915
v -29.05266234 -46.31462565 41.44868908
v -27.68416355 -35.07792647 21.93301915
v -27.68416355 -46.54999400 25.85105357
v -28.05257928 -46.54825056 41.44868908
v -28.08607135 -46.54127677 41.44868908
v -29.34471657 -46.16468621 21.93301915
v -29.07074948 -46.30590841 41.44868908
v -29.07476835 -30.48909887 21.93301915
v -29.42844823 -28.92694631 23.89872237
v -28.95486538 -30.50130598 24.48327564
v -28.91065483 -30.50130598 27.48245340
v -28.89792767 -30.50130598 30.48354177
v -28.89658805 -30.50130598 33.48080928
v -27.68416355 -35.07792647 41.44295805
v -27.68416355 -46.54825056 41.44868908
v -29.58452252 -46.04089847 24.48327564
v -29.58452252 -46.03915503 21.93301915
v -29.58452252 -46.04089847 41.44868908
v -29.25964677 -30.00267113 21.93301915
v -30.05274688 -28.89207737 23.85287492
v -29.42844823 -28.92694631 24.12222783
v -29.18998190 -29.50054939 33.48080928
v -29.19601095 -29.50054939 30.48354177
v -29.36213316 -29.74812485 21.93301915
v -30.05274688 -29.45173287 21.93301915
v -33.14610655 -28.78398066 21.93301915
v -28.89725860 -30.50130598 36.48189738
v -28.90529634 -30.50130598 39.48107551
v -28.97161141 -30.50130598 40.48207500
v -29.05668270 -30.50130598 41.44868908
v -27.68684280 -35.07792647 41.44868908
v -27.68416355 -36.30882108 41.44868908
v -34.07049866 -43.29492439 21.93301915
v -33.98475831 -43.27400302 41.44868908
v -30.05274688 -28.89207737 24.20437102
v -34.05844056 -28.73865103 21.93301915
v -33.05165939 -28.74213792 30.48354177
v -33.05165939 -28.74213792 33.48080928
v -33.26065103 -28.76828963 41.44868908
v -29.51820745 -28.98448007 33.48080928
v -29.24490943 -29.57377417 39.48107551
v -29.29648865 -29.65920607 40.48207500
v -29.06739968 -30.47340784 41.44868908
v -34.26006502 -42.97761401 21.93301915
v -34.43087665 -42.52605224 41.44868908
v -34.49987097 -29.50054939 21.93301915
v -34.42216836 -29.50054939 41.44868908
v -33.96466247 -28.76828963 41.44868908
v -30.05274688 -29.44127218 41.44868908
v -30.40575769 -28.99668420 39.99494764
v -29.52624668 -28.98796696 34.00232241
v -30.06480349 -29.09780712 39.56321870
v -30.06480349 -29.21461808 40.38846976
v -29.36146409 -29.76032601 41.44868908
v -34.50991889 -42.49990053 21.93301915
v -34.44628306 -42.49990053 41.44868908
v -34.52465474 -30.50130598 21.93301915
v -34.46771852 -30.50130598 41.44868908
v -34.51058795 -42.47026193 21.93301915
v -34.47441664 -41.53227242 41.44868908
v -34.52666492 -32.49060907 21.93301915
v -34.47508720 -32.50106975 41.44868908
v -34.47173739 -31.50031614 41.44868908
v -34.52666492 -41.49914692 21.93301915
v -34.47508720 -41.49914692 41.44868908
v -34.47575626 -33.50182634 41.44868908
v -34.47575626 -40.53326226 41.44868908
f 1 2 5
f 1 5 11
f 1 11 22
f 1 22 38
f 1 38 49
f 1 49 60
f 1 60 64
f 1 64 69
f 1 69 66
f 1 66 62
f 1 62 51
f 1 51 41
f 1 41 31
f 1 31 30
f 1 30 29
f 1 29 24
f 1 24 13
f 1 13 7
f 1 7 3
f 1 3 8
f 1 8 4
f 1 4 2
f 2 4 6
f 2 6 5
f 3 7 19
f 3 19 37
f 3 37 20
f 3 20 8
f 4 8 9
f 4 9 10
f 4 10 6
f 5 6 12
f 5 12 11
f 6 10 9
f 6 9 20
f 6 20 37
f 6 37 36
f 6 36 35
f 6 35 48
f 6 48 59
f 6 59 54
f 6 54 44
f 6 44 53
f 6 53 52
f 6 52 63
f 6 63 68
f 6 68 67
f 6 67 71
f 6 71 72
f 6 72 70
f 6 70 65
f 6 65 61
f 6 61 50
f 6 50 39
f 6 39 23
f 6 23 12
f 7 13 14
f 7 14 15
f 7 15 16
f 7 16 17
f 7 17 18
f 7 18 19
f 8 20 9
f 11 21 22
f 11 12 23
f 11 23 21
f 13 24 14
f 14 25 40
f 14 40 26
f 14 26 27
f 14 27 28
f 14 28 16
f 14 16 15
f 14 24 29
f 14 29 30
f 14 30 31
f 14 31 25
f 16 28 17
f 17 28 27
f 17 27 18
f 18 27 32
f 18 32 19
f 19 32 33
f 19 33 34
f 19 34 35
f 19 35 36
f 19 36 37
f 21 38 22
f 21 23 38
f 23 39 38
f 25 31 41
f 25 41 42
f 25 42 43
f 25 43 40
f 26 40 43
f 26 43 44
f 26 44 45
f 26 45 27
f 27 45 46
f 27 46 33
f 27 33 32
f 33 46 34
f 34 47 48
f 34 48 35
f 34 46 47
f 38 39 49
f 39 50 49
f 41 51 52
f 41 52 53
f 41 53 43
f 41 43 42
f 43 53 44
f 44 54 55
f 44 55 56
f 44 56 45
f 45 56 46
f 46 57 47
f 46 56 57
f 47 58 59
f 47 59 48
f 47 57 58
f 49 50 61
f 49 61 60
f 51 62 63
f 51 63 52
f 54 59 58
f 54 58 55
f 55 58 57
f 55 57 56
f 60 61 65
f 60 65 64
f 62 66 67
f 62 67 68
f 62 68 63
f 64 65 70
f 64 70 69
f 66 69 72
f 66 72 71
f 66 71 67
f 69 70 72

