# https://github.com/mikedh/trimesh
v 9.28990262 -2.53082970 -4.66330108
v 9.29180104 -2.53082970 -6.51680006
v 9.28990262 -2.53082970 4.65445577
v 9.28990262 26.56524144 -4.66330108
v 9.29370244 -2.53082970 -6.53453852
v 9.29180104 26.56524144 -6.51680006
v 9.29750226 -2.53082970 6.48135302
v 9.28990262 26.56524144 4.65445577
v 9.37730744 -2.53082970 -7.10211851
v 9.36970630 26.56524144 -7.06368816
v 9.37540604 17.49888819 -7.10211851
v 9.36780639 -2.53082970 7.07997084
v 9.30130208 26.56524144 6.52273679
v 9.29750226 26.56524144 6.48135302
v 9.94923561 -2.53082970 -7.36816856
v 9.37540604 26.56524144 -7.10211851
v 9.90933451 26.56524144 -7.35043308
v 9.93023651 -2.53082970 7.35489161
v 9.36780639 26.56524144 7.07997084
v 9.97963716 -2.53082970 -7.37408137
v 9.94923561 26.56524144 -7.36816856
v 9.94923561 -2.53082970 7.36376084
v 9.94923561 26.56524144 7.36376084
v 10.94868983 -2.53082970 -7.54849464
v 10.88028561 26.56524144 -7.53667198
v 10.91828829 -2.53082970 7.54408394
v 10.01763984 26.56524144 7.37706170
v 26.94752719 -2.53082970 -7.54849464
v 10.94868983 26.56524144 -7.54849464
v 10.94868983 -2.53082970 7.54851856
v 10.94868983 26.56524144 7.54851856
v 26.97792874 -2.53082970 -7.54553823
v 26.94752719 26.56524144 -7.54849464
v 26.94752719 -2.53082970 7.54851856
v 26.94752719 26.56524144 7.54851856
v 27.94697843 -2.53082970 -7.40808009
v 27.94697843 26.56524144 -7.40808009
v 27.91657986 -2.53082970 7.41844845
v 27.01592993 26.56524144 7.53965082
v 27.96598051 -2.53082970 -7.40068906
v 28.52081099 26.56524144 -7.15976254
v 28.56261200 24.50017439 -7.14202706
v 27.94697843 -2.53082970 7.41401384
v 27.94697843 26.56524144 7.41401384
v 28.56261200 -2.53082970 -7.14202706
v 28.56071358 26.56524144 -7.14202706
v 28.69371923 26.56524144 -6.51680006
v 28.69561765 8.50089596 -6.51680006
v 28.55881218 -2.53082970 7.13909307
v 28.57971268 15.49933453 7.13022533
v 27.99068084 26.56524144 7.39480016
v 28.69561765 -2.53082970 -6.51680006
v 28.69942045 26.56524144 6.48135302
v 28.57781426 -2.53082970 7.13022533
v 28.57971268 26.56524144 7.13022533
v 28.69561765 -2.53082970 6.50204491
v 28.69942045 -2.53082970 6.48135302
f 1 2 5
f 1 5 9
f 1 9 15
f 1 15 20
f 1 20 24
f 1 24 28
f 1 28 32
f 1 32 36
f 1 36 40
f 1 40 45
f 1 45 52
f 1 52 57
f 1 57 56
f 1 56 54
f 1 54 49
f 1 49 43
f 1 43 38
f 1 38 34
f 1 34 30
f 1 30 26
f 1 26 22
f 1 22 18
f 1 18 12
f 1 12 7
f 1 7 3
f 1 3 8
f 1 8 4
f 1 4 6
f 1 6 2
f 2 6 5
f 3 7 14
f 3 14 8
f 4 8 14
f 4 14 13
f 4 13 19
f 4 19 23
f 4 23 27
f 4 27 31
f 4 31 35
f 4 35 39
f 4 39 44
f 4 44 51
f 4 51 55
f 4 55 53
f 4 53 47
f 4 47 46
f 4 46 41
f 4 41 37
f 4 37 33
f 4 33 29
f 4 29 25
f 4 25 21
f 4 21 17
f 4 17 16
f 4 16 10
f 4 10 6
f 5 6 10
f 5 10 11
f 5 11 9
f 7 12 13
f 7 13 14
f 9 11 15
f 10 16 11
f 11 16 17
f 11 17 15
f 12 18 19
f 12 19 13
f 15 17 21
f 15 21 20
f 18 22 23
f 18 23 19
f 20 21 25
f 20 25 24
f 22 26 27
f 22 27 23
f 24 25 29
f 24 29 33
f 24 33 28
f 26 30 31
f 26 31 27
f 28 33 32
f 30 34 35
f 30 35 31
f 32 33 37
f 32 37 36
f 34 38 39
f 34 39 35
f 36 37 40
f 37 41 42
f 37 42 40
f 38 43 44
f 38 44 39
f 40 42 45
f 41 46 42
f 42 46 47
f 42 47 48
f 42 48 52
f 42 52 45
f 43 49 50
f 43 50 51
f 43 51 44
f 47 53 48
f 48 53 57
f 48 57 52
f 49 54 50
f 50 55 51
f 50 54 56
f 50 56 55
f 53 55 56
f 53 56 57

