# https://github.com/mikedh/trimesh
v 3.69470660 -16.50270029 7.23857536
v 5.49428091 -15.50298530 7.00353484
v 5.49146755 -12.50004200 7.00211922
v 3.69470660 -11.71699577 7.23432851
v 3.69470660 -28.50307406 7.23715974
v 5.51081088 -43.49878850 7.01203004
v 5.51116255 -41.49936150 7.01203004
v 5.50905253 -32.49813122 7.01061442
v 5.50623768 -28.50307406 7.00919731
v 5.88219047 -11.71699577 6.72176694
v 5.50377599 -25.50012777 7.00778169
v 5.49111588 -11.71699577 7.00070360
v 3.69470660 -11.71699577 -7.22498236
v 3.69470660 -48.49735899 7.22300057
v 5.50905253 -49.49707547 7.01061442
v 6.01090754 -39.49993151 6.64247735
v 6.01055587 -36.49698821 6.64389297
v 6.00914919 -32.49813122 6.64530858
v 5.50975587 -33.49784472 7.01061442
v 6.00809418 -30.50250106 6.64530858
v 6.00563100 -27.50336055 6.64530858
v 6.00281765 -24.50041427 6.64530858
v 5.99437757 -15.50298530 6.64530858
v 5.99050921 -11.71699577 6.64389297
v 5.47142089 -11.71699577 -7.02675390
v 3.69470660 -49.51228072 -7.22498236
v 3.69470660 -49.49707547 7.21308974
v 5.48900587 -50.02924411 7.00070360
v 6.00914919 -49.49707547 6.63681189
v 6.00950086 -48.49735899 6.63822751
v 6.01090754 -42.49907500 6.64105875
v 6.55144770 -32.49813122 6.14549058
v 6.55179937 -31.49841474 6.14549058
v 6.55215104 -29.50278756 6.14549058
v 6.55250271 -27.50336055 6.14549058
v 6.55285438 -25.50012777 6.14549058
v 6.55285438 -17.50241380 6.14549058
v 6.55285438 -11.71699577 6.14407496
v 6.43081904 -11.71699577 6.25310150
v 5.47142089 -12.50004200 -7.02675390
v 5.97116588 -11.71699577 -6.66853063
v 5.97046254 -15.50298530 -6.66994327
v 5.96975920 -19.50184378 -6.67136187
v 5.96905586 -24.50041427 -6.67277749
v 5.96694585 -34.49755822 -6.67560873
v 5.96589084 -39.49993151 -6.67702435
v 5.47106922 -14.50327180 -7.02675390
v 5.46966254 -22.50098726 -7.02675390
v 5.46931087 -23.50070077 -7.02675390
v 5.46614585 -39.49993151 -7.02533828
v 5.46368416 -49.49707547 -7.02392267
v 5.45840911 -50.00643327 -7.02109143
v 3.69470660 -49.93041301 -7.19241715
v 3.69470660 -50.08626229 7.11963948
v 4.94811403 -50.32193463 6.48106095
v 5.87234223 -50.18129059 6.44424889
v 6.51487257 -50.09005913 6.08602264
v 6.54863435 -49.49707547 6.13699686
v 6.54863435 -48.49735899 6.13841248
v 6.55039270 -39.49993151 6.14265934
v 6.54933769 -45.49821849 6.13982810
v 7.28752516 -48.49735899 4.75506310
v 7.28752516 -11.71699577 4.75506310
v 6.54160095 -11.71699577 -6.16871263
v 6.54476598 -24.50041427 -6.17295949
v 6.54863435 -40.49964502 -6.17720634
v 6.54863435 -42.49907500 -6.17720634
v 5.96518750 -42.49907500 -6.67702435
v 5.96342915 -49.49707547 -6.67277749
v 6.51311422 -50.08245949 -6.12056964
v 5.85405540 -50.16228255 -6.47879589
v 4.94811403 -50.29152414 -6.51702656
v 3.69470660 -50.28012170 -6.71242378
v 3.69470660 -50.07485984 -7.11029334
v 3.69470660 -50.37134720 6.48106095
v 4.94811403 -50.54620453 5.48142792
v 5.94795568 -50.43597098 5.48142792
v 7.28752516 -49.49707547 4.74515078
v 7.28752516 -50.54620453 3.48215589
v 7.28752516 -50.28772134 4.41665850
v 7.28752516 -49.36783686 4.74656640
v 7.28752516 -11.71699577 -4.76837283
v 7.28752516 -48.61519814 -4.76837283
v 6.54652433 -48.49735899 -6.17295949
v 6.54582099 -49.49707547 -6.17154387
v 7.28752516 -50.28392450 -4.44554303
v 7.28752516 -50.38275560 -4.17368745
v 5.94795568 -50.43216818 -5.51739054
v 7.28752516 -49.49707547 -4.76270738
v 7.28752516 -49.60731200 -4.72447969
v 3.69470660 -50.35234512 -6.51702656
v 4.94811403 -50.54620453 -5.51739054
v 3.69470660 -50.54620453 5.48142792
v 4.94811403 -50.55000733 4.48179190
v 6.94779733 -50.55000733 3.48215589
v 7.28752516 -50.54620453 -3.51670588
v 3.69470660 -50.51959684 -5.77084009
v 6.94779733 -50.55000733 0.48183520
v 3.69470660 -50.54620453 -5.51739054
v 4.94811403 -50.55000733 3.48215589
v 5.94795568 -50.55000733 0.48183520
f 1 2 3
f 1 3 4
f 1 4 13
f 1 13 26
f 1 26 53
f 1 53 74
f 1 74 73
f 1 73 91
f 1 91 97
f 1 97 99
f 1 99 93
f 1 93 75
f 1 75 54
f 1 54 27
f 1 27 14
f 1 14 5
f 1 5 6
f 1 6 7
f 1 7 8
f 1 8 9
f 1 9 2
f 2 10 3
f 2 9 11
f 2 11 10
f 3 10 12
f 3 12 4
f 4 12 10
f 4 10 24
f 4 24 39
f 4 39 38
f 4 38 63
f 4 63 82
f 4 82 64
f 4 64 41
f 4 41 25
f 4 25 13
f 5 14 15
f 5 15 6
f 6 15 16
f 6 16 17
f 6 17 7
f 7 17 18
f 7 18 19
f 7 19 8
f 8 20 21
f 8 21 22
f 8 22 23
f 8 23 9
f 8 19 20
f 9 23 10
f 9 10 11
f 10 23 24
f 13 25 40
f 13 40 26
f 14 27 15
f 15 27 28
f 15 28 29
f 15 29 30
f 15 30 31
f 15 31 16
f 16 31 32
f 16 32 17
f 17 32 33
f 17 33 34
f 17 34 35
f 17 35 36
f 17 36 18
f 18 36 37
f 18 37 38
f 18 38 20
f 18 20 19
f 20 38 21
f 21 38 39
f 21 39 22
f 22 39 23
f 23 39 24
f 25 41 42
f 25 42 43
f 25 43 44
f 25 44 45
f 25 45 46
f 25 46 40
f 26 40 47
f 26 47 48
f 26 48 49
f 26 49 50
f 26 50 51
f 26 51 52
f 26 52 53
f 27 54 28
f 28 54 55
f 28 55 56
f 28 56 57
f 28 57 29
f 29 57 58
f 29 58 30
f 30 58 59
f 30 59 61
f 30 61 31
f 31 60 32
f 31 61 60
f 32 60 62
f 32 62 33
f 33 62 34
f 34 62 35
f 35 62 36
f 36 62 63
f 36 63 37
f 37 63 38
f 40 46 47
f 41 64 65
f 41 65 66
f 41 66 42
f 42 66 43
f 43 66 44
f 44 66 45
f 45 66 46
f 46 66 67
f 46 67 68
f 46 68 48
f 46 48 47
f 48 68 50
f 48 50 49
f 50 68 51
f 51 69 52
f 51 68 69
f 52 69 70
f 52 70 71
f 52 71 72
f 52 72 73
f 52 73 74
f 52 74 53
f 54 75 55
f 55 75 76
f 55 76 77
f 55 77 56
f 56 77 57
f 57 78 58
f 57 77 79
f 57 79 80
f 57 80 78
f 58 81 62
f 58 62 59
f 58 78 81
f 59 62 61
f 60 61 62
f 62 81 78
f 62 78 80
f 62 80 79
f 62 79 96
f 62 96 87
f 62 87 86
f 62 86 90
f 62 90 89
f 62 89 83
f 62 83 82
f 62 82 63
f 64 82 65
f 65 82 66
f 66 82 83
f 66 83 67
f 67 83 84
f 67 84 69
f 67 69 68
f 69 84 85
f 69 85 70
f 70 86 87
f 70 87 88
f 70 88 71
f 70 85 89
f 70 89 90
f 70 90 86
f 71 88 72
f 72 91 73
f 72 88 92
f 72 92 91
f 75 93 76
f 76 93 94
f 76 94 95
f 76 95 79
f 76 79 77
f 79 95 98
f 79 98 96
f 83 89 85
f 83 85 84
f 87 96 88
f 88 96 92
f 91 92 97
f 92 96 98
f 92 98 101
f 92 101 99
f 92 99 97
f 93 99 100
f 93 100 94
f 94 100 101
f 94 101 98
f 94 98 95
f 99 101 100

