# https://github.com/mikedh/trimesh
v -1.36115103 41.50082931 13.24037605
v -1.36321262 40.50054658 13.24037605
v -1.46011028 42.51039850 13.24037605
v -1.74255469 42.50044744 74.47688564
v -1.65184254 41.50082931 74.47688564
v -1.65184254 40.50054658 74.47688564
v -1.49721963 39.77355292 13.24657199
v -1.43949365 40.15695038 13.24037605
v -1.71575404 39.77355292 74.47688564
v -2.11365042 43.35214674 13.24037605
v -2.19199304 43.27321180 74.47688564
v -2.19405463 43.27188558 75.48025591
v -1.75698656 42.50044744 75.48025591
v -1.68070553 41.50082931 75.48025591
v -1.68070553 40.50054658 75.48025591
v -1.73430834 39.77355292 75.48025591
v -1.72812357 39.77355292 75.20773574
v -1.58380861 39.77355292 13.24037605
v -6.52350236 46.03857838 13.24037605
v -6.52350236 46.03857838 21.48411129
v -6.52350236 46.03791378 32.48401382
v -6.52350236 46.03725217 42.48674054
v -6.52350236 46.03658757 52.47707909
v -6.52556395 46.03526136 73.47970833
v -6.52556395 46.03459974 75.48025591
v -6.53381068 46.02332247 76.00671439
v -2.31362977 43.18034715 76.15536040
v -2.16313005 42.50044744 76.24826677
v -2.13220546 41.50082931 76.24826677
v -2.03118462 39.77355292 76.03768218
v -2.13220546 40.50054658 76.24826677
v -9.37475309 39.77355292 13.24037605
v -7.05334454 46.31385529 13.24037605
v -7.05334454 46.31385529 14.48529870
v -7.05334454 46.31252907 35.48792869
v -7.05334454 46.31053827 66.48089723
v -7.05334454 46.30987665 74.47688564
v -7.05334454 46.30722125 75.48025591
v -7.05334454 46.15266837 76.13058557
v -3.05375889 42.50044744 76.50839803
v -3.05375889 41.50082931 76.51459398
v -2.15282210 39.77355292 76.24207380
v -3.05375889 40.50054658 76.51459398
v -2.80223906 39.77355292 76.44026948
v -20.97767342 39.77355292 14.55962320
v -22.42288462 40.44615698 13.24037605
v -8.05324059 46.54933391 13.24037605
v -8.05324059 46.54933391 74.47688564
v -8.05324059 46.54535229 75.48025591
v -8.05324059 46.27073998 76.24826677
v -8.05324059 45.49996644 76.51459398
v -3.77945687 39.77355292 76.51459398
v -3.05375889 39.77355292 76.50839803
v -21.65801495 39.77355292 15.48247601
v -22.42288462 46.54933391 13.24037605
v -21.70955617 39.77355292 16.48584330
v -22.42288462 40.38513037 15.11704947
v -12.80944844 46.54999553 13.24037605
v -22.42288462 46.54933391 74.47688564
v -22.42288462 46.54800472 74.84850514
v -16.05034957 46.54999553 24.48802616
v -18.05014203 46.54999553 30.48346848
v -22.42288462 46.44386578 75.76516201
v -22.42288462 46.54535229 75.48025591
v -22.42288462 46.27073998 76.24826677
v -22.42288462 45.49996644 76.51459398
v -22.42288462 39.77355292 76.51459398
v -18.05014203 46.54999553 29.48629266
v -17.05024561 46.54999553 24.48802616
v -15.05045315 46.54999553 15.48247601
v -14.05055693 46.54999553 13.24037605
v -21.78789879 39.77355292 18.48639088
v -22.42288462 39.77355292 41.44620951
f 1 2 8
f 1 8 18
f 1 18 32
f 1 32 46
f 1 46 55
f 1 55 71
f 1 71 58
f 1 58 47
f 1 47 33
f 1 33 19
f 1 19 10
f 1 10 3
f 1 3 4
f 1 4 5
f 1 5 6
f 1 6 2
f 2 7 8
f 2 6 9
f 2 9 7
f 3 10 11
f 3 11 12
f 3 12 4
f 4 12 13
f 4 13 5
f 5 13 14
f 5 14 15
f 5 15 6
f 6 15 16
f 6 16 17
f 6 17 9
f 7 18 8
f 7 9 17
f 7 17 16
f 7 16 30
f 7 30 42
f 7 42 44
f 7 44 53
f 7 53 52
f 7 52 67
f 7 67 73
f 7 73 72
f 7 72 56
f 7 56 54
f 7 54 45
f 7 45 32
f 7 32 18
f 10 19 20
f 10 20 21
f 10 21 22
f 10 22 23
f 10 23 24
f 10 24 25
f 10 25 11
f 11 25 12
f 12 26 27
f 12 27 13
f 12 25 26
f 13 27 28
f 13 28 14
f 14 28 29
f 14 29 31
f 14 31 15
f 15 30 16
f 15 31 30
f 19 33 34
f 19 34 20
f 20 34 21
f 21 34 35
f 21 35 36
f 21 36 22
f 22 36 23
f 23 36 37
f 23 37 24
f 24 37 25
f 25 38 26
f 25 37 38
f 26 38 39
f 26 39 27
f 27 39 40
f 27 40 28
f 28 40 29
f 29 40 41
f 29 41 43
f 29 43 31
f 30 31 42
f 31 43 44
f 31 44 42
f 32 45 46
f 33 47 48
f 33 48 34
f 34 48 35
f 35 48 36
f 36 48 37
f 37 48 38
f 38 48 49
f 38 49 39
f 39 50 51
f 39 51 40
f 39 49 50
f 40 51 41
f 41 51 66
f 41 66 67
f 41 67 52
f 41 52 43
f 43 52 53
f 43 53 44
f 45 54 46
f 46 54 56
f 46 56 57
f 46 57 73
f 46 73 67
f 46 67 66
f 46 66 65
f 46 65 63
f 46 63 64
f 46 64 60
f 46 60 59
f 46 59 55
f 47 58 48
f 48 59 60
f 48 60 49
f 48 58 61
f 48 61 62
f 48 62 59
f 49 63 50
f 49 60 64
f 49 64 63
f 50 63 65
f 50 65 66
f 50 66 51
f 55 59 62
f 55 62 68
f 55 68 69
f 55 69 70
f 55 70 71
f 56 72 57
f 57 72 73
f 58 71 70
f 58 70 69
f 58 69 68
f 58 68 62
f 58 62 61

