# https://github.com/mikedh/trimesh
v -38.05247103 -28.20435747 -11.76558652
v -38.00694769 -28.20435747 -11.76313973
v -43.05201308 -28.20435747 -11.76068997
v -40.05283383 -28.18014889 -11.73865995
v -38.05247103 -28.18014889 -11.73865995
v -37.02998245 -28.20435747 -11.68970633
v -43.81774405 -28.20435747 -11.34213150
v -43.67843516 -27.90578990 -11.16344753
v -43.05201308 -28.18176418 -11.73621316
v -43.05201308 -11.71699354 8.43549212
v -38.05247103 -11.71699354 8.42814878
v -36.19050367 -28.20435747 -11.38374177
v -37.05274561 -11.71699354 8.56277271
v -43.91516549 -28.20435747 -11.16099776
v -44.35311646 -11.71699354 9.48066936
v -43.90423989 -11.71699354 8.71208332
v -43.71758673 -11.71699354 8.65089130
v -35.91553373 -28.20435747 -10.51724552
v -36.92254437 -11.71699354 8.62151794
v -36.45181660 -11.71699354 8.83691712
v -44.23474980 -28.20435747 -10.26513113
v -45.07423007 -11.71699354 13.24037605
v -35.82721546 -28.20435747 -9.51612534
v -36.35075180 -11.71699354 9.48066936
v -35.77349642 -11.71699354 13.24037605
v -44.42504483 -28.20435747 -9.21995389
v -45.07058820 -12.50133691 13.24037605
v -35.81355697 -28.20435747 -8.51745493
v -35.77349642 -12.50133691 13.24037605
v -44.44962893 -28.20435747 -8.22128050
v -45.02961570 -13.50032771 13.24037605
v -44.44962893 -28.20435747 0.77655825
v -35.81264799 -28.20435747 -5.53123083
v -35.77531736 -12.56266453 13.24037605
v -35.82903639 -28.20435747 6.46751869
v -35.81173603 -28.20435747 5.48108519
v -35.81173603 -28.20435747 -0.53052648
v -44.44871697 -21.49870031 13.24037605
v -44.44689604 -28.20435747 1.48150400
v -44.44507510 -28.20435747 1.77767843
v -35.82357359 -13.50032771 13.24037605
v -35.82994686 -28.20435747 6.47975858
v -44.36950486 -22.49930342 13.24037605
v -44.32944134 -28.20435747 2.77634885
v -36.35075180 -22.49930342 13.24037605
v -36.07942224 -28.20435747 7.47843049
v -36.45181660 -23.14485425 13.24037605
v -44.26115483 -22.68974150 13.24037605
v -43.93610772 -28.20435747 3.88027281
v -43.92062829 -23.27396471 13.24037605
v -37.05274561 -28.20435747 8.13197286
v -36.59658531 -23.21586470 13.24037605
v -43.74034989 -28.20435747 4.19603047
v -41.76183829 -28.20435747 7.30219480
v -41.11174408 -28.20435747 7.76970986
v -40.05283383 -28.20435747 8.23967319
v -43.05201308 -23.55316512 13.24037605
v -38.05247103 -28.20435747 8.24946481
v -37.05274561 -23.42405465 13.24037605
v -37.29493725 -23.45794608 13.24037605
v -38.05247103 -23.55800653 13.24037605
v -39.05310841 -28.20435747 8.25680815
v -42.05228766 -23.55962034 13.24037605
v -38.66068377 -28.20435747 8.25435838
v -38.29466416 -23.55962034 13.24037605
f 1 2 6
f 1 6 12
f 1 12 18
f 1 18 23
f 1 23 28
f 1 28 33
f 1 33 37
f 1 37 36
f 1 36 35
f 1 35 42
f 1 42 46
f 1 46 51
f 1 51 58
f 1 58 64
f 1 64 62
f 1 62 56
f 1 56 55
f 1 55 54
f 1 54 53
f 1 53 49
f 1 49 44
f 1 44 40
f 1 40 39
f 1 39 32
f 1 32 30
f 1 30 26
f 1 26 21
f 1 21 14
f 1 14 7
f 1 7 3
f 1 3 4
f 1 4 5
f 1 5 2
f 2 5 6
f 3 7 8
f 3 8 9
f 3 9 4
f 4 9 10
f 4 10 11
f 4 11 5
f 5 11 6
f 6 11 13
f 6 13 12
f 7 14 15
f 7 15 16
f 7 16 8
f 8 16 9
f 9 16 17
f 9 17 10
f 10 17 16
f 10 16 15
f 10 15 22
f 10 22 25
f 10 25 24
f 10 24 20
f 10 20 19
f 10 19 13
f 10 13 11
f 12 13 19
f 12 19 20
f 12 20 18
f 14 21 15
f 15 21 22
f 18 20 24
f 18 24 25
f 18 25 23
f 21 26 22
f 22 27 31
f 22 31 38
f 22 38 43
f 22 43 48
f 22 48 50
f 22 50 57
f 22 57 63
f 22 63 65
f 22 65 61
f 22 61 60
f 22 60 59
f 22 59 52
f 22 52 47
f 22 47 45
f 22 45 41
f 22 41 34
f 22 34 29
f 22 29 25
f 22 26 27
f 23 25 28
f 25 29 28
f 26 30 27
f 27 30 32
f 27 32 31
f 28 29 33
f 29 34 35
f 29 35 36
f 29 36 37
f 29 37 33
f 31 32 39
f 31 39 40
f 31 40 38
f 34 41 42
f 34 42 35
f 38 40 43
f 40 44 43
f 41 45 42
f 42 45 47
f 42 47 46
f 43 44 48
f 44 49 50
f 44 50 48
f 46 47 51
f 47 52 51
f 49 53 50
f 50 54 55
f 50 55 56
f 50 56 57
f 50 53 54
f 51 52 59
f 51 59 60
f 51 60 61
f 51 61 58
f 56 62 57
f 57 62 63
f 58 61 64
f 61 65 64
f 62 64 65
f 62 65 63

