# https://github.com/mikedh/trimesh
v 3.69470660 -26.54122207 7.12011930
v 3.69470660 -25.75327929 7.10043623
v 1.85701041 -26.54122207 7.55510193
v 3.69470660 -26.54122207 -7.22250876
v 3.69470660 -24.75020108 7.05123078
v 1.79770936 -26.54122207 7.56100581
v 2.23363375 -26.54122207 -10.51735877
v 2.23426408 -24.75020108 -10.51735877
v 3.69470660 -24.75020108 -7.22250876
v 2.94776762 -24.75020108 7.05123078
v 1.10502437 -26.54122207 7.34253101
v 2.74841560 -24.75020108 7.04335696
v 2.15099137 -24.75020108 7.01580155
v 1.65134920 -24.75020108 6.88589834
v 1.80338674 -26.54122207 -11.43652799
v 1.78446065 -24.75020108 -11.47589414
v -2.27765069 -26.54122207 4.96291777
v -2.50854568 -24.75020108 3.02222557
v -2.60443677 -24.86276370 3.06749559
v 1.78446065 -26.54122207 -11.47589414
v 1.39143400 -25.50009797 -11.97779832
v 1.48984936 -24.75020108 -11.85182904
v -2.59308052 -25.93036584 4.04374557
v -2.65364371 -26.54122207 4.41574655
v -2.62336212 -24.75020108 2.87460774
v 1.39143400 -26.54122207 -11.97779832
v 1.39143400 -24.75020108 -11.97582837
v 0.89179332 -24.75020108 -12.24154165
v -2.66121355 -26.54122207 4.32914043
v -2.68077070 -24.75020108 2.47702131
v 0.89179332 -26.54122207 -12.24154165
v -0.05197490 -24.75020108 -12.50528796
v -2.73944068 -25.50009797 2.48095524
v -2.73123903 -26.50002009 3.48082670
v -2.73187010 -26.54122207 3.48082670
v -2.74953480 -24.75020108 1.48108677
v -0.05197490 -26.54122207 -12.50528796
v -1.01025172 -26.54122207 -12.54465411
v -0.80143667 -24.75020108 -12.53481332
v -2.74953480 -26.50002009 2.48095524
v -2.74953480 -26.54122207 2.48095524
v -2.74953480 -24.75020108 -11.51722725
v -2.75016512 -26.50002009 -10.51735877
v -1.05188808 -26.54122207 -12.54465411
v -1.05188808 -24.75020108 -12.54465411
v -2.75016512 -26.54122207 -10.51735877
v -2.72493133 -24.75020108 -11.67665581
v -2.74574913 -26.54122207 -11.54281569
v -2.74953480 -26.54122207 -11.51722725
v -2.01016565 -26.54122207 -12.42458871
v -2.05180274 -24.75020108 -12.41868483
v -2.65048911 -24.75020108 -12.15297155
v -2.65048911 -26.54122207 -12.15297155
v -2.05180274 -26.54122207 -12.41868483
v -2.62588564 -26.54122207 -12.16478229
v -2.50097510 -24.75020108 -12.21989310
f 1 2 3
f 1 3 6
f 1 6 11
f 1 11 17
f 1 17 24
f 1 24 29
f 1 29 35
f 1 35 41
f 1 41 46
f 1 46 49
f 1 49 48
f 1 48 53
f 1 53 55
f 1 55 54
f 1 54 50
f 1 50 44
f 1 44 38
f 1 38 37
f 1 37 31
f 1 31 26
f 1 26 20
f 1 20 15
f 1 15 7
f 1 7 4
f 1 4 9
f 1 9 5
f 1 5 2
f 2 5 3
f 3 5 6
f 4 7 8
f 4 8 9
f 5 10 6
f 5 9 8
f 5 8 16
f 5 16 22
f 5 22 27
f 5 27 28
f 5 28 32
f 5 32 39
f 5 39 45
f 5 45 51
f 5 51 56
f 5 56 52
f 5 52 47
f 5 47 42
f 5 42 36
f 5 36 30
f 5 30 25
f 5 25 18
f 5 18 14
f 5 14 13
f 5 13 12
f 5 12 10
f 6 10 12
f 6 12 13
f 6 13 14
f 6 14 11
f 7 15 8
f 8 15 16
f 11 14 17
f 14 18 19
f 14 19 17
f 15 20 16
f 16 20 26
f 16 26 21
f 16 21 22
f 17 19 23
f 17 23 24
f 18 25 19
f 19 25 24
f 19 24 23
f 21 27 22
f 21 26 31
f 21 31 28
f 21 28 27
f 24 25 30
f 24 30 29
f 28 31 37
f 28 37 32
f 29 30 33
f 29 33 34
f 29 34 35
f 30 36 33
f 32 37 38
f 32 38 39
f 33 36 40
f 33 40 35
f 33 35 34
f 35 40 41
f 36 42 43
f 36 43 40
f 38 44 45
f 38 45 39
f 40 43 46
f 40 46 41
f 42 47 48
f 42 48 49
f 42 49 46
f 42 46 43
f 44 50 45
f 45 50 51
f 47 52 53
f 47 53 48
f 50 54 51
f 51 55 56
f 51 54 55
f 52 56 55
f 52 55 53

