# https://github.com/mikedh/trimesh
v -42.02884798 13.83314883 20.42038645
v -36.05233324 14.98043099 20.42038645
v -36.05233324 15.45798949 24.29090188
v -42.02884798 14.93857335 24.29090188
v -42.02884798 23.44234896 20.42038645
v -35.25448410 15.38283649 20.42038645
v -35.24607830 15.73386990 24.29090188
v -35.40018414 15.68059641 24.29090188
v -42.02884798 23.54889594 24.29090188
v -42.02884798 23.54604086 22.48200907
v -38.05291211 23.55174953 20.42038645
v -35.20685223 15.46940535 20.42038645
v -35.17883191 15.88037162 24.29090188
v -41.05167412 23.54984664 24.29090188
v -42.02884798 23.54889594 23.48194013
v -37.05262193 23.41951725 20.42038645
v -41.05167412 23.54984664 23.48194013
v -38.05291211 23.55079734 24.29090188
v -37.86097794 23.52606423 24.29090188
v -37.05262193 23.41951725 21.48245725
v -34.87272132 16.50062756 20.42038645
v -34.89443543 16.50062756 24.29090188
v -36.45160799 23.14268466 20.42038645
v -37.05262193 23.41856655 24.29090188
v -36.93774366 23.36624376 24.29090188
v -36.45160799 23.14268466 24.29090188
v -34.89373507 17.50045580 20.42038645
v -34.89373507 17.50045580 24.29090188
f 1 2 3
f 1 3 4
f 1 4 9
f 1 9 15
f 1 15 10
f 1 10 5
f 1 5 11
f 1 11 16
f 1 16 23
f 1 23 27
f 1 27 21
f 1 21 12
f 1 12 6
f 1 6 2
f 2 6 7
f 2 7 8
f 2 8 3
f 3 8 7
f 3 7 13
f 3 13 22
f 3 22 28
f 3 28 26
f 3 26 25
f 3 25 24
f 3 24 19
f 3 19 18
f 3 18 14
f 3 14 9
f 3 9 4
f 5 10 11
f 6 12 7
f 7 12 13
f 9 14 17
f 9 17 15
f 10 15 11
f 11 15 17
f 11 17 14
f 11 14 18
f 11 18 19
f 11 19 20
f 11 20 16
f 12 21 22
f 12 22 13
f 16 20 26
f 16 26 23
f 19 24 20
f 20 24 25
f 20 25 26
f 21 27 28
f 21 28 22
f 23 26 28
f 23 28 27

