# https://github.com/mikedh/trimesh
v 3.69470660 -28.50015341 7.23717763
v 3.69470660 -31.49977373 7.23226468
v 3.69470660 -27.76991724 7.21998157
v 2.23482734 -28.50015341 10.48208011
v 2.23482734 -31.49977373 10.48208011
v 3.69470660 -32.49518077 7.22980746
v 3.69470660 -26.74245760 7.18804818
v 1.78806825 -28.50015341 11.44498900
v 1.78870006 -30.49970558 11.44744473
v 1.79123178 -32.49518077 11.44253327
v 2.23482734 -32.49518077 10.47716717
v 3.69470660 -32.49518077 -7.22118850
v 3.69470660 -26.54197905 7.12172566
v 1.40015869 -28.50015341 11.94609447
v 1.40395553 -31.49977373 11.94855020
v 1.40522065 -32.49518077 11.94855020
v 1.64442161 -27.50066939 11.25830305
v 1.78870006 -31.49977373 11.44744473
v 2.23039720 -32.49518077 -10.52258613
v 2.23292892 -31.49977373 -10.51767468
v 2.23356223 -29.50022156 -10.51767468
v 3.69470660 -26.54197905 -7.22118850
v 1.85704319 -26.54197905 7.55405288
v 0.49588179 -26.98723163 12.00013538
v 1.48305588 -26.98373281 11.03968371
v 1.21031815 -27.50066939 11.75695131
v 0.71040328 -27.50066939 12.11558586
v 0.90024382 -28.50015341 12.21875472
v 0.90783750 -32.49518077 12.21875472
v 1.78173968 -32.49518077 -11.47812634
v 1.78427141 -31.49977373 -11.47567062
v 1.80325561 -26.54197905 -11.43636706
v 2.23356223 -26.54197905 -10.51767468
v 1.79756035 -26.54197905 7.55896583
v -0.05149359 -26.97790642 12.01732845
v -0.05149359 -27.50066939 12.27770708
v -0.05149359 -28.50015341 12.50124085
v -0.05149359 -32.49518077 12.50124085
v 1.38813486 -32.49518077 -11.97677609
v 1.39066659 -31.49977373 -11.97677609
v 1.39129989 -30.49970558 -11.97677609
v 1.40775237 -26.54197905 -11.95712431
v 1.78427141 -26.54197905 -11.47567062
v 1.10527173 -26.54197905 7.34280222
v -1.70121339 -26.98373281 12.00750405
v -1.05195588 -26.97557586 12.02224288
v -1.05195588 -27.50066939 12.30472902
v -1.05195588 -28.50015341 12.54545587
v -1.05195588 -32.49518077 12.54545587
v 0.88568976 -32.49518077 -12.24206618
v 0.89138503 -28.50015341 -12.24206618
v 1.39129989 -26.54197905 -11.97677609
v -2.27769688 -26.54197905 4.96255120
v -2.27643176 -27.11894087 11.48183385
v -2.61751263 -27.74602457 12.07628379
v -2.04166169 -27.44763581 12.16716954
v -2.65358261 -26.54197905 4.41477499
v -2.05178635 -28.50015341 12.40789639
v -2.05178635 -32.49518077 12.41526655
v -0.05655554 -32.49518077 -12.50490053
v -0.05149359 -31.49977373 -12.50490053
v 0.89138503 -26.54197905 -12.24206618
v -0.01289188 -26.54197905 -12.49507464
v -2.65041908 -27.61897644 11.48183385
v -2.74976874 -28.50015341 11.48183385
v -2.65105163 -28.50015341 12.12541026
v -2.66117629 -26.54197905 4.32880069
v -2.65927787 -32.49518077 12.13032469
v -1.05638602 -32.49518077 -12.54420409
v -1.05195588 -31.49977373 -12.54665982
v -0.05149359 -26.54197905 -12.50490053
v -2.73205040 -26.54197905 3.48134228
v -2.76875295 -32.49518077 11.48183385
v -2.74976874 -26.54197905 2.48159004
v -2.05494989 -32.49518077 -12.42138196
v -2.05178635 -26.54197905 -12.41892623
v -1.05195588 -26.54197905 -12.54420409
v -1.01019137 -26.54197905 -12.54420409
v -2.76938625 -32.49518077 10.48208011
v -2.74976874 -26.54197905 -11.51742990
v -2.65801276 -32.49518077 -12.15363615
v -2.65041908 -26.54197905 -12.15363615
v -2.76938625 -32.49518077 7.48036020
v -2.76558941 -32.49518077 -11.51742990
v -2.76748783 -32.49518077 -10.51767468
f 1 2 6
f 1 6 12
f 1 12 22
f 1 22 13
f 1 13 7
f 1 7 3
f 1 3 4
f 1 4 5
f 1 5 2
f 2 5 6
f 3 7 4
f 4 8 9
f 4 9 10
f 4 10 5
f 4 7 8
f 5 10 11
f 5 11 6
f 6 11 10
f 6 10 16
f 6 16 29
f 6 29 38
f 6 38 49
f 6 49 59
f 6 59 68
f 6 68 73
f 6 73 79
f 6 79 83
f 6 83 85
f 6 85 84
f 6 84 81
f 6 81 75
f 6 75 69
f 6 69 60
f 6 60 50
f 6 50 39
f 6 39 30
f 6 30 19
f 6 19 12
f 7 13 8
f 8 14 15
f 8 15 16
f 8 16 9
f 8 13 17
f 8 17 14
f 9 18 10
f 9 16 18
f 10 18 16
f 12 19 20
f 12 20 21
f 12 21 33
f 12 33 22
f 13 23 24
f 13 24 25
f 13 25 17
f 13 22 33
f 13 33 32
f 13 32 43
f 13 43 42
f 13 42 52
f 13 52 62
f 13 62 63
f 13 63 71
f 13 71 78
f 13 78 77
f 13 77 76
f 13 76 82
f 13 82 80
f 13 80 74
f 13 74 72
f 13 72 67
f 13 67 57
f 13 57 53
f 13 53 44
f 13 44 34
f 13 34 23
f 14 26 27
f 14 27 28
f 14 28 15
f 14 17 26
f 15 28 29
f 15 29 16
f 17 25 26
f 19 30 31
f 19 31 21
f 19 21 20
f 21 31 32
f 21 32 33
f 23 34 35
f 23 35 24
f 24 35 36
f 24 36 27
f 24 27 26
f 24 26 25
f 27 36 37
f 27 37 28
f 28 37 29
f 29 37 38
f 30 39 40
f 30 40 41
f 30 41 31
f 31 41 42
f 31 42 43
f 31 43 32
f 34 44 45
f 34 45 46
f 34 46 35
f 35 46 47
f 35 47 36
f 36 47 48
f 36 48 37
f 37 48 49
f 37 49 38
f 39 50 40
f 40 50 51
f 40 51 41
f 41 52 42
f 41 51 62
f 41 62 52
f 44 53 45
f 45 54 55
f 45 55 56
f 45 56 47
f 45 47 46
f 45 53 57
f 45 57 54
f 47 56 48
f 48 56 58
f 48 58 59
f 48 59 49
f 50 60 61
f 50 61 51
f 51 61 63
f 51 63 62
f 54 64 55
f 54 57 64
f 55 64 65
f 55 65 66
f 55 66 58
f 55 58 56
f 57 67 64
f 58 66 68
f 58 68 59
f 60 69 70
f 60 70 61
f 61 70 71
f 61 71 63
f 64 67 72
f 64 72 65
f 65 73 66
f 65 72 74
f 65 74 73
f 66 73 68
f 69 75 70
f 70 75 76
f 70 76 77
f 70 77 78
f 70 78 71
f 73 74 79
f 74 80 83
f 74 83 79
f 75 81 82
f 75 82 76
f 80 82 84
f 80 84 85
f 80 85 83
f 81 84 82

