# https://github.com/mikedh/trimesh
v -34.85141401 10.62556580 15.48295732
v -34.85328411 10.62556580 16.48231468
v -34.85141401 5.50042700 16.48231468
v -34.85141401 2.29354508 15.48295732
v -34.88506552 2.29354508 14.68881115
v -34.89441308 10.62556580 14.48289662
v -34.88506552 10.62556580 17.48167204
v -34.88319690 10.49996533 17.48167204
v -34.85141401 2.29354508 16.48231468
v -34.89441308 2.29354508 14.48289662
v -34.93741364 10.62556580 14.38520993
v -35.23280128 10.62556580 18.26738410
v -34.86076157 2.29354508 16.68893255
v -35.23280128 10.49996533 18.26738410
v -34.90189202 2.29354508 17.48167204
v -35.17297571 2.29354508 13.86796043
v -35.24588757 2.29354508 13.70772720
v -35.24588757 10.62556580 13.70772720
v -36.05352981 10.62556580 18.55130821
v -36.05352981 10.49996533 18.55130821
v -35.41788385 2.29354508 18.30463129
v -35.25336502 2.29354508 18.24770550
v -35.31505921 10.62556580 13.64517917
v -35.77309707 2.29354508 13.24037605
v -43.12039496 10.62556580 20.42000796
v -36.05352981 2.29354508 18.52249364
v -35.77309707 10.62556580 13.24037605
v -45.15071823 2.29354508 13.24037605
v -43.14095869 10.49996533 20.42000796
v -49.46187877 10.62556580 20.42000796
v -45.14323780 2.29354508 20.42000796
v -45.13762896 10.62556580 13.24037605
v -45.15071823 3.50061182 13.24037605
v -53.65151955 2.29354508 16.88219740
v -45.73962192 10.62556580 13.76113778
v -53.05139819 10.24142552 20.42000796
v -53.94691017 2.29354508 20.42000796
v -53.63843624 2.50070386 16.89695709
v -53.58608812 3.14827865 16.94966583
v -53.62721858 6.15697310 17.90545042
v -53.59356557 8.07441449 18.93502753
v -53.80669231 2.29354508 17.34603483
v -53.74499812 4.50051904 17.65455644
v -53.66460881 9.23907077 19.82475037
v -53.37483000 10.07423042 20.42000796
v -53.94877879 3.43781122 20.42000796
v -53.94691017 2.29354508 19.27517408
v -53.70573629 5.50042700 17.79370737
v -53.75247557 6.49380971 18.45502671
v -53.67956372 7.49942709 18.78884768
v -53.84782276 2.29354508 17.48167204
v -53.83473648 2.50070386 17.48167204
v -53.90017089 5.50042700 18.48173274
v -53.72256279 8.44468990 19.48741494
v -53.77117069 9.52778786 20.42000796
v -53.76930207 9.53675917 20.42000796
v -53.92073462 8.43735029 20.42000796
v -53.94130134 4.50051904 18.48173274
v -53.94503857 2.50070386 18.48173274
v -53.94503857 2.29354508 18.48173274
v -53.85904043 7.49942709 19.48179195
v -53.93569250 2.29354508 18.27511338
f 1 2 3
f 1 3 9
f 1 9 4
f 1 4 5
f 1 5 6
f 1 6 11
f 1 11 18
f 1 18 23
f 1 23 27
f 1 27 32
f 1 32 35
f 1 35 30
f 1 30 25
f 1 25 19
f 1 19 12
f 1 12 7
f 1 7 2
f 2 7 8
f 2 8 3
f 3 8 9
f 4 9 13
f 4 13 15
f 4 15 22
f 4 22 21
f 4 21 26
f 4 26 31
f 4 31 37
f 4 37 47
f 4 47 60
f 4 60 62
f 4 62 51
f 4 51 42
f 4 42 34
f 4 34 28
f 4 28 24
f 4 24 17
f 4 17 16
f 4 16 10
f 4 10 5
f 5 10 6
f 6 10 11
f 7 12 8
f 8 13 9
f 8 12 14
f 8 14 15
f 8 15 13
f 10 16 11
f 11 16 17
f 11 17 18
f 12 19 20
f 12 20 14
f 14 20 21
f 14 21 22
f 14 22 15
f 17 23 18
f 17 24 23
f 19 25 20
f 20 26 21
f 20 25 26
f 23 24 27
f 24 28 33
f 24 33 32
f 24 32 27
f 25 29 26
f 25 30 36
f 25 36 45
f 25 45 56
f 25 56 55
f 25 55 57
f 25 57 46
f 25 46 37
f 25 37 31
f 25 31 29
f 26 29 31
f 28 34 33
f 30 35 36
f 32 33 34
f 32 34 38
f 32 38 39
f 32 39 40
f 32 40 41
f 32 41 35
f 34 42 43
f 34 43 38
f 35 41 44
f 35 44 45
f 35 45 36
f 37 46 47
f 38 43 48
f 38 48 39
f 39 48 40
f 40 48 49
f 40 49 50
f 40 50 41
f 41 50 44
f 42 51 52
f 42 52 43
f 43 52 53
f 43 53 48
f 44 50 54
f 44 54 55
f 44 55 56
f 44 56 45
f 46 57 58
f 46 58 59
f 46 59 47
f 47 59 60
f 48 53 49
f 49 54 50
f 49 53 61
f 49 61 54
f 51 62 58
f 51 58 53
f 51 53 52
f 53 58 57
f 53 57 61
f 54 61 55
f 55 61 57
f 58 62 59
f 59 62 60

