# https://github.com/mikedh/trimesh
v -32.04718196 36.35501054 48.66945740
v -24.05284461 36.35600893 48.66945740
v -22.42288537 36.84999160 50.72217726
v -32.04718196 36.84999160 50.72217726
v -32.04718196 43.54918012 48.66945740
v -22.83744136 36.47476301 48.66945740
v -22.42288537 36.61447423 48.66945740
v -22.42288537 46.54999255 50.72217726
v -32.04718196 43.53919926 50.72217726
v -32.04718196 43.54918012 50.72117292
v -29.58057369 46.03704951 48.66945740
v -22.42288537 46.54999255 48.66945740
v -25.29274405 46.54999255 50.72217726
v -29.58057369 46.03704951 50.72217726
v -29.05201413 46.31248139 49.48262801
v -29.15094209 46.26058925 48.66945740
v -24.23939421 46.54999255 48.66945740
v -25.05248957 46.54999255 49.48262801
v -28.05142593 46.54899416 48.66945740
v -28.05142593 46.54899416 50.72217726
v -29.05201413 46.31248139 50.72217726
v -29.05201413 46.31148599 48.66945740
v -28.29168040 46.49310848 50.72217726
v -28.23891952 46.50508611 48.66945740
f 1 2 3
f 1 3 4
f 1 4 9
f 1 9 10
f 1 10 5
f 1 5 11
f 1 11 16
f 1 16 22
f 1 22 24
f 1 24 19
f 1 19 17
f 1 17 12
f 1 12 7
f 1 7 6
f 1 6 2
f 2 6 3
f 3 6 7
f 3 7 12
f 3 12 8
f 3 8 13
f 3 13 20
f 3 20 23
f 3 23 21
f 3 21 14
f 3 14 9
f 3 9 4
f 5 10 14
f 5 14 11
f 8 12 17
f 8 17 18
f 8 18 13
f 9 14 10
f 11 14 21
f 11 21 15
f 11 15 16
f 13 18 19
f 13 19 20
f 15 22 16
f 15 21 23
f 15 23 24
f 15 24 22
f 17 19 18
f 19 24 23
f 19 23 20

