# https://github.com/mikedh/trimesh
v 7.93258276 26.56808758 -4.56574552
v 9.37599911 27.50238753 -7.10359373
v 9.37599911 26.56808758 -7.10211553
v 7.93258276 26.56808758 4.56429719
v 7.93258276 37.50033020 -4.56722373
v 9.94929820 28.50241694 -7.36964676
v 9.91067265 26.56808758 -7.35043308
v 9.37599911 49.49833168 -7.10359373
v 9.36786600 26.56808758 7.07997531
v 7.93258276 48.49830227 4.56429719
v 7.93258276 49.49833168 -4.56722373
v 10.88040333 26.56808758 -7.53666900
v 9.94929820 26.56808758 -7.36816856
v 9.94929820 49.49833168 -7.36964676
v 9.40039545 50.06642427 -7.07403262
v 9.40649304 26.56808758 7.09919048
v 9.36786600 49.49833168 7.07997531
v 7.93258276 49.49833168 4.55986556
v 7.93258276 50.27065496 -4.29378266
v 10.94952430 26.56808758 -7.54849464
v 10.94952430 49.49833168 -7.54849464
v 9.94929820 50.18614694 -7.19375827
v 7.93258276 50.54530899 -3.51779367
v 9.94929820 50.38098388 -6.51680006
v 9.94929820 26.56808758 7.36376382
v 9.94929820 48.49830227 7.36376382
v 9.94929820 49.49833168 7.36228710
v 9.39429487 50.07346363 7.04745778
v 7.93258276 50.27535184 4.27016125
v 26.94703545 32.50253160 -7.54997285
v 26.94703545 26.56808758 -7.54849464
v 10.94952430 50.27065496 -7.28244162
v 18.94726510 50.27065496 -7.28391982
v 26.94703545 49.49833168 -7.54997285
v 10.94952430 50.54530899 -6.51680006
v 7.93258276 50.55000587 -2.51714139
v 10.01638664 26.56808758 7.37706766
v 10.94952430 48.49830227 7.54852452
v 10.94952430 49.49833168 7.54556811
v 9.94929820 50.19318630 7.17013686
v 9.94929820 50.37629296 6.48135600
v 7.93258276 50.55000587 3.48087140
v 7.93258276 50.54530899 3.49713165
v 27.94726155 26.56808758 -7.40807711
v 26.94703545 50.27065496 -7.28391982
v 27.94726155 50.20492253 -7.21149374
v 27.94726155 49.49833168 -7.40512070
v 27.94726155 45.49821703 -7.40659890
v 11.94975041 50.55000587 -5.51762300
v 26.94703545 50.54530899 -6.51680006
v 10.94952430 26.56808758 7.54852452
v 26.94703545 48.49830227 7.54852452
v 26.94703545 49.49833168 7.54556811
v 10.94952430 50.27300340 7.26177811
v 10.94952430 50.55000587 6.48135600
v 28.52056065 26.56808758 -7.15975956
v 28.52259616 50.09224517 -7.09915912
v 27.94726155 50.42324385 -6.51680006
v 28.55918769 49.49833168 -7.13906767
v 28.56122022 45.49821703 -7.14054587
v 25.94680934 50.55000587 -5.51762300
v 27.94726155 50.43028320 6.48135600
v 26.94703545 50.55000587 6.48135600
v 26.94703545 26.56808758 7.54852452
v 27.94726155 48.49830227 7.41401980
v 27.94726155 49.49833168 7.41254159
v 27.01412389 26.56808758 7.53965529
v 27.94726155 50.21901316 7.19674306
v 26.94703545 50.27300340 7.26177811
v 28.56122022 26.56808758 -7.14202408
v 28.56935333 50.15093229 -6.51680006
v 28.69133205 49.49833168 -6.51680006
v 28.56122022 47.49827286 -7.13906767
v 28.69336458 46.49824644 -6.51680006
v 28.68523445 26.56808758 -6.55966502
v 28.57341839 50.15562917 6.48135600
v 28.53479135 50.10867828 7.08145352
v 28.57951896 49.49833168 7.13022980
v 27.94726155 26.56808758 7.41401980
v 28.69946217 49.49833168 6.48135600
v 28.69336458 26.56808758 -6.51680006
v 28.57951896 26.56808758 7.13022980
v 28.58764909 26.56808758 7.08736633
v 28.69946217 26.56808758 6.48135600
f 1 2 3
f 1 3 7
f 1 7 13
f 1 13 12
f 1 12 20
f 1 20 31
f 1 31 44
f 1 44 56
f 1 56 70
f 1 70 75
f 1 75 81
f 1 81 84
f 1 84 83
f 1 83 82
f 1 82 79
f 1 79 67
f 1 67 64
f 1 64 51
f 1 51 37
f 1 37 25
f 1 25 16
f 1 16 9
f 1 9 4
f 1 4 10
f 1 10 18
f 1 18 29
f 1 29 43
f 1 43 42
f 1 42 36
f 1 36 23
f 1 23 19
f 1 19 11
f 1 11 5
f 1 5 2
f 2 6 7
f 2 7 3
f 2 5 11
f 2 11 8
f 2 8 14
f 2 14 6
f 4 9 17
f 4 17 10
f 6 12 13
f 6 13 7
f 6 14 12
f 8 11 15
f 8 15 14
f 9 16 17
f 10 17 18
f 11 19 15
f 12 14 21
f 12 21 20
f 14 15 22
f 14 22 21
f 15 19 23
f 15 23 24
f 15 24 22
f 16 25 26
f 16 26 17
f 17 26 27
f 17 27 28
f 17 28 18
f 18 28 29
f 20 30 31
f 20 21 34
f 20 34 30
f 21 22 32
f 21 32 33
f 21 33 34
f 22 24 35
f 22 35 32
f 23 36 35
f 23 35 24
f 25 37 26
f 26 38 27
f 26 37 38
f 27 38 39
f 27 39 40
f 27 40 28
f 28 40 41
f 28 41 42
f 28 42 43
f 28 43 29
f 30 44 31
f 30 34 44
f 32 35 33
f 33 45 34
f 33 35 50
f 33 50 45
f 34 45 46
f 34 46 47
f 34 47 48
f 34 48 44
f 35 36 49
f 35 49 61
f 35 61 50
f 36 42 55
f 36 55 63
f 36 63 61
f 36 61 49
f 37 51 38
f 38 52 53
f 38 53 39
f 38 51 64
f 38 64 52
f 39 53 69
f 39 69 54
f 39 54 40
f 40 54 55
f 40 55 41
f 41 55 42
f 44 48 56
f 45 50 46
f 46 57 47
f 46 50 58
f 46 58 57
f 47 57 59
f 47 59 60
f 47 60 48
f 48 60 56
f 50 62 58
f 50 61 63
f 50 63 62
f 52 65 66
f 52 66 53
f 52 64 67
f 52 67 65
f 53 66 68
f 53 68 69
f 54 69 63
f 54 63 55
f 56 60 70
f 57 58 71
f 57 71 72
f 57 72 59
f 58 62 71
f 59 72 73
f 59 73 60
f 60 73 74
f 60 74 75
f 60 75 70
f 62 76 71
f 62 63 68
f 62 68 77
f 62 77 76
f 63 69 68
f 65 78 66
f 65 67 79
f 65 79 82
f 65 82 78
f 66 78 77
f 66 77 68
f 71 76 80
f 71 80 72
f 72 80 74
f 72 74 73
f 74 80 84
f 74 84 81
f 74 81 75
f 76 77 80
f 77 78 80
f 78 82 83
f 78 83 80
f 80 83 84

