# https://github.com/mikedh/trimesh
v -36.95413206 39.55923707 13.24037605
v -37.57732355 34.50054000 16.85940294
v -37.60112086 37.11324021 16.89291289
v -36.93330904 39.79565447 13.24037605
v -36.90356315 38.47960514 13.24037605
v -37.56245209 33.98648533 16.96412005
v -37.58922369 33.95314525 17.48351682
v -37.59665942 34.49387020 17.44861211
v -37.61748244 37.15991691 17.48351682
v -37.61153386 37.11566614 23.48171885
v -37.60112086 37.09323676 24.48141894
v -36.72656899 39.21309872 27.50285918
v -36.05131995 39.48770507 27.50285918
v -35.91448617 39.79565447 16.34977842
v -30.40094011 39.79565447 13.24037605
v -36.64922847 37.26357603 13.24037605
v -37.05080845 33.92525904 16.88313767
v -37.05080845 33.79068578 17.48351682
v -36.57337511 36.98169488 13.24037605
v -37.61153386 33.92707997 18.48321691
v -37.05080845 33.73127744 18.48321691
v -37.61302100 33.92586701 19.48291774
v -37.61599529 33.92283610 22.48201801
v -37.61599529 33.92162313 23.48171885
v -37.61599529 34.20714018 23.48171885
v -37.60855957 36.53796223 24.53168312
v -37.59368513 36.50037530 25.06085437
v -37.57732355 37.04595209 25.01896693
v -36.91694746 38.50021358 27.50285918
v -35.07414162 39.54832636 27.50285918
v -35.05183146 39.54953933 27.50285918
v -35.87581442 39.79565447 16.42517580
v -22.42437102 39.63258702 18.85321813
v -22.42437102 39.63258702 18.48321691
v -22.42437102 39.61561151 15.48272039
v -22.42437102 39.55438820 13.24037605
v -30.51397808 39.79565447 15.48272039
v -36.04388423 36.90531401 13.24037605
v -36.05131995 33.87191552 16.81332676
v -36.05131995 33.67550799 17.48351682
v -36.05131995 33.60821987 18.48321691
v -37.05080845 33.72885151 20.48122159
v -37.61450815 33.92344109 21.48092168
v -37.59517228 33.94768841 24.19937984
v -37.59071084 34.79333184 25.09296733
v -37.60260800 35.50076014 25.11670280
v -37.05080845 33.72642857 22.48201801
v -37.05080845 33.72582358 23.48171885
v -36.89910022 37.49999343 27.50285918
v -34.07316748 39.55014432 27.50285918
v -34.05085731 39.79565447 16.77423331
v -35.03100993 39.79565447 16.67928845
v -35.05183146 39.79565447 16.67370346
v -22.42437102 39.55014432 27.50285918
v -31.01967165 39.79565447 16.49777921
v -22.42437102 36.78589533 13.24037605
v -35.05183146 36.87136895 13.24037605
v -34.05085731 33.87434144 16.81332676
v -32.05188033 36.84954456 13.24037605
v -35.05183146 33.67672095 17.48351682
v -33.05136882 33.60700690 18.48321691
v -35.05183146 33.60700690 18.48321691
v -36.05131995 33.60761488 23.48171885
v -37.05080845 33.72764153 21.48092168
v -34.05085731 33.60458396 19.48291774
v -37.05526988 33.87191552 24.51213565
v -37.39289514 34.12651842 24.86538190
v -36.71169753 36.75619116 27.50285918
v -33.04244446 39.79565447 16.77423331
v -22.42437102 36.83560295 27.50285918
v -32.05188033 39.79565447 16.77144081
v -22.42437102 36.54826496 14.11162282
v -30.35929557 33.91919721 16.87057293
v -31.05090469 33.87797735 16.81472301
v -32.05188033 33.87676438 16.81332676
v -34.05085731 33.67853891 17.48351682
v -33.05136882 33.60337100 19.48291774
v -32.05188033 33.68217481 17.48351682
v -32.05188033 33.60943283 18.48321691
v -36.05131995 33.75310182 24.48141894
v -34.05085731 33.60458396 22.48201801
v -33.05136882 33.60337100 22.48201801
v -35.05183146 33.60882486 23.48171885
v -31.05090469 33.73552132 24.48141894
v -34.05085731 33.74400907 24.48141894
v -35.05183146 33.74703999 24.48141894
v -36.72508184 33.96951280 25.01757069
v -36.67897437 36.73557974 27.50285918
v -30.04249332 36.36095316 27.50285918
v -31.05090469 33.91192241 25.07760860
v -30.39796582 33.93920364 25.04828814
v -30.05885341 33.86706665 24.45768273
v -29.50407808 33.95678116 24.10862522
v -22.54930690 35.99784228 22.99164180
v -22.42437102 36.11180710 23.11590637
v -22.42437102 36.35307040 15.28724866
v -30.03654325 33.85615296 17.51842301
v -31.05090469 33.68581370 17.48351682
v -31.05090469 33.61064579 22.48201801
v -31.05090469 33.62337445 18.48321691
v -36.05131995 33.94950935 25.04130690
v -32.05188033 33.91859222 25.07202361
v -33.05136882 33.92586701 25.06504312
v -34.05085731 33.93374680 25.05945812
v -35.05183146 33.94162658 25.05108064
v -31.05090469 33.62155649 23.48171885
v -30.05141769 33.75310182 23.48171885
v -36.05131995 36.47006614 27.50285918
v -31.12229662 36.29669596 27.50285918
v -31.13419527 36.29669596 27.50285918
v -22.54930690 35.99784228 22.97349057
v -22.42437102 36.33791582 15.48272039
v -30.05141769 33.75491978 18.48321691
v -29.52490109 33.96890483 17.87585801
v -35.05183146 36.42642035 27.50285918
f 1 2 3
f 1 3 4
f 1 4 15
f 1 15 36
f 1 36 56
f 1 56 59
f 1 59 57
f 1 57 38
f 1 38 19
f 1 19 16
f 1 16 5
f 1 5 2
f 2 6 7
f 2 7 8
f 2 8 3
f 2 5 6
f 3 8 9
f 3 9 4
f 4 9 10
f 4 10 11
f 4 11 12
f 4 12 13
f 4 13 14
f 4 14 32
f 4 32 53
f 4 53 52
f 4 52 51
f 4 51 69
f 4 69 71
f 4 71 55
f 4 55 37
f 4 37 15
f 5 16 6
f 6 17 18
f 6 18 7
f 6 16 19
f 6 19 17
f 7 20 8
f 7 18 21
f 7 21 20
f 8 20 9
f 9 20 22
f 9 22 23
f 9 23 24
f 9 24 25
f 9 25 10
f 10 25 26
f 10 26 11
f 11 26 27
f 11 27 28
f 11 28 12
f 12 28 29
f 12 29 49
f 12 49 68
f 12 68 88
f 12 88 108
f 12 108 115
f 12 115 110
f 12 110 109
f 12 109 89
f 12 89 70
f 12 70 54
f 12 54 50
f 12 50 31
f 12 31 30
f 12 30 13
f 13 30 14
f 14 30 31
f 14 31 32
f 15 33 34
f 15 34 35
f 15 35 36
f 15 37 33
f 17 19 38
f 17 38 39
f 17 39 40
f 17 40 18
f 18 40 41
f 18 41 21
f 20 21 22
f 21 42 43
f 21 43 22
f 21 41 42
f 22 43 23
f 23 43 24
f 24 44 45
f 24 45 46
f 24 46 26
f 24 26 25
f 24 43 47
f 24 47 48
f 24 48 44
f 26 46 27
f 27 46 29
f 27 29 28
f 29 46 49
f 31 50 51
f 31 51 52
f 31 52 53
f 31 53 32
f 33 54 70
f 33 70 95
f 33 95 112
f 33 112 96
f 33 96 72
f 33 72 56
f 33 56 36
f 33 36 35
f 33 35 34
f 33 37 55
f 33 55 54
f 38 57 39
f 39 58 40
f 39 57 59
f 39 59 56
f 39 56 58
f 40 58 75
f 40 75 60
f 40 60 61
f 40 61 62
f 40 62 41
f 41 63 48
f 41 48 47
f 41 47 64
f 41 64 42
f 41 62 77
f 41 77 65
f 41 65 63
f 42 64 43
f 43 64 47
f 44 48 66
f 44 66 67
f 44 67 45
f 45 67 68
f 45 68 49
f 45 49 46
f 48 63 66
f 50 54 69
f 50 69 51
f 54 55 71
f 54 71 69
f 56 72 73
f 56 73 74
f 56 74 75
f 56 75 58
f 60 75 74
f 60 74 76
f 60 76 61
f 61 77 62
f 61 76 78
f 61 78 79
f 61 79 77
f 63 80 66
f 63 65 81
f 63 81 82
f 63 82 83
f 63 83 84
f 63 84 85
f 63 85 86
f 63 86 80
f 65 77 82
f 65 82 81
f 66 80 87
f 66 87 67
f 67 87 88
f 67 88 68
f 70 89 90
f 70 90 91
f 70 91 92
f 70 92 93
f 70 93 94
f 70 94 95
f 72 96 97
f 72 97 73
f 73 97 98
f 73 98 74
f 74 98 78
f 74 78 76
f 77 79 99
f 77 99 82
f 78 98 79
f 79 98 100
f 79 100 99
f 80 101 87
f 80 86 90
f 80 90 102
f 80 102 103
f 80 103 104
f 80 104 105
f 80 105 101
f 82 99 106
f 82 106 83
f 83 106 84
f 84 90 85
f 84 106 107
f 84 107 92
f 84 92 91
f 84 91 90
f 85 90 86
f 87 101 108
f 87 108 88
f 89 109 90
f 90 109 110
f 90 110 102
f 92 107 93
f 93 107 94
f 94 111 95
f 94 107 111
f 95 111 112
f 96 112 113
f 96 113 114
f 96 114 97
f 97 114 113
f 97 113 98
f 98 113 100
f 99 100 113
f 99 113 107
f 99 107 106
f 101 105 110
f 101 110 115
f 101 115 108
f 102 110 104
f 102 104 103
f 104 110 105
f 107 113 111
f 111 113 112

