# https://github.com/mikedh/trimesh
v -49.70957345 15.48847300 29.45304497
v -49.70957345 15.45101571 29.06929995
v -53.05208961 15.25986087 29.45304497
v -49.70957345 5.87513554 29.45304497
v -49.70957345 15.44843332 29.05073186
v -49.70957345 15.36060530 28.43267237
v -53.05208961 15.11391050 28.59801897
v -53.62668213 15.06870455 28.75187036
v -53.67359427 15.11520244 29.45304497
v -50.13055188 5.79376535 29.45304497
v -52.04779844 2.29354433 26.44055890
v -50.33190960 2.29354433 26.11251888
v -49.70957345 2.29354433 25.98961441
v -49.70957345 15.25986087 28.02505403
v -53.05208961 14.40869951 26.48211665
v -53.63498511 14.07805251 25.80039451
v -53.70805492 14.18137932 26.48211665
v -53.86042029 14.50169528 29.45304497
v -50.20528169 5.77955775 29.45304497
v -53.05208961 2.29354433 26.57053699
v -52.05236419 5.43341046 29.45304497
v -52.08807058 5.42695263 29.45304497
v -52.99687151 5.28358538 29.45304497
v -49.70957345 2.29354433 20.42000796
v -49.70957345 14.28341569 25.54662794
v -53.05208961 14.13100711 25.68367929
v -53.05208961 13.87656365 25.18410417
v -53.60467595 13.05123361 23.89935418
v -53.68812598 13.20751801 24.48292918
v -53.75704430 13.53558263 25.47323850
v -53.90318392 13.49941727 26.48211665
v -53.86581752 14.47069619 29.45304497
v -53.18660327 2.29354433 26.54312650
v -53.04129514 5.27841912 29.45304497
v -49.70957345 10.53262516 20.42000796
v -53.94843606 2.29354433 20.42000796
v -49.70957345 13.52395815 24.08857409
v -53.05208961 13.08869091 23.83745957
v -53.05208961 12.76837495 23.33700006
v -53.05208961 12.26852788 22.57569925
v -53.05208961 11.91463119 22.07523974
v -53.67650002 12.16390838 22.72778223
v -53.73504110 12.49843195 23.53240921
v -53.88159498 12.49972314 24.48292918
v -53.93473584 11.50002901 23.48289381
v -53.94096159 12.49972314 25.48208091
v -53.93515010 13.49941727 27.48215239
v -53.93805584 13.49941727 29.45304497
v -53.74043834 2.29354433 26.29289675
v -53.58101275 4.97231114 29.01978455
v -53.72424663 5.53028019 29.45304497
v -53.05208961 10.24201635 20.42000796
v -49.70957345 10.54554083 20.42708159
v -53.94926755 2.29354433 21.27591836
v -53.94885032 3.50118515 20.48278696
v -53.94843606 3.50118515 20.42000796
v -49.70957345 13.26434694 23.68095538
v -49.70957345 11.38507772 21.07343559
v -53.05208961 11.41478413 21.56682222
v -53.67857725 11.25591809 21.72951564
v -53.77946175 11.55427630 22.42980550
v -53.93639584 10.49904369 22.48285770
v -53.94387032 11.50002901 25.48208091
v -53.94303883 12.49972314 26.48211665
v -53.94635883 8.50094737 22.48285770
v -53.94635883 12.49972314 28.48218813
v -53.93847308 13.46971161 29.45304497
v -53.78153899 2.29354433 26.15407662
v -53.73296387 5.56127816 29.45304497
v -53.37633503 10.07410897 20.42000796
v -53.67774576 10.25234889 20.73390073
v -53.05208961 10.41509000 20.58270139
v -53.94968181 2.29354433 22.27595373
v -53.95051032 6.50026717 24.48292918
v -53.95009606 7.50125324 24.48292918
v -53.94968181 8.50094737 24.48292918
v -53.94843606 8.50094737 23.48289381
v -53.93556733 9.49934956 21.48282233
v -53.92518712 8.50094737 20.48278696
v -53.92103563 8.43895068 20.42000796
v -53.05208961 10.91493706 21.06724561
v -53.78029324 10.55199903 21.43065452
v -53.94677606 10.49904369 25.48208091
v -53.94802181 11.50002901 28.48218813
v -53.95009606 10.49904369 29.45304497
v -53.94594457 12.49972314 29.45304497
v -53.93847308 2.29354433 25.48208091
v -53.94220733 6.47185270 29.45304497
v -53.77033026 9.53680611 20.42000796
v -53.77240452 9.54326357 20.43327157
v -53.94968181 2.29354433 22.48285770
v -53.94968181 10.49904369 28.48218813
v -53.77199026 9.52776477 20.42000796
v -53.94885032 2.29354433 24.48292918
v -53.94843606 2.29354433 25.27517694
v -53.94843606 5.50057341 27.48215239
f 1 2 3
f 1 3 9
f 1 9 18
f 1 18 32
f 1 32 48
f 1 48 67
f 1 67 86
f 1 86 85
f 1 85 88
f 1 88 69
f 1 69 51
f 1 51 34
f 1 34 23
f 1 23 22
f 1 22 21
f 1 21 19
f 1 19 10
f 1 10 4
f 1 4 13
f 1 13 24
f 1 24 35
f 1 35 53
f 1 53 58
f 1 58 57
f 1 57 37
f 1 37 25
f 1 25 14
f 1 14 6
f 1 6 5
f 1 5 2
f 2 5 3
f 3 5 6
f 3 6 7
f 3 7 8
f 3 8 9
f 4 10 11
f 4 11 12
f 4 12 13
f 6 14 7
f 7 14 15
f 7 15 8
f 8 15 16
f 8 16 17
f 8 17 9
f 9 17 18
f 10 19 11
f 11 20 33
f 11 33 49
f 11 49 68
f 11 68 87
f 11 87 95
f 11 95 94
f 11 94 91
f 11 91 73
f 11 73 54
f 11 54 36
f 11 36 24
f 11 24 13
f 11 13 12
f 11 19 21
f 11 21 22
f 11 22 23
f 11 23 20
f 14 25 26
f 14 26 15
f 15 26 16
f 16 26 27
f 16 27 28
f 16 28 29
f 16 29 30
f 16 30 17
f 17 30 31
f 17 31 18
f 18 31 32
f 20 23 34
f 20 34 33
f 24 36 56
f 24 56 80
f 24 80 93
f 24 93 89
f 24 89 70
f 24 70 52
f 24 52 35
f 25 37 27
f 25 27 26
f 27 37 38
f 27 38 28
f 28 38 39
f 28 39 40
f 28 40 41
f 28 41 42
f 28 42 29
f 29 42 43
f 29 43 30
f 30 43 44
f 30 44 31
f 31 44 45
f 31 45 46
f 31 46 47
f 31 47 32
f 32 47 48
f 33 34 50
f 33 50 49
f 34 51 50
f 35 52 53
f 36 54 55
f 36 55 56
f 37 57 38
f 38 57 39
f 39 57 40
f 40 57 41
f 41 57 58
f 41 58 59
f 41 59 60
f 41 60 42
f 42 60 61
f 42 61 43
f 43 61 44
f 44 61 45
f 45 61 62
f 45 62 46
f 46 63 64
f 46 64 47
f 46 62 65
f 46 65 63
f 47 64 66
f 47 66 67
f 47 67 48
f 49 50 51
f 49 51 68
f 51 69 68
f 52 70 71
f 52 71 72
f 52 72 58
f 52 58 53
f 54 73 74
f 54 74 55
f 55 74 75
f 55 75 76
f 55 76 77
f 55 77 65
f 55 65 56
f 56 65 78
f 56 78 79
f 56 79 80
f 58 72 81
f 58 81 59
f 59 81 60
f 60 81 71
f 60 71 82
f 60 82 61
f 61 82 62
f 62 82 78
f 62 78 65
f 63 65 77
f 63 77 64
f 64 77 83
f 64 83 66
f 66 84 85
f 66 85 86
f 66 86 67
f 66 83 77
f 66 77 76
f 66 76 84
f 68 69 88
f 68 88 87
f 70 89 71
f 71 89 90
f 71 90 82
f 71 81 72
f 73 91 74
f 74 91 85
f 74 85 75
f 75 85 76
f 76 85 92
f 76 92 84
f 78 82 90
f 78 90 79
f 79 90 93
f 79 93 80
f 84 92 85
f 85 91 94
f 85 94 95
f 85 95 96
f 85 96 88
f 87 88 95
f 88 96 95
f 89 93 90

