# https://github.com/mikedh/trimesh
v -1.49517890 39.77355292 13.24657199
v -1.49927601 39.75514987 13.24037605
v -1.58326546 39.77355292 13.24037605
v -1.71641938 39.77355292 74.47688564
v -1.74100198 39.50032345 74.47688564
v -1.64267231 39.32708142 13.24037605
v -9.37379643 39.77355292 13.24037605
v -1.72666176 39.77355292 75.20773574
v -1.75534146 39.50032345 75.48025591
v -3.00494013 36.22713986 45.47826799
v -3.00084303 36.22713986 44.75980531
v -3.00289120 36.22713986 30.48346848
v -3.00494013 36.22713986 27.48574657
v -3.00698831 36.22713986 26.48237779
v -3.33270374 36.22713986 16.48584330
v -1.92332037 38.87193441 13.24037605
v -3.00084303 36.22713986 42.48674054
v -22.42288462 39.55448356 13.24037605
v -20.97662735 39.77355292 14.55962320
v -1.73485596 39.77355292 75.48025591
v -2.19167639 38.73236922 75.48025591
v -2.02984351 39.77355292 76.03768218
v -2.16094850 39.50032345 76.24207380
v -2.31253975 38.82194068 76.15536040
v -3.23027770 36.22713986 46.54976681
v -3.42693557 36.22713986 15.75499618
v -3.31426715 36.85240561 13.24037605
v -2.10358983 38.58586005 13.24037605
v -22.42288462 39.61558468 15.48247601
v -21.65878535 39.77355292 15.48247601
v -22.42288462 36.78644071 13.24037605
v -3.05205567 38.45913975 75.48025591
v -2.15275430 39.77355292 76.24207380
v -2.80213624 39.77355292 76.44026948
v -3.05205567 39.50032345 76.50839803
v -3.05205567 38.73098042 76.24207380
v -3.48839134 36.22713986 47.12577644
v -3.85917413 36.22713986 15.56918643
v -15.05025217 36.22713986 14.28091006
v -15.05025217 36.71457493 13.24037605
v -4.05378382 36.22713986 15.52582973
v -22.42288462 39.77355292 41.44620951
v -21.78784291 39.77355292 18.48639088
v -21.70999874 39.77355292 16.48584330
v -22.29382780 36.77498463 13.24037605
v -21.04832624 36.22713986 14.28091006
v -21.84929794 36.22713986 14.55962320
v -21.92509393 36.22713986 14.60917286
v -22.42288462 36.54793117 14.11367920
v -4.05378382 38.45427896 75.48025591
v -5.11696700 36.22713986 48.33353535
v -4.51470135 36.22713986 48.13533819
v -3.92062990 36.22713986 47.62746009
v -3.05205567 39.77355292 76.50839803
v -4.05378382 38.72924294 76.24826677
v -3.77928178 39.77355292 76.51459398
v -4.05378382 39.50032345 76.51459398
v -18.05133748 36.22713986 14.25613523
v -21.05037442 36.71457493 13.24037605
v -22.42288462 39.77355292 76.51459398
v -21.29210040 36.71492362 13.24037605
v -20.05479229 36.22713986 14.26852115
v -22.24466334 36.22713986 15.48247601
v -22.42288462 36.35281708 15.29047329
v -22.42288462 38.62717230 75.96335769
v -22.42288462 38.45427896 75.48025591
v -8.05249925 36.22713986 48.38927798
v -22.42288462 38.72924294 76.24826677
v -22.42288462 39.50032345 76.51459398
v -22.42288462 36.33788900 15.48247601
v -22.42288462 36.22713986 22.70425762
v -22.42288462 36.22713986 46.93996669
v -18.05133748 36.30421215 48.48218286
v -8.15697421 36.22713986 48.38927798
f 1 2 3
f 1 3 7
f 1 7 19
f 1 19 30
f 1 30 44
f 1 44 43
f 1 43 42
f 1 42 60
f 1 60 56
f 1 56 54
f 1 54 34
f 1 34 33
f 1 33 22
f 1 22 20
f 1 20 8
f 1 8 4
f 1 4 5
f 1 5 2
f 2 6 16
f 2 16 28
f 2 28 27
f 2 27 40
f 2 40 59
f 2 59 61
f 2 61 45
f 2 45 31
f 2 31 18
f 2 18 7
f 2 7 3
f 2 5 6
f 4 8 5
f 5 8 9
f 5 9 10
f 5 10 11
f 5 11 6
f 6 12 13
f 6 13 14
f 6 14 15
f 6 15 16
f 6 11 17
f 6 17 12
f 7 18 19
f 8 20 9
f 9 21 10
f 9 20 22
f 9 22 23
f 9 23 24
f 9 24 21
f 10 25 37
f 10 37 53
f 10 53 52
f 10 52 51
f 10 51 67
f 10 67 74
f 10 74 72
f 10 72 71
f 10 71 63
f 10 63 48
f 10 48 47
f 10 47 46
f 10 46 62
f 10 62 58
f 10 58 39
f 10 39 41
f 10 41 38
f 10 38 26
f 10 26 15
f 10 15 14
f 10 14 13
f 10 13 12
f 10 12 17
f 10 17 11
f 10 21 25
f 15 26 27
f 15 27 28
f 15 28 16
f 18 29 30
f 18 30 19
f 18 31 49
f 18 49 64
f 18 64 70
f 18 70 71
f 18 71 72
f 18 72 66
f 18 66 65
f 18 65 68
f 18 68 69
f 18 69 60
f 18 60 42
f 18 42 29
f 21 24 32
f 21 32 25
f 22 33 23
f 23 33 34
f 23 34 35
f 23 35 24
f 24 35 36
f 24 36 32
f 25 32 37
f 26 38 27
f 27 39 40
f 27 38 41
f 27 41 39
f 29 42 43
f 29 43 44
f 29 44 30
f 31 45 46
f 31 46 47
f 31 47 48
f 31 48 49
f 32 36 50
f 32 50 51
f 32 51 52
f 32 52 53
f 32 53 37
f 34 54 35
f 35 55 36
f 35 54 56
f 35 56 57
f 35 57 55
f 36 55 50
f 39 58 40
f 40 58 59
f 45 61 46
f 46 61 62
f 48 63 49
f 49 63 64
f 50 55 65
f 50 65 66
f 50 66 74
f 50 74 67
f 50 67 51
f 55 68 65
f 55 57 69
f 55 69 68
f 56 60 69
f 56 69 57
f 58 62 61
f 58 61 59
f 63 70 64
f 63 71 70
f 66 72 73
f 66 73 74
f 72 74 73

