# https://github.com/mikedh/trimesh
v 7.28752516 -50.55000137 -2.51716225
v 7.28752516 -50.55000137 3.48085948
v 7.28752516 -50.54619857 -3.51781751
v 11.94894872 -50.55000137 -5.51764983
v 10.94917412 -50.55000137 6.48134706
v 9.94939953 -50.37894684 6.48134706
v 9.94939953 -50.19268707 7.17013090
v 7.28752516 -50.28772134 4.41647969
v 7.28752516 -50.38274964 -4.17408085
v 9.94939953 -50.37894684 -6.51682688
v 10.94917412 -50.54240173 -6.51682688
v 25.94788819 -50.55000137 -5.51764983
v 26.94766130 -50.55000137 6.48134706
v 10.94917412 -50.27251609 7.26177066
v 10.94917412 -49.49707249 7.54556066
v 9.94939953 -49.49707249 7.36080145
v 9.39606514 -50.07105108 7.04597213
v 7.28752516 -49.49707249 4.74608956
v 7.28752516 -50.28391854 -4.44456849
v 9.40235347 -50.06345144 -7.07258421
v 9.94939953 -50.18128463 -7.19230688
v 10.94917412 -50.26871329 -7.28246844
v 26.94766130 -50.54240173 -6.51682688
v 27.94743739 -50.43216818 6.48134706
v 27.94743739 -50.21929476 7.19525741
v 26.94766130 -50.27251609 7.26177066
v 26.94766130 -49.49707249 7.54556066
v 10.94917412 -48.49735601 7.54999527
v 9.94939953 -48.49735601 7.36227965
v 9.36881670 -49.49707249 7.07848966
v 7.28752516 -48.49735601 4.75495879
v 7.28752516 -49.60730604 -4.72392536
v 7.28752516 -49.49707249 -4.76235571
v 9.37929824 -49.49707249 -7.10066713
v 9.94939953 -49.49707249 -7.36672015
v 10.94917412 -49.49707249 -7.54852147
v 26.94766130 -50.26871329 -7.28246844
v 27.94743739 -50.42456257 -6.51682688
v 27.94743739 -50.20409548 -7.21299877
v 28.56993746 -50.15087414 -6.51682688
v 28.57203257 -50.15467694 6.48134706
v 28.53430557 -50.10906121 7.07996786
v 27.94743739 -49.49707249 7.41105594
v 26.94766130 -48.49735601 7.54851707
v 10.94917412 -11.71699428 7.54999527
v 9.94939953 -14.50327031 7.36375785
v 9.36881670 -11.71699428 7.07848966
v 7.28752516 -11.71699428 4.75495879
v 7.28752516 -48.61519218 -4.76826852
v 9.37720164 -16.50269880 -7.10214533
v 9.94939953 -15.50298381 -7.36819836
v 26.94766130 -49.49707249 -7.54852147
v 10.94917412 -11.71699428 -7.54852147
v 28.52382700 -50.09386193 -7.10066713
v 27.94743739 -49.49707249 -7.40810691
v 28.69360002 -49.49707249 -6.51682688
v 28.69569513 -49.49707249 6.48134706
v 28.57622579 -49.49707249 7.12874415
v 27.94743739 -48.49735601 7.41253414
v 27.94743739 -37.49669873 7.41401235
v 27.72945582 -11.71699428 7.44357347
v 26.94766130 -11.71699428 7.54851707
v 9.94939953 -11.71699428 7.36375785
v 7.28752516 -11.71699428 -4.76826852
v 9.37720164 -11.71699428 -7.10214533
v 9.50086271 -11.71699428 -7.15978936
v 9.94939953 -11.71699428 -7.36819836
v 26.94766130 -11.71699428 -7.54852147
v 27.16354775 -11.71699428 -7.51896035
v 28.56155401 -49.49707249 -7.14205090
v 27.94743739 -11.71699428 -7.40810691
v 28.08157852 -11.71699428 -7.35045990
v 28.69779025 -45.49821252 6.48134706
v 28.59089757 -11.71699428 -7.00607096
v 28.69360002 -11.71699428 -6.51682688
v 28.57832090 -33.49784174 7.13022235
v 28.44208466 -11.71699428 7.19230100
v 27.94743739 -11.71699428 7.41401235
v 28.56155401 -11.71699428 -7.14205090
v 28.69779025 -11.71699428 6.48134706
v 28.67263991 -11.71699428 6.62176460
v 28.57832090 -11.71699428 7.13022235
f 1 2 8
f 1 8 18
f 1 18 31
f 1 31 48
f 1 48 64
f 1 64 49
f 1 49 33
f 1 33 32
f 1 32 19
f 1 19 9
f 1 9 3
f 1 3 4
f 1 4 12
f 1 12 13
f 1 13 5
f 1 5 2
f 2 5 6
f 2 6 7
f 2 7 8
f 3 9 10
f 3 10 11
f 3 11 4
f 4 11 23
f 4 23 12
f 5 13 26
f 5 26 14
f 5 14 7
f 5 7 6
f 7 15 16
f 7 16 17
f 7 17 8
f 7 14 15
f 8 17 18
f 9 19 20
f 9 20 21
f 9 21 10
f 10 21 11
f 11 21 22
f 11 22 37
f 11 37 23
f 12 23 13
f 13 23 38
f 13 38 24
f 13 24 25
f 13 25 26
f 14 26 27
f 14 27 15
f 15 27 28
f 15 28 16
f 16 28 29
f 16 29 30
f 16 30 17
f 17 30 18
f 18 30 31
f 19 32 20
f 20 32 33
f 20 33 34
f 20 34 35
f 20 35 21
f 21 35 36
f 21 36 22
f 22 36 52
f 22 52 37
f 23 37 39
f 23 39 38
f 24 38 40
f 24 40 41
f 24 41 42
f 24 42 25
f 25 42 43
f 25 43 27
f 25 27 26
f 27 43 44
f 27 44 28
f 28 44 62
f 28 62 45
f 28 45 63
f 28 63 46
f 28 46 29
f 29 46 30
f 30 46 63
f 30 63 47
f 30 47 48
f 30 48 31
f 33 49 34
f 34 49 50
f 34 50 35
f 35 50 51
f 35 51 36
f 36 51 67
f 36 67 53
f 36 53 68
f 36 68 52
f 37 52 39
f 38 39 54
f 38 54 40
f 39 52 55
f 39 55 54
f 40 54 56
f 40 56 41
f 41 56 57
f 41 57 42
f 42 57 58
f 42 58 43
f 43 58 59
f 43 59 44
f 44 59 60
f 44 60 61
f 44 61 62
f 45 62 61
f 45 61 78
f 45 78 77
f 45 77 82
f 45 82 81
f 45 81 80
f 45 80 75
f 45 75 74
f 45 74 79
f 45 79 72
f 45 72 71
f 45 71 69
f 45 69 68
f 45 68 53
f 45 53 67
f 45 67 66
f 45 66 65
f 45 65 64
f 45 64 48
f 45 48 47
f 45 47 63
f 49 64 65
f 49 65 50
f 50 65 66
f 50 66 51
f 51 66 67
f 52 68 69
f 52 69 55
f 54 55 70
f 54 70 56
f 55 69 71
f 55 71 72
f 55 72 70
f 56 73 57
f 56 70 74
f 56 74 75
f 56 75 80
f 56 80 73
f 57 73 58
f 58 73 76
f 58 76 59
f 59 76 60
f 60 76 77
f 60 77 78
f 60 78 61
f 70 72 79
f 70 79 74
f 73 80 81
f 73 81 76
f 76 81 82
f 76 82 77

