# https://github.com/mikedh/trimesh
v -53.94816784 -2.49976430 20.29039458
v -53.94909172 -2.49976430 20.48270352
v -53.94816784 2.29354470 20.29039458
v -53.94724396 -2.98550286 20.29039458
v -53.94909172 -1.49986640 20.48270352
v -53.94909172 -2.98550286 21.48232239
v -53.95001559 -2.49976430 21.48232239
v -53.94909172 2.29354470 21.27581554
v -44.90657601 2.29354470 20.29039458
v -45.72324544 -2.98550286 20.29039458
v -53.94909172 -2.98550286 22.48258650
v -53.94909172 1.49982732 24.48182425
v -53.94909172 2.29354470 24.48182425
v -45.92279415 2.29354470 24.48182425
v -44.88625070 2.27494197 20.29039458
v -44.84560304 -2.18868508 20.29039458
v -45.84519138 -2.98550286 23.96749466
v -53.94816784 -2.98550286 23.48285060
v -53.94724396 -2.98550286 24.48182425
v -53.94816784 2.29354470 25.27558225
v -46.27108126 2.29354470 25.22395535
v -46.22119483 -2.98550286 25.41303742
v -46.04197143 -2.98550286 25.00712416
v -44.51301888 1.21251811 20.29039458
v -44.53426807 1.49982732 20.29039458
v -44.61833799 1.92252312 20.29039458
v -44.82804936 2.22016718 20.29039458
v -44.55182176 -1.49986640 20.29039458
v -45.86921220 -2.98550286 24.48182425
v -53.94447233 -2.98550286 25.48208836
v -53.93800518 2.29354470 25.48208836
v -47.05264630 2.29354470 25.55630110
v -47.05264630 -2.98550286 25.86670586
v -46.88450944 -2.98550286 25.78733020
v -44.51301888 0.49992941 20.29039458
v -44.51763827 -0.49945179 20.29039458
v -44.51394276 0.21313695 20.29039458
v -53.76801759 -2.98550286 26.45653901
v -53.78095188 2.29354470 26.15452403
v -48.08826885 2.29354470 25.74215704
v -50.04495607 -2.98550286 26.43330720
v -48.00050342 -2.98550286 26.06546815
v -53.05204490 -2.98550286 26.88245795
v -53.74030423 2.29354470 26.29327002
v -52.04783420 2.29354470 26.44105102
v -52.05152972 -2.98550286 26.76113563
v -53.05204490 2.29354470 26.57076274
v -53.18692513 2.29354470 26.54301325
f 1 2 5
f 1 5 3
f 1 3 9
f 1 9 15
f 1 15 27
f 1 27 26
f 1 26 25
f 1 25 24
f 1 24 35
f 1 35 37
f 1 37 36
f 1 36 28
f 1 28 16
f 1 16 10
f 1 10 4
f 1 4 2
f 2 4 6
f 2 6 7
f 2 7 5
f 3 5 8
f 3 8 13
f 3 13 20
f 3 20 31
f 3 31 39
f 3 39 44
f 3 44 48
f 3 48 47
f 3 47 45
f 3 45 40
f 3 40 32
f 3 32 21
f 3 21 14
f 3 14 9
f 4 10 17
f 4 17 29
f 4 29 23
f 4 23 22
f 4 22 34
f 4 34 33
f 4 33 42
f 4 42 41
f 4 41 46
f 4 46 43
f 4 43 38
f 4 38 30
f 4 30 19
f 4 19 18
f 4 18 11
f 4 11 6
f 5 7 8
f 6 11 7
f 7 11 12
f 7 12 13
f 7 13 8
f 9 14 15
f 10 16 17
f 11 18 12
f 12 18 19
f 12 19 20
f 12 20 13
f 14 21 22
f 14 22 23
f 14 23 24
f 14 24 25
f 14 25 26
f 14 26 27
f 14 27 15
f 16 28 29
f 16 29 17
f 19 30 20
f 20 30 31
f 21 32 33
f 21 33 34
f 21 34 22
f 23 29 24
f 24 29 35
f 28 36 29
f 29 36 37
f 29 37 35
f 30 38 31
f 31 38 39
f 32 40 41
f 32 41 42
f 32 42 33
f 38 43 44
f 38 44 39
f 40 45 41
f 41 45 46
f 43 46 47
f 43 47 48
f 43 48 44
f 45 47 46

