# https://github.com/mikedh/trimesh
v -3.00240170 36.22679117 32.75586921
v -3.00675585 36.22679117 33.48012867
v -3.05900115 32.50034409 33.48012867
v -3.05900115 32.50034409 26.48273766
v -3.00385308 36.22679117 27.48285126
v -3.16204037 36.22679117 34.48137775
v -3.28467177 32.50034409 34.48137775
v -3.43124948 31.57014496 34.42348226
v -3.27015943 31.50076470 33.48012867
v -3.27015943 31.50076470 26.48273766
v -3.43487794 31.58504920 25.54165390
v -3.29410575 32.50034409 25.48375953
v -3.27886698 36.22679117 24.61419362
v -3.07569056 36.22679117 25.75734291
v -3.00748154 36.22679117 26.48273766
v -3.41383438 36.22679117 35.27147897
v -3.53864285 31.94993333 34.99675975
v -3.52920961 30.98478777 34.05340616
v -3.51687360 30.97707786 33.48012867
v -3.51687360 30.97707786 26.48273766
v -3.52920961 30.98478777 25.91400096
v -3.54517407 31.97511646 24.97859347
v -3.41673715 36.22679117 24.13627301
v -3.55097886 36.22679117 35.42586644
v -3.97910095 32.50034409 35.73350664
v -4.01030344 32.32560896 35.73350664
v -4.14744717 31.61537028 35.73350664
v -4.10753713 30.97707786 34.42348226
v -4.47688345 30.98375958 35.05238465
v -8.58830827 30.97656525 34.48137775
v -8.42213912 30.97656525 33.48126377
v -8.43737714 30.97656525 27.48285126
v -8.58830827 30.97656525 26.48273766
v -8.57597263 30.98478777 25.91286586
v -5.05230895 31.82145170 24.88550679
v -4.05238981 31.87130237 24.91956362
v -3.96894202 35.55663688 24.13627301
v -3.56113779 35.92152102 24.13627301
v -6.49703996 36.22679117 24.13627301
v -3.83397462 36.22679117 35.73350664
v -4.78600260 31.37793959 35.73350664
v -5.03779661 31.31164091 35.73350664
v -8.05206711 31.25356773 35.73350664
v -8.57597263 30.98478777 35.06941269
v -4.68586540 30.98375958 35.05238465
v -8.84155366 31.50076470 34.48137775
v -8.84155366 31.50076470 26.48273766
v -10.41544692 36.22679117 27.40792810
v -8.67248175 31.58453362 25.54165390
v -8.56073423 31.97357269 24.97745873
v -5.05230895 35.38447370 24.13627301
v -4.28531734 35.49702291 24.13627301
v -5.86646677 35.58747355 24.13627301
v -8.85606600 36.22679117 24.68003558
v -9.20074104 36.22679117 35.73350664
v -8.52880680 31.46376190 35.73350664
v -8.70731195 31.54342104 35.73350664
v -10.41544692 36.22679117 29.66471157
v -10.41544692 36.20006726 29.48421431
v -10.41544692 36.19133214 29.10619174
v -10.41544692 36.18567860 28.84282466
v -10.41544692 36.18156586 28.48410034
v -10.41544692 36.19801088 27.48285126
v -8.90686029 32.50085669 35.73350664
f 1 2 3
f 1 3 4
f 1 4 5
f 1 5 15
f 1 15 14
f 1 14 13
f 1 13 23
f 1 23 39
f 1 39 54
f 1 54 48
f 1 48 58
f 1 58 55
f 1 55 40
f 1 40 24
f 1 24 16
f 1 16 6
f 1 6 2
f 2 6 3
f 3 6 7
f 3 7 8
f 3 8 9
f 3 9 10
f 3 10 4
f 4 10 11
f 4 11 12
f 4 12 13
f 4 13 14
f 4 14 15
f 4 15 5
f 6 16 7
f 7 16 17
f 7 17 8
f 8 18 9
f 8 17 18
f 9 18 19
f 9 19 20
f 9 20 10
f 10 20 21
f 10 21 11
f 11 21 22
f 11 22 12
f 12 22 23
f 12 23 13
f 16 24 25
f 16 25 17
f 17 25 26
f 17 26 27
f 17 27 18
f 18 28 19
f 18 27 29
f 18 29 28
f 19 28 30
f 19 30 31
f 19 31 20
f 20 32 33
f 20 33 21
f 20 31 32
f 21 34 35
f 21 35 36
f 21 36 22
f 21 33 34
f 22 36 37
f 22 37 38
f 22 38 23
f 23 38 37
f 23 37 52
f 23 52 51
f 23 51 53
f 23 53 39
f 24 40 25
f 25 40 55
f 25 55 64
f 25 64 57
f 25 57 56
f 25 56 43
f 25 43 42
f 25 42 41
f 25 41 27
f 25 27 26
f 27 41 29
f 28 29 30
f 29 41 42
f 29 42 43
f 29 43 44
f 29 44 45
f 29 45 30
f 30 45 44
f 30 44 46
f 30 46 47
f 30 47 33
f 30 33 32
f 30 32 31
f 33 47 34
f 34 47 48
f 34 48 49
f 34 49 50
f 34 50 35
f 35 50 51
f 35 51 52
f 35 52 37
f 35 37 36
f 39 53 50
f 39 50 54
f 43 56 44
f 44 56 57
f 44 57 46
f 46 58 59
f 46 59 60
f 46 60 61
f 46 61 62
f 46 62 47
f 46 57 58
f 47 62 63
f 47 63 48
f 48 54 50
f 48 50 49
f 48 63 62
f 48 62 61
f 48 61 60
f 48 60 59
f 48 59 58
f 50 53 51
f 55 58 64
f 57 64 58

