# https://github.com/mikedh/trimesh
v -45.27610040 -9.13519779 24.44743513
v -45.31771067 -9.13519779 23.53539765
v -45.72361499 -2.98610487 20.29039458
v -45.84504534 -2.98610487 23.96970153
v -45.86882179 -2.98610487 24.48236815
v -45.87221928 -7.95293493 29.93571089
v -45.85608420 -8.49952054 29.93571089
v -45.85353608 -9.13519779 29.93571089
v -45.68455283 -9.13519779 20.29039458
v -53.94612935 -2.98610487 20.29039458
v -46.04290127 -2.98610487 25.00919767
v -45.91722406 -7.49965355 29.93571089
v -53.94952683 -9.13519779 29.93571089
v -53.79073008 -9.13519779 20.29039458
v -53.94697872 -2.98610487 20.48299856
v -53.94443060 -3.50078688 20.29039458
v -53.94358123 -8.49952054 21.48378495
v -46.22122761 -2.98610487 25.41234451
v -46.26453663 -6.73635895 29.93571089
v -46.10658925 -7.04878022 29.93571089
v -53.94952683 -9.04610689 29.93571089
v -53.95037322 -9.13519779 29.84601761
v -53.88923336 -8.49049112 20.29039458
v -53.83064161 -9.13519779 20.46411569
v -53.94867746 -2.98610487 22.48268336
v -53.94697872 -8.49952054 22.48268336
v -53.94952683 -7.49965355 24.48236815
v -53.94867746 -3.50078688 22.48268336
v -53.92744615 -8.49952054 20.48299856
v -53.93763861 -9.13519779 21.48378495
v -53.94527997 -9.13519779 22.48268336
v -46.88527835 -2.98610487 25.78622341
v -47.05341520 -6.42574445 29.93571089
v -47.05256583 -2.98610487 25.86553089
v -53.94697872 -7.49965355 29.93571089
v -53.94782809 -5.49991884 27.48095135
v -53.94952683 -6.20121043 24.48236815
v -53.94867746 -8.49952054 24.48236815
v -53.94612935 -9.13519779 22.84806519
v -53.94697872 -2.98610487 23.99708111
v -52.04908293 -5.66485789 29.93571089
v -48.00108755 -2.98610487 26.06568832
v -50.04504250 -2.98610487 26.43201378
v -53.91980478 -6.49978657 29.93571089
v -53.94018374 -6.49978657 29.48158051
v -53.94443060 -2.98610487 25.48126655
v -53.94612935 -3.50078688 25.48126655
v -52.50508826 -5.60947699 29.93571089
v -52.05163104 -2.98610487 26.75962986
v -53.72279823 -5.76117292 29.93571089
v -53.76780301 -2.98610487 26.45561737
v -53.05195252 -5.55229006 29.93571089
v -53.05195252 -2.98610487 26.88236780
v -53.34491722 -5.60345725 29.93571089
f 1 2 3
f 1 3 4
f 1 4 5
f 1 5 6
f 1 6 7
f 1 7 8
f 1 8 13
f 1 13 22
f 1 22 39
f 1 39 31
f 1 31 30
f 1 30 24
f 1 24 14
f 1 14 9
f 1 9 2
f 2 9 3
f 3 9 14
f 3 14 23
f 3 23 16
f 3 16 10
f 3 10 15
f 3 15 25
f 3 25 40
f 3 40 46
f 3 46 51
f 3 51 53
f 3 53 49
f 3 49 43
f 3 43 42
f 3 42 34
f 3 34 32
f 3 32 18
f 3 18 11
f 3 11 5
f 3 5 4
f 5 11 12
f 5 12 6
f 6 12 20
f 6 20 19
f 6 19 33
f 6 33 41
f 6 41 48
f 6 48 52
f 6 52 54
f 6 54 50
f 6 50 44
f 6 44 35
f 6 35 21
f 6 21 13
f 6 13 8
f 6 8 7
f 10 16 17
f 10 17 15
f 11 18 19
f 11 19 20
f 11 20 12
f 13 21 22
f 14 24 23
f 15 17 26
f 15 26 27
f 15 27 28
f 15 28 25
f 16 23 29
f 16 29 17
f 17 30 31
f 17 31 26
f 17 29 30
f 18 32 19
f 19 32 34
f 19 34 33
f 21 35 22
f 22 35 36
f 22 36 25
f 22 25 37
f 22 37 27
f 22 27 38
f 22 38 39
f 23 24 29
f 24 30 29
f 25 28 27
f 25 27 37
f 25 36 40
f 26 31 39
f 26 39 38
f 26 38 27
f 33 34 42
f 33 42 43
f 33 43 41
f 35 44 45
f 35 45 46
f 35 46 36
f 36 46 47
f 36 47 40
f 40 47 46
f 41 43 49
f 41 49 48
f 44 50 51
f 44 51 46
f 44 46 45
f 48 49 52
f 49 53 52
f 50 54 53
f 50 53 51
f 52 53 54

