# https://github.com/mikedh/trimesh
v -53.94984870 -3.50081035 44.08744712
v -53.94530978 -4.50133001 45.48305427
v -53.94712475 -3.50081035 45.48305427
v -53.94894270 -2.50029069 44.48288032
v -53.94621577 1.49869482 44.48288032
v -53.94894270 -2.50029069 44.08744712
v -53.87355426 -7.89412786 44.08744712
v -53.90988353 -1.50131741 46.48252488
v -53.88990392 -5.50030329 45.48305427
v -53.91170148 -0.50079775 46.48252488
v -53.94258285 2.29354359 45.48305427
v -53.94349182 2.29354359 45.27655710
v -53.94530978 2.29354359 44.48288032
v -53.94803373 -1.89564904 44.08744712
v -53.72005043 -8.85134819 44.08744712
v -53.84812079 -7.49979661 44.48288032
v -53.85175372 -2.50029069 46.48252488
v -53.71369356 -1.50131741 47.15047826
v -53.71641751 -0.50079775 47.16031011
v -53.73821507 -6.48226641 45.50833873
v -53.69098404 -5.50030329 46.14679208
v -53.74639288 -4.50133001 46.30482589
v -53.88808596 0.49972191 46.48252488
v -53.86174650 1.49869482 46.48252488
v -53.83086215 2.29354359 46.48252488
v -53.94076787 2.29354359 44.08744712
v -53.64193804 -9.19155584 44.08744712
v -53.63739613 -9.17918481 44.11132713
v -53.69734390 -8.42763538 44.45970216
v -53.65556077 -2.50029069 47.08305007
v -44.67158615 -13.49982255 51.14695701
v -44.67158615 -12.58744682 51.17083776
v -44.67158615 -11.58074164 51.17856257
v -44.67158615 -4.50133001 51.23053816
v -44.67158615 -3.53328503 51.23685928
v -44.67158615 -2.52812587 51.24318039
v -44.67158615 0.48735089 51.26003818
v -44.67158615 1.48941655 51.26214522
v -44.67158615 1.49869482 51.26214522
v -44.67158615 2.29354359 51.26003818
v -53.69371097 0.49972191 47.13923973
v -53.61014769 -6.13741963 46.03862683
v -53.66010267 -7.49979661 45.16066704
v -53.59107408 -3.16524184 47.01773040
v -53.66736853 1.49869482 47.10693082
v -53.63648716 2.29354359 47.06759746
v -44.67158615 2.29354359 44.08744712
v -47.65534558 -13.08693253 44.08744712
v -45.93866399 -13.50445982 49.48234191
v -45.73974411 -13.50445982 50.18892530
v -53.57653940 -8.04722115 45.01035954
v -45.12028688 -13.50445982 50.68901153
v -44.67158615 -13.50445982 50.02246335
v -44.67158615 -13.50445982 44.08744712
v -47.64807972 -13.09157278 44.08744712
v -46.83152057 -13.50445982 44.08744712
f 1 2 3
f 1 3 4
f 1 4 5
f 1 5 6
f 1 6 14
f 1 14 26
f 1 26 47
f 1 47 54
f 1 54 56
f 1 56 55
f 1 55 48
f 1 48 27
f 1 27 15
f 1 15 7
f 1 7 2
f 2 8 10
f 2 10 3
f 2 7 9
f 2 9 8
f 3 10 11
f 3 11 12
f 3 12 5
f 3 5 4
f 5 12 13
f 5 13 6
f 6 13 14
f 7 15 16
f 7 16 9
f 8 17 18
f 8 18 19
f 8 19 10
f 8 9 17
f 9 16 20
f 9 20 21
f 9 21 22
f 9 22 17
f 10 19 23
f 10 23 11
f 11 23 24
f 11 24 25
f 11 25 46
f 11 46 40
f 11 40 47
f 11 47 26
f 11 26 13
f 11 13 12
f 13 26 14
f 15 27 28
f 15 28 29
f 15 29 16
f 16 29 20
f 17 22 30
f 17 30 18
f 18 30 31
f 18 31 32
f 18 32 19
f 19 32 33
f 19 33 34
f 19 34 35
f 19 35 36
f 19 36 37
f 19 37 38
f 19 38 39
f 19 39 40
f 19 40 41
f 19 41 24
f 19 24 23
f 20 42 21
f 20 29 43
f 20 43 42
f 21 42 44
f 21 44 30
f 21 30 22
f 24 45 25
f 24 41 45
f 25 45 46
f 27 48 49
f 27 49 50
f 27 50 28
f 28 51 29
f 28 50 51
f 29 51 43
f 30 44 31
f 31 42 50
f 31 50 52
f 31 52 53
f 31 53 54
f 31 54 47
f 31 47 40
f 31 40 39
f 31 39 38
f 31 38 37
f 31 37 36
f 31 36 35
f 31 35 34
f 31 34 33
f 31 33 32
f 31 44 42
f 40 46 45
f 40 45 41
f 42 43 51
f 42 51 50
f 48 55 49
f 49 55 56
f 49 56 54
f 49 54 53
f 49 53 52
f 49 52 50

