# https://github.com/mikedh/trimesh
v -44.64843555 2.29354508 51.31639325
v -44.64843555 2.50148394 51.31495528
v -46.82153374 2.29354508 49.90962655
v -44.64843555 2.29354508 43.79781285
v -44.64843555 12.49919266 51.20275924
v -46.82153374 2.33513225 49.90531114
v -46.82153374 2.29354508 38.48287971
v -44.64843555 13.49896427 51.15816871
v -45.65053624 14.49873440 50.08799014
v -45.93195842 2.29354508 39.48257533
v -44.64843555 11.74229441 36.62157396
v -46.82153374 2.59796735 49.87366534
v -46.82153374 5.02835887 36.62157396
v -46.71262343 5.06162928 36.62157396
v -46.27953623 2.29354508 38.73316273
v -44.64843555 14.23922750 51.03302645
v -45.59884675 15.08096382 50.02613800
v -45.73604860 15.44860021 49.48673331
v -45.84836236 14.49873440 49.48241790
v -46.82153374 5.80854628 49.24076420
v -46.82153374 4.78881331 49.49536412
v -46.82153374 3.80567709 49.68523446
v -46.20763766 2.29354508 38.86405837
v -45.92578930 6.36249535 36.62157396
v -44.64843555 19.28798542 36.62157396
v -46.82153374 17.46976666 36.62157396
v -46.30591146 5.35773442 36.62157396
v -46.25783702 5.42593859 36.62157396
v -44.64843555 15.20739056 50.82301855
v -44.64843555 15.48686068 50.75253560
v -44.64843555 16.24043222 50.47348420
v -45.68074109 16.25706649 49.15733652
v -45.78007884 16.55317238 48.53306618
v -45.94387049 15.50016900 48.48128282
v -46.82153374 8.23727407 48.18065440
v -46.82153374 7.78812556 48.40073258
v -44.64843555 19.27301562 44.48105864
v -46.82153374 17.32836862 37.50044347
v -45.73136960 18.20337647 45.48219298
v -44.64843555 19.22643726 46.49627427
v -44.64843555 17.33668650 49.56153017
v -45.51312279 16.92247175 48.89986066
v -45.67308482 17.16368140 48.23387574
v -45.71073434 17.49804627 47.39815803
v -45.84112929 17.49971074 46.48189009
v -45.93599964 16.49993912 47.48158720
v -46.82153374 13.01820796 44.65510609
v -46.82153374 12.36112132 45.30670682
v -46.82153374 11.24989500 46.20283720
v -46.82153374 9.72445393 47.25431768
v -46.82153374 17.02893678 38.49007105
v -45.64755897 18.10522933 46.48189009
v -45.56651400 18.01373710 47.00978654
v -44.64843555 18.28655232 48.54313496
v -44.64843555 17.46145027 49.44358075
v -46.82153374 16.01086790 40.48227244
v -46.82153374 15.41699315 41.49491427
v -46.82153374 14.82977330 42.49604935
v -46.82153374 14.01465212 43.50006112
f 1 2 3
f 1 3 7
f 1 7 15
f 1 15 23
f 1 23 10
f 1 10 4
f 1 4 11
f 1 11 25
f 1 25 37
f 1 37 40
f 1 40 54
f 1 54 55
f 1 55 41
f 1 41 31
f 1 31 30
f 1 30 29
f 1 29 16
f 1 16 8
f 1 8 5
f 1 5 2
f 2 5 3
f 3 6 12
f 3 12 22
f 3 22 21
f 3 21 20
f 3 20 36
f 3 36 35
f 3 35 50
f 3 50 49
f 3 49 48
f 3 48 47
f 3 47 59
f 3 59 58
f 3 58 57
f 3 57 56
f 3 56 51
f 3 51 38
f 3 38 26
f 3 26 13
f 3 13 7
f 3 5 8
f 3 8 9
f 3 9 6
f 4 10 11
f 6 9 12
f 7 13 14
f 7 14 15
f 8 16 9
f 9 16 17
f 9 17 18
f 9 18 19
f 9 19 20
f 9 20 21
f 9 21 22
f 9 22 12
f 10 23 24
f 10 24 11
f 11 24 28
f 11 28 27
f 11 27 14
f 11 14 13
f 11 13 26
f 11 26 25
f 14 27 15
f 15 27 28
f 15 28 23
f 16 29 17
f 17 29 30
f 17 30 31
f 17 31 32
f 17 32 18
f 18 32 33
f 18 33 34
f 18 34 19
f 19 34 35
f 19 35 36
f 19 36 20
f 23 28 24
f 25 26 37
f 26 38 39
f 26 39 40
f 26 40 37
f 31 41 42
f 31 42 32
f 32 42 43
f 32 43 33
f 33 43 44
f 33 44 45
f 33 45 46
f 33 46 34
f 34 46 47
f 34 47 48
f 34 48 49
f 34 49 50
f 34 50 35
f 38 51 39
f 39 45 52
f 39 52 40
f 39 51 45
f 40 52 53
f 40 53 54
f 41 55 42
f 42 55 54
f 42 54 43
f 43 54 53
f 43 53 52
f 43 52 44
f 44 52 45
f 45 51 56
f 45 56 46
f 46 56 57
f 46 57 58
f 46 58 59
f 46 59 47

