# https://github.com/mikedh/trimesh
v -38.05322504 24.63989753 13.24037605
v -38.05322504 23.55068707 20.42000796
v -37.00051372 24.51232041 13.24037605
v -42.05237707 24.63715421 13.24037605
v -43.05216508 23.54794226 20.42000796
v -37.99029106 23.54245561 20.42000796
v -36.45127420 23.14188893 20.42000796
v -36.48131066 24.18308753 13.24037605
v -37.05343554 23.41899273 20.42000796
v -42.65167886 24.63166607 13.24037605
v -43.05216508 24.62617943 13.24037605
v -43.92751566 23.27358327 20.42000796
v -34.89366354 17.50103844 20.42000796
v -34.89509406 17.50103844 19.48179195
v -34.91082681 17.50103844 18.48173274
v -34.86934916 16.50099413 16.48231468
v -36.43124989 23.87031608 13.24037605
v -43.49413342 24.48762753 13.24037605
v -43.85027945 24.30380561 13.24037605
v -43.95612309 23.22556993 20.42000796
v -34.87363923 16.50099413 20.42000796
v -34.85361492 16.50099413 19.48179195
v -34.85647596 16.50099413 17.48167204
v -34.85933701 15.50094982 16.48231468
v -34.86791864 14.50090700 15.48295732
v -34.88365288 15.50094982 15.48295732
v -35.01380941 14.50090700 14.48289662
v -34.90939778 13.50086269 14.48289662
v -35.25410263 13.50086269 13.72529578
v -36.40693401 23.56577608 13.24037605
v -44.27651207 23.49993040 13.24037605
v -44.37520608 22.49988609 20.42000796
v -34.88365288 10.62693672 17.48167204
v -34.85361492 10.62693672 16.48231468
v -35.20690290 15.46939939 20.42000796
v -35.23264780 10.62693672 18.26738410
v -34.85075388 10.62693672 15.48295732
v -34.85361492 12.50081838 15.48295732
v -34.89509406 12.50081838 14.48289662
v -35.24409048 12.50081838 13.70772720
v -35.77330569 12.50081838 13.24037605
v -35.81192379 13.50086269 13.24037605
v -36.35115264 22.74132373 13.24037605
v -44.44528968 22.49988609 13.24037605
v -49.46282649 10.62693672 20.42000796
v -35.25553315 15.38297507 20.42000796
v -36.05364753 10.62693672 18.55130821
v -34.89366354 10.62693672 14.48289662
v -34.89366354 11.50077482 14.48289662
v -35.24409048 10.62693672 13.70772720
v -35.77330569 10.62693672 13.24037605
v -45.13899094 12.50081838 13.24037605
v -45.74258429 12.50081838 13.76043593
v -45.71540738 13.50086269 13.79908830
v -43.11939061 10.62693672 20.42000796
v -45.74115377 10.62693672 13.76113778
v -45.13899094 10.62693672 13.24037605
f 1 2 3
f 1 3 8
f 1 8 17
f 1 17 30
f 1 30 43
f 1 43 42
f 1 42 41
f 1 41 51
f 1 51 57
f 1 57 52
f 1 52 44
f 1 44 31
f 1 31 19
f 1 19 18
f 1 18 11
f 1 11 10
f 1 10 4
f 1 4 5
f 1 5 2
f 2 6 3
f 2 5 12
f 2 12 20
f 2 20 32
f 2 32 45
f 2 45 55
f 2 55 46
f 2 46 35
f 2 35 21
f 2 21 13
f 2 13 7
f 2 7 9
f 2 9 6
f 3 7 8
f 3 6 9
f 3 9 7
f 4 10 5
f 5 10 11
f 5 11 12
f 7 13 8
f 8 13 14
f 8 14 15
f 8 15 16
f 8 16 17
f 11 18 12
f 12 19 20
f 12 18 19
f 13 21 22
f 13 22 23
f 13 23 14
f 14 23 16
f 14 16 15
f 16 23 24
f 16 24 25
f 16 25 26
f 16 26 17
f 17 26 27
f 17 27 28
f 17 28 29
f 17 29 30
f 19 31 32
f 19 32 20
f 21 33 34
f 21 34 22
f 21 35 36
f 21 36 33
f 22 34 37
f 22 37 23
f 23 37 38
f 23 38 24
f 24 38 25
f 25 38 39
f 25 39 28
f 25 28 26
f 26 28 27
f 28 39 40
f 28 40 29
f 29 40 41
f 29 41 42
f 29 42 43
f 29 43 30
f 31 44 45
f 31 45 32
f 33 36 47
f 33 47 55
f 33 55 45
f 33 45 56
f 33 56 57
f 33 57 51
f 33 51 50
f 33 50 48
f 33 48 37
f 33 37 34
f 35 46 36
f 36 46 47
f 37 48 49
f 37 49 39
f 37 39 38
f 39 49 40
f 40 50 51
f 40 51 41
f 40 49 48
f 40 48 50
f 44 52 53
f 44 53 54
f 44 54 45
f 45 54 53
f 45 53 56
f 46 55 47
f 52 57 53
f 53 57 56

