# https://github.com/mikedh/trimesh
v -53.94987850 8.50154118 36.48204528
v -53.94901721 9.64023574 36.62157396
v -53.94901721 10.50018736 35.48229676
v -53.94901721 10.50018736 34.48254824
v -53.94901721 8.50154118 32.41678530
v -53.94901721 8.43482080 32.41678530
v -53.94901721 6.50141233 34.48254824
v -53.94901721 5.50060657 36.48204528
v -53.94901721 5.50060657 36.62157396
v -53.94728866 11.63888192 36.62157396
v -53.94728866 12.49883354 35.48229676
v -53.94469883 9.50086427 32.41678530
v -53.94556310 12.49883354 34.48254824
v -53.94815294 7.50073542 32.41678530
v -53.81518901 4.47607800 36.62157396
v -53.91793319 6.50141233 33.48238807
v -53.94642737 12.49883354 36.62157396
v -53.94556310 13.49963930 36.48204528
v -53.94038342 13.49963930 34.48254824
v -53.91534335 14.49896239 32.48263955
v -53.91447907 14.49896239 32.41678530
v -53.94210899 7.43549771 32.41678530
v -53.73143798 4.04906754 36.62157396
v -53.85404255 6.50141233 32.41678530
v -53.93779060 13.49963930 36.62157396
v -53.84972417 14.49896239 34.48254824
v -53.90411972 14.49896239 33.48238807
v -53.71244185 15.17506228 33.48238807
v -53.71848580 15.18544101 32.48263955
v -53.73057370 15.14096075 32.41678530
v -53.05193464 3.63391848 36.62157396
v -53.84109038 6.46138010 32.41678530
v -53.65632073 5.90685957 32.41678530
v -53.74093604 14.31511066 36.62157396
v -53.74784128 14.33586812 36.48204528
v -53.66063912 15.10685922 34.48254824
v -45.13014853 18.74534418 36.62157396
v -45.13014853 18.76165361 35.53415686
v -53.71762153 15.18395833 32.41678530
v -45.13014853 18.77203233 34.53770115
v -45.13014853 18.77648036 33.54165680
v -45.13014853 18.78092838 32.48263955
v -52.05210490 3.81628753 36.62157396
v -53.05193464 5.88610212 32.41678530
v -52.41042056 5.97951066 32.41678530
v -47.11858139 6.79498202 32.41678530
v -47.05296221 6.80536075 32.41678530
v -53.14172962 14.66353934 36.62157396
v -53.59588123 15.03717349 35.15302589
v -45.13014853 10.93609387 36.62157396
v -45.13187708 18.77796303 32.41678530
v -45.13014853 16.92610170 32.41678530
v -47.05296221 4.95943011 36.62157396
v -46.48397554 6.92990546 32.41678530
v -45.92621250 6.36204086 36.62157396
v -45.85627791 8.50154118 32.41678530
v -45.13014853 10.97909145 36.55407349
v -45.13014853 15.40784229 32.41678530
v -46.71277840 5.06025203 36.62157396
v -46.44425772 6.94028419 32.41678530
v -46.25862679 5.42647280 36.62157396
v -46.09716867 7.50073542 32.41678530
v -45.13014853 11.51285452 36.02970976
v -45.13014853 11.00281425 36.51785375
v -46.30611412 5.35678707 36.62157396
f 1 2 3
f 1 3 4
f 1 4 5
f 1 5 6
f 1 6 7
f 1 7 8
f 1 8 9
f 1 9 2
f 2 10 11
f 2 11 3
f 2 9 15
f 2 15 23
f 2 23 31
f 2 31 43
f 2 43 53
f 2 53 59
f 2 59 65
f 2 65 61
f 2 61 55
f 2 55 50
f 2 50 37
f 2 37 48
f 2 48 34
f 2 34 25
f 2 25 17
f 2 17 10
f 3 11 4
f 4 11 5
f 5 12 21
f 5 21 30
f 5 30 39
f 5 39 51
f 5 51 52
f 5 52 58
f 5 58 56
f 5 56 62
f 5 62 60
f 5 60 54
f 5 54 47
f 5 47 46
f 5 46 45
f 5 45 44
f 5 44 33
f 5 33 32
f 5 32 24
f 5 24 22
f 5 22 14
f 5 14 6
f 5 11 13
f 5 13 12
f 6 14 7
f 7 14 8
f 8 15 9
f 8 14 16
f 8 16 15
f 10 17 18
f 10 18 11
f 11 18 13
f 12 13 19
f 12 19 20
f 12 20 21
f 13 18 19
f 14 22 16
f 15 16 24
f 15 24 23
f 16 22 24
f 17 25 18
f 18 25 26
f 18 26 27
f 18 27 20
f 18 20 19
f 20 27 28
f 20 28 29
f 20 29 30
f 20 30 21
f 23 24 32
f 23 32 33
f 23 33 31
f 25 34 35
f 25 35 26
f 26 35 36
f 26 36 28
f 26 28 27
f 28 37 38
f 28 38 29
f 28 36 37
f 29 39 30
f 29 38 40
f 29 40 41
f 29 41 42
f 29 42 39
f 31 33 44
f 31 44 45
f 31 45 46
f 31 46 47
f 31 47 43
f 34 48 49
f 34 49 36
f 34 36 35
f 36 49 37
f 37 49 48
f 37 50 57
f 37 57 64
f 37 64 63
f 37 63 58
f 37 58 52
f 37 52 42
f 37 42 41
f 37 41 40
f 37 40 38
f 39 42 51
f 42 52 51
f 43 47 54
f 43 54 53
f 50 55 56
f 50 56 57
f 53 54 60
f 53 60 59
f 55 61 62
f 55 62 56
f 56 63 64
f 56 64 57
f 56 58 63
f 59 60 65
f 60 61 65
f 60 62 61

