# https://github.com/mikedh/trimesh
v -17.77715954 36.22679117 34.48250894
v -18.32910215 35.87448072 34.48250894
v -18.38510853 35.92164321 33.83769610
v -18.08425697 36.22679117 33.52863860
v -17.78777781 36.22679117 34.53561460
v -18.44611167 35.92692719 35.48223008
v -19.05197858 35.89123272 33.78459044
v -19.08841365 35.85960033 34.50398333
v -19.05197858 36.22679117 33.22625556
v -18.05052834 36.22679117 35.48223008
v -18.73238869 35.92692719 35.48223008
v -18.09570821 36.22679117 35.61049601
v -18.54105132 35.99159567 35.99181213
v -19.63515125 35.93354037 33.86381372
v -19.63515125 35.93354037 34.18505915
v -19.10048963 36.22679117 33.24598883
v -18.56520290 35.99159567 35.99181213
v -18.34950607 36.22679117 36.18363119
v -18.76341087 36.22679117 36.19088587
v -19.90394015 36.22679117 34.33276843
v -19.86958679 36.22679117 33.63833235
v -19.90394015 36.22679117 34.41866617
v -19.44589633 36.04792243 34.85163676
v -19.79380122 36.22679117 34.63428086
v -19.30161266 36.22679117 35.48223008
f 1 2 3
f 1 3 4
f 1 4 9
f 1 9 16
f 1 16 21
f 1 21 20
f 1 20 22
f 1 22 24
f 1 24 25
f 1 25 19
f 1 19 18
f 1 18 12
f 1 12 10
f 1 10 5
f 1 5 6
f 1 6 2
f 2 7 3
f 2 6 8
f 2 8 7
f 3 7 9
f 3 9 4
f 5 10 6
f 6 11 8
f 6 10 12
f 6 12 13
f 6 13 17
f 6 17 11
f 7 14 9
f 7 8 14
f 8 11 15
f 8 15 14
f 9 14 16
f 11 17 15
f 12 18 13
f 13 18 19
f 13 19 17
f 14 15 22
f 14 22 20
f 14 20 21
f 14 21 16
f 15 17 23
f 15 23 24
f 15 24 22
f 17 19 25
f 17 25 23
f 23 25 24

