# https://github.com/mikedh/trimesh
v -45.15659231 -0.50819697 13.24037605
v -45.15659231 -0.49838822 13.24028366
v -44.53187195 -2.53082821 12.31064184
v -45.15016092 -1.51068508 13.24037605
v -45.15659231 -0.47876996 13.24037605
v -44.53371077 -0.49838822 12.31064184
v -45.13913697 12.49863684 13.24037605
v -44.53371077 12.49863684 12.31064184
v -45.13546232 -2.53082821 13.24037605
v -36.23045096 -2.53082821 12.31064184
v -45.07482612 13.40107195 13.24037605
v -44.44918785 17.50911194 12.31064184
v -35.77293614 -2.53082821 13.24037605
v -36.23045096 12.67127686 12.31064184
v -35.77201822 12.49863684 13.24037605
v -45.06564099 13.49916246 13.24037605
v -44.45745805 17.51107295 13.24037605
v -44.44918785 17.51107295 12.48229837
v -44.28198381 17.51107295 12.31064184
v -44.91589228 14.50753508 13.24037605
v -36.24790629 13.67180248 12.31064184
v -36.35080097 17.51107295 12.31064184
v -35.81244086 13.49916246 13.24037605
v -36.34528900 17.51107295 13.24037605
v -36.34528900 17.51107295 13.23209244
v -36.05497821 15.75917373 13.24037605
f 1 2 3
f 1 3 4
f 1 4 9
f 1 9 13
f 1 13 15
f 1 15 23
f 1 23 26
f 1 26 24
f 1 24 17
f 1 17 20
f 1 20 16
f 1 16 11
f 1 11 7
f 1 7 5
f 1 5 2
f 2 6 3
f 2 5 7
f 2 7 8
f 2 8 6
f 3 9 4
f 3 6 8
f 3 8 12
f 3 12 19
f 3 19 22
f 3 22 21
f 3 21 14
f 3 14 10
f 3 10 13
f 3 13 9
f 7 11 12
f 7 12 8
f 10 14 15
f 10 15 13
f 11 16 12
f 12 17 18
f 12 18 19
f 12 16 20
f 12 20 17
f 14 21 15
f 15 21 22
f 15 22 23
f 17 24 25
f 17 25 22
f 17 22 19
f 17 19 18
f 22 25 26
f 22 26 23
f 24 26 25

