# https://github.com/mikedh/trimesh
v -4.06472433 -7.49988154 -10.55496061
v -4.06472433 -7.48730563 -10.55496061
v -4.06472433 -8.48673824 -10.40616856
v -24.05102666 -8.49931416 -10.40203495
v -24.05102666 -7.49988154 -10.54876168
v -5.02185450 -2.53082970 -10.54876168
v -4.06472433 -2.53082970 -10.54255978
v -24.05102666 -2.53082970 -10.54876168
v -4.06472433 -8.49931416 -10.40410325
v -24.05102666 -9.12960013 -10.13751974
v -24.76710216 -9.08595360 -10.09618961
v -25.08141887 -8.51484946 -10.20778215
v -25.05069546 -7.49988154 -10.37517096
v -4.06472433 -2.53082970 10.54234527
v -25.05069546 -2.53082970 -10.37517096
v -4.06472433 -9.12294225 -10.13958505
v -7.05427997 -9.12960013 -10.13751974
v -24.05102666 -9.62968711 -9.56095429
v -24.61821474 -10.01584800 -9.04638701
v -4.06472433 -9.62450817 -9.56922151
v -25.02706206 -9.45805888 -9.47416042
v -25.43354753 -8.85884352 -9.90193382
v -25.59897832 -8.19230875 -10.07758985
v -25.62261022 -7.49988154 -10.10858745
v -4.06472433 -7.49988154 10.55474461
v -5.05257792 -2.53082970 10.54854420
v -25.62261022 -2.53082970 -10.10858745
v -4.06472433 -9.13033998 -10.13545144
v -24.05102666 -10.02472543 -9.06085316
v -4.06472433 -10.02916376 -9.06085316
v -24.05102666 -10.04913741 -8.51735360
v -24.65366335 -10.02472543 -8.51735360
v -25.15231757 -9.74878988 -8.51735360
v -25.61315686 -9.16363013 -9.23444089
v -28.06152004 -2.53082970 -2.51405385
v -24.05102666 -7.49988154 10.54854420
v -24.05102666 -8.49931416 10.40182045
v -4.06472433 -8.49931416 10.40182045
v -24.05102666 -2.53082970 10.54854420
v -4.06472433 -10.07355014 -8.51735360
v -24.05102666 -10.04987726 -7.51714538
v -4.06472433 -10.08760576 -7.52954620
v -24.65366335 -10.02472543 8.48200491
v -25.15231757 -9.75174927 -7.51714538
v -25.65097030 -9.25240289 -7.51714538
v -25.64860696 -9.24870365 -8.51735360
v -28.12060353 -3.50067140 -0.51777697
v -28.00716472 -3.50067140 -1.51591392
v -28.16077881 -2.53082970 -1.51591392
v -24.08174858 -2.53082970 10.54441059
v -25.05069546 -7.49988154 10.37082285
v -25.09559742 -8.53038477 10.19103321
v -24.79073406 -9.09779041 10.07324025
v -24.05102666 -9.14735498 10.11870399
v -4.06472433 -8.50745173 10.39975364
v -24.05102666 -10.04987726 8.48200491
v -4.06472433 -10.08834560 7.46940033
v -24.61821474 -10.01658785 9.01103832
v -25.15231757 -9.74878988 8.48200491
v -25.15231757 -9.75174927 7.48179966
v -25.65097030 -9.25240289 7.48179966
v -27.82282870 -4.24784172 0.48036296
v -28.13950875 -3.50067140 0.48036296
v -28.19150073 -2.53082970 -0.51777697
v -25.05069546 -2.53082970 10.37082285
v -25.62970024 -7.49988154 10.08563959
v -25.60370500 -8.21746058 10.05050838
v -25.45718092 -8.88399610 9.88105127
v -25.03887876 -9.46397766 9.44501214
v -24.05102666 -9.64744121 9.52767389
v -4.06472433 -9.64818106 9.52767389
v -7.05427997 -9.14735498 10.11870399
v -6.05224821 -9.14661513 10.11870399
v -4.06472433 -9.14809483 10.11663718
v -24.05102666 -10.02472543 9.02757127
v -4.06472433 -10.08834560 7.48179966
v -4.06472433 -10.07355014 8.48200491
v -25.61315686 -9.16363013 9.21355983
v -25.64624362 -9.24870365 8.48200491
v -28.09933347 -2.53082970 2.45390648
v -28.19386407 -2.53082970 1.44957061
v -28.20804411 -2.53082970 0.48036296
v -25.62970024 -2.53082970 10.08563959
v -28.09224345 -2.53082970 2.48077345
v -4.06472433 -10.02916376 9.02757127
v -4.06472433 -9.15401286 10.11043826
v -4.06472433 -10.02990361 9.02137085
f 1 2 7
f 1 7 14
f 1 14 25
f 1 25 38
f 1 38 55
f 1 55 74
f 1 74 86
f 1 86 71
f 1 71 85
f 1 85 87
f 1 87 77
f 1 77 76
f 1 76 57
f 1 57 42
f 1 42 40
f 1 40 30
f 1 30 20
f 1 20 28
f 1 28 16
f 1 16 9
f 1 9 3
f 1 3 4
f 1 4 5
f 1 5 8
f 1 8 2
f 2 6 7
f 2 8 6
f 3 9 4
f 4 10 11
f 4 11 12
f 4 12 13
f 4 13 5
f 4 9 10
f 5 13 15
f 5 15 8
f 6 8 15
f 6 15 27
f 6 27 35
f 6 35 49
f 6 49 64
f 6 64 82
f 6 82 81
f 6 81 80
f 6 80 84
f 6 84 83
f 6 83 65
f 6 65 50
f 6 50 39
f 6 39 26
f 6 26 14
f 6 14 7
f 9 16 17
f 9 17 10
f 10 18 19
f 10 19 11
f 10 17 20
f 10 20 18
f 11 19 21
f 11 21 22
f 11 22 12
f 12 22 23
f 12 23 13
f 13 23 24
f 13 24 27
f 13 27 15
f 14 26 25
f 16 28 17
f 17 28 20
f 18 29 19
f 18 20 30
f 18 30 29
f 19 29 31
f 19 31 32
f 19 32 33
f 19 33 34
f 19 34 21
f 21 34 22
f 22 34 23
f 23 34 35
f 23 35 24
f 24 35 27
f 25 36 37
f 25 37 38
f 25 26 39
f 25 39 36
f 29 30 40
f 29 40 31
f 31 41 32
f 31 40 42
f 31 42 41
f 32 43 60
f 32 60 44
f 32 44 33
f 32 41 56
f 32 56 43
f 33 44 45
f 33 45 46
f 33 46 34
f 34 46 47
f 34 47 48
f 34 48 35
f 35 48 47
f 35 47 49
f 36 39 50
f 36 50 51
f 36 51 37
f 37 51 52
f 37 52 53
f 37 53 54
f 37 54 55
f 37 55 38
f 41 42 57
f 41 57 76
f 41 76 56
f 43 58 59
f 43 59 60
f 43 56 58
f 44 60 61
f 44 61 45
f 45 61 62
f 45 62 46
f 46 62 63
f 46 63 47
f 47 63 64
f 47 64 49
f 50 65 51
f 51 65 83
f 51 83 66
f 51 66 67
f 51 67 52
f 52 67 68
f 52 68 53
f 53 68 69
f 53 69 58
f 53 58 70
f 53 70 54
f 54 70 71
f 54 71 72
f 54 72 55
f 55 72 73
f 55 73 74
f 56 75 58
f 56 76 77
f 56 77 75
f 58 69 78
f 58 78 59
f 58 75 70
f 59 78 79
f 59 79 61
f 59 61 60
f 61 79 62
f 62 79 63
f 63 80 81
f 63 81 82
f 63 82 64
f 63 79 78
f 63 78 80
f 66 84 67
f 66 83 84
f 67 78 68
f 67 84 80
f 67 80 78
f 68 78 69
f 70 75 85
f 70 85 71
f 71 86 72
f 72 86 74
f 72 74 73
f 75 77 87
f 75 87 85

