# https://github.com/mikedh/trimesh
v 3.69470660 -19.50097056 7.05157649
v 2.94776911 -19.50097056 7.05157649
v 3.69470660 -24.74968699 7.05157649
v 3.69470660 -19.50097056 -7.22257730
v 2.94776911 -24.74968699 7.05157649
v 2.15162617 -19.50097056 7.01704283
v 2.15099435 -24.74968699 7.01704283
v 3.69470660 -24.74968699 -7.22257730
v 2.23489887 -19.50097056 -10.51675974
v 1.65135516 -19.50097056 6.88466154
v 1.65135516 -24.74968699 6.88658082
v 2.23426855 -24.74968699 -10.51675974
v 2.23489887 -20.50035922 -10.51675974
v 1.78509694 -19.50097056 -11.47604613
v -2.63217621 -19.50097056 3.37943556
v -2.50852780 -24.74968699 3.02258022
v 1.78446661 -24.74968699 -11.47604613
v 1.78509694 -23.50006597 -11.47604613
v 1.48985532 -24.74968699 -11.85208236
v 1.39144145 -20.50035922 -11.97679099
v 1.39080964 -19.50097056 -11.97679099
v -2.63785433 -19.50097056 3.35065825
v -2.62334423 -24.74968699 2.87485213
v 1.39144145 -24.74968699 -11.97679099
v 1.01671057 -24.74968699 -12.17632182
v 0.89117045 -19.50097056 -12.24155357
v -2.73563714 -19.50097056 2.48154533
v -2.68075208 -24.74968699 2.47770677
v 0.89180077 -24.74968699 -12.24155357
v 0.89180077 -23.50006597 -12.24155357
v -0.05196447 -19.50097056 -12.50631615
v -2.74951542 -19.50097056 1.48197190
v -2.74951542 -24.74968699 1.48197190
v 0.18460791 -24.74968699 -12.43916512
v -0.05196447 -23.50006597 -12.50631615
v -1.05187466 -24.49996723 -12.54660617
v -1.05187466 -19.50097056 -12.54468689
v -2.74951542 -19.50097056 -11.51633317
v -2.74951542 -24.74968699 -11.51633317
v -0.05196447 -24.74968699 -12.50439687
v -1.05187466 -24.74968699 -12.54660617
v -1.80133494 -24.74968699 -12.45067783
v -2.05178635 -19.50097056 -12.41806196
v -2.65047123 -19.50097056 -12.15329938
v -2.72491196 -24.74968699 -11.67557398
v -2.05178635 -24.74968699 -12.41806196
v -2.50095796 -24.74968699 -12.22044743
v -2.65047123 -24.74968699 -12.15329938
f 1 2 5
f 1 5 3
f 1 3 8
f 1 8 4
f 1 4 9
f 1 9 14
f 1 14 21
f 1 21 26
f 1 26 31
f 1 31 37
f 1 37 43
f 1 43 44
f 1 44 38
f 1 38 32
f 1 32 27
f 1 27 22
f 1 22 15
f 1 15 10
f 1 10 6
f 1 6 2
f 2 6 7
f 2 7 5
f 3 5 7
f 3 7 11
f 3 11 16
f 3 16 23
f 3 23 28
f 3 28 33
f 3 33 39
f 3 39 45
f 3 45 48
f 3 48 47
f 3 47 46
f 3 46 42
f 3 42 41
f 3 41 40
f 3 40 34
f 3 34 29
f 3 29 25
f 3 25 24
f 3 24 19
f 3 19 17
f 3 17 12
f 3 12 8
f 4 8 13
f 4 13 9
f 6 10 11
f 6 11 7
f 8 12 13
f 9 13 18
f 9 18 14
f 10 15 11
f 11 15 16
f 12 17 18
f 12 18 13
f 14 18 19
f 14 19 20
f 14 20 21
f 15 22 23
f 15 23 16
f 17 19 18
f 19 24 20
f 20 24 25
f 20 25 26
f 20 26 21
f 22 27 28
f 22 28 23
f 25 29 30
f 25 30 26
f 26 30 31
f 27 32 33
f 27 33 28
f 29 34 35
f 29 35 31
f 29 31 30
f 31 35 41
f 31 41 36
f 31 36 37
f 32 38 39
f 32 39 33
f 34 40 35
f 35 40 41
f 36 41 42
f 36 42 43
f 36 43 37
f 38 44 45
f 38 45 39
f 42 46 43
f 43 47 44
f 43 46 47
f 44 47 48
f 44 48 45

