# https://github.com/mikedh/trimesh
v -6.47972545 -43.68031563 33.48738335
v -6.47972545 -43.67947520 13.24037605
v -3.04583142 -43.59201077 13.24037605
v -6.47972545 -43.68031563 47.47881259
v -6.47972545 -37.93209860 13.24037605
v -2.10333130 -43.35064317 13.24037605
v -3.05236264 -43.54323299 74.47688564
v -6.47972545 -43.67947520 74.47688564
v -4.73288558 -35.83044598 13.24037605
v -6.47972545 -38.14234641 74.47688564
v -1.91242010 -43.09329844 13.24037605
v -2.19074878 -43.26738686 75.48025591
v -3.05236264 -43.53986829 75.48025591
v -6.47972545 -43.67779136 74.92901962
v -4.07223158 -35.39733197 13.24037605
v -4.59221397 -35.93052283 75.48025591
v -4.05163283 -35.50666250 74.47688564
v -6.47972545 -38.15748609 74.90424777
v -1.63358850 -42.68709610 13.24037605
v -1.73909239 -42.49955482 74.47688564
v -1.75416501 -42.49955482 75.48025591
v -2.31132455 -43.17739816 76.15536040
v -6.47972545 -43.66938109 75.48025591
v -3.05236264 -43.26822729 76.24207380
v -3.05236264 -35.08868518 13.24037605
v -3.05236264 -35.16016950 74.47688564
v -6.47972545 -38.18019263 75.48025591
v -4.57864936 -35.95407278 76.01910032
v -4.05163283 -35.52516390 75.48025591
v -1.49341981 -42.25650636 13.24037605
v -1.65016764 -41.49960886 74.47688564
v -1.35676708 -41.49960886 13.24037605
v -1.67930705 -41.49960886 75.48025591
v -2.16060503 -42.49955482 76.24207380
v -3.05236264 -42.49955482 76.50839803
v -6.47972545 -43.53566316 75.85187243
v -6.47972545 -43.36998798 76.24207380
v -2.65647271 -35.17026361 13.24037605
v -3.05236264 -35.19297015 75.48025591
v -2.12794892 -35.59832908 75.48025591
v -2.11538939 -35.58319238 74.47688564
v -6.47972545 -38.36184791 75.80851871
v -6.47972545 -38.60910151 76.24826677
v -4.05163283 -35.77157409 76.14297448
v -1.65016764 -37.50066544 74.47688564
v -1.34772425 -40.49966290 13.24037605
v -1.67930705 -37.50066544 75.48025591
v -2.13046127 -41.49960886 76.24826677
v -3.05236264 -41.49960886 76.51459398
v -4.05163283 -42.49955482 76.51459398
v -6.47972545 -42.91164316 76.39691278
v -1.74863813 -35.61683048 13.24037605
v -3.05236264 -35.61262535 76.24826677
v -2.27766410 -35.74214112 76.15536040
v -1.69136515 -36.50071948 75.48025591
v -1.66473809 -36.50071948 74.47688564
v -6.47972545 -39.49971694 76.51459398
v -3.05236264 -36.50071948 76.51459398
v -1.34772425 -38.38371401 13.24037605
v -1.34822642 -37.50066544 13.24037605
v -2.13498306 -36.50071948 76.24826677
v -2.13046127 -37.50066544 76.24826677
v -6.47972545 -42.49955482 76.51459398
v -1.54566958 -36.10461125 13.24037605
v -1.35425547 -37.38460848 13.24037605
v -1.46428040 -36.50071948 13.24037605
f 1 2 3
f 1 3 4
f 1 4 8
f 1 8 14
f 1 14 23
f 1 23 36
f 1 36 37
f 1 37 51
f 1 51 63
f 1 63 57
f 1 57 43
f 1 43 42
f 1 42 27
f 1 27 18
f 1 18 10
f 1 10 5
f 1 5 2
f 2 5 9
f 2 9 15
f 2 15 25
f 2 25 38
f 2 38 52
f 2 52 64
f 2 64 66
f 2 66 65
f 2 65 60
f 2 60 59
f 2 59 46
f 2 46 32
f 2 32 30
f 2 30 19
f 2 19 11
f 2 11 6
f 2 6 3
f 3 6 7
f 3 7 8
f 3 8 4
f 5 10 9
f 6 11 12
f 6 12 7
f 7 12 13
f 7 13 8
f 8 13 14
f 9 10 16
f 9 16 17
f 9 17 15
f 10 18 16
f 11 19 12
f 12 20 21
f 12 21 22
f 12 22 13
f 12 19 20
f 13 23 14
f 13 22 24
f 13 24 23
f 15 17 26
f 15 26 25
f 16 18 27
f 16 27 28
f 16 28 29
f 16 29 17
f 17 29 26
f 19 30 20
f 20 31 21
f 20 30 32
f 20 32 31
f 21 31 33
f 21 33 34
f 21 34 22
f 22 34 35
f 22 35 24
f 23 24 36
f 24 37 36
f 24 35 37
f 25 26 38
f 26 29 39
f 26 39 40
f 26 40 41
f 26 41 38
f 27 42 28
f 28 42 43
f 28 43 44
f 28 44 29
f 29 44 39
f 31 45 47
f 31 47 33
f 31 32 46
f 31 46 59
f 31 59 45
f 33 47 62
f 33 62 48
f 33 48 34
f 34 48 35
f 35 49 50
f 35 50 51
f 35 51 37
f 35 48 49
f 38 41 52
f 39 44 53
f 39 53 54
f 39 54 40
f 40 55 56
f 40 56 41
f 40 54 55
f 41 56 52
f 43 57 44
f 44 57 58
f 44 58 53
f 45 56 55
f 45 55 47
f 45 59 60
f 45 60 56
f 47 55 61
f 47 61 62
f 48 62 58
f 48 58 49
f 49 58 57
f 49 57 63
f 49 63 50
f 50 63 51
f 52 56 64
f 53 58 54
f 54 58 61
f 54 61 55
f 56 60 65
f 56 65 66
f 56 66 64
f 58 62 61

