# https://github.com/mikedh/trimesh
v -4.06229244 8.34042133 -10.55776204
v -4.06229244 16.51157552 -10.55776204
v -4.06229244 8.34042133 10.55596800
v -24.05182686 8.34042133 -10.54949185
v -4.06229244 21.51034121 -10.55156014
v -24.05182686 22.49894582 -10.54949185
v -4.06229244 16.49026225 10.55803332
v -4.21514359 8.34042133 10.55596800
v -24.89038474 8.34042133 -10.40272637
v -7.05350436 22.49894582 -10.54949185
v -6.05360273 22.49894582 -10.54742653
v -4.06229244 22.49894582 -10.53295741
v -25.05172811 22.49894582 -10.37378515
v -24.05182686 23.49902739 -10.40272637
v -24.05182686 8.34042133 10.54976610
v -4.06229244 16.50173920 10.55803332
v -25.05172811 8.34042133 -10.37378515
v -7.05350436 23.49902739 -10.40272637
v -6.05360273 23.49902739 -10.40065808
v -4.06229244 23.49902739 -10.37171983
v -5.05370147 23.49902739 -10.38618895
v -25.62279649 22.49894582 -10.10919244
v -25.59944473 23.19244592 -10.07818591
v -25.08144867 23.51542175 -10.20841396
v -24.76725564 24.08595964 -10.09679162
v -24.05182686 24.12858618 -10.13606537
v -24.05182686 22.49894582 10.54976610
v -24.21317023 8.34042133 10.52082488
v -4.06229244 19.49870263 10.55596800
v -25.62279649 8.34042133 -10.10919244
v -7.05350436 24.12858618 -10.13606537
v -6.05360273 24.12858618 -10.13399708
v -5.05370147 24.12366728 -10.12779815
v -4.06229244 24.11711072 -10.11952796
v -4.06229244 23.50558394 -10.36965154
v -25.70559086 8.34042133 -9.61307889
v -25.72045188 21.49886426 -9.51592566
v -25.70134549 22.49894582 -9.51592566
v -25.63978094 23.51542175 -9.54693220
v -25.61218232 24.15973726 -9.23272725
v -25.43385598 23.85807321 -9.89834560
v -25.02625292 24.45648092 -9.47251532
v -24.61864986 25.01554335 -9.04461674
v -24.05182686 24.62862622 -9.55933303
v -24.05182686 23.49902739 10.40299914
v -25.05172811 22.49894582 10.36992579
v -4.06229244 22.49894582 10.55183290
v -25.05172811 8.34042133 10.36992579
v -6.05360273 24.62862622 -9.55933303
v -5.05370147 24.62370880 -9.55726772
v -4.06229244 24.61715076 -9.55519942
v -25.72045188 8.34042133 -9.51592566
v -25.74380365 8.34042133 -8.67873423
v -25.74805050 21.49886426 -8.51749665
v -25.70559086 23.49902739 -8.51749665
v -25.64614974 24.24662948 -8.51749665
v -25.15362888 24.74666803 -8.51749665
v -24.65261728 25.02373904 -8.51749665
v -24.05182686 25.04833208 -8.51749665
v -24.05182686 25.02373904 -9.05908587
v -24.05182686 24.14662117 10.11773392
v -24.79060740 24.09743510 10.07225826
v -25.09418627 23.53017698 10.19215080
v -4.06229244 23.48918958 10.40506594
v -4.06229244 23.49902739 10.40299914
v -4.06229244 24.14170227 10.12186753
v -25.60369009 23.21703597 10.05158574
v -25.63128871 22.49894582 10.08672738
v -25.14513665 8.34042133 10.32444715
v -6.05360273 25.02373904 -9.05908587
v -4.06229244 25.02538116 -9.05495226
v -25.74805050 8.34042133 -8.51749665
v -25.75017244 8.50109042 -2.51660196
v -25.74805050 23.49902739 -6.51651098
v -25.72894411 23.49902739 -7.51700232
v -25.65039511 24.25154689 -7.51700232
v -25.15362888 24.75158842 -7.51700232
v -24.65261728 25.02373904 8.48056246
v -24.05182686 25.04997122 -7.51700232
v -4.06229244 25.08276293 -7.51700232
v -4.06229244 25.06636856 -8.51749665
v -24.05182686 24.64666121 9.52653245
v -24.61864986 25.01554335 9.01181617
v -4.06229244 24.14826031 10.11773392
v -25.03899052 24.46631873 9.44798196
v -25.45720774 23.88430389 9.88208095
v -25.61642769 24.16629382 9.21646409
v -25.66100927 23.53017698 9.52239884
v -25.72682068 22.49894582 9.48105679
v -25.63128871 8.34042133 10.08672738
v -25.72894411 21.49886426 9.48105679
v -25.75017244 8.34042133 -2.51660196
v -25.74805050 20.49878419 8.48056246
v -25.74805050 23.49902739 6.48164210
v -25.65039511 24.25154689 8.48056246
v -25.15362888 24.75158842 8.48056246
v -24.05182686 25.04997122 8.48056246
v -4.06229244 25.08768034 1.48123876
v -4.06229244 25.08604120 -2.51660196
v -24.05182686 25.02373904 9.02628678
v -6.05360273 24.64666121 9.52653245
v -4.06229244 24.64338144 9.52860075
v -25.74168171 23.49902739 8.48056246
v -25.72894411 8.34042133 9.48105679
v -25.73318948 8.34042133 9.31981922
v -25.74805050 8.34042133 8.48056246
v -4.06229244 25.06800770 8.48676437
v -4.06229244 25.08604120 7.49040365
v -4.06229244 25.08768034 1.49157427
v -6.05360273 25.02373904 9.02628678
v -4.06229244 25.02538116 9.02215168
v -4.06229244 24.64830035 9.52239884
v -4.06229244 25.02209990 9.02835358
f 1 2 5
f 1 5 12
f 1 12 20
f 1 20 35
f 1 35 34
f 1 34 51
f 1 51 71
f 1 71 81
f 1 81 80
f 1 80 99
f 1 99 98
f 1 98 109
f 1 109 108
f 1 108 107
f 1 107 111
f 1 111 113
f 1 113 112
f 1 112 102
f 1 102 84
f 1 84 66
f 1 66 65
f 1 65 64
f 1 64 47
f 1 47 29
f 1 29 16
f 1 16 7
f 1 7 3
f 1 3 8
f 1 8 15
f 1 15 28
f 1 28 48
f 1 48 69
f 1 69 90
f 1 90 104
f 1 104 105
f 1 105 106
f 1 106 92
f 1 92 72
f 1 72 53
f 1 53 52
f 1 52 36
f 1 36 30
f 1 30 17
f 1 17 9
f 1 9 4
f 1 4 6
f 1 6 2
f 2 6 5
f 3 7 8
f 4 9 6
f 5 10 11
f 5 11 12
f 5 6 10
f 6 9 13
f 6 13 14
f 6 14 18
f 6 18 10
f 7 15 8
f 7 16 27
f 7 27 15
f 9 17 13
f 10 18 19
f 10 19 11
f 11 19 12
f 12 19 21
f 12 21 20
f 13 17 30
f 13 30 22
f 13 22 23
f 13 23 24
f 13 24 14
f 14 24 25
f 14 25 26
f 14 26 31
f 14 31 18
f 15 27 28
f 16 29 27
f 18 31 32
f 18 32 19
f 19 32 33
f 19 33 34
f 19 34 35
f 19 35 21
f 20 21 35
f 22 30 36
f 22 36 37
f 22 37 38
f 22 38 23
f 23 38 39
f 23 39 40
f 23 40 41
f 23 41 24
f 24 41 25
f 25 41 42
f 25 42 43
f 25 43 26
f 26 43 44
f 26 44 49
f 26 49 31
f 27 45 46
f 27 46 28
f 27 29 47
f 27 47 45
f 28 46 48
f 31 49 32
f 32 49 50
f 32 50 51
f 32 51 33
f 33 51 34
f 36 52 37
f 37 52 53
f 37 53 54
f 37 54 38
f 38 54 55
f 38 55 39
f 39 55 40
f 40 55 56
f 40 56 57
f 40 57 43
f 40 43 42
f 40 42 41
f 43 58 59
f 43 59 60
f 43 60 44
f 43 57 58
f 44 60 70
f 44 70 49
f 45 61 62
f 45 62 63
f 45 63 46
f 45 47 64
f 45 64 65
f 45 65 66
f 45 66 61
f 46 63 67
f 46 67 68
f 46 68 69
f 46 69 48
f 49 70 71
f 49 71 50
f 50 71 51
f 53 72 54
f 54 72 92
f 54 92 73
f 54 73 74
f 54 74 75
f 54 75 55
f 55 75 56
f 56 76 57
f 56 75 74
f 56 74 76
f 57 76 77
f 57 77 58
f 58 78 97
f 58 97 79
f 58 79 59
f 58 77 96
f 58 96 78
f 59 79 80
f 59 80 81
f 59 81 60
f 60 81 71
f 60 71 70
f 61 82 83
f 61 83 62
f 61 66 84
f 61 84 82
f 62 85 86
f 62 86 63
f 62 83 85
f 63 86 67
f 67 87 88
f 67 88 89
f 67 89 68
f 67 86 87
f 68 90 69
f 68 89 91
f 68 91 104
f 68 104 90
f 73 92 106
f 73 106 93
f 73 93 94
f 73 94 74
f 74 94 95
f 74 95 76
f 76 95 96
f 76 96 77
f 78 83 97
f 78 96 83
f 79 97 109
f 79 109 98
f 79 98 99
f 79 99 80
f 82 100 83
f 82 84 101
f 82 101 110
f 82 110 100
f 83 100 97
f 83 96 87
f 83 87 85
f 84 102 101
f 85 87 86
f 87 95 103
f 87 103 88
f 87 96 95
f 88 103 89
f 89 103 93
f 89 93 91
f 91 93 105
f 91 105 104
f 93 106 105
f 93 103 94
f 94 103 95
f 97 100 107
f 97 107 108
f 97 108 109
f 100 110 111
f 100 111 107
f 101 102 112
f 101 112 113
f 101 113 110
f 110 113 111

