# https://github.com/mikedh/trimesh
v -3.05158628 3.48727892 -10.55237077
v -4.06174110 3.48727892 -10.54991206
v -1.05221739 4.63736549 -12.28197771
v -0.05253295 4.65318169 -12.25740851
v -0.05253295 4.25324980 -11.51790376
v -2.25139765 3.48727892 -10.28457727
v -4.06174110 5.50049481 -10.55974093
v -2.65314526 5.50049481 -12.15422028
v -2.61952877 4.86331551 -12.10754358
v -2.05190184 4.71644796 -12.21809899
v -4.06174110 3.48727892 10.54932204
v -1.05221739 5.50049481 -12.54731547
v -0.05253295 5.50049481 -12.50063281
v 0.73828652 4.77745446 -12.16159342
v 1.02210035 4.65996027 -11.54001425
v 0.52776899 3.48727892 -8.11273973
v 0.52170716 3.48727892 -8.12010989
v -4.06174110 16.50878600 -10.55974093
v -2.65369586 13.50139020 -12.15422028
v -2.09268286 26.56808758 -12.40236199
v -2.05190184 5.50049481 -12.41955804
v -4.05182133 3.48727892 10.54932204
v -1.05221739 4.63058691 12.26418866
v -2.05190184 4.71192915 12.19539849
v -2.62007937 4.86331551 12.07746993
v -2.65369586 5.50049481 12.12414961
v -4.06174110 4.49049795 10.55423648
v -1.05221739 25.49934251 -12.54977120
v -0.12031803 26.56808758 -12.50800595
v -0.05253295 16.49974839 -12.50309152
v 0.88983678 19.49810658 -12.23775375
v 0.88928544 10.50077149 -12.23529504
v 0.88377495 5.50049481 -12.23529504
v 1.38361680 5.50049481 -11.82746250
v 1.48171179 4.92206223 -11.22308237
v 0.90251180 3.48727892 -7.51573274
v -4.06174110 21.50906268 -10.54991206
v -2.65149197 26.56808758 -12.15422028
v -2.65369586 21.50002507 -12.15422028
v -2.05190184 26.56808758 -12.41955804
v -3.05158628 3.48727892 10.53949615
v -0.05253295 4.64414408 12.23961946
v -1.05221739 5.50049481 12.54918118
v -2.05190184 5.50049481 12.40668492
v -2.65424721 6.50145405 12.12414961
v -4.06174110 5.49145719 10.55669370
v -2.05190184 6.50145405 12.40914214
v -1.05221739 26.56808758 -12.54977120
v -0.05253295 26.56808758 -12.50309152
v 0.89038813 24.49838326 -12.23775375
v 1.38967863 13.50139020 -11.97487469
v 1.38912878 10.50077149 -11.97487469
v 1.38637354 9.50207202 -11.95767566
v 1.56768311 10.50077149 -11.74884645
v 1.56768311 9.50207202 -11.68988217
v 1.49879608 5.50049481 -11.32627060
v 1.55004747 5.50049481 -10.51551698
v 1.49879608 4.88139148 -10.51551698
v 1.25245742 3.48727892 -6.51580168
v -4.06174110 22.51002193 -10.53271601
v -4.06174110 23.49968304 -10.37056350
v -4.06174110 23.50646312 -10.36810777
v -4.06174110 24.11652808 -10.11751033
v -4.06174110 24.12104763 -10.11259887
v -4.06174110 24.62039774 -9.54998398
v -4.06174110 25.02484770 -9.05616224
v -2.75123950 26.56808758 -11.51790376
v -2.26186876 3.48727892 10.25941806
v -0.05253295 4.24421218 11.48045995
v 0.75481946 4.77293565 12.13643421
v -0.05253295 5.50049481 12.49758707
v -0.05253295 15.49878914 12.50004428
v -1.05221739 11.50173074 12.54918118
v -1.98411676 26.56808758 12.41896803
v -2.65479855 17.49844860 12.12660683
v -4.06174110 18.49940785 10.55669370
v -2.65534916 21.50002507 12.12660683
v -2.05190184 26.56808758 12.40914214
v 0.89038813 26.56808758 -12.23775375
v 1.39022998 22.49872380 -11.97487469
v 1.56768311 26.56808758 -11.74884645
v 1.56768311 8.50111277 -11.42700013
v 1.56768311 8.29549850 -11.37295028
v 1.49879608 4.74808110 -2.51608638
v 1.49879608 4.75711871 -3.51601446
v 1.56768311 7.56116002 -10.51551698
v 1.56768311 7.54534382 -9.51558890
v 1.56768311 7.52274905 -7.51573274
v 1.56768311 7.51822950 -6.53054200
v 1.56768311 7.51822950 6.48081657
v 1.54949612 5.50049481 10.48053187
v 1.49879608 4.73226416 5.48088849
v 1.33897859 3.48727892 -3.51601446
v 1.29213500 3.48727892 -5.50113327
v 1.29158514 3.48727892 -5.51587360
v -4.06174110 25.06551919 -8.51566082
v -4.06174110 25.08133539 -7.51573274
v -2.76336391 26.56808758 -8.51566082
v -2.25084630 3.48727892 10.25450363
v 1.03202012 4.65544146 11.52468391
v 0.28473692 3.48727892 8.04335954
v 0.79394719 3.48727892 7.58884583
v 1.40786562 5.50049481 11.84407152
v 0.90802377 5.50049481 12.21505325
v 1.48171179 4.92206223 11.22249384
v 0.91849488 10.50077149 12.21505325
v -0.05253295 26.56808758 12.50004428
v 0.91739219 19.49810658 12.21750897
v -0.98443306 26.56808758 12.54426675
v -1.05221739 26.56808758 12.54672397
v -4.06174110 22.49872380 10.55178075
v -2.65534916 22.49872380 12.12660683
v -2.65259391 26.56808758 12.12660683
v -2.61181289 26.56808758 12.14626010
v 1.39022998 26.56808758 -11.97487469
v 1.56768311 26.56808758 11.75562659
v 1.34063263 3.48727892 -2.51608638
v 1.34889836 3.48727892 5.48088849
v 1.56768311 7.52274905 7.48074465
v 1.56768311 7.52726785 8.45610652
v 1.56768311 7.54986263 10.43385219
v 1.56768311 7.55890099 10.48053187
v 1.56768311 7.73514190 11.14141758
v 1.56768311 8.37006216 11.44852209
v 1.49879608 5.50049481 11.34287813
v 1.49879608 4.88139148 10.48053187
v 1.34889836 3.48727892 5.49562882
v -4.06174110 25.08359442 -6.51580168
v -4.06174110 25.08585345 -2.51608638
v -2.76391525 26.56808758 8.48067422
v 0.81378672 3.48727892 7.55936369
v 1.27339816 3.48727892 6.49801263
v 1.28001133 3.48727892 6.48081657
v 1.41337611 9.50207202 11.94480105
v 1.56768311 8.98690571 11.67455033
v 1.56768311 9.90652272 11.74825494
v 1.41888808 10.50077149 11.95954137
v 0.91684085 21.50002507 12.21750897
v 0.91573815 26.56808758 12.21505325
v 1.41833673 13.50139020 11.95954137
v 1.41778539 16.49974839 11.95954137
v -4.06174110 23.48838640 10.40437005
v -2.75289279 26.56808758 11.48045995
v -4.06174110 25.02484770 9.02117714
v -4.06174110 25.02032964 9.02854730
v -4.06174110 24.64751058 9.52236904
v -4.06174110 24.14816196 10.11692031
v -4.06174110 24.14138189 10.12183474
v -4.06174110 23.49968304 10.40191283
v 1.41558000 26.56808758 11.95708564
v 1.56768311 24.90057418 11.75808232
v -4.06174110 25.08585345 7.49057352
v -2.76391525 26.56808758 8.54946588
v 1.56768311 10.50077149 11.76053804
v 1.56768311 17.89611998 11.76053804
v 0.94935539 26.56808758 12.19785421
v 1.41613135 25.49934251 11.95708564
v -4.06174110 25.06777822 8.48558717
f 1 2 3
f 1 3 4
f 1 4 5
f 1 5 6
f 1 6 17
f 1 17 16
f 1 16 36
f 1 36 59
f 1 59 95
f 1 95 94
f 1 94 93
f 1 93 117
f 1 117 118
f 1 118 127
f 1 127 133
f 1 133 132
f 1 132 131
f 1 131 102
f 1 102 101
f 1 101 99
f 1 99 68
f 1 68 41
f 1 41 22
f 1 22 11
f 1 11 2
f 2 7 8
f 2 8 9
f 2 9 10
f 2 10 3
f 2 11 27
f 2 27 46
f 2 46 76
f 2 76 111
f 2 111 142
f 2 142 149
f 2 149 148
f 2 148 147
f 2 147 146
f 2 146 145
f 2 145 144
f 2 144 158
f 2 158 152
f 2 152 129
f 2 129 128
f 2 128 97
f 2 97 96
f 2 96 66
f 2 66 65
f 2 65 64
f 2 64 63
f 2 63 62
f 2 62 61
f 2 61 60
f 2 60 37
f 2 37 18
f 2 18 7
f 3 12 4
f 3 10 12
f 4 12 13
f 4 13 14
f 4 14 5
f 5 14 15
f 5 15 16
f 5 16 17
f 5 17 6
f 7 18 39
f 7 39 19
f 7 19 8
f 8 19 20
f 8 20 21
f 8 21 9
f 9 21 10
f 10 21 12
f 11 22 23
f 11 23 24
f 11 24 25
f 11 25 26
f 11 26 27
f 12 28 29
f 12 29 30
f 12 30 13
f 12 21 28
f 13 30 31
f 13 31 32
f 13 32 33
f 13 33 14
f 14 33 34
f 14 34 35
f 14 35 15
f 15 35 36
f 15 36 16
f 18 37 38
f 18 38 39
f 19 39 20
f 20 40 21
f 20 39 38
f 20 38 67
f 20 67 98
f 20 98 130
f 20 130 153
f 20 153 143
f 20 143 113
f 20 113 114
f 20 114 78
f 20 78 74
f 20 74 110
f 20 110 109
f 20 109 107
f 20 107 139
f 20 139 156
f 20 156 150
f 20 150 116
f 20 116 81
f 20 81 115
f 20 115 79
f 20 79 49
f 20 49 29
f 20 29 48
f 20 48 40
f 21 40 48
f 21 48 28
f 22 41 23
f 23 42 43
f 23 43 24
f 23 41 42
f 24 43 44
f 24 44 25
f 25 44 26
f 26 45 46
f 26 46 27
f 26 44 47
f 26 47 45
f 28 48 29
f 29 49 30
f 30 49 79
f 30 79 50
f 30 50 31
f 31 50 51
f 31 51 52
f 31 52 32
f 32 52 33
f 33 52 53
f 33 53 34
f 34 53 54
f 34 54 55
f 34 55 56
f 34 56 35
f 35 56 57
f 35 57 58
f 35 58 59
f 35 59 36
f 37 60 38
f 38 60 61
f 38 61 62
f 38 62 63
f 38 63 64
f 38 64 65
f 38 65 66
f 38 66 67
f 41 68 69
f 41 69 42
f 42 70 71
f 42 71 43
f 42 69 70
f 43 72 107
f 43 107 73
f 43 73 74
f 43 74 47
f 43 47 44
f 43 71 72
f 45 47 75
f 45 75 46
f 46 75 77
f 46 77 112
f 46 112 76
f 47 74 78
f 47 78 112
f 47 112 77
f 47 77 75
f 50 79 115
f 50 115 80
f 50 80 51
f 51 80 54
f 51 54 52
f 52 54 53
f 54 80 115
f 54 115 81
f 54 81 116
f 54 116 151
f 54 151 155
f 54 155 154
f 54 154 136
f 54 136 135
f 54 135 124
f 54 124 123
f 54 123 122
f 54 122 121
f 54 121 120
f 54 120 119
f 54 119 90
f 54 90 89
f 54 89 88
f 54 88 87
f 54 87 86
f 54 86 83
f 54 83 82
f 54 82 55
f 55 82 56
f 56 82 83
f 56 83 57
f 57 84 85
f 57 85 58
f 57 83 86
f 57 86 87
f 57 87 88
f 57 88 89
f 57 89 90
f 57 90 91
f 57 91 92
f 57 92 84
f 58 85 93
f 58 93 94
f 58 94 95
f 58 95 59
f 66 96 67
f 67 96 97
f 67 97 98
f 68 99 69
f 69 100 70
f 69 99 101
f 69 101 102
f 69 102 100
f 70 103 104
f 70 104 71
f 70 100 105
f 70 105 103
f 71 104 106
f 71 106 72
f 72 106 108
f 72 108 107
f 73 107 109
f 73 109 110
f 73 110 74
f 76 112 113
f 76 113 111
f 78 114 112
f 84 117 85
f 84 92 118
f 84 118 117
f 85 117 93
f 90 119 91
f 91 119 120
f 91 120 121
f 91 121 122
f 91 122 123
f 91 123 124
f 91 124 125
f 91 125 105
f 91 105 126
f 91 126 92
f 92 126 127
f 92 127 118
f 97 128 98
f 98 128 129
f 98 129 130
f 100 102 131
f 100 131 132
f 100 132 133
f 100 133 105
f 103 134 104
f 103 105 125
f 103 125 135
f 103 135 136
f 103 136 134
f 104 134 137
f 104 137 106
f 105 133 127
f 105 127 126
f 106 137 108
f 107 108 138
f 107 138 139
f 108 137 140
f 108 140 141
f 108 141 138
f 111 113 142
f 112 114 113
f 113 143 144
f 113 144 145
f 113 145 146
f 113 146 147
f 113 147 148
f 113 148 149
f 113 149 142
f 116 150 151
f 124 135 125
f 129 152 153
f 129 153 130
f 134 136 137
f 136 154 137
f 137 155 140
f 137 154 155
f 138 141 150
f 138 150 156
f 138 156 139
f 140 155 141
f 141 155 151
f 141 151 157
f 141 157 150
f 143 153 152
f 143 152 158
f 143 158 144
f 150 157 151

