# https://github.com/mikedh/trimesh
v -22.42391281 45.49979656 76.51459398
v -28.05185806 45.49979656 76.51459398
v -22.42391281 39.50056485 76.51459398
v -22.42391281 46.27082641 76.24697632
v -32.93002936 40.62292763 76.51459398
v -28.05185806 46.27082641 76.24697632
v -29.05155964 46.15593175 76.13841171
v -32.93002936 42.50017922 76.51206970
v -32.93002936 39.50056485 76.51459398
v -22.42391281 38.72953500 76.24697632
v -22.42391281 46.54524501 75.48198744
v -28.05185806 46.54524501 75.48198744
v -29.05155964 46.31450796 75.48198744
v -29.57300832 46.02774218 76.01470146
v -32.93002936 43.27026135 76.24697632
v -32.93002936 42.59418529 76.48177247
v -32.93002936 38.72953500 76.24697632
v -22.42391281 38.62793226 75.96420706
v -22.42391281 46.54809413 74.85333613
v -28.05185806 46.54904483 74.48220539
v -29.05155964 46.31640638 74.48220539
v -29.58432135 46.04198779 75.48198744
v -32.93002936 43.30444483 76.15356331
v -32.93002936 43.54563064 75.48198744
v -32.93002936 38.48834919 75.57540343
v -22.42391281 38.45511343 75.48198744
v -22.42391281 46.54904483 74.48220539
v -28.05185806 46.54904483 50.72217875
v -29.05155964 46.31640638 70.48054101
v -29.58432135 46.04198779 73.48242036
v -32.93002936 43.54943046 74.48220539
v -32.93002936 38.45511343 75.48198744
v -22.42391281 36.85038201 52.48442541
v -22.42391281 46.54904483 50.72217875
v -28.29149861 46.49302206 50.72217875
v -29.05155964 46.31355726 55.48377751
v -29.05155964 46.31260656 50.72217875
v -29.58226498 46.03913867 57.48334757
v -32.93002936 43.54943046 52.36071367
v -32.93002936 36.85038201 52.48442541
v -32.05169108 36.84943131 50.72217875
v -22.42391281 36.85038201 50.72217875
v -29.58123679 46.03724025 50.72217875
v -29.58123679 46.03818797 52.48442541
v -32.93002936 43.52664048 51.36093013
v -32.93002936 36.85987710 51.48464038
v -32.93002936 36.90450636 50.72217875
v -32.93002936 43.51144715 50.72217875
f 1 2 5
f 1 5 9
f 1 9 3
f 1 3 10
f 1 10 18
f 1 18 26
f 1 26 33
f 1 33 42
f 1 42 34
f 1 34 27
f 1 27 19
f 1 19 11
f 1 11 4
f 1 4 6
f 1 6 2
f 2 6 7
f 2 7 8
f 2 8 5
f 3 9 17
f 3 17 10
f 4 11 12
f 4 12 6
f 5 8 16
f 5 16 15
f 5 15 23
f 5 23 24
f 5 24 31
f 5 31 39
f 5 39 45
f 5 45 48
f 5 48 47
f 5 47 46
f 5 46 40
f 5 40 32
f 5 32 25
f 5 25 17
f 5 17 9
f 6 12 7
f 7 12 13
f 7 13 14
f 7 14 15
f 7 15 16
f 7 16 8
f 10 17 18
f 11 19 12
f 12 19 20
f 12 20 13
f 13 20 21
f 13 21 22
f 13 22 14
f 14 23 15
f 14 22 24
f 14 24 23
f 17 25 18
f 18 25 26
f 19 27 20
f 20 27 34
f 20 34 28
f 20 28 29
f 20 29 21
f 21 29 30
f 21 30 22
f 22 30 39
f 22 39 31
f 22 31 24
f 25 32 26
f 26 32 40
f 26 40 33
f 28 34 42
f 28 42 41
f 28 41 47
f 28 47 48
f 28 48 43
f 28 43 37
f 28 37 35
f 28 35 29
f 29 35 36
f 29 36 30
f 30 36 37
f 30 37 38
f 30 38 39
f 33 40 41
f 33 41 42
f 35 37 36
f 37 43 44
f 37 44 38
f 38 44 39
f 39 44 43
f 39 43 45
f 40 46 41
f 41 46 47
f 43 48 45

