# https://github.com/mikedh/trimesh
v -29.48104669 39.55191161 38.08782202
v -29.48104669 39.55191161 37.48177368
v -32.10860048 39.73752466 34.42667038
v -33.13034251 39.73752466 35.40359874
v -33.97254673 39.73752466 35.40359874
v -35.05207882 39.54970324 38.08782202
v -29.48104669 36.15015102 38.08782202
v -32.10860048 39.73752466 33.53676388
v -29.48104669 39.54970324 27.50425543
v -34.49035205 39.73752466 34.78822707
v -35.65695517 39.51103448 38.08782202
v -29.48104669 35.51376894 34.47950522
v -35.05207882 36.15015102 38.08782202
v -35.05207882 29.50130193 36.50484495
v -31.31416969 28.90579997 36.05005035
v -30.51280535 29.81507177 36.01793516
v -29.55039566 32.99034515 35.00681884
v -32.23188753 39.73752466 30.48269622
v -35.05207882 39.54970324 27.50425543
v -33.81381406 39.73752466 29.18875793
v -32.92768987 39.73752466 29.37005409
v -32.37597972 39.73752466 29.96988637
v -29.48104669 36.56445965 27.50425543
v -34.53966627 39.73752466 34.48157724
v -36.05224532 39.48562485 38.08782202
v -29.48104669 35.51266625 34.37694321
v -29.54885487 32.98481976 34.48157724
v -36.05224532 36.20428729 38.08782202
v -35.80412894 28.81741464 36.17540346
v -35.05207882 28.78537396 36.21787875
v -32.05235121 28.85829178 36.08320118
v -36.06457313 36.20870701 38.08782202
v -36.84205225 36.62301563 38.08782202
v -32.05235121 28.59423850 35.48233327
v -31.00903513 28.82625109 35.42742660
v -30.64687942 29.14775766 35.72475290
v -30.46888389 29.48914847 35.42742660
v -30.54439751 28.98755721 35.05758184
v -29.90330514 31.50103888 34.48157724
v -29.66520687 32.48433418 34.48157724
v -35.07365435 39.54859757 27.50425543
v -34.10662080 39.73752466 29.18875793
v -29.48104669 35.63419495 28.89557567
v -29.55039566 32.99034515 28.97431020
v -30.47813012 29.50130193 28.80855363
v -31.05295659 29.50130193 28.37344210
v -30.42419204 32.78705622 27.91139506
v -32.05235121 29.50130193 28.11548344
v -30.04431426 36.36006803 27.50425543
v -34.78007721 39.73752466 30.48269622
v -36.05224532 39.48672754 36.48205347
v -36.45986179 39.31989901 38.08782202
v -29.48104669 35.57564195 29.48297620
v -29.54885487 32.98481976 29.48297620
v -35.95592657 28.72571230 35.48233327
v -35.05207882 28.51026991 35.48233327
v -36.10310034 29.57642812 36.23031087
v -36.56080441 29.96091039 35.99203528
v -36.45600982 29.31237484 35.48233327
v -36.97689671 37.50024973 38.08782202
v -37.15181067 32.50090736 35.48233327
v -32.05235121 28.52905443 34.48157724
v -31.05295659 28.70582508 34.48157724
v -30.54054404 28.98092913 34.48157724
v -30.40338690 29.50130193 34.48157724
v -30.15296082 30.50117041 34.48157724
v -29.90330514 31.50103888 29.48297620
v -29.66520687 32.48433418 29.48297620
v -36.05224532 39.48783322 27.50425543
v -34.54660132 39.73752466 29.48194019
v -30.54439751 28.98755721 28.95773441
v -31.05295659 28.85387206 28.75364622
v -32.05235121 28.72571230 28.56198996
v -31.05295659 30.50117041 28.17246212
v -31.12384635 36.29598666 27.50425543
v -34.05191232 29.50130193 28.12377077
v -36.00986465 36.46723490 27.50425543
v -35.05207882 36.42525209 27.50425543
v -31.13463337 36.29598666 27.50425543
v -36.05224532 39.48783322 30.48269622
v -36.72801143 39.21273214 30.48269622
v -36.72724103 39.21162647 35.48233327
v -36.72492985 39.21162647 38.08782202
v -35.97981328 28.72460663 34.48157724
v -35.05207882 28.45171392 32.48317274
v -36.47989653 29.18863479 34.48157724
v -32.05235121 28.45503094 32.48317274
v -36.95763386 31.50103888 35.48233327
v -36.75497972 30.50117041 35.48233327
v -36.59855973 29.81286340 35.48233327
v -36.63092377 29.68912038 34.48157724
v -36.93605833 38.50011821 38.08782202
v -37.23734091 37.50024973 35.48233327
v -37.26276842 36.49927558 35.48233327
v -37.22038924 33.50077583 35.48233327
v -37.31285452 32.50090736 34.48157724
v -31.05295659 28.70582508 29.48297620
v -30.54054404 28.98092913 29.48297620
v -30.40338690 29.50130193 29.48297620
v -30.15296082 30.50117041 29.48297620
v -36.72647064 39.21273214 27.50425543
v -36.72724103 39.21273214 28.48325543
v -36.72801143 39.21273214 29.48297620
v -32.05235121 28.50253615 29.48297620
v -35.05207882 28.48044057 29.48297620
v -35.05207882 28.72129259 28.59824919
v -34.05191232 28.73786577 28.56820602
v -35.05207882 29.50130193 28.18800190
v -36.67869720 36.73570789 27.50425543
v -36.05224532 36.46944625 27.50425543
v -36.72878182 39.21162647 31.48241652
v -37.03314747 38.50011821 31.48241652
v -37.02621243 38.50011821 32.48317274
v -37.00463690 38.50011821 35.48233327
v -35.97750210 28.72239826 33.48185703
v -35.97210784 28.71908422 31.48241652
v -35.96440240 28.72018691 29.48297620
v -36.47758535 29.19747422 33.48185703
v -36.62013526 29.73552289 29.48297620
v -37.08631516 31.50103888 34.48157724
v -36.83588760 30.50117041 34.48157724
v -37.07475626 31.50103888 29.48297620
v -37.28126237 37.50024973 32.48317274
v -37.32826541 36.49927558 32.48317274
v -37.35292252 33.50077583 32.48317274
v -37.31670650 32.50090736 32.48317274
v -36.91756586 38.50011821 27.50425543
v -36.97766711 38.50011821 28.48325543
v -37.00232571 38.50011821 29.48297620
v -35.82724526 28.81078358 28.75053856
v -36.11697043 29.49577655 28.63865246
v -36.05224532 30.50117041 28.37344210
v -36.71183015 36.75670078 27.50425543
v -37.28896781 37.50024973 31.48241652
v -36.47219109 29.21736144 31.48241652
v -36.46448565 29.23503731 29.48297620
v -36.59701894 29.82611956 28.89143163
v -37.08554328 31.50103888 33.48185703
v -37.31516571 32.50090736 31.48241652
v -37.30206750 32.50090736 29.48297620
v -37.23965209 37.50024973 29.48297620
v -36.89984231 37.50024973 27.50425543
v -37.14179404 37.50024973 28.48325543
v -36.68409146 30.50117041 28.76193430
v -36.81354167 31.50103888 28.64176086
v -36.92449942 32.50090736 28.60239323
f 1 2 8
f 1 8 3
f 1 3 4
f 1 4 5
f 1 5 6
f 1 6 11
f 1 11 25
f 1 25 52
f 1 52 83
f 1 83 92
f 1 92 60
f 1 60 33
f 1 33 32
f 1 32 28
f 1 28 13
f 1 13 7
f 1 7 12
f 1 12 26
f 1 26 53
f 1 53 43
f 1 43 23
f 1 23 9
f 1 9 2
f 2 9 8
f 3 8 18
f 3 18 22
f 3 22 21
f 3 21 20
f 3 20 42
f 3 42 70
f 3 70 50
f 3 50 24
f 3 24 10
f 3 10 5
f 3 5 4
f 5 10 6
f 6 10 11
f 7 13 14
f 7 14 15
f 7 15 16
f 7 16 17
f 7 17 12
f 8 9 18
f 9 19 42
f 9 42 20
f 9 20 21
f 9 21 22
f 9 22 18
f 9 23 49
f 9 49 75
f 9 75 79
f 9 79 78
f 9 78 77
f 9 77 110
f 9 110 109
f 9 109 133
f 9 133 142
f 9 142 127
f 9 127 101
f 9 101 69
f 9 69 41
f 9 41 19
f 10 24 25
f 10 25 11
f 12 17 27
f 12 27 26
f 13 28 14
f 14 29 30
f 14 30 31
f 14 31 15
f 14 28 32
f 14 32 33
f 14 33 29
f 15 31 34
f 15 34 35
f 15 35 36
f 15 36 16
f 16 36 37
f 16 37 17
f 17 37 38
f 17 38 39
f 17 39 40
f 17 40 27
f 19 41 42
f 23 43 44
f 23 44 45
f 23 45 46
f 23 46 47
f 23 47 48
f 23 48 49
f 24 50 25
f 25 50 51
f 25 51 52
f 26 27 54
f 26 54 53
f 27 40 68
f 27 68 54
f 29 55 56
f 29 56 30
f 29 33 57
f 29 57 58
f 29 58 59
f 29 59 55
f 30 56 34
f 30 34 31
f 33 60 61
f 33 61 58
f 33 58 57
f 34 56 62
f 34 62 63
f 34 63 35
f 35 38 36
f 35 63 38
f 36 38 37
f 38 63 64
f 38 64 65
f 38 65 66
f 38 66 39
f 39 66 100
f 39 100 67
f 39 67 68
f 39 68 40
f 41 69 70
f 41 70 42
f 43 53 54
f 43 54 44
f 44 54 68
f 44 68 67
f 44 67 71
f 44 71 45
f 45 71 46
f 46 71 72
f 46 72 73
f 46 73 48
f 46 48 74
f 46 74 47
f 47 74 48
f 48 75 49
f 48 73 76
f 48 76 77
f 48 77 78
f 48 78 79
f 48 79 75
f 50 70 69
f 50 69 80
f 50 80 51
f 51 80 81
f 51 81 82
f 51 82 52
f 52 82 83
f 55 84 85
f 55 85 56
f 55 59 86
f 55 86 84
f 56 85 87
f 56 87 62
f 58 61 88
f 58 88 89
f 58 89 90
f 58 90 59
f 59 90 91
f 59 91 86
f 60 92 93
f 60 93 94
f 60 94 95
f 60 95 61
f 61 95 96
f 61 96 88
f 62 87 63
f 63 87 97
f 63 97 98
f 63 98 64
f 64 98 99
f 64 99 65
f 65 99 100
f 65 100 66
f 67 100 71
f 69 101 102
f 69 102 103
f 69 103 81
f 69 81 80
f 71 98 97
f 71 97 72
f 71 100 99
f 71 99 98
f 72 97 104
f 72 104 73
f 73 104 105
f 73 105 106
f 73 106 107
f 73 107 76
f 76 107 106
f 76 106 108
f 76 108 109
f 76 109 110
f 76 110 77
f 81 103 111
f 81 111 82
f 82 111 112
f 82 112 83
f 83 112 113
f 83 113 114
f 83 114 92
f 84 115 85
f 84 86 115
f 85 105 87
f 85 115 116
f 85 116 117
f 85 117 105
f 86 118 117
f 86 117 116
f 86 116 115
f 86 91 119
f 86 119 118
f 87 105 104
f 87 104 97
f 88 96 89
f 89 96 120
f 89 120 90
f 90 120 121
f 90 121 91
f 91 121 122
f 91 122 119
f 92 114 93
f 93 114 123
f 93 123 124
f 93 124 94
f 94 124 125
f 94 125 96
f 94 96 95
f 96 125 126
f 96 126 120
f 101 127 128
f 101 128 129
f 101 129 112
f 101 112 102
f 102 112 103
f 103 112 111
f 105 117 130
f 105 130 106
f 106 130 108
f 108 130 131
f 108 131 132
f 108 132 133
f 108 133 109
f 112 129 134
f 112 134 113
f 113 134 114
f 114 134 123
f 117 118 135
f 117 135 136
f 117 136 130
f 118 119 135
f 119 122 137
f 119 137 136
f 119 136 135
f 120 126 138
f 120 138 121
f 121 138 122
f 122 138 139
f 122 139 140
f 122 140 137
f 123 134 124
f 124 134 141
f 124 141 140
f 124 140 125
f 125 140 139
f 125 139 126
f 126 139 138
f 127 142 140
f 127 140 143
f 127 143 141
f 127 141 128
f 128 141 134
f 128 134 129
f 130 136 137
f 130 137 131
f 131 137 144
f 131 144 132
f 132 144 133
f 133 144 145
f 133 145 142
f 137 140 144
f 140 146 145
f 140 145 144
f 140 141 143
f 140 142 146
f 142 145 146

