# https://github.com/mikedh/trimesh
v 1.56782616 7.51663730 -5.51627593
v 1.56782616 7.51850219 -6.53126620
v 3.03379407 8.93579887 -5.51627593
v 3.03379407 8.93579887 5.48058749
v 1.56782616 7.51850219 6.48176727
v 1.56782616 7.52223123 -7.51633475
v 1.56782616 7.54460994 -9.51639356
v 1.56782616 7.56139397 -10.51757335
v 3.03379407 8.96004173 -6.35174478
v 3.03379407 8.96377151 6.40581556
v 1.56782616 7.54833972 10.43354970
v 1.56782616 7.52782591 8.45420512
v 1.56782616 7.52223123 7.48064482
v 1.56782616 8.29615043 -11.37145122
v 3.03379407 9.52136617 -7.27236837
v 3.03379407 9.36471743 -7.07443495
v 3.03379407 9.05887954 -6.60031267
v 3.03379407 8.96377151 -6.42999725
v 3.03379407 9.10550110 6.83620861
v 1.56782616 7.73669088 11.14013011
v 1.56782616 7.55952908 10.48188193
v 1.56782616 8.50128488 -11.42669018
v 1.72611925 9.50085235 -11.45660893
v 2.11862286 9.50085235 -10.51757335
v 3.03379407 9.60901462 -7.34601933
v 3.03379407 9.58477102 7.31953539
v 2.12909845 9.50085235 10.48188193
v 1.56782616 8.37074464 11.44623772
v 1.56782616 9.50085235 -11.69136931
v 2.23486758 10.50041982 -10.51757335
v 1.78424160 10.50041982 -11.47502092
v 3.03379407 10.46685175 -7.55085798
v 3.03379407 10.50041982 7.53818304
v 2.24376512 10.50041982 10.48188193
v 1.73673937 9.50085235 11.44623772
v 1.56782616 8.98615022 11.67409137
v 1.56782616 10.50041982 -11.74890605
v 2.23601497 14.50055384 -10.51757335
v 3.03379407 19.46295600 -7.57387447
v 3.03379407 18.45966023 -7.57157073
v 3.03379407 11.44777030 -7.55545949
v 3.03379407 10.50041982 -7.55315874
v 1.78467225 12.50141890 -11.47502092
v 3.03379407 11.50185144 7.54048678
v 2.24462492 12.50141890 10.48188193
v 1.79328220 11.50185144 11.46004523
v 1.79270850 10.50041982 11.46004523
v 3.03379407 19.49838821 7.55659653
v 1.56782616 9.90739295 11.74774084
v 1.56782616 26.04965492 -11.75120979
v 1.78510141 15.50198546 -11.47502092
v 1.78495835 14.50055384 -11.47502092
v 2.23615803 18.49882223 -10.51757335
v 3.03379407 19.49838821 -7.57387447
v 2.24520011 14.50055384 10.48188193
v 1.56782616 10.89763521 11.76155133
v 2.24563076 17.49925476 10.48188193
v 1.79486024 16.50155293 11.45774448
v 1.79500478 18.49882223 11.45774448
v 1.56782616 10.50041982 11.75924909
v 3.03379407 19.53382042 7.55659653
v 1.56782616 26.56622194 -11.74890605
v 1.75840878 26.56622194 -11.50954416
v 1.78510141 26.56622194 -11.47502092
v 2.23615803 26.56622194 -10.51757335
v 3.03379407 26.56249364 -7.55776323
v 1.56782616 21.89846833 11.75924909
v 1.79486024 20.49982132 11.45774448
v 1.79471719 21.49938879 11.45774448
v 2.24563076 18.49882223 10.48188193
v 3.03379407 26.56622194 7.55199353
v 2.24534316 20.49982132 10.48188193
v 1.56782616 26.56622194 11.75694684
v 2.97638996 26.56622194 -7.58538122
v 3.03379407 26.56622194 -6.67396363
v 1.79414349 24.49995385 11.45774448
v 1.79371284 26.56622194 11.45774448
v 2.24390817 26.56622194 10.48188193
v 2.24448187 24.49995385 10.48188193
f 1 2 3
f 1 3 4
f 1 4 5
f 1 5 13
f 1 13 12
f 1 12 11
f 1 11 21
f 1 21 20
f 1 20 28
f 1 28 36
f 1 36 49
f 1 49 60
f 1 60 56
f 1 56 67
f 1 67 73
f 1 73 62
f 1 62 50
f 1 50 37
f 1 37 29
f 1 29 22
f 1 22 14
f 1 14 8
f 1 8 7
f 1 7 6
f 1 6 2
f 2 6 3
f 3 6 7
f 3 7 8
f 3 8 9
f 3 9 18
f 3 18 17
f 3 17 16
f 3 16 15
f 3 15 25
f 3 25 32
f 3 32 42
f 3 42 41
f 3 41 40
f 3 40 39
f 3 39 54
f 3 54 66
f 3 66 75
f 3 75 71
f 3 71 61
f 3 61 48
f 3 48 44
f 3 44 33
f 3 33 26
f 3 26 19
f 3 19 10
f 3 10 4
f 4 10 11
f 4 11 12
f 4 12 13
f 4 13 5
f 8 14 15
f 8 15 16
f 8 16 17
f 8 17 18
f 8 18 9
f 10 19 20
f 10 20 21
f 10 21 11
f 14 22 23
f 14 23 24
f 14 24 15
f 15 24 25
f 19 26 20
f 20 27 28
f 20 26 27
f 22 29 23
f 23 30 24
f 23 29 31
f 23 31 30
f 24 30 25
f 25 30 32
f 26 33 34
f 26 34 27
f 27 34 35
f 27 35 36
f 27 36 28
f 29 37 31
f 30 31 38
f 30 38 39
f 30 39 40
f 30 40 41
f 30 41 42
f 30 42 32
f 31 37 43
f 31 43 38
f 33 44 34
f 34 45 46
f 34 46 47
f 34 47 35
f 34 44 48
f 34 48 45
f 35 47 36
f 36 47 49
f 37 50 51
f 37 51 52
f 37 52 43
f 38 43 52
f 38 52 51
f 38 51 53
f 38 53 39
f 39 53 65
f 39 65 54
f 45 55 46
f 45 48 55
f 46 56 47
f 46 55 57
f 46 57 58
f 46 58 59
f 46 59 56
f 47 56 60
f 47 60 49
f 48 61 70
f 48 70 57
f 48 57 55
f 50 62 63
f 50 63 51
f 51 63 64
f 51 64 65
f 51 65 53
f 54 65 66
f 56 59 68
f 56 68 69
f 56 69 67
f 57 70 59
f 57 59 58
f 59 70 68
f 61 71 72
f 61 72 70
f 62 73 77
f 62 77 78
f 62 78 71
f 62 71 75
f 62 75 74
f 62 74 65
f 62 65 64
f 62 64 63
f 65 74 66
f 66 74 75
f 67 69 76
f 67 76 77
f 67 77 73
f 68 70 72
f 68 72 69
f 69 72 76
f 71 78 79
f 71 79 72
f 72 79 77
f 72 77 76
f 77 79 78

