# https://github.com/mikedh/trimesh
v -1.05189106 26.56808758 -12.54747641
v -3.30213380 39.49804058 -12.55000366
v -3.05137319 42.49812880 -12.55000366
v -1.05189106 49.49833168 -12.54747641
v -0.05104953 26.56808758 -12.50456078
v -1.11898099 26.56808758 -12.53990359
v -3.30213380 42.49812880 -12.55000366
v -2.05163287 26.56808758 -12.41872953
v -2.09232597 26.56808758 -12.40105664
v -2.65103748 26.56808758 -12.15365403
v -3.30213380 38.74919274 -12.49446369
v -2.05163287 49.49833168 -12.37076238
v -2.05163287 50.15093229 -12.16879967
v -1.05189106 50.27065496 -12.28240388
v -0.05104953 50.25657029 -12.26220672
v -0.05104953 49.49833168 -12.50456078
v 0.89149977 28.50241694 -12.23948528
v 0.82661075 26.56808758 -12.25715817
v -3.30213380 43.44651343 -12.28492816
v -2.61474323 49.49833168 -12.10316261
v -2.75112178 26.56808758 -11.51747759
v -3.30213380 37.78907188 -12.26978252
v -2.56964978 50.02182183 -12.04257409
v -2.05163287 50.30586961 -11.51747759
v -1.05189106 50.54530899 -11.51747759
v -0.05104953 50.53122432 -11.51747759
v 0.74082420 50.16266852 -12.16627838
v 0.88710091 49.49833168 -12.23948528
v 0.88820063 48.49830227 -12.23948528
v 0.89149977 39.49804058 -12.23948528
v 1.39192127 31.50250219 -11.97441573
v 1.39082156 26.56808758 -11.97441573
v 0.89149977 26.56808758 -12.23696399
v -3.30213380 43.76811835 -11.51747759
v -2.67743357 49.49833168 -11.51747759
v -3.30213380 37.34070196 -11.51747759
v -3.30213380 37.69517309 -12.19909691
v -2.76321937 26.56808758 -8.51583665
v -2.57844898 50.03355806 -11.51747759
v -2.05163287 50.30821209 -10.51777303
v -1.05189106 50.54765743 -10.51777303
v 0.94869079 50.54765743 -10.51777303
v 1.02457843 50.31760585 -11.59573900
v 1.66577660 50.18145007 -11.31551785
v 1.38752093 49.49833168 -11.96936421
v 1.38862065 47.49827286 -11.97188848
v 1.39082156 40.49806999 -11.97441573
v 1.39192127 37.50033020 -11.97441573
v 6.55450097 36.50264923 -6.18066642
v 6.55340126 31.50250219 -6.18066642
v 6.55230155 26.56808758 -6.17814214
v -3.30213380 43.77046679 -11.45941334
v -2.57954869 50.03355806 -10.51777303
v -3.30213380 43.78220302 -10.51777303
v -2.67743357 49.49833168 2.48092246
v -3.30213380 37.31018418 -10.53039439
v -2.76321937 26.56808758 8.54984139
v -3.30213380 36.64349890 11.58429937
v -2.05163287 50.30821209 5.48003912
v 2.94707322 50.55000587 -5.51671999
v -1.05189106 50.54765743 11.48079523
v 4.94765656 50.55000587 -5.51671999
v 7.93258276 50.55000587 -2.51760631
v 7.93258276 50.54530899 -3.51731087
v 7.93258276 50.27065496 -4.29233425
v 6.51380713 50.08754830 -6.12007790
v 6.54790121 49.49833168 -6.17309360
v 6.54790121 48.49830227 -6.17561787
v 6.55010212 45.49821703 -6.17814214
v 6.55230155 41.49809939 -6.18066642
v 6.55340126 40.49806999 -6.18066642
v 7.93258276 49.49833168 -4.56498258
v 7.93258276 26.56808758 -4.56498258
v -2.57954869 50.03355806 -2.51760631
v -3.30213380 43.78220302 3.49072411
v -3.30213380 43.77985458 10.49118776
v -2.67633311 49.49833168 10.48108918
v -2.75222149 26.56808758 11.48079523
v -3.30213380 36.68575291 12.46787694
v -2.57844898 50.03355806 4.48033158
v -2.05163287 50.30586961 11.48079523
v 2.94707322 50.55000587 5.48003912
v -2.05163287 50.15328073 12.13969162
v -1.05189106 50.27300340 12.26086866
v -0.05104953 50.53357276 11.48079523
v 0.94869079 50.54765743 10.48108918
v 4.94765656 50.55000587 5.48003912
v 7.93258276 50.55000587 3.48062702
v 6.55120183 44.49818762 -6.17814214
v 7.93258276 26.56808758 4.56364154
v -3.30213380 43.77046679 11.53128517
v -2.67523340 49.49833168 11.48079523
v -2.57734926 50.03120962 11.48079523
v -2.74562247 26.56808758 11.52371235
v -3.30213380 36.87589893 13.23785327
v -3.30213380 36.86650816 13.23027896
v -3.30213380 36.84538115 13.20755901
v -2.56855007 50.01947339 12.00589322
v -2.05163287 49.49833168 12.35427570
v -1.05189106 49.49833168 12.54361407
v -0.05104953 50.25891873 12.23814722
v 0.75402225 50.16266852 12.13716735
v 1.03227791 50.31760585 11.56662797
v 7.93258276 50.54530899 3.49577564
v 7.93258276 48.49830227 4.56364154
v 6.56000103 34.50259041 6.15913119
v 6.55889982 26.56808758 6.15408264
v -3.30213380 43.68360735 12.73295095
v -3.30213380 43.59205700 13.23785327
v -2.65213719 26.56808758 12.12706877
v -2.10222413 38.58486762 13.23785327
v -2.05163287 26.56808758 12.40981418
v -1.98344322 26.56808758 12.41991277
v -1.05189106 26.56808758 12.54866262
v -0.05104953 26.56808758 12.49817119
v -3.04477492 43.59205700 13.23785327
v -2.70822851 43.53806378 13.23785327
v -2.11212304 43.35026620 13.23785327
v -0.05104953 49.49833168 12.49564692
v 0.90799695 49.49833168 12.21290151
v 1.40731874 49.49833168 11.95035325
v 1.66467689 50.18145007 11.29145686
v 7.93258276 50.27535184 4.26827475
v 7.93258276 49.49833168 4.55859299
v 6.55670040 49.49833168 6.15660692
v 6.55780011 44.49818762 6.15913119
v 6.55889982 42.49812880 6.15913119
v 6.56000103 36.50264923 6.15913119
v 1.41611645 26.56808758 11.95792607
v -1.92185334 38.87126385 13.23785327
v 0.01383949 26.56808758 12.48050128
v -1.36094166 40.49806999 13.23785327
v -1.49622050 39.75391605 13.23785327
v -1.64029779 39.32667611 13.23785327
v -1.45882654 42.50986503 13.23785327
v 0.90799695 47.49827286 12.21542578
v 1.40841846 48.49830227 11.95287753
v -1.36094166 41.49809939 13.23785327
v 6.52040689 50.09694205 6.09854267
v 7.93258276 50.25891873 4.27584757
v 1.41611645 28.50241694 11.95792607
v 0.91679614 26.56808758 12.21542578
v 0.90909815 46.49824644 12.21542578
v 0.91239729 38.50035961 12.21542578
f 1 2 3
f 1 3 4
f 1 4 16
f 1 16 5
f 1 5 18
f 1 18 33
f 1 33 32
f 1 32 51
f 1 51 73
f 1 73 90
f 1 90 107
f 1 107 129
f 1 129 142
f 1 142 131
f 1 131 115
f 1 115 114
f 1 114 113
f 1 113 112
f 1 112 110
f 1 110 94
f 1 94 78
f 1 78 57
f 1 57 38
f 1 38 21
f 1 21 10
f 1 10 9
f 1 9 8
f 1 8 6
f 1 6 2
f 2 7 3
f 2 6 8
f 2 8 9
f 2 9 10
f 2 10 11
f 2 11 22
f 2 22 37
f 2 37 36
f 2 36 56
f 2 56 58
f 2 58 79
f 2 79 97
f 2 97 96
f 2 96 95
f 2 95 109
f 2 109 108
f 2 108 91
f 2 91 76
f 2 76 75
f 2 75 54
f 2 54 52
f 2 52 34
f 2 34 19
f 2 19 7
f 3 7 4
f 4 7 12
f 4 12 13
f 4 13 14
f 4 14 15
f 4 15 16
f 5 16 30
f 5 30 17
f 5 17 18
f 7 19 20
f 7 20 12
f 10 21 22
f 10 22 11
f 12 20 23
f 12 23 13
f 13 23 24
f 13 24 25
f 13 25 14
f 14 25 26
f 14 26 15
f 15 26 27
f 15 27 16
f 16 27 28
f 16 28 29
f 16 29 30
f 17 30 48
f 17 48 31
f 17 31 32
f 17 32 33
f 17 33 18
f 19 34 35
f 19 35 23
f 19 23 20
f 21 36 37
f 21 37 22
f 21 38 36
f 23 35 39
f 23 39 24
f 24 39 40
f 24 40 41
f 24 41 25
f 25 41 42
f 25 42 26
f 26 43 27
f 26 42 43
f 27 43 44
f 27 44 45
f 27 45 28
f 28 45 46
f 28 46 29
f 29 46 47
f 29 47 48
f 29 48 30
f 31 48 49
f 31 49 50
f 31 50 32
f 32 50 51
f 34 52 35
f 35 53 39
f 35 52 54
f 35 54 75
f 35 75 55
f 35 55 74
f 35 74 53
f 36 38 56
f 38 57 58
f 38 58 56
f 39 53 40
f 40 53 74
f 40 74 59
f 40 59 61
f 40 61 41
f 41 60 62
f 41 62 42
f 41 61 82
f 41 82 60
f 42 62 63
f 42 63 64
f 42 64 43
f 43 64 44
f 44 64 65
f 44 65 66
f 44 66 45
f 45 66 67
f 45 67 68
f 45 68 46
f 46 68 69
f 46 69 70
f 46 70 71
f 46 71 47
f 47 71 48
f 48 71 49
f 49 71 72
f 49 72 73
f 49 73 50
f 50 73 51
f 55 75 76
f 55 76 77
f 55 77 74
f 57 78 79
f 57 79 58
f 59 80 81
f 59 81 61
f 59 74 80
f 60 82 87
f 60 87 88
f 60 88 63
f 60 63 62
f 61 81 83
f 61 83 84
f 61 84 85
f 61 85 86
f 61 86 87
f 61 87 82
f 63 88 104
f 63 104 123
f 63 123 140
f 63 140 124
f 63 124 105
f 63 105 90
f 63 90 73
f 63 73 72
f 63 72 65
f 63 65 64
f 65 72 66
f 66 72 67
f 67 72 68
f 68 72 69
f 69 72 89
f 69 89 71
f 69 71 70
f 71 89 72
f 74 77 80
f 76 91 77
f 77 91 92
f 77 92 93
f 77 93 80
f 78 94 95
f 78 95 96
f 78 96 97
f 78 97 79
f 80 93 81
f 81 93 98
f 81 98 83
f 83 98 99
f 83 99 100
f 83 100 84
f 84 101 85
f 84 100 101
f 85 101 102
f 85 102 103
f 85 103 86
f 86 103 88
f 86 88 87
f 88 103 104
f 90 105 128
f 90 128 106
f 90 106 107
f 91 108 92
f 92 108 109
f 92 109 98
f 92 98 93
f 94 110 95
f 95 111 130
f 95 130 134
f 95 134 133
f 95 133 132
f 95 132 138
f 95 138 135
f 95 135 118
f 95 118 117
f 95 117 116
f 95 116 109
f 95 110 112
f 95 112 113
f 95 113 114
f 95 114 115
f 95 115 111
f 98 109 99
f 99 109 100
f 100 109 116
f 100 116 117
f 100 117 118
f 100 118 119
f 100 119 101
f 101 119 102
f 102 119 120
f 102 120 121
f 102 121 122
f 102 122 103
f 103 122 104
f 104 122 123
f 105 124 125
f 105 125 126
f 105 126 127
f 105 127 128
f 106 128 141
f 106 141 129
f 106 129 107
f 111 115 130
f 115 131 132
f 115 132 133
f 115 133 134
f 115 134 130
f 118 135 119
f 119 135 120
f 120 136 137
f 120 137 121
f 120 135 138
f 120 138 136
f 121 137 125
f 121 125 139
f 121 139 122
f 122 139 123
f 123 139 140
f 124 140 139
f 124 139 125
f 125 137 126
f 126 137 141
f 126 141 127
f 127 141 128
f 129 141 142
f 131 142 132
f 132 142 138
f 136 143 137
f 136 138 143
f 137 143 141
f 138 142 144
f 138 144 143
f 141 143 144
f 141 144 142

