# https://github.com/mikedh/trimesh
v -32.02170826 -43.55008757 70.48034729
v -32.02170826 -43.55008757 71.51008385
v -43.05190877 -43.54847824 70.48034729
v -42.05192705 -43.54847824 60.48162380
v -33.05331790 -43.54847824 41.44869057
v -32.05333767 -43.54847824 41.44869057
v -32.02170826 -43.54847824 41.45212233
v -32.02170826 -43.54847824 74.51004392
v -43.05190877 -43.54847824 74.48258388
v -43.92902068 -43.27360665 70.48034729
v -43.93023663 -43.27200029 64.48042714
v -43.05190877 -43.54687188 64.48042714
v -43.05190877 -43.54526553 62.47930736
v -43.05190877 -43.52276165 61.48046707
v -33.08373137 -43.54044348 41.44869057
v -32.02170826 -42.71743506 41.44869057
v -32.02170826 -43.54526553 75.48142715
v -43.05190877 -43.54526553 75.48142715
v -43.92780474 -43.27360665 74.48258388
v -43.92902068 -43.27360665 71.48262381
v -44.37791811 -42.49882168 63.48158387
v -43.93023663 -43.27039393 63.48158387
v -43.92902068 -43.27039393 62.47930736
v -44.37791811 -42.49882168 66.48154395
v -43.84507891 -43.24789005 61.48046707
v -42.88037741 -43.24949641 59.47934728
v -33.98517406 -43.27360665 41.44869057
v -32.02170826 -32.48608504 41.44869057
v -32.02170826 -43.53722779 75.50545394
v -43.05190877 -43.27039393 76.24686307
v -43.77574038 -43.18037543 76.15761943
v -43.90712179 -43.27200029 75.48142715
v -44.37548324 -42.49882168 74.48258388
v -44.37669919 -42.49882168 72.48146708
v -44.44847557 -41.49899493 63.48158387
v -44.37426730 -42.49882168 62.47930736
v -44.44847557 -41.49899493 68.47923048
v -44.44725963 -41.49899493 74.48258388
v -44.17232545 -42.49882168 61.48046707
v -43.69301455 -43.14983381 60.69786788
v -36.69436737 -43.14983381 46.70033807
v -34.69440541 -43.14983381 42.70153472
v -34.43163811 -42.52614761 41.44869057
v -32.05333767 -29.39980198 41.44869057
v -32.02170826 -29.39980198 41.45555409
v -32.02170826 -43.27039393 76.24686307
v -43.05190877 -42.49882168 76.51116371
v -43.90347397 -42.49882168 76.24686307
v -44.31465929 -42.49882168 75.48142715
v -44.44969151 -29.50107093 63.48158387
v -44.44847557 -27.50141445 62.47930736
v -44.44360882 -27.12848960 61.48046707
v -44.44117693 -41.49899493 62.47930736
v -44.44847557 -40.49916818 69.48150700
v -44.36696867 -41.49899493 75.48142715
v -44.36940055 -37.49968792 75.48142715
v -44.37061649 -34.50020469 75.48142715
v -44.37183542 -30.50089768 75.48142715
v -44.44847557 -30.50089768 74.48258388
v -44.44847557 -36.49985819 71.48262381
v -44.20517080 -41.49899493 61.48046707
v -44.14069604 -27.12848960 59.47934728
v -43.76843876 -27.12848960 58.48393726
v -43.76357499 -42.49882168 60.55713742
v -34.44745132 -42.49882168 41.44869057
v -33.26134394 -28.76968439 41.44869057
v -32.02170826 -28.97704434 42.90748055
v -32.02170826 -42.49882168 76.51116371
v -43.92293799 -33.50037794 76.24686307
v -43.92050312 -39.49934142 76.24686307
v -43.91928718 -41.49899493 76.24686307
v -43.05190877 -29.50107093 76.51116371
v -44.44847557 -27.12848960 69.48150700
v -44.44847557 -27.12848960 62.47930736
v -44.44847557 -29.50107093 74.48258388
v -44.44847557 -27.50141445 71.48262381
v -44.37548324 -27.12848960 60.48162380
v -43.92293799 -31.50072443 76.24686307
v -43.92293799 -30.50089768 76.24342982
v -43.91928718 -29.50107093 76.24342982
v -44.36696867 -29.50107093 75.48142715
v -43.69544942 -27.12848960 58.35350357
v -34.42312204 -29.50107093 41.44869057
v -34.46813278 -30.50089768 41.44869057
v -34.47299804 -31.53448175 41.44869057
v -34.47664885 -32.50055119 41.44869057
v -34.47664885 -41.49899493 41.44869057
v -33.96570854 -28.76807803 41.44869057
v -34.05329814 -28.51249463 43.48413242
v -36.42308251 -27.12848960 56.80546846
v -36.31359551 -27.12848960 57.23795663
v -32.02170826 -28.94650272 48.90053866
v -36.27588341 -27.12848960 57.48509399
v -36.26006870 -27.12848960 58.11323270
v -32.02170826 -32.50055119 76.51116371
v -42.05192705 -28.68127522 76.24686307
v -43.05190877 -28.68288456 76.24686307
v -43.79398548 -28.78897556 76.15761943
v -35.05327986 -29.50107093 76.51116371
v -44.44360882 -27.12848960 70.48034729
v -44.44117693 -28.50124120 73.48030736
v -44.39981402 -27.50141445 72.48146708
v -43.95821821 -28.47391825 75.47113038
v -44.31952306 -28.50124120 74.48258388
v -43.47647543 -27.12848960 58.05144910
v -41.84390250 -27.12848960 56.73338810
v -41.40473858 -27.12848960 56.55146757
v -41.05194831 -27.12848960 56.47938721
v -40.42300493 -27.12848960 56.43133214
v -40.05196658 -27.12848960 56.42446713
v -38.05322206 -27.12848960 56.39014357
v -37.42428017 -27.12848960 56.45192717
v -37.05324033 -27.12848960 56.49998075
v -36.64448987 -27.12848960 56.69219804
v -36.25763533 -27.12848960 58.48393726
v -32.02170826 -28.93525227 70.88537839
v -32.02170826 -32.47483161 76.50429721
v -33.41219236 -28.84523377 76.13359264
v -34.05329814 -29.50107093 76.47340392
v -38.05322206 -28.68127522 76.24686307
v -42.05192705 -28.18136185 75.70453475
v -43.05190877 -28.18296820 75.70453475
v -43.68815078 -27.90649026 75.12788586
v -34.05329814 -28.74878686 76.22626953
v -35.05327986 -28.72949868 76.24686307
v -37.05324033 -28.69252865 76.24686307
v -44.39008350 -27.12848960 71.48262381
v -44.22950158 -27.12848960 72.46773706
v -43.87184455 -27.69913031 74.48258388
v -44.04580780 -27.41622098 73.55925423
v -36.25763533 -27.12848960 71.10848599
v -32.02170826 -28.93525227 71.23891969
v -32.02170826 -31.62771296 76.24686307
v -32.02170826 -29.53000322 75.26518307
v -32.02170826 -29.51553707 75.25145305
v -32.02170826 -29.03008984 74.76061156
v -36.41943319 -27.12848960 73.30182009
v -37.05324033 -27.12848960 73.89906849
v -38.05322206 -28.18136185 75.70453475
v -38.05322206 -27.85666045 75.20339947
v -42.05192705 -27.39211074 74.48258388
v -43.05190877 -27.85826680 75.20339947
v -43.05190877 -27.39371709 74.48258388
v -43.05190877 -27.12848960 74.07068926
v -43.16626103 -27.12848960 74.00547539
v -43.92293799 -27.12848960 73.42539027
v -38.05322206 -27.12848960 74.07412251
v -37.05324033 -28.19261528 75.63932088
v -36.27223409 -27.12848960 72.11076251
v -32.02170826 -28.97865368 74.26290953
v -36.37442245 -27.12848960 73.09930603
v -42.05192705 -27.12848960 74.07412251
v -36.30386350 -27.12848960 72.45057379
f 1 2 9
f 1 9 3
f 1 3 4
f 1 4 5
f 1 5 6
f 1 6 7
f 1 7 16
f 1 16 28
f 1 28 45
f 1 45 67
f 1 67 92
f 1 92 116
f 1 116 132
f 1 132 150
f 1 150 136
f 1 136 135
f 1 135 134
f 1 134 133
f 1 133 117
f 1 117 95
f 1 95 68
f 1 68 46
f 1 46 29
f 1 29 17
f 1 17 8
f 1 8 2
f 2 8 9
f 3 9 20
f 3 20 10
f 3 10 11
f 3 11 12
f 3 12 4
f 4 12 13
f 4 13 14
f 4 14 5
f 5 15 27
f 5 27 43
f 5 43 65
f 5 65 87
f 5 87 86
f 5 86 85
f 5 85 84
f 5 84 83
f 5 83 88
f 5 88 66
f 5 66 44
f 5 44 28
f 5 28 16
f 5 16 6
f 5 14 15
f 6 16 7
f 8 17 18
f 8 18 9
f 9 18 19
f 9 19 20
f 10 20 11
f 11 21 22
f 11 22 23
f 11 23 13
f 11 13 12
f 11 20 24
f 11 24 21
f 13 23 14
f 14 23 25
f 14 25 26
f 14 26 27
f 14 27 15
f 17 29 18
f 18 29 30
f 18 30 31
f 18 31 32
f 18 32 19
f 19 32 33
f 19 33 34
f 19 34 20
f 20 34 24
f 21 35 36
f 21 36 23
f 21 23 22
f 21 24 37
f 21 37 35
f 23 36 25
f 24 34 38
f 24 38 37
f 25 39 40
f 25 40 26
f 25 36 39
f 26 40 27
f 27 40 41
f 27 41 42
f 27 42 43
f 28 44 45
f 29 46 30
f 30 46 68
f 30 68 47
f 30 47 31
f 31 47 48
f 31 48 49
f 31 49 32
f 32 49 33
f 33 49 38
f 33 38 34
f 35 50 51
f 35 51 52
f 35 52 53
f 35 53 36
f 35 37 50
f 36 53 39
f 37 54 50
f 37 38 54
f 38 49 55
f 38 55 56
f 38 56 57
f 38 57 58
f 38 58 59
f 38 59 60
f 38 60 54
f 39 61 62
f 39 62 63
f 39 63 64
f 39 64 40
f 39 53 61
f 40 64 65
f 40 65 43
f 40 43 41
f 41 43 42
f 44 66 45
f 45 66 67
f 47 69 70
f 47 70 71
f 47 71 48
f 47 68 95
f 47 95 99
f 47 99 72
f 47 72 78
f 47 78 69
f 48 71 55
f 48 55 49
f 50 73 74
f 50 74 51
f 50 54 60
f 50 60 59
f 50 59 75
f 50 75 76
f 50 76 73
f 51 74 52
f 52 77 53
f 52 74 73
f 52 73 100
f 52 100 127
f 52 127 128
f 52 128 146
f 52 146 145
f 52 145 144
f 52 144 152
f 52 152 147
f 52 147 138
f 52 138 137
f 52 137 151
f 52 151 153
f 52 153 149
f 52 149 131
f 52 131 115
f 52 115 94
f 52 94 93
f 52 93 91
f 52 91 90
f 52 90 114
f 52 114 113
f 52 113 112
f 52 112 111
f 52 111 110
f 52 110 109
f 52 109 108
f 52 108 107
f 52 107 106
f 52 106 105
f 52 105 82
f 52 82 63
f 52 63 62
f 52 62 77
f 53 77 62
f 53 62 61
f 55 71 70
f 55 70 56
f 56 70 69
f 56 69 57
f 57 69 58
f 58 69 78
f 58 78 79
f 58 79 80
f 58 80 81
f 58 81 75
f 58 75 59
f 63 82 83
f 63 83 84
f 63 84 85
f 63 85 86
f 63 86 87
f 63 87 65
f 63 65 64
f 66 88 89
f 66 89 90
f 66 90 91
f 66 91 67
f 67 91 93
f 67 93 94
f 67 94 92
f 72 96 97
f 72 97 98
f 72 98 80
f 72 80 78
f 72 99 120
f 72 120 96
f 73 76 100
f 75 81 101
f 75 101 76
f 76 101 102
f 76 102 100
f 78 80 79
f 80 98 81
f 81 103 104
f 81 104 102
f 81 102 101
f 81 98 103
f 82 105 88
f 82 88 83
f 88 105 106
f 88 106 107
f 88 107 89
f 89 107 108
f 89 108 109
f 89 109 110
f 89 110 111
f 89 111 112
f 89 112 113
f 89 113 114
f 89 114 90
f 92 94 115
f 92 115 116
f 95 117 118
f 95 118 119
f 95 119 99
f 96 120 139
f 96 139 121
f 96 121 122
f 96 122 97
f 97 122 98
f 98 122 123
f 98 123 103
f 99 119 124
f 99 124 125
f 99 125 126
f 99 126 120
f 100 102 127
f 102 128 127
f 102 104 128
f 103 123 129
f 103 129 130
f 103 130 104
f 104 130 128
f 115 131 132
f 115 132 116
f 117 133 118
f 118 124 119
f 118 133 134
f 118 134 135
f 118 135 136
f 118 136 137
f 118 137 138
f 118 138 124
f 120 126 139
f 121 140 141
f 121 141 142
f 121 142 122
f 121 139 140
f 122 142 123
f 123 142 143
f 123 143 144
f 123 144 145
f 123 145 146
f 123 146 129
f 124 138 147
f 124 147 148
f 124 148 139
f 124 139 125
f 125 139 126
f 128 130 146
f 129 146 130
f 131 149 132
f 132 149 150
f 136 150 137
f 137 150 151
f 139 148 140
f 140 147 152
f 140 152 141
f 140 148 147
f 141 152 142
f 142 152 143
f 143 152 144
f 149 153 150
f 150 153 151

