# https://github.com/mikedh/trimesh
v -28.05227530 -46.54999102 41.44869057
v -29.05259379 -46.31540945 41.44869057
v -27.68458526 -46.54999102 41.44869057
v -28.05227530 -46.54999102 69.48150700
v -29.07042613 -46.30678759 41.44869057
v -29.05259379 -46.31540945 74.48258388
v -27.68458526 -36.30954826 41.44869057
v -27.68458526 -46.54999102 69.84877832
v -28.05227530 -46.54826546 74.48258388
v -29.58459703 -46.04116073 41.44869057
v -29.58459703 -46.04116073 75.48142715
v -29.05259379 -46.31368687 75.48142715
v -27.68713337 -35.07800396 41.44869057
v -27.68458526 -35.07800396 41.48301413
v -27.68458526 -46.54826546 74.84985818
v -28.05227530 -46.54481731 75.48142715
v -32.02170826 -43.54874944 41.45212233
v -32.02170826 -42.71736949 41.44869057
v -29.57398286 -46.02736217 76.01345572
v -32.02170826 -43.54529831 75.48142715
v -32.02170826 -43.54874944 74.51004392
v -29.05259379 -46.15500039 76.13702589
v -29.05641596 -30.50024799 41.44869057
v -28.93710755 -30.50024799 42.48528915
v -28.90993361 -30.50024799 46.48409399
v -28.88445991 -30.50024799 52.48401413
v -27.68458526 -35.07800396 74.48258388
v -27.68458526 -46.54481731 75.48142715
v -28.05227530 -46.27056561 76.24686307
v -32.02170826 -32.48555158 41.44869057
v -32.02170826 -43.26932402 76.24686307
v -32.02170826 -43.53667644 75.50545394
v -28.05227530 -45.49955662 76.51116371
v -32.02170826 -42.50004060 76.51116371
v -29.06745481 -30.47264788 41.44869057
v -29.26828205 -29.62057306 42.48528915
v -29.24620435 -29.57227809 46.48409399
v -29.25214846 -29.40841789 52.54236746
v -28.88658185 -30.50024799 55.48397570
v -28.92139715 -30.50024799 68.47923048
v -28.94220229 -30.50024799 74.48258388
v -27.68458526 -35.12802451 75.52261721
v -27.68458526 -46.27056561 76.24686307
v -27.68458526 -45.98596349 76.34640347
v -32.02170826 -29.39979304 41.45555409
v -32.01703671 -29.39806747 41.44869057
v -27.68458526 -45.49955662 76.51116371
v -32.02170826 -32.50107571 76.51116371
v -29.36169059 -29.76028428 41.44869057
v -30.12127181 -29.15658662 42.58139780
v -29.51114425 -28.97892786 48.95888901
v -29.49968071 -28.97375414 51.94855232
v -29.46996015 -28.95478186 70.92999872
v -29.46996015 -28.95478186 71.09132571
v -29.30522078 -29.41014047 74.49974715
v -29.38631641 -29.50155671 75.11758611
v -27.68458526 -35.59545910 76.24686307
v -32.02170826 -28.97720229 42.90748055
v -31.05195821 -29.37736963 41.44869057
v -27.68458526 -36.50100559 76.51116371
v -32.02170826 -32.47520117 76.50429721
v -31.05195821 -32.50107571 76.51116371
v -30.05248909 -29.44118874 41.44869057
v -30.50084858 -28.99962571 42.97613064
v -30.05206440 -28.96167816 48.93486222
v -30.05206440 -28.93063288 70.89910543
v -30.05206440 -28.93063288 71.17026959
v -29.54256356 -28.99617756 74.98715241
v -29.33961289 -31.74041416 76.15761943
v -31.05195821 -28.99100086 42.94523735
v -31.02138828 -29.37736963 41.44869057
v -32.02170826 -28.94615701 48.90053866
v -31.05195821 -28.94960516 48.91426868
v -30.05206440 -32.50107571 76.50773046
v -30.05206440 -33.50148957 76.51116371
v -30.05206440 -31.61622707 76.24342982
v -32.02170826 -31.62830007 76.24686307
v -31.05195821 -28.92890732 70.89224191
v -31.05195821 -28.92890732 71.21145965
v -32.02170826 -28.97720229 74.26290953
v -29.79561523 -28.99617756 74.98715241
v -31.05195821 -29.51363269 75.25831955
v -30.09791855 -29.40324119 75.19996622
v -32.02170826 -28.93408103 70.88537839
v -32.02170826 -29.53087941 75.26518307
v -32.02170826 -28.93408103 71.23891969
v -32.02170826 -29.03067397 74.76061156
v -32.02170826 -29.51535528 75.25145305
f 1 2 5
f 1 5 10
f 1 10 18
f 1 18 30
f 1 30 46
f 1 46 59
f 1 59 71
f 1 71 63
f 1 63 49
f 1 49 35
f 1 35 23
f 1 23 13
f 1 13 7
f 1 7 3
f 1 3 8
f 1 8 4
f 1 4 6
f 1 6 2
f 2 6 5
f 3 7 14
f 3 14 27
f 3 27 42
f 3 42 57
f 3 57 60
f 3 60 47
f 3 47 44
f 3 44 43
f 3 43 28
f 3 28 15
f 3 15 8
f 4 8 15
f 4 15 9
f 4 9 6
f 5 6 11
f 5 11 10
f 6 9 12
f 6 12 11
f 7 13 14
f 9 15 16
f 9 16 12
f 10 17 18
f 10 11 21
f 10 21 17
f 11 12 19
f 11 19 20
f 11 20 21
f 12 16 22
f 12 22 19
f 13 23 24
f 13 24 14
f 14 24 25
f 14 25 26
f 14 26 27
f 15 28 16
f 16 28 43
f 16 43 29
f 16 29 22
f 17 21 20
f 17 20 32
f 17 32 31
f 17 31 34
f 17 34 48
f 17 48 61
f 17 61 77
f 17 77 85
f 17 85 88
f 17 88 87
f 17 87 80
f 17 80 86
f 17 86 84
f 17 84 72
f 17 72 58
f 17 58 45
f 17 45 30
f 17 30 18
f 19 22 31
f 19 31 32
f 19 32 20
f 22 29 33
f 22 33 34
f 22 34 31
f 23 35 36
f 23 36 24
f 24 36 37
f 24 37 38
f 24 38 25
f 25 38 26
f 26 38 39
f 26 39 27
f 27 40 41
f 27 41 42
f 27 39 40
f 29 43 44
f 29 44 33
f 30 45 46
f 33 47 60
f 33 60 75
f 33 75 62
f 33 62 48
f 33 48 34
f 33 44 47
f 35 49 36
f 36 49 50
f 36 50 51
f 36 51 38
f 36 38 37
f 38 51 52
f 38 52 53
f 38 53 54
f 38 54 55
f 38 55 39
f 39 55 40
f 40 55 41
f 41 55 56
f 41 56 42
f 42 56 57
f 45 58 46
f 46 58 59
f 48 62 61
f 49 63 50
f 50 63 64
f 50 64 51
f 51 64 65
f 51 65 52
f 52 65 66
f 52 66 53
f 53 66 67
f 53 67 54
f 54 67 68
f 54 68 55
f 55 68 56
f 56 68 69
f 56 69 57
f 57 69 60
f 58 70 71
f 58 71 59
f 58 72 73
f 58 73 65
f 58 65 70
f 60 74 75
f 60 69 74
f 61 76 77
f 61 62 76
f 62 75 74
f 62 74 76
f 63 71 64
f 64 71 70
f 64 70 65
f 65 73 66
f 66 78 79
f 66 79 67
f 66 73 72
f 66 72 78
f 67 79 80
f 67 80 68
f 68 81 82
f 68 82 83
f 68 83 76
f 68 76 69
f 68 80 81
f 69 76 74
f 72 84 78
f 76 83 82
f 76 82 77
f 77 82 85
f 78 84 86
f 78 86 79
f 79 86 80
f 80 87 81
f 81 87 88
f 81 88 85
f 81 85 82

