# https://github.com/mikedh/trimesh
v -34.77325244 43.54925463 3.09927402
v -40.05187121 43.54925463 3.09927402
v -34.77325244 38.40428822 3.09927402
v -34.77325244 43.55000267 -1.79801560
v -41.05209136 43.53204665 2.48194469
v -41.10323844 43.40933181 3.09927402
v -41.05209136 43.54925463 1.48165302
v -35.43532876 38.37510857 3.09927402
v -38.05616952 35.90663168 1.91056786
v -37.05310771 35.90663168 1.78036364
v -36.97164998 35.90663168 1.74053556
v -36.41470949 35.90663168 1.36063692
v -36.34177677 35.90663168 1.07265222
v -34.77325244 38.23293865 1.80334138
v -42.05136378 43.54925463 -0.51892735
v -34.77325244 43.55000267 -6.79640429
v -41.90739378 43.25668928 2.48194469
v -42.05136378 43.53204665 0.48136134
v -42.90761393 43.25668928 0.48136134
v -41.75679273 43.18261214 3.09927402
v -36.43554741 38.36762516 3.09927402
v -39.05638967 35.90663168 1.91209970
v -39.41631466 38.35415740 3.09927402
v -36.28778802 35.90663168 0.48136134
v -34.77325244 38.18879218 0.57327231
v -43.05158393 43.53953007 -3.51827051
v -43.05158393 43.53877904 -2.51797884
v -43.05158393 43.52605933 -1.51921902
v -42.05136378 43.54925463 -10.51724254
v -43.05158393 43.54252224 -10.51724254
v -43.05158393 43.54177419 -8.51666218
v -34.77325244 43.54925463 -10.51724254
v -42.70870597 43.15941685 1.29477037
v -43.86047489 43.25145298 -1.51921902
v -43.70703068 43.15941685 -0.70581297
v -41.84298459 43.00003895 3.09927402
v -41.05587926 35.90663168 1.91209970
v -40.06608105 38.35415740 3.09927402
v -36.27831678 35.90663168 0.07542425
v -34.77325244 38.18804413 0.48136134
v -43.93435235 43.26492074 -3.51827051
v -43.93530007 43.26417269 -2.51797884
v -34.77325244 43.54850658 -10.79603614
v -42.05136378 43.54551441 -11.51753421
v -43.05158393 43.53803100 -11.51753421
v -43.92772427 43.26716487 -10.51724254
v -43.92866901 43.26716487 -9.51695087
v -43.93056445 43.26641682 -7.51637051
v -42.78637431 42.50020902 1.45101603
v -41.96138104 42.50020902 3.09927402
v -43.78564674 42.50020902 -0.54803248
v -44.19956197 42.50020902 -1.51921902
v -44.38047517 42.50020902 -2.51797884
v -42.05420694 35.90663168 1.91056786
v -40.44116361 38.36687712 3.09927402
v -36.29536531 35.90663168 -7.92230761
v -34.77325244 38.19178733 -10.51724254
v -34.77325244 38.18954022 -9.51695087
v -44.38047517 42.50020902 -3.51827051
v -34.77325244 43.54551441 -11.51753421
v -34.77325244 43.46919315 -11.73045829
v -42.05136378 43.27090806 -12.28345293
v -43.05158393 43.26641682 -12.27885738
v -43.90972653 43.26492074 -11.51753421
v -43.77901568 43.17513171 -12.18847827
v -44.37194867 42.50020902 -10.51724254
v -44.37384411 42.50020902 -9.51695087
v -44.37952745 42.50020902 -4.51855920
v -43.91730531 35.90663168 1.39127390
v -41.96327648 42.13655871 3.09927402
v -44.26586661 35.90663168 0.50280724
v -44.44298893 41.49979814 -2.51797884
v -44.41078433 36.50074187 -0.51892735
v -44.44488138 41.49979814 -3.51827051
v -43.03926953 35.90663168 1.88605827
v -41.10229370 38.48884094 3.09927402
v -36.34461993 35.90663168 -8.51053478
v -34.77325244 38.25987714 -11.52366161
v -44.44298893 41.49979814 -9.51695087
v -44.44488138 41.49979814 -6.51761069
v -34.77325244 43.27090806 -12.28345293
v -43.05158393 42.50020902 -12.54233249
v -42.05136378 42.50020902 -12.54845989
v -44.31511825 42.50020902 -11.51753421
v -43.90499091 42.50020902 -12.27579368
v -44.44204121 41.49979814 -10.51724254
v -43.05253165 35.90663168 1.88452642
v -41.96232876 39.50047544 3.09927402
v -41.96327648 40.50013828 3.09927402
v -44.43351471 35.90663168 -0.51892735
v -44.44488138 40.50013828 -2.51797884
v -44.44866928 36.50074187 -1.51921902
v -44.44677683 40.50013828 -3.51827051
v -41.43190953 38.61155280 3.09927402
v -36.38629577 35.90663168 -8.92259928
v -34.77325244 38.67590239 -12.28345293
v -36.46964745 35.90663168 -9.20752028
v -44.44582911 40.50013828 -10.51724254
v -44.44677683 40.50013828 -8.51666218
v -34.77325244 42.50020902 -12.54845989
v -43.91446215 41.49979814 -12.27732553
v -43.05158393 39.50047544 -12.54233249
v -42.05136378 39.50047544 -12.54845989
v -44.35963725 41.49979814 -11.51753421
v -41.74258289 38.76793852 3.09927402
v -44.44866928 35.90663168 -1.51921902
v -44.44772455 38.50081261 -2.51797884
v -44.44866928 37.50040173 -2.51797884
v -44.44866928 38.50081261 -3.51827051
v -44.44866928 39.50047544 -7.51637051
v -37.05310771 36.64590099 -10.38703535
v -36.05288906 38.12145041 -11.84228330
v -37.05310771 38.12145041 -11.89742987
v -35.05266891 38.66093855 -12.28345293
v -34.77325244 39.50047544 -12.54845989
v -36.59183181 35.90663168 -9.29943124
v -37.05310771 35.90663168 -9.55984265
v -44.44772455 39.50047544 -10.51724254
v -44.44866928 39.50047544 -9.51695087
v -43.90783109 40.50013828 -12.27732553
v -44.35489865 40.50013828 -11.51753421
v -43.05158393 38.62427549 -12.28038923
v -43.77996340 38.75222664 -12.19001012
v -43.89930757 39.50047544 -12.27579368
v -42.05136378 38.62128034 -12.28345293
v -44.44866928 35.90663168 -6.51761069
v -38.05238162 35.90663168 -9.68545430
v -37.05310771 37.12029149 -10.88641526
v -37.05310771 37.62012440 -11.39804996
v -42.05136378 38.12145041 -11.89742987
v -36.05288906 38.62128034 -12.28345293
v -44.34732285 39.50047544 -11.51753421
v -44.39941765 38.50081261 -10.51724254
v -44.40036537 37.50040173 -9.51695087
v -44.44866928 38.50081261 -9.51695087
v -43.05158393 38.12444258 -11.89436617
v -43.78564674 37.75031967 -11.26631390
v -44.00823279 38.45142984 -11.56655339
v -44.44866928 36.50074187 -7.51637051
v -44.42025557 35.90663168 -7.51637051
v -38.62636916 35.90663168 -9.68545430
v -42.05136378 37.62012440 -11.39804996
v -44.01202069 37.45101896 -10.56779357
v -44.01296841 36.45060808 -9.56750190
v -44.18156721 35.90663168 -8.54576732
v -44.40036537 36.50074187 -8.51666218
v -44.44866928 37.50040173 -8.51666218
v -43.05158393 37.62311657 -11.39498626
v -43.78564674 36.74990879 -10.26755408
v -42.05136378 36.11988061 -9.89837838
v -42.05136378 35.90663168 -9.68392245
v -42.62156639 35.90663168 -9.68239060
v -43.05158393 36.12212772 -9.89531468
v -43.05158393 37.12328366 -10.89560635
v -43.83679381 35.90663168 -9.33466378
v -43.05158393 35.90663168 -9.67932690
f 1 2 6
f 1 6 20
f 1 20 36
f 1 36 50
f 1 50 70
f 1 70 89
f 1 89 88
f 1 88 105
f 1 105 94
f 1 94 76
f 1 76 55
f 1 55 38
f 1 38 23
f 1 23 21
f 1 21 8
f 1 8 3
f 1 3 14
f 1 14 25
f 1 25 40
f 1 40 58
f 1 58 57
f 1 57 78
f 1 78 96
f 1 96 115
f 1 115 100
f 1 100 81
f 1 81 61
f 1 61 60
f 1 60 43
f 1 43 32
f 1 32 16
f 1 16 4
f 1 4 2
f 2 5 6
f 2 4 7
f 2 7 5
f 3 8 9
f 3 9 10
f 3 10 11
f 3 11 12
f 3 12 13
f 3 13 14
f 4 15 7
f 4 16 29
f 4 29 15
f 5 17 6
f 5 7 15
f 5 15 18
f 5 18 19
f 5 19 17
f 6 17 20
f 8 21 9
f 9 22 37
f 9 37 54
f 9 54 75
f 9 75 87
f 9 87 69
f 9 69 71
f 9 71 90
f 9 90 106
f 9 106 126
f 9 126 140
f 9 140 145
f 9 145 155
f 9 155 156
f 9 156 152
f 9 152 151
f 9 151 141
f 9 141 127
f 9 127 117
f 9 117 116
f 9 116 97
f 9 97 95
f 9 95 77
f 9 77 56
f 9 56 39
f 9 39 24
f 9 24 13
f 9 13 12
f 9 12 11
f 9 11 10
f 9 21 23
f 9 23 22
f 13 24 14
f 14 24 25
f 15 26 27
f 15 27 28
f 15 28 18
f 15 29 30
f 15 30 31
f 15 31 26
f 16 32 29
f 17 33 20
f 17 19 33
f 18 28 19
f 19 28 34
f 19 34 35
f 19 35 33
f 20 33 36
f 22 23 38
f 22 38 37
f 24 39 25
f 25 39 40
f 26 41 42
f 26 42 27
f 26 31 41
f 27 42 28
f 28 42 34
f 29 32 43
f 29 43 44
f 29 44 30
f 30 44 45
f 30 45 46
f 30 46 47
f 30 47 48
f 30 48 41
f 30 41 31
f 33 49 50
f 33 50 36
f 33 35 51
f 33 51 49
f 34 52 35
f 34 42 53
f 34 53 52
f 35 52 51
f 37 38 54
f 38 55 54
f 39 56 57
f 39 57 58
f 39 58 40
f 41 59 42
f 41 48 47
f 41 47 59
f 42 59 53
f 43 60 44
f 44 60 61
f 44 61 62
f 44 62 63
f 44 63 45
f 45 64 46
f 45 63 65
f 45 65 64
f 46 64 66
f 46 66 67
f 46 67 68
f 46 68 59
f 46 59 47
f 49 69 50
f 49 51 69
f 50 69 70
f 51 52 69
f 52 53 71
f 52 71 69
f 53 72 73
f 53 73 71
f 53 59 80
f 53 80 74
f 53 74 72
f 54 55 75
f 55 76 75
f 56 77 78
f 56 78 57
f 59 68 86
f 59 86 79
f 59 79 80
f 61 81 62
f 62 82 63
f 62 81 100
f 62 100 83
f 62 83 82
f 63 82 65
f 64 84 66
f 64 65 84
f 65 82 85
f 65 85 84
f 66 84 86
f 66 86 67
f 67 86 68
f 69 87 88
f 69 88 89
f 69 89 70
f 71 73 90
f 72 91 92
f 72 92 90
f 72 90 73
f 72 74 93
f 72 93 91
f 74 80 99
f 74 99 119
f 74 119 110
f 74 110 93
f 75 76 87
f 76 94 87
f 77 95 78
f 78 95 97
f 78 97 96
f 79 86 98
f 79 98 80
f 80 98 99
f 82 101 85
f 82 83 103
f 82 103 102
f 82 102 101
f 83 100 115
f 83 115 103
f 84 104 86
f 84 85 104
f 85 101 104
f 86 104 98
f 87 94 105
f 87 105 88
f 90 92 106
f 91 107 92
f 91 93 107
f 92 107 108
f 92 108 109
f 92 109 110
f 92 110 119
f 92 119 135
f 92 135 147
f 92 147 139
f 92 139 126
f 92 126 106
f 93 109 107
f 93 110 109
f 96 111 112
f 96 112 113
f 96 113 114
f 96 114 115
f 96 97 116
f 96 116 117
f 96 117 111
f 98 104 118
f 98 118 119
f 98 119 99
f 101 102 120
f 101 120 121
f 101 121 104
f 102 103 122
f 102 122 123
f 102 123 124
f 102 124 120
f 103 115 131
f 103 131 125
f 103 125 122
f 104 121 118
f 107 109 108
f 111 127 128
f 111 128 112
f 111 117 127
f 112 128 129
f 112 129 113
f 113 129 142
f 113 142 130
f 113 130 125
f 113 125 131
f 113 131 114
f 114 131 115
f 118 121 132
f 118 132 133
f 118 133 134
f 118 134 135
f 118 135 119
f 120 124 132
f 120 132 121
f 122 125 130
f 122 130 136
f 122 136 123
f 123 136 137
f 123 137 138
f 123 138 132
f 123 132 124
f 126 139 140
f 127 141 142
f 127 142 129
f 127 129 128
f 130 142 148
f 130 148 136
f 132 138 133
f 133 138 143
f 133 143 144
f 133 144 134
f 134 144 145
f 134 145 146
f 134 146 140
f 134 140 135
f 135 140 147
f 136 148 137
f 137 143 138
f 137 148 149
f 137 149 144
f 137 144 143
f 139 147 140
f 140 146 145
f 141 150 142
f 141 151 150
f 142 150 152
f 142 152 153
f 142 153 154
f 142 154 148
f 144 155 145
f 144 149 155
f 148 154 149
f 149 154 153
f 149 153 156
f 149 156 155
f 150 151 152
f 152 156 153

