# https://github.com/mikedh/trimesh
v -30.28867105 39.74410506 48.66945740
v -22.42288537 39.54967344 48.66945740
v -22.42288537 39.91357409 45.49786612
v -23.05276454 39.91357409 45.62216199
v -29.98143244 39.91357409 45.41189629
v -30.14236752 39.91357409 44.73552520
v -30.20242853 39.91357409 44.48175677
v -30.28097157 39.91357409 43.48221910
v -30.28867105 39.78088732 43.49257696
v -30.28867105 36.53205537 48.66945740
v -22.42288537 36.61350565 48.66945740
v -22.42288537 39.91357409 41.44067593
v -30.28867105 39.76775037 42.48268069
v -30.28867105 39.78088732 43.48221910
v -30.23862070 39.91357409 42.48268069
v -30.28867105 39.54967344 38.08782202
v -30.28867105 36.35470358 48.66842176
v -30.05150411 36.35470358 48.66945740
v -22.83715749 36.47293612 48.66945740
v -24.05225452 30.50075913 48.31418160
v -23.28146086 30.50075913 48.14845427
v -22.91339009 30.50075913 47.48244104
v -22.52529799 29.91746726 45.06490708
v -22.51220798 29.55093803 44.42893106
v -22.49141700 29.50101583 43.48221910
v -22.42288537 34.24223861 45.46161434
v -24.11924611 39.91357409 38.46381355
v -22.42288537 39.55098773 38.08782202
v -30.00838285 39.91357409 41.52664650
v -30.28867105 36.14976061 38.08782202
v -28.11335556 39.91357409 38.08782202
v -30.28867105 30.50075913 48.31418160
v -24.05225452 36.35470358 48.66945740
v -24.05225452 29.80974308 48.14431172
v -23.37540360 29.87411354 48.09044964
v -23.20984913 29.52466413 47.44826054
v -23.18135793 28.51047256 46.50051219
v -22.82714757 28.50127551 45.48233007
v -22.52760843 28.92298112 44.05915410
v -22.50912789 28.87043034 43.48221910
v -22.51990746 28.90590130 42.82242044
v -22.50989754 29.51021289 42.48682398
v -22.42288537 34.49972639 40.38831255
v -22.42288537 34.43272735 40.48256972
v -22.42288537 34.34470860 40.65347523
v -22.42288537 33.80345615 42.17919421
v -24.47884700 39.91357409 38.08782202
v -22.42288537 36.58197757 38.08782202
v -27.05149487 34.58117965 38.08782202
v -30.28867105 30.73854149 38.23386850
v -30.28867105 29.80974308 48.14431172
v -30.05150411 27.68414116 46.28299554
v -26.05277379 27.69596382 46.28195991
v -25.05251490 27.69859240 46.28092427
v -24.05225452 27.70253230 46.27988863
v -23.33844252 27.80237669 46.18045253
v -23.21754861 27.48182678 45.44296989
v -22.94342060 27.50153220 44.48175677
v -22.84485771 27.50153220 43.48221910
v -22.88104840 27.50153220 42.48268069
v -22.76785546 28.50127551 41.48314302
v -22.52298755 29.84915393 41.74727006
v -24.63901169 35.07907837 38.08782202
v -22.56533991 30.19334916 41.08125683
v -22.82791722 30.50075913 39.48303205
v -23.20445860 30.50075913 38.63161215
v -24.05225452 30.50075913 38.26079880
v -24.05225452 31.50050244 38.22351064
v -26.05277379 34.57198259 38.08782202
v -30.05150411 30.50075913 38.23904744
v -30.28867105 30.50075913 38.24319073
v -30.28867105 27.68414116 46.28299554
v -30.28867105 27.56459135 46.13487853
v -28.05175375 27.19017935 45.66255781
v -27.05149487 27.19280793 45.65944941
v -24.05225452 27.20200499 45.63873368
v -23.45856604 26.94976841 45.08458717
v -23.32073238 26.84730140 44.48175677
v -23.22216949 26.75533977 43.48221910
v -23.25836018 26.79475062 42.48268069
v -23.15286672 27.41088487 41.40753031
v -23.10897581 28.40274541 40.38417000
v -22.75553510 29.50101583 40.48256972
v -25.40980535 34.68496095 38.08782202
v -23.12976679 29.47868480 39.44470750
v -23.33921292 29.79660613 38.76730077
v -24.05225452 29.67311344 38.63989874
v -25.05251490 29.65209373 38.62125428
v -25.05251490 30.50075913 38.24111871
v -30.05150411 29.65078242 38.62021864
v -30.28867105 29.85177953 38.53424732
v -30.28867105 27.18361088 45.66048654
v -27.05149487 26.91561472 45.15916350
v -26.05277379 26.91692603 45.15294819
v -25.05251490 26.91955462 45.14569872
v -24.05225452 26.92349451 45.13844777
v -24.05225452 26.69228062 44.48175677
v -24.05225452 26.50967464 43.48221910
v -24.05225452 26.58586776 42.48268069
v -23.38541427 26.89853490 41.69030106
v -23.30456153 27.68545545 40.65243885
v -23.31226176 28.67074454 39.75233728
v -23.79044612 28.00337380 39.98538998
v -24.45728637 27.99943391 39.98228306
v -26.05277379 27.99155114 39.97399647
v -27.05149487 27.98629696 39.96985393
v -28.05175375 27.98366838 39.96778191
v -30.28867105 29.65603660 38.62539758
v -29.05201413 27.98498267 39.96881754
v -30.28867105 27.98892256 39.97192520
v -30.28867105 26.92086891 45.16019914
v -28.05175375 26.91561472 45.16227041
v -28.05175375 26.67782938 44.48175677
v -27.05149487 26.67914368 44.48175677
v -25.05251490 26.68702644 44.48175677
v -27.05149487 26.49784901 43.48221910
v -28.05175375 26.57141950 42.48268069
v -24.05225452 26.84730140 41.54632659
v -24.05225452 27.02859308 41.04707558
v -24.09537578 27.62239631 40.38417000
v -25.05251490 27.52780610 40.48256972
v -27.05149487 27.52255192 40.48256972
v -28.05175375 27.52255192 40.48256972
v -29.05201413 27.52649479 40.48256972
v -30.05150411 27.53174897 40.48256972
v -30.05150411 27.98761125 39.97192520
v -30.28867105 27.53306327 40.48256972
v -30.28867105 26.86306395 44.99965149
v -30.28867105 26.68045797 44.48175677
v -30.28867105 26.63578995 44.24456077
v -30.28867105 26.49259482 43.48221910
v -29.05201413 26.49390911 43.48221910
v -28.05175375 26.49522042 43.48221910
v -29.05201413 26.57010521 42.48268069
v -25.05251490 26.84467281 41.55254116
v -25.05251490 27.03122167 41.05225451
v -30.05150411 26.83810434 41.58050710
v -30.28867105 26.83810434 41.58154348
v -30.05150411 27.04435862 41.08022119
v -30.28867105 27.16259414 40.93831725
v -30.28867105 26.57141950 42.48268069
v -30.28867105 27.04567291 41.08229247
f 1 2 3
f 1 3 4
f 1 4 5
f 1 5 6
f 1 6 7
f 1 7 8
f 1 8 9
f 1 9 14
f 1 14 13
f 1 13 16
f 1 16 30
f 1 30 50
f 1 50 71
f 1 71 91
f 1 91 108
f 1 108 110
f 1 110 127
f 1 127 140
f 1 140 142
f 1 142 138
f 1 138 141
f 1 141 131
f 1 131 130
f 1 130 129
f 1 129 128
f 1 128 111
f 1 111 92
f 1 92 73
f 1 73 72
f 1 72 51
f 1 51 32
f 1 32 17
f 1 17 10
f 1 10 18
f 1 18 33
f 1 33 19
f 1 19 11
f 1 11 2
f 2 11 26
f 2 26 46
f 2 46 45
f 2 45 44
f 2 44 43
f 2 43 48
f 2 48 28
f 2 28 12
f 2 12 3
f 3 12 27
f 3 27 47
f 3 47 31
f 3 31 29
f 3 29 15
f 3 15 8
f 3 8 7
f 3 7 6
f 3 6 5
f 3 5 4
f 8 13 14
f 8 14 9
f 8 15 16
f 8 16 13
f 10 17 18
f 11 19 20
f 11 20 21
f 11 21 22
f 11 22 23
f 11 23 24
f 11 24 25
f 11 25 26
f 12 28 27
f 15 29 16
f 16 29 31
f 16 31 47
f 16 47 28
f 16 28 48
f 16 48 63
f 16 63 84
f 16 84 69
f 16 69 49
f 16 49 30
f 17 32 18
f 18 32 20
f 18 20 33
f 19 33 20
f 20 32 51
f 20 51 34
f 20 34 35
f 20 35 21
f 21 35 22
f 22 35 36
f 22 36 37
f 22 37 38
f 22 38 23
f 23 38 39
f 23 39 24
f 24 39 40
f 24 40 25
f 25 40 41
f 25 41 42
f 25 42 43
f 25 43 44
f 25 44 45
f 25 45 46
f 25 46 26
f 27 28 47
f 30 49 50
f 34 51 72
f 34 72 52
f 34 52 53
f 34 53 54
f 34 54 55
f 34 55 35
f 35 55 56
f 35 56 37
f 35 37 36
f 37 56 38
f 38 56 57
f 38 57 58
f 38 58 39
f 39 58 59
f 39 59 40
f 40 59 41
f 41 59 60
f 41 60 61
f 41 61 62
f 41 62 42
f 42 62 48
f 42 48 43
f 48 62 64
f 48 64 65
f 48 65 66
f 48 66 67
f 48 67 68
f 48 68 63
f 49 69 70
f 49 70 50
f 50 70 71
f 52 72 73
f 52 73 74
f 52 74 53
f 53 74 54
f 54 74 55
f 55 74 75
f 55 75 76
f 55 76 56
f 56 76 77
f 56 77 57
f 57 77 78
f 57 78 58
f 58 78 79
f 58 79 59
f 59 79 60
f 60 79 80
f 60 80 81
f 60 81 61
f 61 82 83
f 61 83 62
f 61 81 82
f 62 83 64
f 63 68 84
f 64 83 65
f 65 83 85
f 65 85 86
f 65 86 66
f 66 86 67
f 67 86 87
f 67 87 88
f 67 88 89
f 67 89 68
f 68 89 84
f 69 84 89
f 69 89 70
f 70 89 88
f 70 88 90
f 70 90 71
f 71 90 91
f 73 92 74
f 74 92 93
f 74 93 75
f 75 93 94
f 75 94 95
f 75 95 76
f 76 95 96
f 76 96 77
f 77 96 97
f 77 97 78
f 78 97 98
f 78 98 79
f 79 98 80
f 80 98 99
f 80 99 100
f 80 100 81
f 81 100 101
f 81 101 82
f 82 101 102
f 82 102 85
f 82 85 83
f 85 102 86
f 86 102 103
f 86 103 87
f 87 103 88
f 88 103 104
f 88 104 105
f 88 105 106
f 88 106 107
f 88 107 90
f 90 108 91
f 90 107 109
f 90 109 110
f 90 110 108
f 92 111 112
f 92 112 93
f 93 112 113
f 93 113 114
f 93 114 94
f 94 114 115
f 94 115 95
f 95 115 97
f 95 97 96
f 97 115 98
f 98 116 99
f 98 115 114
f 98 114 116
f 99 116 117
f 99 117 118
f 99 118 100
f 100 118 119
f 100 119 101
f 101 103 102
f 101 119 103
f 103 119 120
f 103 120 104
f 104 120 105
f 105 120 106
f 106 120 121
f 106 121 107
f 107 121 122
f 107 122 123
f 107 123 109
f 109 123 124
f 109 124 125
f 109 125 126
f 109 126 110
f 110 126 125
f 110 125 127
f 111 128 112
f 112 128 129
f 112 129 113
f 113 130 131
f 113 131 132
f 113 132 133
f 113 133 114
f 113 129 130
f 114 133 116
f 116 133 117
f 117 133 132
f 117 132 134
f 117 134 118
f 118 134 135
f 118 135 119
f 119 136 127
f 119 127 125
f 119 125 124
f 119 124 123
f 119 123 122
f 119 122 121
f 119 121 120
f 119 135 137
f 119 137 138
f 119 138 136
f 127 136 139
f 127 139 140
f 131 141 134
f 131 134 132
f 134 141 137
f 134 137 135
f 136 138 139
f 137 141 138
f 138 142 139
f 139 142 140

