# https://github.com/mikedh/trimesh
v -35.77232220 -2.53172825 13.24037605
v -35.77323863 -11.71699428 13.24037605
v -36.35068176 -11.71699428 9.48227422
v -36.35068176 -2.53172825 9.48227422
v -45.13606433 -2.53172825 13.24037605
v -45.07373833 -11.71699428 13.24037605
v -36.42950644 -11.71699428 8.97930907
v -36.45150517 -11.71699428 8.83896902
v -36.45150517 -2.53172825 8.83991078
v -44.35605796 -2.53172825 9.48227422
v -44.35330719 -11.71699428 9.48227422
v -37.05277839 -11.71699428 8.56299921
v -37.05277839 -2.53172825 8.56441185
v -44.34231006 -2.53172825 9.45872726
v -44.25615099 -11.71699428 9.31461868
v -38.05276310 -11.71699428 8.42925147
v -38.02160159 -2.53172825 8.43631616
v -43.90693702 -2.53172825 8.71322773
v -43.90418625 -11.71699428 8.71464037
v -38.05276310 -2.53172825 8.43254763
v -42.83454114 -11.71699428 8.43631616
v -42.05178400 -8.49967849 8.43254763
v -42.05178400 -2.53172825 8.43254763
v -43.05177168 -2.53172825 8.43819968
v -43.05177168 -11.71699428 8.43725792
v -43.71720526 -11.71699428 8.65294767
f 1 2 3
f 1 3 4
f 1 4 9
f 1 9 13
f 1 13 17
f 1 17 20
f 1 20 23
f 1 23 24
f 1 24 18
f 1 18 14
f 1 14 10
f 1 10 5
f 1 5 6
f 1 6 2
f 2 6 11
f 2 11 15
f 2 15 19
f 2 19 26
f 2 26 25
f 2 25 21
f 2 21 16
f 2 16 12
f 2 12 8
f 2 8 7
f 2 7 3
f 3 7 4
f 4 7 8
f 4 8 9
f 5 10 11
f 5 11 6
f 8 12 9
f 9 12 13
f 10 14 15
f 10 15 11
f 12 16 13
f 13 16 17
f 14 18 15
f 15 18 19
f 16 20 17
f 16 21 22
f 16 22 23
f 16 23 20
f 18 24 25
f 18 25 26
f 18 26 19
f 21 25 22
f 22 25 23
f 23 25 24

