# https://github.com/mikedh/trimesh
v -45.29760589 -9.07810362 39.50690461
v -45.91592169 -4.50040427 38.48334090
v -45.84985547 -4.49007472 39.48235404
v -45.30522938 -9.07810362 39.90726566
v -45.84816269 -9.07810362 34.44101955
v -45.84900908 -8.49965986 34.44101955
v -45.89813555 -7.49995828 34.44101955
v -45.89390061 -7.49995828 34.48256612
v -45.91846384 -4.49007472 38.48239691
v -45.99469570 -4.49007472 44.08650238
v -45.32809685 -9.07810362 40.23775173
v -53.94896655 -9.07810362 34.44101955
v -46.24964431 -6.70190351 34.44101955
v -46.26404489 -4.49007472 37.52870706
v -53.87104191 -4.49007472 44.08650238
v -45.63556345 -9.07810362 44.08650238
v -53.94896655 -8.49965986 34.44101955
v -53.94896655 -9.07810362 37.48243902
v -53.94981294 -6.50025670 39.48235404
v -47.02381237 -6.33588539 34.44101955
v -46.85949321 -4.49007472 37.13023512
v -53.94134306 -8.49965986 42.48222694
v -53.91339426 -8.49965986 43.48218483
v -53.87358406 -7.89471869 44.08650238
v -53.94896655 -4.49007472 39.49179697
v -53.66860831 -9.07810362 44.08650238
v -53.94896655 -5.50010585 37.48243902
v -53.94812015 -4.49007472 37.49282595
v -53.94812015 -7.49995828 34.44101955
v -53.94812015 -9.07810362 38.90447505
v -53.94896655 -8.49965986 38.48334090
v -53.94727376 -8.49965986 40.48231193
v -53.94388522 -9.07810362 41.90340396
v -53.94896655 -4.49007472 39.48235404
v -47.05261054 -6.32645364 34.44101955
v -47.05261054 -4.49007472 37.06791433
v -53.94134306 -9.07810362 42.48222694
v -53.82361120 -9.07810362 43.49918120
v -53.92863825 -9.07810362 42.90430509
v -53.73297877 -9.07810362 43.88915458
v -53.72027395 -8.85220501 44.08650238
v -53.91254489 -4.49007472 37.24732175
v -53.94558098 -6.50025670 34.44101955
v -53.94727376 -6.50025670 34.48256612
v -53.94727376 -6.54157417 34.44101955
v -53.94727376 -9.07810362 39.90348819
v -53.94642737 -9.07810362 40.48231193
v -51.05219173 -5.67750123 34.44101955
v -52.05166383 -5.51807006 34.44101955
v -51.64171233 -4.49007472 36.05284918
v -53.78972872 -4.49007472 36.40505346
v -53.75500283 -5.73004605 34.44101955
v -53.05198232 -5.42241106 34.44101955
v -53.05198232 -4.49007472 35.80923335
v -52.48618154 -4.49007472 35.89610396
v -52.05166383 -4.49007472 35.96314547
v -53.77787030 -4.49007472 36.35972942
v -53.74737934 -5.70265083 34.44101955
v -53.68385230 -4.76043421 35.73369365
f 1 2 3
f 1 3 4
f 1 4 11
f 1 11 16
f 1 16 26
f 1 26 40
f 1 40 38
f 1 38 39
f 1 39 37
f 1 37 33
f 1 33 47
f 1 47 46
f 1 46 30
f 1 30 18
f 1 18 12
f 1 12 5
f 1 5 6
f 1 6 7
f 1 7 8
f 1 8 2
f 2 9 3
f 2 8 7
f 2 7 9
f 3 9 14
f 3 14 21
f 3 21 36
f 3 36 50
f 3 50 56
f 3 56 55
f 3 55 54
f 3 54 57
f 3 57 51
f 3 51 42
f 3 42 28
f 3 28 34
f 3 34 25
f 3 25 15
f 3 15 10
f 3 10 4
f 4 10 11
f 5 12 17
f 5 17 29
f 5 29 45
f 5 45 43
f 5 43 52
f 5 52 58
f 5 58 53
f 5 53 49
f 5 49 48
f 5 48 35
f 5 35 20
f 5 20 13
f 5 13 7
f 5 7 6
f 7 13 9
f 9 13 14
f 10 15 24
f 10 24 41
f 10 41 26
f 10 26 16
f 10 16 11
f 12 18 19
f 12 19 17
f 13 20 21
f 13 21 14
f 15 22 23
f 15 23 24
f 15 25 22
f 17 19 27
f 17 27 28
f 17 28 29
f 18 30 31
f 18 31 19
f 19 31 32
f 19 32 33
f 19 33 25
f 19 25 34
f 19 34 27
f 20 35 21
f 21 35 36
f 22 33 37
f 22 37 23
f 22 25 33
f 23 38 24
f 23 37 39
f 23 39 38
f 24 38 40
f 24 40 41
f 26 41 40
f 27 34 28
f 28 42 43
f 28 43 44
f 28 44 29
f 29 44 45
f 30 46 32
f 30 32 31
f 32 46 47
f 32 47 33
f 35 48 36
f 36 48 49
f 36 49 50
f 42 51 43
f 43 51 52
f 43 45 44
f 49 53 54
f 49 54 55
f 49 55 56
f 49 56 50
f 51 57 58
f 51 58 52
f 53 58 59
f 53 59 54
f 54 59 57
f 57 59 58

