# https://github.com/mikedh/trimesh
v -4.05169765 -2.53082970 -10.54256276
v -4.02097498 -2.53082970 -10.54256276
v -4.06229170 -2.53082970 -10.10463564
v -4.06229170 -2.53024073 -10.54256276
v -4.06229170 -1.49972623 -10.54875870
v -4.05169765 -1.49972623 -10.54875870
v -3.05162279 -1.49972623 -10.54256276
v -3.05162279 -2.53082970 -10.52190664
v -4.06229170 -2.53082970 10.54203533
v -3.05162279 3.48501989 -10.55289231
v -4.06229170 3.48501989 -10.54875870
v -3.05162279 -0.49983261 -10.54669339
v -2.18609214 -1.49972623 -10.27815185
v -2.17179066 -2.53082970 -10.26575997
v -3.01719269 -2.53082970 -10.51777601
v -4.05169765 -2.53082970 10.54203533
v -4.06229170 -1.50973690 10.54823276
v -2.25124566 3.48501989 -10.28435078
v -4.06229170 3.48501989 10.54823276
v 0.82843317 -0.49983261 -8.23724273
v 0.76751683 -1.49972623 -8.19386218
v 0.61072579 -2.17633249 -8.09470921
v 0.87610528 -2.53082970 -7.56175676
v -3.05162279 -1.49972623 10.54203533
v -4.05169765 -1.49972623 10.54823276
v -3.05162279 -2.53082970 10.51724708
v 0.75586404 1.49995454 -8.17320606
v 0.79612128 0.50006096 -8.20625705
v 0.52120648 3.48501989 -8.12156426
v -4.05169765 3.48501989 10.54823276
v 1.19233680 1.49995454 -7.51631091
v 1.24159887 0.50006096 -7.51631091
v 1.27549923 -0.49983261 -7.51631091
v 1.21034646 -1.49972623 -7.51631091
v 0.88722906 -2.53082970 -7.53697001
v -3.05162279 3.48501989 10.53790470
v -3.06698450 3.48501989 10.53997001
v -2.16914196 -2.53082970 10.24457492
v -2.16331557 -1.49972623 10.25903510
v 0.52756335 3.48501989 -8.11330002
v 0.90206178 3.48501989 -7.51631091
v 1.25219366 3.48501989 -6.51651396
v 1.29192042 2.49984816 -6.51651396
v 1.32264383 1.49995454 -6.51651396
v 1.33853454 0.50006096 -6.51651396
v 1.34224197 -0.49983261 -6.51651396
v 1.33694457 -1.49972623 -6.51651396
v 1.30357469 -2.49961976 -6.51651396
v 1.30145573 -2.53082970 -6.51651396
v -2.26183971 3.48501989 10.25903510
v 0.74209081 -1.49972623 8.19540006
v 0.79982871 -0.49983261 8.24910867
v 0.45446374 -2.53082970 8.04047317
v 0.60966631 -2.30411637 8.07765628
v -2.25071592 3.48501989 10.25490298
v 1.29192042 3.48501989 -5.51671403
v 1.33906353 3.48501989 -3.51711715
v 1.34118249 2.49984816 -3.51711715
v 1.34383193 -0.49983261 -5.51671403
v 1.34224197 -1.49972623 -5.51671403
v 1.33323714 -2.53082970 -5.51671403
v 1.30357469 -2.53082970 -6.48552828
v 1.33376762 -2.53082970 -5.48572835
v 0.83637852 -2.53082970 7.66658123
v 0.90153129 -2.53082970 7.56949357
v 1.16902974 -1.49972623 7.48066866
v 1.21829181 -0.49983261 7.48066866
v 1.23365352 0.50006096 7.48066866
v 0.81148299 0.50006096 8.22432043
v 0.78870492 1.49995454 8.17680925
v 0.65574994 2.27195725 8.08798434
v 0.28496044 3.48501989 8.04460529
v 1.34065349 3.48501989 -2.51732020
v 1.34859885 3.48501989 5.48107029
v 1.34700888 -2.53082970 4.48127334
v 1.33641558 -2.53082970 -4.51691708
v 1.32158435 -2.53082970 6.48087022
v 1.32211335 -2.49961976 6.48087022
v 1.32688026 2.49984816 6.48087022
v 1.22358921 1.49995454 7.48066866
v 0.81360195 3.48501989 7.55916402
v 0.79400232 3.48501989 7.59014969
v 1.34859885 3.48501989 5.49553047
v 1.34700888 -2.53082970 4.51225902
v 1.34065349 -2.53082970 5.48107029
v 1.28026764 3.48501989 6.48087022
v 1.27338176 3.48501989 6.49946103
f 1 2 8
f 1 8 15
f 1 15 14
f 1 14 23
f 1 23 35
f 1 35 49
f 1 49 62
f 1 62 61
f 1 61 63
f 1 63 76
f 1 76 75
f 1 75 84
f 1 84 85
f 1 85 77
f 1 77 65
f 1 65 64
f 1 64 53
f 1 53 38
f 1 38 26
f 1 26 16
f 1 16 9
f 1 9 3
f 1 3 4
f 1 4 5
f 1 5 6
f 1 6 2
f 2 6 7
f 2 7 8
f 3 9 17
f 3 17 19
f 3 19 11
f 3 11 5
f 3 5 4
f 5 10 6
f 5 11 10
f 6 10 12
f 6 12 7
f 7 13 14
f 7 14 15
f 7 15 8
f 7 12 13
f 9 16 17
f 10 11 19
f 10 19 30
f 10 30 37
f 10 37 36
f 10 36 50
f 10 50 55
f 10 55 72
f 10 72 82
f 10 82 81
f 10 81 87
f 10 87 86
f 10 86 83
f 10 83 74
f 10 74 73
f 10 73 57
f 10 57 56
f 10 56 42
f 10 42 41
f 10 41 40
f 10 40 29
f 10 29 18
f 10 18 13
f 10 13 12
f 13 18 20
f 13 20 14
f 14 20 21
f 14 21 22
f 14 22 23
f 16 24 25
f 16 25 17
f 16 26 24
f 17 25 30
f 17 30 19
f 18 27 28
f 18 28 20
f 18 29 27
f 20 28 31
f 20 31 32
f 20 32 33
f 20 33 34
f 20 34 21
f 21 34 23
f 21 23 22
f 23 34 35
f 24 36 37
f 24 37 30
f 24 30 25
f 24 26 38
f 24 38 39
f 24 39 36
f 27 29 40
f 27 40 31
f 27 31 28
f 31 40 41
f 31 41 42
f 31 42 32
f 32 42 43
f 32 43 33
f 33 43 44
f 33 44 45
f 33 45 46
f 33 46 47
f 33 47 48
f 33 48 34
f 34 48 49
f 34 49 35
f 36 39 50
f 38 51 52
f 38 52 39
f 38 53 54
f 38 54 51
f 39 55 50
f 39 52 55
f 42 56 43
f 43 56 44
f 44 56 57
f 44 57 45
f 45 57 46
f 46 57 58
f 46 58 59
f 46 59 60
f 46 60 47
f 47 61 62
f 47 62 48
f 47 60 63
f 47 63 61
f 48 62 49
f 51 54 64
f 51 64 65
f 51 65 66
f 51 66 52
f 52 66 67
f 52 67 68
f 52 68 69
f 52 69 55
f 53 64 54
f 55 69 70
f 55 70 71
f 55 71 72
f 57 73 58
f 58 73 74
f 58 74 59
f 59 74 75
f 59 75 60
f 60 76 63
f 60 75 76
f 65 77 66
f 66 77 67
f 67 77 78
f 67 78 68
f 68 78 79
f 68 79 80
f 68 80 69
f 69 80 70
f 70 80 81
f 70 81 82
f 70 82 71
f 71 82 72
f 74 83 84
f 74 84 75
f 77 85 78
f 78 83 79
f 78 85 83
f 79 83 86
f 79 86 80
f 80 86 87
f 80 87 81
f 83 85 84

