# https://github.com/mikedh/trimesh
v -14.05284278 36.22679117 26.15274408
v -14.05284278 35.63798583 26.68418777
v -15.05174733 35.63798583 26.68418777
v -16.05147536 35.63798583 26.68824799
v -15.05174733 36.22679117 26.16266906
v -12.05256324 36.22679117 26.20688109
v -12.05256324 35.63828386 26.69140594
v -13.05229127 35.63798583 26.68689458
v -12.05256324 35.24415750 27.48270634
v -13.05229127 35.24385947 27.48270634
v -16.05147536 35.24385947 27.48270634
v -17.05202668 35.67652347 26.72794830
v -16.99849950 36.22679117 26.25244616
v -16.05147536 36.22679117 26.19605384
v -12.02374085 36.22679117 26.21409926
v -11.29329719 35.75906452 26.79020575
v -11.14177337 35.62239018 27.48270634
v -12.05256324 35.21217343 28.48198249
v -16.05147536 35.21217343 28.48198249
v -17.05202668 35.33653040 27.48270634
v -17.05202668 36.22679117 26.25650675
v -17.67706257 35.81001788 26.83712423
v -11.03224800 36.22679117 26.50508508
v -10.41544692 36.22679117 27.40646368
v -10.41544692 36.19878277 27.48270634
v -11.11953883 35.60620145 28.48198249
v -11.14259666 35.62109973 29.48216092
v -12.05256324 35.24187164 29.48216092
v -15.05174733 35.24187164 29.48216092
v -16.05147536 35.24544794 29.48216092
v -17.05202668 35.33911129 29.48216092
v -17.05202668 35.31964429 28.48198249
v -17.73964860 35.71486440 27.48270634
v -18.82831442 36.22679117 30.47963234
v -17.91752418 36.22679117 26.60208035
v -18.11104645 36.22679117 27.33563428
v -10.41544692 36.22679117 29.66397042
v -10.41544692 36.18229304 28.48198249
v -10.41544692 36.18646539 28.84154129
v -10.41544692 36.20066927 29.48216092
v -11.29412048 35.75737471 30.17917286
v -10.45579841 36.22679117 29.79886146
v -12.05256324 35.63599800 30.27797249
v -15.05174733 35.63599800 30.27797249
v -16.05147536 35.63957431 30.27255886
v -17.05202668 35.67990009 30.23556537
v -17.82117488 35.71476606 29.48216092
v -18.07563622 36.22679117 30.63933601
v -12.05256324 36.22679117 30.76159506
v -11.03060067 36.22679117 30.46474468
v -15.05174733 36.22679117 30.76159506
v -16.05147536 36.22679117 30.75437689
v -17.05202668 36.22679117 30.71287205
f 1 2 3
f 1 3 4
f 1 4 5
f 1 5 14
f 1 14 13
f 1 13 21
f 1 21 35
f 1 35 36
f 1 36 34
f 1 34 48
f 1 48 53
f 1 53 52
f 1 52 51
f 1 51 49
f 1 49 50
f 1 50 42
f 1 42 37
f 1 37 24
f 1 24 23
f 1 23 15
f 1 15 6
f 1 6 7
f 1 7 8
f 1 8 2
f 2 8 9
f 2 9 10
f 2 10 11
f 2 11 3
f 3 11 4
f 4 11 12
f 4 12 13
f 4 13 14
f 4 14 5
f 6 15 7
f 7 15 16
f 7 16 9
f 7 9 8
f 9 16 17
f 9 17 18
f 9 18 10
f 10 18 19
f 10 19 11
f 11 19 20
f 11 20 12
f 12 21 13
f 12 20 22
f 12 22 21
f 15 23 16
f 16 23 24
f 16 24 17
f 17 24 25
f 17 25 26
f 17 26 18
f 18 26 27
f 18 27 28
f 18 28 29
f 18 29 19
f 19 29 30
f 19 30 31
f 19 31 32
f 19 32 20
f 20 33 22
f 20 32 34
f 20 34 33
f 21 22 35
f 22 33 34
f 22 34 36
f 22 36 35
f 24 37 40
f 24 40 39
f 24 39 38
f 24 38 25
f 25 38 26
f 26 38 39
f 26 39 40
f 26 40 27
f 27 41 28
f 27 40 37
f 27 37 42
f 27 42 41
f 28 41 43
f 28 43 44
f 28 44 29
f 29 44 30
f 30 44 45
f 30 45 46
f 30 46 31
f 31 47 32
f 31 46 34
f 31 34 47
f 32 47 34
f 34 46 48
f 41 49 43
f 41 42 50
f 41 50 49
f 43 49 51
f 43 51 44
f 44 51 52
f 44 52 45
f 45 52 53
f 45 53 48
f 45 48 46

