# https://github.com/mikedh/trimesh
v -46.36241703 -13.50446131 44.49831057
v -53.05175880 -13.50446131 39.41744789
v -47.60720557 -14.04230882 43.03612162
v -46.36241703 -14.45511838 43.44828223
v -46.36241703 -13.50446131 19.43500796
v -53.71831891 -13.50446131 38.48517972
v -53.59435832 -14.04368868 38.09264518
v -46.36241703 -15.41129190 42.28294646
v -46.36241703 -14.40317260 20.48013081
v -53.41101920 -13.50446131 24.80291284
v -53.72202932 -13.50446131 38.46064628
v -53.72054516 -13.51687257 38.44837957
v -53.67229786 -14.15125788 37.48176400
v -46.36241703 -17.41190206 38.35760557
v -46.36241703 -16.44975165 40.38896970
v -53.61291635 -15.05318635 35.27375998
v -53.32268752 -14.98285241 35.94106776
v -46.36241703 -15.28073750 21.53997313
v -53.75765823 -13.50446131 25.39416721
v -53.64186353 -14.08735980 25.80632782
v -53.82743188 -13.50446131 37.73936466
v -53.86528704 -13.50446131 37.47685738
v -53.73687396 -14.35582385 36.48080214
v -46.36241703 -17.62795988 37.32475055
v -53.67749244 -15.12076206 34.48133155
v -46.97479021 -17.84861473 34.41999816
v -46.36241703 -16.38677297 23.48792373
v -53.89126589 -13.50446131 26.33624898
v -53.71608968 -14.19630737 26.48344919
v -53.76211073 -13.53066369 25.47758073
v -53.59807171 -15.04077509 28.81412037
v -46.36241703 -17.32961582 25.52910108
v -53.93060820 -13.50446131 36.48080214
v -53.86900043 -14.50016936 34.48133155
v -46.36241703 -18.09455404 34.22373108
v -53.71534760 -15.17178844 33.48036960
v -47.13437970 -17.87941563 33.48036960
v -53.91130809 -13.50446131 26.48344919
v -53.66635822 -15.11248740 29.48388182
v -53.86157663 -14.50016936 29.48388182
v -46.36241703 -18.04214929 28.95150755
v -46.36241703 -17.58198949 26.47854258
v -46.36241703 -17.93963609 28.38969304
v -53.93877110 -13.50446131 35.48229341
v -53.90908184 -14.50016936 33.48036960
v -46.36241703 -18.13592738 33.48036960
v -53.91724773 -14.50016936 32.48186101
v -53.71906099 -15.18328178 32.48186101
v -47.18188491 -17.87711637 32.48186101
v -46.36241703 -18.19982547 31.48335241
v -46.36241703 -18.18511495 32.01572678
v -46.36241703 -18.15385509 32.98724869
v -53.94174242 -13.50446131 27.48441142
v -53.90982392 -14.50016936 30.48239047
v -46.36241703 -18.13638783 29.60164200
v -46.64373789 -18.03755226 29.77337565
v -46.71202738 -18.06559344 30.48239047
v -53.71386343 -15.17041008 30.48239047
v -53.94545283 -13.50446131 29.48388182
v -53.91427642 -14.50016936 31.48335241
v -53.71683474 -15.18098252 31.48335241
v -47.21899799 -17.86194689 31.48335241
v -46.71944820 -18.06145536 31.48335241
v -46.36241703 -18.20028443 31.01231153
v -46.36241703 -18.20074488 30.48239047
f 1 2 3
f 1 3 4
f 1 4 8
f 1 8 15
f 1 15 14
f 1 14 24
f 1 24 35
f 1 35 46
f 1 46 52
f 1 52 51
f 1 51 50
f 1 50 64
f 1 64 65
f 1 65 55
f 1 55 41
f 1 41 43
f 1 43 42
f 1 42 32
f 1 32 27
f 1 27 18
f 1 18 9
f 1 9 5
f 1 5 10
f 1 10 19
f 1 19 28
f 1 28 38
f 1 38 53
f 1 53 59
f 1 59 44
f 1 44 33
f 1 33 22
f 1 22 21
f 1 21 11
f 1 11 6
f 1 6 2
f 2 6 7
f 2 7 8
f 2 8 3
f 3 8 4
f 5 9 10
f 6 11 12
f 6 12 13
f 6 13 7
f 7 14 15
f 7 15 8
f 7 13 16
f 7 16 17
f 7 17 14
f 9 18 10
f 10 18 20
f 10 20 19
f 11 21 12
f 12 21 13
f 13 22 23
f 13 23 16
f 13 21 22
f 14 17 16
f 14 16 24
f 16 23 25
f 16 25 26
f 16 26 24
f 18 27 20
f 19 20 29
f 19 29 30
f 19 30 28
f 20 31 29
f 20 27 32
f 20 32 31
f 22 33 34
f 22 34 23
f 23 34 25
f 24 26 35
f 25 34 36
f 25 36 37
f 25 37 26
f 26 37 35
f 28 29 38
f 28 30 29
f 29 31 39
f 29 39 40
f 29 40 38
f 31 41 39
f 31 32 42
f 31 42 43
f 31 43 41
f 33 44 47
f 33 47 45
f 33 45 34
f 34 45 36
f 35 37 46
f 36 45 47
f 36 47 48
f 36 48 49
f 36 49 37
f 37 49 50
f 37 50 51
f 37 51 52
f 37 52 46
f 38 40 54
f 38 54 53
f 39 41 55
f 39 55 56
f 39 56 57
f 39 57 58
f 39 58 40
f 40 58 54
f 44 59 47
f 47 59 53
f 47 53 60
f 47 60 61
f 47 61 48
f 48 61 62
f 48 62 49
f 49 62 57
f 49 57 63
f 49 63 50
f 50 63 57
f 50 57 64
f 53 54 60
f 54 58 61
f 54 61 60
f 55 65 57
f 55 57 56
f 57 65 64
f 57 62 61
f 57 61 58

