# https://github.com/mikedh/trimesh
v -53.94823340 -2.50029069 20.29039384
v -53.94749728 -1.50131741 19.48196481
v -53.94602206 -2.50029069 19.48196481
v -53.94528295 -3.50081035 20.29039384
v -53.94823340 2.29354359 20.29039384
v -53.94823340 2.29354359 20.27515283
v -53.94602206 -0.50079775 18.48174913
v -53.94749728 0.49972191 19.48196481
v -53.94381071 -1.50131741 18.48174913
v -53.94307161 -3.50081035 19.48196481
v -53.93348712 -4.50133001 18.48174913
v -53.88998438 -8.48949125 20.29039384
v -46.41644602 2.29354359 20.29039384
v -53.94675818 2.29354359 19.27557195
v -53.94602206 1.49869482 18.48174913
v -53.92758920 0.49972191 17.48216825
v -53.94086026 -2.50029069 18.48174913
v -53.90768112 -0.50079775 17.48216825
v -53.90178320 -5.50030329 18.48174913
v -53.87229063 -7.49979661 19.48196481
v -53.74473288 -9.45135108 20.29039384
v -46.41644602 2.29354359 13.95442051
v -46.41644602 -13.50445982 20.29039384
v -53.94528295 2.29354359 18.48174913
v -53.93569847 2.29354359 18.27535478
v -53.89957185 1.49869482 17.48216825
v -53.73072272 0.49972191 16.78868455
v -53.71155076 -0.50079775 16.80964168
v -53.86565361 -1.50131741 17.48216825
v -53.70786419 -5.50030329 17.79017130
v -53.75358125 -6.49463744 18.46079200
v -53.81182728 -2.50029069 17.48216825
v -53.74178243 -4.50133001 17.66824027
v -53.72630002 -8.45237743 19.48069522
v -53.66805100 -9.21784464 19.81346565
v -53.05164555 -10.03588945 20.29039384
v -46.41644602 1.58684023 13.87694291
v -47.04022461 2.29354359 14.16081486
v -47.31672342 -13.50445982 20.29039384
v -46.41644602 -13.50445982 19.49657177
v -53.84869598 2.29354359 17.48216825
v -53.70344149 1.49869482 16.82551748
v -53.80814071 2.29354359 17.34626580
v -47.25478783 0.49972191 14.05094937
v -47.31819864 -0.50079775 14.03951862
v -53.67099847 -1.50131741 16.85536619
v -53.63486888 -6.15752255 17.89559025
v -53.61864737 -2.50029069 16.91315625
v -53.57661986 -3.10802529 16.95888076
v -53.68132206 -7.49979661 18.79419723
v -53.60168974 -8.08742773 18.93327514
v -46.41644602 -10.21991105 16.58864112
v -46.41644602 -11.44001863 17.55964437
v -47.67874949 -12.12043467 18.85135249
v -46.41644602 -13.02507740 18.95677294
v -46.41644602 -13.43796594 19.40893374
v -46.41644602 -13.45961598 19.43497071
v -46.41644602 -13.48435803 19.46545421
v -47.30713595 -13.50445982 20.27959787
v -46.41644602 0.49972191 13.83121989
v -53.65256562 2.29354359 16.88267275
v -46.41644602 -0.50079775 13.80327705
v -46.41644602 -1.13946009 13.83503014
v -46.41644602 -1.43636878 13.85408140
v -47.04759775 -1.57399830 14.06936584
v -47.05275955 -2.50029069 14.18431116
v -46.41644602 -6.22711068 14.60980020
v -46.41644602 -8.36268675 15.54397052
v -47.05275955 -3.50081035 14.31640337
v -46.41644602 -5.28535413 14.36022350
v -46.41644602 -12.51940618 18.49445097
v -46.41644602 -3.43895448 14.09349842
v -46.41644602 -4.34205120 14.20399871
f 1 2 3
f 1 3 10
f 1 10 4
f 1 4 12
f 1 12 21
f 1 21 36
f 1 36 39
f 1 39 23
f 1 23 13
f 1 13 5
f 1 5 6
f 1 6 2
f 2 7 3
f 2 6 8
f 2 8 15
f 2 15 7
f 3 7 9
f 3 9 10
f 4 10 11
f 4 11 12
f 5 13 22
f 5 22 38
f 5 38 61
f 5 61 43
f 5 43 41
f 5 41 25
f 5 25 24
f 5 24 14
f 5 14 6
f 6 14 15
f 6 15 8
f 7 15 16
f 7 16 9
f 9 17 10
f 9 16 17
f 10 17 11
f 11 17 16
f 11 16 18
f 11 18 19
f 11 19 12
f 12 19 20
f 12 20 21
f 13 23 40
f 13 40 58
f 13 58 57
f 13 57 56
f 13 56 55
f 13 55 71
f 13 71 53
f 13 53 52
f 13 52 68
f 13 68 67
f 13 67 70
f 13 70 73
f 13 73 72
f 13 72 64
f 13 64 63
f 13 63 62
f 13 62 60
f 13 60 37
f 13 37 22
f 14 24 15
f 15 24 16
f 16 24 25
f 16 25 26
f 16 26 27
f 16 27 18
f 18 28 29
f 18 29 19
f 18 27 28
f 19 30 31
f 19 31 20
f 19 29 32
f 19 32 33
f 19 33 30
f 20 34 21
f 20 31 34
f 21 35 36
f 21 34 35
f 22 37 38
f 23 39 59
f 23 59 40
f 25 41 26
f 26 42 27
f 26 41 43
f 26 43 42
f 27 42 44
f 27 44 45
f 27 45 28
f 28 46 32
f 28 32 29
f 28 45 46
f 30 47 31
f 30 33 48
f 30 48 49
f 30 49 47
f 31 47 50
f 31 50 34
f 32 46 33
f 33 46 48
f 34 50 51
f 34 51 35
f 35 52 53
f 35 53 54
f 35 54 55
f 35 55 56
f 35 56 36
f 35 51 52
f 36 56 57
f 36 57 58
f 36 58 59
f 36 59 39
f 37 60 44
f 37 44 38
f 38 44 61
f 40 59 58
f 42 43 61
f 42 61 44
f 44 60 45
f 45 60 62
f 45 62 63
f 45 63 64
f 45 64 65
f 45 65 66
f 45 66 49
f 45 49 48
f 45 48 46
f 47 67 68
f 47 68 51
f 47 51 50
f 47 49 67
f 49 66 69
f 49 69 70
f 49 70 67
f 51 68 52
f 53 71 54
f 54 71 55
f 64 72 65
f 65 72 66
f 66 72 73
f 66 73 69
f 69 73 70

