# https://github.com/mikedh/trimesh
v 3.03700976 -11.71664559 -7.54996987
v 3.03700976 -11.71664559 7.55812987
v 3.03700976 -11.50000439 -7.54996987
v 14.94913231 -11.71664559 -7.54996987
v 3.03700976 -11.50000439 7.55960807
v 26.94666292 -11.71664559 7.54925319
v 3.03700976 -10.49982672 -7.54701346
v 10.94995346 -8.15305436 -7.54996987
v 26.94666292 -8.15305436 -7.54849166
v 26.94666292 -11.71664559 -7.54849166
v 13.60267547 -8.15305436 -7.54996987
v 3.03700976 -10.49982672 7.56108777
v 27.94645688 -11.71664559 7.41463671
v 26.94666292 -8.15305436 7.54925319
v 3.03700976 -9.62279602 -7.33990981
v 9.95015949 -8.15305436 -7.36801656
v 27.59979401 -8.15305436 -7.45677442
v 27.16269838 -11.71664559 -7.51890372
v 10.94995346 -8.15305436 7.54925319
v 3.03700976 -10.47749942 7.55812987
v 28.57697979 -11.71664559 7.13061128
v 27.94645688 -8.15305436 7.41463671
v 3.03700976 -9.13648675 -6.85321981
v 9.37741324 -8.15305436 -7.10174300
v 3.03700976 -8.96380202 -6.43014030
v 27.94645688 -8.15305436 -7.40795790
v 27.94645688 -11.71664559 -7.40795790
v 10.29682237 -8.15305436 7.42795099
v 3.03700976 -9.46964685 7.25783077
v 3.03700976 -9.55302386 7.32735855
v 28.67243725 -11.71664559 6.62173181
v 28.70007014 -8.15305436 6.48119805
v 28.61968680 -8.15305436 6.90575874
v 28.57697979 -8.15305436 7.13061128
v 6.88546388 -8.15305436 -4.44196077
v 3.03700976 -8.93449721 -5.51741141
v 6.17706700 -8.15305436 -3.13425614
v 6.20469989 -8.15305436 -3.28070869
v 6.35039844 -8.15305436 -3.62094614
v 28.56190568 -8.15305436 -7.14316253
v 28.56190568 -11.71664559 -7.14316253
v 9.95015949 -8.15305436 7.36286080
v 3.03700976 -9.32417257 7.07291807
v 28.69755779 -11.71664559 6.48119805
v 28.69504544 -11.71664559 -6.51741995
v 28.69504544 -8.15305436 -6.51741995
v 3.03700976 -8.93345114 4.39242608
v 6.12180270 -8.15305436 1.84211147
v 6.12431505 -8.15305436 0.84358411
v 6.13185062 -8.15305436 -2.13868817
v 6.13687384 -8.15305436 -2.51738875
v 28.64982906 -8.15305436 -6.73339581
v 28.59205390 -11.71664559 -7.00706636
v 9.36736532 -8.15305436 7.07883685
v 3.03700976 -8.96310390 6.40871237
v 3.03700976 -9.03217794 6.57291529
v 3.03700976 -8.93345114 5.48119248
v 6.12180270 -8.15305436 2.48116982
v 6.90304886 -8.15305436 4.41905165
v 6.42827092 -8.15305436 3.79034968
v 6.17204379 -8.15305436 3.39389574
v 3.03700976 -8.95996421 6.33030790
f 1 2 5
f 1 5 12
f 1 12 20
f 1 20 30
f 1 30 29
f 1 29 43
f 1 43 56
f 1 56 55
f 1 55 62
f 1 62 57
f 1 57 47
f 1 47 36
f 1 36 25
f 1 25 23
f 1 23 15
f 1 15 7
f 1 7 3
f 1 3 8
f 1 8 11
f 1 11 4
f 1 4 10
f 1 10 18
f 1 18 27
f 1 27 41
f 1 41 53
f 1 53 45
f 1 45 44
f 1 44 31
f 1 31 21
f 1 21 13
f 1 13 6
f 1 6 2
f 2 6 5
f 3 7 8
f 4 9 10
f 4 11 9
f 5 6 12
f 6 13 22
f 6 22 14
f 6 14 12
f 7 15 8
f 8 16 24
f 8 24 35
f 8 35 39
f 8 39 38
f 8 38 37
f 8 37 51
f 8 51 50
f 8 50 49
f 8 49 48
f 8 48 58
f 8 58 61
f 8 61 60
f 8 60 59
f 8 59 54
f 8 54 42
f 8 42 28
f 8 28 19
f 8 19 14
f 8 14 22
f 8 22 34
f 8 34 33
f 8 33 32
f 8 32 46
f 8 46 52
f 8 52 40
f 8 40 26
f 8 26 17
f 8 17 9
f 8 9 11
f 8 15 16
f 9 17 18
f 9 18 10
f 12 19 20
f 12 14 19
f 13 21 34
f 13 34 22
f 15 23 16
f 16 23 25
f 16 25 24
f 17 26 18
f 18 26 27
f 19 28 29
f 19 29 30
f 19 30 20
f 21 31 32
f 21 32 33
f 21 33 34
f 24 25 35
f 25 36 37
f 25 37 38
f 25 38 39
f 25 39 35
f 26 40 41
f 26 41 27
f 28 42 29
f 29 42 43
f 31 44 32
f 32 44 45
f 32 45 46
f 36 47 48
f 36 48 49
f 36 49 50
f 36 50 51
f 36 51 37
f 40 52 53
f 40 53 41
f 42 54 55
f 42 55 56
f 42 56 43
f 45 53 52
f 45 52 46
f 47 57 58
f 47 58 48
f 54 59 55
f 55 60 61
f 55 61 62
f 55 59 60
f 57 62 61
f 57 61 58

