# https://github.com/mikedh/trimesh
v -26.23270648 -2.53082970 -4.30383206
v -27.58335505 -2.02416457 -4.03333250
v -26.23270648 -2.41670283 -4.41281093
v -26.23270648 -2.53082970 -2.10188206
v -27.72393501 -2.53082970 -3.38530062
v -27.74490406 -2.41452203 -3.45341129
v -28.00781143 -1.49932595 -3.51762975
v -27.69830336 -1.49932595 -4.11214824
v -26.23270648 -0.65464141 -4.90418886
v -26.23270648 -2.38108360 -4.42546210
v -26.23270648 -2.53010289 4.18092656
v -26.23348284 -2.53082970 4.17898045
v -28.06140232 -2.53082970 -2.51444426
v -28.07208205 -2.49957208 -2.51736192
v -28.14256500 -0.49980672 -3.51762975
v -27.83558269 -0.49980672 -4.24253127
v -26.23270648 -0.49980672 -4.92656757
v -26.23270648 -2.43923725 4.33077361
v -27.74704090 -2.53082970 3.40056256
v -28.16198283 -2.53082970 -1.51709410
v -28.16683617 -2.49957208 -1.51709410
v -28.17188472 -1.49932595 -2.51736192
v -28.13771166 0.50043936 -3.51762975
v -28.18780671 0.50043936 -2.51736192
v -26.23270648 0.50043936 -4.92170380
v -27.82179604 0.50043936 -4.23377529
v -26.23270648 -2.39053361 4.36288284
v -27.58102449 -2.02997978 3.99994481
v -27.72995363 -1.49932595 4.13130239
v -27.75966227 -2.41742964 3.45699959
v -28.02664513 -1.49932595 3.48132440
v -28.10547875 -2.49957208 2.48202813
v -28.09382895 -2.53082970 2.48202813
v -28.19188519 -2.53082970 -0.51780081
v -28.19402054 -2.49957208 -0.51780081
v -28.21013625 -2.49957208 0.48149546
v -28.18761300 -1.49932595 -1.51709410
v -27.87810492 1.59882010 -3.61687809
v -28.17033201 1.49995845 -2.51736192
v -28.08489713 2.49947767 -2.51736192
v -28.19945801 1.49995845 -1.51709410
v -28.19596217 2.49947767 -1.51709410
v -26.23270648 1.49995845 -4.77282831
v -27.69733328 1.33203933 -4.11701201
v -26.23270648 -0.49980672 5.01383537
v -27.84878520 -0.49980672 4.23347138
v -28.16741881 -0.49980672 3.48132440
v -28.19615589 -2.49957208 1.48176328
v -28.19440946 -2.53082970 1.45062562
v -28.09965385 -2.53082970 2.45478565
v -28.20800090 -2.53082970 0.48149546
v -28.21635007 -1.49932595 1.48176328
v -27.76839887 2.49947767 -3.35610905
v -27.78626250 3.24311994 -2.51736192
v -27.65403321 3.07738144 -3.13620522
v -28.12431394 3.49972371 -0.51780081
v -28.20275863 2.49947767 -0.51780081
v -28.14489556 3.49972371 0.48149546
v -26.23270648 2.45368145 -4.42935430
v -27.54995835 1.99862757 -4.01679211
v -26.23270648 -0.19086443 5.00897160
v -26.23270648 0.50043936 4.99632043
v -27.80917468 0.50043936 4.18287266
v -28.13479847 0.50043936 3.48132440
v -28.20217600 1.49995845 2.48202813
v -28.20994253 0.50043936 2.48202813
v -28.20275863 -0.49980672 2.48202813
v -27.87849384 3.54842773 -1.52098631
v -27.80529141 4.23246217 -0.51780081
v -27.67267319 4.08998528 -1.19016049
v -26.23270648 4.38802348 -2.36362564
v -26.23270648 3.50481212 -3.51276598
v -27.82839730 4.25281580 0.48149546
v -28.19906908 2.49947767 0.48149546
v -28.19168998 2.49947767 1.48176328
v -28.12237231 2.49947767 2.48202813
v -27.89344427 3.59567738 1.57419877
v -26.23270648 0.72433165 4.94669626
v -27.61442268 2.05896239 4.02232352
v -27.71539063 1.49995845 4.09822159
v -28.03713115 1.49995845 3.48132440
v -26.23270648 4.88160420 -0.51780081
v -26.23270648 4.62718123 -1.51709410
v -27.70354711 4.11833529 1.30175310
v -26.23270648 4.69405808 1.48176328
v -26.23270648 4.87942340 0.61771680
v -26.23270648 4.89541580 0.48149546
v -27.80451505 3.34343521 2.48202813
v -27.79267004 2.43550843 3.45116127
v -27.68082865 3.13117387 3.09697922
v -26.23270648 2.35045857 4.38720766
v -26.23270648 2.40207001 4.36872116
v -26.23270648 2.96616217 4.03302859
v -27.52879260 3.99257761 1.96827447
v -26.23270648 4.39383907 2.44797280
v -26.23270648 4.04709685 2.98216205
f 1 2 3
f 1 3 10
f 1 10 9
f 1 9 17
f 1 17 25
f 1 25 43
f 1 43 59
f 1 59 72
f 1 72 71
f 1 71 83
f 1 83 82
f 1 82 87
f 1 87 86
f 1 86 85
f 1 85 95
f 1 95 96
f 1 96 93
f 1 93 92
f 1 92 91
f 1 91 78
f 1 78 62
f 1 62 61
f 1 61 45
f 1 45 27
f 1 27 18
f 1 18 11
f 1 11 4
f 1 4 12
f 1 12 19
f 1 19 33
f 1 33 50
f 1 50 49
f 1 49 51
f 1 51 34
f 1 34 20
f 1 20 13
f 1 13 5
f 1 5 2
f 2 6 7
f 2 7 8
f 2 8 9
f 2 9 10
f 2 10 3
f 2 5 6
f 4 11 12
f 5 13 6
f 6 13 14
f 6 14 7
f 7 14 15
f 7 15 16
f 7 16 8
f 8 16 9
f 9 16 17
f 11 18 19
f 11 19 12
f 13 20 14
f 14 20 21
f 14 21 22
f 14 22 15
f 15 23 16
f 15 22 24
f 15 24 23
f 16 25 17
f 16 23 26
f 16 26 25
f 18 27 28
f 18 28 19
f 19 28 29
f 19 29 30
f 19 30 31
f 19 31 32
f 19 32 33
f 20 34 21
f 21 34 35
f 21 35 22
f 22 35 36
f 22 36 37
f 22 37 24
f 23 38 26
f 23 24 39
f 23 39 40
f 23 40 38
f 24 41 42
f 24 42 39
f 24 37 36
f 24 36 41
f 25 26 43
f 26 38 44
f 26 44 43
f 27 45 29
f 27 29 28
f 29 31 30
f 29 45 46
f 29 46 31
f 31 47 32
f 31 46 47
f 32 48 49
f 32 49 50
f 32 50 33
f 32 47 48
f 34 51 36
f 34 36 35
f 36 51 48
f 36 48 52
f 36 52 41
f 38 40 53
f 38 53 44
f 39 42 40
f 40 54 55
f 40 55 53
f 40 42 56
f 40 56 54
f 41 57 42
f 41 52 57
f 42 57 58
f 42 58 56
f 43 44 60
f 43 60 59
f 44 53 60
f 45 61 46
f 46 61 62
f 46 62 63
f 46 63 64
f 46 64 47
f 47 64 65
f 47 65 66
f 47 66 67
f 47 67 48
f 48 67 52
f 48 51 49
f 52 67 66
f 52 66 57
f 53 55 60
f 54 56 68
f 54 68 69
f 54 69 70
f 54 70 55
f 55 70 71
f 55 71 72
f 55 72 59
f 55 59 60
f 56 69 68
f 56 58 73
f 56 73 69
f 57 66 65
f 57 65 74
f 57 74 58
f 58 74 75
f 58 75 76
f 58 76 77
f 58 77 73
f 62 78 79
f 62 79 80
f 62 80 63
f 63 80 81
f 63 81 64
f 64 81 76
f 64 76 65
f 65 76 75
f 65 75 74
f 69 82 83
f 69 83 71
f 69 71 70
f 69 73 82
f 73 77 84
f 73 84 85
f 73 85 86
f 73 86 87
f 73 87 82
f 76 88 77
f 76 81 89
f 76 89 90
f 76 90 88
f 77 88 84
f 78 91 79
f 79 89 81
f 79 81 80
f 79 91 92
f 79 92 93
f 79 93 90
f 79 90 89
f 84 88 94
f 84 94 85
f 85 94 95
f 88 90 94
f 90 96 94
f 90 93 96
f 94 96 95

