# https://github.com/mikedh/trimesh
v -38.05270945 17.51195957 8.06666660
v -37.05273667 17.51195957 8.16764647
v -42.31121193 17.51195957 8.08910641
v -43.05178658 35.90408356 -9.67875469
v -42.62105081 35.90408356 -9.68099882
v -42.05181082 35.90408356 -9.68324295
v -38.05351114 35.90408356 -9.68548708
v -36.55234794 17.99989681 7.98139564
v -36.46988438 17.51195957 8.53117161
v -37.05353687 35.90408356 -9.55982179
v -43.05178658 17.51195957 8.09808293
v -43.78595370 35.74744154 -9.26810582
v -43.83639446 35.90408356 -9.33317961
v -43.19109249 17.51195957 8.10930357
v -36.59157849 35.90408356 -9.29727652
v -36.48429539 35.84826941 -9.17610247
v -36.46187793 17.51195957 8.58278212
v -36.46988438 35.90408356 -9.20527317
v -36.38581893 35.90408356 -8.92253073
v -43.91325515 17.51195957 8.46834045
v -44.01333200 35.44855806 -8.56573799
v -44.18145992 35.90408356 -8.54554082
v -36.35139255 17.51195957 9.46915665
v -36.34498650 35.90408356 -8.50963773
v -44.29835135 17.51195957 9.25597925
v -44.40643614 17.51195957 9.48037729
v -44.40083029 35.49897199 -7.51555392
v -44.42004695 35.90408356 -7.51555392
v -36.34578819 17.51195957 13.23680571
v -36.29534892 35.90408356 -7.92171454
v -36.27853583 35.90408356 0.07808561
v -44.44886896 17.51195957 10.48119349
v -44.44886896 35.49897199 -6.51473773
v -44.44806727 35.90408356 -6.51473773
v -36.34578819 17.74422400 13.23680571
v -44.45767561 17.51195957 13.23680571
v -36.28814416 35.90408356 0.48424623
v -36.35139255 22.74241748 13.23680571
v -44.44806727 35.90408356 -1.51514203
v -44.44486648 22.50114972 13.23680571
v -44.44726857 22.50114972 12.48058175
v -44.44806727 31.50005838 3.47996540
v -44.44806727 34.49969361 0.48424623
v -44.44806727 35.49897199 -0.51432584
v -36.34178571 35.90408356 1.07441355
v -36.43225423 23.87133235 13.23680571
v -36.40663599 23.56704716 13.23680571
v -44.43285607 35.90408356 -0.51432584
v -44.27593390 23.50042811 13.23680571
v -44.42004695 23.50042811 12.48058175
v -44.41124030 35.49897199 0.48424623
v -36.41464094 35.90408356 1.36164424
v -36.48109311 24.18461938 13.23680571
v -44.26552686 35.90408356 0.50668752
v -43.85080398 24.30525252 13.23680571
v -44.03094529 35.55478615 1.53891855
v -36.97187350 35.90408356 1.74312242
v -37.00149571 24.51411005 13.23680571
v -43.91725763 35.90408356 1.39305907
v -43.49292642 24.48890308 13.23680571
v -43.80196659 35.25950579 2.23904225
v -37.05353687 35.90408356 1.77902551
v -38.05270945 24.64014638 13.23680571
v -38.05751362 35.90408356 1.90917608
v -43.05178658 35.90408356 1.88449363
v -43.05178658 24.62754290 13.23680571
v -41.05503883 35.90408356 1.90917608
v -42.05100913 24.63834482 13.23680571
v -42.05341122 35.90408356 1.90693195
v -42.65147620 24.63294460 13.23680571
f 1 2 9
f 1 9 17
f 1 17 23
f 1 23 29
f 1 29 36
f 1 36 32
f 1 32 26
f 1 26 25
f 1 25 20
f 1 20 14
f 1 14 11
f 1 11 3
f 1 3 4
f 1 4 5
f 1 5 6
f 1 6 7
f 1 7 2
f 2 8 9
f 2 7 10
f 2 10 8
f 3 11 4
f 4 12 13
f 4 13 22
f 4 22 28
f 4 28 34
f 4 34 39
f 4 39 48
f 4 48 54
f 4 54 59
f 4 59 65
f 4 65 69
f 4 69 67
f 4 67 64
f 4 64 62
f 4 62 57
f 4 57 52
f 4 52 45
f 4 45 37
f 4 37 31
f 4 31 30
f 4 30 24
f 4 24 19
f 4 19 18
f 4 18 15
f 4 15 10
f 4 10 7
f 4 7 6
f 4 6 5
f 4 11 14
f 4 14 12
f 8 10 15
f 8 15 16
f 8 16 9
f 9 16 18
f 9 18 19
f 9 19 17
f 12 14 20
f 12 20 13
f 13 20 21
f 13 21 22
f 15 18 16
f 17 19 23
f 19 24 23
f 20 25 21
f 21 25 26
f 21 26 22
f 22 27 28
f 22 26 27
f 23 24 30
f 23 30 31
f 23 31 29
f 26 32 33
f 26 33 28
f 26 28 27
f 28 33 34
f 29 35 38
f 29 38 47
f 29 47 46
f 29 46 53
f 29 53 58
f 29 58 63
f 29 63 68
f 29 68 70
f 29 70 66
f 29 66 60
f 29 60 55
f 29 55 49
f 29 49 40
f 29 40 36
f 29 31 35
f 31 37 38
f 31 38 35
f 32 36 33
f 33 39 34
f 33 36 39
f 36 40 41
f 36 41 42
f 36 42 43
f 36 43 44
f 36 44 39
f 37 45 46
f 37 46 47
f 37 47 38
f 39 44 48
f 40 42 41
f 40 49 50
f 40 50 51
f 40 51 48
f 40 48 44
f 40 44 43
f 40 43 42
f 45 52 53
f 45 53 46
f 48 51 54
f 49 55 56
f 49 56 54
f 49 54 51
f 49 51 50
f 52 57 53
f 53 57 58
f 54 56 59
f 55 60 61
f 55 61 59
f 55 59 56
f 57 62 58
f 58 62 64
f 58 64 63
f 59 61 65
f 60 66 65
f 60 65 61
f 63 67 68
f 63 64 67
f 65 66 69
f 66 70 69
f 67 69 68
f 68 69 70

