# https://github.com/mikedh/trimesh
v -22.42288462 46.54872892 27.50284875
v -22.42430471 46.54939650 38.08782276
v -22.42288462 40.45052603 27.50284875
v -22.42288462 46.54872892 13.24037605
v -28.05302334 46.54939650 38.08782276
v -22.42430471 40.45052603 38.08782276
v -22.42430471 46.54939650 27.50284875
v -22.42288462 40.36853335 18.48421827
v -22.42288462 40.44652653 13.24037605
v -28.05444343 46.54872892 13.24037605
v -29.05150600 46.30941471 38.08782276
v -28.05302334 46.54939650 27.50284875
v -28.07574776 46.54406483 27.50284875
v -23.17565298 40.43719537 38.08782276
v -33.12923684 39.73924725 35.40023180
v -32.10660818 39.73924725 34.42491539
v -30.39938740 39.79591077 13.24037605
v -22.42288462 40.36853335 18.11208915
v -22.42288462 40.38586351 15.11317663
v -29.05434618 46.30474764 13.24037605
v -29.05434618 46.30674739 22.48276978
v -29.05150600 46.30941471 33.47878607
v -29.48186179 46.08676607 38.08782276
v -36.71979785 43.16631911 13.24037605
v -29.01741788 40.43719537 38.08782276
v -33.97148427 39.73924725 35.40023180
v -32.10660818 39.73924725 33.53472688
v -36.93284710 39.79591077 13.24037605
v -32.23017537 39.73924725 30.48230506
v -32.37362830 39.73924725 29.96910908
v -32.92613119 39.73924725 29.36835330
v -33.81240887 39.73924725 29.18836994
v -29.05434618 46.30741496 26.48132129
v -29.57986290 46.03476962 38.08782276
v -36.74394385 43.11565781 13.24037605
v -34.42030421 42.50170511 38.08782276
v -33.97148427 43.27497908 38.08782276
v -33.04969839 40.45185820 38.08782276
v -34.48990054 39.73924725 34.78488285
v -33.41471961 40.55985060 38.08782276
v -33.97148427 40.72583870 38.08782276
v -36.89023696 42.50103753 13.24037605
v -34.10499358 39.73924725 29.18836994
v -34.54529299 39.73924725 29.48023493
v -34.77822499 39.73924725 30.48230506
v -34.53819105 39.73924725 34.47842432
v -34.42030421 41.50111243 38.08782276
v -34.24418624 41.19513595 38.08782276
f 1 2 6
f 1 6 3
f 1 3 8
f 1 8 18
f 1 18 19
f 1 19 9
f 1 9 4
f 1 4 7
f 1 7 2
f 2 5 11
f 2 11 23
f 2 23 34
f 2 34 37
f 2 37 36
f 2 36 47
f 2 47 48
f 2 48 41
f 2 41 40
f 2 40 38
f 2 38 25
f 2 25 14
f 2 14 6
f 2 7 12
f 2 12 5
f 3 6 8
f 4 9 17
f 4 17 28
f 4 28 42
f 4 42 35
f 4 35 24
f 4 24 20
f 4 20 10
f 4 10 12
f 4 12 7
f 5 12 13
f 5 13 11
f 6 14 15
f 6 15 16
f 6 16 8
f 8 17 18
f 8 16 17
f 9 19 17
f 10 20 21
f 10 21 22
f 10 22 13
f 10 13 12
f 11 13 22
f 11 22 24
f 11 24 23
f 14 25 26
f 14 26 15
f 15 26 39
f 15 39 46
f 15 46 45
f 15 45 44
f 15 44 43
f 15 43 32
f 15 32 31
f 15 31 30
f 15 30 29
f 15 29 27
f 15 27 16
f 16 27 17
f 17 19 18
f 17 27 29
f 17 29 30
f 17 30 31
f 17 31 32
f 17 32 43
f 17 43 28
f 20 24 21
f 21 33 22
f 21 24 33
f 22 33 24
f 23 24 34
f 24 35 36
f 24 36 37
f 24 37 34
f 25 38 26
f 26 38 40
f 26 40 41
f 26 41 39
f 28 36 42
f 28 43 44
f 28 44 45
f 28 45 46
f 28 46 47
f 28 47 36
f 35 42 36
f 39 41 48
f 39 48 47
f 39 47 46

