# https://github.com/mikedh/trimesh
v -1.05154907 -19.49931056 -12.54658531
v -1.05154907 -5.50093697 -12.54412958
v -0.05215073 -11.71689891 -12.50238520
v -0.05215073 -19.49931056 -12.50238520
v -2.05170663 -19.49931056 -12.41644368
v -2.05170663 -11.71689891 -12.41644368
v -0.05290995 -5.50093697 -12.49992947
v -2.05170663 -5.50093697 -12.41398795
v -2.05170663 -4.71688155 -12.21263321
v -1.05154907 -4.63880865 -12.27647914
v -0.05290995 -4.65375908 -12.25683332
v 0.15213360 -11.71689891 -12.44590943
v 0.89029127 -19.49931056 -12.23964621
v -2.65013074 -19.49931056 -12.15124599
v -2.65013074 -11.71689891 -12.15124599
v -2.65240914 -5.50093697 -12.14879026
v 0.88877284 -11.71689891 -12.23964621
v 0.73688878 -4.77834366 -12.16352462
v 0.88345607 -5.50093697 -12.23719048
v -2.61823534 -4.86306178 -12.10213740
v -4.06417298 -2.53249119 -10.53796721
v -4.02012635 -2.53249119 -10.53796721
v -3.05110497 -2.53249119 -10.51832437
v -3.01617195 -2.53249119 -10.51341292
v -2.17093532 -2.53249119 -10.26049386
v 0.89029127 -18.49930798 -12.23964621
v 1.38999007 -19.49931056 -11.97444852
v -2.74961526 -19.49931056 -11.51526624
v -4.06341376 -9.13217507 -10.13034925
v -4.06341376 -9.12386911 -10.13526070
v -4.06341376 -8.50094435 -10.40045840
v -4.06341376 -8.48765541 -10.40291413
v -4.06417298 -7.54080934 -10.54533439
v -4.06417298 -7.50094177 -10.55024585
v -2.65240914 -7.50094177 -12.14879026
v -4.06417298 -7.48765282 -10.55024585
v 1.38847163 -11.71689891 -11.97199279
v 1.38999007 -18.49930798 -11.97444852
v 1.02091123 -4.66040355 -11.53490908
v 1.48112170 -4.92286239 -11.21814707
v 1.38315635 -5.50093697 -11.82220534
v 0.87510242 -2.53249119 -7.55941727
v 1.38619323 -9.50094694 -11.95480568
v 1.38695319 -10.50094878 -11.96953706
v -4.06417298 -2.53249119 10.53779443
v 1.78564977 -18.49930798 -11.47352186
v 1.78488981 -19.49931056 -11.47352186
v -2.74961526 -19.49931056 1.47936716
v -4.06341376 -10.08898785 -7.52749579
v -4.06341376 -10.07237667 -8.52198193
v -4.06341376 -10.03084835 -9.05728579
v -4.06341376 -9.62553189 -9.56312391
v -4.06417298 -7.54080934 10.54270588
v 1.47428649 -11.71689891 -11.86394973
v 1.78564977 -15.49930022 -11.47352186
v 0.88573447 -2.53249119 -7.53485999
v 1.30113834 -2.53249119 -6.51581956
v 3.03641669 -8.96440031 -6.42741933
v 3.69407479 -11.71689891 -7.22300944
v 2.23294830 -10.50094878 -10.51095719
v 1.78337137 -10.50094878 -11.46861040
v -4.06417298 -7.50094177 10.55007158
v -2.65316836 -5.50093697 12.11915173
v -2.61899456 -4.86306178 12.07249589
v -2.05170663 -4.71355932 12.18790613
v -1.05154907 -4.63382492 12.25666054
v -4.05126253 -2.53249119 10.53779443
v 2.23446673 -19.49931056 -10.51341292
v -2.73518563 -19.49931056 2.47876476
v -4.06341376 -10.03084835 9.02273581
v -4.06341376 -10.07403816 8.47760904
v -4.06341376 -10.08898785 7.47575571
v -4.06341376 -9.64712605 9.52366247
v -4.06341376 -9.15543072 10.10562217
v -4.06341376 -9.14878625 10.11298787
v -4.06341376 -8.50924957 10.39537416
v -4.06341376 -8.50094435 10.39782989
v 1.78488981 -11.71689891 -11.47106613
v 1.88209519 -11.71689891 -11.26480291
v 2.23446673 -12.49929246 -10.51341292
v 1.30341674 -2.53249119 -6.48389808
v 1.33303448 -2.53249119 -5.51396624
v 3.03641669 -8.93450019 -5.51396624
v 3.69407479 -12.49929246 -7.22300944
v 2.23370826 -11.71689891 -10.51341292
v 3.69407479 -11.71689891 7.23265956
v -2.61747537 -17.25345698 12.07495162
v -2.65013074 -16.49930281 12.12160746
v -2.65316836 -7.54080934 12.11915173
v -2.65013074 -11.71689891 12.12160746
v -2.05170663 -11.71689891 12.40399226
v -2.05170663 -5.50093697 12.40153653
v -1.05154907 -5.50093697 12.53413538
v -0.05290995 -4.64545312 12.23947194
v -3.05110497 -2.53249119 10.51323865
v 3.69407479 -19.49931056 -7.22055371
v -2.63722029 -19.49931056 3.34802072
v -2.65013074 -17.38136491 11.47826053
v 1.33607136 -2.53249119 -4.51456566
v 1.34594493 -2.53249119 4.47755995
v 3.03641669 -8.93450019 5.47696052
v 1.48112170 -4.92120128 11.22534147
v 1.41125417 -5.50093697 11.84658834
v 2.23066989 -10.50094878 10.47640572
v 2.23750510 -11.71689891 10.47886144
v 2.24206190 -12.49929246 10.47886144
v 2.24737718 -13.49929505 10.47886144
v 2.25193399 -14.49929763 10.47886144
v 2.25345243 -15.49930022 10.47886144
v 2.25421239 -16.49930281 10.47886144
v 3.69407479 -16.49930281 7.23511529
v 3.03641669 -8.96107807 6.32657067
v 3.03641669 -8.96440031 6.40514798
v 1.32088400 -2.53249119 6.47635812
v -1.70085427 -18.01591712 12.00619721
v -2.04107458 -17.55080116 12.16580608
v -2.05170663 -16.49930281 12.40399226
v -2.27877350 -17.88136472 11.47826053
v -1.05154907 -11.71689891 12.53904535
v -1.09103890 -7.54080934 12.53167965
v -1.05154907 -7.54080934 12.53658962
v -0.05215073 -15.49930022 12.51694529
v -0.05215073 -13.49929505 12.51449105
v -0.05215073 -11.71689891 12.51203533
v -0.05290995 -5.50093697 12.50221242
v 0.75663295 -4.77003807 12.14125029
v -2.16789845 -2.53249119 10.24067526
v 3.69407479 -19.49931056 7.04849491
v -2.63190426 -19.49931056 3.37748647
v 1.34594493 -2.53249119 4.50702570
v 1.33986820 -2.53249119 5.47696052
v 0.90092332 -2.53249119 7.56415445
v 1.03306321 -4.65541982 11.52491339
v 1.80235706 -10.50094878 11.42914896
v 0.91155537 -5.50093697 12.22473906
v 1.40366049 -9.50094694 11.93253135
v 3.69407479 -17.49099943 7.20810378
v 1.80767234 -11.71689891 11.41687032
v 1.81071071 -12.49929246 11.40950463
v 1.81754443 -14.49929763 11.38740458
v 1.81830439 -15.49930022 11.37512743
v 1.81754443 -16.49930281 11.36285028
v -1.05154907 -18.02422308 12.01847436
v -1.05154907 -17.49930539 12.29840493
v 1.65123148 -19.49931056 6.88397310
v 2.15093028 -19.49931056 7.01657344
v -1.05154907 -16.49930281 12.53904535
v -0.05215073 -16.49930281 12.51449105
v 0.87434395 -11.71689891 12.23456048
v 0.90396169 -9.50094694 12.22965052
v 0.87206554 -7.54080934 12.23947194
v 0.91079540 -6.50093993 12.22719479
v 0.83561260 -2.53249119 7.66237609
v 0.45438327 -2.53249119 8.03561536
v 1.66414193 -17.49930539 11.20078420
v 1.48871538 -18.01591712 11.02153100
v 0.48551945 -18.01425712 12.00374148
v -0.05215073 -18.02256308 12.01602012
v 2.94756347 -19.49931056 7.05095064
v 0.91003693 -7.54080934 12.22719479
v 0.90927697 -8.50094435 12.22719479
v 0.85156141 -13.49929505 12.23701621
v 0.82953735 -15.49930022 12.23701621
v 0.81814683 -16.49930281 12.23701621
v 1.39151000 -10.50094878 11.93007562
v 1.32923764 -15.49930022 11.87605409
v 1.31784563 -16.49930281 11.86377694
v -0.05215073 -17.49930539 12.28367056
v 0.65866760 -17.49930539 12.12651742
v 1.15836640 -17.49930539 11.69925662
v 1.33986820 -14.49929763 11.88833124
f 1 2 3
f 1 3 4
f 1 4 13
f 1 13 27
f 1 27 47
f 1 47 68
f 1 68 96
f 1 96 128
f 1 128 159
f 1 159 146
f 1 146 145
f 1 145 129
f 1 129 97
f 1 97 69
f 1 69 48
f 1 48 28
f 1 28 14
f 1 14 5
f 1 5 6
f 1 6 2
f 2 7 3
f 2 6 8
f 2 8 9
f 2 9 10
f 2 10 11
f 2 11 7
f 3 7 12
f 3 12 4
f 4 12 13
f 5 14 15
f 5 15 6
f 6 15 16
f 6 16 8
f 7 17 12
f 7 11 18
f 7 18 19
f 7 19 17
f 8 16 20
f 8 20 9
f 9 20 21
f 9 21 10
f 10 21 22
f 10 22 23
f 10 23 11
f 11 23 24
f 11 24 25
f 11 25 18
f 12 17 26
f 12 26 13
f 13 26 38
f 13 38 27
f 14 28 29
f 14 29 30
f 14 30 31
f 14 31 32
f 14 32 33
f 14 33 34
f 14 34 35
f 14 35 16
f 14 16 15
f 16 35 34
f 16 34 36
f 16 36 21
f 16 21 20
f 17 19 37
f 17 37 38
f 17 38 26
f 18 39 40
f 18 40 41
f 18 41 19
f 18 25 42
f 18 42 39
f 19 41 43
f 19 43 44
f 19 44 37
f 21 36 34
f 21 34 33
f 21 33 53
f 21 53 62
f 21 62 45
f 21 45 67
f 21 67 95
f 21 95 127
f 21 127 154
f 21 154 153
f 21 153 132
f 21 132 114
f 21 114 131
f 21 131 130
f 21 130 100
f 21 100 99
f 21 99 82
f 21 82 81
f 21 81 57
f 21 57 56
f 21 56 42
f 21 42 25
f 21 25 24
f 21 24 23
f 21 23 22
f 27 38 55
f 27 55 46
f 27 46 47
f 28 48 72
f 28 72 49
f 28 49 50
f 28 50 51
f 28 51 52
f 28 52 29
f 29 52 33
f 29 33 30
f 30 33 31
f 31 33 32
f 33 52 51
f 33 51 50
f 33 50 49
f 33 49 72
f 33 72 53
f 37 44 54
f 37 54 38
f 38 54 55
f 39 42 40
f 40 42 56
f 40 56 57
f 40 57 58
f 40 58 59
f 40 59 41
f 41 59 60
f 41 60 61
f 41 61 43
f 43 61 44
f 44 61 54
f 45 62 63
f 45 63 64
f 45 64 65
f 45 65 66
f 45 66 67
f 46 55 80
f 46 80 68
f 46 68 47
f 48 69 70
f 48 70 71
f 48 71 72
f 53 72 71
f 53 71 70
f 53 70 73
f 53 73 74
f 53 74 75
f 53 75 76
f 53 76 77
f 53 77 62
f 54 61 78
f 54 78 55
f 55 78 79
f 55 79 80
f 57 81 58
f 58 81 82
f 58 82 83
f 58 83 59
f 59 84 68
f 59 68 80
f 59 80 85
f 59 85 60
f 59 83 101
f 59 101 86
f 59 86 111
f 59 111 137
f 59 137 128
f 59 128 96
f 59 96 84
f 60 85 79
f 60 79 61
f 61 79 78
f 62 77 87
f 62 87 88
f 62 88 89
f 62 89 63
f 63 89 88
f 63 88 90
f 63 90 91
f 63 91 92
f 63 92 64
f 64 92 65
f 65 92 93
f 65 93 66
f 66 93 94
f 66 94 95
f 66 95 67
f 68 84 96
f 69 97 98
f 69 98 70
f 70 98 87
f 70 87 73
f 73 87 74
f 74 87 75
f 75 87 76
f 76 87 77
f 79 85 80
f 82 99 83
f 83 99 100
f 83 100 130
f 83 130 101
f 86 102 103
f 86 103 104
f 86 104 105
f 86 105 106
f 86 106 107
f 86 107 108
f 86 108 109
f 86 109 110
f 86 110 111
f 86 101 112
f 86 112 113
f 86 113 114
f 86 114 102
f 87 115 116
f 87 116 117
f 87 117 88
f 87 98 118
f 87 118 115
f 88 117 91
f 88 91 90
f 91 119 92
f 91 117 147
f 91 147 119
f 92 119 120
f 92 120 93
f 93 120 121
f 93 121 122
f 93 122 123
f 93 123 124
f 93 124 125
f 93 125 94
f 94 125 126
f 94 126 127
f 94 127 95
f 97 129 98
f 98 129 118
f 101 130 131
f 101 131 112
f 102 132 133
f 102 133 126
f 102 126 103
f 102 114 132
f 103 134 104
f 103 126 135
f 103 135 136
f 103 136 134
f 104 134 105
f 105 134 106
f 106 134 107
f 107 134 108
f 108 134 109
f 109 134 110
f 110 128 137
f 110 137 111
f 110 134 138
f 110 138 139
f 110 139 140
f 110 140 141
f 110 141 142
f 110 142 128
f 112 131 113
f 113 131 114
f 115 143 144
f 115 144 116
f 115 118 129
f 115 129 145
f 115 145 146
f 115 146 143
f 116 144 147
f 116 147 117
f 119 147 122
f 119 122 121
f 119 121 120
f 122 147 148
f 122 148 149
f 122 149 150
f 122 150 151
f 122 151 152
f 122 152 123
f 123 152 124
f 124 152 125
f 125 152 135
f 125 135 126
f 126 133 153
f 126 153 154
f 126 154 127
f 128 142 155
f 128 155 156
f 128 156 157
f 128 157 158
f 128 158 143
f 128 143 159
f 132 153 133
f 134 136 139
f 134 139 138
f 135 152 136
f 136 152 160
f 136 160 161
f 136 161 150
f 136 150 149
f 136 149 162
f 136 162 163
f 136 163 164
f 136 164 165
f 136 165 142
f 136 142 141
f 136 141 140
f 136 140 139
f 142 165 166
f 142 166 167
f 142 167 155
f 143 146 159
f 143 158 144
f 144 168 147
f 144 158 168
f 147 168 148
f 148 168 169
f 148 169 164
f 148 164 163
f 148 163 162
f 148 162 149
f 150 161 160
f 150 160 152
f 150 152 151
f 155 167 170
f 155 170 156
f 156 170 157
f 157 169 168
f 157 168 158
f 157 170 169
f 164 169 167
f 164 167 166
f 164 166 171
f 164 171 165
f 165 171 166
f 167 169 170

