# https://github.com/mikedh/trimesh
v -32.93002936 43.54938576 59.29835064
v -39.05205936 43.54938576 59.29835064
v -32.93002936 38.45013045 59.29835064
v -32.93002936 43.54938576 52.36085076
v -35.05226807 43.55004141 51.48274941
v -39.05205936 43.54938576 58.48236965
v -39.86768272 43.53495836 59.29835064
v -38.23643303 38.44947479 59.29835064
v -32.93002936 36.92527574 53.09539935
v -32.93002936 43.52708751 51.36102401
v -35.05226807 43.54938576 50.72301621
v -36.05282200 43.54938576 52.48257616
v -35.29210978 43.54545183 50.72301621
v -40.06714798 43.49495146 59.29835064
v -39.05205936 43.53167710 57.48170545
v -39.05205936 38.44947479 59.29835064
v -33.05277699 36.92527574 53.09539935
v -33.05277699 36.84985153 52.48257616
v -32.93002936 36.85968934 52.55812852
v -32.93002936 43.51134583 50.72301621
v -36.11580962 43.38083166 50.72301621
v -36.05282200 43.53167710 51.48274941
v -40.77779197 43.26671187 59.29835064
v -39.90805917 43.25687406 57.48170545
v -40.06714798 38.50391207 59.29835064
v -34.05252327 36.94494838 53.06098043
v -34.05252327 36.86952715 52.48257616
v -35.05226807 36.86559024 51.48274941
v -35.05226807 36.86952715 50.72301621
v -32.93002936 36.86034500 51.48274941
v -32.93002936 36.85050718 52.48257616
v -32.93002936 36.90428583 50.72301621
v -36.37341810 43.29819525 50.72301621
v -36.90882330 43.25687406 51.48274941
v -40.86258311 43.23457581 59.29835064
v -40.70834019 43.15915458 58.66873671
v -36.72227891 43.16571114 50.72301621
v -40.86258311 38.76494039 59.29835064
v -36.57692012 36.97971004 50.72301621
v -36.56157778 36.99282612 51.01515687
v -36.03828582 36.93576920 51.40215894
v -35.69507706 36.95085226 52.11488165
v -34.99816309 36.92593139 52.46242817
v -34.62911256 36.97708741 53.01229057
v -35.81297880 36.88658015 50.72301621
v -34.81323400 36.87214977 50.72301621
v -32.93002936 36.89838493 50.82375467
v -41.17591187 42.50002126 59.29835064
v -39.78692684 42.50002126 56.51210143
v -40.78667312 42.50002126 58.51259238
v -38.70885060 43.15915458 54.66943268
v -36.89105802 42.50002126 50.72301621
v -37.70829667 43.15915458 52.66978067
v -41.14118598 39.35127212 59.29835064
v -40.70834019 38.84102026 58.66873671
v -36.76346450 37.70114850 50.72301621
v -36.44528985 36.96003441 50.72301621
v -36.04878376 36.90428583 50.72301621
v -36.99119298 38.74001953 50.72301621
v -41.17914247 41.49984582 59.29835064
v -41.17591187 39.50080625 59.29835064
v -41.17995012 40.31012936 59.29835064
f 1 2 7
f 1 7 14
f 1 14 23
f 1 23 35
f 1 35 48
f 1 48 60
f 1 60 62
f 1 62 61
f 1 61 54
f 1 54 38
f 1 38 25
f 1 25 16
f 1 16 8
f 1 8 3
f 1 3 9
f 1 9 19
f 1 19 31
f 1 31 30
f 1 30 47
f 1 47 32
f 1 32 20
f 1 20 10
f 1 10 4
f 1 4 5
f 1 5 2
f 2 5 6
f 2 6 7
f 3 8 9
f 4 10 11
f 4 11 5
f 5 11 12
f 5 12 6
f 6 12 13
f 6 13 7
f 7 13 15
f 7 15 14
f 8 16 17
f 8 17 9
f 9 17 18
f 9 18 19
f 10 20 11
f 11 13 12
f 11 20 32
f 11 32 46
f 11 46 29
f 11 29 45
f 11 45 58
f 11 58 57
f 11 57 39
f 11 39 56
f 11 56 59
f 11 59 52
f 11 52 37
f 11 37 33
f 11 33 21
f 11 21 13
f 13 21 22
f 13 22 15
f 14 15 24
f 14 24 23
f 15 22 34
f 15 34 24
f 16 25 26
f 16 26 17
f 17 26 27
f 17 27 18
f 18 27 28
f 18 28 29
f 18 29 30
f 18 30 31
f 18 31 19
f 21 33 22
f 22 33 34
f 23 24 35
f 24 36 35
f 24 34 37
f 24 37 36
f 25 38 39
f 25 39 40
f 25 40 41
f 25 41 42
f 25 42 43
f 25 43 44
f 25 44 26
f 26 44 43
f 26 43 27
f 27 43 28
f 28 43 42
f 28 42 41
f 28 41 45
f 28 45 29
f 29 46 30
f 30 46 47
f 32 47 46
f 33 37 34
f 35 36 48
f 36 49 50
f 36 50 48
f 36 37 51
f 36 51 49
f 37 52 53
f 37 53 51
f 38 54 55
f 38 55 39
f 39 57 40
f 39 55 54
f 39 54 56
f 40 57 41
f 41 57 58
f 41 58 45
f 48 50 59
f 48 59 60
f 49 51 52
f 49 52 59
f 49 59 50
f 51 53 52
f 54 61 56
f 56 61 59
f 59 62 60
f 59 61 62

