# https://github.com/mikedh/trimesh
v 2.87516887 -11.46858783 59.74616313
v 5.34168799 -12.46509083 59.08707166
v 5.34236099 -11.46858783 59.08107853
v 5.33529670 -10.47208483 59.07658591
v 2.87516887 -10.47208483 59.71320833
v 2.87516887 -27.42090203 59.74466559
v 5.84091259 -11.46858783 58.89533601
v 5.83384830 -10.47208483 58.89683355
v 5.33125943 -49.34809520 59.08557412
v 5.27810790 -9.86426034 59.06160605
v 2.87516887 -10.45968110 59.71171079
v 2.87516887 -48.35159517 59.71470735
v 6.31154280 -26.42439903 58.48789665
v 6.31154280 -11.46858783 58.49239076
v 6.31154280 -10.65401961 58.49089322
v 5.83317530 -40.37543807 58.88634780
v 5.83384830 -39.37893507 58.88634780
v 6.31154280 -40.37543807 58.48340254
v 6.31154280 -10.47208483 58.48939419
v 6.29707772 -9.47144725 58.22276223
v 2.87516887 -49.34809520 59.69523339
v 5.27911666 -49.89803115 59.06909523
v 5.82981178 -49.34809520 58.88035615
v 5.83014828 -48.35159517 58.88185369
v 5.83048404 -46.35858917 58.88335272
v 5.83183004 -43.36908017 58.88485026
v 2.87516887 -9.41769477 59.42859994
v 6.17630809 -8.97112921 58.04600495
v 6.31154280 -45.36208617 58.48040746
v 6.31154280 -9.59135891 58.24373373
v 6.31154280 -9.47144725 58.16134674
v 2.87516887 -50.06756220 59.41811419
v 5.63637877 -50.09237263 58.57477626
v 6.31154280 -50.02207739 58.27968361
v 6.31154280 -49.34809520 58.47591336
v 6.31154280 -48.54179762 58.47741090
v 2.87516887 -9.31432291 59.32075031
v 6.31154280 -8.83467775 57.22813115
v 6.31154280 -8.66928276 56.84615740
v 6.31154280 -8.21031346 55.59238503
v 3.00939407 -9.02074711 58.80695738
v 2.87516887 -9.14892792 59.07209180
v 2.87516887 -50.32392680 58.53732885
v 4.67695252 -50.19988056 58.53732885
v 6.31154280 -50.03448558 58.23774060
v 5.67371997 -50.38594992 57.54120023
v 6.31154280 -8.20617889 55.54594940
v 2.87516887 -8.92978046 58.43097527
v 2.87516887 -8.97939836 58.68262886
v 2.87516887 -50.39835217 57.54120023
v 4.67695252 -50.39835217 57.54120023
v 6.31154280 -50.16266788 57.54120023
v 5.67371997 -50.39835217 56.54357407
v 6.31154280 -50.39835217 55.54594940
v 6.31154280 -8.16069556 54.55281735
v 2.87516887 -8.88016107 57.54120023
v 2.87516887 -50.39835217 46.57480764
v 6.31154280 -50.39835217 49.20668163
v 6.31154280 -8.15655950 50.56381250
v 2.87516887 -8.88016107 46.46545750
v 4.67695252 -50.39835217 46.57480764
v 2.87516887 -50.33219893 45.77041541
v 5.67371997 -50.39835217 47.57243305
v 6.31154280 -50.39421610 48.21055376
v 6.31154280 -8.16069556 49.56319052
v 2.87516887 -8.92978046 45.72847315
v 5.67371997 -50.38181386 46.57480764
v 2.87516887 -50.29498030 45.57867903
v 6.31154280 -50.25363156 47.19045856
v 6.31154280 -8.23098784 48.56856093
v 6.17832635 -8.97112921 46.06850463
v 2.87516887 -9.06623043 45.32253207
v 2.87516887 -50.09650870 44.84918460
v 5.59769232 -50.06756220 45.55021834
v 6.31154280 -50.01381121 45.85579748
v 6.31154280 -50.15439575 46.57480764
v 6.31154280 -8.83881233 46.88637769
v 6.31154280 -9.21922020 46.31566412
v 6.29573172 -9.47144725 45.90972341
v 5.21116355 -9.92628346 45.06938094
v 2.87516887 -9.47971789 44.73084699
v 2.87516887 -50.03862164 44.72335781
v 5.21452707 -49.86495453 45.06788266
v 6.31154280 -49.99313683 45.84531173
v 6.31154280 -9.47144725 45.97862846
v 6.31154280 -9.51279600 45.93668619
v 6.31154280 -9.61203329 45.88875228
v 6.31154280 -10.47208483 45.68503260
v 5.72754450 -10.47208483 45.25812076
v 5.22932865 -10.47208483 45.06488683
v 2.87516887 -10.47208483 44.45073345
v 2.87516887 -49.37290564 44.47919414
v 2.87516887 -49.34809520 44.47470004
v 2.87516887 -48.38467179 44.45223099
v 5.23403892 -49.34809520 45.06338929
v 5.73259052 -49.34809520 45.25812076
v 6.31154280 -49.34809520 45.68503260
v 6.31154280 -16.30638074 45.68353506
v 5.72956276 -22.43425393 45.25662322
v 5.23101116 -21.43775093 45.06338929
v 2.87516887 -11.46858783 44.44474106
v 2.87516887 -15.45459835 44.44474106
v 5.23403892 -44.36558317 45.06338929
v 5.73259052 -45.36208617 45.25662322
v 6.31154280 -45.36208617 45.68353506
v 5.73023576 -25.42376294 45.25662322
v 5.72989926 -23.43075545 45.25662322
v 5.73259052 -44.36558317 45.25662322
v 5.73225402 -41.37194107 45.25662322
v 5.73124526 -32.39928097 45.25662322
v 5.23168416 -25.42376294 45.06338929
v 5.23201992 -27.42090203 45.06338929
v 5.23269292 -32.39928097 45.06338929
v 5.23370242 -41.37194107 45.06338929
f 1 2 3
f 1 3 4
f 1 4 5
f 1 5 11
f 1 11 27
f 1 27 37
f 1 37 42
f 1 42 49
f 1 49 48
f 1 48 56
f 1 56 60
f 1 60 66
f 1 66 72
f 1 72 81
f 1 81 91
f 1 91 101
f 1 101 102
f 1 102 94
f 1 94 93
f 1 93 92
f 1 92 82
f 1 82 73
f 1 73 68
f 1 68 62
f 1 62 57
f 1 57 50
f 1 50 43
f 1 43 32
f 1 32 21
f 1 21 12
f 1 12 6
f 1 6 2
f 2 7 8
f 2 8 3
f 2 6 9
f 2 9 7
f 3 8 4
f 4 8 10
f 4 10 5
f 5 10 11
f 6 12 9
f 7 13 14
f 7 14 15
f 7 15 8
f 7 9 16
f 7 16 17
f 7 17 18
f 7 18 13
f 8 15 19
f 8 19 20
f 8 20 10
f 9 12 21
f 9 21 22
f 9 22 23
f 9 23 24
f 9 24 25
f 9 25 26
f 9 26 16
f 10 27 11
f 10 20 28
f 10 28 27
f 13 18 29
f 13 29 36
f 13 36 35
f 13 35 34
f 13 34 45
f 13 45 52
f 13 52 54
f 13 54 58
f 13 58 64
f 13 64 69
f 13 69 76
f 13 76 75
f 13 75 84
f 13 84 97
f 13 97 105
f 13 105 98
f 13 98 88
f 13 88 87
f 13 87 86
f 13 86 85
f 13 85 78
f 13 78 77
f 13 77 70
f 13 70 65
f 13 65 59
f 13 59 55
f 13 55 47
f 13 47 40
f 13 40 39
f 13 39 38
f 13 38 31
f 13 31 30
f 13 30 19
f 13 19 15
f 13 15 14
f 16 18 17
f 16 26 29
f 16 29 18
f 19 30 20
f 20 30 31
f 20 31 28
f 21 32 22
f 22 32 33
f 22 33 34
f 22 34 23
f 23 35 36
f 23 36 24
f 23 34 35
f 24 36 29
f 24 29 25
f 25 29 26
f 27 28 37
f 28 38 39
f 28 39 40
f 28 40 41
f 28 41 42
f 28 42 37
f 28 31 38
f 32 43 44
f 32 44 33
f 33 45 34
f 33 44 46
f 33 46 45
f 40 47 48
f 40 48 49
f 40 49 41
f 41 49 42
f 43 50 51
f 43 51 46
f 43 46 44
f 45 46 52
f 46 51 53
f 46 53 54
f 46 54 52
f 47 55 56
f 47 56 48
f 50 57 61
f 50 61 63
f 50 63 58
f 50 58 54
f 50 54 53
f 50 53 51
f 55 59 56
f 56 59 60
f 57 62 61
f 58 63 64
f 59 65 60
f 60 65 66
f 61 62 67
f 61 67 63
f 62 68 67
f 63 67 64
f 64 67 69
f 65 70 66
f 66 70 71
f 66 71 72
f 67 68 73
f 67 73 74
f 67 74 75
f 67 75 76
f 67 76 69
f 70 77 71
f 71 77 78
f 71 78 79
f 71 79 80
f 71 80 81
f 71 81 72
f 73 82 74
f 74 82 83
f 74 83 75
f 75 83 84
f 78 85 79
f 79 85 86
f 79 86 87
f 79 87 88
f 79 88 89
f 79 89 80
f 80 89 90
f 80 90 91
f 80 91 81
f 82 92 83
f 83 92 93
f 83 93 94
f 83 94 95
f 83 95 96
f 83 96 84
f 84 96 97
f 88 98 89
f 89 98 99
f 89 99 100
f 89 100 90
f 90 101 91
f 90 100 101
f 94 102 95
f 95 103 108
f 95 108 104
f 95 104 96
f 95 102 101
f 95 101 103
f 96 104 105
f 96 105 97
f 98 106 107
f 98 107 99
f 98 105 104
f 98 104 108
f 98 108 109
f 98 109 110
f 98 110 106
f 99 107 100
f 100 107 106
f 100 106 111
f 100 111 101
f 101 111 112
f 101 112 113
f 101 113 114
f 101 114 103
f 103 114 109
f 103 109 108
f 106 112 111
f 106 110 112
f 109 114 113
f 109 113 110
f 110 113 112

