# https://github.com/mikedh/trimesh
v -3.29865136 -10.47327707 64.64214022
v -1.30446714 -10.47327707 64.63997116
v -1.29933244 -7.47177512 64.62478480
v -3.68182738 -10.47327707 64.64214022
v -3.29865136 -34.39228698 64.64214022
v -0.30833788 -7.47177512 64.62261574
v -1.30446714 -34.39228698 64.63997116
v -1.30446714 -7.47177512 64.62478480
v -3.68182738 -9.85888524 64.49895875
v -3.68182738 -34.39228698 64.64214022
v -0.30833788 -36.26364459 64.62261574
v -1.30446714 -35.39278639 64.63129345
v 0.68843347 -7.47177512 64.41001110
v -0.18189620 -36.26364459 64.59658261
v 0.68843347 -13.46350439 64.41218165
v -2.16773652 -7.47177512 64.31455629
v -3.68182738 -9.47277617 64.38614703
v -3.68182738 -35.39278639 64.47943278
v -1.30446714 -36.26364459 64.61827763
v 1.28790784 -7.47741169 64.11930707
v 1.28919181 -7.47177512 64.11713802
v 1.31358144 -10.47327707 64.11930707
v 1.30523763 -9.47277617 64.11930707
v 0.68843347 -36.26364459 64.40784205
v 0.68843347 -32.39692175 64.41001110
v 0.68843347 -18.44627938 64.41218165
v -3.68182738 -7.47177512 62.76992093
v -3.68182738 -8.88938550 64.07591852
v -3.68182738 -9.08384881 64.19523741
v -3.68182738 -36.04381818 64.16920428
v -2.78582447 -36.26364459 64.26032098
v 1.79945149 -10.47327707 63.52271414
v 1.47147312 -7.47177512 63.52271414
v 2.17107431 -10.47045878 62.96083055
v 1.31358144 -16.45373393 64.11930707
v 1.80201870 -21.43932721 63.52271414
v 1.80137690 -17.45141506 63.52271414
v 0.76737894 -36.26364459 64.37096067
v 1.31101423 -24.42391870 64.11930707
v 1.31165603 -23.42905438 64.11930707
v 1.30780521 -36.26364459 64.11713802
v 1.31293964 -19.44396199 64.11930707
v -3.68182738 -7.47177512 42.47922116
v -3.68182738 -36.22137176 63.52271414
v -3.53292131 -36.26364459 63.52271414
v 2.17171612 -11.46814065 62.96299961
v 2.17685091 -26.41646563 62.98469463
v 2.17556731 -22.42855348 62.98252408
v 2.87516812 -8.97957218 58.68054003
v 2.87516812 -8.92884153 58.42888644
v 1.55362835 -7.47177512 62.52477451
v 2.10239806 -9.45022987 62.59853578
v 2.23975057 -9.76588102 62.31433892
v 2.87516812 -9.41922871 59.42682607
v 2.87516812 -9.31495134 59.31835395
v 2.87516812 -9.14585262 59.07103847
v 2.87516812 -11.46814065 59.74573229
v 2.87516812 -10.47045878 59.71319050
v 2.87516812 -10.46200392 59.71102144
v 1.80201870 -26.41646563 63.52271414
v 1.80073510 -29.40669369 63.52271414
v 1.79752571 -36.26364459 63.52271414
v -2.32113522 -7.47177512 42.47922116
v -3.68182738 -33.24523365 42.47922116
v -3.68182738 -36.24673486 62.52477451
v -3.63561534 -36.26364459 62.52477451
v 2.17685091 -28.41182788 62.98469463
v 2.87516812 -8.88093064 57.53941893
v 1.55940458 -7.47177512 57.53724987
v 2.87516812 -27.41696505 59.74356174
v 1.87454615 -31.20477583 63.41641107
v 1.87454615 -27.41414824 63.41858161
v 2.17492550 -36.26364459 62.98035503
v 2.17556731 -33.39742117 62.98252408
v 1.32449283 -7.47177512 42.48139022
v 1.32385103 -7.47741169 42.47922116
v -2.59776657 -36.26364459 42.47922116
v -3.68182738 -36.13400337 49.62316121
v -3.68182738 -36.24673486 51.17864408
v -3.63561534 -36.26364459 62.18851287
v 2.87516812 -8.88093064 46.46663711
v 1.56004638 -7.47177512 56.54364984
v 2.87516812 -35.38996959 59.71319050
v 2.87388452 -36.26364459 59.71319050
v 1.56004638 -7.47177512 46.57510923
v 2.87516812 -8.93165981 45.72903027
v 2.87516812 -9.06693909 45.32551601
v 2.06132045 -9.12612461 42.47922116
v 2.31420379 -36.26364459 42.47922116
v -3.61379293 -36.26364459 50.56252518
v -3.68182738 -36.24109829 50.56252518
v -3.68182738 -36.21009861 50.26097438
v -3.63176415 -36.26364459 51.22637148
v 2.87516812 -36.26364459 57.70212636
v 2.87516812 -9.12894289 45.23656911
v 2.87516812 -9.48123103 44.73326118
v 2.11459269 -9.28676847 42.47922116
v 2.33730981 -36.26364459 42.48139022
v 2.33730981 -35.38996959 42.47922116
v 2.87516812 -36.26364459 44.45340392
v 2.31548740 -10.38027285 42.47922116
v 2.25322917 -9.71796939 42.47922116
v 2.87516812 -10.47045878 44.45123486
v 2.33730981 -29.40951050 42.47922116
v 2.87516812 -15.48423419 44.44689601
v 2.87516812 -31.43587539 44.45123486
v 2.32062219 -10.47045878 42.47922116
v 2.87516812 -11.46814065 44.44689601
v 2.33217539 -19.33686559 42.47922116
v 2.33602620 -26.41646563 42.47922116
f 1 2 3
f 1 3 8
f 1 8 4
f 1 4 10
f 1 10 5
f 1 5 7
f 1 7 2
f 2 6 3
f 2 7 11
f 2 11 6
f 3 6 13
f 3 13 21
f 3 21 33
f 3 33 51
f 3 51 69
f 3 69 82
f 3 82 85
f 3 85 75
f 3 75 63
f 3 63 43
f 3 43 27
f 3 27 16
f 3 16 8
f 4 8 9
f 4 9 17
f 4 17 29
f 4 29 28
f 4 28 27
f 4 27 43
f 4 43 64
f 4 64 78
f 4 78 92
f 4 92 91
f 4 91 79
f 4 79 65
f 4 65 44
f 4 44 30
f 4 30 18
f 4 18 10
f 5 10 11
f 5 11 12
f 5 12 7
f 6 11 14
f 6 14 15
f 6 15 13
f 7 12 11
f 8 16 17
f 8 17 9
f 10 18 19
f 10 19 11
f 11 19 31
f 11 31 45
f 11 45 66
f 11 66 80
f 11 80 93
f 11 93 90
f 11 90 77
f 11 77 89
f 11 89 98
f 11 98 100
f 11 100 94
f 11 94 84
f 11 84 73
f 11 73 62
f 11 62 41
f 11 41 38
f 11 38 24
f 11 24 14
f 13 20 21
f 13 15 22
f 13 22 23
f 13 23 20
f 14 24 25
f 14 25 26
f 14 26 15
f 15 26 35
f 15 35 22
f 16 27 28
f 16 28 29
f 16 29 17
f 18 30 19
f 19 30 31
f 20 23 32
f 20 32 21
f 21 32 34
f 21 34 33
f 22 32 23
f 22 35 60
f 22 60 36
f 22 36 37
f 22 37 32
f 24 38 25
f 25 39 40
f 25 40 26
f 25 38 41
f 25 41 39
f 26 40 42
f 26 42 35
f 30 44 45
f 30 45 31
f 32 46 34
f 32 37 47
f 32 47 48
f 32 48 46
f 33 49 50
f 33 50 51
f 33 34 52
f 33 52 53
f 33 53 54
f 33 54 55
f 33 55 56
f 33 56 49
f 34 46 57
f 34 57 58
f 34 58 59
f 34 59 54
f 34 54 53
f 34 53 52
f 35 42 60
f 36 60 67
f 36 67 47
f 36 47 37
f 39 41 40
f 40 41 61
f 40 61 60
f 40 60 42
f 41 62 61
f 43 63 76
f 43 76 88
f 43 88 97
f 43 97 102
f 43 102 101
f 43 101 107
f 43 107 109
f 43 109 110
f 43 110 104
f 43 104 99
f 43 99 89
f 43 89 77
f 43 77 64
f 44 65 66
f 44 66 45
f 46 48 57
f 47 67 57
f 47 57 48
f 49 56 55
f 49 55 54
f 49 54 59
f 49 59 58
f 49 58 57
f 49 57 70
f 49 70 83
f 49 83 94
f 49 94 100
f 49 100 106
f 49 106 105
f 49 105 108
f 49 108 103
f 49 103 96
f 49 96 95
f 49 95 87
f 49 87 86
f 49 86 81
f 49 81 68
f 49 68 50
f 50 68 51
f 51 68 69
f 57 67 70
f 60 61 71
f 60 71 72
f 60 72 67
f 61 62 71
f 62 73 74
f 62 74 71
f 63 75 76
f 64 77 78
f 65 79 80
f 65 80 66
f 67 72 71
f 67 71 74
f 67 74 70
f 68 81 85
f 68 85 82
f 68 82 69
f 70 74 73
f 70 73 83
f 73 84 83
f 75 85 81
f 75 81 86
f 75 86 87
f 75 87 88
f 75 88 76
f 77 90 91
f 77 91 92
f 77 92 78
f 79 91 90
f 79 90 93
f 79 93 80
f 83 84 94
f 87 95 88
f 88 95 96
f 88 96 97
f 89 99 98
f 96 101 102
f 96 102 97
f 96 103 101
f 98 99 100
f 99 104 108
f 99 108 105
f 99 105 106
f 99 106 100
f 101 103 107
f 103 108 109
f 103 109 107
f 104 110 108
f 108 110 109

