# https://github.com/mikedh/trimesh
v -6.39709991 -50.39835217 42.47922116
v -7.36272246 -50.39757368 42.47922116
v -3.68182719 -50.39835217 42.47922116
v -6.28972866 -50.39835217 50.56252443
v -7.36272246 -50.39757368 63.52271116
v -7.36272246 -42.61389803 42.47922116
v -3.68182719 -42.43059496 42.47922116
v -3.68182719 -50.39835217 63.52271116
v -5.29311962 -50.39835217 59.53529373
v -4.29615049 -50.39835217 63.52271116
v -7.36272246 -50.14485191 64.25597841
v -7.28705806 -42.60219701 42.47922116
v -7.36272246 -42.61389803 63.52271116
v -3.68182719 -42.42981648 62.90876132
v -3.68182719 -50.12379126 64.31672238
v -7.36272246 -50.12379126 64.31672238
v -7.28705806 -42.60219701 63.52271116
v -7.36272246 -42.62091923 63.58779325
v -3.68182719 -42.45165560 63.52271116
v -3.68182719 -49.35158352 64.62695088
v -7.36272246 -49.35158352 64.62695088
v -7.36272246 -42.74103740 64.21042080
v -7.28705806 -42.73635759 64.21692797
v -3.68182719 -42.50469645 63.78954963
v -3.68182719 -48.73694136 64.63562859
v -7.36272246 -48.42961880 64.63996819
v -7.36272246 -43.37518324 64.50546294
v -7.28705806 -43.36972197 64.52715648
v -3.68182719 -42.67239718 64.22777622
v -3.68182719 -48.35395736 64.63996819
v -5.29311962 -44.36656964 64.64213725
v -7.36272246 -47.35710969 64.63996819
v -6.28972866 -44.36656964 64.62911994
v -3.68182719 -43.75270597 64.58139328
v -3.68182719 -43.36972197 64.53800473
v -3.68182719 -42.91731927 64.34492605
v -3.68182719 -44.36656964 64.63996819
f 1 2 6
f 1 6 12
f 1 12 7
f 1 7 3
f 1 3 8
f 1 8 10
f 1 10 9
f 1 9 4
f 1 4 5
f 1 5 2
f 2 5 11
f 2 11 16
f 2 16 21
f 2 21 26
f 2 26 32
f 2 32 27
f 2 27 22
f 2 22 18
f 2 18 13
f 2 13 6
f 3 7 14
f 3 14 19
f 3 19 24
f 3 24 29
f 3 29 36
f 3 36 35
f 3 35 34
f 3 34 37
f 3 37 30
f 3 30 25
f 3 25 20
f 3 20 15
f 3 15 8
f 4 9 5
f 5 9 10
f 5 10 11
f 6 13 17
f 6 17 12
f 7 12 14
f 8 15 11
f 8 11 10
f 11 15 16
f 12 17 14
f 13 18 17
f 14 17 19
f 15 20 21
f 15 21 16
f 17 18 22
f 17 22 23
f 17 23 19
f 19 23 24
f 20 25 26
f 20 26 21
f 22 27 28
f 22 28 23
f 23 29 24
f 23 28 29
f 25 30 26
f 26 30 31
f 26 31 32
f 27 32 28
f 28 33 31
f 28 31 34
f 28 34 35
f 28 35 36
f 28 36 29
f 28 32 33
f 30 37 31
f 31 33 32
f 31 37 34

