# https://github.com/mikedh/trimesh
v -4.05695356 -42.53073701 42.47922061
v -4.06631671 -42.53324183 42.47922061
v -4.05695356 -42.53324183 42.35789144
v -4.05695356 -42.53073701 42.46827504
v -4.06631309 -42.53324183 41.58928744
v -4.05695356 -42.53324183 40.58414712
v -4.05695356 -42.53073998 41.58928744
v -4.06116864 -42.53324183 40.59249538
v -4.05695356 -42.53213947 40.59249538
f 1 2 3
f 1 3 6
f 1 6 9
f 1 9 7
f 1 7 4
f 1 4 2
f 2 4 5
f 2 5 8
f 2 8 6
f 2 6 3
f 4 7 5
f 5 7 8
f 6 8 9
f 7 9 8

