# https://github.com/mikedh/trimesh
v -26.27160572 0.49915991 47.09121607
v -25.71818294 -6.47906425 42.47967187
v -26.26605383 0.19680463 47.09121607
v -25.73854384 23.95575008 47.09121607
v -25.73854384 23.95575008 43.58346311
v -25.73669420 23.94544260 43.05797714
v -25.73854384 23.42662815 42.95685270
v -25.71633330 22.61576664 42.47967187
v -25.71818294 22.43022915 42.47967187
v -25.70893028 -6.92916122 42.47967187
v -26.24569293 -0.49723836 47.09121607
v -25.70522803 -7.42736072 42.59975698
v -25.57011069 24.19625977 47.09121607
v -25.38872263 24.45394958 44.58071228
v -25.38687151 24.45394958 43.58346311
v -25.61638438 23.44724310 42.47967187
v -24.83715098 24.96589139 43.01554090
v -25.21103534 24.32682209 42.70404160
v -25.12034057 24.23748967 42.47967187
v -25.50903245 -8.47186078 42.47967187
v -25.58306857 -8.47186078 42.58666502
v -25.73669420 -8.98723890 43.83446822
v -25.73854384 -8.99754638 44.58071228
v -25.73854384 -8.99754638 47.09121607
v -25.38872263 24.45394958 47.09121607
v -24.88897656 24.98650634 43.58346311
v -24.23560635 25.04491634 43.58346311
v -24.23560635 24.98650634 42.98077936
v -24.23560635 24.59481937 42.47967187
v -25.45905650 -8.58180815 42.47967187
v -25.07221723 -9.43046472 42.65889682
v -25.41278430 -9.37892587 43.53470652
v -25.33504592 -9.49574588 44.58071228
v -25.33504592 -9.49574588 47.09121607
v -24.88897656 24.98650634 47.09121607
v -24.23560635 25.04491634 47.09121607
v -7.36272246 25.04491634 43.58346311
v -7.36272246 24.98650634 42.98077936
v -7.36272246 24.59481937 42.47967187
v -25.02594503 -9.33082482 42.47967187
v -24.80198404 -9.99394538 43.03946774
v -24.83715098 -10.00768769 43.58346311
v -24.83715098 -10.00768769 47.09121607
v -7.36272246 25.04491634 47.09121607
v -7.36272246 -9.58164199 42.47967187
v -24.28558081 -9.57820567 42.47967187
v -24.23560635 -9.61943705 42.51849631
v -24.23560635 -10.00768769 43.01689526
v -24.23560635 -10.04548275 43.58346311
v -24.52434783 -10.03173896 47.09121607
v -7.36272246 -10.04891907 47.09121607
v -7.36272246 -9.61600073 42.51533613
v -18.25346847 -9.58507831 42.47967187
v -24.23560635 -9.58507831 42.47967187
v -18.25346847 -9.61943705 42.51849631
v -18.25346847 -10.00768769 43.01689526
v -7.36272246 -10.04548275 43.58346311
v -24.23560635 -10.04891907 47.09121607
v -7.36272246 -10.00768769 43.01734671
f 1 2 3
f 1 3 11
f 1 11 24
f 1 24 34
f 1 34 43
f 1 43 50
f 1 50 58
f 1 58 51
f 1 51 44
f 1 44 36
f 1 36 35
f 1 35 25
f 1 25 13
f 1 13 4
f 1 4 5
f 1 5 6
f 1 6 7
f 1 7 8
f 1 8 9
f 1 9 2
f 2 10 3
f 2 9 8
f 2 8 16
f 2 16 19
f 2 19 29
f 2 29 39
f 2 39 45
f 2 45 53
f 2 53 54
f 2 54 46
f 2 46 40
f 2 40 30
f 2 30 20
f 2 20 10
f 3 10 12
f 3 12 11
f 4 13 5
f 5 13 14
f 5 14 15
f 5 15 6
f 6 16 8
f 6 8 7
f 6 15 17
f 6 17 18
f 6 18 19
f 6 19 16
f 10 20 21
f 10 21 12
f 11 12 22
f 11 22 23
f 11 23 24
f 12 21 22
f 13 25 14
f 14 25 35
f 14 35 26
f 14 26 15
f 15 26 17
f 17 26 27
f 17 27 28
f 17 28 29
f 17 29 19
f 17 19 18
f 20 30 21
f 21 30 31
f 21 31 32
f 21 32 22
f 22 32 33
f 22 33 23
f 23 33 34
f 23 34 24
f 26 35 36
f 26 36 27
f 27 36 44
f 27 44 37
f 27 37 38
f 27 38 28
f 28 38 39
f 28 39 29
f 30 40 31
f 31 40 41
f 31 41 32
f 32 41 42
f 32 42 33
f 33 42 43
f 33 43 34
f 37 44 51
f 37 51 57
f 37 57 59
f 37 59 52
f 37 52 45
f 37 45 39
f 37 39 38
f 40 46 41
f 41 47 48
f 41 48 49
f 41 49 42
f 41 46 47
f 42 50 43
f 42 49 50
f 45 52 53
f 46 54 47
f 47 54 53
f 47 53 55
f 47 55 56
f 47 56 48
f 48 56 57
f 48 57 49
f 49 57 51
f 49 51 58
f 49 58 50
f 52 59 55
f 52 55 53
f 55 59 56
f 56 59 57

