# https://github.com/mikedh/trimesh
v -4.30194603 -9.57991789 42.47602422
v -3.12337640 -11.43705184 40.59248507
v -3.13180415 -11.43705184 41.58917425
v -3.13763850 -11.43705184 42.31562419
v -3.13763850 -11.43705184 42.47922061
v -4.29546338 -9.58265966 42.47922061
v -4.30194603 -9.45382516 42.47922061
v -4.30194603 -9.11803373 41.95443327
v -2.37007724 -11.43705184 39.56790023
v -4.30194603 -8.47386195 41.68419395
v 2.32021512 -11.43705184 42.47922061
v -4.30194603 2.56477432 42.47922061
v -1.30495620 -11.43705184 39.51094662
v -4.30194603 -8.46837914 41.68332205
v -4.30194603 -7.47608055 41.54587781
v -4.30194603 -6.47967114 41.54413439
v -4.30194603 -5.48326025 41.54355322
v -4.30194603 -5.47640767 41.54355322
v -4.30194603 2.49761603 41.54529673
v -4.30129792 2.56477432 41.54529673
v -2.16716612 -5.48326025 39.81983303
v -1.30495620 -5.48326025 39.54639732
v 2.31891889 -11.43705184 42.45597419
v 2.32021512 -10.46805276 42.47922061
v -1.96555162 2.56477432 42.47922061
v -4.30194603 2.56477432 41.65252071
v -0.30855274 -6.47967114 39.55947341
v -0.30855274 -11.43705184 39.55860170
v -0.30855274 -5.48326025 39.55976404
v -3.29841161 2.56477432 41.54529673
v 2.25214613 -11.43705184 41.65600755
v 2.25149764 -10.46805276 41.66501563
v 2.31567719 -10.37622444 42.47922061
v 1.36789475 -4.68284289 41.58917425
v 1.31149447 -4.77055967 40.59248507
v 1.23305300 -4.90076469 40.05084410
v -1.99148279 2.56477432 42.43330886
v 1.36789475 -4.68284289 42.47922061
v 0.68849921 -11.43705184 39.76142646
v 0.68849921 -4.74588926 39.93141574
v 0.68849921 -5.48326025 39.76781923
v 0.68849921 -6.47967114 39.76607572
v 0.68849921 -7.47608055 39.76462284
v 0.68849921 -8.47386195 39.76316997
v 0.68849921 -9.47027210 39.76229826
v -2.48158111 2.56477432 41.81960414
v 2.17111108 -11.43705184 41.15766310
v 2.16916636 -10.46805276 41.16667109
v 2.22945646 -9.79921094 41.80885265
v 2.25279462 -9.71286468 42.47922061
v 1.54876432 -5.48326025 41.58917425
v 1.43726035 -5.48326025 40.59248507
v 1.25639078 -5.48326025 40.02876002
v 1.53515052 -5.48326025 42.47922061
v 1.27130119 -11.43705184 40.02294842
v 1.26092872 -7.47608055 40.02556364
v 1.27065270 -10.46805276 40.02323905
v 2.15944201 -11.43705184 41.14139063
v 1.75362015 -10.46805276 40.59248507
v 1.74324768 -11.43705184 40.57621260
v 1.75686148 -11.43705184 40.59248507
f 1 2 3
f 1 3 4
f 1 4 5
f 1 5 6
f 1 6 7
f 1 7 12
f 1 12 26
f 1 26 19
f 1 19 18
f 1 18 17
f 1 17 16
f 1 16 15
f 1 15 14
f 1 14 10
f 1 10 8
f 1 8 2
f 2 9 13
f 2 13 28
f 2 28 39
f 2 39 55
f 2 55 60
f 2 60 61
f 2 61 58
f 2 58 47
f 2 47 31
f 2 31 23
f 2 23 11
f 2 11 5
f 2 5 4
f 2 4 3
f 2 8 10
f 2 10 9
f 5 11 24
f 5 24 33
f 5 33 50
f 5 50 54
f 5 54 38
f 5 38 25
f 5 25 12
f 5 12 7
f 5 7 6
f 9 10 14
f 9 14 15
f 9 15 16
f 9 16 17
f 9 17 18
f 9 18 19
f 9 19 20
f 9 20 21
f 9 21 22
f 9 22 13
f 11 23 24
f 12 25 37
f 12 37 46
f 12 46 30
f 12 30 20
f 12 20 26
f 13 27 28
f 13 22 29
f 13 29 27
f 19 26 20
f 20 30 22
f 20 22 21
f 22 30 29
f 23 31 24
f 24 31 32
f 24 32 33
f 25 34 35
f 25 35 36
f 25 36 37
f 25 38 34
f 27 39 28
f 27 29 39
f 29 30 40
f 29 40 41
f 29 41 42
f 29 42 43
f 29 43 44
f 29 44 45
f 29 45 39
f 30 46 36
f 30 36 40
f 31 47 32
f 32 48 49
f 32 49 33
f 32 47 48
f 33 49 50
f 34 38 51
f 34 51 35
f 35 51 52
f 35 52 36
f 36 52 48
f 36 48 53
f 36 53 41
f 36 41 40
f 36 46 37
f 38 54 51
f 39 45 55
f 41 53 56
f 41 56 57
f 41 57 42
f 42 57 43
f 43 57 44
f 44 57 45
f 45 57 55
f 47 58 48
f 48 58 59
f 48 59 53
f 48 52 49
f 49 52 51
f 49 51 50
f 50 51 54
f 53 59 57
f 53 57 56
f 55 57 60
f 57 59 60
f 58 61 59
f 59 61 60

