# https://github.com/mikedh/trimesh
v 6.31187930 -11.46727600 58.49305039
v 6.42304565 -11.46727600 58.39775157
v 6.41898833 -10.47232699 58.39900546
v 6.31187930 -10.47232699 58.49054260
v 6.31187930 -38.57224825 58.48427314
v 6.42531796 -27.41601423 58.39398989
v 7.96963317 -11.16682162 56.65101366
v 7.96963317 -0.08446921 56.61841097
v 7.96963317 -48.35427529 56.65101366
v 6.31187930 -9.59066511 58.24477072
v 7.91899982 -0.08446921 56.61715707
v 7.66794346 -0.08446921 56.60837982
v 7.20721292 -0.08446921 56.43533520
v 6.87371460 -0.08446921 56.30994296
v 6.31187930 -45.35957541 58.48051146
v 6.42499335 -43.36475097 58.38646654
v 7.96963317 -0.08446921 47.56120819
v 6.42483067 -45.35957541 58.38521116
v 6.42385682 -49.34922430 58.38270337
v 7.96963317 -49.34922430 56.64098252
v 6.31187930 -9.47245304 58.16075694
v 6.66566349 -0.08446921 55.86730101
v 6.51506191 -0.08446921 55.54629259
v 6.47854749 -0.08446921 54.96822725
v 6.45209466 -0.08446921 54.54941223
v 6.31187930 -48.35427529 58.47800368
v 7.66794346 -0.08446921 47.57123933
v 7.96963317 -10.47232699 47.52108214
v 6.41087442 -10.47232699 45.75678973
v 6.31187930 -10.47232699 45.68531487
v 6.31187930 -49.34922430 58.47674978
v 6.34011714 -50.01908825 58.26859468
v 7.96963317 -50.12252549 56.33752860
v 6.31187930 -8.83213877 57.22782511
v 6.45193273 -0.08446921 51.97883636
v 6.31187930 -8.15734690 54.55317391
v 6.31187930 -8.20660230 55.54629259
v 6.31187930 -8.21152724 55.59268959
v 6.31187930 -8.66959772 56.84662835
v 6.90130321 -0.08446921 47.83331331
v 7.96963317 -11.46727600 47.51982824
v 6.41054981 -17.45174784 45.75553584
v 6.31187930 -11.32443771 45.68406098
v 6.31187930 -9.61036638 45.88845329
v 6.31187930 -50.01908825 58.27987971
v 6.31187930 -50.03386755 58.23724736
v 7.96963317 -50.39835217 55.54629259
v 6.45193273 -0.08446921 49.56625691
v 6.31187930 -8.15734690 49.56374912
v 6.54248859 -0.08446921 48.56937507
v 7.96963317 -48.65472819 47.51982824
v 6.41022519 -24.43116721 45.75553584
v 6.31187930 -49.20638156 45.68406098
v 6.31187930 -9.51185707 45.93610307
v 6.31187930 -50.16193100 57.54131017
v 6.31187930 -50.39835217 55.54629259
v 7.96963317 -50.39835217 49.56625691
v 6.31187930 -9.47245304 45.97873691
v 6.31187930 -9.21632763 46.31604668
v 6.31187930 -8.84199014 46.88658866
v 6.31187930 -8.23123000 48.56937507
v 7.96963317 -49.34922430 47.52233603
v 6.40876479 -49.34922430 45.75553584
v 6.40941403 -41.37485296 45.75553584
v 6.31187930 -49.34922430 45.68531487
v 6.31187930 -50.39835217 49.20637633
v 6.31187930 -50.39342574 48.20949449
v 7.96963317 -50.39342574 48.87032120
v 7.96963317 -49.58071904 47.60258813
v 6.33005554 -50.00924133 45.86337432
v 6.31187930 -49.98953560 45.84456519
v 6.31187930 -50.25058299 47.19129647
v 7.96963317 -50.38849930 48.56937507
v 7.96963317 -50.11759905 47.79820282
v 6.31187930 -50.01416182 45.85459708
v 6.31187930 -50.15207813 46.57435749
v 7.96963317 -50.20133056 48.02892800
f 1 2 3
f 1 3 4
f 1 4 10
f 1 10 21
f 1 21 34
f 1 34 39
f 1 39 38
f 1 38 37
f 1 37 36
f 1 36 49
f 1 49 61
f 1 61 60
f 1 60 59
f 1 59 58
f 1 58 54
f 1 54 44
f 1 44 30
f 1 30 43
f 1 43 53
f 1 53 65
f 1 65 71
f 1 71 75
f 1 75 76
f 1 76 72
f 1 72 67
f 1 67 66
f 1 66 56
f 1 56 55
f 1 55 46
f 1 46 45
f 1 45 31
f 1 31 26
f 1 26 15
f 1 15 5
f 1 5 6
f 1 6 2
f 2 7 8
f 2 8 3
f 2 6 9
f 2 9 7
f 3 8 4
f 4 8 11
f 4 11 12
f 4 12 13
f 4 13 14
f 4 14 10
f 5 15 16
f 5 16 6
f 6 16 9
f 7 9 20
f 7 20 33
f 7 33 47
f 7 47 57
f 7 57 68
f 7 68 73
f 7 73 77
f 7 77 74
f 7 74 69
f 7 69 62
f 7 62 51
f 7 51 41
f 7 41 28
f 7 28 17
f 7 17 8
f 8 17 27
f 8 27 40
f 8 40 50
f 8 50 48
f 8 48 35
f 8 35 25
f 8 25 24
f 8 24 23
f 8 23 22
f 8 22 14
f 8 14 13
f 8 13 12
f 8 12 11
f 9 16 18
f 9 18 19
f 9 19 20
f 10 14 22
f 10 22 23
f 10 23 24
f 10 24 25
f 10 25 21
f 15 26 19
f 15 19 18
f 15 18 16
f 17 28 29
f 17 29 30
f 17 30 27
f 19 26 31
f 19 31 32
f 19 32 20
f 20 32 33
f 21 25 34
f 25 35 36
f 25 36 37
f 25 37 38
f 25 38 39
f 25 39 34
f 27 30 40
f 28 41 29
f 29 41 42
f 29 42 43
f 29 43 30
f 30 44 40
f 31 45 32
f 32 45 46
f 32 46 47
f 32 47 33
f 35 48 49
f 35 49 36
f 40 44 50
f 41 51 42
f 42 52 53
f 42 53 43
f 42 51 52
f 44 54 50
f 46 55 47
f 47 55 56
f 47 56 66
f 47 66 57
f 48 50 54
f 48 54 58
f 48 58 59
f 48 59 60
f 48 60 61
f 48 61 49
f 51 62 63
f 51 63 64
f 51 64 52
f 52 64 53
f 53 64 63
f 53 63 65
f 57 66 67
f 57 67 68
f 62 69 70
f 62 70 63
f 63 70 71
f 63 71 65
f 67 72 73
f 67 73 68
f 69 74 70
f 70 75 71
f 70 74 75
f 72 76 73
f 73 76 75
f 73 75 77
f 74 77 75

