# https://github.com/mikedh/trimesh
v -17.85086195 48.35458862 64.63733858
v -31.21496926 48.35458862 64.64214319
v -30.21733122 47.35789249 64.64214319
v -17.85086195 47.35789249 64.63733858
v -17.85086195 48.75983070 64.63253100
v -17.85086195 49.35128476 64.62291882
v -33.20861707 48.35458862 64.64214319
v -31.21496926 44.36704045 64.64214319
v -30.21733122 44.36704045 64.63253100
v -29.21969615 43.37034431 64.52680289
v -17.85086195 46.76567480 64.57005625
v -32.21097903 49.35128476 64.62291882
v -17.85086195 50.12437201 64.31534369
v -33.20861707 44.36704045 64.64214319
v -33.20861707 49.35128476 64.61330960
v -34.06001913 48.35458862 64.32976346
v -32.21097903 43.37034431 64.52680289
v -29.21969615 42.73691456 64.21442018
v -28.22368342 42.76209938 64.18077902
v -28.22368342 43.37034431 64.45471594
v -17.85086195 46.36119635 64.52199531
v -32.21097903 50.12437201 64.31534369
v -17.85086195 50.39758988 63.52237838
v -34.06001913 44.36704045 64.32976346
v -33.95927984 43.37034431 64.25286893
v -33.20861707 43.37034431 64.50757852
v -33.20861707 50.10835071 64.30573150
v -33.89753900 50.01218724 64.20000339
v -34.02589958 49.35128476 64.31053908
v -34.43047608 48.35458862 63.52237838
v -32.21097903 42.73691456 64.21442018
v -32.21097903 42.60183585 63.52237838
v -29.21969615 42.60259651 63.52237838
v -27.65824763 42.81552056 64.10388746
v -17.85086195 45.73234836 64.20961558
v -28.22368342 42.65220252 63.52237838
v -32.21097903 50.39758988 63.52237838
v -17.85086195 50.39758988 16.66520425
v -34.43047608 44.36704045 63.52237838
v -34.21925162 43.37034431 63.52237838
v -33.80654858 42.80102057 64.12310886
v -33.20861707 42.75141455 64.19519878
v -33.20861707 50.36706264 63.52237838
v -33.99340236 50.09308412 63.52237838
v -34.35411045 49.35128476 63.52237838
v -34.44835148 48.35458862 62.52275847
v -33.20861707 42.63083583 63.52237838
v -33.20861707 42.63007221 56.54426342
v -33.20861707 42.62854495 40.58879457
v -32.21097903 42.60183585 59.53351094
v -29.21969615 42.60259651 16.66520425
v -27.62575190 42.78728421 63.52237838
v -17.85086195 45.60184546 63.52237838
v -27.62412660 42.78728421 42.58322815
v -28.22368342 42.65220252 36.60473346
v -33.20861707 50.36782330 59.53351094
v -32.21097903 50.39758988 16.66520425
v -17.85086195 50.28692642 16.34321233
v -34.44835148 44.36704045 62.52275847
v -33.85691822 42.76591455 63.52237838
v -34.22737518 43.37034431 62.52275847
v -34.36385932 49.35128476 62.52275847
v -33.99340236 50.09385071 59.53351094
v -33.99502767 50.09385071 55.54464351
v -34.44835148 48.35458862 60.52832327
v -33.85854353 42.76515092 58.53389104
v -33.86016884 42.76362664 43.58284768
v -33.20861707 42.62854495 21.65369159
v -32.21097903 42.60259651 16.66520425
v -29.21969615 42.73691456 15.97315947
v -28.22368342 42.76286301 16.00680064
v -28.22368342 42.65372978 16.66520425
v -28.22368342 42.65296615 23.64331921
v -17.85086195 45.60184546 16.66520425
v -27.62412660 42.78728421 41.58841424
v -27.62575190 42.78804783 16.66520425
v -27.62575190 42.78728421 30.62623878
v -33.20861707 50.36782330 43.58284768
v -32.21097903 50.12437201 15.87223597
v -33.20861707 50.10758411 15.88665276
v -33.20861707 50.36553539 16.66520425
v -33.20861707 50.36629605 18.65963648
v -33.20861707 50.36706264 30.62623878
v -17.85086195 50.12437201 15.87223597
v -34.23062579 43.37034431 46.57209484
v -34.22900048 43.37034431 59.53351094
v -34.44835148 44.36704045 26.63737135
v -33.85854353 42.76591455 60.52832327
v -34.36385932 49.35128476 19.65925639
v -33.99502767 50.09385071 42.58322815
v -34.44835148 47.35789249 51.55577608
v -34.44672618 48.35458862 17.66482415
v -33.86016884 42.76439026 47.56690865
v -33.86016884 42.76362664 16.66520425
v -33.20861707 42.62930858 16.66520425
v -33.20861707 42.75065093 15.99238385
v -32.21097903 42.73691456 15.97315947
v -29.21969615 43.37034431 15.66077974
v -17.85086195 45.73234836 15.97796408
v -27.65824763 42.81628419 16.08369516
v -28.22368342 43.37034431 15.73286668
v -17.85086195 46.36119635 15.66558434
v -17.85086195 49.81071461 15.74728348
v -32.21097903 49.35128476 15.56466084
v -33.20861707 49.35128476 15.57427303
v -33.89753900 50.01142658 15.98757627
v -33.99340236 50.09155686 16.66520425
v -33.99340236 50.09232346 17.66482415
v -34.23062579 43.37034431 17.66482415
v -34.44672618 44.36704045 17.66482415
v -34.36223698 49.35128476 17.66482415
v -34.35411045 49.35128476 16.66520425
v -34.42885375 48.35458862 16.66520425
v -34.43047608 44.36704045 16.66520425
v -34.22087692 43.37034431 16.66520425
v -33.80979919 42.80025694 16.05966618
v -33.20861707 43.37034431 15.68000114
v -32.21097903 43.37034431 15.66077974
v -31.21496926 44.36704045 15.54543646
v -30.21733122 44.36704045 15.55504865
v -17.85086195 47.35789249 15.54543646
v -17.85086195 49.35128476 15.56466084
v -17.85086195 48.94680631 15.55504865
v -33.20861707 48.35458862 15.54543646
v -34.06001913 48.35458862 15.85781917
v -34.02589958 49.35128476 15.87704354
v -34.06001913 44.36704045 15.85781917
v -33.95927984 43.37034431 15.93471369
v -33.20861707 44.36704045 15.54543646
v -17.85086195 48.35458862 15.54543646
f 1 2 3
f 1 3 4
f 1 4 11
f 1 11 21
f 1 21 35
f 1 35 53
f 1 53 74
f 1 74 99
f 1 99 102
f 1 102 121
f 1 121 130
f 1 130 123
f 1 123 122
f 1 122 103
f 1 103 84
f 1 84 58
f 1 58 38
f 1 38 23
f 1 23 13
f 1 13 6
f 1 6 5
f 1 5 2
f 2 5 6
f 2 6 12
f 2 12 7
f 2 7 14
f 2 14 8
f 2 8 3
f 3 8 4
f 4 8 9
f 4 9 10
f 4 10 11
f 6 13 22
f 6 22 12
f 7 12 15
f 7 15 16
f 7 16 24
f 7 24 14
f 8 14 17
f 8 17 10
f 8 10 9
f 10 17 31
f 10 31 18
f 10 18 19
f 10 19 20
f 10 20 21
f 10 21 11
f 12 22 15
f 13 23 37
f 13 37 22
f 14 24 25
f 14 25 26
f 14 26 17
f 15 22 27
f 15 27 28
f 15 28 29
f 15 29 16
f 16 29 30
f 16 30 39
f 16 39 24
f 17 26 31
f 18 31 32
f 18 32 33
f 18 33 19
f 19 34 35
f 19 35 21
f 19 21 20
f 19 33 36
f 19 36 34
f 22 37 27
f 23 38 57
f 23 57 37
f 24 39 25
f 25 39 40
f 25 40 41
f 25 41 26
f 26 41 42
f 26 42 31
f 27 37 43
f 27 43 28
f 28 43 44
f 28 44 45
f 28 45 29
f 29 45 30
f 30 45 46
f 30 46 59
f 30 59 39
f 31 42 32
f 32 42 47
f 32 47 48
f 32 48 49
f 32 49 68
f 32 68 50
f 32 50 51
f 32 51 33
f 33 51 55
f 33 55 36
f 34 36 52
f 34 52 53
f 34 53 35
f 36 54 52
f 36 55 75
f 36 75 54
f 37 56 43
f 37 57 78
f 37 78 56
f 38 58 57
f 39 59 40
f 40 60 41
f 40 59 61
f 40 61 60
f 41 60 47
f 41 47 42
f 43 56 63
f 43 63 44
f 44 62 45
f 44 63 64
f 44 64 62
f 45 62 46
f 46 62 89
f 46 89 65
f 46 65 91
f 46 91 87
f 46 87 59
f 47 60 66
f 47 66 67
f 47 67 48
f 48 67 49
f 49 67 94
f 49 94 68
f 50 68 69
f 50 69 51
f 51 69 97
f 51 97 70
f 51 70 71
f 51 71 72
f 51 72 73
f 51 73 55
f 52 54 53
f 53 54 75
f 53 75 74
f 55 73 76
f 55 76 77
f 55 77 75
f 56 64 63
f 56 78 90
f 56 90 64
f 57 58 79
f 57 79 80
f 57 80 81
f 57 81 82
f 57 82 83
f 57 83 78
f 58 84 79
f 59 85 86
f 59 86 61
f 59 87 109
f 59 109 85
f 60 61 86
f 60 86 88
f 60 88 66
f 62 64 90
f 62 90 89
f 65 89 92
f 65 92 91
f 66 88 86
f 66 86 93
f 66 93 67
f 67 93 85
f 67 85 109
f 67 109 94
f 68 94 95
f 68 95 69
f 69 95 96
f 69 96 97
f 70 97 118
f 70 118 98
f 70 98 71
f 71 99 100
f 71 100 72
f 71 98 101
f 71 101 102
f 71 102 99
f 72 100 76
f 72 76 73
f 74 77 76
f 74 76 100
f 74 100 99
f 74 75 77
f 78 83 90
f 79 84 103
f 79 103 104
f 79 104 105
f 79 105 80
f 80 106 81
f 80 105 106
f 81 106 107
f 81 107 108
f 81 108 82
f 82 108 90
f 82 90 83
f 85 93 86
f 87 91 92
f 87 92 110
f 87 110 109
f 89 108 107
f 89 107 111
f 89 111 92
f 89 90 108
f 92 111 112
f 92 112 113
f 92 113 114
f 92 114 110
f 94 109 115
f 94 115 116
f 94 116 95
f 95 116 96
f 96 116 117
f 96 117 97
f 97 117 118
f 98 118 129
f 98 129 119
f 98 119 120
f 98 120 121
f 98 121 102
f 98 102 101
f 103 122 104
f 104 122 123
f 104 123 124
f 104 124 105
f 105 124 125
f 105 125 126
f 105 126 106
f 106 112 107
f 106 126 112
f 107 112 111
f 109 110 115
f 110 114 115
f 112 126 113
f 113 126 125
f 113 125 114
f 114 125 127
f 114 127 128
f 114 128 115
f 115 128 116
f 116 128 117
f 117 128 129
f 117 129 118
f 119 129 124
f 119 124 130
f 119 130 121
f 119 121 120
f 123 130 124
f 124 129 127
f 124 127 125
f 127 129 128

