# https://github.com/mikedh/trimesh
v 6.30920289 19.44176011 58.48701566
v 6.30920289 16.25516264 58.48701566
v 6.42347426 19.44176011 58.38917191
v 6.42363694 30.77758900 58.38290096
v 6.30920289 30.77758900 58.47823544
v 6.42347426 16.44847308 58.38917191
v 6.30920289 12.46447117 58.48200009
v 6.42347426 10.47096004 58.38290096
v 6.42347426 13.46122673 58.38666264
v 7.96979510 30.77758900 56.65055014
v 6.30920289 30.77758900 45.67816962
v 7.96979510 11.46771561 56.65055014
v 6.30920289 10.47096004 58.47823544
v 7.96979510 -0.07954575 56.61919093
v 7.96979510 30.77758900 47.52090683
v 6.41258367 30.77758900 45.75343438
v 6.30920289 28.56660475 45.67566035
v 6.30920289 9.51045075 58.22735290
v 6.87373243 -0.07954575 56.30934870
v 7.20711932 -0.07954575 56.43479145
v 7.66794346 -0.07954575 56.60789996
v 7.96979510 -0.07954575 47.56230312
v 6.41437166 25.42229348 45.75092585
v 6.41420898 26.41904904 45.75092585
v 7.96979510 11.16566860 47.52090683
v 6.30920289 26.57309362 45.67440645
v 6.30920289 9.48326698 58.21480803
v 6.51498912 -0.07954575 55.54666400
v 6.66567092 -0.07954575 55.86779424
v 7.96979510 0.19833708 47.56104848
v 7.66794346 -0.07954575 47.57108408
v 6.30920289 10.47096004 45.69573154
v 6.39616644 10.47096004 45.75970607
v 6.41420898 24.42553792 45.75092585
v 6.30920289 24.42553792 45.67440645
v 7.96979510 10.16891304 47.52216221
v 6.41323364 20.43851567 45.75092585
v 6.30920289 9.19632165 57.82092230
v 6.45208278 -0.07954575 54.54940332
v 6.90136561 -0.07954575 47.83325685
v 6.30920289 9.65845391 45.85378776
v 6.30920289 16.44847308 45.68444131
v 6.41079569 18.44198421 45.75217974
v 6.40721971 16.44847308 45.75343438
v 6.40185501 13.46122673 45.75594291
v 6.39811711 11.46771561 45.75845218
v 6.30920289 18.44198421 45.68193278
v 6.30920289 8.83688529 57.24263560
v 6.45192010 -0.07954575 51.56012831
v 6.30920289 8.20862784 55.54666400
v 6.30920289 8.16030023 54.54564015
v 6.75068381 -0.07954575 48.14184371
v 6.30920289 9.64033041 45.86131409
v 6.54245962 -0.07954575 48.56959940
v 6.45192010 -0.07954575 49.56560619
v 6.30920289 8.16030023 49.56184303
v 6.30920289 9.26277202 46.40196804
v 6.30920289 8.23279128 48.56959940
v 6.30920289 8.24487336 48.49684317
v 6.30920289 8.69190320 47.22611948
f 1 2 6
f 1 6 3
f 1 3 4
f 1 4 5
f 1 5 11
f 1 11 17
f 1 17 26
f 1 26 35
f 1 35 47
f 1 47 42
f 1 42 32
f 1 32 41
f 1 41 53
f 1 53 57
f 1 57 60
f 1 60 59
f 1 59 58
f 1 58 56
f 1 56 51
f 1 51 50
f 1 50 48
f 1 48 38
f 1 38 27
f 1 27 18
f 1 18 13
f 1 13 7
f 1 7 2
f 2 7 8
f 2 8 9
f 2 9 6
f 3 6 12
f 3 12 10
f 3 10 4
f 4 10 15
f 4 15 16
f 4 16 11
f 4 11 5
f 6 9 12
f 7 13 8
f 8 12 9
f 8 13 14
f 8 14 12
f 10 12 14
f 10 14 22
f 10 22 30
f 10 30 36
f 10 36 25
f 10 25 15
f 11 16 17
f 13 18 19
f 13 19 20
f 13 20 21
f 13 21 14
f 14 21 20
f 14 20 19
f 14 19 29
f 14 29 28
f 14 28 39
f 14 39 49
f 14 49 55
f 14 55 54
f 14 54 52
f 14 52 40
f 14 40 31
f 14 31 22
f 15 23 24
f 15 24 16
f 15 25 23
f 16 24 17
f 17 24 26
f 18 27 28
f 18 28 29
f 18 29 19
f 22 31 32
f 22 32 33
f 22 33 30
f 23 34 35
f 23 35 26
f 23 26 24
f 23 25 34
f 25 36 37
f 25 37 34
f 27 38 39
f 27 39 28
f 30 33 36
f 31 40 41
f 31 41 32
f 32 42 43
f 32 43 44
f 32 44 45
f 32 45 46
f 32 46 33
f 33 46 36
f 34 37 35
f 35 37 47
f 36 46 45
f 36 45 44
f 36 44 43
f 36 43 37
f 37 43 42
f 37 42 47
f 38 48 39
f 39 48 50
f 39 50 51
f 39 51 49
f 40 52 41
f 41 52 54
f 41 54 53
f 49 51 56
f 49 56 55
f 53 54 55
f 53 55 57
f 55 56 58
f 55 58 59
f 55 59 60
f 55 60 57

