# https://github.com/mikedh/trimesh
v -29.71700129 -22.90716313 47.07237277
v -30.14533342 -22.51708811 47.01670528
v -29.76411141 -22.90716313 47.07237277
v -29.71700129 -22.93131097 47.07237277
v -26.54400797 -22.43350071 46.44703984
v -26.54400797 -21.60133936 46.37838327
v -29.48652868 -18.75750625 46.19839061
v -30.21925960 -18.66463053 46.25962559
v -31.21435420 -18.66463053 46.25777001
v -32.21162083 -18.66648909 46.25220326
v -31.21435420 -22.43350071 46.98144921
v -32.21162083 -22.43350071 46.95732663
v -29.76411141 -22.93131097 47.07237277
v -26.54400797 -22.62482334 46.44147309
v -30.21925960 -26.26180896 46.28931492
v -29.46188761 -26.14664397 46.21694644
v -26.54400797 -23.43840806 46.36910535
v -26.54400797 -23.31581330 46.39137235
v -26.54400797 -19.59523880 45.82170653
v -26.54400797 -19.44292352 45.77717254
v -26.54400797 -18.68877837 45.53965719
v -26.54400797 -18.50117136 45.45801154
v -29.49667570 -15.81522473 44.22219034
v -30.21925960 -15.74649833 44.29270249
v -32.21162083 -15.74649833 44.29270249
v -33.20816543 -18.72035596 46.21323527
v -33.20816543 -15.78921982 44.25002408
v -33.20816543 -22.43350071 46.80516883
v -33.20816543 -26.20051084 46.24106976
v -32.21162083 -26.25995189 46.28374817
v -31.21435420 -26.26180896 46.28745933
v -26.54400797 -28.22333097 44.38548163
v -30.21925960 -29.20966317 44.35022556
v -26.54400797 -25.42221786 45.80871745
v -26.54400797 -26.51628678 45.41718871
v -26.54400797 -26.40483593 45.48398970
v -26.54400797 -17.37738339 44.61000791
v -26.54400797 -15.42514970 42.66720776
v -26.57082404 -14.68214993 41.65034571
v -29.56190486 -13.88899594 41.23840519
v -26.54400797 -16.85542529 44.17765635
v -26.54400797 -15.83379987 43.20347234
v -30.21853460 -13.84813152 41.31633967
v -31.21507920 -13.83512907 41.32376238
v -32.21162083 -13.82955637 41.32376238
v -33.76550291 -15.87280722 44.16466652
v -33.76550291 -18.83180533 46.14272312
v -33.20889043 -13.86299104 41.26438335
v -33.74521183 -13.91500084 41.16789267
v -33.81986005 -22.43350071 46.37096094
v -33.77492493 -26.06862926 46.15756779
v -33.20816543 -29.13721967 44.28528016
v -32.21162083 -29.19480365 44.33909206
v -31.21435420 -29.20408900 44.34465881
v -26.54400797 -28.38864870 44.22033475
v -29.44449356 -29.11307184 44.26301316
v -31.21507920 -31.20461836 41.37942986
v -30.21853460 -31.20647542 41.37386312
v -26.54400797 -29.34340183 43.20347234
v -26.54400797 -29.20966317 43.38717579
v -26.54400797 -15.32484571 42.47979314
v -26.57082404 -14.61156498 41.50189871
v -30.21853460 -13.01782873 37.59959779
v -26.57082404 -14.34408471 40.59080508
v -26.57082404 -14.13418693 39.59435445
v -31.21507920 -13.03268825 37.59959779
v -33.91408028 -16.45234782 43.58201237
v -33.87639219 -19.44292352 45.57676884
v -32.21162083 -13.07912685 37.59959779
v -33.20889043 -13.25373141 37.59959779
v -33.82566005 -13.68095672 37.59959779
v -33.85972314 -14.45924970 40.59080508
v -33.94089635 -22.43350071 45.57676884
v -33.94814337 -25.42221786 44.58031858
v -33.92132730 -28.41279356 43.58201237
v -33.78579695 -29.02576881 44.18322310
v -33.20889043 -31.13217782 41.31077292
v -32.21162083 -31.19347297 41.37200753
v -32.21162083 -31.94576106 38.15627415
v -26.57082404 -31.25105695 38.51811356
v -29.44159356 -31.10617292 41.27551685
v -31.21507920 -31.93647571 38.14328507
v -30.48597031 -31.91975615 38.11916230
v -26.57082404 -30.30744624 41.57241086
v -26.54400797 -29.65546363 42.52432750
v -26.57082404 -22.43535778 28.76700114
v -26.57082404 -22.22546000 28.77999022
v -26.57082404 -21.58090715 28.83565771
v -26.57082404 -21.43973725 28.85235795
v -26.57082404 -19.44292352 29.46284622
v -26.57082404 -18.51417381 29.76716182
v -26.57082404 -18.37671805 29.83952956
v -26.57082404 -17.35137849 30.59475478
v -26.57082404 -16.37433311 31.52254773
v -26.57082404 -16.35389941 31.54295988
v -26.57082404 -15.44558191 32.62476696
v -26.57082404 -15.27655004 32.86413864
v -26.57082404 -14.76573733 33.80677625
v -26.57082404 -14.35708716 34.61024589
v -26.57082404 -14.11561179 35.60669689
v -26.57082404 -13.93171892 36.60314715
v -26.57082404 -13.85741983 37.59959779
v -26.57082404 -13.96329651 38.59604832
v -26.54400797 -28.90874675 42.47793756
v -30.21853460 -13.78683340 33.84017675
v -32.21162083 -13.78683340 33.84017675
v -29.49522570 -13.84441738 33.93110105
v -33.20889043 -13.82212661 33.89213381
v -33.94814337 -17.44796834 42.58556174
v -33.94814337 -19.44292352 44.58031858
v -33.94741838 -15.45487023 40.59080508
v -33.76550291 -13.89085449 33.99975762
v -33.94524338 -14.45924970 37.59959779
v -33.94814337 -27.41531597 42.58556174
v -33.94741838 -29.41027412 40.59080508
v -33.78724695 -31.01886990 41.20129353
v -33.61330351 -31.86403221 37.84267971
v -32.94797675 -31.93090154 38.13771832
v -32.21162083 -31.99405672 37.59959779
v -29.83223759 -31.89003711 37.59959779
v -26.57082404 -31.33650291 37.59959779
v -26.54400797 -29.67403729 42.47793756
v -26.57082404 -30.63808170 40.59080508
v -26.57082404 -30.39289219 41.35716287
v -31.21507920 -31.97176596 37.59959779
v -30.32942388 -31.92904447 37.59959779
v -29.69888224 -22.18087995 28.12496796
v -29.69888224 -21.92640213 28.12496796
v -26.57082404 -23.35296359 28.82266863
v -29.48435368 -18.76493601 28.99709342
v -29.49160070 -15.81336766 30.97329370
v -30.21853460 -15.74278271 30.89907038
v -31.21507920 -15.74278271 30.89907038
v -32.21162083 -15.74463978 30.90092596
v -33.20889043 -15.78736276 30.94360437
v -33.94814337 -17.44796834 42.47793756
v -33.94741838 -15.45487023 34.61210147
v -33.76695291 -15.86909160 31.03267384
v -33.91915231 -16.45234782 31.62089437
v -33.94814337 -27.41531597 42.47793756
v -33.94741838 -30.40775171 37.59959779
v -33.80536600 -31.48138694 37.54764128
v -33.71114577 -31.90675370 37.17837935
v -33.25165055 -31.94204692 37.54764128
v -33.20889043 -31.93275860 37.06704419
v -32.21162083 -31.94947816 37.04663259
v -31.21507920 -31.93647571 37.06704419
v -30.43016317 -31.91975615 37.08560001
v -26.57082404 -31.27520479 36.58644691
v -26.57082404 -31.24176864 36.41758849
v -26.57082404 -30.59350017 34.60839031
v -26.57082404 -30.47647811 34.32448575
v -26.57082404 -30.16441927 33.62307354
v -26.57082404 -29.22080856 31.81573132
v -26.57082404 -29.04434544 31.61532762
v -26.57082404 -28.22704510 30.81556915
v -26.57082404 -28.01900588 30.68196718
v -26.57082404 -26.37140275 29.74860599
v -26.57082404 -26.15778935 29.65026010
v -26.57082404 -25.42036079 29.39790082
v -26.57082404 -25.27176262 29.35151125
v -29.92428283 -22.83843526 28.13610146
v -30.24100365 -22.48179489 28.12496796
v -32.21162083 -22.95174318 28.11940121
v -30.21853460 -21.92640213 28.12496796
v -30.21853460 -18.67391885 28.93214802
v -32.21162083 -22.61182089 28.11940121
v -29.46333761 -26.15407521 28.98039318
v -32.21162083 -18.67391885 28.93214802
v -33.20889043 -18.72407158 28.97111526
v -33.94741838 -17.44796834 32.61920021
v -33.94741838 -19.44292352 30.62444411
v -33.94741838 -22.43535778 29.62613752
v -33.77202790 -18.82809120 29.04904974
v -33.88726421 -19.44292352 29.62613752
v -33.94741838 -25.42036079 30.62444411
v -33.94741838 -29.41027412 34.61210147
v -33.89668623 -30.40775171 34.61210147
v -33.71114577 -31.90675370 37.09858910
v -33.20889043 -31.05416014 33.84388791
v -32.21162083 -31.10059874 33.77894251
v -30.21853460 -31.10617292 33.77337576
v -31.21507920 -31.10617292 33.77337576
v -29.46768463 -31.03744356 33.88842265
v -30.21853460 -29.14836505 30.89350363
v -29.48725368 -29.06292207 30.97143811
v -30.21853460 -26.27109728 28.90802544
v -30.58743756 -22.93316804 28.13053471
v -32.82694045 -22.94617049 28.12125680
v -32.21162083 -26.27109728 28.90802544
v -30.89618338 -21.93197482 28.12867913
v -32.82694045 -22.74556103 28.12125680
v -31.56078812 -22.02856468 28.13610146
v -32.21162083 -22.11772477 28.14537937
v -33.17917436 -22.42421239 28.24001410
v -33.82783207 -22.43535778 28.75586764
v -33.77927493 -26.07791757 29.03791625
v -33.92784933 -28.41093649 31.62089437
v -33.76767791 -30.97614544 33.97563504
v -33.77275290 -29.02205468 31.03081825
v -33.20889043 -29.12793433 30.93989320
v -32.21162083 -29.17251289 30.88979247
v -31.21507920 -29.16322457 30.88793688
v -33.20889043 -26.21165623 28.94884827
f 1 2 3
f 1 3 13
f 1 13 4
f 1 4 5
f 1 5 6
f 1 6 7
f 1 7 8
f 1 8 2
f 2 8 9
f 2 9 10
f 2 10 11
f 2 11 3
f 3 11 12
f 3 12 13
f 4 14 5
f 4 13 15
f 4 15 16
f 4 16 17
f 4 17 18
f 4 18 14
f 5 14 18
f 5 18 17
f 5 17 34
f 5 34 36
f 5 36 35
f 5 35 32
f 5 32 55
f 5 55 60
f 5 60 59
f 5 59 85
f 5 85 122
f 5 122 104
f 5 104 61
f 5 61 38
f 5 38 42
f 5 42 41
f 5 41 37
f 5 37 22
f 5 22 21
f 5 21 20
f 5 20 19
f 5 19 6
f 6 19 7
f 7 19 20
f 7 20 21
f 7 21 22
f 7 22 23
f 7 23 8
f 8 23 24
f 8 24 25
f 8 25 9
f 9 25 10
f 10 26 12
f 10 12 11
f 10 25 27
f 10 27 26
f 12 26 28
f 12 28 29
f 12 29 13
f 13 29 30
f 13 30 31
f 13 31 15
f 15 32 16
f 15 31 33
f 15 33 32
f 16 34 17
f 16 32 35
f 16 35 36
f 16 36 34
f 22 37 23
f 23 38 39
f 23 39 40
f 23 40 24
f 23 37 41
f 23 41 42
f 23 42 38
f 24 40 43
f 24 43 44
f 24 44 45
f 24 45 25
f 25 45 27
f 26 27 46
f 26 46 47
f 26 47 28
f 27 45 48
f 27 48 49
f 27 49 46
f 28 47 50
f 28 50 51
f 28 51 29
f 29 51 52
f 29 52 53
f 29 53 30
f 30 53 54
f 30 54 33
f 30 33 31
f 32 33 56
f 32 56 55
f 33 54 57
f 33 57 58
f 33 58 59
f 33 59 60
f 33 60 56
f 38 61 39
f 39 62 40
f 39 61 62
f 40 63 43
f 40 62 64
f 40 64 65
f 40 65 63
f 43 63 44
f 44 63 45
f 45 63 66
f 45 66 48
f 46 67 47
f 46 49 67
f 47 68 50
f 47 67 68
f 48 66 69
f 48 69 49
f 49 69 70
f 49 70 71
f 49 71 72
f 49 72 67
f 50 68 73
f 50 73 51
f 51 74 75
f 51 75 76
f 51 76 52
f 51 73 74
f 52 76 77
f 52 77 78
f 52 78 53
f 53 78 57
f 53 57 54
f 55 56 60
f 57 78 79
f 57 79 58
f 58 80 81
f 58 81 59
f 58 79 82
f 58 82 83
f 58 83 80
f 59 81 84
f 59 84 85
f 61 86 87
f 61 87 88
f 61 88 89
f 61 89 90
f 61 90 91
f 61 91 92
f 61 92 93
f 61 93 94
f 61 94 95
f 61 95 96
f 61 96 97
f 61 97 98
f 61 98 99
f 61 99 100
f 61 100 101
f 61 101 102
f 61 102 103
f 61 103 65
f 61 65 64
f 61 64 62
f 61 104 86
f 63 105 106
f 63 106 66
f 63 65 103
f 63 103 102
f 63 102 101
f 63 101 100
f 63 100 107
f 63 107 105
f 66 106 108
f 66 108 69
f 67 109 110
f 67 110 68
f 67 72 111
f 67 111 109
f 68 110 73
f 69 108 112
f 69 112 70
f 70 112 71
f 71 112 113
f 71 113 72
f 72 113 111
f 73 110 74
f 74 114 75
f 74 110 109
f 74 109 136
f 74 136 140
f 74 140 114
f 75 114 115
f 75 115 116
f 75 116 76
f 76 116 77
f 77 116 117
f 77 117 118
f 77 118 78
f 78 118 79
f 79 119 82
f 79 118 119
f 80 83 120
f 80 120 121
f 80 121 122
f 80 122 123
f 80 123 81
f 81 123 124
f 81 124 84
f 82 119 125
f 82 125 83
f 83 125 126
f 83 126 120
f 84 124 122
f 84 122 85
f 86 127 128
f 86 128 87
f 86 104 122
f 86 122 129
f 86 129 127
f 87 128 88
f 88 128 89
f 89 128 130
f 89 130 90
f 90 130 91
f 91 130 92
f 92 130 131
f 92 131 93
f 93 131 94
f 94 131 95
f 95 131 96
f 96 131 97
f 97 131 107
f 97 107 98
f 98 107 99
f 99 107 100
f 105 107 132
f 105 132 133
f 105 133 106
f 106 133 134
f 106 134 108
f 107 131 132
f 108 134 135
f 108 135 112
f 109 111 137
f 109 137 136
f 111 113 137
f 112 135 138
f 112 138 139
f 112 139 137
f 112 137 113
f 114 140 141
f 114 141 115
f 115 141 116
f 116 141 142
f 116 142 143
f 116 143 117
f 117 143 144
f 117 144 118
f 118 144 119
f 119 144 145
f 119 145 146
f 119 146 147
f 119 147 125
f 120 126 148
f 120 148 149
f 120 149 121
f 121 149 122
f 122 124 123
f 122 149 150
f 122 150 151
f 122 151 152
f 122 152 153
f 122 153 154
f 122 154 155
f 122 155 156
f 122 156 157
f 122 157 158
f 122 158 159
f 122 159 160
f 122 160 161
f 122 161 129
f 125 147 148
f 125 148 126
f 127 129 162
f 127 162 163
f 127 163 164
f 127 164 167
f 127 167 128
f 128 165 169
f 128 169 166
f 128 166 130
f 128 167 165
f 129 161 168
f 129 168 162
f 130 166 131
f 131 166 132
f 132 166 169
f 132 169 133
f 133 169 134
f 134 169 135
f 135 169 170
f 135 170 138
f 136 137 171
f 136 171 172
f 136 172 173
f 136 173 140
f 137 139 171
f 138 170 174
f 138 174 139
f 139 174 175
f 139 175 172
f 139 172 171
f 140 176 177
f 140 177 141
f 140 173 176
f 141 177 178
f 141 178 142
f 142 179 143
f 142 178 179
f 143 179 144
f 144 179 145
f 145 179 180
f 145 180 181
f 145 181 146
f 146 182 147
f 146 181 183
f 146 183 182
f 147 182 148
f 148 182 184
f 148 184 150
f 148 150 149
f 150 184 151
f 151 184 152
f 152 184 153
f 153 184 154
f 154 184 182
f 154 182 185
f 154 185 155
f 155 185 186
f 155 186 156
f 156 186 185
f 156 185 187
f 156 187 157
f 157 187 168
f 157 168 158
f 158 168 159
f 159 168 160
f 160 168 161
f 162 168 187
f 162 187 188
f 162 188 163
f 163 188 164
f 164 189 192
f 164 192 167
f 164 188 187
f 164 187 190
f 164 190 189
f 165 191 169
f 165 167 191
f 167 192 191
f 169 191 193
f 169 193 194
f 169 194 170
f 170 194 195
f 170 195 174
f 172 175 173
f 173 175 196
f 173 196 197
f 173 197 176
f 174 195 196
f 174 196 175
f 176 197 198
f 176 198 177
f 177 198 178
f 178 199 179
f 178 198 199
f 179 199 180
f 180 199 200
f 180 200 201
f 180 201 181
f 181 201 202
f 181 202 183
f 182 183 202
f 182 202 203
f 182 203 185
f 185 203 187
f 187 203 202
f 187 202 190
f 189 190 204
f 189 204 197
f 189 197 195
f 189 195 192
f 190 202 201
f 190 201 204
f 191 192 193
f 192 195 194
f 192 194 193
f 195 197 196
f 197 204 200
f 197 200 198
f 198 200 199
f 200 204 201

