# https://github.com/mikedh/trimesh
v -3.68182719 -50.39835217 42.47922116
v -3.68182719 -42.43166760 42.47922116
v 0.68843347 -50.39835217 42.47922116
v -3.68182719 -50.39835217 63.52269631
v -3.63240577 -36.26502624 51.22636480
v -3.61443455 -36.26502624 50.56251923
v -2.59840818 -36.26502624 42.47922116
v -3.68182719 -42.43028297 50.94650828
v -3.63561516 -36.26502624 61.19055838
v -3.63368938 -36.26502624 55.21160872
v 1.57866015 -50.25722684 42.47922116
v 2.87516850 -50.33470671 45.77024679
v 2.87516850 -50.39835217 46.57510552
v -0.30833769 -50.39835217 63.52269631
v -3.68182719 -50.12301872 64.31670752
v 2.31420416 -36.26502624 42.47922116
v -3.68182719 -42.43028297 62.90874646
v -3.63561516 -36.26502624 62.52475816
v 1.69354881 -50.22678874 42.47922116
v 2.26028975 -49.95975120 42.47922116
v 2.87516850 -50.29596678 45.57933717
v 2.87516850 -50.39835217 57.53940704
v 0.68843347 -50.39835217 62.52475816
v 0.68843347 -50.31810303 63.52269631
v -0.30833769 -50.12301872 64.31236941
v -1.30446696 -50.12301872 64.31670752
v -3.68182719 -49.35097737 64.62693603
v 2.33730981 -36.26502624 42.48139096
v 2.33666801 -36.26779551 42.47922116
v -3.68182719 -42.45241923 63.52269631
v -3.68182719 -42.50499656 63.78953626
v -3.68182719 -42.67240906 64.22776136
v -3.68182719 -42.91730441 64.34491119
v -3.68182719 -43.36835517 64.53798987
v -3.53356292 -36.26502624 63.52269631
v 2.33410079 -49.35097737 42.47922116
v 2.87516850 -50.03862164 44.72241219
v 2.87516850 -50.09949784 44.85040878
v 2.87516850 -50.32363561 58.53734519
v 1.77827088 -50.11610151 62.60285755
v 1.48559353 -50.04415422 63.52269631
v 1.26480219 -49.92654978 64.08240935
v 0.68843347 -50.04415422 64.21040594
v -0.30833769 -49.35097737 64.61174966
v -1.30446696 -49.35097737 64.62693603
v -3.68182719 -48.73666503 64.63561374
v 2.33666801 -40.37980887 42.47922116
v 2.87516850 -36.26502624 44.45340317
v 2.87516850 -46.35966478 44.45123338
v 2.87516850 -48.35341064 44.45123338
v -3.68182719 -43.75160658 64.58137842
v -2.78582429 -36.26502624 64.26030315
v 2.33474260 -48.35341064 42.47922116
v 2.87516850 -49.35097737 44.47509745
v 2.87516850 -49.37587992 44.47943630
v 2.87516850 -50.07043843 59.41813350
v 2.23910914 -49.92931310 62.32300029
v 1.30395440 -49.35097737 64.11278059
v 0.68843347 -49.35097737 64.40131557
v 2.16979108 -49.35097737 62.96949192
v 1.78789830 -49.35097737 63.52269631
v -0.30833769 -48.35341064 64.62259792
v -1.30446696 -48.35341064 64.63995334
v -3.68182719 -48.35341064 64.63995334
v 2.33602620 -43.24521518 42.47922116
v 2.87516850 -36.26502624 57.70211448
v -3.68182719 -44.36591893 64.64212239
v -1.30446696 -36.26502624 64.61825832
v 2.87516850 -49.35097737 59.69582171
v 1.30459620 -47.35722854 64.11495113
v 0.68843347 -48.35341064 64.40565368
v 1.79174949 -48.35341064 63.52269631
v 2.17300009 -48.35341064 62.96949192
v 2.87516850 -48.35341064 59.71317713
v 0.68843347 -41.37599097 64.40782422
v -0.18125403 -36.26502624 64.59656330
v -0.30833769 -36.26502624 64.62259792
v -1.30446696 -38.38467838 64.63995334
v 2.87388489 -36.26502624 59.71317713
v 2.87516850 -36.39093252 59.71100659
v 1.79431707 -43.36835517 63.52269631
v 1.37070487 -36.26502624 64.04118986
v 1.30780521 -36.39093252 64.11712019
v 2.17300009 -47.35722854 62.97166098
v 2.17492550 -36.39093252 62.98033869
v 2.17364190 -46.35966478 62.97166098
v 2.87516850 -46.35966478 59.71317713
v 2.17492550 -38.38467838 62.97816814
v 0.76737931 -36.26502624 64.37094284
v 0.68843347 -36.26502624 64.40782422
v 2.17492550 -36.26502624 62.98033869
v 1.79624248 -39.38224511 63.52269631
v 1.30780521 -36.26502624 64.11712019
v 1.79752608 -36.39093252 63.52269631
v 1.79752608 -36.26502624 63.52269631
v 2.17428370 -41.37599097 62.97599909
f 1 2 7
f 1 7 16
f 1 16 29
f 1 29 47
f 1 47 65
f 1 65 53
f 1 53 36
f 1 36 20
f 1 20 19
f 1 19 11
f 1 11 3
f 1 3 13
f 1 13 22
f 1 22 23
f 1 23 14
f 1 14 4
f 1 4 15
f 1 15 27
f 1 27 46
f 1 46 64
f 1 64 67
f 1 67 51
f 1 51 34
f 1 34 33
f 1 33 32
f 1 32 31
f 1 31 30
f 1 30 17
f 1 17 8
f 1 8 2
f 2 5 6
f 2 6 7
f 2 8 9
f 2 9 10
f 2 10 5
f 3 11 12
f 3 12 13
f 4 14 26
f 4 26 15
f 5 10 9
f 5 9 18
f 5 18 35
f 5 35 52
f 5 52 68
f 5 68 77
f 5 77 76
f 5 76 90
f 5 90 89
f 5 89 93
f 5 93 82
f 5 82 95
f 5 95 91
f 5 91 79
f 5 79 66
f 5 66 48
f 5 48 28
f 5 28 16
f 5 16 7
f 5 7 6
f 8 17 18
f 8 18 9
f 11 19 12
f 12 19 20
f 12 20 21
f 12 21 38
f 12 38 37
f 12 37 55
f 12 55 54
f 12 54 50
f 12 50 49
f 12 49 48
f 12 48 66
f 12 66 80
f 12 80 87
f 12 87 74
f 12 74 69
f 12 69 56
f 12 56 39
f 12 39 22
f 12 22 13
f 14 23 24
f 14 24 25
f 14 25 26
f 15 26 45
f 15 45 27
f 16 28 29
f 17 30 18
f 18 30 31
f 18 31 32
f 18 32 33
f 18 33 34
f 18 34 35
f 20 36 37
f 20 37 38
f 20 38 21
f 22 39 23
f 23 39 24
f 24 39 40
f 24 40 41
f 24 41 42
f 24 42 43
f 24 43 25
f 25 43 44
f 25 44 45
f 25 45 26
f 27 45 46
f 28 47 29
f 28 48 49
f 28 49 50
f 28 50 47
f 34 51 52
f 34 52 35
f 36 53 50
f 36 50 54
f 36 54 55
f 36 55 37
f 39 56 57
f 39 57 40
f 40 57 41
f 41 57 42
f 42 58 59
f 42 59 43
f 42 57 60
f 42 60 61
f 42 61 58
f 43 59 44
f 44 62 63
f 44 63 45
f 44 59 62
f 45 63 46
f 46 63 64
f 47 50 65
f 50 53 65
f 51 67 52
f 52 67 68
f 56 69 60
f 56 60 57
f 58 70 71
f 58 71 59
f 58 61 72
f 58 72 70
f 59 71 62
f 60 73 72
f 60 72 61
f 60 69 74
f 60 74 73
f 62 71 75
f 62 75 76
f 62 76 77
f 62 77 78
f 62 78 63
f 63 78 67
f 63 67 64
f 66 79 80
f 67 78 68
f 68 78 77
f 70 72 81
f 70 81 82
f 70 82 83
f 70 83 71
f 71 83 75
f 72 73 84
f 72 84 85
f 72 85 81
f 73 86 84
f 73 74 86
f 74 87 91
f 74 91 85
f 74 85 88
f 74 88 86
f 75 83 89
f 75 89 90
f 75 90 76
f 79 91 80
f 80 91 87
f 81 85 92
f 81 92 82
f 82 93 83
f 82 92 94
f 82 94 95
f 83 93 89
f 84 86 96
f 84 96 85
f 85 91 95
f 85 95 94
f 85 94 92
f 85 96 88
f 86 88 96

