# https://github.com/mikedh/trimesh
v 2.89869644 19.44191164 59.70771883
v 5.34307039 20.43821111 59.08811904
v 5.33105293 30.77758900 59.08513288
v 2.89869644 30.77758900 59.69278800
v 2.89869644 12.46338516 59.70025490
v 5.33171999 10.47078548 59.08513288
v 5.33606033 13.46189825 59.08662596
v 5.34273686 17.44931271 59.08811904
v 5.34340466 18.44561218 59.08811904
v 5.84182701 18.44561218 58.88805482
v 5.51533207 30.77758900 59.01048318
v 2.89869644 30.77758900 44.46107510
v 2.89869644 11.46708569 59.69876034
v 2.89869644 10.47078548 59.69129641
v 5.27930757 9.83536792 59.06870896
v 5.83014308 10.47078548 58.88058940
v 5.83448268 13.46189825 58.88507014
v 5.84015788 16.45301176 58.88805482
v 5.84149348 17.44931271 58.88805482
v 6.30920289 17.25447947 58.48792785
v 6.30920289 18.44561218 58.48792785
v 6.30920289 30.77758900 58.47896935
v 5.84149348 20.43821111 58.88656173
v 5.82947528 30.77758900 58.88058940
v 5.23657568 30.77758900 45.06275937
v 2.89869644 28.41303855 44.45808967
v 2.89869644 9.41027972 59.48227368
v 6.30452902 9.47227165 58.22067934
v 6.18167651 8.96969392 58.05346146
v 6.30920289 9.50990997 58.22665019
v 6.30920289 10.47078548 58.47896935
v 6.30920289 12.46338516 58.48195552
v 6.30920289 30.77758900 45.67788066
v 6.04914198 30.77758900 58.69695058
v 5.23690995 30.40785111 45.06275937
v 2.89869644 26.42043961 44.45659659
v 5.55071888 30.77758900 45.18369317
v 5.73600010 26.42043961 45.25237202
v 2.89869644 8.99626188 58.94479049
v 6.30920289 9.47227165 58.20276234
v 6.30920289 9.48334200 58.21470701
v 6.30920289 9.19773600 57.82055088
v 6.30920289 8.20807815 55.54669372
v 6.30920289 8.83685409 57.24275594
v 6.30920289 29.56431707 45.67638757
v 5.73533230 30.77758900 45.25535819
v 5.73633363 25.42192504 45.25237202
v 5.23791128 25.42192504 45.06275937
v 2.89869644 12.46338516 44.45510351
v 6.30920289 25.57690558 45.67340141
v 2.89869644 8.90105963 58.42820750
v 6.30920289 8.16158384 54.54488098
v 5.73633363 24.42562408 45.25237202
v 5.23791128 24.42562408 45.06275937
v 5.21020233 10.47078548 45.07171713
v 2.89869644 11.41173539 44.45659659
v 6.30920289 24.42562408 45.67340141
v 2.89869644 8.88113403 57.66975692
v 6.30920289 8.15937021 50.55853842
v 2.89869644 8.87891966 57.54135771
v 6.30920289 15.45449867 45.68683841
v 6.30920289 13.46189825 45.68982458
v 6.30920289 10.47078548 45.69579691
v 5.70862543 10.47078548 45.26132978
v 5.19885193 9.94606778 45.07470330
v 2.89869644 10.47078548 44.46406126
v 2.89869644 8.87891966 46.57518054
v 6.30920289 8.16158384 49.56269877
v 6.30920289 9.65824741 45.85405593
v 2.89869644 9.46563002 44.66561783
v 2.89869644 10.42871991 44.46854051
v 6.30920289 9.64053543 45.86152097
v 6.11590954 8.97854991 46.13324947
v 2.89869644 8.90327400 45.71669859
v 6.30920289 8.23243175 48.56984602
v 2.89869644 9.35050143 44.78207312
v 6.30920289 9.26194154 46.40199181
v 2.89869644 8.99847551 45.47483101
v 2.89869644 9.19330800 45.04932237
v 6.30920289 8.69073028 47.22613433
v 6.30920289 8.24350211 48.49668792
f 1 2 3
f 1 3 4
f 1 4 12
f 1 12 26
f 1 26 36
f 1 36 49
f 1 49 56
f 1 56 66
f 1 66 71
f 1 71 70
f 1 70 76
f 1 76 79
f 1 79 78
f 1 78 74
f 1 74 67
f 1 67 60
f 1 60 58
f 1 58 51
f 1 51 39
f 1 39 27
f 1 27 14
f 1 14 13
f 1 13 5
f 1 5 6
f 1 6 7
f 1 7 8
f 1 8 9
f 1 9 2
f 2 9 10
f 2 10 3
f 3 11 24
f 3 24 34
f 3 34 22
f 3 22 33
f 3 33 46
f 3 46 37
f 3 37 25
f 3 25 12
f 3 12 4
f 3 10 11
f 5 13 6
f 6 13 14
f 6 14 15
f 6 15 16
f 6 16 17
f 6 17 18
f 6 18 7
f 7 18 8
f 8 18 19
f 8 19 9
f 9 19 10
f 10 19 20
f 10 20 21
f 10 21 22
f 10 22 23
f 10 23 11
f 11 23 24
f 12 25 26
f 14 27 15
f 15 28 16
f 15 27 29
f 15 29 28
f 16 28 30
f 16 30 31
f 16 31 17
f 17 31 18
f 18 31 32
f 18 32 20
f 18 20 19
f 20 32 31
f 20 31 30
f 20 30 41
f 20 41 40
f 20 40 42
f 20 42 44
f 20 44 43
f 20 43 52
f 20 52 59
f 20 59 68
f 20 68 75
f 20 75 81
f 20 81 80
f 20 80 77
f 20 77 72
f 20 72 69
f 20 69 63
f 20 63 62
f 20 62 61
f 20 61 57
f 20 57 50
f 20 50 45
f 20 45 33
f 20 33 22
f 20 22 21
f 22 34 23
f 23 34 24
f 25 35 36
f 25 36 26
f 25 37 38
f 25 38 35
f 27 39 29
f 28 40 41
f 28 41 30
f 28 29 40
f 29 42 40
f 29 39 43
f 29 43 44
f 29 44 42
f 33 45 46
f 35 38 47
f 35 47 48
f 35 48 49
f 35 49 36
f 37 46 38
f 38 50 47
f 38 46 45
f 38 45 50
f 39 51 43
f 43 51 52
f 47 50 57
f 47 57 53
f 47 53 54
f 47 54 48
f 48 54 49
f 49 54 55
f 49 55 56
f 51 58 52
f 52 58 60
f 52 60 59
f 53 57 61
f 53 61 62
f 53 62 63
f 53 63 64
f 53 64 55
f 53 55 54
f 55 64 65
f 55 65 66
f 55 66 56
f 59 67 68
f 59 60 67
f 63 69 64
f 64 69 65
f 65 70 71
f 65 71 66
f 65 69 72
f 65 72 73
f 65 73 70
f 67 74 68
f 68 74 75
f 70 73 76
f 72 77 73
f 73 78 79
f 73 79 76
f 73 77 80
f 73 80 81
f 73 81 74
f 73 74 78
f 74 81 75

