# https://github.com/mikedh/trimesh
v -29.74846746 -13.46468697 62.52422630
v -29.74846746 -11.46731165 62.52422630
v -29.74846746 -11.46731165 61.52789266
v -29.74627760 -34.39516617 50.56479154
v -29.74627760 -34.39516617 63.52055845
v -29.74627760 -10.47142149 63.52055845
v -29.74627760 -10.47142149 50.56479154
v -29.73093673 -34.39516617 50.00134802
v -29.72874688 -34.91828902 50.02367964
v -29.73093673 -34.93507395 50.56479154
v -29.73093673 -34.93507395 63.52055845
v -29.72874688 -34.91828902 64.03590390
v -29.73093673 -34.39516617 64.04621137
v -29.73093673 -10.47142149 64.04621137
v -29.72874688 -9.95109687 64.03590390
v -29.73093673 -9.93711017 63.52055845
v -29.73093673 -9.93711017 62.52422630
v -29.73093673 -9.93990766 55.54989382
v -29.73093673 -9.94270515 50.56479154
v -29.72436419 -9.95389436 50.02539706
v -29.73093673 -10.47142149 50.00306618
v -29.73093673 -20.44431135 50.00134802
v -29.27077594 -34.39516617 49.50146379
v -28.75364325 -34.94626390 49.06170252
v -29.12396352 -35.26517161 49.61483931
v -28.83471841 -35.93935584 49.87079387
v -29.38691255 -35.43301792 50.56479154
v -29.38691255 -35.43301792 63.52055845
v -28.83471841 -35.93935584 64.10461543
v -29.18531810 -35.30713541 64.20596681
v -29.21818673 -34.39516617 64.35541774
v -29.21818673 -10.47142149 64.35541774
v -29.12834620 -9.55945522 64.16130505
v -28.73611252 -8.96919488 64.03246758
v -29.24667267 -9.43916472 63.52055845
v -29.24667267 -9.43916472 62.52422630
v -29.24448282 -9.44196220 55.54989382
v -29.24228999 -9.44475969 50.56479154
v -28.73611252 -8.96919488 50.03398712
v -25.74725721 -7.46976354 47.09136835
v -28.75364325 -9.93990766 49.06170252
v -29.27077594 -10.47142149 49.50489936
v -29.27077594 -11.46731165 49.50318120
v -29.27077594 -30.40601052 49.50146379
v -28.76898115 -34.39516617 49.05826694
v -28.22336251 -35.47218276 49.27299458
v -25.73630050 -30.93752435 47.09136835
v -25.62016538 -31.43547129 47.09136835
v -25.42952614 -31.89984541 47.09136835
v -25.22354901 -32.40058835 47.09136835
v -24.83569949 -32.97126701 47.09136835
v -28.22336251 -35.96733072 49.77116066
v -28.22336251 -36.04566039 50.56479154
v -28.88950044 -35.96733072 50.56479154
v -28.88950044 -35.96733072 63.52055845
v -28.22336251 -36.04566039 63.52055845
v -28.22336251 -35.96733072 64.14756126
v -28.22336251 -35.39105709 64.45848654
v -28.22336251 -34.39516617 64.63885692
v -28.22336251 -10.47142149 64.63885692
v -28.22336251 -9.47273383 64.34854511
v -28.22336251 -8.96359991 64.03762131
v -24.23310748 -7.46976354 62.64275482
v -25.23231437 -7.46976354 62.33354844
v -25.72753662 -7.46976354 62.02434058
v -28.74487788 -8.96359991 63.52055845
v -28.74487788 -8.96359991 50.56479154
v -25.74725721 -7.46976354 58.54404698
v -7.36272394 -7.46976354 47.09136835
v -25.99925101 -20.91148444 47.09136835
v -28.76898115 -10.47142149 49.05826694
v -26.00363221 -23.41240018 47.09136835
v -27.22196280 -35.47218276 49.27127642
v -27.22196280 -35.97012970 49.77116066
v -24.52235260 -33.01322785 47.09136835
v -24.23310748 -33.04959668 47.09136835
v -23.71816465 -33.05239268 47.09136835
v -7.36491528 -36.04566039 50.56479154
v -7.36491528 -36.04845639 63.44669318
v -7.36491528 -36.04845639 63.52055845
v -27.22196280 -35.97012970 64.14756126
v -7.36491528 -35.39105709 64.45848654
v -7.36491528 -34.47069687 64.62683203
v -7.36491528 -34.39516617 64.63885692
v -27.22196280 -10.46862400 64.63885692
v -27.22196280 -9.47273383 64.35026401
v -27.22196280 -8.96359991 64.03933873
v -8.28523687 -7.46976354 62.64618965
v -25.73410916 -7.46976354 61.63611519
v -7.36272394 -31.11656062 47.09136835
v -7.36272394 -7.46976354 48.64255545
v -26.00363221 -22.85570748 47.09136835
v -7.36491528 -35.47218276 49.27127642
v -7.36491528 -35.97012970 49.77116066
v -16.74343698 -33.05239268 47.09136835
v -7.36272394 -32.40338732 48.64255545
v -7.36491528 -35.97012970 64.14756126
v -7.36491528 -10.46862400 64.63885692
v -7.36491528 -9.47273383 64.35026401
v -7.36491528 -8.99996577 64.06338851
v -7.36491528 -8.96359991 64.03933873
v -8.27866359 -7.46976354 62.64618965
v -9.56930620 -32.97126701 47.09136835
v -7.36491528 -7.46976354 62.64275482
v -10.28146006 -33.04959668 47.09136835
f 1 2 3
f 1 3 4
f 1 4 5
f 1 5 6
f 1 6 2
f 2 6 7
f 2 7 3
f 3 7 4
f 4 8 9
f 4 9 10
f 4 10 11
f 4 11 5
f 4 7 22
f 4 22 8
f 5 11 12
f 5 12 13
f 5 13 14
f 5 14 6
f 6 14 15
f 6 15 16
f 6 16 17
f 6 17 7
f 7 17 18
f 7 18 19
f 7 19 20
f 7 20 21
f 7 21 22
f 8 23 9
f 8 22 44
f 8 44 23
f 9 24 25
f 9 25 26
f 9 26 27
f 9 27 10
f 9 23 24
f 10 27 28
f 10 28 11
f 11 28 12
f 12 28 29
f 12 29 30
f 12 30 31
f 12 31 13
f 13 31 32
f 13 32 14
f 14 32 15
f 15 32 33
f 15 33 34
f 15 34 35
f 15 35 16
f 16 35 36
f 16 36 17
f 17 36 18
f 18 36 19
f 19 36 37
f 19 37 38
f 19 38 20
f 20 38 39
f 20 39 40
f 20 40 41
f 20 41 42
f 20 42 21
f 21 42 43
f 21 43 22
f 22 43 44
f 23 45 24
f 23 44 71
f 23 71 45
f 24 46 26
f 24 26 25
f 24 45 47
f 24 47 48
f 24 48 49
f 24 49 50
f 24 50 51
f 24 51 46
f 26 46 52
f 26 52 53
f 26 53 54
f 26 54 27
f 27 54 55
f 27 55 28
f 28 55 29
f 29 55 56
f 29 56 57
f 29 57 58
f 29 58 30
f 30 58 59
f 30 59 31
f 31 59 60
f 31 60 32
f 32 60 33
f 33 61 34
f 33 60 61
f 34 61 62
f 34 62 63
f 34 63 64
f 34 64 65
f 34 65 66
f 34 66 35
f 35 66 67
f 35 67 36
f 36 67 37
f 37 67 38
f 38 67 39
f 39 67 40
f 40 67 66
f 40 66 68
f 40 68 89
f 40 89 65
f 40 65 64
f 40 64 63
f 40 63 88
f 40 88 102
f 40 102 104
f 40 104 91
f 40 91 69
f 40 69 90
f 40 90 103
f 40 103 105
f 40 105 95
f 40 95 77
f 40 77 76
f 40 76 75
f 40 75 51
f 40 51 50
f 40 50 49
f 40 49 48
f 40 48 47
f 40 47 72
f 40 72 92
f 40 92 70
f 40 70 71
f 40 71 41
f 41 71 42
f 42 71 43
f 43 71 44
f 45 71 92
f 45 92 72
f 45 72 47
f 46 73 74
f 46 74 52
f 46 51 75
f 46 75 76
f 46 76 77
f 46 77 73
f 52 74 53
f 53 56 55
f 53 55 54
f 53 74 94
f 53 94 78
f 53 78 79
f 53 79 80
f 53 80 56
f 56 80 81
f 56 81 57
f 57 81 58
f 58 81 97
f 58 97 82
f 58 82 83
f 58 83 59
f 59 83 84
f 59 84 98
f 59 98 85
f 59 85 60
f 60 85 86
f 60 86 61
f 61 86 87
f 61 87 62
f 62 87 63
f 63 87 88
f 65 89 66
f 66 89 68
f 69 91 96
f 69 96 90
f 70 92 71
f 73 93 94
f 73 94 74
f 73 77 95
f 73 95 93
f 78 94 96
f 78 96 79
f 79 96 80
f 80 96 97
f 80 97 81
f 82 97 96
f 82 96 83
f 83 96 84
f 84 96 91
f 84 91 98
f 85 98 99
f 85 99 86
f 86 99 100
f 86 100 87
f 87 100 101
f 87 101 102
f 87 102 88
f 90 96 94
f 90 94 93
f 90 93 103
f 91 104 101
f 91 101 100
f 91 100 99
f 91 99 98
f 93 95 105
f 93 105 103
f 101 104 102

