# https://github.com/mikedh/trimesh
v 1.34644747 -3.47585565 48.55609034
v 1.34447860 -3.47585565 47.55939718
v 1.34152549 -2.49203940 46.57454617
v 1.33857238 -0.49847349 47.57321228
v 1.33758814 -0.07954538 47.57321228
v 1.33512715 -0.49847349 59.53353323
v 1.33660352 -2.49203940 58.53684006
v 1.33365041 -3.47585565 57.54014690
v 1.33906451 -3.47585565 46.56270401
v 1.33660352 -2.49203940 45.57785226
v 1.33660352 -1.49558896 45.57785226
v 1.33906451 -1.49558896 46.57454617
v 1.33069693 -0.49847349 44.58115909
v 1.32922056 -0.07954538 44.58115909
v 1.33365041 -0.07954538 59.53353323
v 1.28836839 -0.07954538 59.88286863
v 1.25686805 -0.49847349 60.13352238
v 1.23225818 -1.29576689 60.09799740
v 1.24653161 -3.47585565 59.21182804
v 1.32232972 -3.47585565 58.53684006
v 1.32675957 -3.47585565 45.57785226
v 1.30904053 -1.49558896 44.58115909
v 1.25391457 -0.49847349 43.99103767
v 1.25145358 -0.07954538 43.99301136
v 1.25489881 -0.07954538 60.12957648
v -1.58359551 -3.47585565 62.26506569
v 1.17171774 -1.96006725 60.00128869
v 0.93940143 -3.47585565 59.71116258
v 1.32577532 -3.47585565 45.56601085
v 1.25293032 -3.47585565 44.88904844
v 1.23521092 -1.49558896 44.02458970
v -1.38277954 -3.47585565 42.47922191
v -1.60426774 -0.38476444 42.47922191
v -1.63773713 -0.07954538 42.47922191
v -1.76866121 -0.07954538 62.06967385
v -1.91779663 -0.07954538 62.15256745
v -2.30170954 -0.49847349 62.39335199
v -2.30170954 -3.47585565 62.47229820
v 0.44720546 -3.47585565 60.23615290
v 0.77008581 -3.47585565 44.33840012
v 1.21010929 -2.07477373 44.05616803
v -3.68182719 -3.47585565 42.47922191
v 0.65540439 -3.47585565 44.21011308
v -3.68182719 -0.07954538 42.47922191
v -2.28448262 -0.07954538 62.34795929
v -3.29889872 -0.07954538 62.64005835
v -3.29889872 -0.49847349 62.64005835
v -3.29889872 -1.49558896 62.63808540
v -3.29889872 -2.49203940 62.61045371
v -3.68182719 -2.87505943 62.61637553
v -3.67641310 -3.47585565 62.56506101
v -3.68182719 -3.47585565 62.56506101
v -3.68182719 -0.07954538 62.64203279
v -3.68182719 -0.88116101 62.64005835
v -3.68182719 -1.49558896 62.63808540
v -3.68182719 -1.87794396 62.63611097
f 1 2 3
f 1 3 4
f 1 4 5
f 1 5 6
f 1 6 7
f 1 7 8
f 1 8 20
f 1 20 19
f 1 19 28
f 1 28 39
f 1 39 26
f 1 26 38
f 1 38 51
f 1 51 52
f 1 52 42
f 1 42 32
f 1 32 43
f 1 43 40
f 1 40 30
f 1 30 29
f 1 29 21
f 1 21 9
f 1 9 2
f 2 9 10
f 2 10 3
f 3 5 4
f 3 10 11
f 3 11 12
f 3 12 5
f 5 12 11
f 5 11 13
f 5 13 14
f 5 14 24
f 5 24 34
f 5 34 44
f 5 44 53
f 5 53 46
f 5 46 45
f 5 45 36
f 5 36 35
f 5 35 25
f 5 25 16
f 5 16 15
f 5 15 6
f 6 15 16
f 6 16 17
f 6 17 18
f 6 18 19
f 6 19 20
f 6 20 7
f 7 20 8
f 9 21 10
f 10 21 13
f 10 13 11
f 13 22 23
f 13 23 14
f 13 21 22
f 14 23 24
f 16 25 17
f 17 25 26
f 17 26 18
f 18 26 27
f 18 27 19
f 19 27 28
f 21 29 22
f 22 29 30
f 22 30 31
f 22 31 23
f 23 31 32
f 23 32 24
f 24 32 33
f 24 33 34
f 25 35 26
f 26 35 36
f 26 36 37
f 26 37 38
f 26 39 27
f 27 39 28
f 30 40 41
f 30 41 31
f 31 41 32
f 32 42 44
f 32 44 34
f 32 34 33
f 32 41 43
f 36 45 37
f 37 45 46
f 37 46 38
f 38 46 47
f 38 47 48
f 38 48 49
f 38 49 50
f 38 50 51
f 40 43 41
f 42 52 50
f 42 50 56
f 42 56 55
f 42 55 54
f 42 54 53
f 42 53 44
f 46 53 47
f 47 53 48
f 48 53 54
f 48 54 55
f 48 55 56
f 48 56 50
f 48 50 49
f 50 52 51

