# https://github.com/mikedh/trimesh
v -7.36272246 -47.35715129 64.63997116
v -19.25076927 -47.35715129 64.64214022
v -7.36272246 -48.43006746 64.63997116
v -7.36272246 -43.37487125 64.50546591
v -20.16696965 -47.35715129 64.64214022
v -20.16696965 -48.35386525 64.63997116
v -20.16696965 -49.35134284 64.62695386
v -7.36272246 -49.35134284 64.62695386
v -7.36272246 -42.74163761 64.21042377
v -20.16696965 -46.30938428 64.49678820
v -20.16696965 -46.36120095 64.52065228
v -20.16696965 -50.12402303 64.31672535
v -7.36272246 -50.12402303 64.31672535
v -7.36272246 -42.62047948 63.58779622
v -8.02073274 -42.78126299 64.15184886
v -20.16696965 -45.73254015 64.21259283
v -20.16696965 -50.37548497 63.58779622
v -7.36272246 -50.39758557 63.52271414
v -7.36272246 -42.61362170 63.52271414
v -20.16696965 -45.72187315 64.15618846
v -8.13729425 -42.73706773 63.52271414
v -20.16696965 -45.60223634 63.52271414
v -20.16696965 -50.39758557 63.52271414
v -7.36272246 -50.39758557 42.47922116
v -8.13854777 -42.73706773 56.54364984
v -7.36272246 -42.61438235 42.47922116
v -8.04830649 -42.72258854 42.47922116
v -8.13980092 -42.73706773 42.47922116
v -8.13980092 -42.73706773 42.58769254
v -20.16696965 -45.60223634 42.47922116
v -20.16696965 -50.39758557 42.47922116
f 1 2 3
f 1 3 8
f 1 8 13
f 1 13 18
f 1 18 24
f 1 24 26
f 1 26 19
f 1 19 14
f 1 14 9
f 1 9 4
f 1 4 2
f 2 5 3
f 2 4 5
f 3 5 6
f 3 6 7
f 3 7 8
f 4 9 10
f 4 10 11
f 4 11 5
f 5 11 10
f 5 10 16
f 5 16 20
f 5 20 22
f 5 22 30
f 5 30 31
f 5 31 23
f 5 23 17
f 5 17 12
f 5 12 7
f 5 7 6
f 7 12 13
f 7 13 8
f 9 14 15
f 9 15 16
f 9 16 10
f 12 17 13
f 13 17 18
f 14 19 15
f 15 20 16
f 15 19 21
f 15 21 22
f 15 22 20
f 17 23 18
f 18 23 31
f 18 31 24
f 19 25 21
f 19 26 27
f 19 27 28
f 19 28 29
f 19 29 25
f 21 25 22
f 22 25 29
f 22 29 28
f 22 28 30
f 24 31 30
f 24 30 28
f 24 28 27
f 24 27 26

