# https://github.com/mikedh/trimesh
v -26.27069204 0.49740962 47.09273813
v -26.26660946 0.19580891 47.09273813
v -27.93838123 0.49740962 47.86174428
v -25.74813374 6.47210604 47.09273813
v -26.24619657 -0.49882801 47.09273813
v -27.93225736 -0.49882801 47.86631267
v -28.15475200 -0.49882801 48.56983933
v -28.15679329 0.49740962 48.56983933
v -27.97103889 1.57552985 48.48456349
v -27.84856745 1.29712909 47.95767970
v -27.83427842 3.12993340 48.95814866
v -27.91184446 3.33873402 49.56573990
v -27.85468835 4.11388893 50.73828409
v -27.93633994 4.19986526 51.56058812
v -27.94042252 4.19850069 52.55648943
v -25.75017503 6.47210604 51.56058812
v -7.36272246 6.47210604 47.09273813
v -25.74813374 -7.46976206 47.09273813
v -27.84040229 -1.23167685 47.96377089
v -27.91796833 -2.49130326 48.78455137
v -28.14454555 -2.49130326 49.56573990
v -28.17516490 -1.49506563 49.56573990
v -28.18537135 -0.49882801 49.56573990
v -28.18741264 0.49740962 49.56573990
v -28.17516490 1.49501200 49.56573990
v -28.13433910 2.49261439 49.56573990
v -27.91388575 2.49261439 48.75561825
v -27.97308315 3.58438148 50.46875138
v -28.15679329 3.48885202 51.56058812
v -28.16904103 3.48885202 52.55648943
v -28.08330686 3.48885202 53.55391353
v -27.85060874 4.10160628 53.55391353
v -25.72976362 6.47210604 62.02668643
v -25.73997007 6.47210604 61.52873651
v -25.74813374 6.47210604 60.53131241
v -25.75017503 6.47210604 52.55648943
v -7.36272246 6.47210604 62.64189165
v -7.36272246 -7.46976206 47.09273813
v -25.75017503 -7.46976206 49.56573990
v -27.95675284 -4.22857792 52.55648943
v -27.94450510 -4.19036613 51.56058812
v -27.84244358 -4.08664811 50.56316401
v -27.89143156 -3.45751710 49.65406208
v -27.83427842 -3.10542247 48.95358027
v -28.06697951 -3.48890565 50.56316401
v -28.16904103 -3.48890565 51.56058812
v -28.17924748 -2.49130326 50.56316401
v -28.21394941 -0.49882801 50.56316401
v -28.21394941 0.49740962 50.56316401
v -28.17312361 2.49261439 50.56316401
v -28.19965741 1.49501200 50.56316401
v -28.11392621 2.49261439 54.55133764
v -28.18537135 2.49261439 51.56058812
v -28.19557483 2.49261439 52.55648943
v -28.19149225 2.49261439 53.55391353
v -25.23170228 -7.46976206 62.33581258
v -25.23170228 6.47210604 62.33428830
v -28.12209137 1.49501200 55.54723895
v -28.17720619 0.49740962 55.54723895
v -27.94042252 0.49740962 56.26751563
v -25.72976362 -7.46976206 62.02668643
v -7.36272246 -7.46976206 62.64493724
v -8.28536167 6.47210604 62.64493724
v -25.75017503 -7.46976206 58.54560097
v -27.87918382 -4.15761301 53.36051990
v -28.18333006 -3.48890565 52.55648943
v -25.73384620 -7.46976206 61.63685356
v -28.19965741 -1.49506563 53.55391353
v -28.20373999 -0.49882801 54.55133764
v -28.20782256 0.49740962 53.55391353
v -28.20373999 1.49501200 53.55391353
v -28.20373999 0.49740962 54.55133764
v -28.18537135 1.49501200 54.55133764
v -25.22557841 -7.46976206 62.33885817
v -24.23557961 -7.46976206 62.64493724
v -24.23557961 6.47210604 62.64189165
v -28.19149225 -1.49506563 54.55133764
v -28.16291716 -0.49882801 55.54723895
v -27.92205091 -0.49882801 56.24467369
v -28.05269048 -1.49506563 55.54723895
v -28.13842168 -2.49130326 54.55133764
v -28.00165824 -3.57215283 53.63766584
v -8.28536167 -7.46976206 62.64798284
v -8.29352609 6.47210604 62.64493724
v -28.18945393 -2.49130326 53.55391353
f 1 2 3
f 1 3 4
f 1 4 17
f 1 17 38
f 1 38 18
f 1 18 5
f 1 5 2
f 2 5 6
f 2 6 3
f 3 6 7
f 3 7 8
f 3 8 9
f 3 9 10
f 3 10 4
f 4 10 11
f 4 11 12
f 4 12 13
f 4 13 14
f 4 14 15
f 4 15 16
f 4 16 36
f 4 36 35
f 4 35 34
f 4 34 33
f 4 33 57
f 4 57 76
f 4 76 84
f 4 84 63
f 4 63 37
f 4 37 17
f 5 18 6
f 6 19 20
f 6 20 7
f 6 18 19
f 7 21 22
f 7 22 23
f 7 23 24
f 7 24 8
f 7 20 21
f 8 24 25
f 8 25 26
f 8 26 27
f 8 27 9
f 9 27 10
f 10 27 11
f 11 27 26
f 11 26 12
f 12 28 13
f 12 26 29
f 12 29 28
f 13 28 29
f 13 29 14
f 14 29 30
f 14 30 15
f 15 30 31
f 15 31 32
f 15 32 33
f 15 33 34
f 15 34 35
f 15 35 36
f 15 36 16
f 17 37 62
f 17 62 38
f 18 39 40
f 18 40 41
f 18 41 42
f 18 42 43
f 18 43 44
f 18 44 20
f 18 20 19
f 18 38 62
f 18 62 83
f 18 83 75
f 18 75 74
f 18 74 56
f 18 56 61
f 18 61 67
f 18 67 64
f 18 64 39
f 20 44 21
f 21 45 46
f 21 46 47
f 21 47 22
f 21 44 43
f 21 43 45
f 22 47 48
f 22 48 23
f 23 48 24
f 24 48 49
f 24 49 25
f 25 50 26
f 25 49 51
f 25 51 50
f 26 50 29
f 29 50 30
f 30 52 31
f 30 50 53
f 30 53 54
f 30 54 55
f 30 55 52
f 31 52 33
f 31 33 32
f 33 56 57
f 33 52 58
f 33 58 59
f 33 59 60
f 33 60 61
f 33 61 56
f 37 63 83
f 37 83 62
f 39 64 40
f 40 65 66
f 40 66 46
f 40 46 41
f 40 64 67
f 40 67 61
f 40 61 65
f 41 46 45
f 41 45 42
f 42 45 43
f 46 66 47
f 47 66 48
f 48 66 68
f 48 68 69
f 48 69 70
f 48 70 49
f 49 70 71
f 49 71 54
f 49 54 51
f 50 51 53
f 51 54 53
f 52 55 58
f 54 71 55
f 55 71 72
f 55 72 73
f 55 73 58
f 56 74 57
f 57 74 75
f 57 75 76
f 58 73 59
f 59 69 77
f 59 77 78
f 59 78 60
f 59 73 72
f 59 72 69
f 60 78 79
f 60 79 61
f 61 79 78
f 61 78 80
f 61 80 81
f 61 81 82
f 61 82 66
f 61 66 65
f 63 84 83
f 66 85 68
f 66 82 81
f 66 81 85
f 68 85 69
f 69 85 77
f 69 72 70
f 70 72 71
f 75 83 84
f 75 84 76
f 77 85 81
f 77 81 78
f 78 81 80

