# https://github.com/mikedh/trimesh
v -4.05695319 -11.85193656 42.47922079
v -4.05695319 -33.13116804 42.47922079
v -4.05695319 -11.86235174 40.59225118
v -22.24022924 -11.95400030 29.62588645
v -23.23853435 -11.95608319 29.62588645
v -23.23853435 -11.95400030 30.62349329
v -24.23463771 -11.94775164 42.47922079
v -4.05695319 -33.12908516 40.59225118
v -24.23463771 -33.04576666 42.47922079
v -24.23463771 -33.04576666 37.60089253
v -23.23853435 -33.04576666 30.62349329
v -4.05695319 -11.95191742 29.62588645
v -20.24802401 -11.95191742 29.62588645
v -21.24412589 -11.95816608 29.11684315
v -24.23463771 -11.96233260 29.12415703
v -24.73709509 -11.96441549 29.12561965
v -24.23463771 -11.96024971 29.62588645
v -24.74591097 -11.96024971 37.60089253
v -24.74150303 -11.95816608 42.47922079
v -4.05695319 -33.12700227 39.83307523
v -23.23853435 -33.04368674 29.62588645
v -24.83626553 -32.97286558 42.47922079
v -24.92441537 -32.97078269 36.60328532
v -24.96188062 -32.96869980 29.62588645
v -24.23463771 -33.03952097 29.62588645
v -4.05695319 -11.95816608 29.11538052
v -20.24802401 -11.95816608 29.11538052
v -22.24022924 -11.96024971 29.11830577
v -21.24412589 -12.32684545 28.61803898
v -24.23463771 -12.32892834 28.62535286
v -24.89797072 -12.87257328 28.04609752
v -25.02799226 -12.51014332 28.72774717
v -25.22633164 -12.46431829 29.62588645
v -25.72879052 -12.96422333 36.60328532
v -25.23955546 -12.46431829 36.60328532
v -24.23463771 -12.82883263 28.00221424
v -24.77456034 -12.01232266 42.47922079
v -26.57062942 -13.85780016 37.60089253
v -26.57062942 -13.96194754 38.59703675
v -26.57062942 -14.13483022 39.59464396
v -26.57062942 -14.34312349 40.59225118
v -26.57062942 -14.60973763 41.50209222
v -4.05695319 -33.04785252 29.62588645
v -21.24412589 -33.04785252 29.62588645
v -22.24022924 -32.97286558 28.99982183
v -24.23463771 -32.96869980 29.00420971
v -25.22853487 -32.40214234 42.47922079
v -26.57062942 -31.25028144 38.51951008
v -26.57062942 -31.33568283 37.60089253
v -25.42907748 -32.40214234 29.62588645
v -24.88915484 -32.94578803 29.04663036
v -4.05695319 -12.32684545 28.61803898
v -23.23853435 -12.82674974 28.00221424
v -24.23463771 -13.45995961 27.71112394
v -25.10292126 -13.45995961 27.92029969
v -25.62300892 -13.48703865 28.61072510
v -25.71997464 -13.27041382 29.62588645
v -26.57062942 -13.93278562 36.60328532
v -25.03901136 -12.46431829 42.47922079
v -26.57062942 -14.68264168 41.65129505
v -4.05695319 -32.99161157 29.14756129
v -20.24802401 -32.97286558 28.99689583
v -23.23853435 -32.60418844 28.50394366
v -22.24022924 -32.60418844 28.50101841
v -24.23463771 -32.60210258 28.50540703
v -26.57062942 -29.67141956 42.47922079
v -26.57062942 -30.30671233 41.57376838
v -26.57062942 -30.39419660 41.35874138
v -26.57062942 -30.63790045 40.59225118
v -26.57062942 -31.27527610 36.58573231
v -25.63623273 -31.40441814 28.62827960
v -25.15581206 -32.38131346 28.67947527
v -26.57062942 -31.24194989 36.41751384
v -24.95747268 -32.03763098 28.00806624
v -4.05695319 -12.82674974 28.00221424
v -21.24412589 -13.45995961 27.70966057
v -9.28208306 -13.45995961 27.70673532
v -24.23463771 -14.45768382 27.54583147
v -9.28208306 -14.45768382 27.53559233
v -25.22633164 -14.45768382 27.83838514
v -25.72438406 -14.45768382 28.31817292
v -25.73540168 -13.83905417 28.92960904
v -26.57062942 -15.44499359 32.62309560
v -26.57062942 -15.27419379 32.86445212
v -26.57062942 -14.76595869 33.80647467
v -26.57062942 -14.35562082 34.60953352
v -26.57062942 -14.11608423 35.60714110
v -26.57062942 -14.10358690 35.67150264
v -26.57062942 -15.33251615 42.47922079
v -4.05695319 -32.97286558 28.99689583
v -20.24802401 -32.60418844 28.49809315
v -4.05695319 -32.69375262 28.61803898
v -24.23463771 -32.10428340 27.94809184
v -25.72438406 -29.41105261 28.35474083
v -25.14699619 -31.40441814 27.89250754
v -26.57062942 -30.59623972 34.60807089
v -26.57062942 -30.47542923 34.32283147
v -26.57062942 -30.16299007 33.62216581
v -26.57062942 -29.21942096 31.81418624
v -26.57062942 -29.04445538 31.61378625
v -26.57062942 -28.22794838 30.81365265
v -26.57062942 -28.01965363 30.68054095
v -26.57062942 -26.36997058 29.74729565
v -26.57062942 -26.15959591 29.64782808
v -26.57062942 -25.42223866 29.39769431
v -26.57062942 -25.27226774 29.35088579
v -26.57062942 -23.35388618 28.82136422
v -24.23463771 -31.40441814 27.65553817
v -4.05695319 -13.45995961 27.70966057
v -24.23463771 -30.40669393 27.54583147
v -4.05695319 -13.69949769 27.67016592
v -4.05695319 -14.45768382 27.54583147
v -9.28208306 -30.40669393 27.53559233
v -25.22633164 -30.40669393 27.83838514
v -25.72438406 -22.43323032 28.13386406
v -25.72438406 -21.43550611 28.13532595
v -25.72438406 -20.43986479 28.13825120
v -26.57062942 -22.43323032 28.76577845
v -26.57062942 -22.22285416 28.78040620
v -26.57062942 -21.57922836 28.83452861
v -26.57062942 -21.43967189 28.85208237
v -26.57062942 -19.44214058 29.46205585
v -26.57062942 -18.51523605 29.76631203
v -26.57062942 -18.37567958 29.83798745
v -26.57062942 -17.35087782 30.59423777
v -26.57062942 -16.37189961 31.52163257
v -21.24412589 -32.10636629 27.94662995
v -4.05695319 -32.22717677 28.07974166
v -4.05695319 -32.60418844 28.49809315
v -20.24802401 -31.40441814 27.65407628
v -4.05695319 -30.40669393 27.54583147
v -4.05695319 -31.40441814 27.65407628
v -9.28208306 -31.40441814 27.65261291
v -25.72438406 -25.42223866 28.14702845
v -25.72438406 -24.42451296 28.13678932
v -4.05695319 -32.10636629 27.94662995
v -4.05695319 -31.57313504 27.72428833
f 1 2 8
f 1 8 20
f 1 20 43
f 1 43 61
f 1 61 90
f 1 90 92
f 1 92 129
f 1 129 128
f 1 128 136
f 1 136 137
f 1 137 132
f 1 132 131
f 1 131 112
f 1 112 111
f 1 111 109
f 1 109 75
f 1 75 52
f 1 52 26
f 1 26 12
f 1 12 3
f 1 3 4
f 1 4 5
f 1 5 6
f 1 6 7
f 1 7 19
f 1 19 37
f 1 37 59
f 1 59 89
f 1 89 66
f 1 66 47
f 1 47 22
f 1 22 9
f 1 9 2
f 2 9 10
f 2 10 11
f 2 11 8
f 3 12 13
f 3 13 4
f 4 13 14
f 4 14 15
f 4 15 5
f 5 15 16
f 5 16 17
f 5 17 6
f 6 17 7
f 7 17 16
f 7 16 18
f 7 18 19
f 8 11 21
f 8 21 20
f 9 22 23
f 9 23 24
f 9 24 10
f 10 24 25
f 10 25 11
f 11 25 21
f 12 26 27
f 12 27 13
f 13 27 14
f 14 28 15
f 14 27 29
f 14 29 30
f 14 30 28
f 15 30 16
f 15 28 30
f 16 31 32
f 16 32 33
f 16 33 34
f 16 34 35
f 16 35 18
f 16 30 36
f 16 36 31
f 18 35 34
f 18 34 19
f 19 34 38
f 19 38 39
f 19 39 40
f 19 40 41
f 19 41 42
f 19 42 37
f 20 21 44
f 20 44 43
f 21 45 44
f 21 25 46
f 21 46 45
f 22 47 48
f 22 48 49
f 22 49 23
f 23 49 24
f 24 50 51
f 24 51 25
f 24 49 50
f 25 51 46
f 26 52 29
f 26 29 27
f 29 53 36
f 29 36 30
f 29 52 75
f 29 75 53
f 31 36 54
f 31 54 55
f 31 55 56
f 31 56 32
f 32 56 33
f 33 56 57
f 33 57 58
f 33 58 38
f 33 38 34
f 36 53 54
f 37 42 59
f 38 58 88
f 38 88 87
f 38 87 86
f 38 86 85
f 38 85 84
f 38 84 83
f 38 83 126
f 38 126 125
f 38 125 124
f 38 124 123
f 38 123 122
f 38 122 121
f 38 121 120
f 38 120 119
f 38 119 118
f 38 118 107
f 38 107 106
f 38 106 105
f 38 105 104
f 38 104 103
f 38 103 102
f 38 102 101
f 38 101 100
f 38 100 99
f 38 99 98
f 38 98 97
f 38 97 96
f 38 96 73
f 38 73 70
f 38 70 49
f 38 49 48
f 38 48 69
f 38 69 68
f 38 68 67
f 38 67 66
f 38 66 89
f 38 89 60
f 38 60 42
f 38 42 41
f 38 41 40
f 38 40 39
f 42 60 59
f 43 44 61
f 44 45 62
f 44 62 61
f 45 63 64
f 45 64 91
f 45 91 62
f 45 46 65
f 45 65 63
f 46 51 65
f 47 66 67
f 47 67 68
f 47 68 69
f 47 69 48
f 49 70 50
f 50 71 72
f 50 72 51
f 50 70 73
f 50 73 71
f 51 72 74
f 51 74 65
f 53 76 54
f 53 75 77
f 53 77 76
f 54 78 55
f 54 76 79
f 54 79 78
f 55 80 81
f 55 81 56
f 55 78 80
f 56 81 82
f 56 82 83
f 56 83 84
f 56 84 57
f 57 84 85
f 57 85 86
f 57 86 87
f 57 87 88
f 57 88 58
f 59 60 89
f 61 62 90
f 62 91 92
f 62 92 90
f 63 65 93
f 63 93 64
f 64 93 91
f 65 74 93
f 71 94 95
f 71 95 74
f 71 74 72
f 71 73 96
f 71 96 97
f 71 97 98
f 71 98 99
f 71 99 100
f 71 100 101
f 71 101 102
f 71 102 103
f 71 103 104
f 71 104 105
f 71 105 106
f 71 106 107
f 71 107 94
f 74 108 93
f 74 95 108
f 75 109 77
f 76 77 79
f 77 109 79
f 78 110 114
f 78 114 80
f 78 79 113
f 78 113 110
f 79 109 111
f 79 111 112
f 79 112 131
f 79 131 113
f 80 114 115
f 80 115 116
f 80 116 117
f 80 117 118
f 80 118 81
f 81 118 119
f 81 119 120
f 81 120 121
f 81 121 122
f 81 122 123
f 81 123 124
f 81 124 125
f 81 125 82
f 82 125 126
f 82 126 83
f 91 93 127
f 91 127 128
f 91 128 129
f 91 129 92
f 93 108 127
f 94 114 95
f 94 107 114
f 95 114 110
f 95 110 108
f 107 118 114
f 108 110 113
f 108 113 130
f 108 130 127
f 113 131 132
f 113 132 133
f 113 133 130
f 114 118 134
f 114 134 135
f 114 135 115
f 115 135 118
f 115 118 116
f 116 118 117
f 118 135 134
f 127 130 133
f 127 133 136
f 127 136 128
f 132 137 133
f 133 137 136

