# https://github.com/mikedh/trimesh
v -26.54400648 -29.67567448 42.47967187
v -26.54400648 -29.65706517 42.52481665
v -26.54400648 -28.90855065 42.47967187
v -25.22970556 -32.40093599 42.47967187
v -25.22970556 -32.40093599 42.58666502
v -25.22407196 -32.40093599 47.09121607
v -25.43060621 -31.90261467 47.09121607
v -25.62211753 -31.43737590 47.09121607
v -26.54400648 -29.34277191 43.20424636
v -26.54400648 -15.32360370 42.48147769
v -26.52147653 -15.31533306 42.47967187
v -24.83541573 -32.97162654 42.47967187
v -24.83541573 -32.97369457 47.09121607
v -25.73852750 -30.93905458 47.09121607
v -26.54400648 -29.21043571 43.38753421
v -26.54400648 -15.42285436 42.66792570
v -25.74040537 -13.93616102 47.09121607
v -25.63901685 -13.69630502 47.09121607
v -25.52823899 -13.43783970 47.09121607
v -25.04007063 -12.46394094 47.09121607
v -25.04007063 -12.46394094 46.57430772
v -25.03819277 -12.46394094 42.47967187
v -24.23459314 -33.04606379 42.47967187
v -24.52373723 -33.01504926 47.09121607
v -26.00514312 -23.41460787 47.09121607
v -26.54400648 -22.62680521 46.44293646
v -26.54400648 -23.31742375 46.39147115
v -26.54400648 -23.43941979 46.36980213
v -26.54400648 -25.42236642 45.80955425
v -26.54400648 -26.40453583 45.48451153
v -26.54400648 -26.51825973 45.41679427
v -26.54400648 -28.22413322 44.38568665
v -26.54400648 -28.38748394 44.22045658
v -26.54400648 -15.83226370 43.20424636
v -25.99950952 -20.91266108 47.09121607
v -26.54400648 -16.85578779 44.17937451
v -26.54400648 -17.37685301 44.61095910
v -26.54400648 -18.49962776 45.45923052
v -26.54400648 -18.68779041 45.54139429
v -26.54400648 -19.44251051 45.77840452
v -26.54400648 -19.59345304 45.82264658
v -26.54400648 -21.60121308 46.38018537
v -26.54400648 -22.43243846 46.44745062
v -24.88610925 -12.20134104 47.09121607
v -24.77533288 -12.01317839 42.47967187
v -23.34462347 -33.04813182 42.47967187
v -23.23759987 -33.05433592 47.09121607
v -24.23459314 -33.05019985 47.09121607
v -26.00514312 -22.85838909 47.09121607
v -24.74341507 -11.95941700 47.09121607
v -24.74341507 -11.95941700 42.47967187
v -7.36272246 -33.04813182 42.47967187
v -19.24963571 -33.05433592 47.09121607
v -24.49745302 -11.95114636 47.09121607
v -24.23459314 -11.94287572 43.58346311
v -24.23459314 -11.94907907 42.47967187
v -7.36272246 -33.04813182 42.58666502
v -10.27859275 -33.05019985 47.09121607
v -13.26956661 -33.05226789 47.09121607
v -7.36272246 -11.94701104 42.47967187
v -24.23459314 -11.94287572 47.09121607
v -23.75581114 -11.93667237 47.09121607
v -23.23759987 -11.93253705 43.58346311
v -23.23759987 -11.94287572 42.58666502
v -23.23759987 -11.94494301 42.47967187
v -7.36272246 -32.97989867 43.35954447
v -9.56887016 -32.97369457 47.09121607
v -13.16254523 -11.94494301 42.47967187
v -7.36272246 -11.94494301 42.58666502
v -23.23759987 -11.93253705 47.09121607
v -19.24963571 -11.93253705 43.58346311
v -19.24963571 -11.94287572 42.58666502
v -7.36272246 -32.97369457 43.42274720
v -7.36272246 -32.78139735 43.88367608
v -7.36272246 -32.76485309 43.92159779
v -7.36272246 -31.11894658 47.09121607
v -10.27859275 -11.94080769 47.09121607
v -7.36272246 -11.95114636 43.15007252
v -11.27558379 -11.93460434 43.58346311
v -10.27859275 -11.93667237 43.58346311
v -11.27558379 -11.93460434 47.09121607
v -10.79680328 -11.93667237 47.09121607
v -13.78777714 -11.93253705 47.09121607
v -7.36272246 -14.87284116 47.09121607
v -10.02699784 -11.94701104 47.09121607
v -9.75475010 -11.95734971 47.09121607
v -7.36272246 -11.96975567 43.18799423
v -7.36272246 -12.70379694 44.30939159
v -8.81220831 -13.00361695 47.09121607
v -9.28347958 -12.46394094 47.09121607
v -7.36272246 -12.20547636 43.64892292
v -7.36272246 -12.24269573 43.70083950
v -9.03939465 -12.74308360 47.09121607
f 1 2 9
f 1 9 15
f 1 15 33
f 1 33 32
f 1 32 31
f 1 31 30
f 1 30 29
f 1 29 28
f 1 28 27
f 1 27 26
f 1 26 43
f 1 43 42
f 1 42 41
f 1 41 40
f 1 40 39
f 1 39 38
f 1 38 37
f 1 37 36
f 1 36 34
f 1 34 16
f 1 16 10
f 1 10 3
f 1 3 11
f 1 11 22
f 1 22 45
f 1 45 51
f 1 51 56
f 1 56 65
f 1 65 68
f 1 68 60
f 1 60 52
f 1 52 46
f 1 46 23
f 1 23 12
f 1 12 4
f 1 4 5
f 1 5 6
f 1 6 7
f 1 7 8
f 1 8 2
f 2 8 9
f 3 10 11
f 4 12 13
f 4 13 5
f 5 13 6
f 6 13 24
f 6 24 48
f 6 48 47
f 6 47 53
f 6 53 59
f 6 59 58
f 6 58 67
f 6 67 76
f 6 76 84
f 6 84 89
f 6 89 93
f 6 93 90
f 6 90 86
f 6 86 85
f 6 85 77
f 6 77 82
f 6 82 81
f 6 81 83
f 6 83 70
f 6 70 62
f 6 62 61
f 6 61 54
f 6 54 50
f 6 50 44
f 6 44 20
f 6 20 19
f 6 19 18
f 6 18 17
f 6 17 35
f 6 35 49
f 6 49 25
f 6 25 14
f 6 14 8
f 6 8 7
f 8 14 9
f 9 14 15
f 10 16 17
f 10 17 18
f 10 18 19
f 10 19 20
f 10 20 21
f 10 21 22
f 10 22 11
f 12 23 24
f 12 24 13
f 14 25 26
f 14 26 27
f 14 27 28
f 14 28 29
f 14 29 30
f 14 30 31
f 14 31 32
f 14 32 33
f 14 33 15
f 16 34 17
f 17 34 36
f 17 36 37
f 17 37 38
f 17 38 39
f 17 39 40
f 17 40 41
f 17 41 42
f 17 42 43
f 17 43 35
f 20 44 21
f 21 44 45
f 21 45 22
f 23 46 47
f 23 47 48
f 23 48 24
f 25 49 43
f 25 43 26
f 35 43 49
f 44 50 45
f 45 50 51
f 46 52 53
f 46 53 47
f 50 54 51
f 51 54 55
f 51 55 56
f 52 57 58
f 52 58 59
f 52 59 53
f 52 60 69
f 52 69 78
f 52 78 87
f 52 87 91
f 52 91 92
f 52 92 88
f 52 88 84
f 52 84 76
f 52 76 75
f 52 75 74
f 52 74 73
f 52 73 66
f 52 66 57
f 54 61 55
f 55 61 62
f 55 62 63
f 55 63 56
f 56 63 64
f 56 64 65
f 57 66 67
f 57 67 58
f 60 68 69
f 62 70 63
f 63 70 83
f 63 83 71
f 63 71 72
f 63 72 64
f 64 72 68
f 64 68 65
f 66 73 67
f 67 73 74
f 67 74 75
f 67 75 76
f 68 72 71
f 68 71 69
f 69 77 78
f 69 71 79
f 69 79 80
f 69 80 81
f 69 81 82
f 69 82 77
f 71 83 79
f 77 85 78
f 78 85 86
f 78 86 87
f 79 81 80
f 79 83 81
f 84 88 89
f 86 90 91
f 86 91 87
f 88 92 89
f 89 92 91
f 89 91 93
f 90 93 91

