# https://github.com/mikedh/trimesh
v -1.30468173 30.77872701 39.54787183
v -2.49599234 42.43681525 39.32733751
v -0.67599586 30.77872701 39.55530531
v -2.10622930 30.77872701 39.82044122
v -1.36744025 42.43681525 39.42893253
v -0.30715195 30.77872701 39.56026071
v -3.17642672 42.43681525 39.77583889
v -2.22624087 30.77872701 40.10540022
v -0.37651662 42.43681525 39.54291569
v 0.68927695 34.39769907 39.76592734
v 0.68927695 30.77872701 39.76840541
v -2.42882997 30.77872701 40.59354778
v -3.31625730 42.43681525 40.57620202
v 0.68927695 42.43681525 39.76592734
v 1.23758796 42.43681525 40.01123942
v 1.27392188 32.40389973 40.02858518
v 1.27282101 30.77872701 40.02858518
v 1.05701961 30.77872701 39.93194704
v -2.43653717 30.77872701 40.96275530
v -2.44754736 30.77872701 41.58966526
v -3.32286326 42.43681525 41.56488676
v 1.27502275 42.43681525 40.02858518
v 1.27502275 41.37543073 40.02858518
v 6.41241208 30.77872701 45.75502440
v -2.44754736 30.77872701 62.52548613
v -3.33167134 42.43681525 62.52548613
v 6.40690698 42.43681525 45.76245787
v 6.40800785 40.37795908 45.75998017
v 6.41131121 33.40022742 45.75502440
v 7.91531317 42.43681525 47.51929267
v 7.91531317 30.77872701 47.51929267
v -2.44644612 30.77872701 62.89469514
v -2.44314314 30.77872701 63.52160584
v -3.24358946 42.43681525 63.52160584
v 6.40910947 39.38163139 45.75998017
v 6.41021034 36.39150138 45.75750210
v 7.91531317 42.43681525 56.65037334
v 7.91531317 30.77872701 56.65037334
v -2.32423243 30.77872701 63.82143179
v -2.12054247 30.77872701 64.33188051
v -2.50039656 42.43681525 64.31453549
v 6.42342227 42.43681525 58.38242853
v 6.42342227 30.77872701 58.38242853
v -1.81886130 30.77872701 64.44586441
v -1.30468173 30.77872701 64.63914068
v -1.30468173 40.37795908 64.64161875
v -1.30468173 42.43681525 64.61931759
v 1.31245791 42.43681525 64.12125774
v 1.31245791 30.77872701 64.12125774
v -0.93583819 30.77872701 64.63666261
v -0.30715195 42.43681525 64.62675032
v 0.68927695 42.43681525 64.41860710
v 0.92049239 30.77872701 64.30957935
v -0.30715195 30.77872701 64.62675032
v -0.24329238 42.43681525 64.61436145
v 0.68927695 30.77872701 64.41860710
v 0.06169177 30.77872701 64.54993602
f 1 2 3
f 1 3 6
f 1 6 11
f 1 11 18
f 1 18 17
f 1 17 24
f 1 24 31
f 1 31 38
f 1 38 43
f 1 43 49
f 1 49 53
f 1 53 56
f 1 56 57
f 1 57 54
f 1 54 50
f 1 50 45
f 1 45 44
f 1 44 40
f 1 40 39
f 1 39 33
f 1 33 32
f 1 32 25
f 1 25 20
f 1 20 19
f 1 19 12
f 1 12 8
f 1 8 4
f 1 4 2
f 2 5 6
f 2 6 3
f 2 4 7
f 2 7 13
f 2 13 21
f 2 21 26
f 2 26 34
f 2 34 41
f 2 41 47
f 2 47 51
f 2 51 55
f 2 55 52
f 2 52 48
f 2 48 42
f 2 42 37
f 2 37 30
f 2 30 27
f 2 27 22
f 2 22 15
f 2 15 14
f 2 14 9
f 2 9 5
f 4 8 7
f 5 9 6
f 6 9 10
f 6 10 11
f 7 8 12
f 7 12 13
f 9 14 10
f 10 14 15
f 10 15 16
f 10 16 17
f 10 17 18
f 10 18 11
f 12 19 13
f 13 19 20
f 13 20 21
f 15 22 23
f 15 23 16
f 16 23 24
f 16 24 17
f 20 25 26
f 20 26 21
f 22 27 28
f 22 28 29
f 22 29 24
f 22 24 23
f 24 29 30
f 24 30 31
f 25 32 26
f 26 32 33
f 26 33 34
f 27 30 28
f 28 30 35
f 28 35 36
f 28 36 29
f 29 36 30
f 30 36 35
f 30 37 38
f 30 38 31
f 33 39 34
f 34 39 40
f 34 40 41
f 37 42 43
f 37 43 38
f 40 44 41
f 41 44 45
f 41 45 46
f 41 46 47
f 42 48 49
f 42 49 43
f 45 50 46
f 46 50 51
f 46 51 47
f 48 52 53
f 48 53 49
f 50 54 51
f 51 54 55
f 52 55 56
f 52 56 53
f 54 57 55
f 55 57 56

