# https://github.com/mikedh/trimesh
v -13.54897372 -45.60164505 42.47922116
v -26.41048177 -45.56617058 42.47922116
v -13.54897372 -50.39834028 42.47922116
v -13.54897372 -45.60164505 16.66592331
v -26.41048177 -45.56617058 41.76738449
v -26.41048177 -50.39786487 42.47922116
v -17.36524742 -50.39834028 42.47922116
v -13.54897372 -50.39834028 35.32658335
v -13.54897372 -45.69577317 16.16763764
v -26.41048177 -45.57231822 16.66592331
v -26.41048177 -45.56664302 16.84520025
v -26.41048177 -50.39786487 16.66592331
v -14.26664976 -50.39834028 36.60261603
v -13.54897372 -50.39786487 16.66592331
v -13.54897372 -45.73219251 15.97517699
v -26.41048177 -45.68063731 16.10172656
v -26.41048177 -50.34867781 16.52091893
v -13.54897372 -50.32171615 16.44446268
v -26.41048177 -46.23688432 15.71944379
v -26.41048177 -45.72036967 15.97517699
v -13.54897372 -46.36081171 15.66671493
v -26.41048177 -50.12399926 15.87235630
v -13.54897372 -50.12399926 15.87235630
v -26.41048177 -46.36081171 15.66407789
v -13.54897372 -47.35789412 15.54543944
v -26.41048177 -49.98446655 15.81435485
v -13.54897372 -49.35158946 15.56125720
v -26.41048177 -47.17768121 15.56653128
v -13.54897372 -48.35450706 15.54543944
v -26.41048177 -47.35789412 15.54543944
v -26.41048177 -49.35158946 15.56125720
v -26.41048177 -48.35450706 15.54543944
f 1 2 6
f 1 6 7
f 1 7 3
f 1 3 8
f 1 8 14
f 1 14 18
f 1 18 23
f 1 23 27
f 1 27 29
f 1 29 25
f 1 25 21
f 1 21 15
f 1 15 9
f 1 9 4
f 1 4 5
f 1 5 2
f 2 5 11
f 2 11 10
f 2 10 16
f 2 16 20
f 2 20 19
f 2 19 24
f 2 24 28
f 2 28 30
f 2 30 32
f 2 32 31
f 2 31 26
f 2 26 22
f 2 22 17
f 2 17 12
f 2 12 6
f 3 7 13
f 3 13 8
f 4 9 10
f 4 10 11
f 4 11 5
f 6 12 7
f 7 12 13
f 8 13 12
f 8 12 14
f 9 15 10
f 10 15 16
f 12 17 14
f 14 17 18
f 15 19 20
f 15 20 16
f 15 21 19
f 17 22 23
f 17 23 18
f 19 21 24
f 21 25 24
f 22 26 23
f 23 26 27
f 24 25 28
f 25 29 32
f 25 32 30
f 25 30 28
f 26 31 27
f 27 31 32
f 27 32 29

