# https://github.com/mikedh/trimesh
v -25.75055387 6.47210604 51.55973684
v -25.74695413 6.47210604 47.09273738
v -25.74695413 6.47210604 60.53179822
v -25.74695413 21.43529351 60.53179822
v -25.74695413 23.42820295 58.53733033
v -25.74695413 23.42820295 47.09273738
v -7.36272246 6.47210604 47.09273738
v -25.73975465 6.47210604 61.52903216
v -25.73975465 22.43174749 61.52903216
v -25.73795404 23.33001305 61.44986310
v -25.73975465 23.95734270 60.53179822
v -25.74155378 23.38456332 60.48764604
v -25.74335439 23.70277277 47.09273738
v -7.36272246 6.47210604 62.64197633
v -7.36272246 25.04653274 47.09273738
v -25.73075455 6.47210604 62.02688848
v -25.73075455 22.92997522 62.02688848
v -25.73615342 23.94825049 61.06467142
v -25.73975465 23.95734270 47.57232386
v -25.38877166 24.45556894 60.53179822
v -25.73975465 23.95552426 47.09273738
v -8.28427417 6.47210604 62.64502044
v -7.36272246 22.43174749 62.64197633
v -18.25394834 25.04835118 47.09273738
v -7.36272246 25.04653274 60.53179822
v -25.23218066 6.47210604 62.33443092
v -25.23218066 22.43174749 62.33443092
v -25.26277921 23.33001305 62.22633467
v -24.95139487 24.06462481 62.15325531
v -25.61736046 23.59549066 61.72847984
v -25.22678179 24.33919463 61.41788883
v -24.83800077 24.96470584 61.10577949
v -25.38877166 24.45556894 47.09273738
v -25.57056233 24.19736510 47.09273738
v -24.89019926 24.98652714 60.53179822
v -24.23503289 6.47210604 62.64197633
v -8.28427417 22.43174749 62.64502044
v -7.36272246 23.35364982 62.53235580
v -24.23503289 25.04835118 47.09273738
v -18.25394834 25.04835118 60.53179822
v -7.36272246 25.04289585 60.57747319
v -24.23503289 22.43174749 62.64197633
v -24.23503289 23.42820295 62.52322200
v -24.23503289 24.13372262 62.21719938
v -24.23503289 24.63194886 61.64321811
v -24.23503289 24.98652714 61.14384048
v -24.23503289 25.04835118 60.53179822
v -24.89019926 24.98652714 47.09273738
v -7.36272246 23.42820295 62.52322200
v -7.36272246 24.98652714 61.14384048
v -18.25394834 24.13372262 62.21719938
v -7.36272246 24.63194886 61.64321811
v -7.36272246 24.08099078 62.24003687
v -7.36272246 24.13372262 62.21567658
f 1 2 7
f 1 7 14
f 1 14 22
f 1 22 36
f 1 36 26
f 1 26 16
f 1 16 8
f 1 8 3
f 1 3 4
f 1 4 5
f 1 5 6
f 1 6 2
f 2 6 13
f 2 13 21
f 2 21 34
f 2 34 33
f 2 33 48
f 2 48 39
f 2 39 24
f 2 24 15
f 2 15 7
f 3 8 9
f 3 9 4
f 4 9 10
f 4 10 11
f 4 11 12
f 4 12 5
f 5 12 11
f 5 11 13
f 5 13 6
f 7 15 25
f 7 25 41
f 7 41 50
f 7 50 52
f 7 52 54
f 7 54 53
f 7 53 49
f 7 49 38
f 7 38 23
f 7 23 14
f 8 16 17
f 8 17 9
f 9 17 10
f 10 17 18
f 10 18 11
f 11 19 13
f 11 18 20
f 11 20 33
f 11 33 19
f 13 19 21
f 14 23 37
f 14 37 22
f 15 24 40
f 15 40 25
f 16 26 27
f 16 27 17
f 17 27 28
f 17 28 29
f 17 29 30
f 17 30 18
f 18 30 31
f 18 31 32
f 18 32 20
f 19 33 34
f 19 34 21
f 20 32 35
f 20 35 48
f 20 48 33
f 22 37 42
f 22 42 36
f 23 38 37
f 24 39 47
f 24 47 40
f 25 40 41
f 26 36 42
f 26 42 27
f 27 42 28
f 28 42 43
f 28 43 29
f 29 43 44
f 29 44 45
f 29 45 32
f 29 32 31
f 29 31 30
f 32 45 46
f 32 46 47
f 32 47 35
f 35 47 39
f 35 39 48
f 37 38 43
f 37 43 42
f 38 49 43
f 40 47 46
f 40 46 50
f 40 50 41
f 43 49 51
f 43 51 44
f 44 51 52
f 44 52 45
f 45 52 50
f 45 50 46
f 49 53 51
f 51 54 52
f 51 53 54

