# https://github.com/mikedh/trimesh
v -1.80171202 -44.36699751 37.32673536
v -1.80286192 -43.86406471 35.60614943
v -1.80286192 -43.86406471 37.32673536
v -1.80286192 -48.86513852 37.32673536
v -1.80286192 -48.86513852 18.65827265
v -1.80286192 -48.86437489 16.66477935
v -1.80286192 -48.35457540 16.16587416
v -1.80286192 -44.36699751 16.16587416
v -1.80286192 -43.86482834 16.66477935
v -2.02246696 -43.36647730 20.65389489
v -2.02591628 -43.36571367 35.60614943
v -1.96497880 -43.50308624 37.32673536
v -2.02246696 -43.36647730 26.63223841
v -2.02361686 -43.36571367 29.62354208
v -1.85230191 -49.36348956 37.32673536
v -1.85230191 -49.36348956 35.60614943
v -1.86264950 -49.36348956 17.66259270
v -1.86379939 -49.36272593 16.66477935
v -1.80401181 -48.86055973 16.16587416
v -1.85575123 -49.36348956 29.62354208
v -2.30300985 -48.35457540 15.85459084
v -2.30300985 -44.36699751 15.85459084
v -1.80401181 -43.86635559 16.16587416
v -2.02476675 -43.36647730 16.66477935
v -2.02361686 -43.36647730 18.65827265
v -2.52146537 -42.73762337 19.65608303
v -2.52031548 -42.73762337 22.64738670
v -2.52491469 -42.73685974 37.32673536
v -2.16388830 -43.19247443 37.32673536
v -2.02706618 -43.36571367 37.32673536
v -2.52146537 -42.73685974 27.63005027
v -2.52031548 -42.73762337 23.64519856
v -2.35015005 -50.12360704 37.32673536
v -2.36164791 -50.12360704 17.66259270
v -2.36279743 -50.12360704 16.66477935
v -2.50881799 -50.03279193 15.96972315
v -2.22712520 -49.25588358 15.92281657
v -3.29985641 -49.35128045 15.56036432
v -3.29985641 -48.35457540 15.54543944
v -2.29151200 -43.46798021 15.96332741
v -3.29985641 -44.36699751 15.54543944
v -2.61574615 -42.78188697 16.03794888
v -2.52376480 -42.73762337 16.66477935
v -2.52261490 -42.73762337 17.66259270
v -2.52146537 -42.73685974 25.63869037
v -3.08600011 -42.63917496 37.32673536
v -2.61114693 -50.19916151 37.32673536
v -3.29985641 -50.39835217 28.62786213
v -3.29985641 -50.39759151 16.66477935
v -3.29985641 -50.12360704 15.87164765
v -13.54771537 -49.90763442 15.78423171
v -13.54771537 -49.35128045 15.56036432
v -13.54771537 -49.07272016 15.55610049
v -13.54771537 -48.35457540 15.54543944
v -3.29985641 -43.37029246 15.66270366
v -5.29354953 -44.36699751 15.54543944
v -6.29039609 -43.37029246 15.66057175
v -3.29985641 -42.73762337 15.97185507
v -3.29985641 -42.60330531 16.66477935
v -3.29985641 -42.60254168 25.63869037
v -3.29985641 -42.60254168 37.32673536
v -3.29985641 -50.39835217 37.32673536
v -4.57149694 -50.39835217 37.32673536
v -13.54771537 -50.39759151 16.66477935
v -13.54771537 -50.32127045 16.44304388
v -13.54771537 -50.12360704 15.87164765
v -13.54771537 -47.35710969 15.54543944
v -6.29039609 -44.36699751 15.55823241
v -7.28724265 -43.37029246 15.66057175
v -5.29354953 -42.73685974 15.97185507
v -5.29354953 -42.60254168 16.66477935
v -4.29670297 -42.60254168 20.65389489
v -7.28724265 -42.60177806 36.60396129
v -7.28724265 -42.60177806 37.32673536
v -13.54311652 -50.39759151 37.32673536
v -13.54771537 -50.39759151 37.32247078
v -13.54771537 -46.36116827 15.66696897
v -8.02194281 -42.78188697 16.03581845
v -7.28724265 -42.73685974 15.97185507
v -7.28724265 -42.60254168 16.66477935
v -8.14036881 -42.73685974 16.66477935
v -8.14036881 -42.73685974 19.65608303
v -7.90351717 -42.69946284 37.32673536
v -13.54771537 -50.32814012 37.32673536
v -13.54771537 -46.18563815 15.75225151
v -13.54771537 -45.69568106 16.16800608
v -13.54771537 -45.60181144 16.66477935
v -13.54771537 -45.73231433 15.97611890
v -13.54771537 -45.60181144 37.32673536
v -8.13921892 -42.73685974 34.60833757
v -8.13806902 -42.73685974 37.32673536
f 1 2 3
f 1 3 12
f 1 12 30
f 1 30 29
f 1 29 28
f 1 28 46
f 1 46 61
f 1 61 74
f 1 74 83
f 1 83 91
f 1 91 89
f 1 89 84
f 1 84 75
f 1 75 63
f 1 63 62
f 1 62 47
f 1 47 33
f 1 33 15
f 1 15 4
f 1 4 5
f 1 5 6
f 1 6 7
f 1 7 8
f 1 8 9
f 1 9 2
f 2 9 10
f 2 10 13
f 2 13 3
f 3 11 12
f 3 13 14
f 3 14 11
f 4 15 16
f 4 16 5
f 5 16 6
f 6 17 18
f 6 18 19
f 6 19 7
f 6 16 20
f 6 20 17
f 7 19 21
f 7 21 22
f 7 22 8
f 8 22 23
f 8 23 9
f 9 23 24
f 9 24 25
f 9 25 10
f 10 25 26
f 10 26 27
f 10 27 32
f 10 32 13
f 11 28 29
f 11 29 30
f 11 30 12
f 11 14 28
f 13 31 14
f 13 32 31
f 14 31 28
f 15 33 16
f 16 33 20
f 17 34 35
f 17 35 18
f 17 20 33
f 17 33 34
f 18 35 36
f 18 36 19
f 19 36 37
f 19 37 21
f 21 37 38
f 21 38 39
f 21 39 41
f 21 41 22
f 22 40 23
f 22 41 40
f 23 40 42
f 23 42 24
f 24 42 43
f 24 43 44
f 24 44 26
f 24 26 25
f 26 45 27
f 26 44 45
f 27 45 31
f 27 31 32
f 28 31 46
f 31 45 46
f 33 47 48
f 33 48 49
f 33 49 34
f 34 49 35
f 35 49 36
f 36 50 38
f 36 38 37
f 36 49 50
f 38 51 52
f 38 52 53
f 38 53 39
f 38 50 51
f 39 53 54
f 39 54 67
f 39 67 56
f 39 56 41
f 40 41 55
f 40 55 42
f 41 56 69
f 41 69 57
f 41 57 55
f 42 55 58
f 42 58 59
f 42 59 43
f 43 59 44
f 44 59 45
f 45 59 60
f 45 60 46
f 46 60 61
f 47 62 48
f 48 62 63
f 48 63 64
f 48 64 49
f 49 64 65
f 49 65 50
f 50 65 66
f 50 66 51
f 51 66 65
f 51 65 64
f 51 64 76
f 51 76 84
f 51 84 89
f 51 89 87
f 51 87 86
f 51 86 88
f 51 88 85
f 51 85 77
f 51 77 67
f 51 67 54
f 51 54 53
f 51 53 52
f 55 57 58
f 56 67 68
f 56 68 69
f 57 69 79
f 57 79 70
f 57 70 58
f 58 70 71
f 58 71 59
f 59 71 72
f 59 72 60
f 60 72 73
f 60 73 74
f 60 74 61
f 63 75 76
f 63 76 64
f 67 77 69
f 67 69 68
f 69 77 78
f 69 78 79
f 70 79 80
f 70 80 71
f 71 80 73
f 71 73 72
f 73 80 81
f 73 81 82
f 73 82 74
f 74 82 83
f 75 84 76
f 77 85 78
f 78 86 87
f 78 87 81
f 78 81 80
f 78 80 79
f 78 85 88
f 78 88 86
f 81 87 89
f 81 89 82
f 82 89 90
f 82 90 83
f 83 90 91
f 89 91 90

