# https://github.com/mikedh/trimesh
v 7.97791198 48.35497786 56.65048774
v 7.97791198 42.43759373 56.65048774
v 7.97791198 48.66436846 56.64793241
v 1.31151489 49.35172748 64.12056245
v 1.31245457 46.36147565 64.12056245
v 1.31245457 42.43759373 64.12056245
v 7.97791198 42.43759373 47.51982750
v 7.97791198 49.35172748 56.64026792
v 1.27016095 49.93388134 64.08735064
v 0.68933006 49.35172748 64.41435813
v 0.68933006 48.35497786 64.41691346
v 0.72974433 42.43759373 64.39902914
v 6.40741285 42.43759373 45.76216260
v 7.97791198 48.35497786 47.51982750
v 7.97791198 50.12403328 56.33625391
v 6.33974350 50.02116654 58.26764089
v 1.49384709 50.05000013 63.52275276
v 0.68933006 50.32354484 63.52275276
v 0.68933006 50.05000013 64.21508873
v -0.30785671 49.35172748 64.61618286
v -0.30785671 48.35497786 64.62640268
v -0.24394644 42.43759373 64.61362753
v 0.68933006 42.43759373 64.41691346
v 6.40741285 43.37044237 45.76216260
v 1.27486044 42.43759373 40.02675931
v 1.27580049 49.35172748 40.02675931
v 7.97791198 49.35172748 47.52238208
v 7.97791198 50.20898302 56.09355287
v 7.97791198 50.39757800 55.54683634
v -0.30785671 50.39757800 63.52275276
v -0.30785671 50.12403328 64.31216885
v -1.30410381 49.35172748 64.62640268
v -1.30410381 48.35497786 64.63917634
v -0.30785671 42.43759373 64.62640268
v 0.68933006 42.43759373 39.76617545
v -1.62271475 44.36719199 38.58588282
v -1.62271475 45.36472306 38.54245268
v -1.62271475 47.41200004 38.54500652
v -1.62271475 48.37991607 38.55011717
v 1.24666457 49.91050308 40.04975205
v 6.32658580 50.00713601 45.87201675
v 7.97791198 50.11857795 47.79829494
v 7.97791198 50.39757800 49.56617817
v -1.62271475 50.39757800 63.52275276
v -1.62271475 50.31029280 63.77567213
v -1.30410381 50.12403328 64.31472269
v -1.62271475 49.35172748 64.62640268
v -1.62271475 48.35497786 64.63917634
v -1.62271475 44.36719199 64.64173018
v -1.30410381 44.36719199 64.63917634
v -1.30410381 43.37044237 64.63406569
v -1.30410381 42.43759373 64.61873818
v -0.37646611 42.43759373 39.54135798
v -1.62271475 43.60189848 38.76982472
v -1.62271475 48.99869726 38.70340109
v -1.62271475 49.18495381 38.75194190
v 0.68933006 50.02740034 39.92967919
v 0.68933006 50.30093912 40.59391251
v 1.46565121 50.03207719 40.59391251
v 7.97791198 50.39212267 48.56982745
v 7.97791198 50.39602103 49.25705425
v 0.68933006 50.39757800 41.59026323
v -1.62271475 50.39757800 40.59391251
v -1.62271475 50.12403328 64.31472269
v -1.62271475 43.37044237 64.61873818
v -1.62271475 42.43759373 64.52932107
v -1.36707403 42.43759373 39.42894888
v -1.62271475 42.69710793 39.28588328
v -1.62271475 49.69696693 39.16581043
v -0.30785671 50.11857795 39.82748916
v -0.30785671 50.39290115 40.59391251
v -1.30410381 50.39757800 40.59391251
v -1.62271475 50.14351913 39.63332893
v -1.62271475 42.43759373 39.44938703
f 1 2 7
f 1 7 14
f 1 14 27
f 1 27 42
f 1 42 60
f 1 60 61
f 1 61 43
f 1 43 29
f 1 29 28
f 1 28 15
f 1 15 8
f 1 8 3
f 1 3 4
f 1 4 5
f 1 5 6
f 1 6 2
f 2 6 12
f 2 12 23
f 2 23 22
f 2 22 34
f 2 34 52
f 2 52 66
f 2 66 74
f 2 74 67
f 2 67 53
f 2 53 35
f 2 35 25
f 2 25 13
f 2 13 7
f 3 8 4
f 4 9 10
f 4 10 11
f 4 11 12
f 4 12 5
f 4 8 9
f 5 12 6
f 7 13 24
f 7 24 14
f 8 15 16
f 8 16 9
f 9 17 18
f 9 18 19
f 9 19 10
f 9 16 15
f 9 15 17
f 10 20 21
f 10 21 11
f 10 19 20
f 11 22 23
f 11 23 12
f 11 21 22
f 13 25 26
f 13 26 24
f 14 24 26
f 14 26 27
f 15 28 17
f 17 28 29
f 17 29 18
f 18 30 31
f 18 31 19
f 18 29 30
f 19 31 20
f 20 32 33
f 20 33 21
f 20 31 32
f 21 33 50
f 21 50 34
f 21 34 22
f 25 35 36
f 25 36 37
f 25 37 26
f 26 37 38
f 26 38 39
f 26 39 40
f 26 40 27
f 27 41 42
f 27 40 41
f 29 43 62
f 29 62 72
f 29 72 63
f 29 63 44
f 29 44 30
f 30 44 45
f 30 45 46
f 30 46 31
f 31 46 32
f 32 46 64
f 32 64 47
f 32 47 48
f 32 48 33
f 33 48 49
f 33 49 50
f 34 50 49
f 34 49 51
f 34 51 52
f 35 53 54
f 35 54 36
f 36 54 68
f 36 68 74
f 36 74 66
f 36 66 65
f 36 65 49
f 36 49 48
f 36 48 47
f 36 47 64
f 36 64 45
f 36 45 44
f 36 44 63
f 36 63 73
f 36 73 69
f 36 69 56
f 36 56 55
f 36 55 39
f 36 39 38
f 36 38 37
f 39 55 40
f 40 55 56
f 40 56 57
f 40 57 58
f 40 58 59
f 40 59 42
f 40 42 41
f 42 59 60
f 43 61 62
f 45 64 46
f 49 65 52
f 49 52 51
f 52 65 66
f 53 67 54
f 54 67 68
f 56 69 57
f 57 70 58
f 57 69 70
f 58 70 71
f 58 71 62
f 58 62 60
f 58 60 59
f 60 62 61
f 62 71 72
f 63 72 73
f 67 74 68
f 69 73 70
f 70 73 71
f 71 73 72

