# https://github.com/mikedh/trimesh
v 2.33622008 -42.53324183 42.47922061
v 2.33466534 -48.35431689 42.47922061
v 2.26314369 -49.35131313 41.73983692
v 2.27558233 -42.53324183 41.85079491
v -4.06648608 -42.53324183 42.47922061
v 2.33311060 -49.35131313 42.47922061
v 2.26314369 -47.35732065 41.73681083
v 2.23671240 -49.92641310 41.85583852
v 2.13720398 -49.35131313 41.24103025
v 2.14653315 -48.35431689 41.24002158
v 2.14808789 -45.36409775 41.23548235
v 2.26314369 -43.37010230 41.73126284
v 2.26314369 -42.53324183 41.73025408
v -4.06648608 -42.53324183 41.58903497
v -7.28649685 -42.60253277 42.47922061
v 2.26003421 -49.96029197 42.47922061
v 2.16674549 -42.53324183 41.31214428
v 1.69252891 -50.22743649 42.47922061
v 1.76249508 -50.11503778 41.54969520
v 1.44686919 -50.02803784 40.59192600
v 1.23852467 -49.90485922 40.05226664
v 1.71740546 -49.35131313 40.59192600
v 1.72673463 -48.35431689 40.59192600
v 1.72828937 -47.35732065 40.59192600
v 2.14808789 -43.37010230 41.23296064
v -4.06182168 -42.53324183 40.59192600
v -7.28649685 -42.60253277 37.32673480
v -7.90375636 -42.69953712 37.32673480
v -8.13853254 -42.73649130 42.47922061
v 2.14808789 -42.53324183 41.23195188
v 1.57747311 -50.25746455 42.47922061
v 0.68812148 -50.29826657 40.59192600
v 1.26495596 -49.35131313 40.03158810
v -2.34997623 -50.12350602 37.32673480
v -1.85243710 -49.36363218 37.32673480
v -1.81667665 -49.00255565 37.32673480
v 1.73139884 -42.53324183 40.59192600
v 1.26651069 -47.35732065 40.03108375
v -3.80838772 -42.53324183 39.59532142
v -3.29996487 -42.53324183 39.08037543
v -3.29996487 -42.60253277 37.32673480
v -8.13853254 -42.73649130 37.32673480
v -13.54771537 -45.60198972 42.47922061
v 0.68812148 -50.39835217 42.47922061
v 0.68812148 -50.39757963 41.58903497
v -3.29996487 -50.39835217 37.32673480
v -1.80423800 -48.86474928 37.32673480
v -1.80268327 -48.72462825 37.32673480
v 1.26806543 -42.53324183 40.03007505
v -2.40750413 -42.53324183 39.09853227
v 0.68812148 -42.53324183 39.76528893
v -3.08695613 -42.63948398 37.32673480
v -13.54771537 -45.60198972 37.32673480
v -13.54771537 -50.39757963 42.47922061
v -6.39714559 -50.39835217 42.47922061
v -4.57179927 -50.39835217 37.32673480
v -1.80268327 -43.86436779 37.32673480
v -2.02657591 -43.36625445 37.32673480
v -2.52566978 -42.73726087 37.32673480
v -13.54771537 -50.32829463 37.32673480
v -13.54771537 -50.39757963 37.60160806
v -13.54305115 -50.39757963 37.32673480
f 1 2 3
f 1 3 4
f 1 4 13
f 1 13 17
f 1 17 30
f 1 30 37
f 1 37 49
f 1 49 51
f 1 51 50
f 1 50 40
f 1 40 39
f 1 39 26
f 1 26 14
f 1 14 5
f 1 5 15
f 1 15 29
f 1 29 43
f 1 43 54
f 1 54 55
f 1 55 44
f 1 44 31
f 1 31 18
f 1 18 16
f 1 16 6
f 1 6 2
f 2 6 3
f 3 7 4
f 3 6 8
f 3 8 9
f 3 9 10
f 3 10 11
f 3 11 7
f 4 7 12
f 4 12 13
f 5 14 27
f 5 27 15
f 6 16 8
f 7 11 17
f 7 17 12
f 8 18 19
f 8 19 20
f 8 20 21
f 8 21 9
f 8 16 18
f 9 22 10
f 9 21 22
f 10 22 23
f 10 23 24
f 10 24 11
f 11 25 17
f 11 24 25
f 12 17 13
f 14 26 27
f 15 27 28
f 15 28 29
f 17 25 30
f 18 31 19
f 19 31 32
f 19 32 20
f 20 32 21
f 21 33 22
f 21 32 34
f 21 34 35
f 21 35 36
f 21 36 33
f 22 33 23
f 23 33 24
f 24 37 30
f 24 30 25
f 24 33 38
f 24 38 37
f 26 39 27
f 27 39 40
f 27 40 41
f 27 41 52
f 27 52 59
f 27 59 58
f 27 58 57
f 27 57 48
f 27 48 47
f 27 47 36
f 27 36 35
f 27 35 34
f 27 34 46
f 27 46 56
f 27 56 62
f 27 62 60
f 27 60 53
f 27 53 42
f 27 42 28
f 28 42 29
f 29 42 53
f 29 53 43
f 31 44 45
f 31 45 32
f 32 45 46
f 32 46 34
f 33 36 47
f 33 47 48
f 33 48 38
f 37 38 49
f 38 48 49
f 40 50 41
f 41 50 51
f 41 51 49
f 41 49 52
f 43 53 60
f 43 60 61
f 43 61 54
f 44 46 45
f 44 55 56
f 44 56 46
f 48 57 49
f 49 57 58
f 49 58 59
f 49 59 52
f 54 61 55
f 55 61 62
f 55 62 56
f 60 62 61

