# https://github.com/mikedh/trimesh
v 1.56032160 -7.47177512 46.57510329
v 1.32479442 -7.47177512 42.48139096
v 1.37815988 -7.17022878 42.47922116
v 1.53517800 -5.48297723 42.47922116
v 1.54800663 -5.48297723 46.57510329
v 1.54800663 -5.48297723 62.52474479
v 1.55980868 -7.47177512 57.53939664
v -2.32151629 -7.47177512 42.47922116
v 1.36789772 -4.68393782 42.47922116
v 1.32684685 -3.47618807 45.57933494
v 1.33916219 -3.47618807 46.56208672
v 1.34429364 -3.47618807 47.56002412
v 1.34634607 -3.47618807 48.55579172
v 1.44897214 -4.48642706 48.56880829
v 1.33351744 -3.47618807 57.53939664
v 1.32222869 -3.47618807 58.53733479
v 1.32736015 -4.74416887 63.52268145
v 1.46795806 -5.48297723 63.52268145
v 1.55416393 -7.47177512 62.52474479
v 1.34634607 -3.47618807 48.56880829
v -3.68182719 -7.47177512 42.47922116
v 0.76188945 -4.33232937 42.47922116
v 1.25295632 -3.47618807 44.88945699
v 1.32582064 -3.47618807 45.56631838
v 1.24679828 -3.47618807 59.21202712
v 0.68851147 -4.36674716 63.52268145
v 1.25398217 -4.86463096 64.08673409
v 1.28784915 -5.48297723 64.11927588
v 1.47103708 -7.47177512 63.52268145
v -3.68182719 -3.47618807 42.47922116
v -3.68182719 -7.47177512 62.76989122
v 0.68851147 -4.29048070 42.47922116
v 0.77009955 -3.47618807 44.33842166
v 0.93943263 -3.47618807 59.71099619
v -1.58363358 -3.47618807 62.26441349
v -0.30850241 -4.22633829 63.52268145
v -0.30850241 -4.61784029 64.32103226
v 0.68851147 -4.71288023 64.21472920
v 0.44733991 -3.47618807 60.23599691
v 0.68851147 -5.48297723 64.40997842
v 1.28784915 -6.48030923 64.11927588
v 1.28887500 -7.47177512 64.11710682
v -3.68182719 -3.47618807 62.56379523
v -1.38299923 -3.47618807 42.47922116
v -2.16757691 -7.47177512 64.31452361
v -2.17937895 -6.48030923 64.33187903
v -2.17937895 -5.48297723 64.33187903
v -3.68182719 -6.48030923 62.75904296
v 0.65515814 -3.47618807 44.21042581
v -2.30201734 -3.47618807 62.47267853
v -1.30500328 -4.61432040 64.33187903
v -1.30500328 -5.48297723 64.64210754
v -0.30850241 -5.48297723 64.62041400
v -3.67669593 -3.47618807 62.56379523
v -0.30850241 -6.48030923 64.62258306
v 0.68851147 -7.47177512 64.40997842
v -3.68182719 -5.53460374 62.74602566
v -2.05366181 -4.73791129 64.22774651
v -1.30500328 -7.47177512 64.62475212
v -1.30500328 -6.48030923 64.64210754
v -0.30850241 -7.47177512 64.62258306
v -1.29935881 -7.47177512 64.62475212
f 1 2 3
f 1 3 4
f 1 4 5
f 1 5 6
f 1 6 7
f 1 7 19
f 1 19 29
f 1 29 42
f 1 42 56
f 1 56 61
f 1 61 62
f 1 62 59
f 1 59 45
f 1 45 31
f 1 31 21
f 1 21 8
f 1 8 2
f 2 8 3
f 3 8 21
f 3 21 30
f 3 30 44
f 3 44 32
f 3 32 22
f 3 22 9
f 3 9 4
f 4 9 10
f 4 10 11
f 4 11 12
f 4 12 5
f 5 12 13
f 5 13 14
f 5 14 6
f 6 15 16
f 6 16 17
f 6 17 18
f 6 18 19
f 6 19 7
f 6 14 20
f 6 20 15
f 9 22 23
f 9 23 24
f 9 24 10
f 10 24 23
f 10 23 33
f 10 33 49
f 10 49 44
f 10 44 30
f 10 30 43
f 10 43 54
f 10 54 50
f 10 50 35
f 10 35 39
f 10 39 34
f 10 34 25
f 10 25 16
f 10 16 15
f 10 15 20
f 10 20 13
f 10 13 12
f 10 12 11
f 13 20 14
f 16 25 17
f 17 26 27
f 17 27 18
f 17 25 26
f 18 27 28
f 18 28 29
f 18 29 19
f 21 31 48
f 21 48 57
f 21 57 43
f 21 43 30
f 22 32 23
f 23 32 33
f 25 34 26
f 26 35 36
f 26 36 37
f 26 37 38
f 26 38 27
f 26 34 39
f 26 39 35
f 27 38 40
f 27 40 28
f 28 41 42
f 28 42 29
f 28 40 56
f 28 56 41
f 31 45 46
f 31 46 47
f 31 47 48
f 32 44 49
f 32 49 33
f 35 50 36
f 36 50 37
f 37 51 52
f 37 52 53
f 37 53 38
f 37 50 54
f 37 54 51
f 38 53 40
f 40 53 55
f 40 55 61
f 40 61 56
f 41 56 42
f 43 57 47
f 43 47 58
f 43 58 51
f 43 51 54
f 45 59 46
f 46 59 60
f 46 60 52
f 46 52 47
f 47 52 58
f 47 57 48
f 51 58 52
f 52 60 61
f 52 61 55
f 52 55 53
f 59 62 60
f 60 62 61

