# https://github.com/mikedh/trimesh
v -2.55320918 -11.71144189 39.07274678
v -4.05695356 -11.95164628 29.62613158
v -4.05695356 -11.94532482 39.07274678
v -1.44536321 -12.55637095 39.07274678
v -2.27875793 -12.27823928 29.62613158
v -2.78510616 -11.96007440 29.11949876
v -3.29862648 -11.95796700 29.11611369
v -4.05695356 -11.95796700 29.11611369
v -4.05695356 -33.08961428 39.07274678
v -1.72889905 -12.77761171 29.62613158
v 0.60345847 -18.50669205 39.07274678
v -1.75471853 -12.84082335 28.94798807
v -2.35956326 -12.52265699 28.70200671
v -2.59863233 -12.87032103 28.04417359
v -3.29862648 -12.82607377 28.00129611
v -3.29862648 -12.32670208 28.61737935
v -4.05695356 -12.32670208 28.61737935
v -4.05695356 -33.08961428 38.83691987
v -3.82123157 -33.12964673 39.07274678
v 0.78132627 -19.44222378 36.60389890
v 0.80045185 -19.44222378 39.07274678
v 0.79041068 -19.44222378 37.60023922
v -1.76236872 -13.79742612 28.07351082
v -1.93402036 -13.13159720 28.28338557
v 0.69812997 -19.44222378 35.60643022
v 0.68856718 -20.43886049 34.61008990
v -2.28067048 -13.46240500 27.92795230
v -3.29862648 -13.46029686 27.70905145
v -4.05695356 -12.97778141 27.93133811
v -4.05695356 -12.82607377 28.00129611
v -4.05695356 -33.04747219 29.62613158
v -2.77028387 -33.23710712 39.07274678
v 0.82244623 -20.43886049 37.60023922
v 0.80523306 -20.43886049 36.60389890
v 0.77463191 -21.43549720 34.61008990
v 0.81288306 -24.89949316 39.07274678
v -1.74228694 -14.45693357 28.04530195
v -2.30170856 -14.45693357 27.75305729
v 0.50161534 -22.43424056 33.61262122
v -4.05695356 -13.46029686 27.70905145
v -3.29862648 -14.45693357 27.54543925
v -3.29862648 -33.04747219 29.62613158
v -4.05695356 -32.97372428 28.99763569
v -2.37056045 -33.20128798 39.07274678
v 0.82770544 -22.43424056 36.60389890
v 0.82244623 -21.43549720 36.60389890
v 0.82579266 -24.42540584 37.60023922
v 0.79949509 -21.43549720 35.60643022
v 0.79327948 -22.43424056 34.61008990
v 0.79280147 -25.42204255 39.07274678
v -1.74228694 -30.40733276 28.04530195
v -2.30170856 -30.40733276 27.75305729
v 0.78084789 -23.42877062 34.61008990
v -1.76236872 -31.13005334 28.07351082
v -4.05695356 -14.45693357 27.54543925
v -3.29862648 -30.40733276 27.54543925
v -3.29862648 -32.97372428 28.99763569
v -2.63927409 -32.94844141 29.04051391
v -2.55894687 -32.97372428 29.62613158
v -4.05695356 -32.69348818 28.61850771
v -2.13149137 -33.08539799 39.07274678
v 0.81383946 -22.43424056 35.60643022
v 0.82531502 -23.42877062 36.60389890
v 0.78323868 -25.42204255 37.60023922
v 0.77415427 -25.42204255 36.60389890
v 0.81575186 -24.42540584 36.60389890
v 0.80762385 -23.42877062 35.60643022
v 0.76124430 -25.92773570 39.07274678
v -2.23524733 -31.43979158 27.90651430
v -3.29862648 -31.40396947 27.65489042
v 0.78754188 -24.42540584 35.60643022
v 0.72681834 -24.42540584 34.61008990
v -1.75184973 -32.06769172 28.88480020
v -1.85847453 -31.79588225 28.22019695
v -4.05695356 -30.40733276 27.54543925
v -3.29862648 -32.60499069 28.49890135
v -2.06024879 -32.64713277 29.62613158
v -2.52308650 -32.03819256 28.00806624
v -2.24911336 -32.38585660 28.63091961
v -4.05695356 -32.60499069 28.49890135
v -1.85990893 -32.85994392 39.07274678
v 0.72060236 -25.42204255 35.60643022
v 0.58768007 -26.48399756 39.07274678
v 0.53365052 -26.41867926 37.60023922
v -3.29862648 -32.10562049 27.94713507
v -4.05695356 -31.57253484 27.72484842
v -4.05695356 -31.40396947 27.65489042
v -1.72698655 -32.14986626 29.62613158
v -4.05695356 -32.22572083 28.07915259
v -1.51899645 -32.56495526 39.07274678
v -1.42384694 -32.41324910 39.07274678
v -4.05695356 -32.10562049 27.94713507
f 1 2 3
f 1 3 9
f 1 9 19
f 1 19 32
f 1 32 44
f 1 44 61
f 1 61 81
f 1 81 90
f 1 90 91
f 1 91 83
f 1 83 68
f 1 68 50
f 1 50 36
f 1 36 21
f 1 21 11
f 1 11 4
f 1 4 5
f 1 5 6
f 1 6 7
f 1 7 8
f 1 8 2
f 2 8 17
f 2 17 30
f 2 30 29
f 2 29 40
f 2 40 55
f 2 55 75
f 2 75 87
f 2 87 86
f 2 86 92
f 2 92 89
f 2 89 80
f 2 80 60
f 2 60 43
f 2 43 31
f 2 31 18
f 2 18 9
f 2 9 3
f 4 10 5
f 4 11 10
f 5 10 12
f 5 12 6
f 6 12 13
f 6 13 14
f 6 14 15
f 6 15 16
f 6 16 7
f 7 16 17
f 7 17 8
f 9 18 19
f 10 11 20
f 10 20 12
f 11 21 22
f 11 22 20
f 12 23 24
f 12 24 13
f 12 20 25
f 12 25 26
f 12 26 23
f 13 24 14
f 14 24 27
f 14 27 28
f 14 28 15
f 15 28 29
f 15 29 30
f 15 30 17
f 15 17 16
f 18 31 19
f 19 31 32
f 20 22 33
f 20 33 34
f 20 34 35
f 20 35 25
f 21 33 22
f 21 36 33
f 23 37 38
f 23 38 27
f 23 27 24
f 23 26 35
f 23 35 39
f 23 39 37
f 25 35 26
f 27 38 28
f 28 40 29
f 28 38 41
f 28 41 55
f 28 55 40
f 31 42 32
f 31 43 57
f 31 57 42
f 32 42 44
f 33 45 46
f 33 46 34
f 33 36 47
f 33 47 45
f 34 46 48
f 34 48 35
f 35 48 49
f 35 49 39
f 36 50 47
f 37 39 51
f 37 51 52
f 37 52 38
f 38 52 56
f 38 56 41
f 39 49 53
f 39 53 54
f 39 54 51
f 41 56 75
f 41 75 55
f 42 57 58
f 42 58 59
f 42 59 44
f 43 60 57
f 44 59 61
f 45 62 46
f 45 47 63
f 45 63 62
f 46 62 49
f 46 49 48
f 47 50 64
f 47 64 65
f 47 65 66
f 47 66 63
f 49 62 67
f 49 67 53
f 50 68 64
f 51 54 52
f 52 54 69
f 52 69 70
f 52 70 56
f 53 67 66
f 53 66 71
f 53 71 72
f 53 72 54
f 54 73 74
f 54 74 69
f 54 72 73
f 56 70 87
f 56 87 75
f 57 60 76
f 57 76 58
f 58 77 59
f 58 76 78
f 58 78 79
f 58 79 73
f 58 73 77
f 59 77 61
f 60 80 76
f 61 77 81
f 62 63 67
f 63 66 67
f 64 68 65
f 65 68 82
f 65 82 71
f 65 71 66
f 68 83 84
f 68 84 82
f 69 74 78
f 69 78 70
f 70 78 85
f 70 85 86
f 70 86 87
f 71 82 72
f 72 82 73
f 73 88 77
f 73 79 74
f 73 82 88
f 74 79 78
f 76 80 89
f 76 89 85
f 76 85 78
f 77 90 81
f 77 88 90
f 82 84 88
f 83 91 88
f 83 88 84
f 85 92 86
f 85 89 92
f 88 91 90

