# https://github.com/mikedh/trimesh
v -3.68182719 -10.46789083 64.64214022
v -7.36272246 -10.46789083 64.64214022
v -3.68182719 -34.39098257 64.64214022
v -3.68182719 22.42786399 62.63758474
v -5.29311962 22.42786399 62.64192433
v -7.36272246 -34.39098257 64.64214022
v -7.36272246 22.42786399 62.64192433
v -3.68182719 -35.38928321 64.47943278
v -3.68182719 23.04127900 62.58118036
v -7.36272246 -35.38928321 64.45773777
v -3.68182719 23.42616463 62.53779033
v -7.36272246 23.35399746 62.53345222
v -3.68182719 -36.03877884 64.16920428
v -7.36272246 -35.96661167 64.14750926
v -7.36272246 23.42616463 62.52260545
v -3.68182719 23.87720351 62.35122030
v -3.68182719 -36.21919379 63.52271414
v -7.36272246 -35.97262560 64.09978260
v -7.36272246 24.12978563 62.21671506
v -3.68182719 24.14181052 62.23407048
v -3.68182719 -36.24926345 62.52477451
v -7.36272246 -36.04479277 63.52271414
v -3.68182719 24.45453196 61.89563978
v -7.36272246 24.59284940 61.68520420
v -3.68182719 -36.24926345 62.14295378
v -7.36272246 -36.04479277 50.56252518
v -3.68182719 24.64096084 61.67435743
v -3.68182719 24.89955690 61.36629798
v -7.36272246 24.62893298 61.64181565
v -3.68182719 -36.24324952 51.17864408
v -3.68182719 -36.23723558 50.56252518
v -7.36272246 -35.96661167 49.77068302
v -7.36272246 24.95969621 61.18189553
v -3.68182719 25.03186041 61.17538836
v -3.68182719 -36.20716593 50.25880532
v -3.68182719 -36.13499876 49.62316121
v -7.36272246 -33.04387988 42.47922116
v -7.36272246 24.98375193 61.14501563
v -3.68182719 25.14011117 60.76536545
v -3.68182719 -33.24835056 42.47922116
v -7.36272246 23.72685523 42.47922116
v -3.68182719 25.16416689 60.53106579
v -7.36272246 25.04388827 60.53106579
v -3.68182719 24.64697477 42.47922116
v -7.36272246 24.59284940 42.48139022
v -7.28705806 24.59284940 42.47922116
v -3.68182719 25.17619475 59.91711743
v -3.68182719 25.18220868 53.93599277
v -3.68182719 25.18822261 44.96322050
v -7.36272246 25.04388827 43.58346163
v -3.68182719 25.03787434 42.94347939
v -7.36272246 24.98375193 42.98252909
v -3.68182719 25.18822261 44.58140051
v -7.36272246 24.98976586 43.02808744
v -3.68182719 25.17018082 43.58346163
f 1 2 6
f 1 6 3
f 1 3 8
f 1 8 13
f 1 13 17
f 1 17 21
f 1 21 25
f 1 25 30
f 1 30 31
f 1 31 35
f 1 35 36
f 1 36 40
f 1 40 44
f 1 44 51
f 1 51 55
f 1 55 53
f 1 53 49
f 1 49 48
f 1 48 47
f 1 47 42
f 1 42 39
f 1 39 34
f 1 34 28
f 1 28 27
f 1 27 23
f 1 23 20
f 1 20 16
f 1 16 11
f 1 11 9
f 1 9 4
f 1 4 5
f 1 5 7
f 1 7 2
f 2 7 12
f 2 12 15
f 2 15 19
f 2 19 24
f 2 24 29
f 2 29 33
f 2 33 38
f 2 38 43
f 2 43 50
f 2 50 54
f 2 54 52
f 2 52 45
f 2 45 41
f 2 41 37
f 2 37 32
f 2 32 26
f 2 26 22
f 2 22 18
f 2 18 14
f 2 14 10
f 2 10 6
f 3 6 8
f 4 9 5
f 5 9 7
f 6 10 8
f 7 9 11
f 7 11 12
f 8 10 13
f 10 14 13
f 11 15 12
f 11 16 15
f 13 14 17
f 14 18 17
f 15 16 19
f 16 20 19
f 17 18 22
f 17 22 21
f 19 20 23
f 19 23 24
f 21 22 26
f 21 26 25
f 23 27 24
f 24 27 28
f 24 28 29
f 25 26 30
f 26 31 30
f 26 32 31
f 28 33 29
f 28 34 33
f 31 32 35
f 32 36 35
f 32 37 36
f 33 34 38
f 34 39 38
f 36 37 40
f 37 41 46
f 37 46 44
f 37 44 40
f 38 39 42
f 38 42 43
f 41 45 46
f 42 47 43
f 43 47 48
f 43 48 49
f 43 49 53
f 43 53 50
f 44 46 51
f 45 52 51
f 45 51 46
f 50 53 55
f 50 55 54
f 51 52 55
f 52 54 55

