# https://github.com/mikedh/trimesh
v 7.96979585 -50.39040689 48.56936095
v 7.96979585 -50.39040689 55.54729689
v 7.96979585 -50.19970823 48.02850458
v 9.88688934 -50.02489419 44.90158514
v 10.66102249 -50.39040689 45.57839452
v 10.66102249 -50.39040689 58.53826332
v 9.87472926 -50.03283947 59.22984903
v 7.96979585 -50.31094812 55.78521412
v 7.96979585 -50.11229824 47.79797552
v 9.75111089 -49.34948578 44.81292051
v 10.66102249 -49.34948578 44.54692515
v 10.66102249 -50.12024352 44.81292051
v 26.60978152 -50.39040689 45.57839452
v 26.60978152 -50.39040689 58.53826332
v 10.66102249 -50.12024352 59.32738227
v 10.66102249 -49.34948578 59.62884245
v 9.72882012 -49.34948578 59.33329221
v 7.96979585 -50.12024352 56.33789259
v 7.96979585 -49.57992273 47.60291201
v 7.96979585 -49.34948578 47.52311377
v 7.96979585 -48.65024151 47.52015806
v 9.75111089 30.76964669 44.81292051
v 10.32461823 30.76964669 44.64445690
v 26.60978152 -41.37174497 44.54544766
v 26.60978152 -49.34948578 44.54692515
v 10.66102249 30.76964669 44.54692515
v 26.60978152 -50.12024352 44.81292051
v 27.60683421 -50.37451632 45.57839452
v 27.60683421 -50.37451632 58.53826332
v 27.60683421 -50.11229824 59.31555943
v 26.60978152 -50.12024352 59.32738227
v 26.60978152 -49.34948578 59.62884245
v 10.66102249 -48.34829702 59.64066529
v 9.72679369 -48.34829702 59.33920363
v 7.96979585 -48.34829702 56.65117560
v 7.96979585 -49.34948578 56.64083098
v 7.96979585 30.76964669 47.52015806
v 26.60978152 -34.39518697 44.54544766
v 27.23800554 30.76964669 44.56465793
v 27.60683421 -49.34948578 44.57648002
v 27.60683421 -50.10435296 44.82769758
v 26.60978152 30.76964669 44.54692515
v 28.28977193 -50.00900363 44.92227362
v 28.38704667 -50.09640767 45.57839452
v 28.38704667 -50.09640767 58.53826332
v 28.30193053 -50.02489419 59.21507271
v 27.60683421 -49.34948578 59.60224328
v 26.60978152 -48.34829702 59.64066529
v 26.60978152 -43.36617720 59.64214203
v 10.66102249 30.76964669 59.64066529
v 9.72679369 30.76964669 59.33920363
v 7.96979585 30.76964669 56.65117560
v 27.60683421 30.76964669 44.57648002
v 28.38096737 -49.34948578 44.84247538
v 28.66873277 -49.34948578 45.57839452
v 28.67075920 -49.34948578 58.53826332
v 28.40123170 -49.34948578 59.30521630
v 27.60683421 -48.34829702 59.60815322
v 26.60978152 -37.38286862 59.64214203
v 26.60978152 30.76964669 59.64066529
v 28.38096737 30.76964669 44.84247538
v 28.67075920 -36.38962515 45.57839452
v 28.56537873 30.76964669 45.30648848
v 28.67278564 30.76964669 45.57839452
v 28.67075920 8.47327720 58.53826332
v 28.40123170 6.47884051 59.30521630
v 27.60683421 -1.49890549 59.60815322
v 26.97861020 30.76964669 59.62884245
v 28.66873277 30.76964669 58.53826332
v 28.40123170 17.44426891 59.30373659
v 28.39920526 30.76964669 59.30373659
v 27.90067892 30.76964669 59.49436691
v 27.60683421 30.76964669 59.60667648
f 1 2 8
f 1 8 18
f 1 18 36
f 1 36 35
f 1 35 52
f 1 52 37
f 1 37 21
f 1 21 20
f 1 20 19
f 1 19 9
f 1 9 3
f 1 3 4
f 1 4 5
f 1 5 13
f 1 13 14
f 1 14 6
f 1 6 2
f 2 6 7
f 2 7 8
f 3 9 4
f 4 9 10
f 4 10 11
f 4 11 12
f 4 12 5
f 5 12 27
f 5 27 13
f 6 14 31
f 6 31 15
f 6 15 7
f 7 16 17
f 7 17 18
f 7 18 8
f 7 15 16
f 9 19 10
f 10 19 20
f 10 20 21
f 10 21 37
f 10 37 22
f 10 22 23
f 10 23 11
f 11 24 25
f 11 25 27
f 11 27 12
f 11 23 26
f 11 26 38
f 11 38 24
f 13 27 28
f 13 28 29
f 13 29 14
f 14 29 30
f 14 30 31
f 15 31 32
f 15 32 16
f 16 32 48
f 16 48 33
f 16 33 17
f 17 33 34
f 17 34 35
f 17 35 36
f 17 36 18
f 22 37 52
f 22 52 51
f 22 51 50
f 22 50 60
f 22 60 68
f 22 68 73
f 22 73 72
f 22 72 71
f 22 71 69
f 22 69 64
f 22 64 63
f 22 63 61
f 22 61 53
f 22 53 39
f 22 39 42
f 22 42 26
f 22 26 23
f 24 38 39
f 24 39 40
f 24 40 25
f 25 40 41
f 25 41 27
f 26 42 38
f 27 41 28
f 28 41 43
f 28 43 44
f 28 44 45
f 28 45 29
f 29 45 46
f 29 46 30
f 30 46 47
f 30 47 32
f 30 32 31
f 32 47 48
f 33 48 49
f 33 49 59
f 33 59 50
f 33 50 51
f 33 51 34
f 34 51 52
f 34 52 35
f 38 42 39
f 39 53 40
f 40 54 43
f 40 43 41
f 40 53 61
f 40 61 54
f 43 54 55
f 43 55 44
f 44 55 56
f 44 56 45
f 45 56 46
f 46 56 57
f 46 57 47
f 47 57 58
f 47 58 48
f 48 58 49
f 49 58 67
f 49 67 59
f 50 59 60
f 54 62 55
f 54 61 63
f 54 63 64
f 54 64 62
f 55 62 56
f 56 62 64
f 56 64 65
f 56 65 66
f 56 66 57
f 57 66 67
f 57 67 58
f 59 67 68
f 59 68 60
f 64 69 65
f 65 69 70
f 65 70 66
f 66 70 71
f 66 71 72
f 66 72 73
f 66 73 67
f 67 73 68
f 69 71 70

