# https://github.com/mikedh/trimesh
v -26.41125282 -45.56672621 42.47922116
v -27.62578162 -42.78651330 42.47922116
v -26.41125282 -50.39832840 42.47922116
v -26.41125282 -45.56672621 16.84520025
v -28.16007956 -42.66593458 42.47922116
v -27.62578162 -42.78651330 30.62055318
v -28.33148848 -50.39832840 42.47922116
v -26.41125282 -50.39832840 39.41305163
v -26.41125282 -45.57283226 16.66592331
v -27.62809775 -42.78804055 16.66592331
v -27.62732521 -42.78804055 19.65563584
v -28.22493731 -42.65143161 42.47922116
v -28.22493731 -42.65143161 33.61290275
v -27.62732521 -42.78727692 22.64798542
v -28.22493731 -42.65295887 20.65220570
v -28.22493731 -42.65219524 26.63426930
v -32.21211110 -50.39756180 42.47922116
v -32.21211110 -50.39756180 16.66592331
v -26.41125282 -50.39756180 16.66592331
v -26.41125282 -45.68119889 16.10172656
v -27.66052663 -42.81627691 16.08327175
v -28.22493731 -42.65372249 16.66592331
v -29.11440779 -42.60716801 42.47922116
v -29.22173150 -42.60258922 16.66592331
v -32.31866226 -50.39069807 42.47922116
v -33.20890528 -50.33040426 19.65563584
v -33.20890528 -50.32964360 16.66592331
v -33.20890528 -50.09000747 15.90135777
v -32.21211110 -50.12358921 15.87235630
v -26.41125282 -50.34871941 16.52091893
v -33.20890528 -50.33269217 36.60261603
v -33.20890528 -50.33193151 30.62055318
v -26.41125282 -45.72012305 15.97517699
v -28.22493731 -42.76285573 16.00681401
v -26.41125282 -46.23754693 15.71944379
v -26.41125282 -46.36118015 15.66407789
v -28.22493731 -43.36957043 15.73262601
v -29.22173150 -42.60258922 42.47922116
v -29.22173150 -42.73690728 15.97254144
v -32.21211110 -42.60258922 16.66592331
v -33.20890528 -50.33269217 42.47922116
v -33.91769934 -50.05719233 25.63769796
v -33.92001696 -50.05795298 33.61290275
v -33.91924442 -50.05795298 31.61712452
v -33.91538469 -50.05566507 16.66592331
v -33.84589466 -49.98698028 16.00945105
v -33.20890528 -49.35126262 15.59289571
v -32.21211110 -49.35126262 15.56125720
v -26.41125282 -49.98392577 15.81435485
v -26.41125282 -50.12358921 15.87235630
v -33.92156204 -50.05795298 41.58810755
v -33.92078950 -50.05795298 36.60261603
v -29.22173150 -43.36957043 15.66144234
v -26.41125282 -47.17700375 15.56653128
v -26.41125282 -47.35711266 15.54543944
v -32.21211110 -42.60258922 42.47922116
v -32.21211110 -42.73690728 15.97254144
v -33.20890528 -42.75217090 15.99363328
v -33.20890528 -42.63388009 16.66592331
v -33.92156204 -50.05795298 42.47922116
v -34.21264640 -49.35126262 23.64455527
v -34.21110131 -49.35126262 18.65906450
v -34.21032877 -49.35126262 16.66592331
v -33.95862318 -49.35126262 15.89608518
v -34.00263125 -48.35456945 15.86181112
v -33.20890528 -48.35456945 15.55334906
v -32.21211110 -48.35456945 15.54543944
v -26.41125282 -49.35126262 15.56125720
v -34.21650613 -49.35126262 38.59575797
v -34.21496105 -49.35126262 32.61369586
v -29.22173150 -44.36703020 15.58762163
v -30.21852569 -44.36703020 15.55334906
v -31.21454437 -44.36703020 15.54543944
v -32.21211110 -43.36957043 15.66144234
v -26.41125282 -48.35456945 15.54543944
v -33.20890528 -42.63464371 37.59918737
v -33.10158158 -42.63159218 42.47922116
v -33.20890528 -42.63388009 28.63004753
v -33.20890528 -43.36957043 15.68516973
v -33.79416416 -42.80254054 16.06481546
v -33.83739969 -42.76819814 16.66592331
v -34.21650613 -49.35126262 42.47922116
v -34.29757831 -48.35456945 16.66592331
v -34.00263125 -44.36703020 15.86181112
v -33.20890528 -44.36703020 15.55334906
v -32.21211110 -44.36703020 15.54543944
v -34.29835085 -48.35456945 28.63004753
v -33.83663012 -42.76972243 42.47922116
v -33.20890528 -42.63540734 42.47922116
v -33.83739969 -42.76819814 25.63769796
v -33.92001696 -43.36957043 15.93826738
v -34.13311929 -43.36957043 16.66592331
v -34.28908334 -48.46141181 42.47922116
v -34.29835085 -48.35456945 30.62055318
v -34.29757831 -44.36703020 16.66592331
v -34.29835085 -46.36118015 41.58810755
v -33.83739969 -42.76896177 31.61712452
v -34.13234675 -43.36957043 37.59918737
v -34.13157421 -43.36957043 42.47922116
v -34.13311929 -43.36957043 24.64112662
v -34.29757831 -48.35456945 42.47922116
v -34.29835085 -47.46395502 42.47922116
v -34.29757831 -44.36703020 42.47922116
v -34.29835085 -46.36118015 42.47922116
f 1 2 5
f 1 5 12
f 1 12 23
f 1 23 38
f 1 38 56
f 1 56 77
f 1 77 89
f 1 89 88
f 1 88 99
f 1 99 103
f 1 103 104
f 1 104 102
f 1 102 101
f 1 101 93
f 1 93 82
f 1 82 60
f 1 60 41
f 1 41 25
f 1 25 17
f 1 17 7
f 1 7 3
f 1 3 8
f 1 8 19
f 1 19 30
f 1 30 50
f 1 50 49
f 1 49 68
f 1 68 75
f 1 75 55
f 1 55 54
f 1 54 36
f 1 36 35
f 1 35 33
f 1 33 20
f 1 20 9
f 1 9 4
f 1 4 6
f 1 6 2
f 2 6 5
f 3 7 8
f 4 9 10
f 4 10 11
f 4 11 6
f 5 6 13
f 5 13 12
f 6 11 10
f 6 10 14
f 6 14 15
f 6 15 16
f 6 16 13
f 7 17 18
f 7 18 8
f 8 18 19
f 9 20 21
f 9 21 10
f 10 21 22
f 10 22 15
f 10 15 14
f 12 13 23
f 13 16 24
f 13 24 23
f 15 22 24
f 15 24 16
f 17 25 18
f 18 26 27
f 18 27 28
f 18 28 29
f 18 29 30
f 18 30 19
f 18 25 31
f 18 31 32
f 18 32 26
f 20 33 21
f 21 34 22
f 21 33 35
f 21 35 36
f 21 36 37
f 21 37 34
f 22 34 24
f 23 24 38
f 24 34 39
f 24 39 57
f 24 57 40
f 24 40 56
f 24 56 38
f 25 41 31
f 26 42 27
f 26 32 43
f 26 43 44
f 26 44 42
f 27 45 46
f 27 46 28
f 27 42 45
f 28 46 47
f 28 47 29
f 29 47 48
f 29 48 49
f 29 49 50
f 29 50 30
f 31 41 60
f 31 60 51
f 31 51 52
f 31 52 43
f 31 43 32
f 34 37 53
f 34 53 39
f 36 54 37
f 37 54 55
f 37 55 53
f 39 53 74
f 39 74 57
f 40 57 58
f 40 58 59
f 40 59 78
f 40 78 56
f 42 44 43
f 42 43 45
f 43 52 70
f 43 70 61
f 43 61 62
f 43 62 45
f 45 62 63
f 45 63 46
f 46 63 64
f 46 64 47
f 47 64 65
f 47 65 66
f 47 66 48
f 48 66 67
f 48 67 75
f 48 75 68
f 48 68 49
f 51 60 82
f 51 82 69
f 51 69 52
f 52 69 70
f 53 71 72
f 53 72 73
f 53 73 86
f 53 86 74
f 53 55 71
f 55 75 67
f 55 67 86
f 55 86 73
f 55 73 72
f 55 72 71
f 56 76 77
f 56 78 76
f 57 74 79
f 57 79 58
f 58 80 59
f 58 79 80
f 59 80 81
f 59 81 90
f 59 90 78
f 61 83 62
f 61 70 83
f 62 83 63
f 63 83 64
f 64 83 65
f 65 84 85
f 65 85 66
f 65 83 95
f 65 95 84
f 66 85 86
f 66 86 67
f 69 82 94
f 69 94 87
f 69 87 83
f 69 83 70
f 74 86 85
f 74 85 79
f 76 88 89
f 76 89 77
f 76 78 90
f 76 90 88
f 79 85 91
f 79 91 80
f 80 91 92
f 80 92 81
f 81 92 100
f 81 100 90
f 82 93 94
f 83 87 95
f 84 95 91
f 84 91 85
f 87 96 95
f 87 94 102
f 87 102 104
f 87 104 96
f 88 97 98
f 88 98 99
f 88 90 97
f 90 100 98
f 90 98 97
f 91 95 92
f 92 95 103
f 92 103 100
f 93 101 94
f 94 101 102
f 95 96 104
f 95 104 103
f 98 103 99
f 98 100 103

