# https://github.com/mikedh/trimesh
v -20.16697114 -47.35713049 64.64214022
v -30.21773829 -44.36704802 64.63563305
v -31.21506732 -44.36704802 64.64214022
v -26.23118254 -48.35458728 64.64214022
v -20.16697114 -48.35458728 64.63997116
v -20.16697114 -46.36119798 64.52065228
v -29.22040629 -43.36959123 64.52716093
v -32.21101468 -44.36704802 64.64214022
v -32.21101468 -48.35458728 64.64214022
v -20.16697114 -49.35128045 64.62695386
v -20.16697114 -46.31006768 64.49678820
v -28.22307727 -42.76211290 64.18222010
v -28.22307727 -43.36959123 64.45773777
v -29.22040629 -42.73692808 64.21693094
v -32.21101468 -43.36959123 64.52716093
v -33.20834668 -44.36704802 64.63563305
v -33.20834668 -48.35458728 64.63563305
v -32.21101468 -49.35128045 64.62695386
v -20.16697114 -50.12360110 64.31672535
v -20.16697114 -45.73234999 64.21259283
v -27.65870670 -42.81553408 64.10412220
v -28.22307727 -42.65297967 63.52271414
v -29.22040629 -42.60261002 63.52271414
v -32.21101468 -42.73692808 64.21693094
v -33.20834668 -43.36959123 64.49895875
v -33.91795784 -43.36959123 64.24730367
v -34.00233709 -44.36704802 64.32540306
v -33.20834668 -49.35128045 64.59441207
v -34.00233709 -48.35458728 64.32540306
v -32.21101468 -50.12360110 64.31672535
v -20.16697114 -50.37544931 63.58779622
v -20.16697114 -45.72166516 64.15618846
v -20.16697114 -45.60185007 63.52271414
v -27.62550826 -42.78729772 63.52271414
v -28.22307727 -42.65221604 58.53735856
v -32.21101468 -42.60261002 63.52271414
v -28.22307727 -42.65145241 44.58140051
v -29.22040629 -42.60184937 42.47922116
v -33.20834668 -42.75447961 64.19306835
v -33.79208127 -42.80484925 64.11930707
v -34.12959532 -43.36959123 63.52271414
v -34.29697217 -44.36704802 63.52271414
v -33.96083978 -49.35128045 64.29286276
v -33.84879466 -49.98623151 64.18005104
v -33.20834668 -50.08925870 64.28852316
v -34.29697217 -48.35458728 63.52271414
v -32.21101468 -50.39757963 63.52271414
v -20.16697114 -50.39757963 63.52271414
v -27.62550826 -42.78653410 53.55417204
v -20.16697114 -45.60185007 42.47922116
v -27.62412511 -42.78653410 45.57933940
v -33.20834668 -42.63619177 56.54364984
v -33.20834668 -42.63695242 63.52271414
v -32.21101468 -42.60261002 42.47922116
v -33.10183414 -42.63161001 42.47922116
v -33.20834668 -42.63542814 47.57304737
v -28.22307727 -42.65145241 42.47922116
v -33.83496322 -42.77203410 63.52271414
v -34.13097995 -43.36959123 60.53106579
v -34.14896231 -43.47719722 42.47922116
v -34.29697217 -44.36704802 42.47922116
v -34.21535920 -49.35128045 63.52271414
v -33.92072413 -50.05491630 63.52271414
v -33.20834668 -50.32889483 63.52271414
v -34.21674383 -49.35128045 55.54571170
v -34.29697217 -48.35458728 42.47922116
v -34.28867330 -48.46142964 42.47922116
v -33.20834668 -50.32965549 60.53106579
v -33.20834668 -50.33118274 52.55840295
v -33.20834668 -50.33194934 48.56881720
v -33.20834668 -50.33270999 42.58769254
v -32.31890888 -50.39070996 42.47922116
v -32.21101468 -50.39757963 42.47922116
v -20.16697114 -50.39757963 42.47922116
v -27.62412511 -42.78653410 42.47922116
v -33.83496322 -42.77127048 62.52477451
v -33.83634487 -42.76974322 44.58140051
v -33.20834668 -42.63542814 42.47922116
v -33.76856633 -42.75524323 42.47922116
v -33.83634487 -42.77050685 49.56675609
v -34.13097995 -43.36959123 42.47922116
v -33.92072413 -50.05797081 47.57304737
v -34.21674383 -49.35128045 42.47922116
v -33.20834668 -50.33270999 42.47922116
v -33.83634487 -42.76974322 42.47922116
v -33.92072413 -50.05797081 42.47922116
f 1 2 3
f 1 3 8
f 1 8 9
f 1 9 4
f 1 4 5
f 1 5 10
f 1 10 19
f 1 19 31
f 1 31 48
f 1 48 74
f 1 74 50
f 1 50 33
f 1 33 32
f 1 32 20
f 1 20 11
f 1 11 6
f 1 6 7
f 1 7 2
f 2 7 3
f 3 7 15
f 3 15 8
f 4 9 18
f 4 18 10
f 4 10 5
f 6 11 12
f 6 12 13
f 6 13 7
f 7 13 12
f 7 12 14
f 7 14 24
f 7 24 15
f 8 15 16
f 8 16 17
f 8 17 9
f 9 17 18
f 10 18 30
f 10 30 19
f 11 20 12
f 12 21 22
f 12 22 23
f 12 23 14
f 12 20 21
f 14 23 36
f 14 36 24
f 15 24 25
f 15 25 16
f 16 25 26
f 16 26 27
f 16 27 29
f 16 29 17
f 17 28 18
f 17 29 28
f 18 28 30
f 19 30 31
f 20 32 21
f 21 32 33
f 21 33 34
f 21 34 22
f 22 34 35
f 22 35 23
f 23 35 37
f 23 37 38
f 23 38 36
f 24 39 25
f 24 36 39
f 25 39 40
f 25 40 26
f 26 40 41
f 26 41 42
f 26 42 27
f 27 42 46
f 27 46 29
f 28 29 43
f 28 43 44
f 28 44 45
f 28 45 30
f 29 46 43
f 30 45 47
f 30 47 31
f 31 47 48
f 33 49 34
f 33 50 75
f 33 75 51
f 33 51 49
f 34 49 35
f 35 49 37
f 36 52 53
f 36 53 39
f 36 38 54
f 36 54 55
f 36 55 56
f 36 56 52
f 37 51 75
f 37 75 57
f 37 57 38
f 37 49 51
f 38 57 75
f 38 75 50
f 38 50 74
f 38 74 73
f 38 73 72
f 38 72 84
f 38 84 86
f 38 86 83
f 38 83 67
f 38 67 66
f 38 66 61
f 38 61 60
f 38 60 81
f 38 81 85
f 38 85 79
f 38 79 78
f 38 78 55
f 38 55 54
f 39 53 40
f 40 53 58
f 40 58 41
f 41 58 59
f 41 59 42
f 42 59 60
f 42 60 61
f 42 61 66
f 42 66 46
f 43 46 62
f 43 62 44
f 44 62 63
f 44 63 64
f 44 64 45
f 45 64 47
f 46 65 62
f 46 66 67
f 46 67 65
f 47 64 68
f 47 68 69
f 47 69 70
f 47 70 71
f 47 71 72
f 47 72 73
f 47 73 74
f 47 74 48
f 52 76 53
f 52 56 77
f 52 77 76
f 53 76 58
f 55 78 56
f 56 78 79
f 56 79 77
f 58 76 59
f 59 76 80
f 59 80 77
f 59 77 85
f 59 85 81
f 59 81 60
f 62 65 63
f 63 68 64
f 63 65 82
f 63 82 69
f 63 69 68
f 65 67 83
f 65 83 86
f 65 86 82
f 69 82 70
f 70 82 71
f 71 82 86
f 71 86 84
f 71 84 72
f 76 77 80
f 77 79 85

