# https://github.com/mikedh/trimesh
v -1.30355783 30.77154833 64.64145979
v -1.81809071 30.77154833 64.44493885
v -2.11976213 26.41645509 64.32948415
v -1.30426259 6.48329451 64.63900252
v -0.30902889 5.48663700 64.62426333
v -0.30832413 26.41645509 64.62426333
v -0.30832413 30.77154833 64.62426333
v 2.33975854 30.77456718 42.48134119
v -2.44751263 30.77456718 42.48134119
v -2.11976213 30.77154833 64.32948415
v -3.68168680 -0.07350656 62.63695185
v -2.12046698 6.48329451 64.32702688
v -1.30426259 5.48663700 64.62180755
v -0.30902889 4.62286612 64.32211382
v 0.68831908 4.71649209 64.21648524
v 0.68831908 5.48663700 64.41546197
v 0.68831908 7.47995276 64.41791776
v 0.68831908 7.68532449 64.41791776
v 0.68690956 28.40977308 64.41791776
v 0.68690956 30.77154833 64.41546197
v 0.91809714 30.77154833 64.30737464
v 1.31210247 30.77154833 64.12068130
v 1.80689982 30.77154833 63.51883658
v 2.18046477 30.77154833 63.00788421
v 2.89869644 30.77154833 59.69160542
v 2.89869644 30.77154833 44.46373962
v 2.31931816 30.77456718 42.25043031
v -2.44680769 30.77154833 62.52395294
v -2.44539799 30.77154833 62.89242803
v -2.44187383 30.77154833 63.51883658
v -2.44751263 30.77456718 41.58963109
v -4.30194585 24.59226999 42.48134119
v -3.68098204 23.42346074 62.53623633
v -3.68098204 23.04291916 62.58045239
v -3.68098204 22.42680323 62.63204027
v -3.68098204 22.04626165 62.63695185
v -3.68168680 7.68532449 62.63695185
v -4.30194585 2.56612626 42.48134119
v -3.68168680 -0.07350656 42.48134119
v -3.29825413 -0.07350656 62.63695185
v -2.10496055 5.48663700 64.31228770
v 1.25289578 4.86750073 64.08383409
v -2.28398976 -0.07350656 62.34462845
v 1.28672823 5.48663700 64.11822403
v 1.30998764 10.47596670 64.11576676
v 1.31210247 26.41645509 64.12068130
v 1.80760477 26.41645509 63.51883658
v 2.18046477 26.41645509 63.01034149
v 2.18116971 11.47262570 63.01771033
v 2.18116971 23.42346074 63.01034149
v 2.89869644 19.46401076 59.70143154
v 2.89869644 27.41311260 44.45882656
v 2.16354836 30.77456718 41.17939498
v 2.22839385 30.77456718 41.49382715
v 2.26575027 30.77456718 41.67806469
v -3.68098204 25.13590082 60.76018348
v -3.68098204 25.03019350 61.16796306
v -3.68098204 24.89428580 61.35957094
v -3.68098204 24.64059240 61.66908930
v -3.68098204 24.45032161 61.89263282
v -3.68098204 24.13924331 62.22671648
v -3.68098204 23.87044675 62.34708573
v -2.43623521 30.77456718 40.96322254
v -2.42918671 30.77456718 40.59474671
v -4.30194585 24.09696009 41.93599740
v -4.30194585 2.56612626 41.65350013
v -1.63694695 -0.07350656 42.48134119
v -4.30124090 2.56612626 41.54541354
v -2.00557813 4.74669396 39.91183871
v -1.30426259 4.62890679 39.82094857
v -1.91747313 -0.07350656 62.15056479
v -1.76804717 -0.07350656 62.06458697
v 1.25360035 -0.07350656 60.12640609
v 1.46787190 5.48663700 63.51883658
v 2.18116971 10.47596670 63.01771033
v 1.80760477 10.47596670 63.51638079
v 2.89869644 18.44319056 59.70143154
v 2.89869644 13.46594071 44.45637003
v 1.75051253 30.40610695 40.59474671
v 1.75051253 30.77456718 40.59474671
v 2.89869644 11.47262570 44.45637003
v 2.16213884 18.44319056 41.18676383
v 1.74487373 10.47294711 40.59474671
v 1.74557868 12.46626287 40.59474671
v -2.10707501 30.77456718 39.82094857
v -4.30194585 23.42648107 41.66332551
v -4.30194585 3.49030016 41.54541354
v -0.30902889 4.63494746 39.83077395
v 0.68831908 4.74971356 39.93394748
v 1.23245540 4.90676288 40.05185945
v 1.25148627 -0.07350656 43.99454753
v -2.10637016 5.48663700 39.82094857
v -1.30426259 5.48663700 39.54827667
v 1.28743280 -0.07350656 59.87829875
v 2.89869644 9.41588510 59.47543224
v 2.89869644 10.47596670 59.68423509
v 2.89869644 11.47262570 59.69406121
v 1.27122170 19.43984955 40.02975067
v 1.27263122 30.40610695 40.02975067
v 1.26981182 10.47294711 40.02975067
v 1.27263122 30.77456718 40.02975067
v 2.89869644 10.43368496 44.46865268
v 2.16002438 10.47294711 41.19167689
v 2.16072933 11.46960536 41.19167689
v 1.25571518 5.48663700 40.03220721
v -1.60100014 30.77456718 39.64899293
v -1.30426259 19.43984955 39.54581940
v -2.10707501 18.44319056 39.82094857
v -4.30194585 22.42982357 41.54541354
v -0.30902889 5.48663700 39.56301586
v 0.68831908 5.48663700 39.77427449
v 2.23826157 9.76924662 41.82299849
v 1.43544896 5.48663700 40.59474671
v 1.32831356 -0.07350656 44.58165159
v 2.89869644 9.47024818 44.66762941
v 2.89869644 9.35548209 44.78554138
v -1.30426259 10.47294711 39.54581940
v 1.33254285 -0.07350656 59.53193318
v 2.89869644 9.00212131 58.93745730
v 0.68831908 30.77456718 39.76690490
v -1.30426259 30.77456718 39.54827667
v -0.30902889 30.77456718 39.56055858
v -0.30902889 22.42982357 39.56055858
v 1.33677177 -0.07350656 47.57367283
v 2.89869644 9.19843277 45.05330095
v 2.89869644 9.00212131 45.47827550
v 2.89869644 8.90849608 45.71901324
v 2.89869644 8.88433487 46.57878920
v 2.89869644 8.88433487 57.53479409
v 2.89869644 8.90547574 58.42404915
f 1 2 3
f 1 3 4
f 1 4 5
f 1 5 6
f 1 6 7
f 1 7 8
f 1 8 9
f 1 9 2
f 2 10 3
f 2 9 10
f 3 10 37
f 3 37 11
f 3 11 12
f 3 12 4
f 4 12 13
f 4 13 5
f 5 13 14
f 5 14 15
f 5 15 16
f 5 16 17
f 5 17 6
f 6 17 18
f 6 18 7
f 7 18 19
f 7 19 20
f 7 20 8
f 8 20 21
f 8 21 22
f 8 22 23
f 8 23 24
f 8 24 25
f 8 25 26
f 8 26 27
f 8 27 55
f 8 55 54
f 8 54 53
f 8 53 80
f 8 80 101
f 8 101 120
f 8 120 122
f 8 122 121
f 8 121 106
f 8 106 85
f 8 85 64
f 8 64 63
f 8 63 31
f 8 31 9
f 9 28 29
f 9 29 30
f 9 30 10
f 9 31 32
f 9 32 28
f 10 30 33
f 10 33 34
f 10 34 35
f 10 35 36
f 10 36 37
f 11 38 66
f 11 66 39
f 11 39 67
f 11 67 91
f 11 91 114
f 11 114 124
f 11 124 118
f 11 118 94
f 11 94 73
f 11 73 72
f 11 72 71
f 11 71 43
f 11 43 40
f 11 40 14
f 11 14 13
f 11 13 41
f 11 41 12
f 11 37 32
f 11 32 38
f 12 41 13
f 14 40 15
f 15 42 16
f 15 40 43
f 15 43 42
f 16 44 45
f 16 45 17
f 16 42 44
f 17 45 46
f 17 46 22
f 17 22 18
f 18 22 19
f 19 22 21
f 19 21 20
f 22 46 47
f 22 47 23
f 23 48 24
f 23 47 49
f 23 49 48
f 24 48 49
f 24 49 50
f 24 50 51
f 24 51 25
f 25 51 77
f 25 77 97
f 25 97 96
f 25 96 95
f 25 95 119
f 25 119 130
f 25 130 129
f 25 129 128
f 25 128 127
f 25 127 126
f 25 126 125
f 25 125 116
f 25 116 115
f 25 115 102
f 25 102 81
f 25 81 78
f 25 78 52
f 25 52 26
f 26 52 53
f 26 53 54
f 26 54 55
f 26 55 27
f 28 32 29
f 29 32 30
f 30 32 56
f 30 56 57
f 30 57 58
f 30 58 59
f 30 59 60
f 30 60 61
f 30 61 62
f 30 62 33
f 31 63 32
f 32 36 35
f 32 35 34
f 32 34 33
f 32 33 62
f 32 62 61
f 32 61 60
f 32 60 59
f 32 59 58
f 32 58 57
f 32 57 56
f 32 63 64
f 32 64 65
f 32 65 86
f 32 86 109
f 32 109 87
f 32 87 66
f 32 66 38
f 32 37 36
f 39 66 68
f 39 68 69
f 39 69 70
f 39 70 67
f 42 43 71
f 42 71 72
f 42 72 73
f 42 73 74
f 42 74 75
f 42 75 44
f 44 75 76
f 44 76 45
f 45 76 46
f 46 76 47
f 47 76 75
f 47 75 49
f 49 75 77
f 49 77 51
f 49 51 50
f 52 78 53
f 53 79 80
f 53 78 81
f 53 81 82
f 53 82 83
f 53 83 84
f 53 84 79
f 64 85 65
f 65 85 86
f 66 87 68
f 67 70 88
f 67 88 89
f 67 89 90
f 67 90 91
f 68 87 92
f 68 92 69
f 69 92 93
f 69 93 70
f 70 93 88
f 73 94 95
f 73 95 74
f 74 95 75
f 75 96 97
f 75 97 77
f 75 95 96
f 79 98 99
f 79 99 101
f 79 101 80
f 79 84 100
f 79 100 98
f 81 102 103
f 81 103 104
f 81 104 82
f 82 104 83
f 83 100 84
f 83 104 103
f 83 103 105
f 83 105 100
f 85 106 107
f 85 107 117
f 85 117 108
f 85 108 87
f 85 87 109
f 85 109 86
f 87 108 92
f 88 93 110
f 88 110 89
f 89 110 111
f 89 111 90
f 90 111 105
f 90 105 103
f 90 103 112
f 90 112 113
f 90 113 91
f 91 113 115
f 91 115 116
f 91 116 114
f 92 117 93
f 92 108 117
f 93 117 110
f 94 118 95
f 95 118 119
f 98 120 99
f 98 100 120
f 99 120 101
f 100 105 111
f 100 111 120
f 102 115 103
f 103 115 112
f 106 121 107
f 107 121 122
f 107 122 123
f 107 123 117
f 110 117 123
f 110 123 120
f 110 120 111
f 112 115 113
f 114 116 125
f 114 125 126
f 114 126 127
f 114 127 128
f 114 128 124
f 118 124 129
f 118 129 130
f 118 130 119
f 120 123 122
f 124 128 129

