# https://github.com/mikedh/trimesh
v -4.05695356 -42.53324183 40.58425297
v -3.80719529 -42.53324183 39.59558870
v -4.05695356 -42.53324183 42.35784669
v -4.05695356 -33.08810782 39.07308031
v -3.29891525 -42.53324183 39.08008276
v -3.27638084 -42.53324183 42.47888726
v -4.05695356 -42.53019921 42.47888726
v -3.82159240 -33.13072235 39.07308031
v -4.05695356 -11.94538053 39.07308031
v -2.40692157 -42.53324183 39.09842224
v -2.76997866 -33.23421307 39.07308031
v -2.37061588 -33.20073235 39.07308031
v -2.13149899 -33.08506520 39.07308031
v -1.85983214 -32.85981913 39.07308031
v -1.51868362 -32.56456305 39.07308031
v -1.42353764 -32.41236959 39.07308031
v 0.58767339 -26.48595268 39.07308031
v 0.76106454 -25.93196684 39.07308031
v 2.33598126 -42.53324183 42.47888726
v -4.05695356 -11.85406476 42.47888726
v -4.05695356 -11.90276601 39.59558870
v -3.12364642 -11.43705481 40.59258912
v -2.36998995 -11.43705481 39.56791271
v -2.55339637 -11.71404624 39.07308031
v 0.68845316 -42.53324183 39.76531214
v 0.79298866 -25.42364111 39.07308031
v 1.26809254 -42.53324183 40.03073436
v 0.78172145 -42.53324183 39.80799315
v 2.26399571 -42.53324183 41.73030329
v 2.25773628 -18.44708906 41.58925614
v 2.33660709 -40.37818059 42.47888726
v -3.13804353 -11.43705481 42.47888726
v -4.05695356 -11.85406476 42.26548241
v -4.05695356 -11.86319559 40.59258912
v -3.13178391 -11.43705481 41.58925614
v -1.30460512 -11.43705481 39.51089365
v -0.30807603 -11.43705481 39.55857630
v -1.44482030 -12.55719846 39.07308031
v 0.81239354 -24.90313896 39.07308031
v 1.73130339 -42.53324183 40.59258912
v 2.14944504 -42.53324183 41.23180313
v 2.18575073 -18.95237217 41.08842174
v 2.18575073 -18.44708906 41.08875518
v 2.25210230 -11.43705481 41.65594515
v 2.32346202 -13.34860532 42.47888726
v 2.33222553 -19.33589991 42.47888726
v 2.33660709 -27.29257711 42.47888726
v 2.33723330 -29.28631405 42.47888726
v 2.33785913 -31.40484898 42.47888726
v 2.33723330 -36.38766408 42.47888726
v 2.32033212 -11.43705481 42.47888726
v -3.13741751 -11.43705481 42.31583274
v 0.66028477 -11.43705481 39.75564229
v 0.68845316 -11.43705481 39.76164424
v 0.60332253 -18.50796674 39.07308031
v 0.79987393 -19.44243474 39.07308031
v 1.79890700 -42.53324183 40.69562360
v 2.18449869 -17.84744607 41.09008902
v 2.17135362 -11.43705481 41.15744489
v 2.31845425 -11.43705481 42.45587948
v 2.18324666 -17.18083868 41.09609097
v 1.25494747 -11.43705481 40.01572934
v 1.27122245 -11.43705481 40.02306509
v 1.74319643 -11.43705481 40.57625030
v 1.75696771 -11.43705481 40.59258912
v 2.15946058 -11.43705481 41.14110603
f 1 2 5
f 1 5 10
f 1 10 25
f 1 25 28
f 1 28 27
f 1 27 40
f 1 40 57
f 1 57 41
f 1 41 29
f 1 29 19
f 1 19 6
f 1 6 3
f 1 3 7
f 1 7 20
f 1 20 33
f 1 33 34
f 1 34 21
f 1 21 9
f 1 9 4
f 1 4 2
f 2 4 5
f 3 6 7
f 4 8 5
f 4 9 24
f 4 24 38
f 4 38 55
f 4 55 56
f 4 56 39
f 4 39 26
f 4 26 18
f 4 18 17
f 4 17 16
f 4 16 15
f 4 15 14
f 4 14 13
f 4 13 12
f 4 12 11
f 4 11 8
f 5 8 11
f 5 11 12
f 5 12 13
f 5 13 14
f 5 14 15
f 5 15 16
f 5 16 17
f 5 17 18
f 5 18 10
f 6 19 31
f 6 31 50
f 6 50 49
f 6 49 48
f 6 48 47
f 6 47 46
f 6 46 45
f 6 45 51
f 6 51 32
f 6 32 20
f 6 20 7
f 9 21 22
f 9 22 23
f 9 23 24
f 10 18 25
f 18 26 27
f 18 27 28
f 18 28 25
f 19 29 30
f 19 30 31
f 20 32 33
f 21 34 22
f 22 35 52
f 22 52 32
f 22 32 51
f 22 51 60
f 22 60 44
f 22 44 59
f 22 59 66
f 22 66 65
f 22 65 64
f 22 64 63
f 22 63 62
f 22 62 54
f 22 54 53
f 22 53 37
f 22 37 36
f 22 36 23
f 22 34 33
f 22 33 35
f 23 36 24
f 24 36 37
f 24 37 38
f 26 39 27
f 27 39 40
f 29 41 42
f 29 42 30
f 30 42 43
f 30 43 44
f 30 44 45
f 30 45 46
f 30 46 47
f 30 47 48
f 30 48 49
f 30 49 50
f 30 50 31
f 32 52 33
f 33 52 35
f 37 53 38
f 38 53 54
f 38 54 55
f 39 56 43
f 39 43 42
f 39 42 40
f 40 42 57
f 41 57 42
f 43 56 58
f 43 58 44
f 44 60 45
f 44 58 61
f 44 61 59
f 45 60 51
f 54 62 56
f 54 56 55
f 56 62 63
f 56 63 64
f 56 64 65
f 56 65 66
f 56 66 59
f 56 59 61
f 56 61 58

