# https://github.com/mikedh/trimesh
v -25.71844590 -6.47715816 42.47912905
v -25.71215712 -6.47715816 42.37007159
v -25.70796461 -6.93218304 42.47912905
v -25.71634964 22.61765640 42.47912905
v -25.71215712 22.43029155 42.37034643
v -25.21322074 -7.47419748 41.81663488
v -25.50880960 -8.47123680 42.47912905
v -25.21322074 22.43029155 41.81663488
v -25.61572327 23.44740652 42.47912905
v -25.61153075 23.42733236 42.45788530
v -25.11469211 23.42733236 41.87551305
v -24.23421726 -7.47419748 41.54550212
v -25.09792055 -8.47123680 41.88439522
v -25.45849641 -8.58164770 42.47912905
v -24.23421726 22.43029155 41.54550212
v -25.12098088 24.23700831 42.47912905
v -24.92182588 24.03960935 41.98557779
v -24.23421726 23.42733236 41.66316692
v -4.30194659 -5.48011883 41.54376242
v -4.30194659 -6.47715816 41.54431174
v -6.29140039 -7.47419748 41.54550212
v -24.23421726 -8.47123680 41.68093126
v -24.90086180 -9.07012953 41.99739005
v -25.02664329 -9.33109967 42.47912905
v -4.30194659 22.43698591 41.54595998
v -4.30194659 22.43029155 41.54522746
v -4.30194659 -5.47677314 41.54376242
v -24.23421726 24.59500657 42.47912905
v -24.23421726 24.09648616 41.93439123
v -4.30194659 23.42733236 41.66307536
v -4.30194659 -7.47419748 41.54605163
v -6.29140039 -8.47123680 41.68120592
v -7.28717542 -8.47123680 41.68093126
v -24.23421726 -9.12031644 41.95206383
v -24.28452897 -9.57868702 42.47912905
v -4.30194659 24.59500657 42.47912905
v -4.30194659 24.09648616 41.93439123
v -4.30194659 -8.46789111 41.68340358
v -5.29352910 -8.47123680 41.68267096
v -6.29140039 -9.12031644 41.95243023
v -7.28717542 -9.12031644 41.95206383
v -24.23421726 -9.58537841 42.47912905
v -4.30194659 -9.45154765 42.47912905
v -4.30194659 -8.47123680 41.68422756
v -4.30194659 -9.11697074 41.95453615
v -4.36693433 -9.58203272 42.47912905
v -7.28717542 -9.58537841 42.47912905
v -4.30194659 -9.57868702 42.47610742
f 1 2 3
f 1 3 7
f 1 7 14
f 1 14 24
f 1 24 35
f 1 35 42
f 1 42 47
f 1 47 46
f 1 46 43
f 1 43 36
f 1 36 28
f 1 28 16
f 1 16 9
f 1 9 4
f 1 4 5
f 1 5 2
f 2 6 7
f 2 7 3
f 2 5 8
f 2 8 6
f 4 9 5
f 5 9 10
f 5 10 11
f 5 11 8
f 6 12 13
f 6 13 7
f 6 8 15
f 6 15 12
f 7 13 14
f 8 11 15
f 9 16 17
f 9 17 10
f 10 17 11
f 11 17 18
f 11 18 15
f 12 19 20
f 12 20 21
f 12 21 33
f 12 33 22
f 12 22 13
f 12 15 27
f 12 27 19
f 13 22 23
f 13 23 14
f 14 23 24
f 15 18 25
f 15 25 26
f 15 26 27
f 16 28 17
f 17 28 29
f 17 29 18
f 18 29 30
f 18 30 25
f 19 27 26
f 19 26 25
f 19 25 30
f 19 30 37
f 19 37 36
f 19 36 43
f 19 43 48
f 19 48 45
f 19 45 44
f 19 44 38
f 19 38 31
f 19 31 20
f 20 31 21
f 21 31 32
f 21 32 33
f 22 33 41
f 22 41 34
f 22 34 23
f 23 34 35
f 23 35 24
f 28 36 37
f 28 37 29
f 29 37 30
f 31 38 32
f 32 38 39
f 32 39 40
f 32 40 41
f 32 41 33
f 34 41 47
f 34 47 42
f 34 42 35
f 38 44 39
f 39 44 40
f 40 45 46
f 40 46 47
f 40 47 41
f 40 44 45
f 43 46 48
f 45 48 46

