# https://github.com/mikedh/trimesh
v -1.62524296 48.35497192 64.63732373
v -5.29410479 44.36719199 64.64212833
v -1.62524296 44.36719199 64.63732373
v -1.62524296 49.03298023 64.62771154
v -17.84923812 48.75944146 64.63251615
v -17.84923812 48.35497192 64.63732373
v -17.84923812 47.35744382 64.63732373
v -6.29152742 44.36719199 64.62771154
v -1.62524296 43.37044237 64.61809935
v -1.62524296 49.35172451 64.62290396
v -17.84923812 49.35172451 64.62290396
v -17.84923812 46.76516076 64.57004139
v -7.28736113 43.37044237 64.52678803
v -1.62524296 42.43681525 64.52678803
v -1.62524296 50.12402734 64.31532883
v -17.84923812 50.12402734 64.31532883
v -17.84923812 46.36147268 64.52198343
v -8.02907506 42.78205470 64.15193057
v -7.28736113 42.73685217 64.21440533
v -2.50195761 42.43681525 64.31532883
v -1.62524296 42.43681525 39.44979758
v -1.62524296 50.39835054 63.52236352
v -17.84923812 50.23547522 63.99333691
v -17.84923812 45.73255932 64.20960072
v -17.84923812 45.65462781 63.80110209
v -17.84923812 45.60163450 63.52236352
v -8.15137046 42.73685217 63.52236352
v -7.28736113 42.60203196 63.52236352
v -3.24525971 42.43681525 63.52236352
v -2.49719312 42.43681525 39.32965100
v -3.29926029 42.60281044 16.66520425
v -2.50989918 42.73685217 16.66520425
v -2.01118787 43.36576553 16.66520425
v -1.80312710 43.86608951 16.16539430
v -1.62524296 42.69710793 39.28639825
v -1.62524296 50.39835054 62.52274362
v -17.84923812 50.39835054 63.52236352
v -17.84923812 45.60163450 16.66520425
v -8.13866439 42.73685217 47.56689899
v -7.28736113 42.60281044 16.66520425
v -7.28736113 42.60203196 50.56095187
v -3.33261399 42.43681525 62.52274362
v -3.17855306 42.43681525 39.77659622
v -3.29926029 42.73685217 15.97315947
v -2.60678245 42.78205470 16.03563720
v -2.28595528 43.46785676 15.96354728
v -2.30342658 44.36719199 15.85781917
v -1.80312710 48.86075123 16.16539430
v -1.62524296 45.36472009 38.54629541
v -1.62524296 44.36719199 38.58474231
v -1.62524296 43.60189848 38.77217094
v -9.28220637 50.39835054 62.52274362
v -1.62524296 50.39757205 40.58878695
v -3.29926029 50.39757205 16.66520425
v -17.84923812 50.39757205 16.66520425
v -17.84923812 45.73255932 15.97796408
v -8.00525110 42.78205470 16.03563720
v -8.11484043 42.73763362 16.66520425
v -8.11642897 42.73763362 17.66482415
v -8.13072320 42.73685217 37.60434631
v -8.13389990 42.73685217 41.58840635
v -7.28736113 42.73763362 15.97315947
v -3.31673085 42.43681525 40.57436937
v -3.31831902 42.43681525 40.58878695
v -3.32467242 42.43681525 41.56437709
v -3.33261399 42.43681525 61.49428715
v -7.28736113 43.37044237 15.66077974
v -3.29926029 43.37044237 15.66077974
v -2.30342658 48.35497192 15.85781917
v -3.29926029 44.36719199 15.55024404
v -3.29926029 48.35497192 15.54543646
v -2.22719020 49.25664557 15.92510151
v -2.50989918 50.03284973 15.97315947
v -1.86506851 49.36341364 16.66520425
v -1.62524296 50.14351319 39.63242036
v -1.62524296 49.69696099 39.16625167
v -1.62524296 49.18494787 38.75294750
v -1.62524296 48.99869132 38.70488889
v -1.62524296 48.37991012 38.55110132
v -1.62524296 47.41199409 38.54629541
v -2.36377982 50.12402734 16.66520425
v -3.29926029 50.12402734 15.87223597
v -17.84923812 50.28690859 16.34321233
v -17.84923812 46.36147268 15.66558434
v -17.84923812 47.35744382 15.55024404
v -6.29152742 44.36719199 15.55985623
v -5.29410479 44.36719199 15.55024404
v -3.29926029 49.35172451 15.56466084
v -5.29410479 46.36147268 15.54543646
v -4.29668254 47.35744382 15.54543646
v -5.29410479 48.35497192 15.54543646
v -17.84923812 48.94647649 15.55504865
v -17.84923812 50.12402734 15.87223597
v -17.84923812 48.35497192 15.55024404
v -6.29152742 47.35744382 15.54543646
v -17.84923812 49.35172451 15.56466084
f 1 2 3
f 1 3 9
f 1 9 14
f 1 14 21
f 1 21 35
f 1 35 51
f 1 51 50
f 1 50 49
f 1 49 80
f 1 80 79
f 1 79 78
f 1 78 77
f 1 77 76
f 1 76 75
f 1 75 53
f 1 53 36
f 1 36 22
f 1 22 15
f 1 15 10
f 1 10 4
f 1 4 5
f 1 5 6
f 1 6 2
f 2 6 7
f 2 7 8
f 2 8 9
f 2 9 3
f 4 10 5
f 5 10 11
f 5 11 16
f 5 16 23
f 5 23 37
f 5 37 55
f 5 55 83
f 5 83 93
f 5 93 96
f 5 96 92
f 5 92 94
f 5 94 85
f 5 85 84
f 5 84 56
f 5 56 38
f 5 38 26
f 5 26 25
f 5 25 24
f 5 24 17
f 5 17 12
f 5 12 7
f 5 7 6
f 7 12 13
f 7 13 8
f 8 13 9
f 9 13 14
f 10 15 16
f 10 16 11
f 12 17 13
f 13 17 18
f 13 18 19
f 13 19 14
f 14 19 20
f 14 20 29
f 14 29 42
f 14 42 66
f 14 66 65
f 14 65 64
f 14 64 63
f 14 63 43
f 14 43 30
f 14 30 21
f 15 22 23
f 15 23 16
f 17 24 18
f 18 24 25
f 18 25 26
f 18 26 27
f 18 27 28
f 18 28 19
f 19 28 20
f 20 28 29
f 21 30 31
f 21 31 32
f 21 32 33
f 21 33 34
f 21 34 35
f 22 36 52
f 22 52 37
f 22 37 23
f 26 38 27
f 27 39 40
f 27 40 41
f 27 41 28
f 27 38 39
f 28 42 29
f 28 41 66
f 28 66 42
f 30 43 40
f 30 40 31
f 31 40 44
f 31 44 45
f 31 45 32
f 32 45 33
f 33 45 34
f 34 45 46
f 34 46 47
f 34 47 69
f 34 69 48
f 34 48 80
f 34 80 49
f 34 49 50
f 34 50 51
f 34 51 35
f 36 53 54
f 36 54 55
f 36 55 52
f 37 52 55
f 38 56 57
f 38 57 58
f 38 58 59
f 38 59 60
f 38 60 61
f 38 61 39
f 39 61 40
f 40 60 59
f 40 59 58
f 40 58 57
f 40 57 62
f 40 62 44
f 40 43 63
f 40 63 64
f 40 64 65
f 40 65 41
f 40 61 60
f 41 65 66
f 44 62 67
f 44 67 68
f 44 68 45
f 45 68 46
f 46 68 47
f 47 68 70
f 47 70 71
f 47 71 69
f 48 69 72
f 48 72 73
f 48 73 74
f 48 74 53
f 48 53 75
f 48 75 76
f 48 76 77
f 48 77 78
f 48 78 79
f 48 79 80
f 53 74 81
f 53 81 54
f 54 81 73
f 54 73 82
f 54 82 83
f 54 83 55
f 56 84 57
f 57 84 67
f 57 67 62
f 67 84 85
f 67 85 86
f 67 86 87
f 67 87 70
f 67 70 68
f 69 71 88
f 69 88 72
f 70 87 89
f 70 89 90
f 70 90 71
f 71 90 89
f 71 89 95
f 71 95 91
f 71 91 92
f 71 92 88
f 72 88 73
f 73 88 82
f 73 81 74
f 82 88 96
f 82 96 93
f 82 93 83
f 85 94 95
f 85 95 89
f 85 89 87
f 85 87 86
f 88 92 96
f 91 95 94
f 91 94 92

