# https://github.com/mikedh/trimesh
v 26.60877722 50.39835054 58.53825887
v 26.60877722 50.39258620 45.57840269
v 25.61331715 50.39835054 46.57440577
v 10.66104923 50.39835054 58.53825887
v 26.60877722 50.12372426 59.32589959
v 27.60627561 50.11604046 59.31260001
v 27.60627561 50.37530506 58.53825887
v 27.60627561 50.37530506 45.57840269
v 26.60877722 50.11987939 44.81292942
v 10.66104923 50.39258620 45.57840269
v 27.60627561 50.10835665 44.82770649
v 11.65854317 50.39835054 46.57440577
v 7.97939243 50.39835054 55.54581718
v 9.87686860 50.03153641 59.22984606
v 10.66104923 50.12372426 59.32589959
v 26.60877722 49.35168886 59.62883799
v 27.60627561 49.35168886 59.59928386
v 28.29903647 50.02385854 59.21359003
v 28.38436060 50.10067878 58.53825887
v 28.38842535 50.10259825 45.57840269
v 28.28887756 50.01425527 44.92228254
v 26.60877722 49.35168886 44.54693406
v 10.66104923 50.11987939 44.81292942
v 9.88905691 50.02961694 44.90159405
v 7.97939243 50.39066673 48.56936615
v 7.97939243 50.39835054 49.56684671
v 27.60627561 49.35168886 44.57648968
v 7.91844567 42.43603974 56.65117411
v 7.97939243 50.12372426 56.33641436
v 10.66104923 49.35168886 59.62883799
v 9.73059548 49.35168886 59.33328775
v 26.60877722 48.35496003 59.64213757
v 27.60627561 48.35496003 59.60519379
v 28.39654891 49.35168886 59.30225539
v 28.66674794 49.35168886 58.53825887
v 28.67080972 49.35168886 45.57840269
v 28.38029585 49.35168886 44.84248430
v 26.60877722 38.38574939 44.54545658
v 10.66104923 49.35168886 44.54693406
v 9.75294270 49.35168886 44.81292942
v 7.97939243 50.11795992 47.79798146
v 7.91844567 42.43603974 47.51868726
v 27.60627561 42.43603974 44.57648968
v 27.23653177 30.77872701 44.56466758
v 7.91844567 30.77872701 56.65117411
v 9.72856459 48.35496003 59.33919917
v 7.97939243 49.35168886 56.63935127
v 7.97939243 49.59174988 56.54625419
v 10.66104923 48.35496003 59.64065934
v 25.61128477 34.39883114 59.64213757
v 26.60877722 30.77872701 59.64213757
v 27.60627561 42.43603974 59.60519379
v 27.65706123 42.43603974 59.58598279
v 27.89881888 30.77872701 59.49436245
v 28.39654891 42.43603974 59.30373362
v 28.66878031 34.39883114 58.53825887
v 28.67284209 43.36939349 45.57840269
v 28.38029585 30.77872701 44.84248430
v 26.60877722 30.77872701 44.54545658
v 10.66104923 30.77872701 44.54693406
v 10.60213411 42.43603974 44.56318936
v 9.75294270 30.77872701 44.81292942
v 7.97939243 49.35168886 47.52312046
v 7.91844567 30.77872701 47.51868726
v 27.60424323 30.77872701 44.57648968
v 9.72856459 30.77872701 59.33919917
v 10.66104923 30.77872701 59.64065934
v 25.61128477 30.77872701 59.64213757
v 27.60424323 30.77872701 59.60519379
v 28.39654891 30.77872701 59.30373362
v 28.66878031 30.77872701 58.53825887
v 28.67284209 42.43603974 45.57840269
v 28.67080972 30.77872701 45.57840269
v 10.32584241 30.77872701 44.64446582
f 1 2 3
f 1 3 12
f 1 12 26
f 1 26 13
f 1 13 4
f 1 4 15
f 1 15 5
f 1 5 6
f 1 6 7
f 1 7 8
f 1 8 2
f 2 9 23
f 2 23 10
f 2 10 12
f 2 12 3
f 2 8 11
f 2 11 9
f 4 13 14
f 4 14 15
f 5 15 30
f 5 30 16
f 5 16 6
f 6 16 17
f 6 17 18
f 6 18 7
f 7 18 19
f 7 19 20
f 7 20 8
f 8 20 21
f 8 21 11
f 9 22 39
f 9 39 23
f 9 11 22
f 10 23 24
f 10 24 25
f 10 25 26
f 10 26 12
f 11 27 22
f 11 21 27
f 13 26 42
f 13 42 28
f 13 28 29
f 13 29 14
f 14 30 15
f 14 29 31
f 14 31 30
f 16 30 32
f 16 32 17
f 17 32 33
f 17 33 34
f 17 34 18
f 18 34 35
f 18 35 19
f 19 35 20
f 20 35 36
f 20 36 21
f 21 36 37
f 21 37 27
f 22 27 38
f 22 38 39
f 23 39 24
f 24 39 40
f 24 40 41
f 24 41 25
f 25 41 42
f 25 42 26
f 27 43 44
f 27 44 38
f 27 37 58
f 27 58 43
f 28 42 64
f 28 64 45
f 28 45 66
f 28 66 46
f 28 46 31
f 28 31 47
f 28 47 48
f 28 48 29
f 29 48 31
f 30 31 49
f 30 49 32
f 31 48 47
f 31 46 49
f 32 49 50
f 32 50 68
f 32 68 51
f 32 51 52
f 32 52 33
f 33 52 53
f 33 53 54
f 33 54 55
f 33 55 34
f 34 55 56
f 34 56 35
f 35 56 57
f 35 57 36
f 36 57 37
f 37 57 72
f 37 72 58
f 38 59 60
f 38 60 39
f 38 44 59
f 39 60 61
f 39 61 40
f 40 62 64
f 40 64 42
f 40 42 63
f 40 63 41
f 40 61 62
f 41 63 42
f 43 65 44
f 43 58 65
f 44 65 58
f 44 58 73
f 44 73 71
f 44 71 70
f 44 70 54
f 44 54 69
f 44 69 51
f 44 51 68
f 44 68 67
f 44 67 66
f 44 66 45
f 44 45 64
f 44 64 62
f 44 62 74
f 44 74 60
f 44 60 59
f 46 66 67
f 46 67 49
f 49 67 68
f 49 68 50
f 51 69 52
f 52 69 54
f 52 54 53
f 54 70 55
f 55 70 71
f 55 71 56
f 56 71 72
f 56 72 57
f 58 72 73
f 60 74 61
f 61 74 62
f 71 73 72

