# https://github.com/mikedh/trimesh
v 32.95082537 -44.88333101 41.64493596
v 32.95082537 -45.70009926 41.71761794
v 32.12801642 -45.70009926 41.73136806
v 32.12801642 -44.88333101 41.67204427
v 32.53135486 -42.83231221 41.65868729
v 32.95082537 -42.83231221 41.64493596
v 112.16637272 -44.88333101 41.64493596
v 32.12801642 -46.25755934 42.04134456
v 112.16637272 -45.70009926 41.71761794
v 31.60367645 -46.20786715 42.12502591
v 31.52301363 -45.70009926 42.01855773
v 31.49880700 -44.88333101 41.99577151
v 31.80534567 -42.83231221 41.83744371
v 32.12801642 -42.83231221 41.67204427
v 112.16637272 -42.83231221 41.64493596
v 112.56971116 -42.83231221 41.65790102
v 112.98918167 -44.88333101 41.67204427
v 112.98918167 -45.70009926 41.73136806
v 32.95082537 -46.40698523 42.70058346
v 32.12801642 -46.37164108 42.70058346
v 112.98918167 -46.25755934 42.04134456
v 31.57947955 -46.22256482 42.70058346
v 31.40200967 -45.70009926 42.70058346
v 31.36167826 -44.88333101 42.70058346
v 31.35360613 -42.83231221 42.70058346
v 31.49880700 -42.83231221 41.99577151
v 112.98918167 -42.83231221 41.67204427
v 113.61838622 -44.88333101 41.99577151
v 113.59418933 -45.70009926 42.01855773
v 113.51351677 -46.20786715 42.12502591
v 32.95082537 -46.40698523 43.51736448
v 112.16637272 -46.40698523 42.70058346
v 32.95082537 -46.38668868 44.33375176
v 32.38615156 -46.23761242 44.33375176
v 112.98918167 -46.37164108 42.70058346
v 31.66014237 -46.16132494 43.19088771
v 32.46681925 -46.18127186 44.88691562
v 31.60367645 -45.70009926 43.25492551
v 31.58754194 -44.88333101 43.27849801
v 31.57947955 -42.83231221 43.32210659
v 31.47461010 -42.83231221 43.03963215
v 113.61838622 -42.83231221 41.99577151
v 113.76358709 -42.83231221 42.70058346
v 113.75552470 -44.88333101 42.70058346
v 113.71519329 -45.70009926 42.70058346
v 113.53772340 -46.22256482 42.70058346
v 39.48489832 -46.40698523 44.33375176
v 36.21786184 -46.40278607 44.33375176
v 112.16637272 -46.40698523 43.51736448
v 32.95082537 -46.23761242 45.05467206
v 36.21786184 -46.25335987 45.09670930
v 112.73104653 -46.23761242 44.33375176
v 112.16637272 -46.38703861 44.33375176
v 32.41841815 -45.70009926 44.97609786
v 33.00729129 -45.77988634 45.41925712
v 32.33775289 -42.83231221 45.08178037
v 113.53772340 -42.83231221 43.32210659
v 113.52965128 -44.88333101 43.27849801
v 113.51351677 -45.70009926 43.25492551
v 113.45705085 -46.16132494 43.19088771
v 112.65037884 -46.18127186 44.88691562
v 42.75193479 -46.25755934 45.13363939
v 39.48489832 -46.25755934 45.12499642
v 105.63229977 -46.40698523 44.33375176
v 108.89933625 -46.40278607 44.33375176
v 42.75193479 -45.89641759 45.54222617
v 112.16637272 -46.23761242 45.05467206
v 108.89933625 -46.25335987 45.09670930
v 32.88629219 -44.88333101 45.40157804
v 33.31382996 -45.56082164 45.56776314
v 32.95082537 -42.83231221 45.53986855
v 32.80562451 -42.83231221 45.44007947
v 112.77944520 -42.83231221 45.08178037
v 112.69877994 -45.70009926 44.97609786
v 112.10990680 -45.77988634 45.41925712
v 102.36526330 -46.25755934 45.13363939
v 105.63229977 -46.25755934 45.12499642
v 102.36526330 -45.89641759 45.54222617
v 42.75193479 -42.83231221 45.65812298
v 36.37919722 -42.83231221 45.63612242
v 33.15249459 -42.83231221 45.62472931
v 111.80336812 -45.56082164 45.56776314
v 112.53744457 -42.83231221 45.28489495
v 112.23090589 -44.88333101 45.40157804
v 111.96470350 -42.83231221 45.62472931
v 83.57778859 -42.83231221 45.65812298
v 108.73800087 -42.83231221 45.63612242
v 102.36526330 -42.83231221 45.65773045
v 112.31157358 -42.83231221 45.44007947
f 1 2 3
f 1 3 4
f 1 4 5
f 1 5 6
f 1 6 15
f 1 15 7
f 1 7 9
f 1 9 2
f 2 8 3
f 2 9 21
f 2 21 8
f 3 8 10
f 3 10 11
f 3 11 4
f 4 11 12
f 4 12 13
f 4 13 14
f 4 14 5
f 5 14 13
f 5 13 26
f 5 26 25
f 5 25 41
f 5 41 40
f 5 40 56
f 5 56 72
f 5 72 71
f 5 71 81
f 5 81 80
f 5 80 79
f 5 79 86
f 5 86 88
f 5 88 87
f 5 87 85
f 5 85 89
f 5 89 83
f 5 83 73
f 5 73 57
f 5 57 43
f 5 43 42
f 5 42 27
f 5 27 16
f 5 16 15
f 5 15 6
f 7 15 16
f 7 16 17
f 7 17 18
f 7 18 9
f 8 19 20
f 8 20 10
f 8 21 32
f 8 32 19
f 9 18 21
f 10 22 23
f 10 23 11
f 10 20 22
f 11 23 24
f 11 24 12
f 12 24 25
f 12 25 26
f 12 26 13
f 16 27 17
f 17 27 42
f 17 42 28
f 17 28 29
f 17 29 18
f 18 29 30
f 18 30 21
f 19 31 20
f 19 32 49
f 19 49 64
f 19 64 47
f 19 47 31
f 20 31 33
f 20 33 34
f 20 34 22
f 21 30 35
f 21 35 32
f 22 36 23
f 22 34 37
f 22 37 36
f 23 36 38
f 23 38 24
f 24 38 39
f 24 39 40
f 24 40 41
f 24 41 25
f 28 42 43
f 28 43 44
f 28 44 29
f 29 44 45
f 29 45 30
f 30 45 46
f 30 46 35
f 31 47 48
f 31 48 33
f 32 35 49
f 33 50 37
f 33 37 34
f 33 48 51
f 33 51 50
f 35 46 52
f 35 52 53
f 35 53 49
f 36 37 54
f 36 54 38
f 37 50 55
f 37 55 54
f 38 54 56
f 38 56 39
f 39 56 40
f 43 57 44
f 44 57 58
f 44 58 59
f 44 59 45
f 45 59 60
f 45 60 46
f 46 60 61
f 46 61 52
f 47 62 63
f 47 63 48
f 47 64 76
f 47 76 62
f 48 63 51
f 49 53 65
f 49 65 64
f 50 51 66
f 50 66 55
f 51 63 66
f 52 61 53
f 53 61 67
f 53 67 68
f 53 68 65
f 54 55 69
f 54 69 56
f 55 70 71
f 55 71 69
f 55 66 70
f 56 69 72
f 57 73 58
f 58 73 59
f 59 73 74
f 59 74 60
f 60 74 61
f 61 74 75
f 61 75 67
f 62 66 63
f 62 76 78
f 62 78 66
f 64 65 77
f 64 77 76
f 65 68 77
f 66 78 82
f 66 82 70
f 67 75 78
f 67 78 68
f 68 78 77
f 69 71 72
f 70 79 80
f 70 80 81
f 70 81 71
f 70 82 86
f 70 86 79
f 73 83 74
f 74 83 84
f 74 84 75
f 75 84 85
f 75 85 82
f 75 82 78
f 76 77 78
f 82 85 87
f 82 87 88
f 82 88 86
f 83 89 84
f 84 89 85

