# https://github.com/mikedh/trimesh
v 37.08552890 -51.42610730 41.48068383
v 37.08552890 -51.39795818 41.48068383
v 37.11588895 -51.42610730 41.48068383
v 37.08552890 -51.42610730 44.74226353
v 37.08552890 -49.17920771 41.48157585
v 56.47078615 -49.20808107 41.48157585
v 56.47078615 -51.42610730 41.48157585
v 37.11588895 -48.62993613 50.59455125
v 37.08552890 -48.63065705 50.59098278
v 56.47078615 -51.42610730 44.71639220
v 56.47078615 -48.62055087 50.59455125
v 37.08552890 -48.09293016 41.50387870
v 56.47078615 -48.09293016 41.50387870
v 37.08552890 -48.60106276 50.59455125
v 56.47078615 -44.05313475 50.59455125
v 37.08552890 -46.97922608 41.77775869
v 54.94895973 -46.97922608 41.77865070
v 56.47078615 -47.38486672 41.67873346
v 44.91856993 -46.97922608 41.77775869
v 37.08552890 -44.05313475 50.59455125
v 56.47078615 -44.05313475 46.26956787
v 37.08552890 -46.96262497 41.78578765
v 52.71935184 -46.33900889 42.10338132
v 56.47078615 -46.57214359 41.98562213
v 56.47078615 -46.97922608 41.77954272
v 40.45935333 -46.33828631 42.10248931
v 37.08552890 -44.05313475 46.27045988
v 56.47078615 -45.89367111 42.73321576
v 49.37588789 -45.89294853 42.73321576
v 52.71935184 -44.05313475 46.26956787
v 37.08552890 -46.33828631 42.10248931
v 54.94895973 -46.33900889 42.10427417
v 56.47078615 -46.33972981 42.10427417
v 37.08552890 -45.89294853 42.73321576
f 1 2 3
f 1 3 7
f 1 7 10
f 1 10 4
f 1 4 9
f 1 9 14
f 1 14 20
f 1 20 27
f 1 27 34
f 1 34 31
f 1 31 22
f 1 22 16
f 1 16 12
f 1 12 5
f 1 5 2
f 2 5 6
f 2 6 3
f 3 6 7
f 4 8 9
f 4 10 11
f 4 11 8
f 5 12 13
f 5 13 6
f 6 13 18
f 6 18 25
f 6 25 24
f 6 24 33
f 6 33 28
f 6 28 21
f 6 21 15
f 6 15 11
f 6 11 10
f 6 10 7
f 8 14 9
f 8 11 15
f 8 15 20
f 8 20 14
f 12 16 19
f 12 19 13
f 13 17 18
f 13 19 17
f 15 21 30
f 15 30 27
f 15 27 20
f 16 22 19
f 17 23 24
f 17 24 25
f 17 25 18
f 17 19 26
f 17 26 23
f 19 22 26
f 21 28 29
f 21 29 34
f 21 34 30
f 22 31 26
f 23 28 32
f 23 32 33
f 23 33 24
f 23 26 28
f 26 31 34
f 26 34 29
f 26 29 28
f 27 30 34
f 28 33 32

