# https://github.com/mikedh/trimesh
v 32.68922661 -18.73515365 1.22993940
v 31.56492321 -19.12597051 1.22993940
v 33.74426520 -18.77740390 1.22993940
v 30.42531769 51.07314282 0.46298944
v 27.08220772 51.07314282 0.46298944
v 31.19686683 -20.25616919 1.22993940
v 33.74426520 -54.52128223 1.22993940
v 33.74426520 -18.76684259 0.67437523
v 32.24224275 52.19278184 -1.55736761
v 32.20841764 52.19278184 -0.44217372
v 32.13593359 52.19278184 0.15946166
v 31.53995677 52.19278184 0.32342119
v 30.42531769 52.19278184 0.44401919
v 27.08220772 52.19278184 0.44401919
v 26.23334569 52.19278184 0.27870503
v 26.21965153 51.07314282 0.28818995
v 27.08220772 -48.13090207 0.46298944
v 31.19686683 -51.46868653 1.22993940
v 33.21191375 -54.61634404 1.22993940
v 33.74426520 -54.70084454 -7.12927237
v 33.74426520 -18.75627961 -0.44217372
v 32.24224275 52.19278184 -9.35966017
v 32.16251130 52.82653720 -1.55736761
v 32.14640355 52.80541125 -0.44217372
v 32.11902020 52.77372398 0.13913636
v 31.53995677 52.84766316 0.21095306
v 30.42531769 52.91103770 0.26921969
v 27.08220772 52.91103770 0.26921969
v 26.33965320 52.85822447 0.21772830
v 25.77669752 52.19278184 -0.44217372
v 25.72595735 51.07314282 -0.44217372
v 26.21965153 -20.25616919 0.28818995
v 26.22045883 -47.01126305 0.28818995
v 26.22126280 -48.13090207 0.28818995
v 31.20089335 -52.58832222 1.22993940
v 32.65459420 -54.71140917 1.22993940
v 33.74426520 -54.71140917 -8.24446627
v 33.74426520 -18.75627961 -6.01543352
v 32.16975871 52.19278184 -10.08189355
v 32.14076575 52.79484993 -10.01685209
v 32.16251130 52.82653720 -9.35966017
v 33.74426520 -19.06259431 -7.12927237
v 33.74426520 -19.52735035 -7.80543496
v 33.74426520 -28.06194010 -10.31631556
v 33.74426520 -29.14988852 -10.58596715
v 31.53995677 53.04835142 -1.55736761
v 31.53995677 53.00610283 -0.44217372
v 30.42531769 53.13285191 -0.44217372
v 27.08220772 53.13285191 -0.44217372
v 26.17616376 52.94272497 -0.44217372
v 25.61078951 52.19278184 -1.55736761
v 25.53750149 51.07314282 -1.55736761
v 25.72595735 -7.99297813 -0.44217372
v 25.72676465 -47.01126305 -0.44217372
v 25.73804024 -48.13090207 -0.44217372
v 26.32354711 -48.99703629 0.23127877
v 31.29995511 -53.73964851 1.22993940
v 32.65459420 -54.71140917 -8.24446627
v 32.18989298 -54.59521809 1.22993940
v 31.63982251 -54.47903032 -0.44217372
v 31.61888260 -54.47903032 -1.55736761
v 33.74426520 -54.71140917 -8.26885713
v 31.84761033 52.19278184 -10.63881276
v 33.74426520 -29.18157579 -10.59003271
v 31.17753819 52.87935043 -11.22554386
v 31.54559457 52.94272497 -10.42200762
v 31.53995677 53.04835142 -9.35966017
v 30.42531769 53.19622977 -1.55736761
v 27.08220772 53.19622977 -1.55736761
v 25.51736555 53.19622977 -8.24446627
v 25.51736555 52.99553819 -7.12927237
v 25.51736555 52.77372398 -6.51273147
v 25.51736555 52.19278184 -6.35419213
v 25.51736555 51.07314282 -6.25527448
v 25.53750149 -47.01126305 -1.55736761
v 25.55683012 -48.13090207 -1.55736761
v 26.13669919 -49.19772454 -0.44217372
v 26.57240746 -49.75754405 -0.44217372
v 31.75740726 -54.47903032 1.22993940
v 32.65459420 -54.70084454 -9.35966017
v 31.61888260 -54.47903032 -9.35966017
v 31.06156471 -54.20440289 -1.55736761
v 33.74426520 -54.70084454 -9.37727537
v 31.29029079 52.19278184 -11.33801158
v 31.86291245 51.07314282 -10.65371870
v 33.74426520 -30.26952422 -10.61306727
v 31.30478727 51.07314282 -11.35291752
v 30.40518341 52.97441224 -11.59411352
v 30.42531769 53.17510382 -10.47349943
v 30.66773627 52.19278184 -11.89628543
v 30.02102095 52.83709852 -12.23368940
v 30.42531769 53.19622977 -9.35966017
v 25.51736555 53.19622977 -10.47349943
v 25.51736555 -45.90218867 -6.25527448
v 25.51736555 -46.97957578 -6.28102039
v 25.51736555 -47.76120950 -6.45581988
v 25.51736555 -48.36327760 -6.95040773
v 25.51736555 -48.76465744 -7.58591889
v 26.05052430 -49.23997645 -1.55736761
v 26.53213891 -49.78923132 -1.55736761
v 27.08945679 -50.33848619 -1.55736761
v 28.21537147 -51.44756057 -1.55736761
v 30.50182826 -53.61289611 -0.44217372
v 31.08250296 -54.17271562 -0.44217372
v 31.77834717 -54.40509115 -10.10628440
v 32.65459420 -54.47903032 -10.20113691
v 31.06156471 -54.20440289 -9.35966017
v 30.46639187 -53.65514802 -1.55736761
v 33.74426520 -54.47903032 -10.19978228
v 33.74426520 -51.46868653 -10.61306727
v 30.12491320 -11.34132639 -12.29602077
v 30.12410756 10.94578351 -12.29602077
v 30.12410756 51.07314282 -12.29466613
v 30.68142711 51.07314282 -11.91119137
v 29.31148590 52.92159901 -12.31499227
v 29.31148590 53.14341655 -11.58869333
v 28.19684681 53.17510382 -11.58869333
v 29.31148590 53.19622977 -10.47349943
v 30.11041672 52.19278184 -12.28653585
v 29.31148590 52.19278184 -12.50605192
v 25.51736555 53.17510382 -11.58869333
v 25.51736555 -48.79634471 -8.24446627
v 25.96676466 -49.23997645 -8.24446627
v 28.21537147 -51.44756057 -10.47349943
v 30.47686183 -53.57064420 -10.47349943
v 30.65323979 -53.38051726 -11.22554386
v 31.20008772 -53.38051726 -11.22554386
v 30.46639187 -53.65514802 -9.35966017
v 29.91954228 -53.10588982 -10.47349943
v 30.03873831 -52.21863298 -12.24452978
v 33.74426520 -54.46846901 -10.20791174
v 33.74426520 -52.58832222 -10.60764708
v 30.12410756 -51.46868653 -12.29466613
v 30.12410756 -48.13090207 -12.29602077
v 30.12491320 -30.29065017 -12.29602077
v 29.31148590 23.20897458 -12.52908732
v 29.31148590 51.07314282 -12.52773185
v 28.19684681 52.95328961 -12.35293277
v 28.19684681 52.19278184 -12.58599849
v 28.19684681 51.07314282 -12.61174398
v 25.51736555 52.95328961 -12.35293277
v 25.51736555 -48.79634471 -11.23096405
v 25.96676466 -49.23997645 -10.47349943
v 29.34128283 -52.54607364 -10.47349943
v 28.81940299 -51.98625413 -11.58869333
v 29.37672088 -52.42988255 -11.58869333
v 29.56437277 -52.21863298 -12.24452978
v 27.67254840 -50.88774106 -11.58869333
v 28.22986629 -51.42643462 -11.58869333
v 29.24061312 -51.56374834 -12.35835296
v 29.31148590 -50.35961215 -12.52908732
v 33.74426520 -53.70796124 -10.54125099
v 33.74426520 -53.67627065 -10.54396108
v 25.51736555 52.49909654 -12.49250144
v 25.51736555 51.52733588 -12.60225906
v 25.51736555 52.19278184 -12.58599849
v 25.51736555 51.07314282 -12.61174398
v 28.19684681 -49.23997645 -12.61174398
v 25.51736555 -48.78578339 -11.53855615
v 25.51736555 -48.77521875 -11.80143291
v 25.51736555 -48.72240885 -11.93151750
v 28.41349166 -51.24687232 -12.30144096
v 28.10423015 -50.45467396 -12.42610535
v 25.51736555 -46.56763463 -12.61174398
v 25.51736555 -47.01126305 -12.56567319
v 27.08220772 -48.13090207 -12.61174398
v 26.16247292 -49.03928487 -12.30144096
v 25.51736555 -48.09921148 -12.37054798
v 25.51736555 -47.81402273 -12.45049538
f 1 2 6
f 1 6 18
f 1 18 35
f 1 35 57
f 1 57 79
f 1 79 59
f 1 59 36
f 1 36 19
f 1 19 7
f 1 7 3
f 1 3 4
f 1 4 5
f 1 5 2
f 2 5 6
f 3 7 20
f 3 20 37
f 3 37 62
f 3 62 83
f 3 83 109
f 3 109 131
f 3 131 152
f 3 152 153
f 3 153 132
f 3 132 110
f 3 110 86
f 3 86 64
f 3 64 45
f 3 45 44
f 3 44 43
f 3 43 42
f 3 42 38
f 3 38 21
f 3 21 8
f 3 8 9
f 3 9 10
f 3 10 11
f 3 11 12
f 3 12 4
f 4 12 13
f 4 13 14
f 4 14 5
f 5 14 15
f 5 15 16
f 5 16 32
f 5 32 17
f 5 17 18
f 5 18 6
f 7 19 20
f 8 21 9
f 9 22 41
f 9 41 23
f 9 23 24
f 9 24 10
f 9 21 38
f 9 38 22
f 10 24 25
f 10 25 11
f 11 25 12
f 12 25 26
f 12 26 13
f 13 26 27
f 13 27 28
f 13 28 14
f 14 28 29
f 14 29 15
f 15 30 31
f 15 31 16
f 15 29 30
f 16 31 53
f 16 53 32
f 17 32 33
f 17 33 34
f 17 34 35
f 17 35 18
f 19 36 20
f 20 36 37
f 22 39 40
f 22 40 41
f 22 38 42
f 22 42 43
f 22 43 44
f 22 44 45
f 22 45 39
f 23 41 67
f 23 67 46
f 23 46 24
f 24 46 47
f 24 47 25
f 25 47 26
f 26 47 48
f 26 48 27
f 27 48 49
f 27 49 28
f 28 49 29
f 29 49 50
f 29 50 30
f 30 51 52
f 30 52 31
f 30 50 51
f 31 52 75
f 31 75 53
f 32 53 54
f 32 54 33
f 33 54 34
f 34 54 55
f 34 55 56
f 34 56 57
f 34 57 35
f 36 58 62
f 36 62 37
f 36 59 60
f 36 60 61
f 36 61 81
f 36 81 58
f 39 63 40
f 39 45 64
f 39 64 63
f 40 65 66
f 40 66 67
f 40 67 41
f 40 63 65
f 46 68 47
f 46 67 92
f 46 92 68
f 47 68 48
f 48 68 69
f 48 69 49
f 49 69 50
f 50 69 70
f 50 70 51
f 51 70 71
f 51 71 72
f 51 72 52
f 52 72 73
f 52 73 74
f 52 74 94
f 52 94 75
f 53 75 54
f 54 75 55
f 55 76 77
f 55 77 56
f 55 75 76
f 56 77 78
f 56 78 79
f 56 79 57
f 58 80 62
f 58 81 80
f 59 79 60
f 60 79 82
f 60 82 61
f 61 82 107
f 61 107 81
f 62 80 83
f 63 84 65
f 63 64 85
f 63 85 84
f 64 86 87
f 64 87 85
f 65 88 89
f 65 89 66
f 65 84 90
f 65 90 91
f 65 91 88
f 66 89 67
f 67 89 92
f 68 92 118
f 68 118 93
f 68 93 70
f 68 70 69
f 70 93 121
f 70 121 141
f 70 141 154
f 70 154 156
f 70 156 155
f 70 155 157
f 70 157 164
f 70 164 165
f 70 165 169
f 70 169 168
f 70 168 161
f 70 161 160
f 70 160 159
f 70 159 142
f 70 142 122
f 70 122 98
f 70 98 97
f 70 97 96
f 70 96 95
f 70 95 94
f 70 94 74
f 70 74 73
f 70 73 72
f 70 72 71
f 75 94 95
f 75 95 96
f 75 96 97
f 75 97 98
f 75 98 76
f 76 98 99
f 76 99 77
f 77 99 78
f 78 99 100
f 78 100 101
f 78 101 102
f 78 102 103
f 78 103 79
f 79 103 104
f 79 104 82
f 80 81 105
f 80 105 106
f 80 106 83
f 81 107 105
f 82 104 108
f 82 108 128
f 82 128 107
f 83 106 109
f 84 85 87
f 84 87 90
f 86 110 135
f 86 135 111
f 86 111 112
f 86 112 113
f 86 113 114
f 86 114 87
f 87 114 90
f 88 91 115
f 88 115 116
f 88 116 89
f 89 116 117
f 89 117 118
f 89 118 92
f 90 119 91
f 90 114 119
f 91 119 120
f 91 120 115
f 93 118 117
f 93 117 121
f 98 122 99
f 99 122 100
f 100 122 123
f 100 123 101
f 101 123 102
f 102 123 143
f 102 143 124
f 102 124 128
f 102 128 108
f 102 108 103
f 103 108 104
f 105 107 125
f 105 125 126
f 105 126 106
f 106 127 109
f 106 126 127
f 107 128 129
f 107 129 125
f 109 127 130
f 109 130 131
f 110 132 133
f 110 133 134
f 110 134 135
f 111 135 151
f 111 151 136
f 111 136 112
f 112 136 113
f 113 137 119
f 113 119 114
f 113 136 137
f 115 138 116
f 115 120 139
f 115 139 138
f 116 138 117
f 117 138 141
f 117 141 121
f 119 137 120
f 120 137 140
f 120 140 139
f 122 142 143
f 122 143 123
f 124 144 128
f 124 143 142
f 124 142 144
f 125 129 145
f 125 145 146
f 125 146 126
f 126 146 147
f 126 147 130
f 126 130 127
f 128 144 129
f 129 144 148
f 129 148 149
f 129 149 145
f 130 147 150
f 130 150 151
f 130 151 133
f 130 133 152
f 130 152 131
f 132 153 133
f 133 153 152
f 133 151 134
f 134 151 135
f 136 140 137
f 136 151 158
f 136 158 140
f 138 139 154
f 138 154 141
f 139 155 156
f 139 156 154
f 139 140 155
f 140 157 155
f 140 158 166
f 140 166 164
f 140 164 157
f 142 159 148
f 142 148 144
f 145 149 160
f 145 160 161
f 145 161 162
f 145 162 147
f 145 147 146
f 147 162 150
f 148 159 160
f 148 160 149
f 150 162 163
f 150 163 158
f 150 158 151
f 158 163 165
f 158 165 166
f 161 167 162
f 161 168 167
f 162 167 163
f 163 167 169
f 163 169 165
f 164 166 165
f 167 168 169

