# https://github.com/mikedh/trimesh
v 76.60823747 -50.32227185 41.48067885
v 76.60823747 -51.43693772 41.49406156
v 76.60823747 -49.20760599 41.48067885
v 100.65359729 -50.32227185 41.48067885
v 105.11144348 -53.06190227 41.48157086
v 76.60823747 -53.06190227 41.55294531
v 76.60823747 -48.09377068 41.48335572
v 77.24764570 -48.09377068 41.48067885
v 100.65359729 -46.97910482 41.48067885
v 107.27582593 -53.06190227 41.48157086
v 76.60823747 -53.06190227 50.59516337
v 76.60823747 -46.97910482 41.50387538
v 77.24764570 -46.97910482 41.48692378
v 100.65359729 -45.93353269 41.82862842
v 107.27582593 -46.97910482 41.77063586
v 107.27582593 -48.02634303 41.51815010
v 107.27582593 -48.09377068 41.50209135
v 107.27582593 -49.14017501 41.48246288
v 107.27582593 -49.20760599 41.48157086
v 107.27582593 -53.06190227 44.93786634
v 76.60823747 -44.55830726 50.59516337
v 105.58574598 -53.06190227 50.59516337
v 76.60823747 -45.95517692 41.84914808
v 77.24764570 -45.94269038 41.83487336
v 93.96532305 -45.39493040 42.25954946
v 93.96532305 -44.55830726 43.17046312
v 101.76730636 -45.98514495 41.87234461
v 107.27582593 -46.93997910 41.79026433
v 107.27582593 -48.86046787 50.59337934
v 76.60823747 -44.55830726 46.09055951
v 107.27582593 -44.55830726 50.59516337
v 107.27582593 -48.79636907 50.59516337
v 76.60823747 -45.67130870 42.34876751
v 94.31955077 -44.55830726 43.24094471
v 107.27582593 -45.89107812 42.73329549
v 76.60823747 -45.45403591 42.73329549
v 93.13379286 -44.55830726 43.25700430
v 107.27582593 -46.30481168 42.13642904
v 107.27582593 -46.33144920 42.09806495
v 90.61818596 -44.55830726 43.68078838
v 107.27582593 -44.55830726 46.04684291
v 95.07903543 -44.55830726 43.39261540
f 1 2 6
f 1 6 11
f 1 11 21
f 1 21 30
f 1 30 36
f 1 36 33
f 1 33 23
f 1 23 12
f 1 12 7
f 1 7 3
f 1 3 8
f 1 8 9
f 1 9 4
f 1 4 10
f 1 10 5
f 1 5 2
f 2 5 6
f 3 7 8
f 4 9 19
f 4 19 10
f 5 10 20
f 5 20 22
f 5 22 11
f 5 11 6
f 7 12 13
f 7 13 8
f 8 13 9
f 9 14 15
f 9 15 16
f 9 16 17
f 9 17 18
f 9 18 19
f 9 13 14
f 10 19 18
f 10 18 17
f 10 17 16
f 10 16 15
f 10 15 28
f 10 28 39
f 10 39 38
f 10 38 35
f 10 35 41
f 10 41 31
f 10 31 32
f 10 32 29
f 10 29 20
f 11 22 32
f 11 32 31
f 11 31 21
f 12 23 24
f 12 24 13
f 13 24 14
f 14 25 26
f 14 26 27
f 14 27 15
f 14 24 25
f 15 27 28
f 20 29 22
f 21 31 41
f 21 41 42
f 21 42 34
f 21 34 26
f 21 26 37
f 21 37 40
f 21 40 30
f 22 29 32
f 23 33 26
f 23 26 24
f 24 26 25
f 26 34 35
f 26 35 27
f 26 33 36
f 26 36 37
f 27 35 38
f 27 38 39
f 27 39 28
f 30 40 36
f 34 42 35
f 35 42 41
f 36 40 37

