# https://github.com/mikedh/trimesh
v 33.74511598 -39.17564644 59.75345626
v 33.74511598 -38.17967497 59.44411579
v 32.65528366 -39.17564644 59.75151525
v 33.74511598 -44.46210924 57.98607546
v 33.74511598 -38.15696266 59.43699712
v 32.65528366 -38.16431139 59.43570312
v 31.84196419 -38.32061989 59.25449961
v 31.75097540 -39.17564644 59.32309751
v 32.42540474 -44.46210924 57.85599708
v 32.65528366 -44.46210924 57.96083618
v 33.74511598 -44.46210924 53.14211867
v 33.74511598 -37.70540237 58.36401424
v 32.65528366 -37.71074615 58.33942238
v 31.36699891 -39.17564644 58.33942238
v 31.71397092 -38.17232624 58.33942238
v 31.67443325 -44.46210924 57.29232495
v 33.74511598 -37.69003879 53.14211867
v 31.15587554 -44.46210924 53.14211867
v 33.74511598 -37.69538257 58.33942238
v 31.51830747 -38.00466241 53.14211867
v 32.70039767 -37.63860428 53.14211867
v 31.15587554 -39.17564644 53.14211867
v 31.32999609 -44.46210924 56.11061972
f 1 2 3
f 1 3 4
f 1 4 11
f 1 11 17
f 1 17 19
f 1 19 12
f 1 12 5
f 1 5 2
f 2 5 6
f 2 6 3
f 3 6 7
f 3 7 8
f 3 8 9
f 3 9 10
f 3 10 4
f 4 10 9
f 4 9 16
f 4 16 23
f 4 23 18
f 4 18 11
f 5 12 6
f 6 12 13
f 6 13 7
f 7 14 8
f 7 13 15
f 7 15 14
f 8 14 16
f 8 16 9
f 11 18 22
f 11 22 20
f 11 20 21
f 11 21 17
f 12 19 13
f 13 20 15
f 13 19 21
f 13 21 20
f 14 15 20
f 14 20 22
f 14 22 18
f 14 18 23
f 14 23 16
f 17 21 19

