# https://github.com/mikedh/trimesh
v 56.47073344 -54.70379466 8.47637086
v 64.90013548 -54.71030620 8.47637086
v 56.47073344 -54.69945585 8.88171077
v 56.47073344 -54.56276339 7.97352647
v 64.90013548 -54.48682091 7.53580079
v 64.90013548 -54.69294764 9.50782920
v 56.47073344 -54.69077823 9.59070762
v 56.47073344 -54.48031270 7.68588842
v 64.90013548 -53.77297696 7.08623558
v 64.90013548 -54.69077823 9.59070762
v 56.47073344 -54.61049695 9.86894381
v 56.47073344 -53.98995070 7.51664823
v 56.47073344 -53.70788483 7.41984060
v 64.90013548 -53.62109533 7.08066422
v 64.90013548 -54.48465151 10.29796363
v 56.47073344 -54.46729295 10.35472531
v 56.47073344 -52.99838300 7.39894637
v 56.47073344 -52.59264110 7.38710683
v 64.90013548 -52.59264110 7.06290450
v 64.90013548 -54.46729295 10.35472531
v 56.47073344 -54.19173861 10.43934540
v 56.47073344 -32.54643297 7.38118665
v 64.90013548 -32.54643297 7.05559148
v 64.90013548 -53.70788483 10.58734336
v 56.47073344 -53.70788483 10.58734336
v 56.47073344 -32.54643297 10.61276410
v 64.90013548 -32.54643297 10.61276410
v 64.90013548 -52.59264110 10.61311210
v 56.47073344 -53.30214625 10.59674522
v 56.47073344 -52.18689920 10.61311210
v 60.52453645 -51.47739405 10.61311210
v 64.90013548 -51.47739405 10.61311210
v 56.47073344 -52.59264110 10.61311210
f 1 2 3
f 1 3 7
f 1 7 11
f 1 11 16
f 1 16 21
f 1 21 25
f 1 25 29
f 1 29 33
f 1 33 30
f 1 30 26
f 1 26 22
f 1 22 18
f 1 18 17
f 1 17 13
f 1 13 12
f 1 12 8
f 1 8 4
f 1 4 5
f 1 5 2
f 2 6 7
f 2 7 3
f 2 5 9
f 2 9 14
f 2 14 19
f 2 19 23
f 2 23 27
f 2 27 32
f 2 32 28
f 2 28 24
f 2 24 20
f 2 20 15
f 2 15 10
f 2 10 6
f 4 8 5
f 5 8 9
f 6 10 7
f 7 10 11
f 8 12 9
f 9 12 13
f 9 13 14
f 10 15 11
f 11 15 16
f 13 17 14
f 14 17 18
f 14 18 19
f 15 20 16
f 16 20 21
f 18 22 23
f 18 23 19
f 20 24 21
f 21 24 25
f 22 26 27
f 22 27 23
f 24 28 29
f 24 29 25
f 26 30 31
f 26 31 32
f 26 32 27
f 28 33 29
f 28 32 31
f 28 31 30
f 28 30 33

