# https://github.com/mikedh/trimesh
v 99.77636965 -25.64169778 -6.20621369
v 111.79976170 -25.88743193 -6.20621369
v 99.33648868 -25.64169778 -6.78549722
v 87.15519516 -25.64169778 -6.20621369
v 95.07867707 -25.64169778 -8.71874211
v 96.18401728 -25.64169778 -8.39955383
v 99.18986280 -25.64169778 -6.87737137
v 112.97277539 -25.94241124 -6.20621369
v 88.19849968 -25.64169778 -7.18016909
v 56.47073531 -26.36807313 -6.75702918
v 76.60935080 -25.99322283 -6.20621369
v 112.91638082 -26.59298365 -8.24556758
v 94.31170759 -25.64169778 -8.85461316
v 113.75666158 -26.76458260 -6.20621369
v 113.39009853 -26.40555932 -6.56594751
v 113.77922605 -27.06779436 -8.24556758
v 113.67207138 -27.27021349 -9.35927562
v 88.25489425 -25.64169778 -7.21942063
v 56.47073531 -26.55216693 -8.24556758
v 56.47073531 -30.62387481 -6.75702918
v 89.49558143 -25.64169778 -8.02989947
v 89.58581274 -25.64169778 -8.07820943
v 90.61784168 -25.64169778 -8.40688678
v 76.60935080 -34.15080283 -6.20621369
v 112.91638082 -27.01115063 -9.35927562
v 93.96769574 -25.64169778 -8.90723618
v 113.82997618 -26.86037696 -6.20621369
v 114.07811893 -28.06989514 -8.24556758
v 113.97660538 -28.06989514 -9.35927562
v 113.53108330 -27.45847169 -9.96400730
v 56.47073531 -26.98032879 -9.35927562
v 93.12177387 -25.64169778 -8.82743911
v 70.55817858 -26.53883821 -9.35927562
v 56.47073531 -32.53394809 -7.38030877
v 106.10951804 -34.15080283 -6.20621369
v 76.60935080 -34.15080283 -10.54113471
v 112.91638082 -27.43181591 -9.98773123
v 100.65049046 -27.04780294 -10.25688448
v 95.07867707 -26.47303181 -9.78241512
v 93.96769574 -26.49635541 -9.82037307
v 70.55817858 -27.03280813 -10.24696352
v 114.07811893 -28.06989514 -6.20621369
v 113.98788762 -29.18444951 -9.35927562
v 113.72846263 -29.18444951 -10.21116252
v 113.67207138 -28.06989514 -10.11281837
v 112.91638082 -28.06989514 -10.31123257
v 56.47073531 -27.14276509 -9.58960799
v 56.47073531 -32.53394809 -10.61273588
v 111.76028384 -34.15080283 -7.52696248
v 113.44649310 -30.03327831 -6.20621369
v 105.11132585 -34.15080283 -10.61230482
v 100.65049046 -28.06989514 -10.60324681
v 95.07867707 -27.03030983 -10.26464850
v 77.24661110 -27.03364201 -10.25860954
v 70.55817858 -28.06989514 -10.58987490
v 56.47073531 -28.06989514 -10.31727069
v 56.47073531 -27.42765152 -9.99247535
v 77.24661110 -28.06989514 -10.60669693
v 113.90892525 -29.18444951 -6.20621369
v 113.98788762 -29.18444951 -7.13099660
v 113.71154592 -30.29733779 -9.35927562
v 113.48596764 -30.90376463 -9.94502833
v 113.58748119 -30.29733779 -10.07184136
v 112.65132468 -32.52728373 -10.21978948
v 112.91638082 -30.29733779 -10.41992874
v 112.91638082 -29.18444951 -10.54803578
v 111.79976170 -29.18444951 -10.59030679
v 56.47073531 -30.29817167 -10.61273588
v 67.21960011 -32.53394809 -10.61273588
v 112.27347941 -34.15080283 -7.92163435
v 113.59875678 -29.94747884 -6.20621369
v 110.68314257 -34.15080283 -10.61230482
v 95.07867707 -28.06989514 -10.61230482
v 111.79976170 -30.29733779 -10.61230482
v 56.47073531 -29.18444951 -10.58987490
v 113.64951355 -30.29317506 -7.21985169
v 112.30167503 -34.12997588 -7.93500584
v 112.29603723 -34.15080283 -7.94880839
v 113.71154592 -30.29733779 -8.24556758
v 112.57237229 -33.64183644 -9.35927562
v 112.38062743 -34.15080283 -9.94847928
v 112.46522094 -33.64183644 -10.05803839
v 111.81668173 -34.15080283 -10.30519362
v 111.79976170 -33.64183644 -10.40612661
v 111.79976170 -32.52728373 -10.56787687
v 111.79976170 -31.41189382 -10.61230482
v 76.60935080 -30.29817167 -10.61273588
v 76.60935080 -31.41272770 -10.61273588
v 113.48596764 -30.89876470 -7.65075603
v 112.38062743 -34.15080283 -8.61996607
v 112.39190966 -34.15080283 -8.76446407
v 112.39754746 -34.15080283 -9.35927562
f 1 2 3
f 1 3 7
f 1 7 6
f 1 6 5
f 1 5 13
f 1 13 26
f 1 26 32
f 1 32 23
f 1 23 22
f 1 22 21
f 1 21 18
f 1 18 9
f 1 9 4
f 1 4 11
f 1 11 24
f 1 24 35
f 1 35 50
f 1 50 71
f 1 71 59
f 1 59 42
f 1 42 27
f 1 27 14
f 1 14 8
f 1 8 2
f 2 5 6
f 2 6 7
f 2 7 3
f 2 8 5
f 4 9 10
f 4 10 11
f 5 8 12
f 5 12 13
f 8 14 15
f 8 15 16
f 8 16 17
f 8 17 12
f 9 18 10
f 10 19 31
f 10 31 47
f 10 47 57
f 10 57 56
f 10 56 75
f 10 75 68
f 10 68 48
f 10 48 34
f 10 34 20
f 10 20 24
f 10 24 11
f 10 18 21
f 10 21 22
f 10 22 23
f 10 23 19
f 12 17 25
f 12 25 13
f 13 25 26
f 14 27 16
f 14 16 15
f 16 27 28
f 16 28 29
f 16 29 17
f 17 29 30
f 17 30 25
f 19 23 32
f 19 32 26
f 19 26 33
f 19 33 31
f 20 34 24
f 24 34 48
f 24 48 36
f 24 36 51
f 24 51 72
f 24 72 83
f 24 83 81
f 24 81 92
f 24 92 91
f 24 91 90
f 24 90 78
f 24 78 70
f 24 70 49
f 24 49 35
f 25 30 37
f 25 37 26
f 26 37 38
f 26 38 39
f 26 39 40
f 26 40 41
f 26 41 33
f 27 42 28
f 28 42 60
f 28 60 43
f 28 43 29
f 29 43 44
f 29 44 45
f 29 45 30
f 30 46 37
f 30 45 46
f 31 33 41
f 31 41 47
f 35 49 50
f 36 48 51
f 37 46 38
f 38 46 52
f 38 52 53
f 38 53 40
f 38 40 39
f 40 54 41
f 40 53 54
f 41 55 56
f 41 56 57
f 41 57 47
f 41 54 58
f 41 58 55
f 42 59 60
f 43 60 79
f 43 79 61
f 43 61 62
f 43 62 63
f 43 63 44
f 44 63 64
f 44 64 65
f 44 65 66
f 44 66 45
f 45 66 46
f 46 66 67
f 46 67 52
f 48 68 87
f 48 87 88
f 48 88 69
f 48 69 72
f 48 72 51
f 49 70 71
f 49 71 50
f 52 73 53
f 52 67 74
f 52 74 73
f 53 73 58
f 53 58 54
f 55 75 56
f 55 58 75
f 58 68 75
f 58 73 68
f 59 76 60
f 59 71 77
f 59 77 78
f 59 78 76
f 60 76 79
f 61 79 80
f 61 80 81
f 61 81 62
f 62 81 82
f 62 82 63
f 63 82 64
f 64 82 83
f 64 83 84
f 64 84 85
f 64 85 65
f 65 85 66
f 66 85 86
f 66 86 74
f 66 74 67
f 68 73 87
f 69 88 72
f 70 78 77
f 70 77 71
f 72 88 86
f 72 86 85
f 72 85 84
f 72 84 83
f 73 74 87
f 74 86 88
f 74 88 87
f 76 78 89
f 76 89 79
f 78 90 89
f 79 89 91
f 79 91 92
f 79 92 80
f 80 92 81
f 81 83 82
f 89 90 91

