# https://github.com/mikedh/trimesh
v 34.41134111 -51.42899762 50.59455125
v 37.11283418 -51.42899762 44.73622125
v 33.74511598 -51.42899762 50.59455125
v 34.40672656 -71.50268071 50.59455125
v 37.11283418 -51.42899762 41.48139562
v 37.11283418 -71.50268071 44.72016125
v 33.74511598 -51.42899762 41.48050277
v 33.74511598 -73.43618590 50.59455125
v 34.39420015 -72.61716053 50.59455125
v 37.11283418 -72.61716053 44.69963994
v 33.75929020 -51.42899762 41.48050277
v 37.11283418 -71.50268071 41.48139562
v 33.74511598 -69.24765166 41.47961076
v 33.74511598 -73.61650238 44.96284565
v 33.77016879 -73.61650238 44.96284565
v 37.11283418 -73.61867511 42.73229052
v 37.11283418 -73.54698173 43.84667566
v 33.77016879 -73.43184045 50.59455125
v 34.39222177 -72.64757539 50.59455125
v 34.35464089 -73.21024878 50.59455125
v 37.11283418 -73.32539007 44.54171684
v 37.11283418 -72.61716053 41.54563561
v 34.88505060 -71.50268071 41.48139562
v 33.74511598 -70.38820089 41.47961076
v 33.74511598 -73.62084784 43.84846052
v 34.88505060 -73.62084784 43.84846052
v 34.88505060 -73.62084784 42.73407455
v 37.11283418 -73.39708012 41.89360179
v 33.80082784 -73.42097681 50.59455125
v 33.74511598 -73.37970162 41.88557200
v 34.88505060 -72.61716053 41.54563561
v 33.74511598 -71.50268071 41.48585652
v 33.74511598 -73.62084784 42.73407455
v 33.74511598 -73.39708012 41.89360179
v 33.74511598 -72.61716053 41.55188054
v 33.74511598 -72.59109111 41.55009651
f 1 2 5
f 1 5 11
f 1 11 7
f 1 7 3
f 1 3 8
f 1 8 18
f 1 18 29
f 1 29 20
f 1 20 19
f 1 19 9
f 1 9 4
f 1 4 2
f 2 4 6
f 2 6 10
f 2 10 21
f 2 21 17
f 2 17 16
f 2 16 28
f 2 28 22
f 2 22 12
f 2 12 5
f 3 7 13
f 3 13 24
f 3 24 32
f 3 32 36
f 3 36 35
f 3 35 30
f 3 30 34
f 3 34 33
f 3 33 25
f 3 25 14
f 3 14 8
f 4 9 10
f 4 10 6
f 5 12 24
f 5 24 13
f 5 13 11
f 7 11 13
f 8 14 15
f 8 15 16
f 8 16 17
f 8 17 18
f 9 19 10
f 10 19 20
f 10 20 21
f 12 22 31
f 12 31 23
f 12 23 24
f 14 25 26
f 14 26 15
f 15 26 16
f 16 26 27
f 16 27 28
f 17 21 20
f 17 20 29
f 17 29 18
f 22 28 30
f 22 30 31
f 23 32 24
f 23 31 32
f 25 33 27
f 25 27 26
f 27 33 34
f 27 34 28
f 28 34 30
f 30 35 31
f 31 35 36
f 31 36 32

