# https://github.com/mikedh/trimesh
v 1.38915733 -28.06682209 -10.47377268
v 1.42931624 -28.06682209 -11.58875313
v 1.71511960 -29.14513776 -11.58875313
v 1.69386408 -29.15512433 -10.47377268
v 1.42222664 -28.06682209 -9.35968093
v 1.41986787 -24.72204770 -8.24470132
v 1.38915733 -21.37727330 -8.24470132
v 1.38915733 51.06954819 -10.47377268
v 1.73401635 -28.06682209 -12.37945566
v 1.82377591 -28.95543274 -12.30127319
v 1.42931624 51.06954819 -11.58875313
v 25.41815762 -48.67462878 -11.87571594
v 25.51736223 -48.77447458 -11.80108740
v 25.51736223 -48.78445450 -11.53811263
v 25.51736223 -48.79444108 -11.23160358
v 1.72693339 -29.07524504 -9.35968093
v 25.51736223 -48.80442765 -10.47377268
v 25.51736223 -48.80442765 -8.24470132
v 25.40634715 -48.68460871 -7.68054798
v 1.50489659 -28.06682209 -8.24470132
v 1.47419270 -26.94856843 -8.24470132
v 1.58993196 -21.37727330 -7.13060956
v 1.56631103 -18.03249891 -7.13060956
v 1.38915733 51.06954819 -8.24470132
v 1.43639920 52.18779852 -10.47377268
v 1.46710309 52.18779852 -11.58875313
v 2.55836709 -28.06682209 -12.61311273
v 1.73401635 51.06954819 -12.37945566
v 25.51736223 -47.81596954 -12.45053026
v 25.51736223 -48.10551372 -12.37057123
v 24.85126844 -47.84592262 -12.26395975
v 24.29146554 -47.57634495 -12.14757514
v 25.51736223 -48.72454835 -11.93257562
v 1.74818891 52.18779852 -12.36612943
v 1.80960335 -28.86557351 -8.24470132
v 25.51736223 -48.76448800 -7.58726272
v 1.90644586 -28.69584164 -7.51974206
v 1.76000270 -28.05683884 -7.14127055
v 1.89463207 -27.68741537 -6.49804729
v 1.87337655 -18.03249891 -6.48472065
v 1.57575940 51.06954819 -7.13060956
v 1.51906915 52.18779852 -9.35968093
v 1.74110595 52.96658510 -10.47377268
v 1.75291310 52.95659853 -11.58875313
v 1.84267266 52.87672588 -12.28439302
v 5.90301192 -28.06682209 -12.61311273
v 25.51736223 -46.56792034 -12.61222404
v 25.51736223 -47.01721646 -12.56602534
v 24.85126844 -47.01721646 -12.49672896
v 2.55836709 48.84302745 -12.61311273
v 2.55836709 51.06954819 -12.61222404
v 2.55836709 52.18779852 -12.58646028
v 25.51736223 -48.36511146 -6.95114693
v 10.82549541 -34.25715352 -4.23965739
v 9.69880334 -33.18882276 -4.20767403
v 8.57447335 -32.08055236 -4.20056657
v 7.45250879 -30.97228195 -4.19345911
v 6.34943432 -29.86401155 -4.19701304
v 6.24786762 -29.17509083 -4.08151713
v 6.20299116 -28.06682209 -4.03887237
v 6.20299116 51.06954819 -4.03887237
v 1.88046616 32.11915216 -6.48827458
v 1.88282493 51.06954819 -6.49005114
v 1.93479099 51.67859625 -6.52736540
v 1.79778956 51.83834155 -7.13060956
v 1.71984379 52.21775159 -8.30333755
v 1.82613468 52.89669238 -9.35968093
v 2.55836709 53.18623655 -10.47377268
v 2.55836709 53.17625663 -11.58875313
v 2.55836709 52.94661196 -12.35369107
v 5.90301192 -7.99817490 -12.61311273
v 25.51736223 51.06954819 -12.61222404
v 3.67324870 34.35565947 -12.61311273
v 25.51736223 51.51884430 -12.60245175
v 25.51736223 52.49731584 -12.49317419
v 25.51736223 52.18779852 -12.58646028
v 25.51736223 -47.75606339 -6.45717950
v 10.41686318 -33.58819931 -4.04153762
v 9.29489529 -32.47992890 -4.01488475
v 8.17528950 -31.37165850 -4.00688859
v 7.05568370 -30.25340816 -4.00422335
v 7.01789353 -29.17509083 -3.67816971
v 7.01789353 -28.06682209 -3.63552495
v 7.01789353 51.06954819 -3.63552495
v 6.21716372 52.18779852 -4.05397557
v 6.30691996 52.88670581 -4.16147574
v 1.93951517 52.79684658 -8.71468070
v 7.01789353 53.18623655 -4.90153820
v 2.55836709 53.05644433 -9.35968093
v 8.13277514 53.19622313 -4.90153820
v 4.78813031 53.19622313 -10.47377268
v 25.51736223 53.17625663 -11.58875313
v 25.51736223 52.94661196 -12.35369107
v 25.51736223 -46.97727681 -6.28126997
v 10.36253503 -32.51986855 -3.64618594
v 9.24765342 -31.41159814 -3.63197102
v 8.13277514 -30.29334117 -3.62664052
v 8.13277514 -29.17509083 -3.53779748
v 8.13277514 51.06954819 -3.53779748
v 7.01789353 52.18779852 -3.69149594
v 7.01789353 52.95659853 -4.04509114
v 8.13277514 52.96658510 -4.02110351
v 9.24765342 53.19622313 -4.90153820
v 25.51736223 53.19622313 -10.47377268
v 25.51736223 -45.89896612 -6.25639406
v 10.36253503 -31.41159814 -3.54579364
v 9.24765342 -30.29334117 -3.53779748
v 9.24765342 51.06954819 -3.53779748
v 8.13277514 52.18779852 -3.61775651
v 9.24765342 52.96658510 -4.02110351
v 25.51736223 53.19622313 -8.24470132
v 10.36253503 52.96658510 -4.02199221
v 25.51736223 52.99653818 -7.13060956
v 25.51736223 49.96127778 -6.25639406
v 10.36253503 51.06954819 -3.54579364
v 10.36253503 52.18779852 -3.62308700
v 9.24765342 52.18779852 -3.61775651
v 25.51736223 52.76689351 -6.51315048
v 25.51736223 51.06954819 -6.25728276
v 25.51736223 52.18779852 -6.35500981
f 1 2 3
f 1 3 4
f 1 4 5
f 1 5 6
f 1 6 7
f 1 7 24
f 1 24 8
f 1 8 11
f 1 11 2
f 2 9 10
f 2 10 3
f 2 11 28
f 2 28 9
f 3 10 12
f 3 12 13
f 3 13 14
f 3 14 15
f 3 15 4
f 4 16 5
f 4 15 17
f 4 17 18
f 4 18 19
f 4 19 16
f 5 16 20
f 5 20 21
f 5 21 6
f 6 21 22
f 6 22 7
f 7 22 23
f 7 23 24
f 8 24 25
f 8 25 26
f 8 26 11
f 9 27 10
f 9 28 50
f 9 50 27
f 10 27 29
f 10 29 30
f 10 30 31
f 10 31 32
f 10 32 33
f 10 33 12
f 11 26 34
f 11 34 28
f 12 33 13
f 13 33 30
f 13 30 29
f 13 29 48
f 13 48 47
f 13 47 72
f 13 72 74
f 13 74 76
f 13 76 75
f 13 75 93
f 13 93 92
f 13 92 104
f 13 104 111
f 13 111 113
f 13 113 118
f 13 118 120
f 13 120 119
f 13 119 114
f 13 114 105
f 13 105 94
f 13 94 77
f 13 77 53
f 13 53 36
f 13 36 18
f 13 18 17
f 13 17 15
f 13 15 14
f 16 35 20
f 16 19 36
f 16 36 35
f 18 36 19
f 20 35 37
f 20 37 38
f 20 38 39
f 20 39 21
f 21 39 22
f 22 39 23
f 23 39 40
f 23 40 41
f 23 41 24
f 24 41 42
f 24 42 25
f 25 42 43
f 25 43 44
f 25 44 26
f 26 44 45
f 26 45 34
f 27 46 47
f 27 47 48
f 27 48 49
f 27 49 29
f 27 50 73
f 27 73 71
f 27 71 46
f 28 34 51
f 28 51 50
f 29 49 48
f 30 33 31
f 31 33 32
f 34 52 51
f 34 45 52
f 35 36 37
f 36 53 54
f 36 54 37
f 37 39 38
f 37 54 55
f 37 55 56
f 37 56 57
f 37 57 39
f 39 57 58
f 39 58 59
f 39 59 60
f 39 60 40
f 40 60 61
f 40 61 62
f 40 62 63
f 40 63 41
f 41 63 64
f 41 64 65
f 41 65 42
f 42 65 66
f 42 66 67
f 42 67 43
f 43 67 68
f 43 68 69
f 43 69 44
f 44 69 45
f 45 69 70
f 45 70 52
f 46 71 72
f 46 72 47
f 50 51 72
f 50 72 73
f 51 52 74
f 51 74 72
f 52 75 76
f 52 76 74
f 52 70 75
f 53 77 54
f 54 77 78
f 54 78 55
f 55 78 79
f 55 79 56
f 56 79 57
f 57 79 80
f 57 80 81
f 57 81 58
f 58 81 82
f 58 82 59
f 59 82 60
f 60 82 83
f 60 83 84
f 60 84 61
f 61 84 85
f 61 85 63
f 61 63 62
f 63 85 64
f 64 85 86
f 64 86 87
f 64 87 65
f 65 87 67
f 65 67 66
f 67 87 86
f 67 86 88
f 67 88 89
f 67 89 68
f 68 88 90
f 68 90 91
f 68 91 69
f 68 89 88
f 69 91 104
f 69 104 92
f 69 92 93
f 69 93 70
f 70 93 75
f 71 73 72
f 77 94 95
f 77 95 78
f 78 95 79
f 79 96 80
f 79 95 96
f 80 96 97
f 80 97 81
f 81 97 82
f 82 98 83
f 82 97 98
f 83 98 99
f 83 99 84
f 84 99 100
f 84 100 85
f 85 100 86
f 86 101 88
f 86 100 101
f 88 101 102
f 88 102 90
f 90 103 111
f 90 111 104
f 90 104 91
f 90 102 110
f 90 110 103
f 94 105 106
f 94 106 95
f 95 106 96
f 96 106 107
f 96 107 97
f 97 107 98
f 98 107 108
f 98 108 99
f 99 108 117
f 99 117 109
f 99 109 100
f 100 109 101
f 101 109 102
f 102 109 117
f 102 117 110
f 103 110 112
f 103 112 113
f 103 113 111
f 105 114 115
f 105 115 106
f 106 115 108
f 106 108 107
f 108 115 116
f 108 116 117
f 110 117 112
f 112 118 113
f 112 117 116
f 112 116 118
f 114 119 115
f 115 119 116
f 116 119 120
f 116 120 118

