# https://github.com/mikedh/trimesh
v 113.20692498 -25.64169612 5.69216264
v 112.91709842 -25.64169612 5.96338148
v 112.91709842 -26.62223407 8.47612584
v 113.67651650 -27.25787645 9.36782200
v 113.72421020 -25.93494124 5.69216264
v 76.60817640 -25.64169612 5.69216264
v 95.08364710 -25.64169612 8.70976880
v 112.91709842 -27.12208265 9.54028390
v 113.63615826 -28.30755963 10.28842307
v 113.81592986 -27.98932150 9.67998795
v 114.08374011 -28.06929880 8.47612584
v 113.77923934 -27.07793043 8.47612584
v 112.91709842 -27.58860943 10.09765494
v 113.82693303 -26.21985591 5.69216264
v 76.60817640 -34.15163338 5.69216264
v 76.60817640 -25.64169612 5.96964386
v 93.96837014 -25.64169612 8.80852491
v 100.65270306 -27.10125569 10.37272755
v 113.69486176 -29.18396114 10.35104928
v 112.91709842 -28.14594226 10.35923854
v 112.91709842 -29.18396114 10.57264838
v 113.95533657 -29.18396114 9.59086709
v 114.08374011 -28.06929880 5.69216264
v 114.07640467 -27.51446593 5.69216264
v 113.99202045 -29.18396114 8.47612584
v 76.60817640 -34.15163338 10.54085397
v 105.81086768 -34.15163338 5.69216264
v 76.60817640 -26.59057670 9.59086709
v 91.79650978 -25.64169612 8.67604667
v 92.85308987 -25.64169612 8.78106515
v 76.60817640 -27.10375566 10.38043509
v 93.96837014 -26.58058016 9.87653756
v 100.65270306 -28.06929880 10.60396190
v 77.24652805 -27.10375566 10.38043509
v 95.08364710 -27.11541829 10.38043509
v 95.08364710 -28.06929880 10.61263288
v 112.91709842 -30.29779293 10.48786217
v 112.61626869 -32.52795482 10.35827509
v 113.57746139 -30.29779293 10.25518349
v 111.80182147 -29.18396114 10.59191805
v 111.80182147 -30.29779293 10.61263288
v 111.80182147 -31.41245860 10.61263288
v 111.80182147 -32.52795482 10.59047288
v 113.48207401 -30.88511705 10.16124459
v 113.69852949 -30.29779293 9.59086709
v 113.99202045 -29.18396114 7.36186632
v 114.00303027 -28.62912828 5.69216264
v 113.71320703 -30.29779293 8.47612584
v 103.99854056 -34.15163338 10.61263288
v 76.60817640 -32.52795482 10.61263288
v 113.54811296 -29.82543733 5.69216264
v 111.81282796 -34.15163338 7.62007787
v 76.60817640 -26.88382182 10.04225537
v 92.07532985 -25.64169612 8.71314084
v 76.60817640 -27.65608856 10.51339504
v 77.24652805 -28.06929880 10.61311460
v 111.80182147 -33.64262048 10.47726431
v 111.80916024 -34.15163338 10.40596713
v 112.13200296 -34.15163338 10.29083167
v 112.45484567 -33.64262048 10.24458480
v 110.68654452 -34.15163338 10.61263288
v 111.29187503 -34.15163338 10.53892708
v 113.49308382 -30.91427611 9.59086709
v 112.37046810 -34.15163338 10.16076287
v 112.38147127 -34.15163338 10.09669150
v 113.91865269 -29.18396114 6.24712507
v 113.65450352 -30.31445383 7.44327965
v 113.83426848 -29.23311329 5.69216264
v 113.48941610 -30.90427625 7.86913589
v 112.39248108 -34.15163338 9.59086709
v 112.39981653 -34.15163338 8.47612584
v 76.60817640 -28.06929880 10.61263288
v 113.67284878 -29.62382882 5.69216264
v 112.37780355 -34.15163338 7.89659481
f 1 2 3
f 1 3 4
f 1 4 5
f 1 5 14
f 1 14 24
f 1 24 23
f 1 23 47
f 1 47 68
f 1 68 73
f 1 73 51
f 1 51 27
f 1 27 15
f 1 15 6
f 1 6 16
f 1 16 29
f 1 29 54
f 1 54 30
f 1 30 17
f 1 17 7
f 1 7 2
f 2 7 3
f 3 8 4
f 3 7 8
f 4 9 10
f 4 10 11
f 4 11 12
f 4 12 5
f 4 8 13
f 4 13 9
f 5 12 14
f 6 15 26
f 6 26 50
f 6 50 72
f 6 72 55
f 6 55 31
f 6 31 53
f 6 53 28
f 6 28 16
f 7 17 8
f 8 18 13
f 8 17 18
f 9 19 10
f 9 13 20
f 9 20 21
f 9 21 19
f 10 19 22
f 10 22 11
f 11 23 24
f 11 24 14
f 11 14 12
f 11 22 25
f 11 25 46
f 11 46 23
f 13 18 20
f 15 27 52
f 15 52 74
f 15 74 71
f 15 71 70
f 15 70 65
f 15 65 64
f 15 64 59
f 15 59 58
f 15 58 62
f 15 62 61
f 15 61 49
f 15 49 26
f 16 28 29
f 17 30 31
f 17 31 32
f 17 32 18
f 18 33 20
f 18 32 34
f 18 34 35
f 18 35 36
f 18 36 33
f 19 21 37
f 19 37 38
f 19 38 39
f 19 39 22
f 20 33 21
f 21 33 40
f 21 40 41
f 21 41 42
f 21 42 43
f 21 43 37
f 22 39 44
f 22 44 45
f 22 45 25
f 23 46 47
f 25 45 48
f 25 48 46
f 26 49 50
f 27 51 52
f 28 53 30
f 28 30 54
f 28 54 29
f 30 53 31
f 31 55 56
f 31 56 34
f 31 34 32
f 33 41 40
f 33 36 41
f 34 56 36
f 34 36 35
f 36 56 41
f 37 43 38
f 38 43 57
f 38 57 58
f 38 58 59
f 38 59 60
f 38 60 39
f 39 60 44
f 41 56 42
f 42 56 61
f 42 61 43
f 43 61 62
f 43 62 57
f 44 63 45
f 44 60 64
f 44 64 65
f 44 65 63
f 45 63 48
f 46 66 47
f 46 48 67
f 46 67 66
f 47 66 68
f 48 69 67
f 48 63 70
f 48 70 71
f 48 71 69
f 49 61 56
f 49 56 50
f 50 56 72
f 51 73 74
f 51 74 52
f 55 72 56
f 57 62 58
f 59 64 60
f 63 65 70
f 66 67 74
f 66 74 68
f 67 69 74
f 68 74 73
f 69 71 74

