# https://github.com/mikedh/trimesh
v 64.15876989 -29.76061763 -0.05677248
v 64.15876989 -32.54426024 7.26539091
v 64.15876989 -25.31626872 -0.05677248
v 66.35593929 -32.54426024 -0.05677248
v 64.15876989 -32.54426024 8.17413251
v 64.15876989 -25.31626872 5.66516924
v 76.60695881 -25.31626872 -0.05677248
v 76.60695881 -32.54426024 -0.05677248
v 64.96793271 -32.54426024 10.61206810
v 64.15876989 -32.54001445 10.61206810
v 64.15876989 -26.59983073 8.47600209
v 70.55651747 -26.59416968 9.59051743
v 72.78537040 -26.59063152 9.59051743
v 67.21262845 -25.31626872 5.66516924
v 76.60695881 -25.31626872 5.65054569
v 76.60695881 -32.54426024 10.61102326
v 70.53945625 -32.54426024 10.61206810
v 76.60695881 -28.70631326 10.61311294
v 64.15876989 -30.29838429 10.61206810
v 64.15876989 -27.11283029 9.55291329
v 70.55651747 -27.10433871 10.38018260
v 71.67033431 -27.10363108 10.38018260
v 76.60695881 -26.59063152 9.59051743
v 68.33741275 -25.31626872 5.66412441
v 76.60695881 -32.52798804 10.61206810
v 76.60695881 -28.06948651 10.61311294
v 64.15876989 -30.00756438 10.60580074
v 70.55651747 -28.06948651 10.61206810
v 64.15876989 -27.57559133 10.10964896
v 64.15876989 -27.98811388 10.29139728
v 64.15876989 -28.13317001 10.35511318
v 76.60695881 -27.10363108 10.38018260
v 64.15876989 -29.18322693 10.58699951
v 64.15876989 -28.91009782 10.52746129
f 1 2 5
f 1 5 10
f 1 10 19
f 1 19 27
f 1 27 33
f 1 33 34
f 1 34 31
f 1 31 30
f 1 30 29
f 1 29 20
f 1 20 11
f 1 11 6
f 1 6 3
f 1 3 7
f 1 7 8
f 1 8 4
f 1 4 2
f 2 4 8
f 2 8 16
f 2 16 17
f 2 17 9
f 2 9 5
f 3 6 14
f 3 14 24
f 3 24 15
f 3 15 7
f 5 9 10
f 6 11 12
f 6 12 13
f 6 13 23
f 6 23 14
f 7 15 23
f 7 23 32
f 7 32 26
f 7 26 18
f 7 18 25
f 7 25 16
f 7 16 8
f 9 17 18
f 9 18 10
f 10 18 26
f 10 26 19
f 11 20 12
f 12 21 13
f 12 20 21
f 13 21 22
f 13 22 32
f 13 32 23
f 14 23 24
f 15 24 23
f 16 25 17
f 17 25 18
f 19 26 28
f 19 28 27
f 20 29 21
f 21 28 26
f 21 26 22
f 21 29 30
f 21 30 31
f 21 31 28
f 22 26 32
f 27 28 33
f 28 31 34
f 28 34 33

