# https://github.com/mikedh/trimesh
v 34.41228587 -32.51664600 -1.49923885
v 37.11278843 -32.51881873 -7.36113669
v 37.11278843 -32.51664600 -7.77780411
v 33.74507083 -32.51664600 -1.49923885
v 34.40635073 -52.59317265 -1.49923885
v 37.11278843 -52.59317265 -7.37184336
v 37.11278843 -32.51664600 -10.61239286
v 33.74507083 -32.51664600 -10.61417772
v 33.74507083 -54.52674063 -1.49923885
v 34.39382433 -53.70768882 -1.49923885
v 37.11278843 -53.70768882 -7.39147224
v 37.11278843 -52.59317265 -10.61239286
v 33.74507083 -51.47865649 -10.61417772
v 33.74507083 -54.70706372 -7.13005143
v 33.77012364 -54.70706372 -7.13005143
v 37.11278843 -54.70923645 -9.36060617
v 37.11278843 -54.63971581 -8.24622123
v 33.77012364 -54.52239517 -1.49923885
v 34.39184595 -53.73810701 -1.49923885
v 34.35459563 -54.30079691 -1.49923885
v 37.11278843 -54.41594150 -7.54939531
v 37.11278843 -53.70768882 -10.54726087
v 34.88500525 -52.59317265 -10.61239286
v 33.74507083 -52.59317265 -10.60793196
v 33.74507083 -54.70923645 -8.24443637
v 34.88500525 -54.70923645 -8.24443637
v 33.74507083 -54.70923645 -9.35971415
v 33.74507083 -54.70489099 -9.37845060
v 37.11278843 -54.48763486 -10.19929475
v 33.80012323 -54.51153154 -1.49923885
v 33.74507083 -54.47025636 -10.20732454
v 34.88500525 -53.70768882 -10.54726087
v 33.74507083 -53.68161941 -10.54369198
v 33.74507083 -54.48763486 -10.19929475
v 33.74507083 -53.70768882 -10.54190796
f 1 2 3
f 1 3 7
f 1 7 8
f 1 8 4
f 1 4 9
f 1 9 18
f 1 18 30
f 1 30 20
f 1 20 19
f 1 19 10
f 1 10 5
f 1 5 6
f 1 6 2
f 2 6 11
f 2 11 21
f 2 21 17
f 2 17 16
f 2 16 29
f 2 29 22
f 2 22 12
f 2 12 7
f 2 7 3
f 4 8 13
f 4 13 24
f 4 24 33
f 4 33 35
f 4 35 31
f 4 31 34
f 4 34 28
f 4 28 27
f 4 27 25
f 4 25 14
f 4 14 9
f 5 10 11
f 5 11 6
f 7 12 13
f 7 13 8
f 9 14 15
f 9 15 16
f 9 16 17
f 9 17 18
f 10 19 11
f 11 19 20
f 11 20 21
f 12 22 32
f 12 32 23
f 12 23 13
f 13 23 24
f 14 25 26
f 14 26 15
f 15 26 16
f 16 26 25
f 16 25 27
f 16 27 28
f 16 28 29
f 17 21 20
f 17 20 30
f 17 30 18
f 22 29 31
f 22 31 32
f 23 32 24
f 24 32 33
f 28 34 29
f 29 34 31
f 31 35 32
f 32 35 33

