# https://github.com/mikedh/trimesh
v 56.46902746 -50.21219030 62.70648742
v 65.73149376 -69.27158489 62.70690519
v 65.73149376 -51.43576830 62.70606965
v 56.46902746 -50.21219030 59.22543273
v 35.92823239 -50.21219030 62.70648742
v 64.98174485 -69.27158489 62.70690519
v 65.73149376 -71.49877046 62.70690519
v 65.73149376 -51.43576830 58.44077565
v 35.92823239 -50.21219030 58.86504977
v 35.92823239 -71.50106279 62.70648742
v 43.80497548 -71.50106279 62.70690519
v 56.46902746 -71.50106279 62.70690519
v 65.73149376 -72.61694791 62.68101434
v 65.73149376 -71.49877046 58.45831445
v 35.92823239 -71.50106279 59.19578363
v 35.92823239 -72.61694791 62.68059658
v 56.46902746 -72.61694791 62.68101434
v 65.73149376 -72.86670530 62.60459512
v 65.73149376 -72.60778192 58.54183325
v 35.92823239 -72.61694791 59.26134586
v 35.92823239 -73.37767507 62.44799759
v 56.46902746 -73.37767507 62.44799759
v 65.73149376 -73.37538275 62.44799759
v 65.73149376 -72.84149966 58.59194469
v 35.92823239 -73.30893182 59.61003546
v 35.92823239 -73.59993450 61.68380286
v 56.46902746 -73.51973626 61.96150173
v 65.73149376 -73.45099633 62.19744203
v 65.73149376 -73.18290697 58.77025621
v 35.92823239 -73.39829605 59.66557623
v 35.92823239 -73.60222351 61.61239436
v 65.73149376 -73.59993450 61.68380286
v 65.73149376 -73.42808302 59.41919587
v 35.92823239 -73.60451583 60.49073939
v 35.92823239 -73.61826315 60.56966440
v 65.73149376 -73.62055548 60.56924663
v 65.73149376 -73.60680816 61.31799140
f 1 2 3
f 1 3 8
f 1 8 4
f 1 4 9
f 1 9 5
f 1 5 6
f 1 6 2
f 2 6 11
f 2 11 12
f 2 12 7
f 2 7 13
f 2 13 18
f 2 18 23
f 2 23 28
f 2 28 32
f 2 32 37
f 2 37 36
f 2 36 33
f 2 33 29
f 2 29 24
f 2 24 19
f 2 19 14
f 2 14 8
f 2 8 3
f 4 8 9
f 5 9 15
f 5 15 20
f 5 20 25
f 5 25 30
f 5 30 34
f 5 34 35
f 5 35 31
f 5 31 26
f 5 26 21
f 5 21 16
f 5 16 10
f 5 10 11
f 5 11 6
f 7 12 13
f 8 14 9
f 9 14 15
f 10 16 11
f 11 16 17
f 11 17 13
f 11 13 12
f 13 17 18
f 14 19 20
f 14 20 15
f 16 21 17
f 17 21 18
f 18 21 22
f 18 22 23
f 19 24 20
f 20 24 25
f 21 26 27
f 21 27 28
f 21 28 22
f 22 28 23
f 24 29 25
f 25 29 30
f 26 31 32
f 26 32 27
f 27 32 28
f 29 33 30
f 30 33 34
f 31 35 36
f 31 36 37
f 31 37 32
f 33 36 35
f 33 35 34

