# https://github.com/mikedh/trimesh
v 1.38681137 -21.33634070 42.73322323
v 1.38917679 -46.97629422 41.61913128
v 1.38917679 -36.94196760 43.84820388
v 1.38917679 32.16010507 43.84820388
v 1.38917679 32.16010507 41.61913128
v 1.42932907 -46.97629422 40.50415147
v 1.71513248 -48.05461174 40.50415147
v 1.69387695 -48.06459500 41.61913128
v 1.41988069 -46.97629422 42.73322323
v 1.42223946 -43.63151923 43.84820388
v 1.39389433 -40.28674259 43.84820388
v 1.57577225 -36.94196760 44.96229500
v 1.57341348 13.20970235 44.96229500
v 1.57577225 32.16010507 44.96229500
v 1.51908864 33.27835892 42.73322323
v 1.43641203 33.27835892 41.61913128
v 1.46712257 33.27835892 40.50415147
v 1.42932907 32.16010507 40.50415147
v 1.73639465 -46.97629422 39.71433666
v 1.82378880 -47.86490669 39.79162962
v 25.41819132 -67.58410956 40.21985302
v 25.51739927 -67.68395205 40.29448157
v 25.51739927 -67.69393862 40.55656853
v 25.51739927 -67.70392188 40.86396550
v 1.72694627 -47.99470558 42.73322323
v 25.51739927 -67.70392188 43.84820388
v 25.40638417 -67.59409281 44.41235690
v 1.50019189 -46.97629422 43.84820388
v 1.47184676 -45.85804037 43.84820388
v 1.58994482 -40.28674259 44.96229500
v 1.89701040 -46.59688744 45.59396911
v 1.88283783 -36.94196760 45.60374223
v 1.88047906 -21.33634070 45.60374223
v 1.88047906 13.20970235 45.60463051
v 1.88047906 32.16010507 45.60374223
v 1.93716932 32.76915656 45.56376271
v 1.80016786 32.92890521 44.96229500
v 1.71985667 33.30831200 43.79045549
v 1.82615422 33.98725291 42.73322323
v 1.74111884 34.05714232 41.61913128
v 1.75292598 34.04715907 40.50415147
v 1.74820180 33.27835892 39.72677503
v 1.84268556 33.96728308 39.80850979
v 1.73639465 32.16010507 39.71433666
v 2.55838344 -46.97629422 39.48067954
v 25.51739927 -66.72545017 39.64326288
v 25.51739927 -67.01499772 39.72233240
v 24.85130204 -66.75540325 39.82983259
v 24.29150236 -66.48582553 39.94532852
v 25.51739927 -67.63403246 40.16299416
v 1.80725747 -47.78503070 43.84820388
v 25.51739927 -67.67396880 44.50564175
v 1.90410000 -47.60531222 44.57493940
v 1.75765017 -46.96631097 44.95252270
v 7.45252600 -49.88175626 47.89944639
v 6.34945467 -48.77348899 47.89589245
v 6.25025004 -48.08456482 48.01138838
v 6.20537025 -46.97629422 48.05314446
v 6.20300816 -36.94196760 48.05314446
v 6.20300816 28.81533008 48.05314446
v 6.20300816 32.16010507 48.05225618
v 6.21718072 33.27835892 48.03715298
v 6.30693697 33.97726966 47.93142976
v 1.93952809 33.88740709 43.38000096
v 7.01791067 34.27680046 47.19136717
v 2.55838344 34.14700156 42.73322323
v 2.55838344 34.27680046 41.61913128
v 2.55838344 34.26681720 40.50415147
v 2.55838344 33.27835892 39.50644414
v 2.55838344 32.16010507 39.48067954
v 2.55838344 34.03717582 39.74010126
v 25.51739927 -65.47740074 39.48067954
v 25.51739927 -65.92669694 39.52776611
v 24.85130204 -65.92669694 39.59706417
v 25.51739927 -67.27459218 45.14175808
v 10.82551988 -53.16662842 47.85413638
v 9.69882428 -52.09829415 47.88523147
v 8.57449409 -50.99002687 47.89233893
v 8.17531017 -50.28113288 48.08690521
v 7.05570417 -49.16287902 48.08868177
v 7.01791067 -48.08456482 48.41473587
v 7.01791067 -46.97629422 48.45649195
v 7.01791067 -24.68111652 48.45738064
v 7.01791067 2.06710678 48.45738064
v 7.01791067 32.16010507 48.45649195
v 7.01791067 33.27835892 48.40052095
v 7.01791067 34.04715907 48.04692569
v 9.24767760 34.27680046 47.19136717
v 8.13279247 34.05714232 48.07269029
v 25.51739927 34.27680046 41.61913128
v 25.51739927 34.26681720 40.50415147
v 25.51739927 33.58787630 39.60061728
v 25.51739927 33.27835892 39.50644414
v 25.51739927 32.16010507 39.48067954
v 25.51739927 34.03717582 39.74010126
v 25.51739927 -66.66554401 45.63572560
v 10.41688425 -52.49767076 48.05136791
v 9.29491616 -51.38940348 48.07802078
v 9.24767760 -50.32107253 48.46182286
v 8.13279247 -49.20281868 48.46715335
v 8.13279247 -48.08456482 48.55599641
v 8.13279247 32.16010507 48.55599641
v 8.13279247 33.27835892 48.47603736
v 25.51739927 34.27680046 43.84820388
v 9.24767760 34.05714232 48.07269029
v 10.36255941 34.05714232 48.07180160
v 25.51739927 34.08709540 44.96229500
v 25.51739927 -65.88676061 45.81163474
v 10.36255941 -51.42933981 48.44760793
v 10.36255941 -50.32107253 48.54800025
v 9.24767760 -49.20281868 48.55599641
v 9.24767760 32.16010507 48.55599641
v 9.24767760 33.27835892 48.47603736
v 25.51739927 33.85745401 45.57975418
v 10.36255941 33.27835892 48.47070687
v 25.51739927 -64.80844309 45.83651065
v 10.36255941 32.16010507 48.54800025
v 25.51739927 33.27835892 45.73789488
v 25.51739927 32.16010507 45.83651065
f 1 2 3
f 1 3 4
f 1 4 5
f 1 5 2
f 2 6 7
f 2 7 8
f 2 8 9
f 2 9 10
f 2 10 11
f 2 11 3
f 2 5 18
f 2 18 6
f 3 11 12
f 3 12 13
f 3 13 4
f 4 13 14
f 4 14 15
f 4 15 16
f 4 16 5
f 5 16 17
f 5 17 18
f 6 19 20
f 6 20 7
f 6 18 44
f 6 44 19
f 7 20 21
f 7 21 22
f 7 22 23
f 7 23 24
f 7 24 8
f 8 25 9
f 8 24 26
f 8 26 27
f 8 27 25
f 9 25 28
f 9 28 29
f 9 29 10
f 10 29 30
f 10 30 11
f 11 30 12
f 12 30 31
f 12 31 32
f 12 32 33
f 12 33 13
f 13 34 35
f 13 35 14
f 13 33 34
f 14 35 36
f 14 36 37
f 14 37 15
f 15 37 38
f 15 38 39
f 15 39 40
f 15 40 16
f 16 40 41
f 16 41 17
f 17 42 18
f 17 41 43
f 17 43 42
f 18 42 44
f 19 45 20
f 19 44 70
f 19 70 45
f 20 45 46
f 20 46 47
f 20 47 48
f 20 48 49
f 20 49 50
f 20 50 21
f 21 50 22
f 22 50 47
f 22 47 46
f 22 46 73
f 22 73 72
f 22 72 94
f 22 94 93
f 22 93 92
f 22 92 95
f 22 95 91
f 22 91 90
f 22 90 104
f 22 104 107
f 22 107 114
f 22 114 118
f 22 118 119
f 22 119 116
f 22 116 108
f 22 108 96
f 22 96 75
f 22 75 52
f 22 52 26
f 22 26 24
f 22 24 23
f 25 51 28
f 25 27 52
f 25 52 51
f 26 52 27
f 28 51 53
f 28 53 54
f 28 54 31
f 28 31 30
f 28 30 29
f 31 54 53
f 31 53 55
f 31 55 56
f 31 56 57
f 31 57 58
f 31 58 32
f 32 58 59
f 32 59 33
f 33 59 34
f 34 60 35
f 34 59 60
f 35 60 61
f 35 61 62
f 35 62 36
f 36 62 63
f 36 63 64
f 36 64 37
f 37 64 39
f 37 39 38
f 39 64 63
f 39 63 65
f 39 65 66
f 39 66 67
f 39 67 40
f 40 67 68
f 40 68 41
f 41 68 43
f 42 69 70
f 42 70 44
f 42 43 69
f 43 68 71
f 43 71 69
f 45 72 73
f 45 73 74
f 45 74 46
f 45 70 94
f 45 94 72
f 46 74 73
f 47 50 48
f 48 50 49
f 51 52 53
f 52 75 76
f 52 76 53
f 53 76 77
f 53 77 78
f 53 78 55
f 55 78 79
f 55 79 80
f 55 80 56
f 56 80 81
f 56 81 57
f 57 81 58
f 58 82 59
f 58 81 82
f 59 82 83
f 59 83 84
f 59 84 60
f 60 84 85
f 60 85 61
f 61 85 62
f 62 85 86
f 62 86 63
f 63 87 65
f 63 86 87
f 65 88 104
f 65 104 90
f 65 90 67
f 65 67 66
f 65 87 89
f 65 89 105
f 65 105 88
f 67 90 91
f 67 91 68
f 68 91 95
f 68 95 71
f 69 92 93
f 69 93 94
f 69 94 70
f 69 71 92
f 71 95 92
f 75 96 76
f 76 96 97
f 76 97 77
f 77 97 98
f 77 98 78
f 78 98 79
f 79 98 99
f 79 99 100
f 79 100 80
f 80 100 81
f 81 101 82
f 81 100 101
f 82 101 83
f 83 101 102
f 83 102 84
f 84 102 85
f 85 102 86
f 86 102 103
f 86 103 87
f 87 103 89
f 88 105 106
f 88 106 107
f 88 107 104
f 89 103 113
f 89 113 105
f 96 108 109
f 96 109 97
f 97 109 98
f 98 109 99
f 99 109 110
f 99 110 111
f 99 111 100
f 100 111 101
f 101 111 112
f 101 112 102
f 102 112 113
f 102 113 103
f 105 113 106
f 106 114 107
f 106 113 115
f 106 115 114
f 108 116 110
f 108 110 109
f 110 116 119
f 110 119 117
f 110 117 112
f 110 112 111
f 112 117 115
f 112 115 113
f 114 115 118
f 115 117 119
f 115 119 118

