# https://github.com/mikedh/trimesh
v 33.74507083 -20.26578866 7.66071435
v 33.74507083 -19.24742399 7.34471539
v 32.65510084 -20.26578866 7.65882650
v 33.74507083 -25.73104040 6.06686926
v 33.74507083 -18.79603155 6.27082076
v 32.65510084 -19.25494548 7.34282672
v 31.84192436 -19.41156458 7.16216559
v 31.75090735 -20.26578866 7.23077926
v 32.23841390 -25.73104040 5.84969825
v 32.65510084 -25.73104040 6.03980153
v 33.74507083 -25.73104040 1.23056875
v 33.74507083 -18.78577256 6.24627126
v 32.65510084 -18.80081886 6.24627126
v 31.36688608 -20.26578866 6.24627126
v 31.71400088 -19.26247029 6.24627126
v 31.66587364 -25.73104040 5.22399469
v 33.74507083 -18.78166962 1.23056875
v 31.19756782 -25.73104040 1.23056875
v 32.68926316 -18.74405386 1.23056875
v 31.56587834 -19.13389067 1.23056875
v 31.19756782 -20.26578866 1.23056875
v 31.32997961 -25.73104040 4.01728005
f 1 2 3
f 1 3 4
f 1 4 11
f 1 11 17
f 1 17 12
f 1 12 5
f 1 5 2
f 2 5 6
f 2 6 3
f 3 6 7
f 3 7 8
f 3 8 9
f 3 9 10
f 3 10 4
f 4 10 9
f 4 9 16
f 4 16 22
f 4 22 18
f 4 18 11
f 5 12 6
f 6 12 13
f 6 13 7
f 7 14 8
f 7 13 15
f 7 15 14
f 8 14 16
f 8 16 9
f 11 18 21
f 11 21 20
f 11 20 19
f 11 19 17
f 12 17 19
f 12 19 13
f 13 20 15
f 13 19 20
f 14 15 20
f 14 20 21
f 14 21 18
f 14 18 22
f 14 22 16

