# https://github.com/mikedh/trimesh
v 35.92823239 -71.50261094 62.70690353
v 33.74511598 -71.50261094 62.70690353
v 35.92823239 -72.61450940 62.68081916
v 35.92823239 -49.20831694 62.70571750
v 33.74511598 -72.61450940 62.68081916
v 33.74511598 -49.20831694 62.70571750
v 35.92823239 -73.37806045 62.44725092
v 35.92823239 -48.09641516 62.68437642
v 33.74511598 -73.37806045 62.44725092
v 33.74511598 -48.12104605 62.68437642
v 35.92823239 -73.59973849 61.68370818
v 33.74511598 -48.09641516 62.68319122
v 35.92823239 -47.11822584 62.46622159
v 33.74511598 -47.07248228 62.45555147
v 33.74511598 -73.59973849 61.68370818
v 35.92823239 -73.61732961 60.56803485
v 35.92823239 -47.05136961 62.45080818
v 33.74511598 -47.05136961 62.45080818
v 33.74511598 -73.61732961 60.56803485
v 35.92823239 -73.60677494 60.48978343
v 33.74511598 -73.61732961 59.42864840
v 33.74511598 -73.43788023 50.59455125
v 33.77011896 -73.43084046 50.59455125
v 33.80067668 -73.42028579 50.59455125
v 34.35457611 -73.20916574 50.59455125
v 35.92823239 -38.15969019 59.43694812
v 33.74511598 -38.15969019 59.43694812
v 35.92823239 -73.39565489 59.66458787
v 33.74511598 -38.65934285 50.59455125
v 34.39218689 -72.64617674 50.59455125
v 35.92823239 -72.61450940 59.26028940
v 35.92823239 -73.31120422 59.60886355
v 35.92823239 -37.69522643 58.33905860
v 33.74511598 -37.69522643 58.33905860
v 33.74511598 -37.67763365 51.65212944
v 33.74554288 -37.67763365 50.59455125
v 35.92823239 -48.94441356 50.59455125
v 33.74511598 -37.67763365 51.67939900
v 35.92823239 -37.69522643 50.59455125
f 1 2 5
f 1 5 3
f 1 3 7
f 1 7 11
f 1 11 16
f 1 16 20
f 1 20 28
f 1 28 32
f 1 32 31
f 1 31 37
f 1 37 39
f 1 39 33
f 1 33 26
f 1 26 17
f 1 17 13
f 1 13 8
f 1 8 4
f 1 4 6
f 1 6 2
f 2 6 10
f 2 10 12
f 2 12 14
f 2 14 18
f 2 18 27
f 2 27 34
f 2 34 38
f 2 38 35
f 2 35 29
f 2 29 22
f 2 22 21
f 2 21 19
f 2 19 15
f 2 15 9
f 2 9 5
f 3 5 9
f 3 9 7
f 4 8 6
f 6 8 10
f 7 9 15
f 7 15 11
f 8 12 10
f 8 13 14
f 8 14 12
f 11 15 19
f 11 19 16
f 13 17 18
f 13 18 14
f 16 19 21
f 16 21 22
f 16 22 23
f 16 23 24
f 16 24 25
f 16 25 20
f 17 26 27
f 17 27 18
f 20 25 28
f 22 29 36
f 22 36 39
f 22 39 37
f 22 37 30
f 22 30 25
f 22 25 24
f 22 24 23
f 25 30 31
f 25 31 32
f 25 32 28
f 26 33 34
f 26 34 27
f 29 35 36
f 30 37 31
f 33 36 38
f 33 38 34
f 33 39 36
f 35 38 36

