# https://github.com/mikedh/trimesh
v 96.18636608 -50.73168010 6.26343797
v 97.75618493 -54.39560623 6.26343797
v 96.18636608 -50.73168010 8.47616903
v 96.18636608 -34.15246394 6.26343797
v 98.42601621 -54.61089561 6.26343797
v 97.75618493 -54.39560623 8.47616903
v 97.76253368 -54.38755983 9.59083636
v 96.18636608 -50.61699397 9.57976674
v 96.18636608 -34.15246394 10.54073104
v 106.14019204 -34.15246394 6.26343797
v 104.00054053 -54.70344915 6.26343797
v 104.00054053 -54.70546241 7.36150088
v 104.00054053 -54.69942595 8.47616903
v 98.42601621 -54.59681275 7.36150088
v 98.42601621 -54.57870337 8.47616903
v 98.42601621 -54.54449786 9.59083636
v 97.80221419 -54.34329466 10.22736411
v 96.18636608 -50.61498403 9.59083636
v 96.18636608 -35.87275911 10.59821032
v 104.00054053 -34.15246394 10.61268603
v 111.81471498 -34.15246394 7.61994332
v 106.14019204 -34.16856338 6.26343797
v 104.01482605 -54.70143589 6.26343797
v 105.01004818 -54.48816309 6.26343797
v 105.01004818 -54.48816309 8.47616903
v 104.00054053 -54.66723371 9.59083636
v 104.99576266 -54.47407690 9.59083636
v 98.42601621 -54.39158303 10.27930775
v 98.42601621 -53.70748949 10.46366649
v 96.18636608 -49.24880689 10.61311210
v 96.18636608 -50.15221302 10.38064106
v 96.18636608 -50.15824948 10.37255147
v 96.18636608 -38.10210041 10.61311210
v 110.68615914 -34.15246394 10.61268603
v 112.37819889 -34.15246394 7.89669448
v 105.91321178 -52.59282050 6.26343797
v 106.04495415 -51.47814819 6.26343797
v 106.10844829 -50.36347920 6.26343797
v 106.12908256 -49.24880689 6.26343797
v 106.13225527 -48.13413791 6.26343797
v 106.13384329 -47.04562138 6.26343797
v 106.13543131 -45.93095239 6.26343797
v 105.56718334 -53.98515010 6.26343797
v 105.56718334 -54.10788595 7.36150088
v 105.56718334 -54.10788595 8.47616903
v 104.84021000 -54.39560623 10.28313992
v 104.00054053 -54.45194432 10.34402529
v 105.55448584 -54.09178983 9.59083636
v 104.00054053 -53.70748949 10.57649550
v 99.54028653 -51.47814819 10.61311210
v 100.65614487 -38.10210041 10.61311210
v 111.29249960 -34.15246394 10.53902758
v 108.45761850 -41.44611401 10.61311210
v 110.68615914 -34.75809012 10.61268603
v 112.39883316 -34.15246394 8.47616903
v 112.36550139 -34.22288821 7.90904232
v 105.74972235 -53.42781561 6.26343797
v 105.57194740 -53.97710370 6.26343797
v 105.80686442 -53.55055146 7.36150088
v 105.80686442 -53.55055146 8.47616903
v 105.80051567 -53.53445533 9.59083636
v 105.75289506 -53.39562336 10.23971112
v 105.17195292 -53.74370826 10.37680889
v 105.11322284 -52.59282050 10.56542589
v 105.11322284 -51.47814819 10.61311210
v 104.00054053 -52.59282050 10.61268603
v 111.80995425 -34.15246394 10.40576198
v 110.68615914 -35.87275911 10.58713987
v 107.34335150 -44.79012430 10.61311210
v 112.39407242 -34.15246394 9.44990641
v 112.37185014 -34.23697108 8.47616903
v 111.24329430 -37.54476591 7.95247029
v 107.27033589 -49.24880689 8.47616903
v 111.24647034 -37.55080238 8.69544092
v 111.24647034 -37.55080238 9.13398470
v 112.36867410 -34.22691141 9.59083636
v 112.36232868 -34.20880203 10.15157612
v 106.87510215 -50.07374566 10.24609807
v 105.87352795 -52.59282050 10.33295485
v 108.12111816 -45.90479661 10.34232183
v 110.36870505 -39.21677272 10.35083749
v 111.49249684 -35.87275911 10.35466966
v 107.34335150 -45.90479661 10.57479287
v 108.45761850 -42.56078300 10.57905028
v 112.13217239 -34.15246394 10.29080343
v 112.39248441 -34.15246394 9.59083636
v 112.38137493 -34.15246394 10.09665246
v 112.37026212 -34.15246394 10.16094310
v 111.36234249 -36.78823816 10.26866337
f 1 2 6
f 1 6 3
f 1 3 8
f 1 8 18
f 1 18 32
f 1 32 31
f 1 31 30
f 1 30 33
f 1 33 19
f 1 19 9
f 1 9 4
f 1 4 10
f 1 10 22
f 1 22 42
f 1 42 41
f 1 41 40
f 1 40 39
f 1 39 38
f 1 38 37
f 1 37 36
f 1 36 57
f 1 57 58
f 1 58 43
f 1 43 24
f 1 24 23
f 1 23 11
f 1 11 5
f 1 5 2
f 2 5 6
f 3 6 7
f 3 7 8
f 4 9 20
f 4 20 34
f 4 34 52
f 4 52 67
f 4 67 85
f 4 85 88
f 4 88 87
f 4 87 86
f 4 86 70
f 4 70 55
f 4 55 35
f 4 35 21
f 4 21 10
f 5 11 12
f 5 12 13
f 5 13 14
f 5 14 7
f 5 7 6
f 7 14 15
f 7 15 16
f 7 16 17
f 7 17 18
f 7 18 8
f 9 19 20
f 10 21 22
f 11 23 12
f 12 23 24
f 12 24 25
f 12 25 13
f 13 26 15
f 13 15 14
f 13 25 27
f 13 27 26
f 15 26 16
f 16 26 28
f 16 28 17
f 17 28 29
f 17 29 30
f 17 30 31
f 17 31 32
f 17 32 18
f 19 33 20
f 20 33 51
f 20 51 34
f 21 35 36
f 21 36 37
f 21 37 38
f 21 38 39
f 21 39 40
f 21 40 41
f 21 41 42
f 21 42 22
f 24 43 44
f 24 44 45
f 24 45 25
f 25 45 27
f 26 27 46
f 26 46 47
f 26 47 28
f 27 45 48
f 27 48 46
f 28 49 29
f 28 47 49
f 29 49 50
f 29 50 30
f 30 50 65
f 30 65 69
f 30 69 53
f 30 53 51
f 30 51 33
f 34 51 53
f 34 53 54
f 34 54 52
f 35 55 56
f 35 56 57
f 35 57 36
f 43 58 44
f 44 58 59
f 44 59 60
f 44 60 45
f 45 60 61
f 45 61 48
f 46 48 62
f 46 62 63
f 46 63 49
f 46 49 47
f 48 61 62
f 49 63 64
f 49 64 65
f 49 65 66
f 49 66 50
f 50 66 65
f 52 54 68
f 52 68 67
f 53 68 54
f 53 69 68
f 55 70 71
f 55 71 56
f 56 71 72
f 56 72 59
f 56 59 58
f 56 58 57
f 59 73 60
f 59 72 71
f 59 71 74
f 59 74 73
f 60 73 75
f 60 75 61
f 61 75 76
f 61 76 77
f 61 77 62
f 62 78 79
f 62 79 63
f 62 77 78
f 63 79 64
f 64 79 80
f 64 80 81
f 64 81 82
f 64 82 83
f 64 83 65
f 65 83 84
f 65 84 68
f 65 68 69
f 67 68 82
f 67 82 85
f 68 84 82
f 70 86 76
f 70 76 71
f 71 76 75
f 71 75 74
f 73 74 75
f 76 86 77
f 77 86 87
f 77 87 88
f 77 88 89
f 77 89 78
f 78 89 79
f 79 89 80
f 80 89 81
f 81 89 82
f 82 84 83
f 82 89 88
f 82 88 85

