# https://github.com/mikedh/trimesh
v 35.92823239 -48.94201825 50.59573728
v 35.92823239 -50.20990129 58.86427486
v 35.92823239 -44.21942152 50.59573728
v 56.47078615 -48.62065054 50.59573728
v 56.47078615 -50.20990129 59.22470516
v 35.92823239 -50.20990129 62.70688110
v 35.92823239 -44.21942152 57.75690292
v 56.47078615 -44.21942152 50.59573728
v 56.47078615 -50.20990129 62.70569507
v 36.00062177 -50.20990129 62.70688110
v 35.92823239 -49.20767576 62.70569507
v 35.92823239 -45.51017468 60.56801575
v 37.11461654 -45.50958831 60.56801575
v 52.72060390 -45.50841557 60.56801575
v 56.47078615 -44.21942152 57.75690292
v 56.47078615 -49.20767576 62.70569507
v 35.92823239 -48.09285375 62.68435400
v 35.92823239 -45.54242839 60.63678225
v 50.49060275 -46.02154977 61.64100527
v 56.47078615 -45.50841557 60.56801575
v 41.57461885 -46.02213614 61.64100527
v 56.47078615 -48.09285375 62.68316797
v 38.23062292 -48.09285375 62.68435400
v 35.92823239 -47.11525911 62.46619917
v 35.92823239 -46.02272251 61.64100527
v 53.83459868 -46.02154977 61.64100527
v 37.11461654 -46.49070118 62.19824850
v 56.47078615 -45.83447591 61.24974981
v 56.47078615 -47.05016365 62.44960056
v 52.72060390 -47.04957728 62.45078576
v 50.49060275 -47.04899091 62.45078576
v 35.92823239 -47.04840454 62.45078576
v 43.80462083 -47.04840454 62.45078576
v 35.92823239 -46.49128755 62.19824850
v 52.72060390 -46.49187392 62.19824850
v 56.47078615 -46.49246029 62.19824850
v 56.47078615 -46.02154977 61.63982007
v 40.45861413 -46.49070118 62.19824850
v 47.14660599 -46.49128755 62.19824850
v 35.92823239 -46.52647311 62.21484711
v 56.47078615 -46.84725612 62.35830778
v 56.06459983 -47.04957728 62.44960056
f 1 2 6
f 1 6 11
f 1 11 17
f 1 17 24
f 1 24 32
f 1 32 40
f 1 40 34
f 1 34 25
f 1 25 18
f 1 18 12
f 1 12 7
f 1 7 3
f 1 3 8
f 1 8 4
f 1 4 5
f 1 5 2
f 2 5 9
f 2 9 10
f 2 10 6
f 3 7 15
f 3 15 8
f 4 8 15
f 4 15 20
f 4 20 28
f 4 28 37
f 4 37 36
f 4 36 41
f 4 41 29
f 4 29 22
f 4 22 16
f 4 16 9
f 4 9 5
f 6 10 16
f 6 16 11
f 7 12 13
f 7 13 14
f 7 14 20
f 7 20 15
f 9 16 10
f 11 16 23
f 11 23 17
f 12 18 13
f 13 18 14
f 14 19 26
f 14 26 20
f 14 18 21
f 14 21 19
f 16 22 23
f 17 23 24
f 18 25 21
f 19 21 27
f 19 27 38
f 19 38 26
f 20 26 28
f 21 25 27
f 22 29 30
f 22 30 23
f 23 30 31
f 23 31 24
f 24 31 33
f 24 33 32
f 25 34 27
f 26 35 36
f 26 36 37
f 26 37 28
f 26 38 39
f 26 39 35
f 27 34 40
f 27 40 38
f 29 41 42
f 29 42 30
f 30 42 41
f 30 41 36
f 30 36 31
f 31 36 35
f 31 35 40
f 31 40 33
f 32 33 40
f 35 39 40
f 38 40 39

