# https://github.com/mikedh/trimesh
v 56.47073175 -51.42682822 44.71569620
v 64.15882418 -51.44855218 44.83932325
v 56.47073175 -51.42682822 41.48100858
v 37.11548032 -51.42682822 44.73575240
v 64.15882418 -71.50050798 44.82945918
v 64.15882418 -51.44855218 41.48100858
v 37.11283418 -51.42900095 44.73575240
v 56.47073175 -69.27154834 41.48067968
v 37.11283418 -51.42682822 41.48100858
v 37.11283418 -51.42682822 44.29549595
v 64.15882418 -72.32604822 44.81269072
v 37.11283418 -71.50268071 44.71931284
v 37.11283418 -72.61716053 44.69859884
v 64.15882418 -71.50050798 41.48100858
v 56.47073175 -71.50268071 41.48067968
v 51.60213577 -69.27154834 41.48067968
v 41.57372850 -70.38820089 41.48067968
v 37.11283418 -71.50268071 41.48067968
v 64.15882418 -72.61498780 44.79822373
v 37.11283418 -73.32539007 44.54077707
v 37.11548032 -73.32321734 44.54143446
v 64.15882418 -71.79162029 41.49777745
v 64.15882418 -72.61498780 41.54578178
v 56.47073175 -72.61716053 41.54578178
v 37.11283418 -72.61716053 41.54578178
v 64.15882418 -73.14507359 44.67328150
v 37.11283418 -73.54698173 43.84636171
v 37.11548032 -73.54698173 43.84767647
v 64.15882418 -73.34059584 44.58647952
v 64.15882418 -72.81920096 41.63619999
v 56.47073175 -72.90175465 41.67236727
v 37.11283418 -73.39708012 41.89364664
v 37.11283418 -73.61867179 42.73240348
v 37.11548032 -73.62084451 42.73338934
v 64.15882418 -73.56436024 43.84734758
v 64.15882418 -73.50570323 44.06533879
v 64.15882418 -73.39708012 41.89331774
v 56.47073175 -73.39708012 41.89331774
v 64.15882418 -73.45573713 42.11229565
v 39.34725221 -73.62084451 42.73338934
v 64.15882418 -73.60998420 43.02404485
v 64.15882418 -73.61649906 42.73338934
v 58.29480032 -73.61867179 42.73338934
f 1 2 6
f 1 6 3
f 1 3 9
f 1 9 10
f 1 10 4
f 1 4 2
f 2 5 11
f 2 11 19
f 2 19 26
f 2 26 29
f 2 29 36
f 2 36 35
f 2 35 41
f 2 41 42
f 2 42 39
f 2 39 37
f 2 37 30
f 2 30 23
f 2 23 22
f 2 22 14
f 2 14 6
f 2 4 7
f 2 7 5
f 3 8 16
f 3 16 9
f 3 6 8
f 4 10 7
f 5 7 12
f 5 12 13
f 5 13 11
f 6 14 15
f 6 15 8
f 7 10 9
f 7 9 18
f 7 18 25
f 7 25 32
f 7 32 33
f 7 33 27
f 7 27 20
f 7 20 13
f 7 13 12
f 8 15 18
f 8 18 17
f 8 17 16
f 9 16 17
f 9 17 18
f 11 13 19
f 13 20 21
f 13 21 19
f 14 22 15
f 15 22 23
f 15 23 24
f 15 24 25
f 15 25 18
f 19 21 26
f 20 27 28
f 20 28 29
f 20 29 26
f 20 26 21
f 23 30 24
f 24 31 25
f 24 30 31
f 25 31 32
f 27 33 34
f 27 34 28
f 28 34 35
f 28 35 36
f 28 36 29
f 30 37 31
f 31 37 38
f 31 38 32
f 32 34 33
f 32 38 39
f 32 39 34
f 34 40 41
f 34 41 35
f 34 39 40
f 37 39 38
f 39 42 43
f 39 43 40
f 40 43 41
f 41 43 42

