# https://github.com/mikedh/trimesh
v 33.74539641 -32.51588522 -10.61417772
v 33.74539641 -31.41295693 -10.61417772
v 37.08548150 -32.51588522 -10.61239286
v 33.74539641 -32.51588522 -1.49923885
v 33.74539641 -30.27341785 -10.61328571
v 37.08548150 -30.26960395 -10.61239286
v 37.08548150 -32.51588522 -7.35578336
v 34.41210647 -32.51588522 -1.49923885
v 33.74539641 -24.72445464 -1.49923885
v 33.74539641 -29.18345617 -10.59008752
v 37.08548150 -29.18345617 -10.58919551
v 37.08548150 -29.71966471 -1.50280774
v 37.08548150 -29.69068172 -1.49923885
v 33.74539641 -24.72445464 -5.66502267
v 37.08548150 -24.72445464 -1.49923885
v 33.74539641 -29.15828376 -10.58651863
v 37.08548150 -29.15446986 -10.58205773
v 33.74539641 -26.96768445 -9.35971415
v 35.99893172 -24.72445464 -5.63914844
v 37.08548150 -24.72521709 -5.63914844
v 37.08548150 -26.98293839 -9.35971415
v 37.08548150 -24.72445464 -4.28386338
v 33.74539641 -28.06908618 -10.31617602
v 37.08548150 -28.06908618 -10.31349915
v 37.08548150 -27.41846560 -9.97266997
v 37.08548150 -27.42990730 -9.98873038
v 33.74539641 -27.41922805 -9.99229927
v 33.74539641 -28.04696688 -10.30993026
v 37.08548150 -28.05306813 -10.30546853
f 1 2 6
f 1 6 3
f 1 3 7
f 1 7 8
f 1 8 4
f 1 4 9
f 1 9 14
f 1 14 18
f 1 18 27
f 1 27 28
f 1 28 23
f 1 23 16
f 1 16 10
f 1 10 5
f 1 5 2
f 2 5 6
f 3 6 11
f 3 11 17
f 3 17 24
f 3 24 29
f 3 29 26
f 3 26 25
f 3 25 21
f 3 21 20
f 3 20 22
f 3 22 15
f 3 15 13
f 3 13 12
f 3 12 7
f 4 8 13
f 4 13 15
f 4 15 9
f 5 10 6
f 6 10 11
f 7 12 8
f 8 12 13
f 9 15 22
f 9 22 19
f 9 19 14
f 10 16 11
f 11 16 17
f 14 19 20
f 14 20 21
f 14 21 18
f 16 23 24
f 16 24 17
f 18 21 25
f 18 25 26
f 18 26 27
f 19 22 20
f 23 28 24
f 24 28 29
f 26 29 27
f 27 29 28

