# https://github.com/mikedh/trimesh
v 93.96840274 -44.55747339 43.17024634
v 93.13561675 -44.55747339 43.25696941
v 92.85312559 -43.63411887 43.55876928
v 93.96840274 -43.63411887 43.55356670
v 112.91710448 -41.90727032 46.27149392
v 113.21793759 -41.90727032 46.30791784
v 112.91710448 -44.55747339 46.05641837
v 90.61890356 -44.55747339 43.68018291
v 76.60823747 -41.90727032 46.26629050
v 91.73785176 -43.63411887 43.70793502
v 91.73785176 -42.76291148 44.07044005
v 92.85312559 -42.73852311 44.00106060
v 93.96840274 -42.74448980 43.99585801
v 95.08367989 -42.76213242 44.06350327
v 97.31056647 -41.90727032 45.95408421
v 113.63983217 -41.90727032 46.45534856
v 113.63249672 -44.55747339 46.25067984
v 76.60823747 -44.55747339 46.09110809
v 76.60823747 -41.90727032 57.75027220
v 89.51096518 -41.90727032 45.97489788
v 90.23369287 -41.90727032 45.96102224
v 90.62257461 -41.90727032 45.95581882
v 93.96840274 -41.90727032 45.94888080
v 95.08367989 -41.90727032 45.94888080
v 96.19528932 -41.90727032 45.95061541
v 96.91434928 -41.90727032 45.95234960
v 113.77924555 -41.90727032 46.74327196
v 113.94800073 -41.90727032 47.19250171
v 113.97735581 -44.55747339 47.19250171
v 76.60823747 -44.55747339 58.06768190
v 91.80755513 -44.55747339 60.77173390
v 91.73785176 -43.63411887 60.48381092
v 91.73785176 -42.83036571 60.23231102
v 92.85312559 -42.77406747 60.30862892
v 92.85312559 -42.43653221 59.45353095
v 93.96840274 -42.43523488 59.45353095
v 111.80183066 -41.90727032 57.75027220
v 114.03238496 -41.90727032 47.69550067
v 114.08741411 -44.55747339 48.30777139
v 92.07903648 -44.55747339 60.80815865
v 92.85312559 -43.63411887 60.63644505
v 93.96840274 -42.77251101 60.30689306
v 112.91710448 -41.90727032 57.73466194
v 114.08741411 -41.90727032 48.30777139
v 114.08741411 -44.55747339 56.10945570
v 92.85312559 -44.55747339 60.87406805
v 93.96840274 -44.55747339 60.88967914
v 93.96840274 -43.63411887 60.62950660
v 95.08367989 -42.81454034 60.24792211
v 112.91710448 -44.55747339 58.05554046
v 113.45273173 -41.90727032 57.46408341
v 95.08367989 -43.63411887 60.51156137
v 95.08367989 -44.55747339 60.80295441
v 114.08741411 -41.90727032 56.10945570
v 113.85261997 -44.55747339 57.19523907
v 113.81960381 -44.55747339 57.30104244
v 113.80492626 -41.90727032 57.25074246
f 1 2 3
f 1 3 4
f 1 4 5
f 1 5 6
f 1 6 7
f 1 7 17
f 1 17 29
f 1 29 39
f 1 39 45
f 1 45 55
f 1 55 56
f 1 56 50
f 1 50 53
f 1 53 47
f 1 47 46
f 1 46 40
f 1 40 31
f 1 31 30
f 1 30 18
f 1 18 8
f 1 8 2
f 2 8 9
f 2 9 10
f 2 10 3
f 3 10 9
f 3 9 11
f 3 11 12
f 3 12 4
f 4 12 13
f 4 13 14
f 4 14 5
f 5 15 26
f 5 26 25
f 5 25 24
f 5 24 23
f 5 23 22
f 5 22 21
f 5 21 20
f 5 20 9
f 5 9 19
f 5 19 37
f 5 37 43
f 5 43 51
f 5 51 57
f 5 57 54
f 5 54 44
f 5 44 38
f 5 38 28
f 5 28 27
f 5 27 16
f 5 16 6
f 5 14 13
f 5 13 15
f 6 16 17
f 6 17 7
f 8 18 9
f 9 18 30
f 9 30 19
f 9 20 12
f 9 12 11
f 12 20 21
f 12 21 22
f 12 22 23
f 12 23 24
f 12 24 25
f 12 25 26
f 12 26 15
f 12 15 13
f 16 27 17
f 17 27 28
f 17 28 29
f 19 30 31
f 19 31 32
f 19 32 33
f 19 33 34
f 19 34 35
f 19 35 36
f 19 36 37
f 28 38 29
f 29 38 39
f 31 40 41
f 31 41 32
f 32 41 33
f 33 41 34
f 34 41 42
f 34 42 36
f 34 36 35
f 36 42 43
f 36 43 37
f 38 44 39
f 39 44 54
f 39 54 45
f 40 46 41
f 41 46 47
f 41 47 48
f 41 48 42
f 42 48 49
f 42 49 43
f 43 50 51
f 43 49 52
f 43 52 53
f 43 53 50
f 45 54 55
f 47 53 48
f 48 53 52
f 48 52 49
f 50 56 57
f 50 57 51
f 54 57 55
f 55 57 56

