# https://github.com/mikedh/trimesh
v 112.98362661 -36.00848871 47.18658219
v 113.57371203 -36.15810296 47.18658219
v 112.98362661 -36.00848871 42.70086766
v 32.13356661 -36.00848871 47.18658219
v 113.68688243 -36.43261817 47.18658219
v 113.57371203 -36.15810296 42.70086766
v 113.51712926 -36.20752920 42.12523404
v 112.98362661 -36.15810296 42.04168293
v 32.13356661 -36.00848871 42.70086766
v 31.54348119 -36.15810296 47.18658219
v 113.80004797 -36.71581651 47.18658219
v 113.80004797 -36.71581651 42.70086766
v 112.98362661 -36.71581651 41.73135102
v 113.59796248 -36.71581651 42.01835325
v 112.16720525 -36.71581651 41.71778712
v 32.13356661 -36.15810296 42.04168293
v 31.60006396 -36.20752920 42.12523404
v 31.54348119 -36.15810296 42.70086766
v 31.31714525 -36.71581651 47.18658219
v 113.82429842 -37.11790433 47.18658219
v 113.84046701 -37.53268274 42.70086766
v 112.98362661 -37.53268274 41.67221346
v 112.16720525 -37.53268274 41.64454404
v 113.62221294 -37.53268274 41.99556703
v 32.94998797 -36.71581651 41.71778712
v 32.13356661 -36.71581651 41.73135102
v 31.51923074 -36.71581651 42.01835325
v 31.31714525 -36.71581651 42.70086766
v 31.29289480 -37.12992701 47.18658219
v 113.84046701 -37.53268274 47.18658219
v 113.84046701 -40.79881289 42.70086766
v 113.29888006 -42.83196228 41.83009213
v 112.98362661 -42.83196228 41.67221346
v 112.57137378 -42.83196228 41.65810793
v 112.16720525 -42.83196228 41.64454404
v 32.94998797 -37.53268274 41.64454404
v 113.62221294 -42.83196228 41.99556703
v 32.13356661 -37.53268274 41.67221346
v 31.49498028 -37.53268274 41.99556703
v 31.27672621 -37.53268274 42.70086766
v 31.27672621 -37.53268274 47.18658219
v 113.84046701 -40.79881289 45.15043238
v 113.73538334 -37.93477086 47.18658219
v 113.48479695 -41.31177572 46.44601622
v 113.71113289 -40.79881289 45.96749639
v 113.80813470 -41.61567942 42.70086766
v 32.94998797 -42.83196228 41.64454404
v 32.52965328 -42.83196228 41.65865078
v 113.75963379 -42.83196228 42.70086766
v 32.13356661 -42.83196228 41.67221346
v 31.49498028 -42.83196228 41.99556703
v 31.27672621 -40.79881289 42.70086766
v 31.51923074 -38.39496805 47.18658219
v 31.27672621 -40.79881289 45.15043238
v 31.40606033 -40.79881289 45.96749639
v 31.63239627 -41.31177572 46.44601622
v 113.57371203 -41.44803146 45.96749639
v 113.59796248 -38.39496805 47.18658219
v 112.99171090 -38.75430903 47.18658219
v 112.98362661 -38.75764858 47.18658219
v 112.98362661 -41.36454136 46.48073840
v 111.96511976 -42.83196228 45.62461186
v 112.31270553 -42.83196228 45.44014824
v 112.53904147 -42.83196228 45.28443974
v 112.78154112 -42.83196228 45.08153025
v 113.53329786 -42.83196228 43.32207555
v 31.42222893 -42.83196228 42.35635519
v 31.30905852 -41.61567942 42.70086766
v 31.79406514 -38.57397063 47.18658219
v 31.35755943 -42.83196228 42.70086766
v 31.54348119 -41.44803146 45.96749639
v 32.13356661 -41.36454136 46.48073840
v 32.13356661 -38.75764858 47.18658219
v 32.12548232 -38.75430903 47.18658219
v 31.58389536 -42.83196228 43.32207555
v 32.33565210 -42.83196228 45.08153025
v 32.80448769 -42.83196228 45.44014824
v 32.94998797 -42.83196228 45.53943281
v 33.15207346 -42.83196228 45.62461186
v 112.16720525 -38.75831649 47.18658219
v 102.37013676 -42.83196228 45.65770672
v 108.73984850 -42.83196228 45.63600497
v 31.47072983 -42.83196228 43.03941245
v 32.94998797 -38.75831649 47.18658219
v 36.37734472 -42.83196228 45.63600497
v 42.74705646 -42.83196228 45.65770672
f 1 2 6
f 1 6 3
f 1 3 9
f 1 9 4
f 1 4 10
f 1 10 19
f 1 19 29
f 1 29 41
f 1 41 53
f 1 53 69
f 1 69 74
f 1 74 73
f 1 73 84
f 1 84 80
f 1 80 60
f 1 60 59
f 1 59 58
f 1 58 43
f 1 43 30
f 1 30 20
f 1 20 11
f 1 11 5
f 1 5 2
f 2 5 6
f 3 6 7
f 3 7 8
f 3 8 16
f 3 16 9
f 4 9 18
f 4 18 10
f 5 11 12
f 5 12 6
f 6 12 7
f 7 13 8
f 7 12 14
f 7 14 13
f 8 13 15
f 8 15 25
f 8 25 16
f 9 16 17
f 9 17 18
f 10 18 28
f 10 28 19
f 11 20 12
f 12 20 21
f 12 21 14
f 13 14 22
f 13 22 23
f 13 23 15
f 14 21 24
f 14 24 22
f 15 23 36
f 15 36 25
f 16 25 26
f 16 26 17
f 17 26 27
f 17 27 28
f 17 28 18
f 19 28 29
f 20 30 21
f 21 30 42
f 21 42 31
f 21 31 37
f 21 37 24
f 22 32 33
f 22 33 34
f 22 34 23
f 22 24 32
f 23 34 35
f 23 35 47
f 23 47 36
f 24 37 32
f 25 36 26
f 26 38 27
f 26 36 38
f 27 39 40
f 27 40 28
f 27 38 39
f 28 40 29
f 29 40 41
f 30 43 44
f 30 44 45
f 30 45 42
f 31 42 46
f 31 46 37
f 32 37 49
f 32 49 66
f 32 66 65
f 32 65 64
f 32 64 63
f 32 63 62
f 32 62 82
f 32 82 81
f 32 81 86
f 32 86 85
f 32 85 79
f 32 79 78
f 32 78 77
f 32 77 76
f 32 76 75
f 32 75 83
f 32 83 70
f 32 70 67
f 32 67 51
f 32 51 50
f 32 50 48
f 32 48 47
f 32 47 35
f 32 35 34
f 32 34 33
f 36 47 48
f 36 48 38
f 37 46 49
f 38 48 50
f 38 50 51
f 38 51 39
f 39 51 52
f 39 52 40
f 40 52 54
f 40 54 41
f 41 54 55
f 41 55 56
f 41 56 53
f 42 45 57
f 42 57 49
f 42 49 46
f 43 58 44
f 44 59 60
f 44 60 61
f 44 61 62
f 44 62 63
f 44 63 64
f 44 64 65
f 44 65 66
f 44 66 57
f 44 57 45
f 44 58 59
f 49 57 66
f 51 67 52
f 52 67 68
f 52 68 54
f 53 56 69
f 54 68 70
f 54 70 71
f 54 71 55
f 55 71 56
f 56 72 73
f 56 73 74
f 56 74 69
f 56 71 75
f 56 75 76
f 56 76 77
f 56 77 78
f 56 78 79
f 56 79 72
f 60 80 61
f 61 81 82
f 61 82 62
f 61 80 84
f 61 84 72
f 61 72 86
f 61 86 81
f 67 70 68
f 70 83 71
f 71 83 75
f 72 84 73
f 72 79 85
f 72 85 86

