# https://github.com/mikedh/trimesh
v 64.90013548 -54.70928960 8.47609013
v 67.21286267 -54.65070237 5.12336111
v 68.31880088 -54.70928960 5.12336111
v 70.54901342 -54.71145901 5.12336111
v 70.55703574 -54.71145901 5.13249678
v 67.21286267 -54.70928960 8.47609013
v 64.90013548 -54.69193104 9.59062042
v 64.90013548 -54.48579435 7.53567040
v 66.49658186 -54.42720712 5.12336111
v 66.49658186 -54.42937985 5.13249678
v 70.55703574 -54.71145901 5.12336111
v 73.90006099 -54.70928960 7.36155901
v 73.90006099 -54.69843925 8.47609013
v 66.09775681 -54.69193104 9.59062042
v 64.90013548 -54.46843579 10.35477846
v 64.90013548 -53.77191385 7.08641913
v 66.31321396 -53.71332662 5.12336111
v 73.90006099 -54.70928960 5.12336111
v 74.99568539 -54.49013316 5.12336111
v 75.00485303 -54.48796376 8.47609013
v 74.99110073 -54.47277460 9.59062042
v 73.90006099 -54.65504450 9.59062042
v 67.21286267 -54.68976163 9.59062042
v 67.21286267 -54.46843579 10.35477846
v 64.90013548 -53.70681840 10.58692808
v 64.90013548 -53.62219499 7.08104545
v 66.28685552 -52.60019581 5.12336111
v 75.00485303 -54.48796376 5.12336111
v 75.56183371 -54.05399301 8.47609013
v 75.55151824 -53.73502399 9.65510707
v 74.80429434 -54.39248999 10.28062002
v 73.90006099 -54.44456901 10.33812006
v 73.90006099 -53.70681840 10.57026884
v 67.21286267 -53.70681840 10.58692808
v 64.90013548 -52.67613829 10.61110964
v 64.90013548 -52.59151487 7.06277411
v 66.27768705 -32.55294450 5.12336111
v 75.56183371 -54.05399301 5.12336111
v 76.60817640 -50.81657593 8.47609013
v 76.60817640 -50.72978311 9.59062042
v 76.60817640 -50.28279261 10.36713793
v 74.99453922 -53.70681840 10.36391372
v 76.60817640 -49.24777369 10.61272258
v 73.90006099 -52.59151487 10.61272258
v 64.90013548 -52.59151487 10.61272258
v 64.90013548 -32.55511391 7.05578832
v 66.27768705 -32.54426356 5.12336111
v 76.60817640 -50.81657593 5.12336111
v 76.60817640 -49.86835315 10.47354011
v 76.60817640 -38.10342265 10.61272258
v 64.90013548 -32.54426356 10.61272258
v 64.90013548 -32.54426356 7.05578832
v 76.60817640 -32.54426356 5.12336111
v 76.60817640 -32.54426356 10.61164784
v 67.21286267 -32.54426356 10.61272258
f 1 2 3
f 1 3 4
f 1 4 5
f 1 5 6
f 1 6 14
f 1 14 7
f 1 7 15
f 1 15 25
f 1 25 35
f 1 35 45
f 1 45 51
f 1 51 52
f 1 52 46
f 1 46 36
f 1 36 26
f 1 26 16
f 1 16 8
f 1 8 9
f 1 9 10
f 1 10 2
f 2 10 9
f 2 9 17
f 2 17 27
f 2 27 37
f 2 37 47
f 2 47 53
f 2 53 48
f 2 48 38
f 2 38 28
f 2 28 19
f 2 19 18
f 2 18 11
f 2 11 4
f 2 4 3
f 4 11 5
f 5 11 18
f 5 18 12
f 5 12 6
f 6 12 13
f 6 13 14
f 7 14 24
f 7 24 15
f 8 16 9
f 9 16 17
f 12 18 19
f 12 19 20
f 12 20 13
f 13 20 21
f 13 21 22
f 13 22 23
f 13 23 14
f 14 23 24
f 15 24 34
f 15 34 25
f 16 26 17
f 17 26 27
f 19 28 20
f 20 28 38
f 20 38 29
f 20 29 21
f 21 29 30
f 21 30 31
f 21 31 22
f 22 31 32
f 22 32 23
f 23 32 24
f 24 32 33
f 24 33 34
f 25 34 35
f 26 36 27
f 27 36 37
f 29 38 48
f 29 48 39
f 29 39 40
f 29 40 30
f 30 40 41
f 30 41 31
f 31 41 42
f 31 42 33
f 31 33 32
f 33 42 43
f 33 43 44
f 33 44 34
f 34 44 35
f 35 44 45
f 36 46 37
f 37 46 52
f 37 52 47
f 39 48 53
f 39 53 54
f 39 54 50
f 39 50 43
f 39 43 49
f 39 49 41
f 39 41 40
f 41 49 42
f 42 49 43
f 43 50 55
f 43 55 51
f 43 51 45
f 43 45 44
f 47 52 51
f 47 51 55
f 47 55 54
f 47 54 53
f 50 54 55

