# https://github.com/mikedh/trimesh
v 46.03052488 -18.78518452 -0.44163635
v 56.47073365 -18.78637055 6.24612093
v 56.47073365 -18.78637055 -1.49923864
v 35.58622812 -18.78518452 -0.44163635
v 56.47073365 -18.79467941 6.26740968
v 35.58622812 -18.78637055 6.24612093
v 35.58622812 -18.78874428 6.25448378
v 56.47073365 -29.71130270 -1.49923864
v 35.58622812 -18.78637055 -1.49923864
v 56.47073365 -30.26193961 6.26740968
v 35.58622812 -18.79467941 6.26740968
v 35.58622812 -30.90870144 6.26740968
v 35.58622812 -30.25600613 -1.49923864
f 1 2 3
f 1 3 9
f 1 9 4
f 1 4 6
f 1 6 2
f 2 5 10
f 2 10 8
f 2 8 3
f 2 6 7
f 2 7 5
f 3 8 13
f 3 13 9
f 4 9 13
f 4 13 12
f 4 12 11
f 4 11 7
f 4 7 6
f 5 7 11
f 5 11 12
f 5 12 10
f 8 10 12
f 8 12 13

