# https://github.com/mikedh/trimesh
v 56.47073365 -20.00726399 -7.78833054
v 56.47073365 -25.16152335 -5.83006067
v 56.47073365 -19.54258768 -7.78833054
v 76.60817640 -20.00726399 -7.78681811
v 68.72745055 -25.16152335 -5.83610959
v 56.47073365 -25.31492489 -0.05808039
v 56.47073365 -19.08046782 -7.12902071
v 66.09988468 -19.08046782 -7.12902071
v 76.60817640 -19.54258768 -7.78681811
v 76.60817640 -25.16152335 -5.80132934
v 76.60817640 -25.31492489 -0.05808039
v 56.47073365 -25.31492489 5.66399816
v 56.47073365 -18.78581076 -6.01454649
v 76.60817640 -18.78581076 -6.01454649
v 76.60817640 -18.91236715 -6.49239454
v 76.60817640 -19.08110735 -7.12902071
v 76.60817640 -25.31492489 5.64887628
v 56.47073365 -20.26676705 7.66007233
v 68.33321679 -25.31492489 5.66399816
v 56.47073365 -18.78581076 -0.05808039
v 76.60817640 -18.78581076 -0.05808039
v 76.60817640 -20.26676705 7.66007233
v 56.47073365 -19.89604792 7.54514701
v 56.47073365 -18.78645029 6.24618655
v 76.60817640 -18.78645029 6.24618655
v 76.60817640 -19.24793062 7.34251526
v 68.32533235 -19.24793062 7.34402686
v 56.47073365 -19.24793062 7.34402686
v 76.60817640 -19.04978884 6.87222773
f 1 2 6
f 1 6 12
f 1 12 18
f 1 18 23
f 1 23 28
f 1 28 24
f 1 24 20
f 1 20 13
f 1 13 7
f 1 7 3
f 1 3 9
f 1 9 4
f 1 4 5
f 1 5 2
f 2 5 6
f 3 7 8
f 3 8 9
f 4 9 16
f 4 16 15
f 4 15 14
f 4 14 21
f 4 21 25
f 4 25 29
f 4 29 26
f 4 26 22
f 4 22 17
f 4 17 11
f 4 11 10
f 4 10 5
f 5 10 11
f 5 11 6
f 6 11 17
f 6 17 19
f 6 19 12
f 7 13 14
f 7 14 8
f 8 14 15
f 8 15 16
f 8 16 9
f 12 19 22
f 12 22 18
f 13 20 21
f 13 21 14
f 17 22 19
f 18 22 23
f 20 24 25
f 20 25 21
f 22 26 27
f 22 27 23
f 23 27 28
f 24 28 27
f 24 27 25
f 25 27 29
f 26 29 27

