# https://github.com/mikedh/trimesh
v 33.74507083 -20.01416090 -7.80620654
v 33.74507083 -20.55729626 -7.58084753
v 33.74507083 -19.53344661 -7.80558903
v 56.47073365 -19.54219732 -7.78830147
v 56.47073365 -20.00715934 -7.78830147
v 56.47073365 -20.56429782 -7.56479460
v 33.74507083 -24.72386993 -5.66375150
v 33.74507083 -19.06498465 -7.13012909
v 56.47073365 -19.08073526 -7.13012909
v 56.47073365 -24.72386993 -5.63720245
v 33.74507083 -24.72386993 -1.49923864
v 33.74507083 -18.76628778 -6.01506476
v 56.47073365 -18.89288403 -6.42071073
v 56.47073365 -24.72386993 -1.49923864
v 33.74507083 -19.74988382 -1.49923864
v 33.74507083 -18.76512168 -4.90061753
v 56.47073365 -18.78554000 -6.01506476
v 56.47073365 -18.78554000 -1.49923864
v 33.74729505 -18.76512168 -1.49923864
v 33.74507083 -18.76512168 -1.51467427
v 33.74507083 -18.76453863 -1.55665894
f 1 2 7
f 1 7 11
f 1 11 15
f 1 15 20
f 1 20 21
f 1 21 16
f 1 16 12
f 1 12 8
f 1 8 3
f 1 3 4
f 1 4 5
f 1 5 6
f 1 6 2
f 2 6 7
f 3 8 9
f 3 9 4
f 4 9 13
f 4 13 17
f 4 17 18
f 4 18 14
f 4 14 10
f 4 10 6
f 4 6 5
f 6 10 7
f 7 10 14
f 7 14 11
f 8 12 9
f 9 12 13
f 11 14 18
f 11 18 19
f 11 19 15
f 12 16 17
f 12 17 13
f 15 19 20
f 16 21 17
f 17 21 18
f 18 21 19
f 19 21 20

