# https://github.com/mikedh/trimesh
v 65.73240073 -73.61799406 60.56870428
v 68.32867761 -73.61799406 52.03574879
v 68.32867761 -73.62087109 57.69409356
v 67.21416291 -73.61799406 60.56870428
v 65.73240073 -73.60648258 61.31764921
v 65.73240073 -73.42803651 59.41865102
v 66.52650618 -73.32154627 52.03574879
v 67.21416291 -73.54316119 52.03574879
v 67.59844173 -73.56906449 52.03574879
v 73.90018802 -73.61799406 52.03574879
v 73.90018802 -73.61799406 58.33962753
v 73.90018802 -73.61511370 59.45416632
v 73.90018802 -73.60648258 60.56870428
v 67.21416291 -73.60072519 61.68324307
v 65.73240073 -73.60072519 61.68324307
v 65.73240073 -73.18339533 58.76998379
v 66.47541053 -73.07690509 52.03574879
v 74.28020942 -73.54316119 52.03574879
v 74.36430295 -73.52589232 57.69409356
v 75.00405835 -73.39637914 60.56870428
v 73.90018802 -73.57482189 61.68324307
v 74.99128444 -73.38198731 61.68324307
v 73.90018802 -73.36184140 62.43636569
v 67.21416291 -73.37622991 62.44681073
v 65.73240073 -73.45106278 62.19716297
v 65.73240073 -72.84377538 58.59136496
v 66.37960785 -72.61640306 52.03574879
v 75.00405835 -73.39637914 52.03574879
v 75.32659714 -73.14597724 57.69409356
v 75.56078332 -72.96178041 60.56870428
v 74.80499960 -73.30427740 62.37473696
v 75.55120205 -72.64230636 61.74904948
v 73.90018802 -72.61640306 62.66930105
v 65.73240073 -73.37622991 62.44681073
v 67.21416291 -72.61640306 62.68079093
v 65.73240073 -49.55392020 52.03574879
v 75.56078332 -72.96178041 52.03574879
v 76.60717104 -69.72675808 60.56870428
v 76.60717104 -69.64041374 61.68324307
v 76.60717104 -69.19142651 62.46039028
v 74.99447708 -72.61640306 62.45725660
v 76.60717104 -68.15817482 62.70690519
v 73.90018802 -71.50256443 62.70586035
v 65.73240073 -72.61640306 62.68079093
v 67.21416291 -71.50256443 62.70690519
v 65.73240073 -44.21786340 52.03574879
v 76.60717104 -69.72675808 52.03574879
v 76.60717104 -68.77697369 62.56693534
v 73.90018802 -70.38584876 62.70690519
v 76.60717104 -46.98374927 62.70690519
v 65.73240073 -71.50256443 62.70690519
v 65.73240073 -44.21786340 53.94205834
v 76.60717104 -44.21786340 52.03574879
v 76.60717104 -46.01669601 62.47292499
v 70.55770785 -46.98374927 62.70690519
v 65.73240073 -69.27201345 62.70690519
v 66.09326125 -44.21786340 57.69409356
v 65.73240073 -44.22074044 57.75885597
v 76.60717104 -44.21786340 57.69409356
v 70.55770785 -46.01669601 62.47292499
v 76.60717104 -45.50438738 61.68324307
v 65.73240073 -47.05570178 62.44890040
v 65.73240073 -47.39532173 62.52515268
v 65.73240073 -48.09758790 62.68183576
v 65.73240073 -49.21142321 62.70586035
v 72.78460855 -45.50438738 61.68324307
v 67.22693682 -44.22074044 57.75885597
v 65.73240073 -45.51302182 60.56870428
v 70.55770785 -45.51014478 61.68324307
v 71.67009384 -45.50726774 61.68324307
v 68.34996719 -44.22074044 57.75781154
v 76.60717104 -44.22074044 57.74423241
v 65.73240073 -46.02533045 61.63937157
v 65.73240073 -46.49734394 62.19716297
v 65.73240073 -45.67995476 60.91967374
f 1 2 3
f 1 3 4
f 1 4 5
f 1 5 15
f 1 15 25
f 1 25 34
f 1 34 44
f 1 44 51
f 1 51 56
f 1 56 65
f 1 65 64
f 1 64 63
f 1 63 62
f 1 62 74
f 1 74 73
f 1 73 75
f 1 75 68
f 1 68 58
f 1 58 52
f 1 52 46
f 1 46 36
f 1 36 26
f 1 26 16
f 1 16 6
f 1 6 7
f 1 7 8
f 1 8 9
f 1 9 2
f 2 10 3
f 2 9 8
f 2 8 7
f 2 7 17
f 2 17 27
f 2 27 36
f 2 36 46
f 2 46 53
f 2 53 47
f 2 47 37
f 2 37 28
f 2 28 18
f 2 18 10
f 3 10 11
f 3 11 4
f 4 11 12
f 4 12 13
f 4 13 14
f 4 14 5
f 5 14 15
f 6 16 7
f 7 16 17
f 10 18 11
f 11 18 19
f 11 19 20
f 11 20 12
f 12 20 13
f 13 21 14
f 13 20 22
f 13 22 21
f 14 21 23
f 14 23 24
f 14 24 25
f 14 25 15
f 16 26 27
f 16 27 17
f 18 28 20
f 18 20 19
f 20 29 30
f 20 30 22
f 20 28 29
f 21 22 31
f 21 31 23
f 22 30 32
f 22 32 31
f 23 31 33
f 23 33 24
f 24 34 25
f 24 33 35
f 24 35 44
f 24 44 34
f 26 36 27
f 28 37 29
f 29 37 30
f 30 37 47
f 30 47 38
f 30 38 39
f 30 39 32
f 31 32 40
f 31 40 41
f 31 41 33
f 32 39 40
f 33 41 42
f 33 42 43
f 33 43 35
f 35 43 45
f 35 45 51
f 35 51 44
f 38 47 53
f 38 53 59
f 38 59 72
f 38 72 61
f 38 61 54
f 38 54 50
f 38 50 42
f 38 42 48
f 38 48 40
f 38 40 39
f 40 48 41
f 41 48 42
f 42 49 43
f 42 50 55
f 42 55 56
f 42 56 51
f 42 51 45
f 42 45 49
f 43 49 45
f 46 52 57
f 46 57 59
f 46 59 53
f 50 54 60
f 50 60 55
f 52 58 57
f 54 61 66
f 54 66 60
f 55 62 63
f 55 63 64
f 55 64 65
f 55 65 56
f 55 60 62
f 57 58 67
f 57 67 59
f 58 66 61
f 58 61 67
f 58 68 69
f 58 69 70
f 58 70 66
f 59 67 71
f 59 71 72
f 60 66 70
f 60 70 69
f 60 69 73
f 60 73 74
f 60 74 62
f 61 72 71
f 61 71 67
f 68 75 69
f 69 75 73

