# https://github.com/mikedh/trimesh
v 64.15882459 -73.61865850 42.73352140
v 67.21268370 -73.61865850 42.73352140
v 66.09886583 -73.62082790 43.84883676
v 68.32771999 -73.61865850 52.03574838
v 64.15882459 -73.61214696 43.02424833
v 64.15882459 -73.45587334 42.11275163
v 67.21268370 -73.39726949 41.89341326
v 73.90046376 -73.37556215 41.90996702
v 73.90046376 -73.59044294 42.73352140
v 73.90046376 -73.60997755 43.84883676
v 73.90046376 -73.61865850 44.96311724
v 73.90046376 -73.61865850 52.03574838
v 67.21268370 -73.54268943 52.03574838
v 64.15882459 -73.56439678 43.84883676
v 64.15882459 -73.39726949 41.89341326
v 67.21268370 -72.61589809 41.54578178
v 73.90046376 -72.61589809 41.56233637
v 74.82174024 -73.31696162 41.99273582
v 75.00453343 -73.39292736 42.73352140
v 75.00453343 -73.39726949 43.84883676
v 74.28189212 -73.54268943 52.03574838
v 66.52538244 -73.32130375 52.03574838
v 64.15882459 -73.50579293 44.06610539
v 64.15882459 -72.61589809 41.54578178
v 64.15882459 -71.79328472 41.49818941
v 73.90046376 -71.50244151 41.48163648
v 75.12273946 -72.64411365 41.92134809
v 76.60823581 -68.15773629 41.50853644
v 75.57728475 -72.29032445 42.16758560
v 75.56144111 -72.96317242 42.73352140
v 75.37011814 -73.11293450 52.03574838
v 75.00453343 -73.39726949 52.03574838
v 66.37914772 -72.61589809 52.03574838
v 64.15882459 -73.34083837 44.58755177
v 64.15882459 -71.50244151 41.48163648
v 76.60823581 -67.04211030 41.48163648
v 76.60823581 -67.52178483 41.48887890
v 70.55657415 -58.12795943 41.46611676
v 76.60823581 -58.12795943 41.46715163
v 76.60823581 -69.23646244 41.85720112
v 75.56144111 -72.96317242 52.03574838
v 76.60823581 -69.43180529 42.23794012
v 76.60823581 -69.68141318 42.73352140
v 76.60823581 -69.72699064 43.84883676
v 64.15882459 -72.61589809 44.79861326
v 64.15882459 -73.14549219 44.67445922
v 66.37305478 -72.23172392 52.03574838
v 64.15882459 -72.32722428 44.81413256
v 64.15882459 -51.44722993 41.48163648
v 70.55657415 -55.89670747 41.46818650
v 76.60823581 -55.89670747 41.46818650
v 76.60823581 -69.72699064 52.03574838
v 66.36208815 -71.50244151 52.03574838
v 64.15882459 -71.50244151 44.82965146
v 64.15882459 -51.44722993 44.83999766
v 67.22243273 -51.44722993 41.48163648
v 76.60823581 -51.44722993 41.49508646
v 76.60823581 -51.44722993 52.03574838
v 64.15882459 -71.21159830 44.83068633
v 66.35233912 -51.44722993 52.03574838
f 1 2 3
f 1 3 4
f 1 4 5
f 1 5 14
f 1 14 23
f 1 23 34
f 1 34 46
f 1 46 45
f 1 45 48
f 1 48 54
f 1 54 59
f 1 59 55
f 1 55 49
f 1 49 35
f 1 35 25
f 1 25 24
f 1 24 15
f 1 15 6
f 1 6 2
f 2 6 7
f 2 7 8
f 2 8 9
f 2 9 10
f 2 10 11
f 2 11 3
f 3 11 12
f 3 12 4
f 4 12 21
f 4 21 32
f 4 32 31
f 4 31 41
f 4 41 52
f 4 52 58
f 4 58 60
f 4 60 53
f 4 53 47
f 4 47 33
f 4 33 22
f 4 22 13
f 4 13 5
f 5 13 14
f 6 15 7
f 7 15 24
f 7 24 16
f 7 16 17
f 7 17 8
f 8 17 18
f 8 18 9
f 9 18 19
f 9 19 10
f 10 19 11
f 11 19 20
f 11 20 21
f 11 21 12
f 13 22 14
f 14 22 23
f 16 24 25
f 16 25 26
f 16 26 17
f 17 27 18
f 17 26 28
f 17 28 27
f 18 27 29
f 18 29 30
f 18 30 19
f 19 30 20
f 20 30 31
f 20 31 32
f 20 32 21
f 22 33 34
f 22 34 23
f 25 35 26
f 26 36 37
f 26 37 28
f 26 35 38
f 26 38 39
f 26 39 36
f 27 28 40
f 27 40 29
f 28 37 36
f 28 36 39
f 28 39 51
f 28 51 57
f 28 57 58
f 28 58 52
f 28 52 44
f 28 44 43
f 28 43 42
f 28 42 40
f 29 40 30
f 30 41 31
f 30 40 42
f 30 42 43
f 30 43 44
f 30 44 52
f 30 52 41
f 33 45 46
f 33 46 34
f 33 47 48
f 33 48 45
f 35 49 38
f 38 49 50
f 38 50 51
f 38 51 39
f 47 53 48
f 48 53 54
f 49 55 60
f 49 60 58
f 49 58 57
f 49 57 56
f 49 56 51
f 49 51 50
f 51 56 57
f 53 59 54
f 53 60 59
f 55 59 60

