# https://github.com/mikedh/trimesh
v 114.08741448 -25.64169446 4.01656951
v 113.85472002 -25.64169446 5.09694578
v 114.07760066 -27.51417524 5.69168092
v 114.08671682 -28.06930378 5.69168092
v 114.08741448 -25.65224083 -1.49862985
v 114.08741448 -25.64169446 -1.49862985
v 113.82177696 -25.64169446 5.20955884
v 113.82668719 -26.21983265 5.69168092
v 114.00260502 -28.62826782 5.69168092
v 114.08671682 -28.06930378 -1.49862985
v 106.92714130 -25.64169446 -1.49862985
v 113.20990169 -25.64169446 5.69168092
v 113.72505404 -25.93459905 5.69168092
v 113.83649436 -29.23229270 5.69168092
v 114.07129510 -28.12539105 -1.49862985
v 106.92714130 -25.64169446 5.69168092
v 106.92714130 -30.17764177 -1.49862985
v 113.67458962 -29.62299162 5.69168092
v 113.78042869 -29.15942660 -1.49862985
v 106.92714130 -30.49211915 5.69168092
v 112.91693231 -29.70257192 -1.49862985
v 106.92714130 -30.53909857 5.68816186
v 113.54912956 -29.82433436 5.69168092
v 106.92994525 -30.53862017 5.69168092
v 112.91693231 -29.96431581 5.69168092
f 1 2 3
f 1 3 4
f 1 4 5
f 1 5 6
f 1 6 11
f 1 11 16
f 1 16 12
f 1 12 7
f 1 7 2
f 2 7 8
f 2 8 3
f 3 8 13
f 3 13 12
f 3 12 16
f 3 16 20
f 3 20 24
f 3 24 25
f 3 25 23
f 3 23 18
f 3 18 14
f 3 14 9
f 3 9 4
f 4 9 10
f 4 10 5
f 5 10 15
f 5 15 19
f 5 19 21
f 5 21 17
f 5 17 11
f 5 11 6
f 7 12 13
f 7 13 8
f 9 14 15
f 9 15 10
f 11 17 22
f 11 22 20
f 11 20 16
f 14 18 19
f 14 19 15
f 17 21 22
f 18 23 19
f 19 23 21
f 20 22 24
f 21 23 25
f 21 25 22
f 22 25 24

