# https://github.com/mikedh/trimesh
v 99.76129052 -44.55830726 58.33107781
v 99.70992910 -44.55830726 58.42573931
v 111.80190374 -44.81303967 58.33107781
v 87.12267881 -44.55830726 58.33107781
v 99.66957417 -44.55830726 58.46857262
v 112.82179681 -44.83967884 58.33107781
v 98.45890961 -44.55830726 59.25841567
v 96.27604237 -44.55830726 60.52841828
v 76.60823747 -44.82219735 58.33107781
v 87.18505005 -44.55830726 58.43430564
v 112.91718422 -44.84217714 58.33107781
v 96.13663231 -44.55830726 60.57810448
v 76.60823747 -53.06190227 58.33107781
v 76.60823747 -45.49982100 61.68362761
v 90.60792697 -44.55830726 60.54255264
v 89.78614415 -44.55830726 60.30825600
v 88.53145362 -44.55830726 59.55910426
v 88.37370162 -44.55830726 59.45587643
v 87.24374693 -44.55830726 58.48913214
v 112.91718422 -45.54477388 60.56910959
v 113.67660243 -46.17661244 61.45961073
v 113.42713075 -45.09025017 58.33107781
v 95.08371976 -44.55830726 60.80340706
v 76.60823747 -53.06190227 62.63452328
v 106.11544640 -53.06190227 58.33107781
v 76.60823747 -45.79284691 62.13508906
v 92.85316213 -44.55830726 60.87536621
v 92.07906970 -44.55830726 60.80940365
v 91.80758835 -44.55830726 60.77213838
v 90.81704372 -44.55830726 60.59309597
v 112.91718422 -46.04425045 61.63179942
v 113.63991190 -47.21802182 62.38180829
v 113.81600917 -46.89918896 61.77229252
v 114.08749384 -46.97910482 60.56910959
v 113.77932528 -45.99513484 60.56910959
v 112.91718422 -46.49877416 62.18905843
v 113.77565756 -45.54560609 58.33107781
v 93.96844261 -44.55830726 60.88950140
v 103.99861812 -53.06190227 62.70648327
v 76.60823747 -51.43693772 62.70648327
v 113.60689574 -48.83466091 58.33107781
v 111.81291024 -53.06190227 59.71201829
v 76.60823747 -46.01345021 62.47389923
v 93.96844261 -45.45320204 62.00658999
v 100.65278003 -46.01178412 62.46618920
v 113.69494105 -48.09377068 62.44391625
v 113.95542255 -48.09377068 61.68362761
v 112.91718422 -47.05652403 62.45248258
v 112.91718422 -48.09377068 62.66621970
v 113.99210644 -48.09377068 60.56910959
v 113.99210644 -48.09377068 59.45459156
v 114.08382612 -46.97910482 58.33107781
v 114.08382612 -46.97077935 58.33107781
v 113.82701899 -45.68462745 58.33107781
v 110.68662327 -53.06190227 62.70648327
v 76.60823747 -46.97910482 62.70648327
v 113.91139657 -48.09460455 58.33107781
v 113.91506430 -48.09377068 58.34007271
v 112.37788925 -53.06190227 59.98914906
v 76.60823747 -46.56537125 62.60711004
v 77.24658923 -46.01345021 62.47389923
v 95.08371976 -46.00595696 62.46704633
v 100.65278003 -46.97910482 62.69748837
v 95.08371976 -46.97910482 62.70005810
v 112.91718422 -49.20760599 62.58141022
v 112.61635111 -51.43693772 62.45162628
v 113.57754731 -49.20760599 62.34839845
v 113.48215990 -49.79448835 62.25416551
v 113.69860878 -49.20760599 61.68362761
v 111.80190374 -48.09377068 62.68549518
v 111.80190374 -49.20760599 62.70648327
v 111.80190374 -50.32227185 62.70648327
v 111.80190374 -51.43693772 62.68420948
v 113.71328632 -49.20760599 60.56910959
v 113.65458944 -49.22841634 59.53383218
v 113.91506430 -48.08544521 58.33107781
v 111.29195721 -53.06190227 62.63280985
v 77.24658923 -46.97910482 62.70648327
v 112.39989891 -53.06190227 60.56910959
v 113.48949535 -49.81363759 59.95830895
v 93.96844261 -46.97910482 62.70048667
v 99.53749956 -48.09377068 62.70648327
v 111.80190374 -52.55160358 62.57070190
v 111.80923919 -53.06190227 62.49917048
v 112.13208529 -53.06190227 62.38437802
v 112.45493138 -52.55160358 62.33769012
v 113.49316307 -49.82362749 61.68362761
v 112.37055048 -53.06190227 62.25373695
v 112.38155697 -53.06190227 62.18948699
v 112.39256014 -53.06190227 61.68362761
f 1 2 3
f 1 3 6
f 1 6 11
f 1 11 22
f 1 22 37
f 1 37 54
f 1 54 53
f 1 53 52
f 1 52 76
f 1 76 57
f 1 57 41
f 1 41 25
f 1 25 13
f 1 13 9
f 1 9 4
f 1 4 10
f 1 10 19
f 1 19 18
f 1 18 17
f 1 17 16
f 1 16 15
f 1 15 30
f 1 30 29
f 1 29 28
f 1 28 27
f 1 27 38
f 1 38 23
f 1 23 12
f 1 12 8
f 1 8 7
f 1 7 5
f 1 5 2
f 2 5 3
f 3 5 7
f 3 7 8
f 3 8 6
f 4 9 10
f 6 8 11
f 8 12 11
f 9 13 24
f 9 24 40
f 9 40 56
f 9 56 60
f 9 60 43
f 9 43 26
f 9 26 14
f 9 14 15
f 9 15 16
f 9 16 17
f 9 17 18
f 9 18 19
f 9 19 10
f 11 20 21
f 11 21 22
f 11 12 23
f 11 23 20
f 13 25 42
f 13 42 59
f 13 59 79
f 13 79 90
f 13 90 89
f 13 89 88
f 13 88 85
f 13 85 84
f 13 84 77
f 13 77 55
f 13 55 39
f 13 39 24
f 14 26 27
f 14 27 28
f 14 28 29
f 14 29 30
f 14 30 15
f 20 31 21
f 20 23 31
f 21 32 33
f 21 33 34
f 21 34 35
f 21 35 22
f 21 31 36
f 21 36 32
f 22 35 37
f 23 38 31
f 24 39 40
f 25 41 42
f 26 43 27
f 27 44 38
f 27 43 44
f 31 45 36
f 31 38 45
f 32 46 47
f 32 47 33
f 32 36 48
f 32 48 49
f 32 49 46
f 33 47 34
f 34 47 50
f 34 50 51
f 34 51 52
f 34 52 53
f 34 53 54
f 34 54 35
f 35 54 37
f 36 45 48
f 38 44 45
f 39 55 72
f 39 72 71
f 39 71 82
f 39 82 78
f 39 78 56
f 39 56 40
f 41 57 58
f 41 58 59
f 41 59 42
f 43 60 61
f 43 61 44
f 44 61 62
f 44 62 45
f 45 63 48
f 45 62 64
f 45 64 63
f 46 49 65
f 46 65 66
f 46 66 67
f 46 67 47
f 47 67 68
f 47 68 69
f 47 69 50
f 48 63 49
f 49 63 70
f 49 70 71
f 49 71 72
f 49 72 73
f 49 73 65
f 50 69 74
f 50 74 51
f 51 58 52
f 51 74 75
f 51 75 58
f 52 58 76
f 55 77 73
f 55 73 72
f 56 78 60
f 57 76 58
f 58 75 59
f 59 75 80
f 59 80 79
f 60 78 62
f 60 62 61
f 62 78 81
f 62 81 64
f 63 82 71
f 63 71 70
f 63 64 82
f 64 81 82
f 65 73 66
f 66 73 83
f 66 83 84
f 66 84 85
f 66 85 86
f 66 86 67
f 67 86 68
f 68 87 69
f 68 86 88
f 68 88 89
f 68 89 87
f 69 87 74
f 73 77 83
f 74 80 75
f 74 87 90
f 74 90 79
f 74 79 80
f 77 84 83
f 78 82 81
f 85 88 86
f 87 89 90

