# https://github.com/mikedh/trimesh
v 1.38908309 -51.07299188 8.24558167
v 1.57591132 -51.07299188 7.13148762
v 1.51963960 -52.18892478 9.36056358
v 1.43635161 -52.18892478 10.47465762
v 1.38908309 -51.07299188 10.47465762
v 1.38908309 21.37389991 8.24558167
v 1.56916058 2.42275680 7.13148762
v 1.88429950 -51.07299188 6.49181663
v 1.93831875 -51.67539964 6.53001922
v 1.80101150 -51.83340763 7.13148762
v 1.87529629 2.42275680 6.48559744
v 1.71772351 -52.20867536 8.30599453
v 1.82576867 -52.89008877 9.36056358
v 1.74248732 -52.96909111 10.47465762
v 1.46561370 -52.18892478 11.58963953
v 1.75149053 -52.95921748 11.58963953
v 1.42960086 -51.07299188 11.58963953
v 1.38908309 28.05963362 10.47465762
v 1.38908309 24.72170358 9.36056358
v 1.41834519 24.72170358 8.24558167
v 1.58941946 21.37389991 7.13148762
v 1.57816379 18.03596987 7.13148762
v 6.20168407 -51.07299188 4.03885559
v 6.21518888 -52.18892478 4.05484750
v 6.30748009 -52.88021182 4.16145913
v 1.93831875 -52.79133253 8.71911561
v 1.88429950 18.03596987 6.49181663
v 6.20168407 28.05963362 4.04063256
v 6.20168407 4.65462633 4.03974387
v 6.20168407 -44.38725818 4.03885559
v 2.55734092 -53.05797372 9.36056358
v 2.55734092 -53.18635417 10.47465762
v 2.55734092 -53.17647722 11.58963953
v 1.74923806 -52.18892478 12.36701769
v 1.84152927 -52.88021182 12.28528200
v 1.73572992 -51.07299188 12.37945607
v 1.42960086 28.05963362 11.58963953
v 1.71547104 29.13606534 11.58963953
v 1.69521216 29.15581593 10.47465762
v 1.42059101 28.05963362 9.36056358
v 1.40934198 26.95357435 9.36056358
v 1.47236445 26.95357435 8.24558167
v 1.49938072 28.05963362 8.24558167
v 1.75374299 28.05963362 7.14214861
v 1.89554853 27.68436256 6.49892410
v 7.01653767 -51.07299188 3.63550764
v 7.01653767 -52.18892478 3.69147871
v 7.01653767 -52.95921748 4.04596306
v 7.01653767 -53.18635417 4.90241166
v 6.24895258 29.17556983 4.08238869
v 7.01653767 29.17556983 3.67815205
v 7.01653767 28.05963362 3.63728420
v 7.01653767 22.48983446 3.63639592
v 7.01653767 -26.55204921 3.63550764
v 24.38287542 -53.18635417 10.47465762
v 24.38287542 -53.17647722 11.58963953
v 2.55734092 -52.94934052 12.35457931
v 2.55734092 -52.18892478 12.58734882
v 2.55734092 -51.07299188 12.61222476
v 2.55734092 -39.92351663 12.61311345
v 1.73572992 28.05963362 12.37945607
v 1.82352285 28.95830677 12.30216219
v 24.29283668 47.57368206 12.14757525
v 24.38287542 47.66256135 12.06583873
v 24.38287542 47.67243498 11.58164379
v 24.38287542 47.68231193 10.47465762
v 24.38287542 47.68231193 8.24558167
v 24.28383347 47.58355569 7.65743952
v 1.72672672 29.07681359 9.36056358
v 1.80550978 28.86942748 8.24558167
v 1.90005345 28.70154254 7.51973235
v 7.45322989 30.97291614 4.19433122
v 6.35024700 29.86685687 4.19788517
v 8.13077624 -51.07299188 3.53689135
v 8.13077624 -52.18892478 3.61773876
v 8.13077624 -52.96909111 4.02108713
v 9.24726394 -53.18635417 4.90241166
v 7.05480630 30.26187519 4.00509522
v 8.13077624 30.29150273 3.62662320
v 8.13077624 29.17556983 3.53778005
v 8.13077624 -27.66798543 3.53689135
v 24.38287542 -53.18635417 8.24558167
v 24.38287542 -52.94934052 12.35457931
v 24.38287542 -52.18892478 12.58734882
v 24.38287542 -51.07299188 12.61222476
v 3.67382862 -34.35371914 12.61311345
v 2.55734092 28.05963362 12.61311345
v 24.38287542 46.54662513 12.49939394
v 24.38287542 47.40579711 12.25507557
v 24.38287542 47.61318323 12.16623199
v 24.38287542 47.63293381 7.60857551
v 10.82520435 34.26146639 4.24052957
v 9.69746097 33.18503467 4.20854616
v 9.29453578 32.47399704 4.01575621
v 8.17579561 31.36793446 4.00687219
v 9.24726394 -51.07299188 3.53778005
v 9.24726394 -52.18892478 3.61773876
v 9.24726394 -52.96909111 4.02108713
v 10.36149918 -52.96909111 4.02197541
v 24.38287542 -52.97896806 7.13148762
v 9.24726394 31.40743895 3.63195370
v 9.24726394 30.29150273 3.53778005
v 24.38287542 45.43069223 12.61222476
v 5.90230243 8.00243166 12.61311345
v 5.90230243 28.05963362 12.61311345
v 24.38287542 45.90471621 12.56602683
v 24.38287542 47.48480277 7.42733525
v 24.38287542 47.13915925 7.02398730
v 24.23656163 46.51700091 6.56200263
v 24.38287542 46.60588020 6.55756041
v 10.41777423 33.58992994 4.04240954
v 10.36149918 32.52337184 3.64616864
v 10.36149918 -51.07299188 3.54577579
v 10.36149918 -52.18892478 3.62306926
v 24.38287542 -52.75183137 6.56733312
v 10.36149918 31.40743895 3.54666449
v 10.36149918 5.77056172 3.54577579
v 24.38287542 45.86521504 6.53357275
v 24.38287542 -51.07299188 6.52646528
v 24.38287542 -52.18892478 6.54334547
v 24.38287542 44.78878331 6.52646528
f 1 2 3
f 1 3 4
f 1 4 5
f 1 5 18
f 1 18 19
f 1 19 6
f 1 6 7
f 1 7 2
f 2 8 9
f 2 9 10
f 2 10 3
f 2 7 11
f 2 11 8
f 3 10 12
f 3 12 13
f 3 13 14
f 3 14 4
f 4 15 5
f 4 14 16
f 4 16 15
f 5 15 17
f 5 17 37
f 5 37 18
f 6 19 20
f 6 20 21
f 6 21 22
f 6 22 7
f 7 22 11
f 8 23 24
f 8 24 9
f 8 11 23
f 9 24 25
f 9 25 26
f 9 26 10
f 10 26 13
f 10 13 12
f 11 22 27
f 11 27 28
f 11 28 29
f 11 29 30
f 11 30 23
f 13 26 31
f 13 31 32
f 13 32 14
f 14 32 33
f 14 33 16
f 15 34 17
f 15 16 35
f 15 35 34
f 16 33 35
f 17 34 36
f 17 36 61
f 17 61 37
f 18 37 38
f 18 38 39
f 18 39 40
f 18 40 41
f 18 41 20
f 18 20 19
f 20 41 40
f 20 40 42
f 20 42 21
f 21 42 43
f 21 43 44
f 21 44 45
f 21 45 22
f 22 45 27
f 23 30 54
f 23 54 46
f 23 46 24
f 24 46 47
f 24 47 25
f 25 48 49
f 25 49 31
f 25 31 26
f 25 47 48
f 27 45 28
f 28 45 50
f 28 50 51
f 28 51 52
f 28 52 53
f 28 53 29
f 29 53 54
f 29 54 30
f 31 49 32
f 32 49 77
f 32 77 82
f 32 82 55
f 32 55 56
f 32 56 33
f 33 56 83
f 33 83 57
f 33 57 35
f 34 58 59
f 34 59 36
f 34 35 58
f 35 57 58
f 36 59 60
f 36 60 87
f 36 87 61
f 37 61 62
f 37 62 38
f 38 62 63
f 38 63 64
f 38 64 39
f 39 64 65
f 39 65 66
f 39 66 67
f 39 67 68
f 39 68 69
f 39 69 40
f 40 69 43
f 40 43 42
f 43 69 70
f 43 70 71
f 43 71 44
f 44 71 45
f 45 71 72
f 45 72 73
f 45 73 50
f 46 74 47
f 46 54 81
f 46 81 74
f 47 74 75
f 47 75 48
f 48 75 76
f 48 76 49
f 49 76 98
f 49 98 77
f 50 73 51
f 51 73 78
f 51 78 79
f 51 79 80
f 51 80 52
f 52 80 53
f 53 80 54
f 54 80 81
f 55 82 100
f 55 100 115
f 55 115 120
f 55 120 119
f 55 119 121
f 55 121 118
f 55 118 110
f 55 110 108
f 55 108 107
f 55 107 91
f 55 91 67
f 55 67 66
f 55 66 65
f 55 65 64
f 55 64 90
f 55 90 89
f 55 89 88
f 55 88 106
f 55 106 103
f 55 103 85
f 55 85 84
f 55 84 83
f 55 83 56
f 57 83 84
f 57 84 58
f 58 84 85
f 58 85 59
f 59 85 60
f 60 85 86
f 60 86 104
f 60 104 105
f 60 105 87
f 61 87 62
f 62 87 88
f 62 88 89
f 62 89 90
f 62 90 63
f 63 90 64
f 67 91 68
f 68 91 92
f 68 92 71
f 68 71 70
f 68 70 69
f 71 92 93
f 71 93 72
f 72 93 94
f 72 94 95
f 72 95 78
f 72 78 73
f 74 96 97
f 74 97 75
f 74 81 102
f 74 102 96
f 75 97 98
f 75 98 76
f 77 98 99
f 77 99 100
f 77 100 82
f 78 95 101
f 78 101 79
f 79 102 80
f 79 101 102
f 80 102 81
f 85 103 105
f 85 105 104
f 85 104 86
f 87 105 103
f 87 103 106
f 87 106 88
f 91 107 92
f 92 107 108
f 92 108 109
f 92 109 110
f 92 110 111
f 92 111 93
f 93 111 94
f 94 111 112
f 94 112 95
f 95 112 101
f 96 113 114
f 96 114 97
f 96 102 117
f 96 117 113
f 97 114 99
f 97 99 98
f 99 114 115
f 99 115 100
f 101 116 102
f 101 112 116
f 102 116 117
f 108 110 109
f 110 118 116
f 110 116 112
f 110 112 111
f 113 119 120
f 113 120 115
f 113 115 114
f 113 117 121
f 113 121 119
f 116 118 121
f 116 121 117

