# https://github.com/mikedh/trimesh
v 33.74496604 51.47772961 10.61418412
v 35.92808493 52.59315088 10.61211604
v 34.88460628 52.59315088 10.61211604
v 33.74496604 52.59315088 10.60797988
v 33.74496604 31.41416311 10.61418412
v 35.92808493 53.70857548 10.54800721
v 35.92808493 30.30226007 10.61211604
v 34.88460628 53.70857548 10.54800721
v 33.74496604 53.68042633 10.54387104
v 33.74496604 30.27410760 10.61315091
v 35.92808493 54.43694511 10.22229118
v 35.92808493 30.22836730 10.61108283
v 33.74496604 53.70857548 10.54180296
v 33.74496604 54.46861249 10.20781544
v 33.74496604 29.18683547 10.59040202
v 35.92808493 29.18683547 10.58936798
v 35.92808493 54.48620695 10.19954312
v 33.74496604 54.48620695 10.19954312
v 33.74496604 29.16220455 10.58626586
v 35.92808493 29.11294271 10.57178930
v 35.92808493 54.71140347 9.35991907
v 33.74496604 54.71140347 9.35991907
v 33.74496604 28.07141088 10.31638718
v 35.92808493 28.07141088 10.31328506
v 35.92808493 54.67621454 8.24524695
v 33.74496604 54.52842902 0.05064880
v 34.88460628 54.71140347 8.24524695
v 33.74496604 54.71140347 8.24524695
v 33.74496604 28.05029818 10.31018294
v 33.74496604 19.53507073 7.80578941
v 35.92808493 19.54562708 7.78821114
v 33.76099408 54.52491411 0.05064880
v 35.92808493 54.45805780 7.43147473
v 34.35442686 54.29971427 0.05064880
v 33.97554455 54.44398157 0.05064880
v 33.74496604 54.70788192 7.13057525
v 33.76996905 54.70788192 7.13057525
v 33.74496604 18.77151549 0.05064880
v 33.74496604 19.06708489 7.13057525
v 35.92808493 19.08116112 7.13057525
v 35.92808493 19.51395970 7.74581632
v 35.92808493 53.70857548 7.13884716
v 34.39374697 53.70857548 0.05064880
v 33.76120670 18.77151549 0.05064880
v 33.74496604 18.76799726 0.41462349
v 33.74496604 18.76799726 6.01590314
v 35.92808493 18.78559007 6.01590314
v 35.92808493 30.03483816 0.05064880
v 35.92808493 18.78559007 0.05064880
v 33.74496604 18.76447904 1.55824831
f 1 2 3
f 1 3 4
f 1 4 9
f 1 9 13
f 1 13 14
f 1 14 18
f 1 18 22
f 1 22 28
f 1 28 36
f 1 36 26
f 1 26 38
f 1 38 45
f 1 45 50
f 1 50 46
f 1 46 39
f 1 39 30
f 1 30 29
f 1 29 23
f 1 23 19
f 1 19 15
f 1 15 10
f 1 10 5
f 1 5 7
f 1 7 2
f 2 6 8
f 2 8 3
f 2 7 12
f 2 12 16
f 2 16 20
f 2 20 24
f 2 24 31
f 2 31 41
f 2 41 40
f 2 40 47
f 2 47 49
f 2 49 48
f 2 48 42
f 2 42 33
f 2 33 25
f 2 25 21
f 2 21 17
f 2 17 11
f 2 11 6
f 3 8 4
f 4 8 9
f 5 10 7
f 6 11 8
f 7 10 12
f 8 13 9
f 8 11 14
f 8 14 13
f 10 15 16
f 10 16 12
f 11 17 14
f 14 17 18
f 15 19 16
f 16 19 20
f 17 21 22
f 17 22 18
f 19 23 20
f 20 23 24
f 21 25 26
f 21 26 27
f 21 27 28
f 21 28 22
f 23 29 24
f 24 29 30
f 24 30 31
f 25 32 26
f 25 33 34
f 25 34 35
f 25 35 32
f 26 36 37
f 26 37 27
f 26 32 35
f 26 35 34
f 26 34 43
f 26 43 48
f 26 48 49
f 26 49 44
f 26 44 38
f 27 37 36
f 27 36 28
f 30 39 40
f 30 40 41
f 30 41 31
f 33 42 34
f 34 42 43
f 38 44 45
f 39 46 40
f 40 46 47
f 42 48 43
f 44 49 45
f 45 49 50
f 46 50 47
f 47 50 49

