# https://github.com/mikedh/trimesh
v 33.29478160 43.24789653 58.61458217
v 32.89149672 43.24789653 58.78570220
v 32.89149672 44.88326224 58.78608682
v 33.29478160 44.88326224 58.61573603
v 111.82241649 43.24789653 58.61458217
v 32.39948906 43.24789653 59.19408328
v 32.40755389 44.88326224 59.19446790
v 32.41562114 45.70001740 59.21138808
v 33.00441639 45.77980631 58.76839801
v 33.31897850 45.56085025 58.61996562
v 111.82241649 44.88326224 58.61573603
v 112.22570137 44.88326224 58.78608682
v 112.22570137 43.24789653 58.78608682
v 31.58485448 43.24789653 60.90874632
v 31.58485448 43.25006138 60.90874632
v 31.58485448 44.88326224 60.90913094
v 32.46401494 46.18122561 59.30060075
v 31.60905138 45.70001740 60.93258781
v 31.65744517 46.16112380 60.99680575
v 32.94795777 46.23781994 59.13294168
v 42.74777945 45.89670666 58.64534558
v 111.79821959 45.56085025 58.61996562
v 112.70157695 45.70001740 59.21138808
v 112.70964420 44.88326224 59.19446790
v 112.71770902 43.24789653 59.19408328
v 112.11278170 45.77980631 58.76801339
v 31.35901027 43.24789653 61.48709357
v 31.36708239 44.88326224 61.48709357
v 32.38335699 46.23781994 59.85356925
v 32.94795777 46.38688342 59.85356925
v 31.58485448 46.22266645 61.48709357
v 31.40740407 45.70001740 61.48709357
v 36.21456337 46.25359235 59.09102677
v 39.48117141 46.25761259 59.06257107
v 42.74777945 46.25761259 59.05372666
v 102.36941864 45.89670666 58.64534558
v 112.65318315 46.18153476 59.30060075
v 113.45975779 46.16112380 60.99680575
v 113.50815158 45.70001740 60.93258781
v 113.53234848 44.88326224 60.90913094
v 113.53234848 43.25006138 60.90874632
v 113.53234848 43.24789653 60.90874632
v 112.16924032 46.23781994 59.13294168
v 31.49612927 43.24789653 62.19195482
v 31.49612927 44.88326224 62.19195482
v 31.52032617 45.70001740 62.16926718
v 32.13332075 46.37172993 61.48709357
v 32.94795777 46.40698523 60.67033141
v 36.21456337 46.40265522 59.85356925
v 31.60098899 46.20782211 62.06274971
v 39.48117141 46.40698523 59.85356925
v 102.36941864 46.25761259 59.05372666
v 105.63602668 46.25761259 59.06257107
v 108.90263472 46.25359235 59.09102677
v 112.16924032 46.38688342 59.85356925
v 112.73384110 46.23781994 59.85356925
v 113.53234848 46.22266645 61.48709357
v 113.70978915 45.70001740 61.48709357
v 113.75012056 44.88326224 61.48709357
v 113.75818295 43.24789653 61.48709357
v 32.13332075 43.24789653 62.51573682
v 32.13332075 44.88326224 62.51573682
v 32.13332075 45.70001740 62.45651771
v 32.13332075 46.25761259 62.14619493
v 32.94795777 46.40698523 61.48709357
v 105.63602668 46.40698523 59.85356925
v 108.90263472 46.40265522 59.85356925
v 112.16924032 46.40698523 60.67033141
v 112.98387734 46.37172993 61.48709357
v 113.51621397 46.20782211 62.06274971
v 113.59686705 45.70001740 62.16926718
v 113.62106395 44.88326224 62.19195482
v 113.62106395 43.24789653 62.19195482
v 32.94795777 43.24789653 62.54303988
v 32.94795777 44.88326224 62.54303988
v 32.94795777 45.70001740 62.46997693
v 112.98387734 46.25761259 62.14619493
v 112.16924032 46.40698523 61.48709357
v 112.98387734 45.70001740 62.45651771
v 112.98387734 44.88326224 62.51573682
v 112.98387734 43.24789653 62.51573682
v 112.16924032 43.24789653 62.54303988
v 112.16924032 44.88326224 62.54303988
v 112.16924032 45.70001740 62.46997693
f 1 2 3
f 1 3 4
f 1 4 11
f 1 11 5
f 1 5 13
f 1 13 25
f 1 25 42
f 1 42 60
f 1 60 73
f 1 73 81
f 1 81 82
f 1 82 74
f 1 74 61
f 1 61 44
f 1 44 27
f 1 27 14
f 1 14 6
f 1 6 2
f 2 6 3
f 3 6 7
f 3 7 8
f 3 8 9
f 3 9 10
f 3 10 4
f 4 10 22
f 4 22 11
f 5 11 12
f 5 12 13
f 6 14 15
f 6 15 16
f 6 16 7
f 7 16 8
f 8 17 9
f 8 16 18
f 8 18 19
f 8 19 17
f 9 17 20
f 9 20 21
f 9 21 10
f 10 21 36
f 10 36 22
f 11 22 12
f 12 23 24
f 12 24 25
f 12 25 13
f 12 22 26
f 12 26 23
f 14 27 15
f 15 27 16
f 16 27 28
f 16 28 18
f 17 29 30
f 17 30 20
f 17 19 31
f 17 31 29
f 18 28 32
f 18 32 19
f 19 32 31
f 20 30 33
f 20 33 21
f 21 33 34
f 21 34 35
f 21 35 52
f 21 52 36
f 22 36 26
f 23 26 37
f 23 37 38
f 23 38 39
f 23 39 40
f 23 40 24
f 24 40 25
f 25 40 41
f 25 41 42
f 26 43 37
f 26 36 43
f 27 44 45
f 27 45 28
f 28 45 46
f 28 46 32
f 29 31 47
f 29 47 30
f 30 47 48
f 30 48 49
f 30 49 33
f 31 32 50
f 31 50 47
f 32 46 50
f 33 49 34
f 34 49 51
f 34 51 35
f 35 51 66
f 35 66 52
f 36 52 53
f 36 53 54
f 36 54 43
f 37 43 55
f 37 55 56
f 37 56 57
f 37 57 38
f 38 57 58
f 38 58 39
f 39 58 59
f 39 59 40
f 40 59 60
f 40 60 41
f 41 60 42
f 43 54 55
f 44 61 62
f 44 62 45
f 45 62 46
f 46 62 63
f 46 63 50
f 47 50 64
f 47 64 65
f 47 65 48
f 48 65 78
f 48 78 68
f 48 68 66
f 48 66 51
f 48 51 49
f 50 63 64
f 52 66 53
f 53 66 67
f 53 67 54
f 54 67 55
f 55 68 69
f 55 69 56
f 55 67 68
f 56 69 57
f 57 69 70
f 57 70 58
f 58 70 71
f 58 71 59
f 59 71 72
f 59 72 60
f 60 72 73
f 61 74 75
f 61 75 62
f 62 75 63
f 63 75 76
f 63 76 64
f 64 76 84
f 64 84 77
f 64 77 78
f 64 78 65
f 66 68 67
f 68 78 69
f 69 77 70
f 69 78 77
f 70 77 79
f 70 79 71
f 71 79 80
f 71 80 72
f 72 80 81
f 72 81 73
f 74 82 83
f 74 83 75
f 75 83 84
f 75 84 76
f 77 84 79
f 79 84 83
f 79 83 80
f 80 83 82
f 80 82 81

