# https://github.com/mikedh/trimesh
v 32.65491322 54.71140347 -1.04833040
v 33.74496604 54.71140347 -7.33528172
v 32.65491322 54.71140347 -8.47470353
v 32.03930297 54.56235218 -1.04833040
v 33.74496604 54.52819314 -1.04833040
v 33.74496604 54.71140347 -8.47470353
v 32.65491322 54.68966620 -9.58978261
v 31.80157505 54.47850937 -9.58978261
v 31.79016987 54.48782487 -8.47470353
v 31.74733818 54.48782487 -1.04833040
v 33.74496604 22.98817873 -1.04833040
v 33.74496604 54.68966620 -9.58978261
v 32.65491322 54.46919388 -10.35376642
v 31.90776807 54.40087911 -10.28542010
v 31.45207942 53.70840604 -9.58978261
v 31.40620624 53.70840604 -8.47470353
v 31.26656014 53.74877763 -1.04833040
v 31.15605986 22.98817873 -1.04833040
v 33.74496604 22.98817873 -5.66219425
v 33.74496604 54.46919388 -10.35376642
v 32.65491322 53.70840604 -10.58689473
v 31.79777443 53.70840604 -10.36687423
v 31.39885749 52.59362263 -9.58978261
v 31.32992147 52.59362263 -8.47470353
v 31.16138205 52.59362263 -1.04833040
v 31.32992147 29.18625408 -8.47470353
v 31.33448288 28.07147068 -8.47470353
v 31.32992147 22.98817873 -4.01719446
v 31.15605986 51.47883923 -1.04833040
v 33.74496604 27.58084226 -10.10753195
v 32.99148376 22.98817873 -5.65095892
v 32.65491322 27.58084226 -10.10753195
v 33.74496604 53.70840604 -10.58689473
v 32.65491322 52.59362263 -10.61310952
v 31.78282113 52.59362263 -10.37998204
v 31.39885749 30.30104082 -9.58978261
v 31.41152843 29.18625408 -9.58978261
v 31.67840217 27.98762953 -9.68528142
v 31.53242060 22.98817873 -4.74185567
v 33.74496604 27.59326403 -10.11314982
v 32.64984518 22.98817873 -5.64534147
v 31.84795487 27.24858063 -9.37725371
v 31.90472658 28.30126016 -10.28448406
v 32.65491322 28.13668249 -10.35283121
v 31.68550009 22.98817873 -5.16691514
v 33.74496604 52.59362263 -10.61310952
v 32.65491322 30.30104082 -10.61217349
v 31.78282113 30.30104082 -10.37998204
v 31.79549373 29.18625408 -10.36593819
v 33.74496604 28.13668249 -10.35283121
v 32.65491322 29.18625408 -10.58595787
v 33.74496604 28.16152271 -10.35844825
v 33.74496604 30.30104082 -10.61217349
v 33.74496604 29.18625408 -10.58595787
f 1 2 6
f 1 6 3
f 1 3 4
f 1 4 10
f 1 10 17
f 1 17 25
f 1 25 29
f 1 29 18
f 1 18 11
f 1 11 5
f 1 5 2
f 2 5 11
f 2 11 19
f 2 19 30
f 2 30 40
f 2 40 50
f 2 50 52
f 2 52 54
f 2 54 53
f 2 53 46
f 2 46 33
f 2 33 20
f 2 20 12
f 2 12 6
f 3 6 12
f 3 12 7
f 3 7 8
f 3 8 9
f 3 9 10
f 3 10 4
f 7 12 20
f 7 20 13
f 7 13 14
f 7 14 8
f 8 14 15
f 8 15 16
f 8 16 17
f 8 17 9
f 9 17 10
f 11 18 28
f 11 28 39
f 11 39 45
f 11 45 41
f 11 41 31
f 11 31 19
f 13 20 33
f 13 33 21
f 13 21 14
f 14 21 22
f 14 22 15
f 15 22 23
f 15 23 24
f 15 24 16
f 16 24 25
f 16 25 17
f 18 26 27
f 18 27 28
f 18 29 24
f 18 24 26
f 19 31 32
f 19 32 30
f 21 33 46
f 21 46 34
f 21 34 22
f 22 34 35
f 22 35 23
f 23 35 48
f 23 48 36
f 23 36 26
f 23 26 24
f 24 29 25
f 26 36 27
f 27 36 37
f 27 37 38
f 27 38 28
f 28 38 39
f 30 32 40
f 31 41 32
f 32 42 43
f 32 43 44
f 32 44 40
f 32 41 45
f 32 45 42
f 34 46 53
f 34 53 47
f 34 47 48
f 34 48 35
f 36 48 37
f 37 48 49
f 37 49 43
f 37 43 38
f 38 42 45
f 38 45 39
f 38 43 42
f 40 44 50
f 43 49 51
f 43 51 44
f 44 51 52
f 44 52 50
f 47 53 54
f 47 54 51
f 47 51 49
f 47 49 48
f 51 54 52

