# https://github.com/mikedh/trimesh
v 77.24864153 20.26622605 -7.66077599
v 76.94322841 19.52334497 -7.42939682
v 76.94322841 20.26622605 -7.65926355
v 76.94322841 20.50391909 -7.51408430
v 103.99784040 21.14249250 -7.12089154
v 83.93503138 20.26622605 -7.66077599
v 76.94322841 19.24712583 -7.34319690
v 100.65282574 19.24712583 -7.34319690
v 76.94322841 21.14249250 -7.11937910
v 112.91665916 21.14249250 -7.12089154
v 76.94322841 22.49777789 -5.99424201
v 111.80044720 20.26622605 -7.65926355
v 76.94322841 18.91057688 -6.54320026
v 111.80044720 19.24712583 -7.34168447
v 111.80044720 18.78555186 -6.24528123
v 111.80044720 22.49777789 -5.99424201
v 112.77849809 22.49777789 -5.97609522
v 112.91665916 22.49777789 -5.97307034
v 113.64747394 21.03636592 -7.01503157
v 112.91665916 20.26622605 -7.65623867
v 76.94322841 22.49777789 5.99663386
v 76.94322841 18.78555186 -6.24528123
v 112.91665916 19.26566214 -7.33714798
v 112.91665916 18.82225904 -6.24528123
v 111.80044720 18.78555186 6.01629309
v 113.40386901 22.49777789 -5.81428080
v 113.64747394 22.25645034 -5.90048072
v 113.77836267 22.49777789 -5.38328120
v 113.80381750 21.39690294 -6.26191640
v 113.75654899 20.26622605 -7.22675152
v 113.67656328 19.42557875 -7.15718594
v 76.94322841 21.25733990 7.00683718
v 90.62505739 22.49777789 6.06771105
v 76.94322841 18.78555186 6.01629309
v 112.91665916 18.82225904 6.01629309
v 113.77836267 19.28419845 -6.24528123
v 112.91665916 19.10065756 7.13084477
v 111.80044720 19.08248669 7.13084477
v 110.68422859 19.08212291 7.13084477
v 96.19523361 19.08175912 7.13084477
v 79.47743926 19.08139534 7.13084477
v 113.83654135 22.49777789 -5.21239297
v 114.06196046 20.26622605 -6.24528123
v 76.94322841 21.06944026 7.15806536
v 76.94322841 20.56316087 7.56486924
v 95.08265284 22.49777789 6.07527241
v 76.94322841 19.08139534 7.13084477
v 113.77836267 19.28419845 6.01629309
v 113.69837696 19.41394766 7.13084477
v 114.08378078 20.26622605 -5.13072954
v 113.56748159 19.59894203 7.75390426
v 112.91665916 19.54406065 7.78717460
v 76.94322841 19.54333475 7.78868704
v 114.07651177 22.49777789 -4.05398553
v 114.08378078 22.49777789 -4.01769113
v 76.94322841 20.00600006 7.78868704
v 91.73763817 20.56316087 7.56486924
v 96.19523361 22.49777789 6.07527241
v 114.08378078 20.26622605 6.01629309
v 113.56748159 19.90641493 7.75390426
v 113.77472817 20.27349506 7.19284815
v 112.91665916 20.00527250 7.78717460
v 114.08378078 22.49777789 3.78416671
v 112.91665916 20.56279709 7.56486924
v 112.91665916 21.25733990 7.00683718
v 111.80044720 22.49777789 5.99663386
v 113.98924376 22.49777789 4.89871735
v 113.98924376 22.49559685 4.90022979
v 113.67656328 21.11268889 6.86165876
v 112.91665916 22.49777789 5.98604762
v 113.68383229 22.49777789 5.71686161
f 1 2 3
f 1 3 4
f 1 4 5
f 1 5 10
f 1 10 6
f 1 6 2
f 2 7 13
f 2 13 22
f 2 22 34
f 2 34 47
f 2 47 53
f 2 53 56
f 2 56 45
f 2 45 44
f 2 44 32
f 2 32 21
f 2 21 11
f 2 11 9
f 2 9 4
f 2 4 3
f 2 6 8
f 2 8 7
f 4 9 5
f 5 9 11
f 5 11 16
f 5 16 10
f 6 10 12
f 6 12 8
f 7 8 13
f 8 12 14
f 8 14 15
f 8 15 13
f 10 16 17
f 10 17 18
f 10 18 19
f 10 19 20
f 10 20 12
f 11 21 33
f 11 33 46
f 11 46 58
f 11 58 66
f 11 66 70
f 11 70 71
f 11 71 67
f 11 67 63
f 11 63 55
f 11 55 54
f 11 54 42
f 11 42 28
f 11 28 26
f 11 26 18
f 11 18 17
f 11 17 16
f 12 20 14
f 13 15 22
f 14 20 23
f 14 23 15
f 15 23 24
f 15 24 35
f 15 35 25
f 15 25 34
f 15 34 22
f 18 26 19
f 19 26 27
f 19 27 28
f 19 28 29
f 19 29 30
f 19 30 20
f 20 30 31
f 20 31 23
f 21 32 33
f 23 31 24
f 24 31 36
f 24 36 48
f 24 48 35
f 25 35 37
f 25 37 38
f 25 38 39
f 25 39 40
f 25 40 41
f 25 41 47
f 25 47 34
f 26 28 27
f 28 42 29
f 29 42 43
f 29 43 30
f 30 43 31
f 31 43 36
f 32 44 33
f 33 44 45
f 33 45 46
f 35 48 49
f 35 49 37
f 36 43 50
f 36 50 59
f 36 59 48
f 37 49 51
f 37 51 52
f 37 52 38
f 38 52 39
f 39 52 53
f 39 53 40
f 40 53 41
f 41 53 47
f 42 54 43
f 43 54 55
f 43 55 50
f 45 56 57
f 45 57 58
f 45 58 46
f 48 59 49
f 49 59 51
f 50 55 63
f 50 63 59
f 51 60 62
f 51 62 52
f 51 59 61
f 51 61 60
f 52 62 56
f 52 56 53
f 56 62 64
f 56 64 57
f 57 64 58
f 58 64 65
f 58 65 66
f 59 63 67
f 59 67 68
f 59 68 61
f 60 64 62
f 60 61 69
f 60 69 64
f 61 68 67
f 61 67 69
f 64 69 65
f 65 69 70
f 65 70 66
f 67 71 69
f 69 71 70

