# https://github.com/mikedh/trimesh
v 24.85213767 -15.44308435 64.70688893
v 24.84952308 -15.44308435 64.70688893
v 25.96757319 -23.24885395 64.70688893
v 28.19671003 68.14941427 64.70555257
v 24.84952308 -31.05462354 64.70688893
v 27.08214161 67.04034080 64.70555257
v 24.84952308 64.81162921 64.70555257
v 25.96757319 -32.16369701 64.70688893
v 29.31040803 69.26905240 64.62269140
v 29.24074439 70.47318788 64.45296082
v 28.10440878 69.36411442 64.51978396
v 24.84952308 65.92070268 64.59061703
v 28.19671003 -32.16369701 64.70555257
v 24.84952308 -32.16369701 64.70555257
v 24.85213767 -32.16369701 64.70688893
v 28.19671003 -33.28333514 64.68015917
v 30.12369258 69.26905240 64.39014594
v 30.12369258 70.37812587 64.38881041
v 30.03835802 71.12807063 64.33936082
v 29.31040803 -17.67179595 64.62269140
v 29.56379710 71.12807063 64.33936082
v 28.41439852 70.15631117 64.39549222
v 26.16349450 67.94872558 64.39549222
v 24.85213767 66.75515143 64.35807156
v 24.84952308 66.75515143 64.35673437
v 29.31040803 -33.28333514 64.59997157
v 29.31040803 -32.16369701 64.62135504
v 24.84952308 -33.28333514 64.68015917
v 28.19671003 -34.04384456 64.44761454
v 29.31040803 -34.01215390 64.41019388
v 33.74429661 70.37812587 62.70753596
v 30.12369258 0.16845318 64.39014594
v 33.74429661 71.49776067 62.70085331
v 33.74429661 72.58571146 62.63803926
v 33.74429661 72.61739880 62.63536570
v 33.74429661 73.37790822 62.30124999
v 33.74429661 73.38846956 62.29323098
v 31.19907541 72.28995743 63.31963681
v 30.12282216 -32.16369701 64.38881041
v 30.65311166 72.28995743 63.31963681
v 29.37658334 71.33932398 63.68315583
v 28.82017121 70.89569459 63.68315583
v 25.41986860 67.58959687 63.96648642
v 24.84952308 67.04034080 63.73394178
v 30.02007252 -33.92765322 64.32866908
v 30.10976085 -33.28333514 64.38079140
v 24.84952308 -34.04384456 64.44627818
v 24.85213767 -34.04384456 64.44761454
v 28.19671003 -34.26565925 63.68315583
v 29.31040803 -34.23396859 63.68315583
v 30.40494678 -34.06496723 63.68850128
v 33.74429661 49.20009002 62.70753596
v 32.65498039 73.38846956 62.29456734
v 33.74429661 73.62084559 61.45393012
v 30.68010471 -32.16369701 64.00524427
v 31.77812847 73.31453022 62.20101528
v 30.47722002 72.48008479 62.56854256
v 28.22979934 70.33587387 63.68315583
v 29.91993581 72.01532940 62.56854256
v 27.67251347 69.79718246 63.68315583
v 25.40767937 67.60015821 63.22341201
v 24.84952308 67.05090214 62.57522521
v 31.17730656 -33.96990522 63.32097400
v 30.66704340 -33.28333514 63.99054262
v 24.84952308 -34.26565925 63.68048310
v 24.85213767 -34.26565925 63.68315583
v 29.31040803 -34.28678193 62.56854256
v 30.42497312 -34.26565925 62.56854256
v 33.74429661 48.09101655 62.68481529
v 31.30443797 -32.16369701 63.44793764
v 32.65498039 73.62084559 61.45393012
v 33.74429661 73.62084559 60.33931768
v 31.61877982 73.38846956 61.45393012
v 31.06149728 73.11384153 61.45393012
v 30.46676998 72.56458546 61.45393012
v 29.34088275 71.45551200 62.56854256
v 25.40680895 67.60015821 62.56854256
v 28.21586595 70.35699987 62.56854256
v 24.84952308 67.05090214 60.33397140
v 31.54563616 -34.03327990 62.51775744
v 32.14123388 -33.88540454 62.11147147
v 31.84691837 -33.28333514 62.73292852
v 31.28963416 -33.28333514 63.43323681
v 24.84952308 -34.28678193 62.56586983
v 24.85213767 -34.28678193 62.56854256
v 30.42497312 -34.28678193 61.45393012
v 31.54041197 -34.13890657 61.45393012
v 33.74429661 48.05932921 62.68080620
v 31.86172052 -32.16369701 62.74762935
v 32.16996942 -33.28333514 62.17562188
v 32.65498039 73.62084559 51.05488590
v 33.74429661 73.61028425 59.22470441
v 31.61877982 73.38846956 53.65163972
v 31.06149728 73.11384153 53.65163972
v 30.46676998 72.56458546 53.65163972
v 25.40680895 67.60015821 60.33931768
v 28.21586595 70.35699987 53.65163972
v 25.55657797 67.04034080 53.65163972
v 24.84952308 66.80796145 59.46794120
v 25.40767937 67.60015821 59.77399204
v 26.53269618 68.69867034 53.65163972
v 26.05029648 68.14941427 53.65163972
v 26.13650145 68.10716559 52.53702687
v 32.16300273 -33.91709188 61.45393012
v 32.24224101 -33.28333514 61.45393012
v 24.84952308 -34.28678193 61.45125656
v 30.42497312 -34.28678193 53.65163972
v 31.54041197 -34.13890657 53.65163972
v 33.74429661 46.97138008 62.41084008
v 33.02330999 73.55747092 51.05488590
v 32.03238963 73.46240890 51.05488590
v 31.63967825 73.38846956 52.53702687
v 33.74429661 73.43072156 51.05488590
v 31.08239404 73.08215419 52.53702687
v 30.50160014 72.52233679 52.53702687
v 26.57187845 68.66698300 52.53702687
v 27.08997873 69.24792640 53.65163972
v 25.73769547 67.04034080 52.53702687
v 25.53742205 65.92070268 53.65163972
v 24.84952308 65.79395332 58.63665893
v 24.84952308 65.92070268 58.72085646
v 24.84952308 66.60727276 59.24207838
v 26.32284148 67.90647358 51.86344791
v 32.16300273 -33.91709188 53.65163972
v 32.24224101 -33.28333514 53.65163972
v 33.74429661 37.66572097 58.11009156
v 33.74429661 37.97203634 59.22470441
v 33.74429661 38.43679173 59.89961973
v 24.85213767 -34.28678193 60.33931768
v 24.84952308 -34.27622059 60.33664412
v 30.42497312 -34.22340725 52.53702687
v 31.54041197 -34.09665790 52.53702687
v 27.08214161 -34.28678193 53.65163972
v 32.14645807 -33.89596588 52.53702687
v 31.74678166 73.38846956 51.05488590
v 33.74429661 37.68684531 51.05488590
v 26.22183601 67.04034080 51.80598014
v 25.72724708 65.92070268 52.53702687
v 24.84952308 64.81162921 58.61126637
v 25.72637334 36.93690055 52.53702687
v 25.53742205 -32.16369701 53.65163972
v 31.26438196 72.65965080 51.05488590
v 32.20828127 -33.28333514 52.53702687
v 33.74429661 37.67628231 51.42107765
v 33.74429661 37.66572097 52.53702687
v 24.84952308 -34.06496723 59.22336805
v 26.17655414 -34.03327990 52.53702687
v 27.08214161 -34.22340725 52.53702687
v 30.42497312 -34.00159256 51.82469047
v 31.54041197 -33.93821788 51.88349502
v 32.11946503 -33.86427854 51.95432767
v 32.70025893 37.63403197 51.05488590
v 32.13600968 -33.28333514 51.93561734
v 31.54041197 -33.28333514 51.76989543
v 31.54041197 -32.16369701 51.75385783
v 30.42497312 -32.16369701 51.63090286
v 27.08214161 67.04034080 51.63090286
v 26.22096559 65.92070268 51.80598014
v 26.22009517 44.74267015 51.80598014
v 24.84952308 -32.16369701 58.61126637
v 25.72637334 -32.16369701 52.53702687
v 25.77774816 -33.28333514 52.53702687
v 24.84952308 -33.84315254 58.65937918
v 24.84952308 -33.28333514 58.63131348
v 31.15902106 71.49776067 51.05488590
v 26.34025656 -33.94877922 51.87681279
v 27.08214161 -34.00159256 51.82469047
v 30.42497312 -33.28333514 51.64961319
v 31.51603185 37.99316068 51.05488590
v 27.08214161 -32.16369701 51.63090286
v 31.15379687 70.37812587 51.05488590
v 26.22009517 -32.16369701 51.80598014
v 26.23402524 -33.28333514 51.81533510
v 27.08214161 -33.28333514 51.64961319
v 31.15379687 39.16561049 51.05488590
f 1 2 5
f 1 5 15
f 1 15 8
f 1 8 3
f 1 3 4
f 1 4 2
f 2 4 6
f 2 6 7
f 2 7 12
f 2 12 25
f 2 25 44
f 2 44 62
f 2 62 79
f 2 79 99
f 2 99 122
f 2 122 121
f 2 121 120
f 2 120 139
f 2 139 160
f 2 160 164
f 2 164 163
f 2 163 146
f 2 146 130
f 2 130 106
f 2 106 84
f 2 84 65
f 2 65 47
f 2 47 28
f 2 28 14
f 2 14 5
f 3 8 13
f 3 13 4
f 4 9 10
f 4 10 11
f 4 11 12
f 4 12 6
f 4 13 20
f 4 20 9
f 5 14 15
f 6 12 7
f 8 15 28
f 8 28 16
f 8 16 13
f 9 17 18
f 9 18 19
f 9 19 10
f 9 20 32
f 9 32 17
f 10 19 21
f 10 21 22
f 10 22 11
f 11 22 12
f 12 23 24
f 12 24 25
f 12 22 23
f 13 16 26
f 13 26 27
f 13 27 20
f 14 28 15
f 16 28 48
f 16 48 29
f 16 29 30
f 16 30 26
f 17 31 18
f 17 32 52
f 17 52 31
f 18 31 33
f 18 33 34
f 18 34 35
f 18 35 19
f 19 35 36
f 19 36 37
f 19 37 38
f 19 38 40
f 19 40 21
f 20 27 39
f 20 39 32
f 21 40 41
f 21 41 42
f 21 42 22
f 22 42 43
f 22 43 25
f 22 25 24
f 22 24 23
f 25 43 44
f 26 30 45
f 26 45 46
f 26 46 27
f 27 46 39
f 28 47 48
f 29 48 66
f 29 66 49
f 29 49 50
f 29 50 30
f 30 50 51
f 30 51 45
f 31 52 69
f 31 69 88
f 31 88 109
f 31 109 128
f 31 128 127
f 31 127 126
f 31 126 145
f 31 145 144
f 31 144 136
f 31 136 113
f 31 113 92
f 31 92 72
f 31 72 54
f 31 54 37
f 31 37 36
f 31 36 35
f 31 35 34
f 31 34 33
f 32 39 52
f 37 53 38
f 37 54 53
f 38 53 40
f 39 46 55
f 39 55 52
f 40 53 56
f 40 56 57
f 40 57 41
f 41 57 42
f 42 58 43
f 42 57 59
f 42 59 58
f 43 58 60
f 43 60 44
f 44 60 61
f 44 61 62
f 45 51 63
f 45 63 64
f 45 64 46
f 46 64 55
f 47 65 66
f 47 66 48
f 49 66 85
f 49 85 67
f 49 67 68
f 49 68 50
f 50 68 51
f 51 68 63
f 52 55 70
f 52 70 69
f 53 54 71
f 53 71 56
f 54 72 91
f 54 91 71
f 55 64 70
f 56 71 73
f 56 73 74
f 56 74 57
f 57 74 59
f 58 59 60
f 59 74 75
f 59 75 76
f 59 76 60
f 60 76 61
f 61 77 62
f 61 76 78
f 61 78 77
f 62 77 96
f 62 96 79
f 63 68 80
f 63 80 81
f 63 81 82
f 63 82 83
f 63 83 64
f 64 83 70
f 65 84 85
f 65 85 66
f 67 85 84
f 67 84 106
f 67 106 129
f 67 129 133
f 67 133 107
f 67 107 86
f 67 86 68
f 68 86 87
f 68 87 80
f 69 70 89
f 69 89 82
f 69 82 90
f 69 90 88
f 70 83 82
f 70 82 89
f 71 91 93
f 71 93 73
f 72 92 91
f 73 93 94
f 73 94 74
f 74 94 95
f 74 95 75
f 75 95 97
f 75 97 78
f 75 78 76
f 77 78 97
f 77 97 96
f 79 98 99
f 79 96 100
f 79 100 101
f 79 101 102
f 79 102 103
f 79 103 98
f 80 87 81
f 81 87 104
f 81 104 105
f 81 105 90
f 81 90 82
f 86 107 108
f 86 108 87
f 87 108 124
f 87 124 104
f 88 90 105
f 88 105 109
f 91 92 110
f 91 110 113
f 91 113 136
f 91 136 152
f 91 152 169
f 91 169 175
f 91 175 171
f 91 171 165
f 91 165 142
f 91 142 135
f 91 135 111
f 91 111 112
f 91 112 93
f 92 113 110
f 93 112 94
f 94 114 95
f 94 112 114
f 95 114 115
f 95 115 97
f 96 97 100
f 97 115 116
f 97 116 117
f 97 117 100
f 98 118 119
f 98 119 120
f 98 120 121
f 98 121 122
f 98 122 99
f 98 103 118
f 100 117 101
f 101 117 116
f 101 116 102
f 102 116 103
f 103 116 123
f 103 123 118
f 104 124 125
f 104 125 105
f 105 125 145
f 105 145 126
f 105 126 127
f 105 127 128
f 105 128 109
f 106 130 129
f 107 131 132
f 107 132 108
f 107 133 148
f 107 148 131
f 108 132 134
f 108 134 124
f 111 135 112
f 112 135 114
f 114 135 115
f 115 135 116
f 116 135 123
f 118 123 137
f 118 137 138
f 118 138 119
f 119 139 120
f 119 138 140
f 119 140 161
f 119 161 141
f 119 141 160
f 119 160 139
f 123 135 142
f 123 142 137
f 124 134 125
f 125 134 143
f 125 143 136
f 125 136 144
f 125 144 145
f 129 130 146
f 129 146 147
f 129 147 148
f 129 148 133
f 131 149 150
f 131 150 132
f 131 148 167
f 131 167 149
f 132 150 151
f 132 151 134
f 134 151 143
f 136 143 153
f 136 153 154
f 136 154 155
f 136 155 156
f 136 156 152
f 137 142 157
f 137 157 158
f 137 158 138
f 138 158 159
f 138 159 140
f 140 159 172
f 140 172 161
f 141 161 162
f 141 162 163
f 141 163 164
f 141 164 160
f 142 165 157
f 143 151 153
f 146 163 162
f 146 162 147
f 147 162 166
f 147 166 148
f 148 166 167
f 149 167 174
f 149 174 168
f 149 168 150
f 150 168 154
f 150 154 151
f 151 154 153
f 152 156 170
f 152 170 169
f 154 168 156
f 154 156 155
f 156 168 174
f 156 174 170
f 157 159 158
f 157 165 171
f 157 171 175
f 157 175 170
f 157 170 172
f 157 172 159
f 161 172 173
f 161 173 162
f 162 173 166
f 166 173 174
f 166 174 167
f 169 170 175
f 170 174 173
f 170 173 172

