# https://github.com/mikedh/trimesh
v 66.34504832 51.44352902 47.95624921
v 64.15904221 51.44352902 44.82812284
v 66.34504832 51.44352902 41.48131213
v 66.34504832 71.50207624 47.84342162
v 64.15904221 71.50207624 44.82178404
v 64.15904221 51.44352902 41.48131213
v 64.15904221 68.98173016 41.48067842
v 66.34504832 69.02514826 41.48067842
v 66.34504832 72.21628055 47.67671468
v 64.15904221 72.63525242 44.78628778
v 64.15904221 71.79296654 44.81671267
v 64.15904221 71.50207624 41.48067842
v 66.34504832 71.50207624 41.48067842
v 66.34504832 72.61788717 47.52205161
v 64.15904221 73.39287482 44.45794525
v 64.15904221 72.61788717 41.50666649
v 66.34504832 72.61788717 41.50666649
v 66.34504832 73.19098681 46.68978597
v 64.15904221 73.61647355 43.61870668
v 66.34504832 73.36682529 46.13705527
v 64.15904221 73.18013312 41.67907810
v 66.34504832 73.37767899 41.73992955
v 64.98315470 73.61864296 43.61870668
v 64.15904221 73.60127771 42.50373711
v 66.34504832 73.61864296 43.61870668
v 64.15904221 73.37767899 41.73992955
v 66.34504832 73.60127771 42.50373711
v 66.34504832 73.61647355 43.37149943
f 1 2 6
f 1 6 3
f 1 3 8
f 1 8 13
f 1 13 17
f 1 17 22
f 1 22 27
f 1 27 28
f 1 28 25
f 1 25 20
f 1 20 18
f 1 18 14
f 1 14 9
f 1 9 4
f 1 4 5
f 1 5 2
f 2 5 11
f 2 11 10
f 2 10 15
f 2 15 19
f 2 19 24
f 2 24 26
f 2 26 21
f 2 21 16
f 2 16 12
f 2 12 7
f 2 7 6
f 3 7 8
f 3 6 7
f 4 9 10
f 4 10 11
f 4 11 5
f 7 12 13
f 7 13 8
f 9 14 10
f 10 14 15
f 12 16 17
f 12 17 13
f 14 18 15
f 15 18 20
f 15 20 19
f 16 21 17
f 17 21 22
f 19 23 24
f 19 20 23
f 20 25 23
f 21 26 22
f 22 26 24
f 22 24 27
f 23 25 28
f 23 28 24
f 24 28 27

