# https://github.com/mikedh/trimesh
v 33.29478160 24.33845172 6.52079021
v 32.89149672 24.33845172 6.69191024
v 32.89149672 25.97381743 6.69229486
v 33.29478160 25.97381743 6.52194407
v 111.82241649 24.33845172 6.52079021
v 32.39948906 24.33845172 7.10029132
v 32.40755389 25.97381743 7.10067594
v 32.41562114 26.79057259 7.11759612
v 33.00441639 26.87036150 6.67460605
v 33.31897850 26.65140544 6.52617366
v 111.82241649 25.97381743 6.52194407
v 112.22570137 25.97381743 6.69229486
v 112.22570137 24.33845172 6.69229486
v 31.58485448 24.33845172 8.81495436
v 31.58485448 24.34061657 8.81495436
v 31.58485448 25.97381743 8.81533898
v 32.46401494 27.27178080 7.20680879
v 31.60905138 26.79057259 8.83879585
v 31.65744517 27.25167899 8.90301379
v 32.94795777 27.32837513 7.03914972
v 42.74777945 26.98726185 6.55155362
v 111.79821959 26.65140544 6.52617366
v 112.70157695 26.79057259 7.11759612
v 112.70964420 25.97381743 7.10067594
v 112.71770902 24.33845172 7.10029132
v 112.11278170 26.87036150 6.67422143
v 31.35901027 24.33845172 9.39330161
v 31.36708239 25.97381743 9.39330161
v 32.38335699 27.32837513 7.75977729
v 32.94795777 27.47743861 7.75977729
v 31.58485448 27.31322164 9.39330161
v 31.40740407 26.79057259 9.39330161
v 36.21456337 27.34414754 6.99723481
v 39.48117141 27.34816778 6.96877911
v 42.74777945 27.34816778 6.95993470
v 83.58440866 26.98726185 6.55155362
v 102.36941864 26.98695239 6.55155362
v 112.65318315 27.27208995 7.20680879
v 113.45975779 27.25167899 8.90301379
v 113.50815158 26.79057259 8.83879585
v 113.53234848 25.97381743 8.81533898
v 113.53234848 24.34061657 8.81495436
v 113.53234848 24.33845172 8.81495436
v 112.16924032 27.32837513 7.03914972
v 31.49612927 24.33845172 10.09816286
v 31.49612927 25.97381743 10.09816286
v 31.52032617 26.79057259 10.07547522
v 32.13332075 27.46228512 9.39330161
v 32.94795777 27.49754042 8.57653945
v 36.21456337 27.49321041 7.75977729
v 31.60098899 27.29837730 9.96895775
v 39.48117141 27.49754042 7.75977729
v 102.36941864 27.34816778 6.95993470
v 105.63602668 27.34816778 6.96877911
v 108.90263472 27.34414754 6.99723481
v 112.16924032 27.47743861 7.75977729
v 112.73384110 27.32837513 7.75977729
v 113.53234848 27.31322164 9.39330161
v 113.70978915 26.79057259 9.39330161
v 113.75012056 25.97381743 9.39330161
v 113.75818295 24.33845172 9.39330161
v 32.13332075 24.33845172 10.42194486
v 32.13332075 25.97381743 10.42194486
v 32.13332075 26.79057259 10.36272575
v 32.13332075 27.34816778 10.05240297
v 32.94795777 27.49754042 9.39330161
v 105.63602668 27.49754042 7.75977729
v 108.90263472 27.49321041 7.75977729
v 112.16924032 27.49754042 8.57653945
v 112.98387734 27.46228512 9.39330161
v 113.51621397 27.29837730 9.96895775
v 113.59686705 26.79057259 10.07547522
v 113.62106395 25.97381743 10.09816286
v 113.62106395 24.33845172 10.09816286
v 32.94795777 24.33845172 10.44924792
v 32.94795777 25.97381743 10.44924792
v 32.94795777 26.79057259 10.37618497
v 112.98387734 27.34816778 10.05240297
v 112.16924032 27.49754042 9.39330161
v 112.98387734 26.79057259 10.36272575
v 112.98387734 25.97381743 10.42194486
v 112.98387734 24.33845172 10.42194486
v 112.16924032 24.33845172 10.44924792
v 112.16924032 25.97381743 10.44924792
v 112.16924032 26.79057259 10.37618497
f 1 2 3
f 1 3 4
f 1 4 11
f 1 11 5
f 1 5 13
f 1 13 25
f 1 25 43
f 1 43 61
f 1 61 74
f 1 74 82
f 1 82 83
f 1 83 75
f 1 75 62
f 1 62 45
f 1 45 27
f 1 27 14
f 1 14 6
f 1 6 2
f 2 6 3
f 3 6 7
f 3 7 8
f 3 8 9
f 3 9 10
f 3 10 4
f 4 10 22
f 4 22 11
f 5 11 12
f 5 12 13
f 6 14 15
f 6 15 16
f 6 16 7
f 7 16 8
f 8 17 9
f 8 16 18
f 8 18 19
f 8 19 17
f 9 17 20
f 9 20 21
f 9 21 10
f 10 21 36
f 10 36 22
f 11 22 12
f 12 23 24
f 12 24 25
f 12 25 13
f 12 22 26
f 12 26 23
f 14 27 15
f 15 27 16
f 16 27 28
f 16 28 18
f 17 29 30
f 17 30 20
f 17 19 31
f 17 31 29
f 18 28 32
f 18 32 19
f 19 32 31
f 20 30 33
f 20 33 21
f 21 33 34
f 21 34 35
f 21 35 53
f 21 53 36
f 22 36 37
f 22 37 26
f 23 26 38
f 23 38 39
f 23 39 40
f 23 40 41
f 23 41 24
f 24 41 25
f 25 41 42
f 25 42 43
f 26 44 38
f 26 37 44
f 27 45 46
f 27 46 28
f 28 46 47
f 28 47 32
f 29 31 48
f 29 48 30
f 30 48 49
f 30 49 50
f 30 50 33
f 31 32 51
f 31 51 48
f 32 47 51
f 33 50 34
f 34 50 52
f 34 52 35
f 35 52 67
f 35 67 53
f 36 53 37
f 37 53 54
f 37 54 55
f 37 55 44
f 38 44 56
f 38 56 57
f 38 57 58
f 38 58 39
f 39 58 59
f 39 59 40
f 40 59 60
f 40 60 41
f 41 60 61
f 41 61 42
f 42 61 43
f 44 55 56
f 45 62 63
f 45 63 46
f 46 63 47
f 47 63 64
f 47 64 51
f 48 51 65
f 48 65 66
f 48 66 49
f 49 66 79
f 49 79 69
f 49 69 67
f 49 67 52
f 49 52 50
f 51 64 65
f 53 67 54
f 54 67 68
f 54 68 55
f 55 68 56
f 56 69 70
f 56 70 57
f 56 68 69
f 57 70 58
f 58 70 71
f 58 71 59
f 59 71 72
f 59 72 60
f 60 72 73
f 60 73 61
f 61 73 74
f 62 75 76
f 62 76 63
f 63 76 64
f 64 76 77
f 64 77 65
f 65 77 85
f 65 85 78
f 65 78 79
f 65 79 66
f 67 69 68
f 69 79 70
f 70 78 71
f 70 79 78
f 71 78 80
f 71 80 72
f 72 80 81
f 72 81 73
f 73 81 82
f 73 82 74
f 75 83 84
f 75 84 76
f 76 84 85
f 76 85 77
f 78 85 80
f 80 85 84
f 80 84 81
f 81 84 83
f 81 83 82

