# https://github.com/mikedh/trimesh
v 76.94322841 30.39184699 6.01217935
v 76.94322841 30.39184699 10.61311353
v 76.94322841 34.15200265 6.01217935
v 107.30960632 30.39184699 6.01217935
v 76.94322841 31.41369800 10.61311353
v 100.65302507 30.39184699 10.61311353
v 76.94322841 34.15200265 10.54150563
v 105.97181573 34.15200265 6.01217935
v 112.27956413 30.39184699 6.45128557
v 76.94322841 32.22646525 10.60365601
v 100.65302507 31.41369800 10.61311353
v 105.11232149 34.15200265 10.61266337
v 111.80127111 30.39184699 10.61266337
v 76.94322841 32.52830866 10.60005307
v 111.76530478 34.15200265 7.52675842
v 112.91609438 30.39184699 6.57378529
v 111.80127111 31.41369800 10.61266337
v 110.68644451 34.15200265 10.61266337
v 112.91968902 30.39184699 10.40189192
v 112.28315877 34.15200265 7.92308030
v 112.44858527 33.38892913 7.60872501
v 113.11028797 30.39184699 6.66340792
v 111.80127111 32.52830866 10.56852771
v 111.80127111 33.64291931 10.40639602
v 111.81925095 34.15200265 10.30596455
v 113.57779375 30.39184699 10.05330907
v 112.65356942 32.52830866 10.22084518
v 112.29754397 34.15200265 7.94875107
v 112.30473990 34.13212582 7.93569061
v 113.62454400 30.39184699 7.29076719
v 112.46656511 33.64291931 10.05916448
v 112.38026055 34.15200265 9.94972482
v 113.68208481 30.39184699 9.36019647
v 113.48788790 30.90498011 9.94612270
v 112.38744982 34.15200265 8.62069658
v 113.48788790 30.90056488 7.65150977
v 113.67849017 30.39184699 8.15411769
v 112.40183503 34.15200265 9.36019647
v 113.49867846 30.92596324 8.24599196
v 112.39464243 34.15200265 8.76571387
f 1 2 5
f 1 5 10
f 1 10 14
f 1 14 7
f 1 7 3
f 1 3 8
f 1 8 4
f 1 4 9
f 1 9 16
f 1 16 22
f 1 22 30
f 1 30 37
f 1 37 33
f 1 33 26
f 1 26 19
f 1 19 13
f 1 13 6
f 1 6 2
f 2 6 11
f 2 11 5
f 3 7 12
f 3 12 18
f 3 18 25
f 3 25 32
f 3 32 38
f 3 38 40
f 3 40 35
f 3 35 28
f 3 28 20
f 3 20 15
f 3 15 8
f 4 8 9
f 5 11 18
f 5 18 12
f 5 12 10
f 6 13 17
f 6 17 11
f 7 14 12
f 8 15 16
f 8 16 9
f 10 12 14
f 11 17 18
f 13 19 17
f 15 20 21
f 15 21 22
f 15 22 16
f 17 23 18
f 17 19 23
f 18 23 24
f 18 24 25
f 19 26 27
f 19 27 23
f 20 28 29
f 20 29 21
f 21 30 22
f 21 29 30
f 23 27 24
f 24 27 25
f 25 27 31
f 25 31 32
f 26 33 34
f 26 34 32
f 26 32 31
f 26 31 27
f 28 35 29
f 29 35 36
f 29 36 30
f 30 36 37
f 32 34 38
f 33 37 39
f 33 39 38
f 33 38 34
f 35 40 36
f 36 39 37
f 36 40 39
f 38 39 40

