# https://github.com/mikedh/trimesh
v 33.74496604 54.52692405 0.05064921
v 33.76111866 54.52475464 0.05064921
v 37.11268806 54.70489193 -8.47534804
v 33.74496604 54.71140347 -7.33548687
v 33.74496604 32.54156098 0.05064921
v 33.77001888 54.52258191 0.05064921
v 37.11268806 54.69186883 -9.59015802
v 35.99912391 54.70923074 -8.47534804
v 34.35449164 54.30120926 0.05064921
v 37.11268806 54.48351928 -7.68099418
v 34.88490196 54.71140347 -8.47534804
v 33.74496604 54.71140347 -8.47534804
v 33.74496604 32.54156098 -10.61206718
v 34.41020357 32.54156098 0.05064921
v 33.74496604 54.69186883 -9.59015802
v 37.11268806 54.46832678 -10.35424066
v 34.37987505 53.91706456 0.05064921
v 37.11268806 53.70654228 -7.40751088
v 37.11268806 32.54156098 -10.61206718
v 33.74496604 52.61704095 -10.61206718
v 34.88490196 52.59316749 -10.61311035
v 37.11268806 32.54156098 -7.36993328
v 37.11268806 52.59099808 -7.37097646
v 34.40624681 52.59316749 0.05064921
v 33.74496604 54.46832678 -10.35424066
v 33.74496604 53.72390419 -10.58179513
v 37.11268806 53.70654228 -10.58701433
v 34.39372039 53.70654228 0.05064921
v 37.11268806 52.59316749 -10.61311035
v 33.74496604 53.70654228 -10.58701433
v 34.40196115 52.98382374 0.05064921
f 1 2 3
f 1 3 4
f 1 4 12
f 1 12 15
f 1 15 25
f 1 25 26
f 1 26 30
f 1 30 20
f 1 20 13
f 1 13 5
f 1 5 14
f 1 14 24
f 1 24 31
f 1 31 28
f 1 28 17
f 1 17 9
f 1 9 6
f 1 6 2
f 2 6 3
f 3 7 8
f 3 8 4
f 3 6 9
f 3 9 10
f 3 10 18
f 3 18 23
f 3 23 22
f 3 22 19
f 3 19 29
f 3 29 27
f 3 27 16
f 3 16 7
f 4 8 11
f 4 11 12
f 5 13 19
f 5 19 22
f 5 22 14
f 7 15 12
f 7 12 11
f 7 11 8
f 7 16 25
f 7 25 15
f 9 17 18
f 9 18 10
f 13 20 21
f 13 21 29
f 13 29 19
f 14 22 23
f 14 23 24
f 16 26 25
f 16 27 26
f 17 28 18
f 18 28 23
f 20 30 21
f 21 30 27
f 21 27 29
f 23 28 31
f 23 31 24
f 26 27 30

