# https://github.com/mikedh/trimesh
v 56.47080135 50.30976481 59.25908648
v 64.15807627 50.30976481 59.12696344
v 56.47080135 50.30976481 62.70655590
v 56.47080135 71.50103638 59.48057685
v 64.15807627 50.30976481 62.70655590
v 64.15807627 71.50103638 59.35791631
v 59.40950022 69.27169689 62.70690640
v 56.47080135 70.38750782 62.70690640
v 56.47080135 72.21068261 59.49144134
v 64.15807627 69.27169689 62.70690640
v 56.47080135 72.61684731 59.49774940
v 64.15807627 72.32705667 59.37368690
v 56.47080135 71.50103638 62.70690640
v 64.15807627 71.50103638 62.70690640
v 56.47080135 73.32421117 59.64879748
v 64.15807627 72.61684731 59.38840599
v 56.47080135 72.61684731 62.64172028
v 64.15807627 72.61684731 62.64172028
v 64.15807627 73.14622986 59.51351998
v 56.47080135 73.54782983 60.33990322
v 64.15807627 73.34246677 59.60043426
v 64.15807627 72.81993133 62.55130190
v 56.47080135 73.39723026 62.29406486
v 56.47080135 73.62084892 61.45436450
v 64.15807627 73.56380307 60.33990322
v 64.15807627 73.50675722 60.12191739
v 64.15807627 73.39723026 62.29406486
v 64.15807627 73.62084892 61.45436450
v 64.15807627 73.61172278 61.16383300
f 1 2 5
f 1 5 3
f 1 3 8
f 1 8 13
f 1 13 17
f 1 17 23
f 1 23 24
f 1 24 20
f 1 20 15
f 1 15 11
f 1 11 9
f 1 9 4
f 1 4 2
f 2 4 6
f 2 6 12
f 2 12 16
f 2 16 19
f 2 19 21
f 2 21 26
f 2 26 25
f 2 25 29
f 2 29 28
f 2 28 27
f 2 27 22
f 2 22 18
f 2 18 14
f 2 14 10
f 2 10 5
f 3 5 10
f 3 10 7
f 3 7 8
f 4 9 6
f 6 9 11
f 6 11 12
f 7 10 14
f 7 14 13
f 7 13 8
f 11 15 16
f 11 16 12
f 13 14 18
f 13 18 17
f 15 19 16
f 15 20 21
f 15 21 19
f 17 18 22
f 17 22 23
f 20 24 25
f 20 25 26
f 20 26 21
f 22 27 23
f 23 27 28
f 23 28 24
f 24 28 29
f 24 29 25

