# https://github.com/mikedh/trimesh
v 106.86654209 31.07306107 -6.44339171
v 106.86654209 26.10488230 -6.44339171
v 106.86654209 30.21741063 -2.50940517
v 112.91692161 29.70539710 -2.50940517
v 112.91692161 30.29471531 -6.44339171
v 106.86654209 25.66381971 -6.00666710
v 111.80226777 26.10117637 -6.44339171
v 111.80226777 25.66381971 -6.01051838
v 106.86654209 25.66381971 -2.50940517
v 113.78065500 29.16161320 -2.50940517
v 113.61950087 29.98867263 -6.44339171
v 112.91692161 26.12765112 -6.44339171
v 112.22211634 25.66381971 -6.00127514
v 114.08741529 25.66381971 -2.50940517
v 113.88879983 28.77720604 -2.50940517
v 113.93261988 29.18385212 -6.44339171
v 113.87537143 29.37076008 -6.44339171
v 113.22721674 26.27855455 -6.44339171
v 112.91692161 25.66381971 -5.98471472
v 114.08741529 25.66381971 -4.01675925
v 114.08741529 25.77818871 -2.50940517
v 114.08671098 28.06980957 -2.50940517
v 114.07045204 28.26730876 -6.44339171
v 113.82165117 26.88058191 -6.44339171
v 113.65342736 26.06305392 -6.01745019
v 113.82306643 25.66381971 -5.21216706
v 114.08671098 28.06980957 -6.44339171
v 113.84921893 25.66381971 -5.12204942
v 113.85557765 26.99495091 -6.44339171
f 1 2 6
f 1 6 9
f 1 9 3
f 1 3 4
f 1 4 5
f 1 5 11
f 1 11 17
f 1 17 16
f 1 16 23
f 1 23 27
f 1 27 29
f 1 29 24
f 1 24 18
f 1 18 12
f 1 12 7
f 1 7 2
f 2 7 8
f 2 8 6
f 3 9 14
f 3 14 21
f 3 21 22
f 3 22 15
f 3 15 10
f 3 10 4
f 4 10 11
f 4 11 5
f 6 8 13
f 6 13 19
f 6 19 26
f 6 26 28
f 6 28 20
f 6 20 14
f 6 14 9
f 7 12 13
f 7 13 8
f 10 15 16
f 10 16 17
f 10 17 11
f 12 18 19
f 12 19 13
f 14 20 21
f 15 22 16
f 16 22 23
f 18 24 25
f 18 25 19
f 19 25 26
f 20 27 21
f 20 28 29
f 20 29 27
f 21 27 22
f 22 27 23
f 24 29 26
f 24 26 25
f 26 29 28

