# https://github.com/mikedh/trimesh
v 1.38684938 -0.95453707 61.45435287
v 1.38914835 -32.16383987 60.33937001
v 1.38914835 -32.16383987 62.56844622
v 1.38914835 46.97049471 62.56844622
v 1.38914835 36.94105665 60.33937001
v 1.57058146 -13.21604383 59.22527666
v 1.57517941 -32.16383987 59.22527666
v 1.52005713 -33.27491331 61.45435287
v 1.43508137 -33.27491331 62.56844622
v 1.46723382 -33.27491331 63.68342825
v 1.42819109 -32.16383987 63.68342825
v 1.42819109 46.97049471 63.68342825
v 1.71527080 48.05180771 63.68342825
v 1.69460659 48.06172786 62.56844622
v 1.42130080 46.97049471 61.45435287
v 1.40981921 45.85941795 61.45435287
v 1.41900183 43.62734758 60.33937001
v 1.39144733 43.62734758 61.45435287
v 1.39603864 40.28420212 60.33937001
v 1.57517941 36.94105665 59.22527666
v 1.87603969 -13.21604383 58.58027504
v 1.88292998 -32.16383987 58.58471726
v 1.93575328 -32.76897900 58.62203119
v 1.79795422 -32.92770473 59.22527666
v 1.71986875 -33.30467708 60.39800720
v 1.82551537 -33.98917742 61.45435287
v 1.74283194 -34.05861847 62.56844622
v 1.75202120 -34.04869832 63.68342825
v 1.74972223 -33.27491331 64.46080625
v 1.84158827 -33.96933712 64.37907049
v 1.73594166 -32.16383987 64.47324464
v 1.73594166 46.97049471 64.47324464
v 1.82321639 47.87324168 64.39595069
v 24.29143655 66.48374928 64.24225231
v 24.84722743 67.03928434 63.73406886
v 24.84722743 67.05912464 62.56844622
v 24.84722743 67.05912464 60.34114739
v 1.72905137 47.99228680 61.45435287
v 1.50397758 46.97049471 60.33937001
v 1.47412411 45.85941795 60.33937001
v 1.58895998 40.28420212 59.22527666
v 1.89671055 46.59352236 58.59360129
v 1.88292998 36.94105665 58.58471726
v 6.20065048 -24.35655534 56.13264489
v 6.20065048 -32.16383987 56.13264489
v 6.20065048 46.97049471 56.13442186
v 6.20065048 16.87226495 56.13353317
v 6.21672670 -33.27491331 56.14863681
v 6.30629709 -33.97925727 56.25524853
v 1.94034459 -33.88997259 60.80846255
v 7.01825890 -34.27686510 56.99620087
v 2.55814803 -34.14790315 61.45435287
v 2.55814803 -34.27686510 62.56844622
v 2.55814803 -34.26694495 63.68342825
v 2.55814803 -33.27491331 64.68113757
v 2.55814803 -32.16383987 64.70690222
v 2.55814803 -34.03877817 64.44747999
v 2.55814803 46.97049471 64.70690222
v 24.84722743 65.91829074 64.59051736
v 24.84722743 66.75159666 64.35774764
v 24.84722743 66.80119741 59.46870697
v 24.28454627 66.49366943 59.75033990
v 1.81173480 47.77403685 60.33937001
v 1.90589981 47.60539430 59.61441001
v 1.75891149 46.97049471 59.23593767
v 7.45233026 49.87714526 56.28812066
v 6.34993113 48.77598864 56.29167419
v 6.24887915 48.09148831 56.17706630
v 7.01825890 -8.75190311 55.72929660
v 7.01825890 -32.16383987 55.72929660
v 7.01825890 48.09148831 55.77282973
v 7.01825890 46.97049471 55.73107357
v 7.01825890 31.36584082 55.73018529
v 7.01825890 -33.27491331 55.78526812
v 7.01825890 -34.04869832 56.13975237
v 8.13213962 -34.28678525 56.99620087
v 8.13213962 -34.05861847 56.11487641
v 5.90208585 -34.28678525 62.56844622
v 23.73564568 -34.26694495 63.68342825
v 24.84722743 -33.28483346 64.68024887
v 3.67202543 -33.27491331 64.68113757
v 24.84722743 -32.16383987 64.70601352
v 3.67202543 -16.55918764 64.70690222
v 23.73564568 -34.03877817 64.44747999
v 5.90208585 46.97049471 64.70690222
v 24.84722743 64.80721398 64.70601352
v 24.84722743 66.61271123 59.24393384
v 10.82612155 53.17068831 56.33431904
v 9.69846026 52.08937532 56.30233561
v 8.57539692 50.98821870 56.29522813
v 9.29424902 51.38503136 56.10954549
v 8.17577699 50.27395792 56.10066146
v 7.05500598 49.16288115 56.09888449
v 8.13213962 11.30696969 55.63068064
v 8.13213962 -32.16383987 55.63068064
v 8.13213962 49.20256507 55.72041256
v 8.13213962 48.09148831 55.63156933
v 8.13213962 -33.27491331 55.71152812
v 9.24602034 -34.28678525 56.99620087
v 9.24602034 -34.05861847 56.11487641
v 23.73564568 -34.28678525 62.56844622
v 24.84722743 -34.26694495 63.68076300
v 24.84722743 -34.03877817 64.44570343
v 4.78820513 4.62067875 64.70690222
v 5.90208585 25.79062583 64.70690222
v 24.84722743 65.91829074 58.72153585
v 24.60148610 66.16629782 59.00761059
v 24.23631759 65.42227326 58.65579160
v 24.84722743 65.79924562 58.63713484
v 10.41731568 52.49610813 56.13619842
v 10.36219672 51.43463543 55.73995802
v 9.24602034 50.31363852 55.72574307
v 9.24602034 49.20256507 55.63156933
v 9.24602034 -32.16383987 55.63156933
v 9.24602034 -33.27491331 55.71152812
v 24.84722743 -34.27686510 60.33670475
v 23.73564568 -34.28678525 60.33937001
v 10.36219672 -34.05861847 56.11576469
v 24.84722743 -34.06853862 59.22438797
v 24.84722743 -34.28678525 62.56578096
v 24.84722743 64.80721398 58.61225847
v 10.36219672 50.31363852 55.64045336
v 10.36219672 19.10433531 55.63956508
v 10.36219672 -32.16383987 55.63956508
v 10.36219672 -33.27491331 55.71685862
v 24.84722743 -34.28678525 61.45168679
v 24.84722743 -33.84037184 58.66112210
v 24.84722743 -32.16383987 58.61225847
v 24.84722743 -33.27491331 58.63269261
f 1 2 3
f 1 3 4
f 1 4 5
f 1 5 2
f 2 6 7
f 2 7 8
f 2 8 9
f 2 9 3
f 2 5 6
f 3 9 10
f 3 10 11
f 3 11 12
f 3 12 4
f 4 12 13
f 4 13 14
f 4 14 15
f 4 15 16
f 4 16 17
f 4 17 18
f 4 18 5
f 5 18 19
f 5 19 20
f 5 20 6
f 6 21 7
f 6 20 21
f 7 22 23
f 7 23 24
f 7 24 8
f 7 21 22
f 8 24 25
f 8 25 26
f 8 26 27
f 8 27 9
f 9 27 28
f 9 28 10
f 10 29 11
f 10 28 30
f 10 30 29
f 11 29 31
f 11 31 32
f 11 32 12
f 12 32 33
f 12 33 13
f 13 33 34
f 13 34 35
f 13 35 14
f 14 35 36
f 14 36 37
f 14 37 38
f 14 38 15
f 15 39 40
f 15 40 17
f 15 17 16
f 15 38 39
f 17 40 41
f 17 41 19
f 17 19 18
f 19 41 20
f 20 41 42
f 20 42 43
f 20 43 21
f 21 44 45
f 21 45 22
f 21 43 46
f 21 46 47
f 21 47 44
f 22 45 48
f 22 48 23
f 23 48 49
f 23 49 50
f 23 50 24
f 24 50 26
f 24 26 25
f 26 50 49
f 26 49 51
f 26 51 52
f 26 52 53
f 26 53 27
f 27 53 54
f 27 54 28
f 28 54 30
f 29 55 56
f 29 56 31
f 29 30 55
f 30 54 57
f 30 57 55
f 31 56 58
f 31 58 32
f 32 58 33
f 33 59 60
f 33 60 34
f 33 58 59
f 34 60 35
f 35 60 59
f 35 59 86
f 35 86 82
f 35 82 80
f 35 80 103
f 35 103 102
f 35 102 120
f 35 120 126
f 35 126 116
f 35 116 119
f 35 119 127
f 35 127 129
f 35 129 128
f 35 128 121
f 35 121 109
f 35 109 106
f 35 106 87
f 35 87 61
f 35 61 37
f 35 37 36
f 37 61 62
f 37 62 38
f 38 63 39
f 38 62 63
f 39 63 64
f 39 64 65
f 39 65 42
f 39 42 40
f 40 42 41
f 42 65 64
f 42 64 66
f 42 66 67
f 42 67 68
f 42 68 46
f 42 46 43
f 44 69 70
f 44 70 45
f 44 47 69
f 45 70 48
f 46 68 71
f 46 71 72
f 46 72 73
f 46 73 47
f 47 73 69
f 48 70 74
f 48 74 49
f 49 75 51
f 49 74 75
f 51 76 53
f 51 53 52
f 51 75 77
f 51 77 76
f 53 76 78
f 53 78 54
f 54 78 101
f 54 101 79
f 54 79 84
f 54 84 57
f 55 80 81
f 55 81 56
f 55 57 80
f 56 81 80
f 56 80 82
f 56 82 83
f 56 83 104
f 56 104 105
f 56 105 85
f 56 85 58
f 57 84 80
f 58 85 86
f 58 86 59
f 61 87 88
f 61 88 64
f 61 64 62
f 62 64 63
f 64 88 89
f 64 89 90
f 64 90 66
f 66 90 91
f 66 91 92
f 66 92 93
f 66 93 67
f 67 93 71
f 67 71 68
f 69 94 95
f 69 95 70
f 69 73 94
f 70 95 74
f 71 93 96
f 71 96 97
f 71 97 72
f 72 97 73
f 73 97 94
f 74 95 98
f 74 98 75
f 75 98 77
f 76 77 100
f 76 100 99
f 76 99 117
f 76 117 126
f 76 126 120
f 76 120 101
f 76 101 78
f 77 98 115
f 77 115 100
f 79 102 103
f 79 103 84
f 79 101 120
f 79 120 102
f 80 84 103
f 82 104 83
f 82 86 85
f 82 85 105
f 82 105 104
f 87 106 107
f 87 107 88
f 88 107 108
f 88 108 109
f 88 109 110
f 88 110 89
f 89 110 91
f 89 91 90
f 91 111 112
f 91 112 92
f 91 110 111
f 92 112 96
f 92 96 93
f 94 97 113
f 94 113 114
f 94 114 95
f 95 114 115
f 95 115 98
f 96 112 113
f 96 113 97
f 99 116 117
f 99 100 118
f 99 118 119
f 99 119 116
f 100 115 118
f 106 109 107
f 107 109 108
f 109 121 122
f 109 122 111
f 109 111 110
f 111 122 112
f 112 122 113
f 113 122 123
f 113 123 124
f 113 124 114
f 114 124 125
f 114 125 115
f 115 125 118
f 116 126 117
f 118 125 127
f 118 127 119
f 121 128 124
f 121 124 123
f 121 123 122
f 124 128 129
f 124 129 127
f 124 127 125

