# https://github.com/mikedh/trimesh
v 96.31302669 53.06184240 41.55287774
v 96.31302669 53.06184240 46.60228989
v 96.31302669 54.78237387 41.49571977
v 104.00081759 53.06184240 41.48118007
v 105.69521647 53.06184240 46.60228989
v 96.31302669 69.71176818 46.60228989
v 96.31302669 57.01202233 41.48067842
v 110.68708527 53.66754964 41.48067842
v 110.68708527 53.06184240 41.48118007
v 111.81458377 53.06184240 44.47392596
v 105.69521647 70.38790648 46.60228989
v 97.75704643 73.30576953 46.60228989
v 97.75704643 73.30576953 43.61856881
v 96.31302669 69.65944653 43.61856881
v 96.31302669 68.15825802 41.48067842
v 110.68708527 54.78237387 41.50675037
v 111.29177591 53.06184240 41.55488353
v 105.11414350 70.38790648 41.48067842
v 112.37833468 53.06184240 44.19766423
v 105.67946915 72.09032853 46.60228989
v 105.69364174 71.50273072 46.60228989
v 98.42630442 73.52712575 46.60228989
v 98.42630442 73.52712575 45.84771064
v 97.76177062 73.29771979 42.50399790
v 96.31302669 69.64737358 43.44609408
v 96.31302669 69.08794820 41.71231692
v 97.80113894 73.25143461 41.86674203
v 98.42630442 72.61755495 41.63410188
v 98.42630442 71.50273072 41.57694391
v 99.54120506 70.38790648 41.48067842
v 109.57218131 58.12684656 41.51076195
v 111.49334166 54.78237387 41.73989301
v 111.80985957 53.06184240 41.68825075
v 104.00081759 71.50273072 41.48067842
v 104.00081759 72.61755495 41.50725203
v 105.11414350 71.50273072 41.52881158
v 106.22747273 68.15825802 41.52379752
v 107.34237670 64.81378201 41.51928511
v 112.40038094 53.06184240 43.61856881
v 112.36573682 53.13227348 44.18563115
v 105.62435351 72.50285196 46.60228989
v 105.66372182 72.24326362 46.60228989
v 99.56325131 73.56535787 46.60228989
v 104.00081759 73.59956677 42.50399790
v 98.42630442 73.43656867 42.50399790
v 96.31302669 69.55078334 42.50399790
v 96.31302669 69.50248490 42.42026715
v 98.42630442 73.29771979 41.81860970
v 111.36263887 55.69797783 41.82613038
v 112.37046102 53.06184240 41.93392729
v 112.13267641 53.06184240 41.80356835
v 108.12186264 64.81378201 41.75192609
v 104.00081759 73.37821054 41.73989301
v 104.84171810 73.30979274 41.80858241
v 105.17398334 72.65377712 41.71582684
v 105.87473598 71.50273072 41.76145256
v 106.99751028 68.15825802 41.75643850
v 112.39408201 53.06184240 42.64488663
v 112.37203575 53.14635969 43.61856881
v 111.24453393 56.45461022 44.10992273
v 105.80702248 72.46059332 44.73263890
v 105.56766314 72.89927924 45.84771064
v 105.56923787 72.66987660 46.60228989
v 102.13004867 73.60158004 46.60228989
v 104.00081759 73.61767952 43.61856881
v 104.99761662 73.38626361 42.50399790
v 109.11866167 62.34064468 41.83665932
v 112.36258736 53.11818726 41.94295211
v 112.38148415 53.06184240 41.99810429
v 105.55506528 73.00190928 42.50399790
v 105.75348157 72.30564496 41.85470895
v 112.39250728 53.06184240 42.50399790
v 112.36731156 53.13629669 42.50399790
v 111.24610866 56.46064669 42.96627159
v 111.24610866 56.46064669 43.36737738
v 106.74398167 69.70573170 43.61856881
v 106.13298878 71.50273072 43.61856881
v 105.80702248 72.46059332 43.61856881
v 105.56766314 73.01800876 44.73263890
v 105.01021448 73.39632329 46.60228989
v 103.24494932 73.61365299 46.60228989
v 105.01021448 73.39632329 43.61856881
v 104.00081759 73.61767952 44.73263890
v 105.56766314 73.01800876 43.61856881
v 105.80072355 72.44449716 42.50399790
v 104.32678390 73.54523518 46.60228989
v 104.00081759 73.61566625 46.60228989
f 1 2 6
f 1 6 14
f 1 14 25
f 1 25 46
f 1 46 47
f 1 47 26
f 1 26 15
f 1 15 7
f 1 7 3
f 1 3 4
f 1 4 9
f 1 9 17
f 1 17 33
f 1 33 51
f 1 51 50
f 1 50 69
f 1 69 72
f 1 72 58
f 1 58 39
f 1 39 19
f 1 19 10
f 1 10 5
f 1 5 2
f 2 5 11
f 2 11 21
f 2 21 20
f 2 20 42
f 2 42 41
f 2 41 63
f 2 63 80
f 2 80 86
f 2 86 87
f 2 87 81
f 2 81 64
f 2 64 43
f 2 43 22
f 2 22 12
f 2 12 6
f 3 7 4
f 4 8 9
f 4 7 8
f 5 10 11
f 6 12 13
f 6 13 14
f 7 15 30
f 7 30 34
f 7 34 18
f 7 18 8
f 8 16 17
f 8 17 9
f 8 18 16
f 10 19 20
f 10 20 21
f 10 21 11
f 12 22 23
f 12 23 13
f 13 23 24
f 13 24 14
f 14 24 25
f 15 26 27
f 15 27 28
f 15 28 29
f 15 29 30
f 16 31 32
f 16 32 33
f 16 33 17
f 16 18 31
f 18 34 35
f 18 35 36
f 18 36 37
f 18 37 38
f 18 38 31
f 19 39 40
f 19 40 41
f 19 41 42
f 19 42 20
f 22 43 23
f 23 43 44
f 23 44 45
f 23 45 24
f 24 45 27
f 24 27 46
f 24 46 25
f 26 47 27
f 27 45 48
f 27 48 28
f 27 47 46
f 28 48 35
f 28 35 30
f 28 30 29
f 30 35 34
f 31 38 32
f 32 49 50
f 32 50 51
f 32 51 33
f 32 38 37
f 32 37 36
f 32 36 52
f 32 52 49
f 35 48 53
f 35 53 54
f 35 54 55
f 35 55 36
f 36 55 56
f 36 56 57
f 36 57 52
f 39 58 59
f 39 59 40
f 40 59 60
f 40 60 61
f 40 61 62
f 40 62 63
f 40 63 41
f 43 64 65
f 43 65 44
f 44 65 66
f 44 66 54
f 44 54 53
f 44 53 48
f 44 48 45
f 49 67 68
f 49 68 50
f 49 52 56
f 49 56 67
f 50 68 69
f 52 57 56
f 54 66 70
f 54 70 71
f 54 71 55
f 55 71 56
f 56 71 67
f 58 72 73
f 58 73 74
f 58 74 59
f 59 74 75
f 59 75 61
f 59 61 60
f 61 76 77
f 61 77 78
f 61 78 84
f 61 84 79
f 61 79 62
f 61 75 76
f 62 79 80
f 62 80 63
f 64 81 65
f 65 82 66
f 65 81 83
f 65 83 80
f 65 80 82
f 66 82 84
f 66 84 70
f 67 71 68
f 68 74 73
f 68 73 72
f 68 72 69
f 68 71 85
f 68 85 74
f 70 84 85
f 70 85 71
f 74 85 78
f 74 78 77
f 74 77 76
f 74 76 75
f 78 85 84
f 79 84 82
f 79 82 80
f 80 83 86
f 81 87 83
f 83 87 86

