# https://github.com/mikedh/trimesh
v 64.97192455 54.71139683 9.36007355
v 64.97192455 54.67947032 8.24650607
v 56.46858441 54.71139683 9.36007355
v 64.97192455 54.48562556 10.20021670
v 64.97192455 54.46054282 7.41666636
v 35.92808493 54.67718795 8.24613814
v 56.46858441 54.48562556 10.20021670
v 35.92808493 54.70911779 9.36007355
v 35.92808493 54.69543357 9.41380128
v 35.92808493 54.48562556 10.19984877
v 64.97192455 53.70797748 10.54760854
v 64.97192455 54.45826046 7.40967434
v 35.92808493 54.45598142 7.43249050
v 35.92808493 54.43545676 10.22229699
v 56.46858441 53.70797748 10.54760854
v 64.97192455 53.69657563 10.54834441
v 64.97192455 53.71253888 7.07663448
v 35.92808493 53.70569843 7.13993062
v 35.92808493 53.70569843 10.54760854
v 35.92808493 52.59053297 10.61311270
v 56.46858441 52.59053297 10.61311270
v 64.97192455 52.59053297 10.61274394
v 64.97192455 53.70797748 7.07516274
v 35.92808493 52.59053297 7.09540252
v 64.97192455 52.60193482 7.01849069
v 35.92808493 31.41384086 10.61311270
v 56.46858441 42.96911835 10.61311270
v 64.97192455 32.53356440 10.61274394
v 35.92808493 31.41384086 6.85399482
v 64.97192455 51.48905505 7.01738688
v 37.11644881 31.41384086 10.61311270
v 56.06203883 42.56318987 10.61311270
v 64.97192455 32.53356440 7.01223454
v 52.71869939 40.33514463 10.61311270
v 44.92041688 35.87449274 10.61311270
v 56.46858441 31.41384086 10.61274394
v 56.46858441 31.41384086 7.16937045
f 1 2 3
f 1 3 7
f 1 7 4
f 1 4 11
f 1 11 16
f 1 16 22
f 1 22 28
f 1 28 33
f 1 33 30
f 1 30 25
f 1 25 23
f 1 23 17
f 1 17 12
f 1 12 5
f 1 5 2
f 2 5 6
f 2 6 3
f 3 6 8
f 3 8 9
f 3 9 10
f 3 10 7
f 4 7 15
f 4 15 11
f 5 12 13
f 5 13 6
f 6 13 18
f 6 18 24
f 6 24 29
f 6 29 26
f 6 26 20
f 6 20 19
f 6 19 14
f 6 14 10
f 6 10 9
f 6 9 8
f 7 10 14
f 7 14 15
f 11 15 16
f 12 17 13
f 13 17 18
f 14 19 15
f 15 19 16
f 16 19 20
f 16 20 21
f 16 21 22
f 17 23 18
f 18 23 25
f 18 25 24
f 20 26 31
f 20 31 35
f 20 35 34
f 20 34 32
f 20 32 27
f 20 27 21
f 21 27 28
f 21 28 22
f 24 25 29
f 25 30 29
f 26 29 37
f 26 37 36
f 26 36 31
f 27 32 28
f 28 32 34
f 28 34 35
f 28 35 31
f 28 31 36
f 28 36 37
f 28 37 33
f 29 30 33
f 29 33 37

