# https://github.com/mikedh/trimesh
v 113.75154706 43.24758722 61.48688544
v 113.62221294 43.24758722 62.19216173
v 113.84046701 40.79865177 61.48688544
v 113.84046701 40.79865177 59.03676875
v 113.71113289 40.79865177 58.22039790
v 113.57371203 41.44773311 58.22039790
v 113.48479695 41.31168109 57.74183608
v 113.53329786 43.24758722 60.90828807
v 113.62221294 37.53269612 62.19216173
v 112.98362661 43.24758722 62.51589505
v 113.84046701 37.53269612 61.48688544
v 113.84046701 37.53269612 57.40754644
v 113.58988062 38.42341127 57.40754644
v 113.51712926 38.56229757 57.40754644
v 112.98362661 41.36411779 57.70664773
v 111.81961948 43.24758722 58.61501061
v 112.23187231 43.24758722 58.78592554
v 112.71687406 43.24758722 59.19411127
v 112.98362661 37.53269612 62.51589505
v 113.59796248 36.71567562 62.16903775
v 112.16720525 43.24758722 62.54303988
v 113.80004797 36.71567562 61.48688544
v 113.84046701 37.52773564 57.40754644
v 112.99171090 38.80180579 57.40754644
v 112.98362661 38.80322285 57.40754644
v 112.16720525 38.82802406 57.40754644
v 32.13356661 41.36411779 57.70664773
v 33.29757374 43.24758722 58.61501061
v 112.98362661 36.71567562 62.45607467
v 112.16720525 37.53269612 62.54303988
v 113.51712926 36.20760649 62.06246733
v 32.94998797 43.24758722 62.54303988
v 113.57371203 36.15800406 61.48688544
v 113.80004797 36.71284119 57.40754644
v 33.75832747 38.82802406 57.40754644
v 32.94190611 38.82731538 57.40754644
v 32.12548232 38.80251432 57.40754644
v 31.81023130 38.76779274 57.40754644
v 31.63239627 41.31168109 57.74183608
v 32.88532091 43.24758722 58.78592554
v 112.98362661 36.15800406 62.14591377
v 112.16720525 36.71567562 62.46964709
v 32.94998797 37.53269612 62.54303988
v 112.98362661 36.00848871 61.48688544
v 32.13356661 43.24758722 62.51589505
v 113.57371203 36.15800406 57.40754644
v 31.60006396 38.56229757 57.40754644
v 31.54348119 38.48931131 57.40754644
v 31.27672621 37.53694762 57.40754644
v 31.40606033 40.79865177 58.22039790
v 31.54348119 41.44773311 58.22039790
v 31.36564616 43.24758722 61.48688544
v 31.58389536 43.24758722 60.90879075
v 32.40031916 43.24758722 59.19411127
v 32.13356661 36.15800406 62.14591377
v 32.94998797 36.71567562 62.46964709
v 32.13356661 37.53269612 62.51589505
v 32.13356661 36.71567562 62.45607467
v 112.98362661 36.00848871 57.40754644
v 32.13356661 36.00848871 61.48688544
v 31.49498028 43.24758722 62.19216173
v 31.27672621 37.53269612 57.40754644
v 31.27672621 40.79865177 59.03676875
v 31.27672621 40.79865177 61.48688544
v 31.60006396 36.20760649 62.06246733
v 31.49498028 37.53269612 62.19216173
v 31.51923074 36.71567562 62.16903775
v 32.13356661 36.00848871 57.40754644
v 31.54348119 36.15800406 61.48688544
v 31.54348119 36.15729568 57.40754644
v 31.31714525 36.71567562 57.40754644
v 31.27672621 37.53269612 61.48688544
v 31.31714525 36.71567562 61.48688544
f 1 2 3
f 1 3 4
f 1 4 5
f 1 5 6
f 1 6 7
f 1 7 8
f 1 8 18
f 1 18 17
f 1 17 16
f 1 16 28
f 1 28 40
f 1 40 54
f 1 54 53
f 1 53 52
f 1 52 61
f 1 61 45
f 1 45 32
f 1 32 21
f 1 21 10
f 1 10 2
f 2 9 11
f 2 11 3
f 2 10 19
f 2 19 9
f 3 11 23
f 3 23 12
f 3 12 4
f 4 12 5
f 5 12 7
f 5 7 6
f 7 12 13
f 7 13 14
f 7 14 15
f 7 15 16
f 7 16 17
f 7 17 18
f 7 18 8
f 9 19 20
f 9 20 11
f 10 21 30
f 10 30 19
f 11 20 22
f 11 22 23
f 12 23 34
f 12 34 46
f 12 46 59
f 12 59 68
f 12 68 70
f 12 70 71
f 12 71 62
f 12 62 49
f 12 49 48
f 12 48 47
f 12 47 38
f 12 38 37
f 12 37 36
f 12 36 35
f 12 35 26
f 12 26 25
f 12 25 24
f 12 24 14
f 12 14 13
f 14 24 15
f 15 24 25
f 15 25 26
f 15 26 35
f 15 35 27
f 15 27 28
f 15 28 16
f 19 29 20
f 19 30 29
f 20 29 31
f 20 31 22
f 21 32 43
f 21 43 30
f 22 31 33
f 22 33 34
f 22 34 23
f 27 35 36
f 27 36 37
f 27 37 38
f 27 38 39
f 27 39 28
f 28 39 40
f 29 41 31
f 29 30 42
f 29 42 41
f 30 43 56
f 30 56 42
f 31 41 44
f 31 44 33
f 32 45 57
f 32 57 43
f 33 44 59
f 33 59 46
f 33 46 34
f 38 47 39
f 39 47 48
f 39 48 49
f 39 49 50
f 39 50 51
f 39 51 52
f 39 52 53
f 39 53 54
f 39 54 40
f 41 42 56
f 41 56 55
f 41 55 60
f 41 60 44
f 43 57 58
f 43 58 56
f 44 60 68
f 44 68 59
f 45 61 66
f 45 66 57
f 49 62 72
f 49 72 64
f 49 64 63
f 49 63 50
f 50 63 52
f 50 52 51
f 52 63 64
f 52 64 61
f 55 56 58
f 55 58 65
f 55 65 60
f 57 66 67
f 57 67 58
f 58 67 65
f 60 65 69
f 60 69 70
f 60 70 68
f 61 64 72
f 61 72 66
f 62 71 73
f 62 73 72
f 65 67 73
f 65 73 69
f 66 72 67
f 67 72 73
f 69 73 70
f 70 73 71

