# https://github.com/mikedh/trimesh
v 56.47080114 45.27467558 45.39412289
v 56.47080114 49.50825919 45.39412289
v 60.52548733 45.27392642 45.39412289
v 66.09994154 43.78046873 46.45837795
v 56.47080114 43.78046873 46.46007228
v 56.47080114 50.30936946 59.25655122
v 65.46719724 51.44277820 45.39412289
v 67.21167860 45.27392642 45.39412289
v 67.21167860 43.78046873 46.45837795
v 56.47080114 43.78046873 52.12875504
v 56.47080114 50.30936946 62.70521206
v 66.35619271 51.44277820 52.12875504
v 76.60822120 51.44277820 45.39412289
v 76.60822120 45.28967707 45.39412289
v 68.32538656 43.78046873 46.46007228
v 64.16228635 44.25753626 58.00588222
v 56.47080114 44.72034981 58.20754848
v 76.60822120 43.78046873 52.12875504
v 68.90096707 44.25753626 58.01435554
v 56.47080114 49.20671785 62.70351690
v 71.67045310 48.09281387 62.70690640
v 71.67045310 49.69953603 62.70690640
v 76.60822120 49.69953603 62.70690640
v 64.15834412 50.30936946 62.70351690
v 76.60822120 51.44277820 52.12875504
v 76.60822120 43.78046873 46.47363026
v 56.47080114 45.89351057 61.45284791
v 56.47080114 45.46370162 60.33775291
v 71.67045310 45.44644933 61.45284791
v 70.55280332 45.44720015 61.45284791
v 76.60822120 44.25753626 57.97198893
v 56.47080114 48.09281387 62.68148643
v 71.67045310 46.97966072 62.68657026
v 76.60822120 48.09281387 62.70351690
v 76.60822120 49.20746867 62.70690640
v 70.55280332 45.94301830 62.34085667
v 56.47080114 46.33907183 62.08326665
v 71.67045310 45.94226748 62.33916234
v 76.60822120 45.46070166 61.45284791
v 56.47080114 46.97966072 62.40694893
v 70.55280332 46.97966072 62.68148643
v 76.60822120 46.97966072 62.68318076
v 76.60822120 45.96252140 62.33746718
f 1 2 7
f 1 7 13
f 1 13 14
f 1 14 8
f 1 8 3
f 1 3 4
f 1 4 5
f 1 5 10
f 1 10 17
f 1 17 28
f 1 28 27
f 1 27 37
f 1 37 40
f 1 40 32
f 1 32 20
f 1 20 11
f 1 11 6
f 1 6 2
f 2 6 7
f 3 8 9
f 3 9 4
f 4 9 15
f 4 15 26
f 4 26 18
f 4 18 10
f 4 10 5
f 6 11 7
f 7 11 12
f 7 12 25
f 7 25 13
f 8 14 9
f 9 14 15
f 10 16 17
f 10 18 19
f 10 19 16
f 11 20 21
f 11 21 22
f 11 22 23
f 11 23 24
f 11 24 25
f 11 25 12
f 13 25 23
f 13 23 35
f 13 35 34
f 13 34 42
f 13 42 43
f 13 43 39
f 13 39 31
f 13 31 18
f 13 18 26
f 13 26 14
f 14 26 15
f 16 27 28
f 16 28 17
f 16 19 29
f 16 29 30
f 16 30 27
f 18 31 19
f 19 31 29
f 20 32 33
f 20 33 21
f 21 33 42
f 21 42 34
f 21 34 35
f 21 35 23
f 21 23 22
f 23 25 24
f 27 30 36
f 27 36 37
f 29 38 36
f 29 36 30
f 29 31 39
f 29 39 38
f 32 40 41
f 32 41 33
f 33 41 36
f 33 36 42
f 36 38 42
f 36 41 40
f 36 40 37
f 38 39 43
f 38 43 42

