# https://github.com/mikedh/trimesh
v 103.99902692 73.61866954 56.63514901
v 103.99902692 73.62068280 49.19238806
v 99.54063031 73.61866954 56.63514901
v 104.32509621 73.54823514 56.63514901
v 105.00937728 73.39730667 56.63514901
v 105.01029421 73.39730667 46.60278989
v 104.32601314 73.54622188 46.60278989
v 103.99902692 73.61665960 46.96319350
v 100.65569042 73.61866954 46.96319350
v 99.54063031 73.61866954 46.96319350
v 98.78654275 73.55829815 56.63514901
v 105.36850931 72.87005035 56.63514901
v 105.56966312 72.66881016 46.60278989
v 103.99902692 73.61464633 46.60278989
v 103.24402242 73.61464633 46.60278989
v 102.12896231 73.60257006 46.60278989
v 99.56359350 73.56433462 46.60278989
v 98.42649046 73.52811245 46.60278989
v 98.42649046 73.52811245 56.63514901
v 105.53567680 72.61648519 56.63514901
v 105.62477211 72.50177889 46.60278989
v 97.97275488 73.37718066 46.60278989
v 97.74404658 73.30473299 50.30698534
v 97.74312964 73.30473299 53.65077760
v 97.74680402 73.30473299 54.76537509
v 97.97275488 73.37718066 56.63514901
v 105.58803167 71.86182953 56.63514901
v 105.67896417 72.09124546 46.60278989
v 105.66426667 72.24419052 46.60278989
v 97.75598664 73.30473299 46.60278989
v 96.31394362 72.21199156 53.69791472
v 96.31394362 72.21199156 54.45603754
v 97.75506970 73.30473299 56.63514901
v 105.60823742 71.50160781 56.63514901
v 105.69365835 71.50160781 46.60278989
v 96.31394362 69.71055889 46.60278989
v 96.31394362 71.85176984 49.42316361
v 96.31394362 72.16570639 50.09879611
v 96.31394362 72.19186555 50.26966850
v 96.31394362 72.18582908 54.67601089
v 96.31394362 71.42312367 55.56965290
v 96.31394362 69.94601130 56.63514901
v 105.69641247 69.27185303 46.60278989
v 105.69549554 70.38673042 46.60278989
v 105.60823742 53.06183908 56.63514901
v 96.31394362 53.06183908 46.60278989
v 96.31394362 53.06183908 56.63514901
v 105.69641247 69.26179003 46.60278989
v 105.69549554 53.06183908 46.60278989
f 1 2 3
f 1 3 11
f 1 11 19
f 1 19 26
f 1 26 33
f 1 33 42
f 1 42 47
f 1 47 45
f 1 45 34
f 1 34 27
f 1 27 20
f 1 20 12
f 1 12 5
f 1 5 4
f 1 4 2
f 2 4 5
f 2 5 6
f 2 6 7
f 2 7 8
f 2 8 9
f 2 9 10
f 2 10 3
f 3 10 11
f 5 12 13
f 5 13 6
f 6 13 21
f 6 21 29
f 6 29 28
f 6 28 35
f 6 35 44
f 6 44 43
f 6 43 48
f 6 48 49
f 6 49 46
f 6 46 36
f 6 36 30
f 6 30 22
f 6 22 18
f 6 18 17
f 6 17 16
f 6 16 15
f 6 15 14
f 6 14 7
f 7 14 8
f 8 14 9
f 9 14 15
f 9 15 10
f 10 15 16
f 10 16 17
f 10 17 18
f 10 18 11
f 11 18 19
f 12 20 13
f 13 20 21
f 18 22 23
f 18 23 24
f 18 24 19
f 19 24 25
f 19 25 26
f 20 27 28
f 20 28 29
f 20 29 21
f 22 30 23
f 23 30 31
f 23 31 24
f 24 31 32
f 24 32 25
f 25 33 26
f 25 32 33
f 27 34 28
f 28 34 35
f 30 36 37
f 30 37 38
f 30 38 39
f 30 39 31
f 31 39 38
f 31 38 37
f 31 37 36
f 31 36 46
f 31 46 47
f 31 47 42
f 31 42 41
f 31 41 40
f 31 40 32
f 32 40 33
f 33 40 41
f 33 41 42
f 34 43 44
f 34 44 35
f 34 45 48
f 34 48 43
f 45 47 46
f 45 46 49
f 45 49 48

