# https://github.com/mikedh/trimesh
v 76.60822286 44.55423713 52.11432373
v 76.60822286 44.55423713 58.09494389
v 76.60822286 53.06100853 52.11432373
v 107.55654696 44.55423713 52.11432373
v 76.60822286 45.46029302 61.45437779
v 90.62827559 44.55423713 60.49735322
v 76.60822286 53.06100853 62.63536321
v 105.58743700 53.06100853 52.11432373
v 107.55654696 48.75057698 52.11432373
v 107.55654696 44.55423713 58.14160282
v 76.60822286 45.67847985 61.83905271
v 93.11540943 44.55423713 60.91831925
v 93.96666862 44.55423713 61.02096921
v 76.60822286 51.43710052 62.69342732
v 105.11182459 53.06100853 62.70586986
v 107.55654696 53.06100853 59.32051476
v 107.55654696 45.89999721 61.45437779
v 95.07845967 44.55423713 60.80426493
v 76.60822286 45.96245495 62.33778362
v 93.96666862 45.39367088 61.93029750
v 77.24742472 45.95412615 62.35333659
v 101.76736851 45.98577196 62.31600979
v 100.65255092 45.93330745 62.35852092
v 76.60822286 50.32285103 62.70690640
v 107.55654696 53.06100853 62.70586986
v 107.55654696 46.34802854 62.07545777
v 76.60822286 46.97927036 62.68409603
v 77.24742472 46.97927036 62.70068554
v 107.55654696 46.46794741 62.13766884
v 107.55654696 46.97927036 62.39999552
v 100.65255092 46.97927036 62.70690640
v 76.60822286 49.20776767 62.70690640
v 100.65255092 50.32285103 62.70690640
v 107.55654696 49.20776767 62.70586986
v 76.60822286 48.09351818 62.70483333
v 77.24742472 48.09351818 62.70690640
v 107.55654696 48.09351818 62.68305867
f 1 2 5
f 1 5 11
f 1 11 19
f 1 19 27
f 1 27 35
f 1 35 32
f 1 32 24
f 1 24 14
f 1 14 7
f 1 7 3
f 1 3 8
f 1 8 9
f 1 9 4
f 1 4 10
f 1 10 18
f 1 18 13
f 1 13 12
f 1 12 6
f 1 6 2
f 2 6 5
f 3 7 15
f 3 15 25
f 3 25 16
f 3 16 8
f 4 9 16
f 4 16 25
f 4 25 34
f 4 34 37
f 4 37 30
f 4 30 29
f 4 29 26
f 4 26 17
f 4 17 10
f 5 6 12
f 5 12 13
f 5 13 11
f 7 14 15
f 8 16 9
f 10 17 18
f 11 13 19
f 13 20 21
f 13 21 19
f 13 18 17
f 13 17 22
f 13 22 23
f 13 23 20
f 14 24 15
f 15 24 33
f 15 33 25
f 17 26 22
f 19 21 27
f 20 23 21
f 21 28 27
f 21 23 28
f 22 26 29
f 22 29 30
f 22 30 23
f 23 30 31
f 23 31 28
f 24 32 36
f 24 36 31
f 24 31 33
f 25 33 31
f 25 31 34
f 27 28 35
f 28 36 35
f 28 31 36
f 30 37 31
f 31 37 34
f 32 35 36

