# https://github.com/mikedh/trimesh
v 76.60821954 39.17595588 44.43278359
v 58.29503302 39.17595588 44.43353856
v 56.47000744 43.77971790 46.45882977
v 68.04948030 43.77971790 46.45882977
v 76.60821954 43.77971790 46.47241723
v 76.60821954 38.15727505 44.74982475
v 75.01394574 38.15727505 44.74982475
v 37.11634373 38.15667871 44.75058055
v 37.11634373 39.17595588 44.43504768
v 56.47000744 43.77971790 52.12858851
v 33.75578153 43.76777618 46.45807479
v 33.74738960 43.76777618 50.89816555
v 76.60821954 43.77971790 52.12858851
v 76.60821954 37.95962951 45.22010332
v 56.46581200 37.69510767 45.84814751
v 56.46581200 38.15667871 44.75058055
v 33.74738960 37.70525872 45.82399164
v 33.77256206 38.15667871 44.75133469
v 33.74738960 38.17996582 44.74378661
v 33.74738960 39.17595588 44.43580348
v 33.74738960 43.76777618 52.14444049
v 33.74738960 43.64715798 46.46562371
v 76.60821954 37.69570567 52.12858851
v 56.46581200 43.76777618 52.14444049
v 76.60821954 37.69570567 45.84890248
v 33.74738960 37.67958294 52.14444049
v 33.74738960 37.69510767 45.84814751
v 33.74738960 38.15727505 44.75133469
v 56.46581200 37.69510767 52.14444049
f 1 2 3
f 1 3 4
f 1 4 5
f 1 5 13
f 1 13 23
f 1 23 25
f 1 25 14
f 1 14 6
f 1 6 7
f 1 7 8
f 1 8 2
f 2 8 9
f 2 9 3
f 3 10 13
f 3 13 5
f 3 5 4
f 3 9 11
f 3 11 12
f 3 12 21
f 3 21 10
f 6 14 15
f 6 15 16
f 6 16 8
f 6 8 7
f 8 16 17
f 8 17 18
f 8 18 19
f 8 19 9
f 9 19 20
f 9 20 11
f 10 21 24
f 10 24 13
f 11 20 22
f 11 22 12
f 12 22 20
f 12 20 19
f 12 19 28
f 12 28 17
f 12 17 27
f 12 27 26
f 12 26 21
f 13 24 29
f 13 29 23
f 14 25 15
f 15 26 27
f 15 27 17
f 15 17 16
f 15 25 26
f 17 28 18
f 18 28 19
f 21 26 29
f 21 29 24
f 23 29 26
f 23 26 25

