# https://github.com/mikedh/trimesh
v 64.16004718 49.69969882 58.86132575
v 65.82224045 49.69969882 52.12910097
v 64.16004718 49.69969882 62.70594129
v 64.16004718 72.32597695 59.37249007
v 76.60822120 49.69969882 52.12910097
v 64.16004718 72.61632905 59.38804221
v 66.37914925 72.61632905 52.12910097
v 76.60822120 49.69969882 62.70594129
v 70.55656823 55.89774959 62.71942120
v 70.55656823 58.12689307 62.72149427
v 64.16004718 71.50175731 62.70594129
v 76.60822120 69.72687099 52.12910097
v 64.16004718 73.14551558 59.51246352
v 64.16004718 73.34220432 59.59955844
v 66.47176362 73.06356304 52.12910097
v 76.60822120 55.89774959 62.71942120
v 76.60822120 58.12689307 62.72045773
v 73.90045372 71.50175731 62.70594129
v 64.16004718 71.79210941 62.68935178
v 75.56142774 72.95819550 52.12910097
v 76.60822120 69.72687099 60.33882765
v 64.16004718 73.50611271 60.12109098
v 66.52538343 73.32113147 52.12910097
v 76.60822120 67.04347034 62.70594129
v 73.90045372 72.61632905 62.63958326
v 67.21268274 72.61632905 62.64165799
v 76.60822120 67.52114252 62.69868390
v 76.60822120 68.15804208 62.67898396
v 64.16004718 72.61632905 62.64165799
v 75.35792014 73.11976173 52.12910097
v 75.56142774 72.95819550 61.45343428
v 76.60822120 69.68238314 61.45343428
v 64.16004718 73.56465356 60.33882765
v 66.77641788 73.40308733 52.12910097
v 75.12272687 72.64208622 62.26839323
v 74.82172871 73.32113147 62.19892560
v 73.90045372 73.39371867 62.29224096
v 67.21268274 73.39606083 62.29431485
v 76.60822120 69.23514914 62.32956694
v 64.16004718 73.39606083 62.29431485
v 75.00452060 73.39606083 52.12910097
v 75.00452060 73.39606083 61.45343428
v 75.57727141 72.28851559 62.02058798
v 76.60822120 69.43183788 61.95008298
v 67.21268274 73.54357739 52.12910097
v 64.16004718 73.61148358 61.16311872
v 73.90045372 73.61616791 61.45343428
v 66.09886680 73.62084892 61.45343428
v 64.16004718 73.45460168 62.07554082
v 74.30381613 73.53889638 52.12910097
v 73.90045372 73.61850675 60.33882765
v 64.16004718 73.62084892 61.45343428
v 67.62091968 73.57167673 52.12910097
v 68.32771793 73.62084892 56.99604431
v 73.90045372 73.61850675 52.12910097
v 68.32771793 73.62084892 55.88143768
v 68.32771793 73.61850675 52.12910097
f 1 2 5
f 1 5 8
f 1 8 3
f 1 3 11
f 1 11 19
f 1 19 29
f 1 29 40
f 1 40 49
f 1 49 52
f 1 52 46
f 1 46 33
f 1 33 22
f 1 22 14
f 1 14 13
f 1 13 6
f 1 6 4
f 1 4 2
f 2 4 6
f 2 6 7
f 2 7 15
f 2 15 23
f 2 23 34
f 2 34 45
f 2 45 53
f 2 53 57
f 2 57 55
f 2 55 50
f 2 50 41
f 2 41 30
f 2 30 20
f 2 20 12
f 2 12 5
f 3 8 16
f 3 16 9
f 3 9 10
f 3 10 11
f 5 12 21
f 5 21 32
f 5 32 44
f 5 44 39
f 5 39 28
f 5 28 27
f 5 27 24
f 5 24 17
f 5 17 16
f 5 16 8
f 6 13 7
f 7 13 14
f 7 14 15
f 9 16 10
f 10 16 17
f 10 17 18
f 10 18 11
f 11 18 19
f 12 20 31
f 12 31 21
f 14 22 23
f 14 23 15
f 17 24 18
f 18 25 26
f 18 26 19
f 18 24 27
f 18 27 28
f 18 28 25
f 19 26 29
f 20 30 31
f 21 31 32
f 22 33 23
f 23 33 34
f 25 35 36
f 25 36 37
f 25 37 38
f 25 38 26
f 25 28 35
f 26 38 40
f 26 40 29
f 28 39 35
f 30 41 42
f 30 42 31
f 31 42 36
f 31 36 43
f 31 43 39
f 31 39 44
f 31 44 32
f 33 45 34
f 33 46 45
f 35 43 36
f 35 39 43
f 36 42 47
f 36 47 37
f 37 47 48
f 37 48 38
f 38 48 49
f 38 49 40
f 41 50 42
f 42 50 51
f 42 51 47
f 45 46 52
f 45 52 53
f 47 51 48
f 48 54 56
f 48 56 52
f 48 52 49
f 48 51 54
f 50 55 51
f 51 55 56
f 51 56 54
f 52 56 57
f 52 57 53
f 55 57 56

