# https://github.com/mikedh/trimesh
v 64.97192455 32.53231525 7.01152774
v 64.97192455 32.53231525 10.61220906
v 64.97192455 32.54099953 7.01152774
v 66.35584247 32.53231525 0.05745312
v 67.21244306 32.53231525 10.61220906
v 70.55681322 36.98767152 10.62565989
v 70.55681322 39.21752405 10.62772963
v 64.97192455 52.59228046 10.61220906
v 64.97192455 51.48929757 7.01670126
v 76.94322675 32.53231525 0.05745312
v 64.97192455 52.60313747 7.01773572
v 66.36170203 52.59228046 0.05745312
v 76.94322675 32.53231525 10.59979310
v 76.94322675 36.98767152 10.62565989
v 76.94322675 39.21752405 10.62669476
v 73.90001229 52.59228046 10.61220906
v 64.97192455 53.70829309 10.54805870
v 76.94322675 50.76410730 0.05745312
v 64.97192455 53.70829309 7.07464323
v 66.37224841 53.32181287 0.05745312
v 76.94322675 48.13475146 10.61220906
v 76.94322675 48.94679114 10.59979310
v 76.94322675 49.24859136 10.59048093
v 73.90001229 53.70829309 10.54702466
v 67.21244306 53.70829309 10.54805870
v 64.97192455 54.48776175 10.20040690
v 75.56165265 54.05568742 0.05745312
v 76.94322675 50.76410730 8.24486490
v 64.97192455 53.71480463 7.07567810
v 66.37810797 53.70829309 0.05745312
v 76.94322675 50.26906697 10.24179426
v 75.12221961 53.73434592 10.17454011
v 74.82223499 54.41393875 10.10521706
v 73.90001229 54.48776175 10.19937203
v 67.21244306 54.48776175 10.20040690
v 64.97192455 54.71139683 9.36024797
v 75.00386727 54.48776175 0.05745312
v 75.56165265 54.05568742 9.36024797
v 76.94322675 50.74673874 8.68977628
v 64.97192455 54.45953619 7.40884462
v 66.47419647 54.16859298 0.05745312
v 76.94322675 50.60126548 9.59512044
v 75.57688668 53.38260945 9.92621764
v 75.00386727 54.48776175 9.36024797
v 73.90001229 54.70922742 9.36024797
v 66.09804254 54.71139683 9.36024797
v 68.32801383 54.70922742 0.05745312
v 67.59797063 54.66146057 0.05745312
v 67.21244306 54.63323501 0.05745312
v 64.97192455 54.68100186 8.24486490
v 74.28202579 54.63323501 0.05745312
v 76.94322675 50.71851318 9.36024797
v 66.52575646 54.41176934 0.05745312
v 64.97192455 54.46170560 7.41608705
v 73.90001229 54.70922742 0.05745312
f 1 2 8
f 1 8 17
f 1 17 26
f 1 26 36
f 1 36 50
f 1 50 54
f 1 54 40
f 1 40 29
f 1 29 19
f 1 19 11
f 1 11 9
f 1 9 3
f 1 3 4
f 1 4 10
f 1 10 13
f 1 13 5
f 1 5 2
f 2 5 14
f 2 14 6
f 2 6 7
f 2 7 8
f 3 9 4
f 4 9 11
f 4 11 12
f 4 12 20
f 4 20 30
f 4 30 41
f 4 41 53
f 4 53 49
f 4 49 48
f 4 48 47
f 4 47 55
f 4 55 51
f 4 51 37
f 4 37 27
f 4 27 18
f 4 18 10
f 5 13 14
f 6 14 7
f 7 14 15
f 7 15 16
f 7 16 8
f 8 16 25
f 8 25 17
f 10 18 28
f 10 28 39
f 10 39 52
f 10 52 42
f 10 42 31
f 10 31 23
f 10 23 22
f 10 22 21
f 10 21 15
f 10 15 14
f 10 14 13
f 11 19 12
f 12 19 20
f 15 21 16
f 16 21 22
f 16 22 23
f 16 23 24
f 16 24 25
f 17 25 35
f 17 35 26
f 18 27 38
f 18 38 28
f 19 29 30
f 19 30 20
f 23 31 32
f 23 32 24
f 24 32 33
f 24 33 34
f 24 34 35
f 24 35 25
f 26 35 46
f 26 46 36
f 27 37 44
f 27 44 38
f 28 38 39
f 29 40 30
f 30 40 41
f 31 42 38
f 31 38 43
f 31 43 32
f 32 43 33
f 33 43 38
f 33 38 44
f 33 44 45
f 33 45 34
f 34 45 46
f 34 46 35
f 36 46 55
f 36 55 47
f 36 47 48
f 36 48 49
f 36 49 50
f 37 51 44
f 38 42 52
f 38 52 39
f 40 53 41
f 40 54 53
f 44 51 45
f 45 55 46
f 45 51 55
f 49 53 50
f 50 53 54

