# https://github.com/mikedh/trimesh
v 35.92808493 18.78642228 0.05064921
v 35.92808493 18.78642228 6.01566726
v 35.92808493 24.44055095 0.05064921
v 56.46777421 18.78642228 0.05064921
v 35.92808493 19.08110963 7.12989461
v 56.46777421 18.78642228 6.01566726
v 35.92808493 24.44055095 5.63314879
v 56.46777421 25.81965829 0.05746640
v 56.46777421 24.44055095 0.05064921
v 76.94322675 18.78642228 0.05746640
v 35.92808493 19.54310552 7.78888721
v 53.83808366 19.08110963 7.12989461
v 76.94322675 18.78642228 6.01490980
v 35.92808493 20.56418245 7.56392075
v 56.46777421 25.81965829 6.12322696
v 76.94322675 25.81965829 0.05746640
v 35.92808493 20.00716948 7.78888721
v 53.83808366 19.54310552 7.78812974
v 76.94322675 19.54379488 7.78737228
v 56.46777421 19.54379488 7.78812974
v 76.94322675 19.00192956 6.82842496
v 73.89599739 19.08179733 7.12989461
v 35.92808493 20.52837892 7.57907006
v 69.33117571 25.81965829 6.13761881
v 76.94322675 25.81965829 6.07323423
v 56.46777421 20.00648012 7.78812974
v 76.94322675 20.00648012 7.78737228
v 76.94322675 19.08248669 7.12989461
v 69.43957552 25.81965829 6.13686135
f 1 2 5
f 1 5 11
f 1 11 17
f 1 17 23
f 1 23 14
f 1 14 7
f 1 7 3
f 1 3 9
f 1 9 4
f 1 4 10
f 1 10 13
f 1 13 6
f 1 6 2
f 2 6 12
f 2 12 5
f 3 7 15
f 3 15 8
f 3 8 16
f 3 16 9
f 4 9 16
f 4 16 10
f 5 12 11
f 6 13 12
f 7 14 15
f 8 15 24
f 8 24 29
f 8 29 25
f 8 25 16
f 10 16 25
f 10 25 27
f 10 27 19
f 10 19 28
f 10 28 21
f 10 21 13
f 11 12 18
f 11 18 19
f 11 19 20
f 11 20 26
f 11 26 17
f 12 13 21
f 12 21 22
f 12 22 18
f 14 23 15
f 15 23 17
f 15 17 24
f 17 26 27
f 17 27 24
f 18 22 19
f 19 22 28
f 19 27 26
f 19 26 20
f 21 28 22
f 24 27 29
f 25 29 27

