# https://github.com/mikedh/trimesh
v 106.74283599 50.80176796 8.24448616
v 105.80720317 53.55192627 9.36023302
v 106.13250475 52.59400137 9.36023302
v 106.73457696 50.80176796 9.36023302
v 106.74180611 50.80176796 -8.47926991
v 105.80720317 53.55192627 -8.47511548
v 105.56761148 54.10915519 9.36023302
v 105.76176188 53.41836316 10.04796694
v 105.90221195 52.59400137 10.18094203
v 106.23371279 50.80176796 10.27028476
v 106.71082311 50.80176796 -9.58878595
v 105.80100723 53.53623544 -9.58878595
v 105.56658159 54.10915519 -8.47511548
v 105.56761148 54.10915519 7.13081528
v 105.01098057 54.48842287 8.24448616
v 105.00995068 54.48803749 9.36023302
v 104.85917183 54.41379257 10.10406591
v 105.18344353 53.75744197 10.24742957
v 105.11322181 52.59400137 10.52792606
v 106.08396715 51.47916480 10.25574176
v 105.11322181 51.47916480 10.60480218
v 105.11322181 50.80176796 10.60895827
v 106.69946444 50.80176796 -9.60956309
v 105.75349952 53.39769564 -10.23912001
v 105.55315651 54.09384641 -9.58878595
v 104.99549239 54.47311409 -9.58878595
v 105.00891747 54.48497773 -8.47511548
v 105.00788426 54.48842287 -4.01627794
v 105.01098057 54.48842287 7.13081528
v 103.99892677 54.71115763 -0.67111118
v 103.99892677 54.71077557 4.90139672
v 103.99892677 54.71001146 7.13081528
v 103.99892677 54.70962941 8.24448616
v 103.99892677 54.70886198 9.36023302
v 103.99892677 54.48727338 10.19756474
v 103.99892677 53.70845588 10.54662516
v 103.99892677 52.59400137 10.61311270
v 99.54071339 50.80176796 10.61311270
v 106.20789251 50.80176796 -10.38663976
v 105.87432858 52.59400137 -10.33261718
v 105.17208486 53.74481423 -10.37417314
v 104.83955081 54.39580609 -10.28067431
v 103.99892677 54.68972600 -8.47511548
v 103.99892677 54.65834433 -9.58878595
v 103.99892677 54.69699834 -7.35936697
v 103.99892677 54.70312118 -6.24569650
v 103.99892677 54.70924403 -5.12994841
v 103.99892677 54.71077557 -4.01627794
v 102.88359852 54.71077557 -4.01627794
v 99.54071339 54.71039352 3.78564821
v 99.54071339 54.71039352 4.90139672
v 102.88359852 54.71077557 4.90139672
v 98.42642167 54.53549537 9.36023302
v 98.42642167 54.39848380 10.09990982
v 98.42642167 53.70845588 10.35962916
v 99.54071339 51.47916480 10.61311270
v 98.86325674 50.80176796 10.57571284
v 105.86916585 50.80176796 -10.47182640
v 105.11322181 52.59400137 -10.56532523
v 106.04369191 51.47916480 -10.37832757
v 103.99892677 53.70845588 -10.57155771
v 103.99892677 54.44938349 -10.33885132
v 99.54071339 54.71001146 -5.12994841
v 98.42642167 54.39274300 -10.28275235
v 98.42642167 54.53664154 -9.58878595
v 101.76930348 54.71039352 -5.12994841
v 102.88359852 54.71039352 -5.12994841
v 98.42642167 54.61854417 3.78564821
v 98.42642167 54.61816211 -6.24569650
v 98.42642167 54.61854417 6.01506677
v 97.75619085 54.39618814 9.36023302
v 97.79336978 54.35294284 10.03134423
v 97.69526138 50.80176796 10.34923893
v 98.42642167 52.59400137 10.44689385
v 97.74792849 53.70845588 10.09990982
v 98.42642167 50.80176796 10.52584801
v 105.11322181 50.80176796 -10.61311367
v 105.11322181 51.47916480 -10.61311367
v 98.42642167 53.70845588 -10.46767031
v 103.99892677 52.59400137 -10.61103563
v 99.54071339 51.47916480 -10.61311367
v 97.80163214 54.34375690 -10.22665339
v 97.76238678 54.38968324 -9.58878595
v 97.74379898 54.39618814 -1.78685938
v 97.75619085 54.39618814 -8.47511548
v 97.74379898 54.39618814 1.55622975
v 96.19369875 53.21897030 0.44255929
v 96.19369875 53.20978437 1.59570683
v 96.19369875 53.16041289 2.09644299
v 97.40197268 50.80176796 10.22249798
v 96.19369875 52.98436858 2.59510142
v 96.62847072 50.80176796 8.24448616
v 96.89490925 50.80176796 9.36023302
v 99.54071339 50.80176796 -10.61311367
v 98.42642167 52.59400137 -10.51545875
v 97.45154017 50.80176796 -10.35339599
v 97.76032369 53.70845588 -10.27444183
v 98.42642167 50.80176796 -10.55078057
v 96.96616750 50.80176796 -9.58878595
v 96.62950393 50.80176796 -8.47511548
v 96.19369875 53.21973441 -2.84027520
v 96.19369875 52.36896764 3.44489852
v 96.19369875 50.80176796 5.08839355
v 96.19369875 50.80176796 -5.31278997
v 96.19369875 52.78612189 -3.29322344
f 1 2 3
f 1 3 4
f 1 4 10
f 1 10 22
f 1 22 38
f 1 38 57
f 1 57 76
f 1 76 73
f 1 73 90
f 1 90 93
f 1 93 92
f 1 92 103
f 1 103 104
f 1 104 100
f 1 100 99
f 1 99 96
f 1 96 98
f 1 98 94
f 1 94 77
f 1 77 58
f 1 58 39
f 1 39 23
f 1 23 11
f 1 11 5
f 1 5 6
f 1 6 2
f 2 7 8
f 2 8 3
f 2 6 14
f 2 14 7
f 3 8 4
f 4 8 9
f 4 9 10
f 5 11 12
f 5 12 6
f 6 12 13
f 6 13 14
f 7 14 29
f 7 29 15
f 7 15 16
f 7 16 17
f 7 17 8
f 8 17 18
f 8 18 9
f 9 18 19
f 9 19 20
f 9 20 10
f 10 20 19
f 10 19 21
f 10 21 22
f 11 23 24
f 11 24 12
f 12 25 13
f 12 24 25
f 13 25 26
f 13 26 27
f 13 27 28
f 13 28 29
f 13 29 14
f 15 29 30
f 15 30 31
f 15 31 32
f 15 32 33
f 15 33 16
f 16 33 34
f 16 34 17
f 17 34 35
f 17 35 36
f 17 36 18
f 18 36 19
f 19 36 21
f 21 37 22
f 21 36 37
f 22 37 38
f 23 39 40
f 23 40 24
f 24 40 41
f 24 41 42
f 24 42 25
f 25 42 26
f 26 43 27
f 26 42 44
f 26 44 43
f 27 43 45
f 27 45 46
f 27 46 47
f 27 47 48
f 27 48 28
f 28 48 30
f 28 30 29
f 30 48 49
f 30 49 50
f 30 50 51
f 30 51 52
f 30 52 31
f 31 52 32
f 32 52 33
f 33 52 51
f 33 51 34
f 34 53 54
f 34 54 35
f 34 51 53
f 35 54 36
f 36 54 55
f 36 55 56
f 36 56 37
f 37 56 38
f 38 56 57
f 39 58 59
f 39 59 60
f 39 60 40
f 40 60 59
f 40 59 41
f 41 59 61
f 41 61 42
f 42 62 44
f 42 61 62
f 43 44 63
f 43 63 45
f 44 62 64
f 44 64 65
f 44 65 63
f 45 63 66
f 45 66 67
f 45 67 46
f 46 67 47
f 47 67 48
f 48 67 66
f 48 66 49
f 49 66 63
f 49 63 50
f 50 68 70
f 50 70 51
f 50 63 69
f 50 69 68
f 51 70 53
f 53 71 72
f 53 72 54
f 53 70 71
f 54 72 55
f 55 73 74
f 55 74 56
f 55 72 75
f 55 75 73
f 56 74 57
f 57 74 76
f 58 77 78
f 58 78 59
f 59 78 61
f 61 79 64
f 61 64 62
f 61 78 80
f 61 80 81
f 61 81 79
f 63 65 69
f 64 82 65
f 64 79 82
f 65 82 83
f 65 83 69
f 68 69 84
f 68 84 86
f 68 86 70
f 69 83 85
f 69 85 84
f 70 86 71
f 71 86 87
f 71 87 88
f 71 88 89
f 71 89 72
f 72 90 75
f 72 89 91
f 72 91 92
f 72 92 93
f 72 93 90
f 73 76 74
f 73 75 90
f 77 94 81
f 77 81 78
f 78 81 80
f 79 81 95
f 79 95 96
f 79 96 97
f 79 97 82
f 81 98 95
f 81 94 98
f 82 97 96
f 82 96 99
f 82 99 100
f 82 100 101
f 82 101 83
f 83 101 85
f 84 85 101
f 84 101 86
f 86 101 87
f 87 101 105
f 87 105 104
f 87 104 103
f 87 103 102
f 87 102 91
f 87 91 89
f 87 89 88
f 91 102 92
f 92 102 103
f 95 98 96
f 100 104 105
f 100 105 101

