# https://github.com/mikedh/trimesh
v 66.19433286 32.53855770 -5.32771088
v 76.94322675 32.53855770 -5.32771088
v 66.35531424 32.53855770 0.05745353
v 66.36162645 52.59324058 0.05745353
v 66.20906358 52.59324058 -5.32771088
v 76.94322675 32.53855770 0.05745353
v 76.94322675 50.76357574 -5.32771088
v 66.37214792 53.32250057 0.05745353
v 66.37846179 53.70666520 0.05745353
v 66.23326261 53.71968829 -5.32771088
v 76.94322675 50.76357574 0.05745353
v 75.56173737 54.05393328 -5.32771088
v 66.47420810 54.16896507 0.05745353
v 66.52576394 54.41205173 0.05745353
v 66.38793094 54.32306281 -5.32771088
v 75.56173737 54.05393328 0.05745353
v 75.00409152 54.48801756 -5.32771088
v 67.21282678 54.63343435 0.05745353
v 66.46053053 54.43592519 -5.32771088
v 75.00409152 54.48801756 0.05745353
v 74.28230818 54.63343435 0.05745353
v 73.90037275 54.70940017 -5.32771088
v 67.21282678 54.65731113 -5.32771088
v 68.32811848 54.70940017 0.05745353
v 73.90037275 54.70940017 0.05745353
v 68.32811848 54.70940017 -5.32771088
v 69.44235871 54.71156958 -5.13109125
v 68.32811848 54.71156958 -5.13109125
f 1 2 6
f 1 6 3
f 1 3 4
f 1 4 5
f 1 5 10
f 1 10 15
f 1 15 19
f 1 19 23
f 1 23 26
f 1 26 22
f 1 22 17
f 1 17 12
f 1 12 7
f 1 7 2
f 2 7 11
f 2 11 6
f 3 6 11
f 3 11 16
f 3 16 20
f 3 20 21
f 3 21 25
f 3 25 24
f 3 24 18
f 3 18 14
f 3 14 13
f 3 13 9
f 3 9 8
f 3 8 4
f 4 8 5
f 5 8 9
f 5 9 10
f 7 12 16
f 7 16 11
f 9 13 10
f 10 13 14
f 10 14 15
f 12 17 20
f 12 20 16
f 14 18 19
f 14 19 15
f 17 21 20
f 17 22 21
f 18 23 19
f 18 24 23
f 21 22 25
f 22 26 28
f 22 28 27
f 22 27 25
f 23 24 28
f 23 28 26
f 24 25 27
f 24 27 28

