# https://github.com/mikedh/trimesh
v 112.16720525 41.90640750 45.15045489
v 112.16720525 41.71414044 45.96738563
v 112.98362661 41.70086075 45.96738563
v 112.98362661 41.88100288 45.15045489
v 112.16720525 41.90640750 43.51759209
v 32.94998797 41.90640750 45.15045489
v 112.98362661 41.36424924 46.48121309
v 32.94998797 41.71414044 45.96738563
v 113.48479695 41.31228525 46.44575940
v 113.57371203 41.44796908 45.96738563
v 113.62221294 41.53111154 45.15045489
v 112.98362661 41.88100288 43.51759209
v 112.98362661 41.87869334 42.70066136
v 112.16720525 41.90294319 42.70066136
v 32.94998797 41.90640750 43.51759209
v 32.13356661 41.88100288 45.15045489
v 32.13356661 41.70086075 45.96738563
v 112.16720525 38.84688012 46.74586667
v 112.98362661 38.82147550 46.74586667
v 113.33121237 38.76893397 46.74586667
v 32.13356661 41.36424924 46.48121309
v 113.49287881 38.61535152 46.74586667
v 113.56563017 38.51257800 46.74586667
v 113.59796248 38.42019770 46.74586667
v 113.84046701 37.57087440 46.74586667
v 113.71113289 40.79899592 45.96738563
v 113.84046701 40.79899592 45.15045489
v 113.62221294 41.53111154 42.70066136
v 113.54137972 41.42314185 42.09445481
v 112.98362661 41.54208169 41.98210172
v 112.16720525 41.55305184 41.96861938
v 32.94998797 41.90294319 42.70066136
v 32.13356661 41.87869334 42.70066136
v 32.13356661 41.88100288 43.51759209
v 31.49498028 41.53111154 45.15045489
v 31.54348119 41.44796908 45.96738563
v 31.63239627 41.31228525 46.44575940
v 32.94998797 38.84688012 46.74586667
v 31.62431441 38.61535152 46.74586667
v 32.02039865 38.79433874 46.74586667
v 32.13356661 38.82147550 46.74586667
v 32.17398322 38.82320766 46.74586667
v 113.84046701 37.53218979 46.74586667
v 113.84046701 40.79899592 42.70066136
v 112.98362661 40.79899592 41.67200776
v 113.62221294 40.79899592 41.99558407
v 112.16720525 40.79899592 41.64504307
v 32.94998797 41.55305184 41.96861938
v 32.13356661 41.54208169 41.98210172
v 31.57581350 41.42314185 42.09445481
v 31.49498028 41.53111154 42.70066136
v 31.27672621 40.79899592 45.15045489
v 31.40606033 40.79899592 45.96738563
v 31.27672621 37.53218979 46.74586667
v 31.51923074 38.42019770 46.74586667
v 113.80004797 36.71577695 46.74586667
v 113.84046701 37.53218979 42.70066136
v 112.98362661 37.53218979 41.67200776
v 113.62221294 37.53218979 41.99558407
v 112.16720525 37.53218979 41.64504307
v 32.94998797 40.79899592 41.64504307
v 32.13356661 40.79899592 41.67200776
v 31.49498028 40.79899592 41.99558407
v 31.27672621 40.79899592 42.70066136
v 31.27672621 37.49350549 46.74586667
v 113.80004797 36.71577695 42.70066136
v 113.57371203 36.15802962 46.74586667
v 113.59796248 36.71577695 42.01855408
v 112.98362661 36.71577695 41.73143013
v 112.16720525 36.71577695 41.71794779
v 32.94998797 37.53218979 41.64504307
v 32.13356661 37.53218979 41.67200776
v 31.49498028 37.53218979 41.99558407
v 31.27672621 37.53218979 42.70066136
v 31.31714525 36.71577695 46.74586667
v 31.31714525 36.71577695 42.70066136
v 113.57371203 36.15802962 42.70066136
v 113.51712926 36.20768408 42.12491454
v 113.54946158 36.15110101 46.74586667
v 112.98362661 36.15802962 42.04152409
v 32.94998797 36.71577695 41.71794779
v 32.13356661 36.71577695 41.73143013
v 31.51923074 36.71577695 42.01855408
v 31.32522711 36.68921757 46.74586667
v 31.60006396 36.20768408 42.12491454
v 31.54348119 36.15802962 42.70066136
v 112.98362661 36.00906625 42.70066136
v 112.98362661 36.00906625 46.74586667
v 32.13356661 36.15802962 42.04152409
v 31.54348119 36.15802962 46.74586667
v 32.13356661 36.00906625 42.70066136
v 32.10123186 36.01599426 46.74586667
v 32.13356661 36.00906625 46.74586667
f 1 2 3
f 1 3 4
f 1 4 12
f 1 12 5
f 1 5 15
f 1 15 6
f 1 6 8
f 1 8 2
f 2 7 3
f 2 8 21
f 2 21 7
f 3 7 9
f 3 9 10
f 3 10 4
f 4 10 11
f 4 11 28
f 4 28 12
f 5 12 13
f 5 13 14
f 5 14 32
f 5 32 15
f 6 15 34
f 6 34 16
f 6 16 17
f 6 17 8
f 7 18 19
f 7 19 20
f 7 20 9
f 7 21 38
f 7 38 18
f 8 17 21
f 9 20 22
f 9 22 23
f 9 23 24
f 9 24 25
f 9 25 26
f 9 26 10
f 10 26 27
f 10 27 11
f 11 27 44
f 11 44 28
f 12 28 13
f 13 29 30
f 13 30 14
f 13 28 29
f 14 30 31
f 14 31 48
f 14 48 32
f 15 32 33
f 15 33 34
f 16 34 51
f 16 51 35
f 16 35 36
f 16 36 17
f 17 36 37
f 17 37 21
f 18 38 42
f 18 42 41
f 18 41 40
f 18 40 39
f 18 39 55
f 18 55 54
f 18 54 65
f 18 65 75
f 18 75 84
f 18 84 90
f 18 90 92
f 18 92 93
f 18 93 88
f 18 88 79
f 18 79 67
f 18 67 56
f 18 56 43
f 18 43 25
f 18 25 24
f 18 24 23
f 18 23 22
f 18 22 20
f 18 20 19
f 21 37 39
f 21 39 40
f 21 40 41
f 21 41 42
f 21 42 38
f 25 43 57
f 25 57 44
f 25 44 27
f 25 27 26
f 28 44 29
f 29 45 30
f 29 44 46
f 29 46 45
f 30 45 47
f 30 47 31
f 31 47 61
f 31 61 48
f 32 48 49
f 32 49 33
f 33 49 50
f 33 50 51
f 33 51 34
f 35 51 64
f 35 64 52
f 35 52 36
f 36 52 53
f 36 53 37
f 37 53 54
f 37 54 55
f 37 55 39
f 43 56 66
f 43 66 57
f 44 57 59
f 44 59 46
f 45 46 59
f 45 59 58
f 45 58 60
f 45 60 47
f 47 60 71
f 47 71 61
f 48 61 49
f 49 62 50
f 49 61 62
f 50 62 63
f 50 63 64
f 50 64 51
f 52 64 74
f 52 74 65
f 52 65 54
f 52 54 53
f 56 67 77
f 56 77 66
f 57 66 68
f 57 68 59
f 58 69 60
f 58 59 68
f 58 68 69
f 60 69 70
f 60 70 81
f 60 81 71
f 61 71 72
f 61 72 62
f 62 72 73
f 62 73 63
f 63 73 74
f 63 74 64
f 65 74 76
f 65 76 75
f 66 77 78
f 66 78 68
f 67 79 77
f 68 78 69
f 69 80 70
f 69 78 80
f 70 80 89
f 70 89 81
f 71 81 82
f 71 82 72
f 72 82 83
f 72 83 73
f 73 83 74
f 74 83 76
f 75 76 84
f 76 83 85
f 76 85 86
f 76 86 84
f 77 79 87
f 77 87 78
f 78 87 80
f 79 88 87
f 80 87 91
f 80 91 89
f 81 89 82
f 82 89 85
f 82 85 83
f 84 86 90
f 85 89 91
f 85 91 86
f 86 91 92
f 86 92 90
f 87 88 93
f 87 93 91
f 91 93 92

