# https://github.com/mikedh/trimesh
v 76.60821954 51.44282138 45.39369433
v 76.60821954 45.28925183 45.39369433
v 76.60821954 51.44282138 41.48117509
v 65.46507600 51.44282138 45.39369433
v 33.99072563 51.43787792 46.42322802
v 34.71654110 51.43717029 46.42322802
v 56.46581200 48.89425305 46.42322802
v 76.60821954 45.39517750 43.61861865
v 56.46581200 44.23423255 46.42322802
v 76.60821954 46.97982351 41.48117509
v 56.46581200 51.43787792 41.48069088
v 56.47000744 51.44282138 41.48117509
v 56.47000744 51.44282138 44.71201455
v 33.74738960 51.43787792 46.42322802
v 76.60821954 45.45590769 42.98193337
v 53.83525790 44.23352657 46.42322802
v 72.78196176 45.50039555 42.50393561
v 76.60821954 45.50180749 42.50393561
v 76.60821954 46.56671370 41.58083838
v 71.67016324 46.01378160 41.71388417
v 70.55417125 46.97982351 41.48117509
v 56.46581200 49.91608168 41.48069088
v 52.72346063 51.43787792 41.48069088
v 33.74738960 51.43787792 41.48165847
v 33.74738960 44.22999505 46.42322802
v 43.80810553 44.23140700 46.42322802
v 71.67016324 45.50180749 42.50393561
v 70.55417125 46.01448757 41.71388417
v 73.89795209 46.01448757 41.71388417
v 33.77256206 44.22928908 46.42322802
v 76.60821954 46.01590117 41.71388417
v 33.74738960 47.07445031 41.73420371
v 33.74738960 48.09274743 41.50681599
v 33.74738960 48.11746475 41.50584839
v 33.74738960 49.20708661 41.48165847
v 54.95125052 50.32213011 41.48069088
v 52.72346063 51.43717029 41.48069088
v 33.74738960 45.50816456 43.61861865
v 70.55417125 45.50816456 42.50393561
v 33.74738960 46.02154895 42.54747746
v 33.74738960 46.03214185 42.53489870
v 33.74738960 46.49397866 41.99013594
v 33.74738960 46.50668948 41.98433036
v 33.74738960 47.05114660 41.74000929
v 33.74738960 45.51946177 43.59491211
f 1 2 8
f 1 8 15
f 1 15 18
f 1 18 31
f 1 31 19
f 1 19 10
f 1 10 3
f 1 3 12
f 1 12 13
f 1 13 4
f 1 4 14
f 1 14 5
f 1 5 6
f 1 6 7
f 1 7 9
f 1 9 2
f 2 9 8
f 3 10 22
f 3 22 11
f 3 11 23
f 3 23 12
f 4 13 14
f 5 14 25
f 5 25 30
f 5 30 26
f 5 26 16
f 5 16 9
f 5 9 7
f 5 7 6
f 8 9 15
f 9 16 17
f 9 17 18
f 9 18 15
f 10 19 20
f 10 20 21
f 10 21 22
f 11 22 36
f 11 36 37
f 11 37 23
f 12 23 24
f 12 24 14
f 12 14 13
f 14 24 35
f 14 35 34
f 14 34 33
f 14 33 32
f 14 32 44
f 14 44 43
f 14 43 42
f 14 42 41
f 14 41 40
f 14 40 45
f 14 45 38
f 14 38 25
f 16 26 17
f 17 27 28
f 17 28 20
f 17 20 29
f 17 29 18
f 17 26 30
f 17 30 27
f 18 29 31
f 19 31 29
f 19 29 20
f 20 28 21
f 21 28 32
f 21 32 33
f 21 33 34
f 21 34 35
f 21 35 22
f 22 35 36
f 23 37 35
f 23 35 24
f 25 38 30
f 27 39 28
f 27 30 39
f 28 39 40
f 28 40 41
f 28 41 42
f 28 42 43
f 28 43 44
f 28 44 32
f 30 38 39
f 35 37 36
f 38 45 39
f 39 45 40

