# https://github.com/mikedh/trimesh
v 75.58351054 71.87997549 52.12910138
v 75.56140947 72.95878686 52.12805904
v 75.00384619 73.39725683 52.12805904
v 73.90077597 73.61866289 52.12805904
v 66.36714939 71.87997549 52.12910138
v 76.60822120 69.72452550 52.12910138
v 75.56140947 72.95878686 43.61953558
v 75.00384619 73.39725683 43.61953558
v 73.90077597 73.61866289 43.61953558
v 68.32816311 73.61866289 52.12805904
v 66.36112205 71.50228554 52.12910138
v 67.21404236 73.54269036 52.12805904
v 66.52688424 73.32128430 52.12805904
v 66.47263487 73.06297833 52.12805904
v 66.37920573 72.61799680 52.12805904
v 66.34504832 73.19104661 46.69127598
v 76.60822120 51.44552899 52.12910138
v 76.60822120 69.72452550 43.61953558
v 75.55236804 72.64187360 42.44066226
v 74.99179151 73.38640314 42.50424458
v 76.60822120 69.63987200 42.50424458
v 73.90077597 73.59695551 42.50424458
v 67.21404236 73.60129765 42.50424458
v 66.34504832 73.61866289 43.61953558
v 66.34504832 71.50228554 47.84200594
v 66.35509471 51.44552899 52.12910138
v 66.34504832 72.61799680 47.52096898
v 66.34504832 72.21642673 47.67627573
v 66.34504832 71.87997549 47.75549283
v 66.34504832 73.36686848 46.13779987
v 76.60822120 51.44552899 41.48171993
v 74.80593819 73.31043060 41.81005332
v 76.60822120 69.19054833 41.72875194
v 73.90077597 73.37554945 41.74126010
v 66.34504832 73.60129765 42.50424458
v 67.21404236 73.37772218 41.74021776
v 66.34504832 51.44552899 47.95457730
v 66.34504832 51.44552899 41.48171993
v 76.60822120 57.01323162 41.48067842
v 74.99480643 72.61799680 41.72771043
v 73.90077597 72.61799680 41.50882095
v 76.60822120 68.77595515 41.62034955
v 66.34504832 73.37772218 41.74021776
v 67.21404236 72.61799680 41.50777860
v 66.34504832 69.02558015 41.48067842
v 70.55740958 57.01323162 41.48067842
v 76.60822120 68.15732116 41.48067842
v 73.89977266 71.87997549 41.49005871
v 66.34504832 72.61799680 41.50777860
v 66.34504832 72.37054121 41.50152535
v 66.34504832 71.50228554 41.48067842
v 73.89977266 70.38657095 41.48067842
v 73.89977266 71.50228554 41.48171993
v 68.32816311 71.50228554 41.48067842
f 1 2 3
f 1 3 4
f 1 4 10
f 1 10 5
f 1 5 11
f 1 11 26
f 1 26 17
f 1 17 6
f 1 6 2
f 2 7 8
f 2 8 3
f 2 6 18
f 2 18 7
f 3 8 9
f 3 9 4
f 4 9 24
f 4 24 10
f 5 10 12
f 5 12 13
f 5 13 14
f 5 14 15
f 5 15 16
f 5 16 11
f 6 17 31
f 6 31 39
f 6 39 47
f 6 47 42
f 6 42 33
f 6 33 21
f 6 21 18
f 7 19 20
f 7 20 8
f 7 18 21
f 7 21 19
f 8 20 9
f 9 20 22
f 9 22 23
f 9 23 35
f 9 35 24
f 10 24 12
f 11 25 26
f 11 16 27
f 11 27 28
f 11 28 29
f 11 29 25
f 12 24 13
f 13 24 30
f 13 30 14
f 14 30 15
f 15 30 16
f 16 30 24
f 16 24 35
f 16 35 43
f 16 43 49
f 16 49 50
f 16 50 51
f 16 51 45
f 16 45 38
f 16 38 37
f 16 37 25
f 16 25 29
f 16 29 28
f 16 28 27
f 17 26 37
f 17 37 38
f 17 38 31
f 19 32 20
f 19 21 33
f 19 33 32
f 20 32 22
f 22 32 34
f 22 34 23
f 23 34 36
f 23 36 43
f 23 43 35
f 25 37 26
f 31 38 46
f 31 46 39
f 32 33 40
f 32 40 41
f 32 41 34
f 33 42 40
f 34 41 36
f 36 41 44
f 36 44 49
f 36 49 43
f 38 45 46
f 39 46 45
f 39 45 51
f 39 51 54
f 39 54 52
f 39 52 47
f 40 42 47
f 40 47 41
f 41 47 48
f 41 48 44
f 44 48 50
f 44 50 49
f 47 52 53
f 47 53 48
f 48 53 54
f 48 54 50
f 50 54 51
f 52 54 53

